<?xml version="1.0"?>
<svg xmlns="http://www.w3.org/2000/svg" width="347" height="159">
<path fill="#E8E8E8" d="M142,2c0,0,38-4,55-1l28,44l61,33l59,81L0,158l55-77l63-37L142,2z"/>
<path d="M155,4c0,0-12,13-14,31c0,0-18,5-21,6l-2,3c0,0,18-5,38-8c0,0,4,1,6-24 C161,12,164-4,155,4z"/>
<path d="M225,44c0,0-30-3-52-3c0,0-4-4,2-4c6-0,41,2,48,4L225,44z"/>
<ellipse transform="matrix(1 0.17 -0.17 1 14 -37)" cx="218" cy="64" rx="15" ry="6"/>
<path d="M5,150c0,0,221-6,337,2l4,5L0,158L5,150z"/>
<path d="M49,132c0,0,22-51-19,6c0,0-2,4-18,3l-7,10l116-1C121,149,39,146,49,132z"/>
<ellipse transform="matrix(0.8 0.57 -0.57 0.82 103 -51)" cx="132" cy="139" rx="6" ry="7"/>
<ellipse transform="matrix(0.9 0.43 -0.43 0.9 76 -57)" cx="164" cy="139" rx="6" ry="7"/>
<ellipse transform="matrix(1 -0.025 0.02 1 -3 5)" cx="198" cy="139" rx="7" ry="7"/>
<path d="M30,132c-3,4-6,6-7,5c-1-1-0-5,2-9c3-4,6-6,7-5C33,124,33,128,30,132z"/>
<path d="M55,81l54-2c0,0,61-2-1-4l-43,0L55,81z"/>
</svg>