<?xml version="1.0"?>
<svg xmlns="http://www.w3.org/2000/svg" width="191" height="109" stroke-width="5" stroke-linecap="round" stroke="#2D2D2D" fill="none">
<polygon fill="#F8F8F8" points="72,6 58,23 17,0 0,25 42,54 173,52 180,19 180,7" stroke="none"/>
<line x1="72" y1="54" x2="102" y2="81"/>
<line x1="122" y1="44" x2="123" y2="7"/>
<path d="M31,68c-8,0-15,7-15,15s7,15,15,15 s15-7,15-15S39,68,31,68z M31,89c-3,0-6-3-6-6s3-6,6-6s6,3,6,6S34,89,31,89z"/>
<circle fill="#2D2D2D" cx="31" cy="83" r="6"/>
<path d="M98,68c-8,0-15,7-15,15s7,15,15,15 s15-7,15-15S106,68,98,68z M98,89c-3,0-6-3-6-6s3-6,6-6s6,3,6,6S101,89,98,89z"/>
<circle fill="#2D2D2D" cx="98" cy="83" r="6"/>
<path d="M172,68c-8,0-15,7-15,15s7,15,15,15 s15-7,15-15S180,68,172,68z M172,89c-3,0-6-3-6-6s3-6,6-6s6,3,6,6S175,89,172,89z"/>
<circle fill="#2D2D2D" cx="172" cy="83" r="6"/>
<polyline points="27,81 27,58 42,54 72,54 122,44 173,52 173,83"/>
</svg>