<?xml version="1.0"?>
<svg xmlns="http://www.w3.org/2000/svg" width="260" height="128">
<polygon fill="#E8E8E8" points="191,5 129,0 68,5 0,52 0,63 48,73 55,115 129,128 204,115 210,73 259,63 259,52"/>
<path fill="#E8E8E8" d="M44,123c0,0,1-17-5-28l-2-0c0,0-9,14-10,28L44,123z"/>
<path fill="#E8E8E8" d="M25,121c0,0,5-16,1-29L24,91c0,0-12,12-16,25L25,121z"/>
<path fill="#E8E8E8" d="M214,123c0,0-1-17,5-28l2-0c0,0,9,14,10,28L214,123z"/>
<path fill="#E8E8E8" d="M233,121c0,0-5-16-1-29l2-1c0,0,12,12,16,25L233,121z"/>
<rect x="20" y="67" transform="matrix(1 0.23 -0.23 0.97 19 -6)" fill="#E8E8E8" width="29" height="29"/>
<polyline points="53,62 95,7 68,9 5,53"/>
<rect x="209" y="67" transform="matrix(-0.98 0.23 -0.23 -1 460 110)" fill="#E8E8E8" width="29" height="29"/>
<ellipse transform="matrix(0.81 0.6 -0.58 0.8 29 -24)" fill="#E8E8E8" cx="52" cy="33" rx="10" ry="12"/>
<ellipse cx="51" cy="29" rx="4" ry="4"/>
<ellipse cx="54" cy="38" rx="4" ry="4"/>
<polygon points="178,38 149,72 191,72 199,65"/>
<polyline points="206,62 164,7 191,9 254,53"/>
<ellipse transform="matrix(-0.815 0.575 -0.58 -0.8 394 -59)" fill="#E8E8E8" cx="207" cy="33" rx="10" ry="12"/>
<ellipse cx="208" cy="29" rx="4" ry="4"/>
<ellipse cx="205" cy="38" rx="4" ry="4"/>
<path d="M155,7l-26-3l-26,3L80,38L60,65l8,7h43L98,58v0c-12-36,18-46,18-46 s33-7,35,24s-18,36-18,36h8l33-40L155,7z"/>
<path fill="#2D2D2D" d="M109,72l-8-8c-9-7-8-25-7-30s12-28,10,1c-2,40,26,37,26,37H109z"/>
<polygon fill="#2D2D2D" points="70,95 70,98 124,98 116,95"/>
<polygon points="124,89 124,98 133,95 133,85"/>
<polygon fill="#2D2D2D" points="70,95 70,98 124,98 116,95"/>
<polygon fill="#2D2D2D" points="184,96 181,98 127,98 134,96"/>
<ellipse transform="matrix(0.97 -0.23 0.23 0.97 -24 25)" cx="93" cy="113" rx="10" ry="11"/>
<ellipse transform="matrix(0.97 -0.23 0.23 0.97 -24 24)" fill="#E8E8E8" cx="92" cy="115" rx="10" ry="11"/>
<ellipse transform="matrix(0.97 -0.23 0.23 0.97 -23 33)" cx="128" cy="115" rx="10" ry="5"/>
<ellipse transform="matrix(0.97 -0.23 0.23 0.97 -23 33)" fill="#E8E8E8" cx="129" cy="117" rx="10" ry="5"/>
<ellipse transform="matrix(-0.72 0.69 -0.69 -0.72 361 86)" cx="163" cy="115" rx="8" ry="13"/>
<ellipse transform="matrix(-0.72 0.69 -0.69 -0.72 362 80)" fill="#E8E8E8" cx="165" cy="113" rx="8" ry="13"/>
</svg>