<?xml version="1.0"?>
<svg xmlns="http://www.w3.org/2000/svg" width="260" height="128" fill="#E8E8E8">
<polygon points="191,5 129,0 68,5 0,52 0,63 48,73 55,115 129,128 204,115 210,73 259,63 259,52"/>
<path d="M44,123c0,0,1-17-5-28h-2c0,0-9,14-10,28H44z"/>
<path d="M25,121c0,0,5-16,1-29l-2-1c0,0-12,12-16,25L25,121z"/>
<path d="M214,123c0,0-1-17,5-28h2c0,0,9,14,10,28H214z"/>
<path d="M233,121c0,0-5-16-1-29l2-1c0,0,12,12,16,25L233,121z"/>
<polygon points="24,64 53,70 46,98 17,92"/>
<polyline points="53,62 95,7 68,9 5,53" fill="#000"/>
<polygon points="240,91 211,98 205,69 233,62"/>
<path d="M59,24c4,3,5,10,1,16c-4,5-11,7-15,4 c-4-3-5-10-1-16C48,22,54,21,59,24z"/>
<polyline points="206,62 164,7 191,9 254,53" fill="#000"/>
<path d="M213,43c-4,3-11,1-15-4c-4-5-3-12,1-15 c5-3,11-1,15,4S218,40,213,43z"/>
<path d="M155,7l-26-3l-26,3L80,38L60,65l8,7h123l8-7L155,7z" fill="#000"/>
<ellipse cx="93" cy="113" rx="10" ry="11" fill="#000"/>
<ellipse cx="128" cy="113" rx="10" ry="11" fill="#000"/>
<ellipse cx="163" cy="113" rx="10" ry="11" fill="#000"/>
<ellipse cx="129" cy="42" rx="26" ry="31"/>
</svg>