<svg version="1.1" xmlns="http://www.w3.org/2000/svg"><line fill="none" stroke="#666" stroke-width="3" x1="68" y1="81.75" x2="87" y2="36"/><line fill="none" stroke="#666" x1="72" y1="35" x2="97" y2="46"/><line fill="none" stroke="#666" x1="71" y1="44" x2="92" y2="53"/><line fill="none" stroke="#033" x1="9" y1="11" x2="9" y2="85"/><line fill="none" stroke="#033" x1="27" y1="11" x2="27" y2="85"/><line fill="none" stroke="#033" x1="37" y1="22" x2="37" y2="85"/><line fill="none" stroke="#033" x1="18" y1="22" x2="18" y2="85"/><line fill="none" stroke="#033" x1="9" y1="34" x2="27" y2="34"/><line fill="none" stroke="#033" x1="27" y1="44" x2="9" y2="44"/><line fill="none" stroke="#033" x1="27" y1="32" x2="37" y2="34"/><line fill="none" stroke="#033" x1="37" y1="27" x2="27" y2="19"/><line fill="none" stroke="#033" x1="37" y1="69" x2="27" y2="72"/><line fill="none" stroke="#033" x1="37" y1="59" x2="27" y2="61"/><line fill="none" stroke="#033" x1="37" y1="50" x2="27" y2="50"/><rect x="9" y="50" fill="#333" stroke="#033" width="18" height="30"/><rect x="27" y="44" fill="#333" stroke="#033" width="10" height="6"/><rect fill="#000" y="80" width="99" height="19"/></svg>