<svg version="1" xmlns="http://www.w3.org/2000/svg"><path stroke="#000" d="M98,44c0-24-22-44-48-44C24,0,3,20,3,45C20,45,32,36,34,55h37C71,34,82,48,97,44z"/><polygon fill="#321" points="99,99 99,75 72,73 38,73 0,85 0,99 "/><ellipse fill="#FF7" cx="55" cy="73" rx="17" ry="12"/><ellipse fill="#FDB" cx="52" cy="51" rx="18" ry="26"/><ellipse fill="#FCB" cx="55" cy="70" rx="14" ry="8"/><line fill="#FD6" stroke="#FF7" stroke-width="4" x1="0" y1="85" x2="38" y2="73"/><line fill="none" stroke="#FF7" stroke-width="4" x1="71" y1="71" x2="98" y2="74"/><line fill="none" stroke="#FF7" stroke-width="4" x1="52" y1="99" x2="55" y2="82"/><line fill="none" stroke="#FF7" stroke-width="4" x1="61" y1="82" x2="70" y2="97"/><path fill="none" stroke="#321" d="M59,66c0-3-0-7-2-7"/><path fill="none" stroke="#321" d="M43,67c0-4,1-7,2-7"/><path fill="none" stroke="#321" d="M47,60c-0,0,5,3,8,0"/><path fill="none" stroke="#321" d="M42,72c2,4,16,6,20,1"/></svg>