<svg version="1.1" xmlns="http://www.w3.org/2000/svg"><rect x="0" y="0" fill="#111" stroke="none" width="99" height="62"/><rect x="0" y="62" fill="#433" width="99" height="37"/><line fill="none" stroke="#000" x1="8" y1="71" x2="0" y2="72"/><rect x="7" y="54" fill="#855" width="86" height="18"/><polyline fill="#A55" points="0,70 0,60 18,42 27,42 0,69 "/><polyline fill="#A55" points="99,69 76,42 81,42 99,65 "/><polyline fill="#855" points="99,65 81,42 86,42 99,57 "/><polyline fill="#855" points="90,69 64,36 38,36 12,69 91,69 "/><rect x="30" y="41" fill="#A55" width="19" height="30"/><rect x="55" y="41" fill="#A55" width="18" height="30"/><line fill="none" stroke="#311" stroke-width="2" x1="48" y1="41" x2="48" y2="71"/><line fill="none" stroke="#311" stroke-width="2" x1="56" y1="41" x2="56" y2="71"/><line fill="none" stroke="#000" x1="48" y1="71" x2="11" y2="99"/><line fill="none" stroke="#000" x1="56" y1="71" x2="90" y2="99"/><line fill="none" stroke="#000" x1="31" y1="71" x2="0" y2="82"/><line fill="none" stroke="#000" x1="73" y1="71" x2="99" y2="82"/><line fill="none" stroke="#000" x1="93" y1="71" x2="99" y2="73"/></svg>