<svg version="1" xmlns="http://www.w3.org/2000/svg"><path fill="none" stroke="#000" stroke-width="3" d="M59,13c36,0,43,30,10,54"/><rect x="33" y="67" fill="#FFE" stroke="#000" width="34" height="26"/><ellipse fill="#FFE" stroke="#000" cx="49" cy="45" rx="28" ry="37"/><path fill="none" stroke="#000" stroke-width="3" d="M28,70C3,80-18,49,43,25"/><line fill="none" stroke="#000" x1="69" y1="25" x2="69" y2="36"/><path stroke="#000" d="M69,25c0-2-10-5-24-5c0-6,0-12,0-12c-9-8-40,33-15,62C29,61,40,52,55,52c0-8,6-16,14-16"/><circle fill="#FA4" stroke="#666" cx="41" cy="45" r="6"/><line fill="none" stroke="#F47" x1="43" y1="68" x2="59" y2="68"/><path fill="none" stroke="#F47" d="M49,60c3,3,5-3,7-0"/><path d="M0,94c18,0,33-7,33-15c0,4,24,16,35-1C68,84,82,90,99,91v9V99H0"/></svg>