<svg version="1.1" id="Layer_1" xmlns="http://www.w3.org/2000/svg" width="99" height="99">
<ellipse fill="#999" stroke="#000" cx="50.688" cy="98.25" rx="46.563" ry="28"/>
<path fill="#999" stroke="#000" d="M19,66c0-51,59-64,63,0"/>
<rect x="43.75" y="9.25" fill="#999" stroke="#000" width="10.875" height="37.5"/>
<path fill="#999" stroke="#000" d="M40,61L19,66c8,5,7,12,2,27.5l11,3h38.125l9.5-4C76,81,75,68,81,65.5l-21-4.5H39.75z"/>
<rect x="24.25" y="52.625" width="51.375" height="8.25"/>
<path fill="#333333" stroke="#CCC" d="M31,96c0-33,34-46,39,0"/>
<line fill="none" stroke="#CCC" x1="43.75" y1="72.5" x2="59.375" y2="72.5"/>
<line fill="none" stroke="#CCC" x1="60.5" y1="76.875" x2="42" y2="76.875"/>
<line fill="none" stroke="#CCC" x1="40.75" y1="81.75" x2="61.5" y2="81.75"/>
<line fill="none" stroke="#CCC" x1="62.25" y1="86.25" x2="39.875" y2="86.25"/>
<line fill="none" stroke="#CCC" x1="38.563" y1="91.625" x2="63.5" y2="91.625"/>
<line fill="none" stroke="#F33" stroke-width="6" x1="49.125" y1="56.375" x2="62.375" y2="56.375"/>
</svg>
