<svg version="1.1" xmlns="http://www.w3.org/2000/svg" width="300" height="300"><path d="M1,131C40,70,100,80,139,131"/><path fill="#C22" d="M104,67c-1,31-14,57-34,57S35,98,32,67C28,24,44,10,69,10C97,10,105,31,104,67z"/><path fill="#CA9" d="M25,21c0,6,6.8,9,8,17c4-7,5-11,5-14C30,27,27,23,25,21z"/><path fill="#CA9" d="M111,26c-0,6-7,9-8,17c-4-7-5-11-5-14C106,32,109,28,111,26z"/><path fill="#CA9" d="M72,23C72,24,70,32,69,32s-3-3-3-7s2-1,3-7C69,14,69,19,72,23z"/><path fill="#CA9" d="M48,32c7-5,3-10,3-10c-4-1-4-3-6-4C42,20,44,26,48,32z"/><path fill="#CA9" d="M91,30c-5-6-3-10-3-10c4-1,4-3,6-4C97,18,95,25,91,30z"/></svg>