<svg version="1" xmlns="http://www.w3.org/2000/svg"><path stroke="#000000" d="M79,42C85-4,16-6,21,43C0,92,2,83,25,85c1,3,26,26,48,1C98,85,98,87,79,42z"/><rect fill="#000" x="48" y="4" stroke="#FFF" width="5" height="37"/><ellipse stroke="#FFF" cx="40" cy="50" rx="9" ry="7"/><ellipse stroke="#FFF" cx="62" cy="50" rx="9" ry="7"/><path display="none" fill="none" stroke="#FFF" d="M77,42c6-43-58-45-53,1C3,88,5,80,26,82c1,3,24,24,46,1C96,82,95,84,77,42z"/><ellipse cx="49" cy="84" rx="22" ry="10"/><rect fill="#000" x="63" y="44" width="10" height="10"/><circle fill="#FFF" cx="50" cy="64" r="3"/><line fill="none" stroke="#FFF" x1="36" y1="78" x2="47" y2="62"/><line fill="none" stroke="#FFF" x1="53" y1="62" x2="63" y2="78"/><line fill="none" stroke="#FFF" x1="63" y1="78" x2="36" y2="78"/><line fill="none" stroke="#FFF" stroke-width="2" x1="40" y1="75" x2="40" y2="78"/><line fill="none" stroke="#FFF" stroke-width="2" x1="43" y1="70" x2="43" y2="78"/><line fill="none" stroke="#FFF" stroke-width="2" x1="47" y1="78" x2="47" y2="67"/><line fill="none" stroke="#FFF" stroke-width="2" x1="51" y1="78" x2="51" y2="68"/><line fill="none" stroke="#FFF" stroke-width="2" x1="56" y1="78" x2="56" y2="70"/><line fill="none" stroke="#FFF" stroke-width="2" x1="59" y1="78" x2="59" y2="76"/><path fill="none" stroke="#FFF" d="M31,40c6-3,13-0,16,1"/><path fill="none" stroke="#FFF" d="M70,38c-4-2-9-1-15,4"/><polyline fill="#FFF" points="31,60 45,62 38,70 "/><polyline fill="#FFF" points="70,60 56,62 62,70 "/><path fill="none" stroke="#FFF" stroke-width="2" d="M8,87c0-5,2-9,9-10"/><path fill="none" stroke="#FFF" stroke-width="2" d="M92,85c0-4-1-7-8-9"/><rect fill="#000" x="29" y="44" width="10" height="10"/><line fill="none" stroke="#FFF" x1="17" y1="76" x2="20" y2="59"/><line fill="none" stroke="#FFF" x1="85" y1="75" x2="81" y2="60"/></svg>