<svg version="1.1" xmlns="http://www.w3.org/2000/svg"><rect x="8" y="68" width="11" height="18"/><rect x="84" y="68" width="11" height="18"/><polygon fill="#999" points="17,80 87,80 96,68 96,53 74,29 27,29 7,53 7,68"/><rect x="38" y="57" width="28" height="7"/><path fill="none" stroke="#666" stroke-width="5" d="M61,29c0-11,8-21,18-21"/><path fill="none" stroke="#666" stroke-width="5" d="M42,29c0-11-8-21-18-21"/><path stroke="#666" stroke-width="3" d="M79,9c2-5,17-3,20,6"/><path stroke="#666" stroke-width="3" d="M25,9C23,4,7,6,5,15"/><rect x="71" y="57" fill="#FFF" width="9" height="7"/><rect x="82" y="57" fill="#FFF" width="9" height="7"/><rect x="13" y="57" fill="#FFF" width="9" height="7"/><rect x="25" y="57" fill="#FFF" width="9" height="7"/></svg>