<svg version="1.1" id="Layer_1" xmlns="http://www.w3.org/2000/svg"><rect fill="#8DF" width="99" height="99"/><rect y="55" fill="#FFD" width="99" height="44"/><path fill="#FFD" stroke="#CC9" d="M0,55c39-0,71-11,99-0"/><ellipse fill="#666" cx="81" cy="66" rx="15" ry="7"/><path fill="none" stroke="#666" stroke-width="30" d="M81,67c0-22-24-40-53-40"/><path fill="none" stroke="#333" stroke-width="10" d="M71,67c0-18-20-30-45-30"/><ellipse fill="#666" cx="28" cy="27" rx="13" ry="15"/><ellipse cx="27" cy="27" rx="9" ry="10"/><polygon fill="#FFF" points="27,23 25,18 29,18 "/><polygon fill="#FFF" points="30,25 32,21 35,24 "/><polygon fill="#FFF" points="25,24 20,24 22,20 "/><ellipse fill="#333" cx="71" cy="67" rx="5" ry="3"/><circle fill="#CC9" cx="86" cy="72" r="5"/><circle fill="#CC9" cx="74" cy="70" r="6"/><circle fill="#CC9" cx="92" cy="66" r="6"/><circle fill="#CC9" cx="67" cy="68" r="4"/><circle fill="#FFD" cx="86" cy="70" r="5"/><circle fill="#FFD" cx="74" cy="69" r="6"/><circle fill="#FFD" cx="92" cy="64" r="6"/><circle fill="#FFD" cx="66" cy="66" r="4"/><circle fill="#FFD" cx="80" cy="73" r="6"/></svg>