<svg version="1.1" xmlns="http://www.w3.org/2000/svg"><rect fill="#666" width="99" height="99"/><rect x="19" y="58" fill="#020" width="80" height="42"/><polyline fill="#FCC" points="33,66 59,97 71,61"/><ellipse fill="#FCC" cx="54" cy="45" rx="24" ry="34"/><path fill="none" stroke="#000" stroke-width="6" d="M30,99c19-23,3-43,4-52"/><path fill="none" stroke="#000" stroke-width="6" d="M35,48c-5-25,5-38,28-35"/><circle fill="#CF3" cx="66" cy="41" r="3"/><circle fill="#CF3" cx="50" cy="41" r="3"/><path fill="#020" d="M99,85C69,58,69,21,60,16C43,4,23,20,36,62c8,13-5,37-9,37H0V65C26,1,50-5,69,6c15,10,15,39,31,50v29H99z"/><path fill="none" stroke="#999" d="M41,44c0,2,6,12,15,2"/><path fill="none" stroke="#999" d="M62,45c0,2,11,7,11,0"/></svg>