<svg version="1" xmlns="http://www.w3.org/2000/svg">
<rect x="46" y="50" fill="#C97" stroke="#000" width="17" height="49"/>
<path fill="#A97" stroke="#000" d="M34,70C20,70,9,83,9,99h85c0-15-10-28-22-28c-4,0-8-7-8-16l-17,2C45,64,40,70,34,70z"/>
<path fill="#A97" stroke="#000" d="M63,8c-0-1-17-3-23,1C25,7-2,41,30,48c21,18,33,7,43-3C94,35,86,10,63,8z"/>
<path fill="none" stroke="#000" d="M39,48c7,3,20,3,25-1"/>
<circle fill="#853" cx="30" cy="32" r="8"/>
<circle fill="#853" cx="72" cy="27" r="8"/>
<circle fill="#331" cx="47" cy="32" r="1"/>
<circle fill="#331" cx="54" cy="32" r="1"/>
<path fill="none" stroke="#331" d="M38,51c-2-9,2-17,6-18"/>
<path fill="none" stroke="#331" d="M57,32c3,0,11,14,8,19"/>
<path fill="#EDD" d="M37,31c-2,10-14,3-14,1C26,27,34,25,37,31z"/>
<path fill="#EDD" d="M79,27c-2,10-14,3-14,1C68,23,76,21,79,27z"/>
<circle fill="#99C" stroke="#000" cx="31" cy="31" r="3"/>
<circle fill="#99C" stroke="#000" cx="73" cy="27" r="3"/>
<path fill="#331" d="M22,20c14-1,20,5,25-2C37,15,22,19,22,20z"/>
<path fill="#331" stroke="#343417" d="M78,17c-7-4-21,1-26,1C59,25,65,15,78,17z"/>
</svg>
