<svg version="1.1" xmlns="http://www.w3.org/2000/svg"><polyline fill="#111" stroke="#000" points="79,99 99,99 99,92 84,87 "/><path fill="#422" stroke="#000" d="M0,99V74c5-5,56-15,92-0L79,99"/><path fill="#99A" stroke="#000" d="M15,72c-5-19,17-36,14-47c0-5-9-10-21-10c9-7,42,5,77,4c7,0,7,4,7,10c-1-10-14-6-20,2c-3,23,11,52-15,68H35C22,86,15,92,15,72z"/><path fill="none" stroke="#000" stroke-width="3" d="M30,66C44,61,60,62,69,67"/><path fill="none" stroke="#669" d="M50,23c-9,1-17-11-42-9"/><path fill="none" stroke="#669" d="M63,23c0-1,12-4,27-4"/><path fill="none" stroke="#CCC" stroke-width="3" d="M22,76C22,60,30,48,39,48"/><path fill="none" stroke="#CCC" stroke-width="3" d="M81,76c0-14-6-26-15-26"/><path fill="none" stroke="#669" stroke-width="2" d="M30,82c0,2,18,10,34,2"/></svg>