<svg version="1.1" xmlns="http://www.w3.org/2000/svg"><line fill="none" stroke="#666" stroke-width="4" x1="9" y1="28" x2="0" y2="24"/><line fill="none" stroke="#666" stroke-width="4" x1="13" y1="23" x2="7" y2="17"/><line fill="none" stroke="#666" stroke-width="3" x1="10" y1="37" x2="3" y2="37"/><circle fill="#FFA" stroke="#000" cx="19" cy="31" r="10"/><circle fill="#776" stroke="#000" cx="23" cy="33" r="10"/><ellipse fill="#333" stroke="#000" cx="30" cy="36" rx="12" ry="13"/><polyline fill="#776" stroke="#000" points="51,30 38,28 27,37 23,54 32,60 36,57 39,61 47,57 61,61 72,62 92,70 99,65 88,50 74,42 61,45 59,37"/><circle fill="#776" cx="33" cy="37" r="10"/><path fill="none" stroke="#000" d="M77,64"/><path fill="none" stroke="#000" d="M77,48"/><line fill="none" stroke="#999" x1="88" y1="50" x2="77" y2="48"/><line fill="none" stroke="#999" x1="77" y1="48" x2="88" y2="56"/><line fill="none" stroke="#333" x1="85" y1="59" x2="75" y2="56"/><line fill="none" stroke="#999" x1="77" y1="48" x2="75" y2="56"/><line fill="none" stroke="#333" x1="75" y1="56" x2="77" y2="64"/><path fill="none" stroke="#333" d="M54,59c-2-7,3-14,7-14"/><path fill="none" stroke="#999" d="M61,45c-2-11-7-13-20-16"/><path fill="none" stroke="#333" d="M25,45c0-9,6-16,14-16"/><polyline points="92,55 88,56 85,59 91,64 95,60 "/><path fill="#776" stroke="#000" d="M32,60C43,80,20,71,12,63c-3-4-1-12,11-8"/><path fill="#776" stroke="#000" d="M59,37c7,4,18,2,7-6C51,23,51,30,51,30"/><line fill="none" stroke="#333" x1="47" y1="57" x2="36" y2="57"/></svg>