<svg version="1.1" xmlns="http://www.w3.org/2000/svg"><rect fill="#000" stroke="none" x="0" y="0" width="99" height="99"/><polygon fill="#FF9" stroke="none" points="71,40 63,65 52,58"/><polyline fill="#FF9" stroke="none" points="50,62 39,65 40,40 49,59"/><circle fill="#999" stroke="none" cx="41" cy="56" r="6"/><ellipse fill="#999" stroke="#666" cx="47" cy="2" rx="99" ry="18"/><line fill="none" stroke="#7DF" stroke-width="10" x1="49" y1="10" x2="49" y2="73"/><line fill="none" stroke="#BEF" stroke-width="8" x1="49" y1="8" x2="49" y2="71"/><line fill="none" stroke="#FFF" stroke-width="3" x1="49" y1="7" x2="49" y2="70"/><circle fill="#999" stroke="none" cx="56.667" cy="54.834" r="7.167"/><ellipse fill="#CCC" stroke="#666" stroke-width="4" cx="49" cy="67" rx="23" ry="11"/><rect x="0" y="66" fill="#CCC" stroke="none" width="99" height="33"/><ellipse fill="#CCC" stroke="#666666" stroke-width="3" cx="49" cy="85" rx="23" ry="6"/><ellipse fill="#CCC" stroke="none" cx="49" cy="85" rx="23" ry="6"/><rect x="26" y="85" fill="#CCC" stroke="none" width="45" height="14"/><line fill="none" stroke="#666" stroke-width="4" x1="56" y1="58" x2="56" y2="99"/><line fill="none" stroke="#666" stroke-width="4" x1="43" y1="58" x2="43" y2="99"/><line fill="none" stroke="#666" stroke-width="3" x1="67" y1="62" x2="67" y2="99"/><line fill="none" stroke="#666" stroke-width="3" x1="32" y1="62" x2="32" y2="99"/><line fill="none" stroke="#666" stroke-width="2" x1="72" y1="65" x2="72" y2="99"/><line fill="none" stroke="#666" stroke-width="2" x1="26" y1="65" x2="26" y2="99"/></svg>