<svg version="1.1" id="Layer_1" xmlns="http://www.w3.org/2000/svg" xmlns:xlink="http://www.w3.org/1999/xlink" x="0px" y="0px" width="99px" height="99px" viewBox="0 0 99 99" enable-background="new 0 0 99 99" xml:space="preserve"><path stroke="#000000" d="M65,68v-1c5.311,10,26,12,38,19c0,0,4,5,0,12C44,98,0,99,0,98c-2,0-3-4-3-10c8-7,29-8,40-20v1"/><path fill="#FFFFEE" stroke="#000000" d="M32,38c-10-2-4,17,1,15"/><path fill="#FFFFEE" stroke="#000000" d="M65,31c7,11,3,19,1,18"/><path stroke="#000000" d="M33,46c-2-1-2-4-6-5c-2-12,1-28,19-31c13,0,20,8,23,22l0,0c0,4-3,4-3,10"/><path fill="#FFFFEE" stroke="#000000" d="M65.7,42c1,11,0.5,11-0.601,15l0,0c0,6,0,11,0,11v-1c-2,12-11,11-16,21c0-7-11-9-13-20c-0.6-20-3-10-3-22c-1-10-4-27,14-27c13-2,17,5,19,23"/><path fill="none" stroke="#000000" d="M65,56c-1,3-8,14-21,9"/><path fill="none" stroke="#000000" d="M47,50c0,0,4,1,6-1"/><circle fill="#FFFFFF" cx="38" cy="83" r="1"/><circle fill="#FFFFFF" cx="42" cy="87" r="1"/><circle fill="#FFFFFF" cx="46" cy="91" r="1"/><line fill="none" stroke="#000000" stroke-width="2" stroke-miterlimit="10" x1="39.5" y1="31.136" x2="47.341" y2="37.105"/><line fill="none" stroke="#000000" stroke-width="2" stroke-miterlimit="10" x1="50.705" y1="36.659" x2="56" y2="30.333"/><path fill="none" stroke="#000000" d="M42,54.342c0,0,8.889,7.491,15.834-1.194"/></svg>