<?xml version="1.0" encoding="utf-8"?>
<!-- Generator: Adobe Illustrator 16.0.3, SVG Export Plug-In . SVG Version: 6.00 Build 0)  -->
<!DOCTYPE svg PUBLIC "-//W3C//DTD SVG 1.1//EN" "http://www.w3.org/Graphics/SVG/1.1/DTD/svg11.dtd">
<svg version="1.1" id="Layer_1" xmlns="http://www.w3.org/2000/svg" xmlns:xlink="http://www.w3.org/1999/xlink" x="0px" y="0px"
	 width="99px" height="99px" viewBox="0 0 99 99" enable-background="new 0 0 99 99" xml:space="preserve">
<rect x="19" y="58" fill="#223322" width="80" height="42"/>
<polyline fill="#EEBB99" stroke="#DDEECC" stroke-width="6" points="33,66 59,97 71,61 "/>
<ellipse fill="#EEBB99" cx="54" cy="45" rx="24" ry="34"/>
<line fill="none" stroke="#CCCCCC" stroke-width="7" x1="64" y1="75" x2="79" y2="53"/>
<line fill="none" stroke="#CCCCCC" stroke-width="7" x1="39" y1="19" x2="65" y2="18"/>
<ellipse fill="none" stroke="#CCCCCC" stroke-width="7" cx="55" cy="73" rx="8" ry="9"/>
<path fill="none" stroke="#000000" stroke-width="6" d="M30,99c19-23,3-43,4-52"/>
<path fill="none" stroke="#000000" stroke-width="6" d="M35,48c-5-25,5-38,28-35"/>
<path fill="#554433" d="M99,85C69,58,69,21,60,16C43,4,23,20,36,62c8,13-5,37-9,37H0V65C26,1,50-5,69,6c15,10,15,39,31,50v29H99z"/>
</svg>
