<svg version="1" xmlns="http://www.w3.org/2000/svg">
<line fill="none" stroke="#333" stroke-width="4" x1="44" y1="21" x2="33" y2="12"/>
<line fill="none" stroke="#FFA" stroke-width="4" x1="44" y1="15" x2="33" y2="10"/>
<ellipse fill="#333" stroke="none" cx="45" cy="42" rx="31" ry="28"/>
<line fill="none" stroke="#000" stroke-width="2" x1="35" y1="33" x2="46" y2="41"/>
<polygon fill="#122" points="79,75 76,74 72,52 67,56 70,90 77,95 "/>
<polygon fill="#333" points="71,99 66,90 23,68 14,69 7,83 0,85 0,99 "/>
<path fill="#FC9" d="M48,87c19,13,24-15,24-35c0-1-13-2-30-2c-9,0-17,6-17,14c0,5-1,9-4,9l6,4L32,99h12l6-9"/>
<ellipse fill="#FC9" cx="69" cy="67" rx="4" ry="3"/>
<polyline fill="#CC7" stroke="none" points="59,76 57,75 59,91 65,91 67,82 62,82 60,75 "/>
<polygon fill="#122" stroke="none" points="29,60 20,66 17,64 20,60 14,42 16,36 6,4 22,14 41,49 41,58 49,74 55,76 64,96 49,91 "/>
<line fill="none" stroke="#FFA" stroke-width="4" x1="40" y1="48" x2="24" y2="14"/>
<line fill="none" stroke="#FFA" stroke-width="4" x1="25" y1="15" x2="4" y2="0"/>
<ellipse fill="none" stroke="#FFA" stroke-width="2" cx="29" cy="50" rx="5" ry="6"/>
<line fill="none" stroke="#FFA" stroke-width="2" x1="27" y1="43" x2="20" y2="26"/>
<line fill="none" stroke="#FFA" stroke-width="2" x1="20" y1="26" x2="10" y2="19"/>
<line fill="none" stroke="#FFA" x1="28" y1="21" x2="6" y2="9"/>
<path fill="none" stroke="#000" stroke-width="2" d="M74,57c4-28-6-41-30-41"/>
<polyline fill="#CC7" points="59,76 70,76 70,71 61,71 57,75 "/>
<line fill="none" stroke="#000" stroke-width="2" x1="46" y1="41" x2="59" y2="41"/>
<line fill="none" stroke="#000" stroke-width="2" x1="59" y1="41" x2="73" y2="43"/>
</svg>
