<svg version="1.1" id="Layer_1" xmlns="http://www.w3.org/2000/svg"><path fill="#666" stroke="#000" d="M65,69v-1c5,10,26,12,38,19c0,0,4,5,0,12C44,99,0,100,0,99c-2,0-3-4-3-10c8-7,29-8,40-20v1"/><path fill="#FFE" stroke="#000" d="M29,44c-8-14,3,11,5,10"/><path fill="none" stroke="#000" d="M67,39c6-14,1,12-1,11"/><path fill="#000" stroke="#000" d="M33,47c-2-1-2-4-6-5c-2-12,1-28,19-31c13,0,20,8,23,22l0,0c0,4-3,4-3,10"/><path fill="#FFE" stroke="#000" d="M66,43c1,11,1,11-1,15l0,0c0,6,0,11,0,11v-1c-2,12-11,11-16,21c0-7-11-9-13-20c-1-20-3-10-3-22c-1-10-3-15,15-15C61,30,64,25,66,43"/><path fill="none" stroke="#000" d="M65,57c-1,8-12,20-23,9"/><path fill="none" stroke="#000" d="M48,54c0,0,4,1,6-1"/><path fill="#666" d="M33,73c0-1,11,38,35-1L65,65c-15,22-29,0-29,1L33,73z"/><line fill="none" stroke="#000" stroke-width="2" x1="38" y1="38" x2="48" y2="39"/><line fill="none" stroke="#000" stroke-width="2" x1="54" y1="38" x2="60" y2="33"/><line fill="none" stroke="#333" stroke-width="8" x1="22" y1="78" x2="51" y2="99"/><line fill="none" stroke="#333" stroke-width="8" x1="51" y1="99" x2="77" y2="76"/></svg>