<svg version="1.1" xmlns="http://www.w3.org/2000/svg"><path fill="#39F" stroke="#000000" d="M65,69v-1c5,10,26,12,38,19c0,0,4,5,0,12C44,99,0,100,0,99c-2,0-3-4-3-10c8-7,29-8,40-20v1"/><path fill="#FFE" stroke="#000" d="M29,44c-8-14,3,11,5,10"/><path fill="none" stroke="#000" d="M67,39C73,25,68,51,66,50"/><path stroke="#000" d="M33,47c-2-1-2-4-6-5c-2-12,1-28,19-31c13,0,20,8,23,22l0,0c0,4-3,4-3,10"/><path fill="#FFE" stroke="#000" d="M66,43c1,11,1,11-1,15l0,0c0,6,0,11,0,11v-1c-2,12-11,11-16,21c0-7-11-9-13-20c-1-20-3-10-3-22c-1-10-3-15,15-15c13-2,16-7,18,11"/><path fill="none" stroke="#000" d="M65,57c-1,8-12,20-23,9"/><path fill="none" stroke="#000" d="M48,54c0,0,4,1,6-1"/><path stroke="#000" d="M32,74c0-1,14,35,38-1L65,69c-15,22-29,0-29,1L32,74z"/><line fill="none" stroke="#000" x1="38" y1="38" x2="48" y2="39"/><path fill="none" stroke="#000" d="M52,39c0-3,5-9,9-4"/></svg>