<svg version="1" xmlns="http://www.w3.org/2000/svg"><ellipse fill="#311" stroke="#000" cx="48" cy="85" rx="33" ry="7"/><ellipse fill="#777" stroke="#000" cx="49" cy="50" rx="28" ry="36"/><path fill="#A65" stroke="#000" d="M37,33c0-6-14-14-20-14c3-3,12-3,16,0c0-2,4-14,7-14c10,1,17,7,18,11c0-4,7-4,18-8c1,12-7,15-7,22c-2-5-5-8-10-10C51,19,41,26,37,33z"/><path fill="none" stroke="#333" stroke-width="2" d="M51,51c0-9,2-17,6-17"/><path fill="none" stroke="#333" stroke-width="2" d="M57,34c0,7,2,13,5,13"/><path fill="none" stroke="#333" d="M59,45c0,5,2,10,6,10"/><path fill="none" stroke="#333" stroke-width="2" d="M28,45c0,12,4,23,9,23"/><path fill="none" stroke="#333" d="M30,62c0,7,1,14,4,14"/><path fill="none" stroke="#333" d="M72,55c0,6-2,12-6,12"/><path fill="none" stroke="#333" d="M70,63c0,5-4,10-9,10"/><path fill="none" stroke="#333" d="M64,72c0-1-4-2-11-2"/><ellipse fill="#311" stroke="none" cx="50" cy="86" rx="16" ry="3"/></svg>