<svg version="1.1" xmlns="http://www.w3.org/2000/svg"><rect x="35" y="56" fill="#232" width="42" height="31"/><path fill="#332" d="M37,58l35-12L71,56C57,78,35,58,35,58"/><ellipse fill="#BB9" stroke="#000" cx="48" cy="34" rx="20" ry="24"/><ellipse fill="#BB9" cx="50" cy="40" rx="23" ry="22"/><path fill="#BB9" stroke="#000" d="M66,21C83,28,88,9,97,18c-13,0-6,14-24,22"/><path fill="#BB9" stroke="#000" d="M28,35C14,37,11,38,2,35C4,44,15,49,30,50"/><line fill="none" stroke="#666" x1="47" y1="50" x2="50" y2="42"/><line fill="none" stroke="#666" x1="59" y1="38" x2="66" y2="44"/><line fill="none" stroke="#666" x1="52" y1="44" x2="59" y2="43"/><path fill="#EFE" stroke="#000" d="M15,99H99V81c-4,0-9-29-29-27l2,14l-6,16L44,79l-9-23C24,56,5,95,15,99z"/><path fill="none" stroke="#666" d="M32.456,18c2.191-1.266,9.044,0,11.294,6.5"/><path fill="none" stroke="#666" d="M55.125,10.719c0,5.699,0,10.311,0,10.311"/><path fill="none" stroke="#666" d="M45,10C47,12,50,17,49,22"/></svg>