<?xml version="1.0" encoding="utf-8"?>
<!-- Generator: Adobe Illustrator 27.5.0, SVG Export Plug-In . SVG Version: 6.00 Build 0)  -->
<svg version="1.1" id="Layer_1" xmlns="http://www.w3.org/2000/svg" xmlns:xlink="http://www.w3.org/1999/xlink" x="0px" y="0px"
	 viewBox="0 0 9000 4000" style="enable-background:new 0 0 9000 4000;" xml:space="preserve">
<rect style="fill-rule:evenodd;clip-rule:evenodd;fill:#FCFCFC;" width="9000" height="4000"/>
<g>
	<defs>
		<path id="SVGID_1_" d="M5629.758,4000c550.362-311.701,1080.63-713.803,1444.641-1156.943
			c353.186-429.964,646.513-683.334,888.282-802.757c180.092-88.959,331.718-103.686,458.243-61.781
			c126.545,41.914,227.894,140.448,307.455,278.002c117.446,203.061,187.502,491.297,221.276,807.95l-4.913,0.521
			c-33.703-316.016-103.564-603.571-220.64-805.988c-78.972-136.52-179.429-234.281-304.727-275.778
			c-125.322-41.51-275.688-26.823-454.512,61.508c-241.178,119.129-533.953,372.076-886.655,801.457
			C6715.496,3287.75,6187.885,3688.6,5639.702,4000H5629.758z M5549.504,4000c590.762-319.647,1170.119-746.624,1559.372-1220.498
			c353.184-429.964,646.511-683.334,888.28-802.757c180.092-88.959,331.719-103.686,458.246-61.781
			c126.545,41.914,227.892,140.448,307.455,278.002c117.447,203.061,187.502,491.297,221.277,807.95l-4.914,0.521
			c-33.703-316.016-103.563-603.572-220.64-805.988c-78.972-136.52-179.429-234.281-304.727-275.778
			c-125.324-41.51-275.688-26.823-454.512,61.508c-241.178,119.13-533.953,372.076-886.658,801.457
			C6724.788,3254.851,6148.313,3680.527,5559.749,4000H5549.504z M5463.606,4000c631.622-325.478,1264.076-778.021,1679.75-1284.053
			c353.184-429.964,646.511-683.334,888.28-802.757c180.092-88.959,331.717-103.686,458.243-61.781
			c126.547,41.914,227.894,140.448,307.457,278.002c99.022,171.207,164.357,402.969,202.664,661.257v34.939
			c-37.429-271.424-103.896-515.552-206.939-693.714c-78.973-136.52-179.43-234.281-304.727-275.778
			c-125.325-41.51-275.689-26.823-454.513,61.508c-241.178,119.13-533.952,372.076-886.657,801.457
			C6732.953,3223.33,6103.729,3674.536,5474.354,4000H5463.606z M5371.506,4000c672.69-328.754,1362.869-807.749,1806.328-1347.609
			c353.184-429.964,646.511-683.334,888.28-802.757c180.093-88.959,331.717-103.686,458.244-61.781
			c126.544,41.914,227.894,140.448,307.457,278.002c73.907,127.787,129.042,289.317,168.186,470.417v23.813
			c-39.281-189.847-95.733-359.085-172.464-491.747c-78.97-136.52-179.427-234.281-304.727-275.778
			c-125.322-41.51-275.687-26.823-454.513,61.508c-241.178,119.13-533.952,372.076-886.655,801.457
			C6739.73,3193.499,6053.086,3671.065,5382.625,4000H5371.506z M5272.062,4000c713.707-328.878,1467.292-835.397,1940.25-1411.164
			c353.184-429.964,646.511-683.334,888.28-802.757c180.092-88.959,331.717-103.686,458.243-61.781
			c126.545,41.914,227.894,140.448,307.455,278.002c54.354,93.978,98.554,206.213,133.709,331.049v18.464
			c-35.792-131.316-81.362-249.134-137.985-347.03c-78.97-136.52-179.429-234.281-304.727-275.778
			c-125.322-41.51-275.688-26.823-454.513,61.508c-241.178,119.13-533.952,372.076-886.655,801.457
			C6744.853,3165.683,5995.257,3670.7,5283.78,4000H5272.062z M5163.995,4000c754.216-324.99,1578.205-860.443,2082.794-1474.719
			c353.187-429.964,646.513-683.334,888.28-802.757c180.095-88.959,331.719-103.686,458.246-61.781
			c126.545,41.914,227.894,140.448,307.455,278.002c37.883,65.507,70.835,139.881,99.23,221.206v15.144
			c-29.331-86.315-63.686-165.019-103.507-233.866c-78.972-136.52-179.429-234.281-304.727-275.778
			c-125.322-41.51-275.688-26.823-454.512,61.508c-241.178,119.13-533.953,372.076-886.655,801.457
			c-502.718,612-1322.147,1145.841-2074.173,1471.585H5163.995z M5045.177,4000c793.566-315.821,1697.069-882.087,2236.091-1538.275
			c353.184-429.964,646.51-683.334,888.28-802.757c180.092-88.959,331.719-103.686,458.243-61.781
			c126.547,41.914,227.894,140.448,307.457,278.002c23.443,40.536,44.993,84.47,64.752,131.343v12.842
			c-20.907-50.785-43.877-98.215-69.027-141.702c-78.973-136.52-179.43-234.281-304.728-275.778
			c-125.324-41.51-275.688-26.823-454.512,61.508c-241.178,119.13-533.952,372.076-886.658,801.457
			C6748.147,3118.505,5849.948,3682.996,5058.44,4000H5045.177z M4912.15,4000c830.687-299.242,1826.234-898.964,2403.595-1601.83
			c353.184-429.964,646.511-683.334,888.281-802.757c180.092-88.959,331.717-103.685,458.243-61.781
			c126.547,41.914,227.894,140.448,307.457,278.002c10.464,18.094,20.55,36.884,30.273,56.29v11.147
			c-11.037-22.508-22.54-44.182-34.55-64.954c-78.972-136.52-179.429-234.281-304.727-275.778
			c-125.324-41.51-275.688-26.823-454.513,61.508c-241.178,119.13-533.952,372.076-886.657,801.457
			C6744.632,3101.199,5755.491,3698.919,4926.664,4000H4912.15z M4758.315,4000c863.533-271.243,1970.178-908.504,2591.909-1665.385
			c353.184-429.964,646.51-683.334,888.28-802.757c180.092-88.959,331.717-103.686,458.243-61.781
			c124.329,41.18,224.333,137.015,303.252,270.807v9.802l-0.073-0.124c-78.97-136.52-179.427-234.281-304.727-275.778
			c-125.322-41.51-275.686-26.823-454.513,61.508c-241.178,119.13-533.953,372.076-886.655,801.457
			C6735.324,3090.948,5636.879,3725.845,4774.798,4000H4758.315z M4568.461,4000c886.969-222.265,2139.15-904.67,2816.242-1728.941
			c353.184-429.964,646.511-683.334,888.281-802.757c180.092-88.959,331.717-103.686,458.243-61.781
			c106.879,35.403,195.788,111.194,268.773,216.774v8.754c-73.148-107.808-162.545-185.129-270.321-220.82
			c-125.322-41.51-275.688-26.823-454.513,61.508c-241.178,119.13-533.952,372.076-886.655,801.457
			C6715.626,3093.353,5475.311,3772.567,4588.733,4000H4568.461z M4270.793,4000c82.462-10.054,170.499-25.814,262.989-46.924
			c889.906-203.079,2190.531-899.661,2885.396-1745.573c353.187-429.964,646.514-683.334,888.281-802.757
			c180.094-88.959,331.719-103.686,458.245-61.781c90.599,30.008,168.275,89.033,234.295,170.623v7.917
			c-66.266-83.351-144.443-143.561-235.842-173.833c-125.323-41.51-275.689-26.823-454.514,61.508
			c-241.178,119.13-533.953,372.076-886.655,801.457c-695.548,846.742-1997.397,1543.993-2888.128,1747.26
			c-78.75,17.971-154.303,32.087-225.943,42.102H4270.793z M0,544.148c379.844,21.382,859.495-6.369,1363.382-35.563
			c1023.354-59.286,2146.228-124.337,2736.711,205.477c474.647,265.114,605.397,784.715,65.068,1765.726
			c-11.138,20.94-22.682,42.159-34.477,63.555c-3.335,6.278-6.818,12.64-10.205,18.945
			c-106.281,206.926-131.394,362.646-92.742,473.074c40.275,115.092,150.112,181.158,309.608,204.865
			c160.138,23.808,370.199,4.948,610.173-49.815c889.906-203.079,2190.534-899.661,2885.399-1745.572
			c353.184-429.964,646.511-683.334,888.281-802.757c101.836-50.303,194.559-76.865,278.802-82.876v4.966
			c-83.521,6.011-175.524,32.411-276.619,82.344c-241.176,119.13-533.953,372.076-886.655,801.457
			c-695.548,846.742-1997.396,1543.993-2888.127,1747.26c-240.568,54.898-451.239,73.786-611.968,49.895
			c-161.374-23.989-272.603-91.098-313.558-208.144c-32.938-94.113-20.245-220.451,48.579-382.508
			c-94.138,192.734-115.236,339.166-78.392,444.44c40.275,115.092,150.112,181.158,309.608,204.865
			c160.14,23.808,370.199,4.948,610.175-49.815c889.904-203.079,2190.531-899.661,2885.396-1745.572
			c353.184-429.964,646.51-683.334,888.281-802.757c115.919-57.264,220.05-83.759,313.28-84.202v4.959
			c-92.497,0.44-195.887,26.77-311.096,83.677c-241.178,119.13-533.952,372.076-886.657,801.457
			c-695.546,846.742-1997.396,1543.993-2888.127,1747.26c-240.566,54.898-451.236,73.786-611.968,49.895
			c-161.374-23.989-272.6-91.098-313.558-208.144c-32.938-94.113-20.238-220.458,48.582-382.508
			c-94.134,192.741-115.237,339.166-78.394,444.44c40.277,115.092,150.112,181.158,309.608,204.865
			c160.14,23.808,370.199,4.948,610.175-49.815c889.904-203.079,2190.531-899.661,2885.396-1745.572
			c353.187-429.964,646.514-683.334,888.28-802.757c130.427-64.424,245.918-89.901,347.76-83.149v4.966
			c-101.083-6.78-215.838,18.535-345.574,82.617c-241.178,119.13-533.952,372.076-886.657,801.457
			c-695.546,846.742-1997.396,1543.993-2888.127,1747.26c-240.566,54.898-451.237,73.786-611.968,49.895
			c-161.374-23.989-272.6-91.098-313.558-208.144c-32.938-94.113-20.238-220.458,48.582-382.508
			c-94.134,192.734-115.243,339.166-78.394,444.44c40.277,115.092,150.112,181.158,309.607,204.865
			c160.141,23.808,370.201,4.948,610.176-49.815C5733.991,3178,7034.618,2481.418,7729.484,1635.506
			c353.184-429.964,646.511-683.334,888.281-802.757c145.372-71.809,272.19-95.244,382.235-79.568v5.005
			c-109.259-15.735-235.329,7.511-380.053,78.997c-241.178,119.129-533.952,372.076-886.655,801.457
			c-695.548,846.742-1997.398,1543.993-2888.127,1747.26c-240.568,54.898-451.239,73.786-611.97,49.895
			c-161.374-23.989-272.6-91.098-313.559-208.144c-32.938-94.113-20.238-220.458,48.582-382.508
			c-94.134,192.734-115.244,339.166-78.392,444.44c40.275,115.092,150.11,181.158,309.606,204.865
			c160.14,23.808,370.201,4.948,610.175-49.815c889.906-203.079,2190.533-899.661,2885.398-1745.572
			c353.184-429.964,646.511-683.335,888.281-802.757c160.803-79.433,298.909-99.671,416.714-73.27v5.08
			c-116.972-26.529-254.334-6.504-414.531,72.623c-241.178,119.129-533.953,372.076-886.655,801.457
			c-695.548,846.742-1997.397,1543.993-2888.127,1747.26c-240.568,54.898-451.239,73.786-611.968,49.895
			c-161.376-23.989-272.602-91.098-313.561-208.144c-32.938-94.113-20.238-220.458,48.582-382.508
			c-94.135,192.734-115.244,339.166-78.392,444.44c40.275,115.092,150.112,181.158,309.608,204.865
			c160.138,23.808,370.199,4.948,610.173-49.815c889.906-203.079,2190.533-899.661,2885.398-1745.572
			c353.184-429.964,646.511-683.334,888.281-802.757c176.758-87.315,326.095-103.108,451.192-64.041v5.186
			c-124.213-39.289-272.79-23.755-449.01,63.289c-241.176,119.13-533.952,372.076-886.655,801.458
			c-695.549,846.742-1997.396,1543.993-2888.127,1747.26c-240.566,54.898-451.239,73.785-611.968,49.895
			c-161.374-23.989-272.603-91.098-313.558-208.144c-32.938-94.113-20.24-220.458,48.581-382.508
			c-94.134,192.734-115.243,339.166-78.394,444.44c40.275,115.092,150.112,181.158,309.608,204.865
			c160.141,23.808,370.199,4.948,610.175-49.815c889.904-203.079,2190.531-899.661,2885.396-1745.572
			c353.184-429.964,646.511-683.334,888.28-802.757c180.093-88.959,331.72-103.686,458.244-61.781
			c9.28,3.075,18.42,6.461,27.428,10.138v5.342c-9.508-3.925-19.168-7.525-28.974-10.773
			c-125.324-41.51-275.688-26.823-454.513,61.508c-241.178,119.13-533.952,372.076-886.657,801.457
			c-695.546,846.742-1997.396,1543.993-2888.127,1747.26c-240.566,54.898-451.236,73.786-611.968,49.895
			c-161.374-23.989-272.6-91.098-313.558-208.144c-32.938-94.113-20.238-220.458,48.581-382.508
			c-94.134,192.734-115.243,339.166-78.394,444.44c40.277,115.092,150.112,181.158,309.608,204.865
			c160.141,23.808,370.199,4.948,610.175-49.815c889.904-203.079,2190.531-899.661,2885.396-1745.572
			c353.186-429.964,646.513-683.334,888.281-802.757c180.092-88.959,331.719-103.685,458.245-61.781
			c21.348,7.071,41.979,15.767,61.904,25.972v5.569c-20.401-10.599-41.549-19.582-63.452-26.834
			c-125.322-41.51-275.688-26.823-454.513,61.508c-241.178,119.13-533.952,372.076-886.655,801.457
			c-695.548,846.742-1997.398,1543.993-2888.129,1747.26c-240.566,54.898-451.236,73.785-611.968,49.895
			c-161.374-23.989-272.6-91.098-313.558-208.144c-32.938-94.113-20.239-220.458,48.581-382.508
			c-94.134,192.734-115.243,339.166-78.394,444.44c40.277,115.092,150.112,181.158,309.608,204.865
			c160.141,23.808,370.201,4.948,610.175-49.815c889.906-203.079,2190.533-899.661,2885.399-1745.572
			c353.184-429.964,646.511-683.334,888.28-802.757c180.092-88.959,331.717-103.685,458.243-61.781
			c33.919,11.232,66.018,26.536,96.383,45.566v5.869c-30.813-19.596-63.427-35.304-97.931-46.729
			c-125.322-41.511-275.688-26.823-454.513,61.508c-241.178,119.13-533.953,372.076-886.655,801.457
			c-695.548,846.742-1997.397,1543.993-2888.126,1747.26c-240.568,54.898-451.239,73.786-611.971,49.895
			c-161.374-23.989-272.601-91.098-313.558-208.144c-32.938-94.113-20.239-220.458,48.581-382.508
			c-94.134,192.734-115.243,339.166-78.392,444.44c40.274,115.092,150.109,181.158,309.605,204.865
			c160.141,23.808,370.201,4.948,610.175-49.815c889.906-203.079,2190.533-899.661,2885.398-1745.572
			c353.184-429.964,646.511-683.334,888.281-802.757c180.092-88.959,331.717-103.686,458.243-61.781
			c47.048,15.586,90.612,38.995,130.861,69.326v6.22c-40.666-31.11-84.736-55.054-132.409-70.839
			c-125.322-41.51-275.687-26.823-454.513,61.508c-241.178,119.13-533.952,372.076-886.655,801.457
			c-695.549,846.742-1997.398,1543.993-2888.127,1747.26c-240.568,54.898-451.239,73.785-611.969,49.895
			c-161.376-23.989-272.603-91.098-313.561-208.144c-32.938-94.113-20.238-220.458,48.581-382.508
			c-94.134,192.734-115.243,339.166-78.392,444.44c40.275,115.092,150.112,181.158,309.608,204.865
			c160.138,23.808,370.198,4.948,610.173-49.815c889.906-203.079,2190.533-899.661,2885.398-1745.573
			c353.185-429.964,646.511-683.334,888.281-802.757c180.092-88.959,331.717-103.686,458.243-61.781
			c60.806,20.142,115.789,53.359,165.34,97.69v6.674c-49.913-45.383-105.41-79.295-166.885-99.657
			c-125.325-41.51-275.689-26.823-454.514,61.508c-241.178,119.13-533.953,372.076-886.657,801.457
			c-695.546,846.742-1997.395,1543.993-2888.126,1747.26c-240.566,54.898-451.237,73.786-611.968,49.895
			c-161.374-23.989-272.601-91.098-313.559-208.144c-32.938-94.113-20.24-220.458,48.581-382.508
			c-94.134,192.734-115.243,339.166-78.394,444.44c40.274,115.092,150.112,181.158,309.608,204.865
			c160.141,23.808,370.199,4.948,610.175-49.815c889.904-203.079,2190.531-899.661,2885.396-1745.572
			c353.184-429.964,646.511-683.334,888.281-802.757c180.092-88.959,331.719-103.686,458.243-61.781
			c75.287,24.938,141.651,69.913,199.818,131.219v7.234c-58.479-62.684-125.35-108.569-201.364-133.746
			c-125.324-41.51-275.688-26.823-454.513,61.508c-241.178,119.13-533.952,372.076-886.657,801.457
			c-695.546,846.741-1997.396,1543.993-2888.127,1747.26c-240.565,54.898-451.236,73.786-611.968,49.895
			c-161.374-23.989-272.6-91.098-313.558-208.144c-32.938-94.113-20.238-220.458,48.581-382.508
			c-94.134,192.734-115.243,339.166-78.394,444.44c38.748,110.72,141.883,176.061,291.665,201.974h-26.342
			c-137.823-29.07-232.828-94.159-269.989-200.351c-32.938-94.113-20.238-220.458,48.581-382.508
			c-94.134,192.734-115.243,339.166-78.394,444.44c20.479,58.532,58.968,104.375,112.806,138.418h-9.136
			c-51.376-34.167-88.285-79.492-108.335-136.795c-32.938-94.113-20.238-220.458,48.581-382.508
			c-94.134,192.734-115.243,339.166-78.392,444.44c9.721,27.784,23.512,52.701,41.061,74.863h-6.305
			c-16.728-21.804-29.955-46.183-39.424-73.24c-32.938-94.113-20.238-220.458,48.581-382.508
			c-94.134,192.734-115.243,339.166-78.392,444.44c1.339,3.827,2.763,7.591,4.251,11.308h-5.317c-1.254-3.191-2.458-6.415-3.6-9.685
			c-32.938-94.113-20.238-220.458,48.581-382.508c-79.46,162.694-106.893,292.391-91.346,392.193h-4.98
			c-13.291-86.797,5.388-195.703,61.847-328.637c-63.555,130.128-93.815,239.144-95.434,328.637h-4.914
			c1.35-74.714,22.421-162.779,65.869-265.082c-49.219,100.776-78.465,188.887-89.911,265.082h-4.957
			c8.91-59.832,28.694-126.89,60.389-201.527c-36.091,73.889-61.437,140.961-76.904,201.527h-5.062
			c10.84-42.758,26.568-88.714,47.488-137.971c-23.909,48.953-43.095,94.909-57.828,137.971h-5.193
			c8.13-23.916,17.631-48.719,28.545-74.416c-12.518,25.619-23.73,50.42-33.699,74.416h-5.323c1.49-3.606,2.997-7.22,4.544-10.861
			l-5.246,10.861h-5.466c14.871-31.216,31.666-63.647,50.48-97.325c2.951-5.282,5.778-10.482,8.683-15.733
			c8.144-15.657,16.728-31.587,25.796-47.822c2.951-5.282,5.803-10.503,8.683-15.733c5.874-11.29,11.984-22.728,18.333-34.323
			c483.936-922.004,348.239-1416.676-109.704-1672.47c-589.215-329.103-1711.355-264.092-2734.033-204.853
			C397.56,1923.764,194.124,1935.535,0,1943.736v-4.932c194.014-8.208,397.366-19.979,604.865-32.002
			c1023.352-59.286,2146.228-124.337,2736.708,205.477c419.704,234.426,570.589,667.789,226.314,1443.238
			c380.924-813.671,234.719-1262.88-194.241-1502.478c-589.215-329.103-1711.355-264.092-2734.03-204.853
			C419.715,1860.924,204.45,1873.382,0,1881.611v-4.939c204.34-8.236,419.521-20.688,639.344-33.426
			c1023.352-59.286,2146.226-124.336,2736.708,205.477c419.704,234.426,570.588,667.789,226.314,1443.238
			c380.936-813.675,234.717-1262.88-194.241-1502.478c-589.215-329.103-1711.355-264.092-2734.033-204.854
			C441.813,1798.09,214.655,1811.244,0,1819.42v-4.945c214.538-8.183,441.611-21.329,673.82-34.783
			c1023.354-59.286,2146.228-124.336,2736.711,205.477c419.704,234.426,570.589,667.789,226.314,1443.238
			c380.936-813.676,234.724-1262.88-194.241-1502.478c-589.215-329.103-1711.355-264.092-2734.032-204.854
			C463.801,1735.257,224.755,1749.087,0,1757.119v-4.932c224.631-8.048,463.599-21.878,708.299-36.051
			c1023.354-59.286,2146.228-124.337,2736.71,205.477c419.704,234.426,570.589,667.789,226.314,1443.238
			c380.936-813.675,234.724-1262.88-194.241-1502.478c-589.215-329.103-1711.355-264.092-2734.032-204.854
			c-257.335,14.91-508.326,29.43-743.05,37.228v-4.932c234.6-7.814,485.509-22.332,742.777-37.234
			c1023.352-59.286,2146.228-124.336,2736.711,205.477c419.702,234.425,570.586,667.789,226.314,1443.238
			c380.936-813.676,234.724-1262.88-194.241-1502.478c-589.215-329.103-1711.355-264.092-2734.033-204.854
			C507.558,1609.6,244.537,1624.829,0,1632.303v-4.927c244.408-7.493,507.352-22.714,777.256-38.351
			c1023.352-59.286,2146.228-124.337,2736.708,205.477c419.704,234.426,570.588,667.789,226.314,1443.238
			c380.938-813.675,234.724-1262.88-194.24-1502.478c-589.215-329.103-1711.355-264.092-2734.03-204.854
			c-282.702,16.38-557.786,32.296-812.007,39.339v-4.918c254.072-7.066,529.092-22.982,811.734-39.36
			c1023.352-59.286,2146.225-124.336,2736.708,205.477c419.704,234.426,570.588,667.79,226.314,1443.238
			c380.936-813.676,234.724-1262.88-194.24-1502.478c-589.215-329.103-1711.355-264.092-2734.033-204.854
			c-295.542,17.12-582.729,33.731-846.483,40.231v-4.92c263.606-6.525,550.719-23.132,846.211-40.249
			c1023.354-59.286,2146.228-124.337,2736.711,205.477c419.704,234.426,570.588,667.789,226.314,1443.238
			c380.936-813.675,234.724-1262.88-194.24-1502.478C3025.78,1279.049,1903.64,1344.06,880.962,1403.298
			C572.491,1421.172,273.114,1438.491,0,1444.327v-4.918c272.958-5.863,572.271-23.177,880.689-41.05
			c1023.354-59.286,2146.228-124.336,2736.711,205.477c419.704,234.426,570.588,667.789,226.314,1443.237
			c380.936-813.675,234.724-1262.88-194.24-1502.478c-589.215-329.103-1711.355-264.092-2734.033-204.854
			C593.959,1358.369,282.292,1376.417,0,1381.468v-4.913c282.122-5.083,593.725-23.125,915.168-41.751
			c1023.352-59.286,2146.228-124.336,2736.711,205.477c419.702,234.426,570.586,667.789,226.314,1443.238
			c380.936-813.676,234.724-1262.88-194.241-1502.478c-589.215-329.103-1711.357-264.092-2734.033-204.853
			C615.27,1295.575,291.312,1314.325,0,1318.452v-4.907c291.13-4.159,615.036-22.909,949.646-42.297
			c1023.352-59.286,2146.228-124.337,2736.708,205.477c419.704,234.426,570.589,667.789,226.314,1443.237
			c380.936-813.675,234.724-1262.88-194.24-1502.478c-589.215-329.103-1711.355-264.092-2734.031-204.854
			c-347.915,20.156-684.273,39.619-984.398,42.68v-4.914c299.937-3.093,636.237-22.552,984.125-42.705
			c1023.352-59.286,2146.226-124.336,2736.708,205.477c419.704,234.426,570.589,667.789,226.314,1443.238
			c380.936-813.675,234.724-1262.88-194.24-1502.478c-589.215-329.103-1711.355-264.092-2734.033-204.853
			C657.581,1170.012,308.73,1190.204,0,1192.043v-4.906c308.528-1.885,657.326-22.066,1018.601-42.998
			c1023.354-59.286,2146.228-124.336,2736.71,205.477c419.704,234.426,570.589,667.789,226.314,1443.237
			c380.936-813.675,234.724-1262.88-194.24-1502.478c-589.215-329.103-1711.355-264.092-2734.033-204.854
			C678.566,1107.236,317.107,1128.176,0,1128.636v-4.9c316.892-0.507,678.298-21.44,1053.08-43.154
			c1023.354-59.286,2146.228-124.336,2736.71,205.477c419.702,234.426,570.589,667.789,226.314,1443.237
			c380.936-813.675,234.724-1262.88-194.24-1502.478c-589.215-329.103-1711.355-264.092-2734.033-204.853
			C699.368,1044.474,325.283,1066.122,0,1065.024v-4.888c325.05,1.052,699.102-20.603,1087.558-43.109
			c1023.352-59.286,2146.228-124.336,2736.71,205.477c419.702,234.426,570.587,667.789,226.314,1443.237
			c380.936-813.675,234.724-1262.88-194.24-1502.478C3267.128,834.161,2144.985,899.173,1122.31,958.411
			C720.038,981.716,333.205,1004.094,0,1001.253v-4.881c332.953,2.79,719.758-19.594,1122.037-42.9
			c1023.352-59.286,2146.228-124.336,2736.708,205.477c419.704,234.426,570.589,667.789,226.314,1443.237
			c380.936-813.675,234.724-1262.88-194.241-1502.478c-589.215-329.103-1711.355-264.091-2734.03-204.854
			C740.567,918.968,340.863,942.097,0,937.315v-4.881c340.59,4.725,740.269-18.4,1156.516-42.517
			c1023.352-59.286,2146.226-124.336,2736.708,205.477c419.704,234.425,570.589,667.789,226.314,1443.237
			c380.936-813.675,234.724-1262.88-194.241-1502.478C3336.083,707.051,2213.942,772.062,1191.265,831.3
			C760.943,856.231,348.225,880.129,0,873.193v-4.879c347.94,6.876,760.631-17.015,1190.992-41.953
			c1023.354-59.286,2146.228-124.336,2736.71,205.477c419.704,234.425,570.589,667.789,226.314,1443.237
			c380.936-813.675,234.724-1262.88-194.241-1502.478c-589.215-329.103-1711.355-264.092-2734.033-204.854
			C781.128,793.502,355.309,818.16,0,808.847v-4.863c354.991,9.249,780.823-15.414,1225.47-41.178
			c1023.354-59.286,2146.228-124.337,2736.71,205.477c419.702,234.425,570.593,667.789,226.314,1443.237
			c380.936-813.675,234.724-1262.88-194.241-1502.478C3405.04,579.94,2282.899,644.951,1260.222,704.189
			C801.114,730.786,362.089,756.189,0,744.251v-4.861c361.743,11.867,800.789-13.539,1259.949-40.139
			c1023.352-59.286,2146.228-124.336,2736.71,205.477c419.709,234.432,570.594,667.782,226.314,1443.237
			c380.936-813.675,234.717-1262.88-194.243-1502.478C3439.518,516.385,2317.376,581.396,1294.7,640.634
			C820.91,668.081,368.523,694.259,0,679.427v-4.861c368.151,14.759,820.566-11.418,1294.427-38.871
			c1023.352-59.286,2146.228-124.336,2736.708,205.477c419.704,234.432,570.602,667.789,226.314,1443.238
			c380.936-813.675,234.72-1262.88-194.24-1502.478c-589.215-329.103-1711.355-264.091-2734.03-204.854
			C840.506,605.39,374.592,632.348,0,614.352v-4.861c374.197,17.918,840.142-9.033,1328.906-37.351
			c1023.352-59.286,2146.226-124.336,2736.708,205.477c419.704,234.426,570.588,667.789,226.314,1443.238
			c380.936-813.675,234.724-1262.88-194.24-1502.478c-589.215-329.103-1711.355-264.091-2734.033-204.854
			C859.885,542.712,380.273,570.457,0,549.004V544.148z"/>
	</defs>
	<clipPath id="SVGID_00000074421327395513649330000001519553102087298730_">
		<use xlink:href="#SVGID_1_"  style="overflow:visible;"/>
	</clipPath>
	
		<linearGradient id="SVGID_00000140705720823645203310000003474957573031983289_" gradientUnits="userSpaceOnUse" x1="9021.5645" y1="2192.1243" x2="-0.036" y2="2192.1243">
		<stop  offset="0" style="stop-color:#FC67FA"/>
		<stop  offset="0.47" style="stop-color:#FFD4F7"/>
		<stop  offset="1" style="stop-color:#39D5FF"/>
	</linearGradient>
	
		<rect y="384.248" style="clip-path:url(#SVGID_00000074421327395513649330000001519553102087298730_);fill:url(#SVGID_00000140705720823645203310000003474957573031983289_);" width="9000" height="3615.752"/>
</g>
</svg>
