<svg fill="none" height="24" viewBox="0 0 22 24" width="22" xmlns="http://www.w3.org/2000/svg"><path d="m.5-.5h21v22.38h-21z" fill="#fff" stroke="#000" transform="matrix(1 0 0 -1 0 22.38)"/><g fill="#000"><path d="m1 .37508h20v2.00043h-20z"/><path d="m1.375 11.0024h5.5v1.37529h-5.5z"/><path d="m6.875 5.50117h6.875v11.0024h-6.875z"/><path d="m6.875 5.50117h5.50118v1.375h-5.50118z" transform="matrix(0 1 -1 0 12.37617 -1.37383)"/><path d="m9.625 17.8788h1.37529v1.375h-1.37529z" transform="matrix(0 1 -1 0 27.5038 8.2538)"/><path d="m11 19.2541h1.37529v1.375h-1.37529z" transform="matrix(0 1 -1 0 30.2541 8.2541)"/><path d="m19.25 11.0024h1.37529v1.375h-1.37529z" transform="matrix(0 1 -1 0 30.2524 -8.2476)"/><path d="m17.875 12.3776h1.37529v4.125h-1.37529z" transform="matrix(0 1 -1 0 30.2526 -5.4974)"/><path d="m16.5 13.7529h1.37529v2.75h-1.37529z" transform="matrix(0 1 -1 0 30.2529 -2.7471)"/><path d="m15.125 15.1282h1.37529v1.375h-1.37529z" transform="matrix(0 1 -1 0 30.2532 .0032)"/><path d="m13.75 16.5035h1.37529v1.375h-1.37529z" transform="matrix(0 1 -1 0 30.2535 2.7535)"/><path d="m12.375 17.8788h1.37529v2.75h-1.37529z" transform="matrix(0 1 -1 0 30.2538 5.5038)"/><path d="m12.375 16.5035h1.37529v5.5h-1.37529z" transform="matrix(0 1 -1 0 28.8785 4.1285)"/><path d="m6.875 15.1282h1.37529v1.375h-1.37529z" transform="matrix(0 1 -1 0 22.0032 8.2532)"/><path d="m6.875 13.7529h1.37529v2.75h-1.37529z" transform="matrix(0 1 -1 0 20.6279 6.8779)"/><path d="m6.875 12.3776h1.37529v4.125h-1.37529z" transform="matrix(0 1 -1 0 19.2526 5.5026)"/><path d="m2.75 11.0024h1.37529v1.375h-1.37529z" transform="matrix(0 1 -1 0 13.7524 8.2524)"/><path d="m15.125 5.50117h5.50118v1.375h-5.50118z" transform="matrix(0 1 -1 0 20.62617 -9.62383)"/><path d="m13.75 11.0024h5.5v1.37529h-5.5z"/></g></svg>