<svg fill="none" height="24" viewBox="0 0 22 24" width="22" xmlns="http://www.w3.org/2000/svg"><path d="m.5.5h21v22.38h-21z" fill="#fff" stroke="#000"/><g fill="#000"><path d="m0 0h20v2.00043h-20z" transform="matrix(1 0 0 -1 1 23.0049)"/><path d="m0 0h5.5v1.37529h-5.5z" transform="matrix(1 0 0 -1 1.375 12.3776)"/><path d="m0 0h6.875v11.0024h-6.875z" transform="matrix(1 0 0 -1 6.875 17.8788)"/><path d="m0 0h5.50118v1.375h-5.50118z" transform="matrix(0 -1 -1 0 6.875 17.8788)"/><path d="m0 0h1.37529v1.375h-1.37529z" transform="matrix(0 -1 -1 0 9.625 5.50118)"/><path d="m0 0h1.37529v1.375h-1.37529z" transform="matrix(0 -1 -1 0 11 4.12588)"/><path d="m0 0h1.37529v1.375h-1.37529z" transform="matrix(0 -1 -1 0 19.25 12.3776)"/><path d="m0 0h1.37529v4.125h-1.37529z" transform="matrix(0 -1 -1 0 17.875 11.0024)"/><path d="m0 0h1.37529v2.75h-1.37529z" transform="matrix(0 -1 -1 0 16.5 9.62706)"/><path d="m0 0h1.37529v1.375h-1.37529z" transform="matrix(0 -1 -1 0 15.125 8.25176)"/><path d="m0 0h1.37529v1.375h-1.37529z" transform="matrix(0 -1 -1 0 13.75 6.87647)"/><path d="m0 0h1.37529v2.75h-1.37529z" transform="matrix(0 -1 -1 0 12.375 5.50118)"/><path d="m0 0h1.37529v5.5h-1.37529z" transform="matrix(0 -1 -1 0 12.375 6.87647)"/><path d="m0 0h1.37529v1.375h-1.37529z" transform="matrix(0 -1 -1 0 6.875 8.25176)"/><path d="m0 0h1.37529v2.75h-1.37529z" transform="matrix(0 -1 -1 0 6.875 9.62706)"/><path d="m0 0h1.37529v4.125h-1.37529z" transform="matrix(0 -1 -1 0 6.875 11.0024)"/><path d="m0 0h1.37529v1.375h-1.37529z" transform="matrix(0 -1 -1 0 2.75 12.3776)"/><path d="m0 0h5.50118v1.375h-5.50118z" transform="matrix(0 -1 -1 0 15.125 17.8788)"/><path d="m0 0h5.5v1.37529h-5.5z" transform="matrix(1 0 0 -1 13.75 12.3776)"/></g></svg>