<svg fill="none" height="24" viewBox="0 0 22 24" width="22" xmlns="http://www.w3.org/2000/svg"><path d="m.5.5h21v22.375h-21z" fill="#fff" stroke="#000"/><g fill="#000"><path d="m0 0h20v2h-20z" transform="matrix(1 0 0 -1 1 23)"/><path d="m0 0h5.5v1.375h-5.5z" transform="matrix(1 0 0 -1 1.375 12.375)"/><path d="m0 0h6.875v1.375h-6.875z" transform="matrix(1 0 0 -1 6.875 17.875)"/><path d="m0 0h5.5v1.375h-5.5z" transform="matrix(0 -1 -1 0 6.875 17.875)"/><path d="m0 0h1.375v1.375h-1.375z" transform="matrix(0 -1 -1 0 9.625 5.5)"/><path d="m0 0h1.375v1.375h-1.375z" transform="matrix(0 -1 -1 0 11 4.125)"/><path d="m0 0h1.375v1.375h-1.375z" transform="matrix(0 -1 -1 0 19.25 12.375)"/><path d="m0 0h1.375v1.375h-1.375z" transform="matrix(0 -1 -1 0 17.875 11)"/><path d="m0 0h1.375v1.375h-1.375z" transform="matrix(0 -1 -1 0 16.5 9.625)"/><path d="m0 0h1.375v1.375h-1.375z" transform="matrix(0 -1 -1 0 15.125 8.25)"/><path d="m0 0h1.375v1.375h-1.375z" transform="matrix(0 -1 -1 0 13.75 6.875)"/><path d="m0 0h1.375v1.375h-1.375z" transform="matrix(0 -1 -1 0 12.375 5.5)"/><path d="m0 0h1.375v1.375h-1.375z" transform="matrix(0 -1 -1 0 8.25 6.875)"/><path d="m0 0h1.375v1.375h-1.375z" transform="matrix(0 -1 -1 0 6.875 8.25)"/><path d="m0 0h1.375v1.375h-1.375z" transform="matrix(0 -1 -1 0 5.5 9.625)"/><path d="m0 0h1.375v1.375h-1.375z" transform="matrix(0 -1 -1 0 4.125 11)"/><path d="m0 0h1.375v1.375h-1.375z" transform="matrix(0 -1 -1 0 2.75 12.375)"/><path d="m0 0h5.5v1.375h-5.5z" transform="matrix(0 -1 -1 0 15.125 17.875)"/><path d="m0 0h5.5v1.375h-5.5z" transform="matrix(1 0 0 -1 13.75 12.375)"/></g></svg>