<svg fill="none" height="24" viewBox="0 0 22 24" width="22" xmlns="http://www.w3.org/2000/svg"><path d="m.5-.5h21v22.375h-21z" fill="#fff" stroke="#000" transform="matrix(1 0 0 -1 0 22.375)"/><g fill="#000"><path d="m1 .375h20v2h-20z"/><path d="m1.375 11h5.5v1.375h-5.5z"/><path d="m6.875 5.5h6.875v1.375h-6.875z"/><path d="m6.875 5.5h5.5v1.375h-5.5z" transform="matrix(0 1 -1 0 12.375 -1.375)"/><path d="m9.625 17.875h1.375v1.375h-1.375z" transform="matrix(0 1 -1 0 27.5 8.25)"/><path d="m11 19.25h1.375v1.375h-1.375z" transform="matrix(0 1 -1 0 30.25 8.25)"/><path d="m19.25 11h1.375v1.375h-1.375z" transform="matrix(0 1 -1 0 30.25 -8.25)"/><path d="m17.875 12.375h1.375v1.375h-1.375z" transform="matrix(0 1 -1 0 30.25 -5.5)"/><path d="m16.5 13.75h1.375v1.375h-1.375z" transform="matrix(0 1 -1 0 30.25 -2.75)"/><path d="m15.125 15.125h1.375v1.375h-1.375z" transform="matrix(0 1 -1 0 30.25 0)"/><path d="m13.75 16.5h1.375v1.375h-1.375z" transform="matrix(0 1 -1 0 30.25 2.75)"/><path d="m12.375 17.875h1.375v1.375h-1.375z" transform="matrix(0 1 -1 0 30.25 5.5)"/><path d="m8.25 16.5h1.375v1.375h-1.375z" transform="matrix(0 1 -1 0 24.75 8.25)"/><path d="m6.875 15.125h1.375v1.375h-1.375z" transform="matrix(0 1 -1 0 22 8.25)"/><path d="m5.5 13.75h1.375v1.375h-1.375z" transform="matrix(0 1 -1 0 19.25 8.25)"/><path d="m4.125 12.375h1.375v1.375h-1.375z" transform="matrix(0 1 -1 0 16.5 8.25)"/><path d="m2.75 11h1.375v1.375h-1.375z" transform="matrix(0 1 -1 0 13.75 8.25)"/><path d="m15.125 5.5h5.5v1.375h-5.5z" transform="matrix(0 1 -1 0 20.625 -9.625)"/><path d="m13.75 11h5.5v1.375h-5.5z"/></g></svg>