<svg width="247" height="218" viewBox="0 0 247 218" fill="none" xmlns="http://www.w3.org/2000/svg">
<path fill-rule="evenodd" clip-rule="evenodd" d="M62.2032 78.664L122.347 33.7686C143.608 17.8981 154.246 9.95727 165.78 11.6383C177.315 13.3062 185.256 23.9442 201.127 45.2051L212.35 60.241C228.221 81.5019 236.162 92.1399 234.481 103.674C232.813 115.209 222.175 123.15 200.914 139.021L140.77 183.916C119.509 199.786 108.871 207.727 97.3376 206.046C85.802 204.378 77.8611 193.74 61.9906 172.48L50.7667 157.444C34.8962 136.183 26.9554 125.545 28.6364 114.011C30.3043 102.475 40.9423 94.5346 62.2032 78.664ZM75.2268 127.478C77.2207 125.989 78.5417 123.77 78.8991 121.308C79.2566 118.845 78.6212 116.342 77.1329 114.348C75.6445 112.354 73.425 111.033 70.9627 110.676C68.5003 110.318 65.9968 110.953 64.003 112.442C62.0091 113.93 60.6881 116.15 60.3306 118.612C59.9732 121.074 60.6085 123.578 62.0969 125.572C63.5853 127.566 65.8047 128.887 68.2671 129.244C70.7294 129.602 73.2329 128.966 75.2268 127.478ZM92.0626 150.032C94.0565 148.543 95.3774 146.324 95.7349 143.862C96.0923 141.399 95.457 138.896 93.9686 136.902C92.4803 134.908 90.2608 133.587 87.7984 133.23C85.3361 132.872 82.8326 133.507 80.8387 134.996C78.8448 136.484 77.5238 138.704 77.1664 141.166C76.8089 143.628 77.4443 146.132 78.9326 148.126C80.421 150.12 82.6405 151.441 85.1028 151.798C87.5652 152.156 90.0687 151.52 92.0626 150.032ZM114.617 133.196C116.61 131.708 117.931 129.488 118.289 127.026C118.646 124.564 118.011 122.06 116.523 120.066C115.034 118.072 112.815 116.751 110.352 116.394C107.89 116.036 105.387 116.672 103.393 118.16C101.399 119.648 100.078 121.868 99.7204 124.33C99.3629 126.793 99.9982 129.296 101.487 131.29C102.975 133.284 105.194 134.605 107.657 134.962C110.119 135.32 112.623 134.684 114.617 133.196ZM97.7808 110.642C99.7747 109.154 101.096 106.934 101.453 104.472C101.811 102.01 101.175 99.5061 99.6868 97.5122C98.1985 95.5183 95.979 94.1973 93.5166 93.8398C91.0543 93.4824 88.5508 94.1177 86.5569 95.6061C84.563 97.0945 83.2421 99.3139 82.8846 101.776C82.5271 104.239 83.1625 106.742 84.6509 108.736C86.1392 110.73 88.3587 112.051 90.8211 112.408C93.2834 112.766 95.7869 112.13 97.7808 110.642ZM120.335 93.8063C122.329 92.3179 123.65 90.0984 124.007 87.6361C124.365 85.1738 123.729 82.6703 122.241 80.6764C120.752 78.6825 118.533 77.3615 116.071 77.0041C113.608 76.6466 111.105 77.2819 109.111 78.7703C107.117 80.2587 105.796 82.4782 105.439 84.9405C105.081 87.4029 105.716 89.9063 107.205 91.9002C108.693 93.8941 110.913 95.2151 113.375 95.5726C115.837 95.93 118.341 95.2947 120.335 93.8063ZM137.171 116.36C139.164 114.872 140.485 112.652 140.843 110.19C141.2 107.728 140.565 105.224 139.077 103.23C137.588 101.236 135.369 99.9155 132.906 99.558C130.444 99.2006 127.941 99.8359 125.947 101.324C123.953 102.813 122.632 105.032 122.274 107.494C121.917 109.957 122.552 112.46 124.041 114.454C125.529 116.448 127.748 117.769 130.211 118.127C132.673 118.484 135.177 117.849 137.171 116.36ZM142.889 76.9705C144.883 75.4822 146.204 73.2627 146.561 70.8003C146.919 68.338 146.283 65.8345 144.795 63.8406C143.306 61.8467 141.087 60.5257 138.625 60.1683C136.162 59.8108 133.659 60.4462 131.665 61.9345C129.671 63.4229 128.35 65.6424 127.993 68.1047C127.635 70.5671 128.27 73.0706 129.759 75.0645C131.247 77.0584 133.467 78.3793 135.929 78.7368C138.391 79.0943 140.895 78.4589 142.889 76.9705ZM159.724 99.5245C161.718 98.0361 163.039 95.8167 163.397 93.3543C163.754 90.892 163.119 88.3885 161.631 86.3946C160.142 84.4007 157.923 83.0797 155.46 82.7223C152.998 82.3648 150.495 83.0002 148.501 84.4885C146.507 85.9769 145.186 88.1964 144.828 90.6587C144.471 93.1211 145.106 95.6245 146.595 97.6184C148.083 99.6123 150.302 100.933 152.765 101.291C155.227 101.648 157.731 101.013 159.724 99.5245ZM165.443 60.1348C167.437 58.6464 168.758 56.4269 169.115 53.9646C169.473 51.5022 168.837 48.9987 167.349 47.0048C165.86 45.011 163.641 43.69 161.179 43.3325C158.716 42.9751 156.213 43.6104 154.219 45.0988C152.225 46.5872 150.904 48.8066 150.547 51.269C150.189 53.7313 150.824 56.2348 152.313 58.2287C153.801 60.2226 156.021 61.5436 158.483 61.901C160.945 62.2585 163.449 61.6231 165.443 60.1348ZM182.278 82.6887C184.272 81.2004 185.593 78.9809 185.951 76.5185C186.308 74.0562 185.673 71.5527 184.185 69.5588C182.696 67.5649 180.477 66.2439 178.014 65.8865C175.552 65.529 173.049 66.1644 171.055 67.6528C169.061 69.1411 167.74 71.3606 167.382 73.823C167.025 76.2853 167.66 78.7888 169.149 80.7827C170.637 82.7766 172.856 84.0975 175.319 84.455C177.781 84.8125 180.285 84.1771 182.278 82.6887ZM197.235 106.646C198.351 108.141 198.828 110.019 198.559 111.865C198.291 113.712 197.301 115.377 195.805 116.493L120.625 172.612C119.13 173.729 117.252 174.205 115.405 173.937C113.559 173.669 111.894 172.678 110.778 171.183C109.662 169.687 109.185 167.81 109.453 165.963C109.721 164.116 110.712 162.452 112.207 161.335L187.387 105.216C188.883 104.1 190.76 103.623 192.607 103.891C194.454 104.16 196.118 105.15 197.235 106.646Z" fill="#EEBFFF"/>
<path d="M97.7458 57.0947C90.5852 61.2718 74.4738 61.3911 67.3132 28.4521C60.1525 -4.4869 15.3985 14.7275 -6.0835 28.4521" stroke="#EEBFFF" stroke-width="7"/>
</svg>
