<svg width="276" height="289" viewBox="0 0 276 289" fill="none" xmlns="http://www.w3.org/2000/svg">
<g clip-path="url(#clip0_342_136)">
<path d="M191.599 75.5054L158.338 133.115L209.192 162.476C226.305 132.835 218.24 95.6328 191.599 75.5054ZM67.7886 138.955C49.2496 171.066 60.2419 212.089 92.3524 230.628C124.463 249.167 165.487 238.175 184.026 206.065L200.803 177.005L84.566 109.896L67.7886 138.955ZM177.07 67.1167C146.318 54.1088 110.068 65.7259 92.9547 95.3663L143.808 124.727L177.07 67.1167Z" fill="white"/>
</g>
<path d="M184.696 81.6957C178.162 72.2563 175.112 53.813 215.193 55.5557C255.274 57.2984 258.034 12.7151 254.403 -9.79431" stroke="white" stroke-width="6"/>
<defs>
<clipPath id="clip0_342_136">
<rect width="201.328" height="201.328" fill="white" transform="translate(101.645 13.2057) rotate(30)"/>
</clipPath>
</defs>
</svg>
