<?xml version="1.0" encoding="UTF-8"?>
<svg xmlns="http://www.w3.org/2000/svg" xmlns:xlink="http://www.w3.org/1999/xlink" viewBox="0 0 48 48" width="48px" height="48px">
<g id="surface34846131">
<path style=" stroke:none;fill-rule:nonzero;fill:rgb(100%,100%,100%);fill-opacity:1;" d="M 43.601562 0 L 4.398438 0 C 2 0 0 2 0 4.398438 L 0 43.601562 C 0 46 2 48 4.398438 48 L 24 48 L 24 28 L 18 28 L 18 22 L 24 22 L 24 16 C 24 11 26 8 32 8 L 38 8 L 38 14 L 35.398438 14 C 33.601562 14 32 15.601562 32 17.398438 L 32 22 L 40 22 L 39 28 L 32 28 L 32 48 L 43.601562 48 C 46 48 48 46 48 43.601562 L 48 4.398438 C 48 2 46 0 43.601562 0 Z M 43.601562 0 "/>
</g>
</svg>
