<?xml version="1.0" encoding="UTF-8"?>
<svg xmlns="http://www.w3.org/2000/svg" xmlns:xlink="http://www.w3.org/1999/xlink" viewBox="0 0 52 52" width="52px" height="52px">
<g id="surface35023660">
<path style=" stroke:none;fill-rule:nonzero;fill:rgb(100%,100%,100%);fill-opacity:1;" d="M 15.09375 0 C 6.78125 0 0 6.78125 0 15.09375 L 0 36.90625 C 0 45.21875 6.78125 52 15.09375 52 L 36.90625 52 C 45.21875 52 52 45.21875 52 36.90625 L 52 15.09375 C 52 6.78125 45.21875 0 36.90625 0 Z M 15.09375 4 L 36.90625 4 C 43.054688 4 48 8.9375 48 15.09375 L 48 36.90625 C 48 43.054688 43.0625 48 36.90625 48 L 15.09375 48 C 8.945312 48 4 43.0625 4 36.90625 L 4 15.09375 C 4 8.945312 8.9375 4 15.09375 4 Z M 41 8 C 39.34375 8 38 9.34375 38 11 C 38 12.65625 39.34375 14 41 14 C 42.65625 14 44 12.65625 44 11 C 44 9.34375 42.65625 8 41 8 Z M 26 12 C 18.289062 12 12 18.289062 12 26 C 12 33.710938 18.289062 40 26 40 C 33.710938 40 40 33.710938 40 26 C 40 18.289062 33.710938 12 26 12 Z M 26 16 C 31.546875 16 36 20.453125 36 26 C 36 31.546875 31.546875 36 26 36 C 20.453125 36 16 31.546875 16 26 C 16 20.453125 20.453125 16 26 16 Z M 26 16 "/>
</g>
</svg>
