<?xml version="1.0" encoding="UTF-8"?>
<svg xmlns="http://www.w3.org/2000/svg" xmlns:xlink="http://www.w3.org/1999/xlink" viewBox="0 0 52 52" width="52px" height="52px">
<g id="surface33991409">
<path style=" stroke:none;fill-rule:nonzero;fill:rgb(100%,100%,100%);fill-opacity:1;" d="M 26 0.375 C 11.851562 0.375 0.375 11.851562 0.375 26 C 0.375 36.84375 7.117188 46.09375 16.632812 49.835938 C 16.59375 48.960938 16.59375 44.421875 19.75 30.882812 C 20.171875 26.367188 19.585938 24.765625 19.585938 22.890625 C 19.585938 18.632812 21.796875 17.734375 23.09375 17.734375 C 24.9375 17.734375 27.476562 18.4375 27.476562 21.40625 C 27.476562 24.804688 24.703125 25.703125 24.703125 25.703125 C 24.703125 25.703125 24.507812 26.570312 24.273438 28.984375 C 24.046875 31.40625 25.015625 34.03125 28.960938 34.03125 C 35.289062 34.03125 36.265625 25.242188 36.265625 22.820312 C 36.265625 19.484375 33.820312 12.703125 26.21875 12.703125 C 16.085938 12.703125 14.34375 21.78125 14.34375 24.203125 C 14.34375 25.242188 14.625 27.070312 14.820312 27.851562 C 16.734375 28.164062 16.539062 30.78125 15.71875 31.523438 C 14.8125 32.34375 10.132812 33.320312 10.132812 23.054688 C 10.132812 13.28125 18.84375 8.242188 26.492188 8.242188 C 33.773438 8.242188 41.695312 13.265625 41.695312 22.9375 C 41.695312 31.578125 35.492188 38.375 28.96875 38.375 C 25.054688 38.375 22.976562 35.148438 22.976562 35.148438 C 22.976562 38.171875 17.429688 48.546875 16.71875 49.867188 C 19.601562 50.984375 22.726562 51.625 26 51.625 C 40.15625 51.625 51.625 40.15625 51.625 26 C 51.625 11.84375 40.148438 0.375 26 0.375 Z M 26 0.375 "/>
</g>
</svg>
