<?xml version="1.0" encoding="UTF-8"?>
<svg xmlns="http://www.w3.org/2000/svg" xmlns:xlink="http://www.w3.org/1999/xlink" viewBox="0 0 48 48" width="48px" height="48px">
<g id="surface35036952">
<path style=" stroke:none;fill-rule:nonzero;fill:rgb(100%,100%,100%);fill-opacity:1;" d="M 48 8.601562 C 46.203125 9.398438 44.398438 10 42.398438 10.203125 C 44.398438 9 46 7 46.796875 4.796875 C 44.796875 6 42.796875 6.796875 40.601562 7.203125 C 38.601562 5.203125 36 4 33.203125 4 C 27.796875 4 23.398438 8.398438 23.398438 13.796875 C 23.398438 14.601562 23.398438 15.398438 23.601562 16 C 15.398438 15.601562 8.203125 11.796875 3.398438 5.796875 C 2.398438 7.203125 2 9 2 10.796875 C 2 14.203125 3.796875 17.203125 6.398438 19 C 4.796875 18.796875 3.203125 18.398438 2 17.796875 C 2 17.796875 2 17.796875 2 18 C 2 22.796875 5.398438 26.796875 9.796875 27.601562 C 9 27.796875 8.203125 28 7.203125 28 C 6.601562 28 6 28 5.398438 27.796875 C 6.601562 31.796875 10.203125 34.601562 14.601562 34.601562 C 11.203125 37.203125 7 38.796875 2.398438 38.796875 C 1.601562 38.796875 0.796875 38.796875 0 38.601562 C 4.398438 41.398438 9.601562 43 15 43 C 33.203125 43 43 28 43 15 C 43 14.601562 43 14.203125 43 13.796875 C 45 12.398438 46.601562 10.601562 48 8.601562 "/>
</g>
</svg>
