<?xml version="1.0" encoding="UTF-8"?>
<svg xmlns="http://www.w3.org/2000/svg" xmlns:xlink="http://www.w3.org/1999/xlink" viewBox="0 0 48 48" width="48px" height="48px">
<g id="surface35036098">
<path style=" stroke:none;fill-rule:nonzero;fill:rgb(100%,100%,100%);fill-opacity:1;" d="M 24.023438 4 C 13.011719 4 4.046875 12.957031 4.042969 23.96875 C 4.039062 27.488281 4.964844 30.925781 6.710938 33.953125 L 4 44 L 14.464844 41.527344 C 17.382812 43.121094 20.667969 43.953125 24.011719 43.957031 L 24.019531 43.957031 C 35.03125 43.957031 43.988281 35 43.996094 23.988281 C 44 18.648438 41.925781 13.632812 38.152344 9.855469 C 34.378906 6.082031 29.367188 4.003906 24.023438 4 Z M 24.019531 8 C 28.292969 8.003906 32.304688 9.667969 35.324219 12.683594 C 38.34375 15.703125 40 19.714844 39.996094 23.984375 C 39.992188 32.792969 32.828125 39.957031 24.015625 39.957031 C 21.351562 39.953125 18.707031 39.285156 16.382812 38.015625 L 15.035156 37.28125 L 13.546875 37.632812 L 9.609375 38.5625 L 10.570312 34.992188 L 11.003906 33.390625 L 10.175781 31.953125 C 8.78125 29.539062 8.039062 26.773438 8.042969 23.96875 C 8.046875 15.164062 15.214844 8 24.019531 8 Z M 16.953125 14.75 C 16.617188 14.75 16.078125 14.875 15.621094 15.375 C 15.164062 15.871094 13.871094 17.078125 13.871094 19.535156 C 13.871094 21.992188 15.660156 24.363281 15.910156 24.699219 C 16.15625 25.03125 19.363281 30.230469 24.4375 32.230469 C 28.652344 33.890625 29.511719 33.566406 30.425781 33.480469 C 31.339844 33.398438 33.382812 32.273438 33.796875 31.109375 C 34.210938 29.945312 34.214844 28.941406 34.089844 28.734375 C 33.964844 28.527344 33.632812 28.402344 33.132812 28.152344 C 32.636719 27.902344 30.179688 26.695312 29.722656 26.53125 C 29.265625 26.367188 28.929688 26.28125 28.597656 26.78125 C 28.265625 27.28125 27.3125 28.402344 27.019531 28.734375 C 26.726562 29.070312 26.4375 29.113281 25.9375 28.863281 C 25.4375 28.609375 23.828125 28.082031 21.921875 26.382812 C 20.4375 25.0625 19.4375 23.429688 19.144531 22.929688 C 18.855469 22.433594 19.117188 22.15625 19.367188 21.910156 C 19.589844 21.6875 19.863281 21.328125 20.113281 21.035156 C 20.359375 20.742188 20.449219 20.535156 20.613281 20.203125 C 20.777344 19.871094 20.695312 19.578125 20.570312 19.328125 C 20.445312 19.078125 19.476562 16.613281 19.03125 15.625 C 18.65625 14.796875 18.261719 14.777344 17.90625 14.761719 C 17.617188 14.75 17.285156 14.75 16.953125 14.75 Z M 16.953125 14.75 "/>
</g>
</svg>
