<?xml version="1.0" encoding="UTF-8"?>
<svg xmlns="http://www.w3.org/2000/svg" xmlns:xlink="http://www.w3.org/1999/xlink" viewBox="0 0 32 32" width="32px" height="32px">
<g id="surface33996307">
<path style=" stroke:none;fill-rule:nonzero;fill:rgb(100%,100%,100%);fill-opacity:1;" d="M 16 4 C 11.921875 4 8.3125 4.421875 6.117188 4.75 C 4.320312 5.015625 2.890625 6.421875 2.5625 8.226562 C 2.28125 9.804688 2 12.109375 2 15 C 2 17.890625 2.28125 20.195312 2.5625 21.773438 C 2.890625 23.578125 4.320312 24.976562 6.117188 25.25 C 8.320312 25.578125 11.945312 26 16 26 C 20.054688 26 23.671875 25.578125 25.875 25.25 L 25.882812 25.25 C 27.679688 24.984375 29.109375 23.578125 29.4375 21.773438 C 29.71875 20.1875 30 17.882812 30 15 C 30 12.109375 29.71875 9.804688 29.429688 8.226562 C 29.109375 6.421875 27.679688 5.015625 25.882812 4.75 C 23.6875 4.421875 20.078125 4 16 4 Z M 16 6 C 19.9375 6 23.460938 6.40625 25.585938 6.726562 C 26.523438 6.867188 27.28125 7.601562 27.460938 8.578125 C 27.726562 10.054688 28 12.242188 28 15 C 28 17.757812 27.726562 19.945312 27.46875 21.414062 C 27.289062 22.398438 26.53125 23.132812 25.585938 23.273438 C 23.445312 23.585938 19.914062 24 16 24 C 12.085938 24 8.546875 23.585938 6.414062 23.273438 C 5.476562 23.132812 4.710938 22.398438 4.53125 21.414062 C 4.273438 19.9375 4 17.757812 4 15 C 4 12.234375 4.273438 10.054688 4.53125 8.578125 C 4.710938 7.601562 5.46875 6.867188 6.40625 6.734375 L 6.414062 6.734375 C 8.539062 6.414062 12.0625 6 16 6 Z M 12 10 L 12 20 L 22 15 Z M 12 10 "/>
</g>
</svg>
