<svg version="1.1" xmlns="http://www.w3.org/2000/svg" width="600px" height="80px" viewBox="0 0 300 40">
<linearGradient id="A" gradientUnits="userSpaceOnUse" x1="18.0259" y1="3.1875" x2="18.0259" y2="36.9058"><stop offset="0" style="stop-color:#ddd"/><stop offset="0.35" style="stop-color:#888"/><stop offset="0.72" style="stop-color:#333"/><stop offset="1" style="stop-color:#000"/></linearGradient>
<linearGradient id="B" gradientUnits="userSpaceOnUse" x1="278.1885" y1="36.8823" x2="278.1885" y2="2.5679"><stop offset="0" style="stop-color:#2A2874"/><stop offset="0.45" style="stop-color:#333F8B"/><stop offset="1" style="stop-color:#4162AD"/></linearGradient>
<linearGradient id="C" gradientUnits="userSpaceOnUse" x1="81.5718" y1="36.8823" x2="81.5718" y2="2.5679"><stop offset="0" style="stop-color:#7E1D17"/><stop offset="0.25" style="stop-color:#951E20"/><stop offset="0.77" style="stop-color:#D11F37"/><stop offset="1" style="stop-color:#ED2041"/></linearGradient>
<linearGradient id="D" gradientUnits="userSpaceOnUse" x1="81.5718" y1="10.668" x2="81.5718" y2="28.7822"><stop offset="0" style="stop-color:#F9EC31"/><stop offset="0.5" style="stop-color:#FFF100"/><stop offset="1" style="stop-color:#3B2314"/></linearGradient>
<path fill="url(#A)" stroke="#231F20" stroke-miterlimit="10" d="M19.7,36.9c-2.3,0-4.5-0.4-6.6-1.3c-2.1-0.8-4-2.1-5.6-3.7 c-1.7-1.6-2.9-3.4-3.8-5.5c-0.9-2.1-1.3-4.2-1.3-6.5c0-2.3,0.4-4.4,1.3-6.5c0.9-2,2.2-3.9,3.8-5.5C9,6.5,10.9,5.3,13,4.5 c2.1-0.8,4.3-1.3,6.6-1.3c2.6,0,5.1,0.5,7.4,1.5c2.3,1,4.3,2.5,6,4.4l-2.5,2.3c-1.4-1.6-3-2.8-4.8-3.6c-1.9-0.8-3.9-1.2-6-1.2 c-1.9,0-3.7,0.4-5.5,1.1c-1.7,0.7-3.2,1.7-4.5,2.9c-1.3,1.2-2.3,2.6-3,4.3C6,16.4,5.6,18.2,5.6,20c0,1.9,0.4,3.6,1.1,5.3 c0.7,1.6,1.7,3.1,3,4.3c1.3,1.2,2.8,2.2,4.5,2.9s3.5,1.1,5.5,1.1c2.1,0,4.1-0.4,6-1.2c1.9-0.8,3.5-2,4.9-3.5v-3.5H17.9v-3.4h15.9v8 l-0.4,0.5c-0.8,1-1.7,1.9-2.7,2.7c-1,0.8-2.1,1.5-3.3,2C25,36.3,22.4,36.9,19.7,36.9z"/>
<path fill="url(#A)" stroke="#231F20" stroke-miterlimit="10" d="M40.6,7.3v14.8h18.8v3.4H40.6v7.2h22.2v3.4H37.2V3.9h25.5 v3.4H40.6z"/>
<path fill="url(#A)" stroke="#231F20" stroke-miterlimit="10" d="M132,3.9c0,0.1,0,0.1,0,0.2v32h-3.2V15.7 c-0.4,1-0.9,1.9-1.4,2.8c-0.5,0.9-1,1.8-1.6,2.6c-0.8,1.3-1.6,2.4-2.4,3.3c-0.8,0.9-1.5,1.7-2.1,2.3c-0.6,0.6-1.1,1.1-1.5,1.4 c-0.4,0.3-0.6,0.5-0.6,0.5l-1,0.7l-1-0.7c0,0-0.2-0.2-0.6-0.5c-0.4-0.3-0.9-0.8-1.5-1.4s-1.3-1.4-2.1-2.4c-0.8-1-1.6-2.1-2.4-3.4 c-0.6-0.9-1.1-1.8-1.6-2.7c-0.5-0.9-1-1.8-1.4-2.8v20.7h-3.2V4v0h3.4c0.5,3.4,1.3,6.3,2.3,8.8c1,2.5,2.1,4.6,3.1,6.2 c1,1.5,1.9,2.8,2.8,3.8c0.9,1,1.6,1.8,2.2,2.3c0.6-0.5,1.3-1.2,2.2-2.2c0.9-1,1.8-2.2,2.8-3.7c1.1-1.7,2.1-3.7,3.2-6.3 c1-2.5,1.8-5.5,2.3-9H132z"/>
<path fill="url(#A)" stroke="#231F20" stroke-miterlimit="10" d="M139.4,7.3v14.8h18.8v3.4h-18.8v7.2h22.2v3.4h-25.5V3.9 h25.5v3.4H139.4z"/>
<path fill="url(#A)" stroke="#231F20" stroke-miterlimit="10" d="M193.8,7.4H181v28.8h-3.4V7.4h-12.8V4h29V7.4z"/>
<path fill="url(#A)" stroke="#231F20" stroke-miterlimit="10" d="M215.1,22.5c0.6,0.5,1.2,1,1.7,1.5 c0.5,0.5,1.1,1.1,1.6,1.7c2.5,2.9,4.4,6.4,5.7,10.5h-3.5c-1.8-5.3-4.8-9.3-8.9-12.1c-1.3-0.8-2.7-1.5-4.2-2.2h-6.7v14.2h-3.4V4h1.7 h1.7h10.6c0.8,0,1.6,0,2.4,0s1.6,0,2.4,0.1c0.2,0,0.5,0.1,0.7,0.1c0.2,0,0.4,0.1,0.7,0.1c0.7,0.2,1.3,0.4,2,0.6 c0.6,0.3,1.2,0.6,1.7,1c0.6,0.5,1.1,1.1,1.6,1.7s0.8,1.4,1,2.1c0.3,0.9,0.4,1.8,0.4,2.8c0,1.3-0.2,2.5-0.6,3.6 c-0.4,1.1-1,2.1-1.8,2.9c-0.8,0.8-1.8,1.5-3,2c-1.2,0.5-2.6,0.8-4.3,0.8c0.1,0.1,0.2,0.2,0.3,0.3C214.9,22.3,215,22.4,215.1,22.5z  M200.7,18.5h6.2h7.6c2.2,0,3.8-0.5,4.8-1.6c1-1.1,1.5-2.4,1.5-4c0-1.6-0.5-3-1.5-4c-1-1-2.7-1.5-4.9-1.5h-7.4h-6.2V18.5z"/>
<path fill="url(#A)" stroke="#231F20" stroke-miterlimit="10" d="M227.2,36.1V3.9h3.4v32.2H227.2z"/>
<path fill="url(#A)" stroke="#231F20" stroke-miterlimit="10" d="M260.1,33.6c0.3,0.4,0.5,0.9,0.8,1.3s0.5,0.8,0.7,1.3h-3.9 c-0.1-0.1-0.2-0.2-0.3-0.4c-0.1-0.1-0.2-0.2-0.3-0.4c-3.3-5-7.5-8.3-12.5-9.8c-2-0.6-4.1-0.9-6.3-0.9c-0.1,0-0.1,0-0.2,0v11.4h-3.4 V3.9h3.4v17.3c7.2-1.1,12.7-5.2,16.5-12.3c0.5-0.9,0.9-1.8,1.3-2.6c0.4-0.9,0.7-1.7,1-2.5h3.5c-0.3,1-0.7,2.1-1.2,3.2 c-0.4,1.1-1,2.3-1.6,3.4c-2.1,3.9-4.6,7-7.7,9.3c-0.7,0.5-1.4,1-2.1,1.4c-0.7,0.4-1.4,0.8-2.2,1.2c0.3,0.1,0.6,0.2,0.9,0.3 c0.3,0.1,0.6,0.2,0.9,0.3c0.7,0.3,1.4,0.6,2.1,0.9c0.7,0.3,1.3,0.7,2,1.1C254.9,27.2,257.7,30,260.1,33.6z"/> 
<path fill="url(#B)" stroke="#0E0B38" stroke-miterlimit="10" d="M288.1,2.6h-19.8l-9.9,17.2l9.9,17.2h19.8l9.9-17.2 L288.1,2.6z M286,33.2h-15.6l-7.8-13.5l7.8-13.5H286l7.8,13.5L286,33.2z"/>
<path fill="url(#C)" stroke="#4A0200" stroke-miterlimit="10" d="M91.5,2.6H71.7l-9.9,17.2l9.9,17.2h19.8l9.9-17.2 L91.5,2.6z M89.4,33.2H73.8L66,19.7l7.8-13.5h15.6l7.8,13.5L89.4,33.2z"/>
<polygon fill="url(#D)" stroke="#121002" stroke-miterlimit="10" points="86.8,10.7 76.3,10.7 71.1,19.7 76.3,28.8 86.8,28.8 92,19.7"/>
<polygon fill="url(#D)" stroke="#121002" stroke-miterlimit="10" points="283.4,10.7 273,10.7 267.7,19.7 273,28.8 283.4,28.8 288.6,19.7"/>
</svg>
