<svg id="Layer_2" data-name="Layer 2" xmlns="http://www.w3.org/2000/svg" viewBox="0 0 62.74 48.63"><defs><style>.cls-3{fill:#f8e9ae}.cls-4{fill:#ef4355}</style></defs><path d="M53.44 21.76s-3.63 2.76-1.87 9 5.06 11.46 4.18 13.77-4.4 3.3-6.27-1.21-.67-6.14-7.27-11.32 11.23-10.24 11.23-10.24z" fill="#c63d50"/><path d="M27.61 39s.54 3 4.22 2.31 16.61-7.91 15.66-11.34-5 .34-5 .34z" fill="#ef4356" id="Layer_6" data-name="Layer 6"/><g id="Layer_3" data-name="Layer 3"><path class="cls-3" d="M28.57 40.85c.53-.19.87-2.38.87-2.38l-3 1S28 41 28.57 40.85z"/><path class="cls-3" d="M31 40.21c.55-.14 1.07-2.3 1.07-2.3L29 38.7s1.45 1.64 2 1.51z"/><path class="cls-3" d="M33.49 39.64c.53-.17.93-2.35.93-2.35l-3.05 1s1.63 1.52 2.12 1.35z"/><path class="cls-3" d="M36 38.49c.51-.22.7-2.43.7-2.43l-2.94 1.26s1.71 1.39 2.24 1.17z"/><path class="cls-3" d="M38.58 37.47c.45-.24.51-2.23.51-2.23l-2.57 1.39s1.62 1.1 2.06.84z"/><path class="cls-3" d="M41 35.81c.42-.29.29-2.16.29-2.16l-2.4 1.65s1.71.82 2.11.51z"/></g><path class="cls-4" d="M52.38 23c-4.89 1.57-12.8 4.87-8.24 8.77 6.38 5.46 5.09 7.06 6.77 11.65a5 5 0 0 0 2.49 3.1 3 3 0 0 0 2.35-1.93c.88-2.31-2.42-7.49-4.18-13.77-1.1-3.95-.1-6.49.81-7.82z"/><path class="cls-4" d="M26.79 15.54S13.46 17.3 3.22 37.35s7 7.38 9 6.82 13.17-4.62 18.7-5.5 13.79-6.94 17-9.8 10.8-9 12.56-13.33S65 2.32 59.39.34s-5.4 5.18-9.91 8-11.02 3.79-22.69 7.2z"/><path d="M57.5 0c-3.75.11-4.09 5.87-8 8.37-4.35 2.75-10.5 3.68-21.25 6.75 2.57.22 6.8-.67 14.86-1.75C53.72 12 59.82 1.88 57.5 0z" fill="#d13f54"/><g id="Layer_4" data-name="Layer 4"><circle cx="28.96" cy="22.97" r="4.1" fill="#fff"/><circle cx="28.25" cy="23.62" r="3.09"/></g><ellipse id="Layer_3-2" data-name="Layer 3" cx="3.82" cy="40.86" rx="1.96" ry=".81" transform="rotate(-66.88 3.82 40.862)" fill="#c63e50"/></svg>