<svg xmlns="http://www.w3.org/2000/svg" viewBox="0 0 78 93">
  <defs>
    <style>
      .c{fill:#99996b}
    </style>
  </defs>
  <title>
    egg
  </title>
  <path fill="#e6e5c3" d="M78 54.5C78 80.18 63 93 39 93S0 80.18 0 54.5 24 0 39 0s39 28.82 39 54.5z"/>
  <path fill="#d8d9a1" d="M39.16 0H39C24 0 0 28.82 0 54.5c0 21.19 10.22 33.61 27.27 37.31C19.49 69.37 11.09 28.36 39.16 0z"/>
  <path d="M59.73 43.8c2.88 6-1 12.62-5.8 13.84s-8-.2-11.66-9.44c-3.27-8.2 1-12.62 5.8-13.84S55 34 59.73 43.8zM31 69.68c0 7.32-1.84 9.65-6.8 10.9S16.14 81 13 74.2c-2.75-6 1.84-9.64 6.8-10.89s11.13-1.85 11.2 6.37z" class="c"/>
  <path fill="#919069" d="M20.51 63.15l-.68.16c-5 1.25-9.55 4.89-6.8 10.89 3 6.63 6.07 7.58 10.85 6.44a129.51 129.51 0 0 1-3.37-17.49z"/>
  <path d="M62 66.31c-5.55 8.53-4.73 12.16-.57 15.81a9.91 9.91 0 0 0 4.93 2.25c5.68-4.89 9.46-11.85 10.92-20.9C73.15 60 66.84 59 62 66.31zM47.65 82.91c-1 4.51-3.31 3.43-5.07 2.62s-2.33-3.3-1.29-5.55 1.57-2.8 5.07-2.62c2.69.14 1.82 3.12 1.29 5.55zM19.79 26.91c-.29 2.32-1.94 1.56-3.19 1a2.36 2.36 0 0 1-1.31-3.06c.51-1.12.82-1.37 3.19-1 1.81.29 1.52 1.81 1.31 3.06zM45.74 18.1c-4.79-3.17-4.31-4.12-2.66-7a5.42 5.42 0 0 1 7.31-1.9c2.75 1.44 1.83 1.38.91 6.26-.57 3.01-.76 5.82-5.56 2.64z" class="c"/>
</svg>
