<svg xmlns="http://www.w3.org/2000/svg" id="Layer_1" data-name="Layer 1" viewBox="0 0 90.56 80.03">
  <defs>
    <style>
      .cls-1{fill:#94c127}.cls-3{fill:#f9eaaf}
    </style>
  </defs>
  <title>
    Untitled-2
  </title>
  <path d="M89.91 74a257.54 257.54 0 0 1-8-50s-17.19 5.56-25 13.45c.2-.21.41-.41.63-.62C61.05 47 69 70.49 71.29 80h19.18a15.58 15.58 0 0 0-.56-6z" class="cls-1"/>
  <path fill="#89aa24" d="M56.94 37.48a18.43 18.43 0 0 0-1.67 1.93c-.15.2-.29.4-.42.59a.41.41 0 0 1-.07.11c-.11.19-.23.37-.33.56l-.06.1a10.74 10.74 0 0 0-.62 1.34v.08c-.07.19-.13.38-.19.57a1.21 1.21 0 0 1 0 .18c0 .16-.08.32-.11.49a1.29 1.29 0 0 1 0 .19 5.06 5.06 0 0 0-.06.53.78.78 0 0 0 0 .14v.79a5.27 5.27 0 0 0 0 .56v.22a3.89 3.89 0 0 0 .09.47 2 2 0 0 0 .05.24c0 .16.09.32.14.48a1.72 1.72 0 0 0 .07.21 6.65 6.65 0 0 0 .28.69c4.46 9.66 10 26 10.34 32h7C69 70.49 61.05 47 57.57 36.86c-.22.21-.43.41-.63.62z"/>
  <path d="M14.73 43.11C22 53.68 30.24 55.59 42.36 53.34l29.79-6.62a12.9 12.9 0 0 0 10.3-15C57.91 40 27.91 41 14.73 43.11z" class="cls-1"/>
  <path d="M17.14 48c1.71-.08 4.62-6.22 4.62-6.22l-9.76.43s3.44 5.85 5.14 5.79z" class="cls-3"/>
  <path d="M25.19 48c1.71-.11 4.52-6.29 4.52-6.29l-9.77.6s3.54 5.77 5.25 5.69z" class="cls-3"/>
  <path d="M33.13 47c1.71-.1 4.52-6.27 4.52-6.27l-9.77.59s3.54 5.8 5.25 5.68z" class="cls-3"/>
  <path d="M41.29 46c1.7-.2 4.17-6.51 4.17-6.51l-9.72 1.13S39.6 46.2 41.29 46z" class="cls-3"/>
  <path d="M48.84 45c1.55-.24 3.67-5.59 3.67-5.59l-8.85 1.36s3.63 4.51 5.18 4.23z" class="cls-3"/>
  <path d="M56.84 44c1.55-.24 3.67-5.59 3.67-5.59l-8.85 1.36s3.63 4.51 5.18 4.23z" class="cls-3"/>
  <path d="M8.73 43.11c2.18.92 50.19-.37 73.72-11.38 0 0 1.14-12.72-3.2-22.71S64.91 0 53.91 0c-9 0-17.95-.25-36 6.88S-2.32 21.81 1.7 32.52c2.3 5.6 4.86 9.67 7.03 10.59z" class="cls-1"/>
  <circle cx="62.56" cy="17.8" r="5.89" fill="#fff"/>
  <circle cx="60.91" cy="18.03" r="4"/>
  <ellipse id="Layer_3" cx="3.61" cy="21.93" fill="#768c33" data-name="Layer 3" rx="1.96" ry=".81" transform="rotate(-75.71 3.608 21.926)"/>
</svg>
