<svg xmlns="http://www.w3.org/2000/svg" id="Layer_1" data-name="Layer 1" viewBox="0 0 79.21 84.3">
  <defs>
    <style>
      .cls-1{fill:#629861}
    </style>
  </defs>
  <title>
    Untitled-3
  </title>
  <path d="M5 11.47L18.25 23a3.61 3.61 0 0 1 1 1.14c.27.62 0 1.4-.78 2.33a3.78 3.78 0 0 1-1.2 1 1.52 1.52 0 0 1-.94.13 1.71 1.71 0 0 1-.68-.3 21.3 21.3 0 0 1-.74-.61l-2.55-2.22-7.2 3.1L5 31a9.19 9.19 0 0 1-.08.92 1.71 1.71 0 0 1-.26.68 1.43 1.43 0 0 1-.72.61 3.69 3.69 0 0 1-1.58.15c-1.22 0-2-.39-2.23-1A3.72 3.72 0 0 1 0 30.79l.8-17.55a2.46 2.46 0 0 1 .46-1.34 2.5 2.5 0 0 1 1.08-.9 2.39 2.39 0 0 1 2.66.47zm.57 7.14l-.19 4.3 3.46-1.48zM25.4 2a1.25 1.25 0 0 1 .47-.85 4.27 4.27 0 0 1 1.18-.74A4.59 4.59 0 0 1 28.3 0a2.12 2.12 0 0 1 .81 0 1.2 1.2 0 0 1 .59.36 5.76 5.76 0 0 1 .71 1.3l6.19 14.48a8.92 8.92 0 0 1 .35.92 2.4 2.4 0 0 1 0 .79c0 .58-.62 1.1-1.73 1.58s-2.06.5-2.55-.05a4.74 4.74 0 0 1-.67-1.29l-2.27-5.28-6.89 3 2.28 5.31a7.66 7.66 0 0 1 .34.91 2.16 2.16 0 0 1 .05.79c0 .58-.62 1.1-1.73 1.58s-2.06.5-2.54-.05a4.71 4.71 0 0 1-.75-1.35L14.3 8.59a8.92 8.92 0 0 1-.3-.92 2.4 2.4 0 0 1 0-.79c0-.57.62-1.1 1.73-1.57s2.07-.51 2.57 0a5.39 5.39 0 0 1 .71 1.3L21.19 12l6.89-3-2.28-5.34a7 7 0 0 1-.35-.92A2.16 2.16 0 0 1 25.4 2zM46.57 20.16l5.85 20.6a4.34 4.34 0 0 1 .28 1.84c-.15.82-.93 1.44-2.36 1.86a4.37 4.37 0 0 1-1.93.26 1.82 1.82 0 0 1-1-.49 2 2 0 0 1-.5-.76c-.09-.25-.2-.62-.35-1.11l-1.13-4L36 36.72l-2.42 3.36c-.31.42-.54.72-.7.9a2.57 2.57 0 0 1-.72.52 1.75 1.75 0 0 1-1.15.13 4.46 4.46 0 0 1-1.72-.89c-1.2-.87-1.73-1.71-1.59-2.53a4.47 4.47 0 0 1 .88-1.63l12.51-17.42a3.16 3.16 0 0 1 3.06-1.25 2.92 2.92 0 0 1 2.42 2.25zm-4.19 7.68l-3.07 4.27 4.53.79zM73.77 24.05a1.53 1.53 0 0 1 1-.55 5.47 5.47 0 0 1 1.67.08A5.72 5.72 0 0 1 78 24a2.71 2.71 0 0 1 .81.56 1.59 1.59 0 0 1 .36.76 7.08 7.08 0 0 1-.14 1.8L75.74 46a9.12 9.12 0 0 1-.26 1.17 2.57 2.57 0 0 1-.48.85c-.42.55-1.36.7-2.81.45s-2.45-.86-2.57-1.75a5.7 5.7 0 0 1 .1-1.81L70.94 38l-9-1.58-1.24 6.99a11.58 11.58 0 0 1-.26 1.16 2.77 2.77 0 0 1-.48.85q-.65.82-2.82.45c-1.59-.28-2.44-.86-2.57-1.75a5.7 5.7 0 0 1 .11-1.8L58 23.42a9.3 9.3 0 0 1 .26-1.16 2.77 2.77 0 0 1 .48-.85c.43-.55 1.36-.71 2.82-.45s2.45.86 2.6 1.75a6.64 6.64 0 0 1-.14 1.8l-1.22 7 9 1.58 1.23-7a9.69 9.69 0 0 1 .25-1.16 2.77 2.77 0 0 1 .49-.88zM21.17 57.76l13 18.15a4.72 4.72 0 0 1 .92 1.7c.14.85-.41 1.74-1.67 2.66a4.7 4.7 0 0 1-1.79.93 1.86 1.86 0 0 1-1.19-.13 2.16 2.16 0 0 1-.75-.56c-.17-.21-.42-.54-.74-1L26.42 76l-9.82 1.71-1.19 4.15c-.15.51-.28.88-.37 1.12a2.48 2.48 0 0 1-.53.77 1.85 1.85 0 0 1-1.07.53 4.78 4.78 0 0 1-2-.28C10 83.57 9.14 82.93 9 82.08a4.72 4.72 0 0 1 .29-1.91l6.17-21.47A3.31 3.31 0 0 1 18 56.4a3 3 0 0 1 3.17 1.36zm-1.41 9L18.25 72l4.72-.8zM49.22 52a1.53 1.53 0 0 1 .83-.91 5.83 5.83 0 0 1 1.66-.51 6.35 6.35 0 0 1 1.66-.1 2.81 2.81 0 0 1 1 .27 1.67 1.67 0 0 1 .62.62 7.42 7.42 0 0 1 .49 1.82l3.38 19.68a10.41 10.41 0 0 1 .14 1.27 2.86 2.86 0 0 1-.17 1c-.22.7-1.09 1.17-2.61 1.43s-2.69 0-3.13-.81a6 6 0 0 1-.52-1.76l-1.23-7.2-9.4 1.61 1.24 7.24a10.91 10.91 0 0 1 .16 1.23 2.9 2.9 0 0 1-.18 1c-.22.69-1.09 1.17-2.6 1.43-1.66.28-2.7 0-3.13-.81a6 6 0 0 1-.53-1.81L33.52 57c-.09-.55-.14-1-.16-1.24a2.85 2.85 0 0 1 .18-1c.22-.7 1.09-1.18 2.6-1.44s2.71 0 3.17.81a7 7 0 0 1 .49 1.82l1.25 7.23 9.39-1.61-1.24-7.3A9.37 9.37 0 0 1 49 53a2.87 2.87 0 0 1 .22-1zM65.7 65.16a7.15 7.15 0 0 1-1.77.49 7.05 7.05 0 0 1-1.84.13 1.48 1.48 0 0 1-1.09-.47 2.36 2.36 0 0 1-.46-.76 7.22 7.22 0 0 1-.24-1.09l-1.89-11.25a8.34 8.34 0 0 1-.14-1.12 2.16 2.16 0 0 1 .2-.89 1.53 1.53 0 0 1 .84-.82 6.75 6.75 0 0 1 1.78-.51 7 7 0 0 1 1.84-.12 1.52 1.52 0 0 1 1 .52 2.72 2.72 0 0 1 .47.79 8.28 8.28 0 0 1 .24 1.11l1.93 11.24a8.63 8.63 0 0 1 .14 1.11 2.44 2.44 0 0 1-.2.86 1.55 1.55 0 0 1-.81.78zm-4 5a1.92 1.92 0 0 1 .88-1.16 7.86 7.86 0 0 1 2.23-.63 3.15 3.15 0 0 1 2.35.29 2.91 2.91 0 0 1 1.06 2l.09.56c.1.57.15 1 .17 1.27a3.33 3.33 0 0 1-.17 1c-.26.76-1.11 1.25-2.54 1.5a4.14 4.14 0 0 1-3-.21 3.89 3.89 0 0 1-1.15-2.56 4.69 4.69 0 0 1 .04-2.11z" class="cls-1"/>
</svg>
