<svg id="Layer_1" data-name="Layer 1" xmlns="http://www.w3.org/2000/svg" viewBox="0 0 46.72 44.71"><defs><style>.cls-1{fill:#e18326}.cls-4{fill:#e7ba24}</style></defs><path class="cls-1" d="M15.86 18.73s-1.33-2.53.65-2.75a10.28 10.28 0 0 1 4.42.55c1.21.33 2.86-.75 4.29-1.2A2.42 2.42 0 0 1 28.31 17c.33 1.26-5.29 2.36-5.29 2.36z" id="Layer_2" data-name="Layer 2"/><path d="M19.5 42.08c-2 .84-5.84 2.75-8.81 2.2s-4.81-.57-6.14.1-6.38.33-3.85-1.15S3.75 39.11 6.5 37s4.08-6.17 5.18-8.37 2.85-10.25 3.4-12.12 3.43 1.24 4.42 1.49 5.06-.42 6.82-2.21c2-2 3.65 3.52 4.75 5s2.85 7.3 6.49 10.21c3 2.41 2.16 4 4.84 5.39 1.88 1 .84 3.18 2.6 3.51s2.76 2.65 0 2.65-5.93-1.28-8.57-1.61-4.4.63-7.53 1.84-5.98-2.13-9.4-.7z" fill="#775622"/><path d="M30.4 24.35c1.54 2.31 1.76 3.85 2.64 3.74a2.88 2.88 0 0 0 1.34-.95c-1.6-2.66-2.59-5.49-3.31-6.42-1.1-1.44-2.78-7-4.75-5-1.76 1.79-5.83 2.43-6.82 2.21s-3.87-3.31-4.42-1.44c-.35 1.19-1.18 4.87-2 8a13 13 0 0 1 .83 4.6c.11 5.5 1.1 5.5 2.09 4.62s.44-5.84 1.87-7.93S19 27.65 19.39 29s1.43 1.2 1.87-.89.51-6.6 2.35-4.51.95 6.28 2.27 7.93 2-1.43 2.44-2.86.54-6.67 2.08-4.32z" fill="#ae782b"/><path class="cls-1" d="M17.21 8.78c1.28 2.72 1.68 5.23.89 5.6s-.05-2.46-3.26-5.6c-2.15-2.1-2.16-3.9-1.37-4.27s2.46 1.54 3.74 4.27zM25.7 9.16c-.92 2-1.06 3.87-.31 4.22s-.18-1.88 2.49-4c1.79-1.42 1.63-2.8.87-3.16s-2.12.96-3.05 2.94zM23.35 5c-1 4.27-1.78 6.94-2 5.31-.11-.86.86-2.08 0-6.48S22 0 22.87.05 24 2.06 23.35 5z"/><path class="cls-4" d="M19.23 3.78c0 1.28-.44 2.9-1 1.69-.25-.55-.13-.23-.71-1.69-.46-1.18.16-1.7.71-1.7s1 .41 1 1.7zM24.53 7c-.27.75-.43 1.77.06 1.15.22-.29.1-.12.66-.89.45-.61.29-1 .06-1.1s-.51.11-.78.84z"/></svg>