<svg xmlns="http://www.w3.org/2000/svg" viewBox="0 0 135.05 115.28"><defs><style>.cls-1{fill:#c4bca5}.cls-2{fill:#a8a18e}.cls-3{fill:#2d3f68}.cls-5{fill:#326094}</style></defs><g id="Layer_5_copy_2" data-name="Layer 5 copy 2"><path class="cls-1" d="M30.67 88.37A38 38 0 0 1 .05 73.09a.25.25 0 0 1 .34-.35c3.73 2.78 14.31 8.79 32.42 5a.24.24 0 0 1 .28.15l2 5.5a.2.2 0 0 1 0 .13l-.83 3.76a.23.23 0 0 1-.17.18l-3.35.94z"/><path class="cls-2" d="M35.05 83.36l-.7-2-.6 3.32a.21.21 0 0 1-.16.19L30.28 86A37.84 37.84 0 0 1 .31 73.41a37.94 37.94 0 0 0 30.36 15l3.35-.94a.23.23 0 0 0 .17-.18l.83-3.76a.2.2 0 0 0 .03-.17z"/></g><g id="Layer_5_copy" data-name="Layer 5 copy"><path class="cls-1" d="M75.12 47.8c-.71-.15-27.71-6-39.31-36.15a.23.23 0 0 1 .39-.22c3.56 5 16.56 19.68 46.57 21.53a.22.22 0 0 1 .21.2l.65 9.08a.27.27 0 0 1 0 .12l-2.82 5.32a.22.22 0 0 1-.2.12h-5.49z"/><path class="cls-2" d="M35.81 11.65c11.6 30.14 38.6 36 39.31 36.15h5.46a.22.22 0 0 0 .2-.12l1.83-3.45-4.18.37c-.72-.08-28.13-3.55-42.33-32.56z"/></g><g id="Layer_5" data-name="Layer 5"><path class="cls-1" d="M60.59 53c-.75-.16-27.64-6-39.26-36a.24.24 0 0 1 .41-.24c3.67 5.06 16.69 19.59 46.49 21.43a.24.24 0 0 1 .23.22l.64 9.06a.17.17 0 0 1 0 .12l-2.82 5.32a.24.24 0 0 1-.21.12h-5.48z"/><path class="cls-2" d="M63.48 49.88c-.8-.1-27.48-3.66-41.68-31.78 11.85 29 38.05 34.74 38.79 34.9h5.46a.24.24 0 0 0 .21-.12l1.79-3.38z"/></g><g id="Layer_3" data-name="Layer 3"><ellipse class="cls-3" cx="123.75" cy="7.66" rx="5.37" ry="6.51" transform="rotate(-19.24 123.79 7.66)"/><ellipse class="cls-3" cx="127.11" cy="20.04" rx="5.37" ry="6.51" transform="rotate(-11.56 127.066 20.048)"/><ellipse class="cls-3" cx="129.68" cy="32.63" rx="5.37" ry="6.51"/><ellipse class="cls-3" cx="128.18" cy="45.26" rx="6.51" ry="5.37" transform="rotate(-74.93 128.184 45.263)"/><ellipse class="cls-3" cx="124.32" cy="57.17" rx="6.51" ry="5.37" transform="rotate(-67.2 124.318 57.17)"/><ellipse class="cls-3" cx="118.65" cy="68.56" rx="6.51" ry="5.37" transform="rotate(-60 118.646 68.558)"/><ellipse class="cls-3" cx="111.47" cy="78.7" rx="6.51" ry="5.37" transform="rotate(-47.35 111.462 78.7)"/><ellipse class="cls-3" cx="102.19" cy="86.69" rx="6.51" ry="5.37" transform="rotate(-35.02 102.191 86.696)"/></g><g id="Layer_7" data-name="Layer 7"><path d="M16.49 99.47a2.91 2.91 0 0 0 4 3.57 74.33 74.33 0 0 1 10.24-4c8.14-2.42 17.81-.66 11 6.15a44.67 44.67 0 0 1-4.84 4.3 2.87 2.87 0 0 0 .54 4.88 9.37 9.37 0 0 0 3 .93c2.86.22 9-2.86 14.07-3.74s13.19-.87 18.46-3.51 29-18 37.36-27.47S134 45.38 128.53 25.6 122.37-6 113.8 3.18c-8 8.65-38.1 28.23-47.69 32.72a2.63 2.63 0 0 0-1.39 2.41c-.1 3.1 2.07 13-7.35 13.35-1 0-2-.77-3.61.23-2.82 1.73-14.44 8-22.82 19.64-1.91 2.65-3.49 4.75-4.72 6.65-.36.55-.15.8-.07 1.91a8.94 8.94 0 0 1-4 6.75c-.67.39-1.09.14-1.31.69-1.19 3.01-2.56 6.58-4.35 11.94z" fill="#467bbf"/><path class="cls-5" d="M128.53 25.6v-.05c1.41 18.65-10.67 40.33-17.8 49.11-8.19 10.07-32 27-37.35 29.91s-13.75 3.35-18.94 4.49S43 113.65 40 113.56a17 17 0 0 1-4-.64 2.86 2.86 0 0 0 1.39 1.42 9.37 9.37 0 0 0 3 .93c2.86.22 9-2.86 14.07-3.74s13.19-.87 18.46-3.51 29-18 37.36-27.47S134 45.38 128.53 25.6zM38.35 98c-5.84-1.79-17.25 3.37-20.52 4.94a2.84 2.84 0 0 0 2.65.1 74.33 74.33 0 0 1 10.24-4A24 24 0 0 1 38.35 98z"/></g><g id="Layer_4" data-name="Layer 4"><ellipse cx="63.52" cy="67.47" rx="10.67" ry="8.42" transform="rotate(-55.9 63.51 67.463)" fill="#fff"/><ellipse cx="59.71" cy="69.7" rx="5.98" ry="4.72" transform="rotate(-55.9 59.704 69.695)"/></g></svg>