<?xml version="1.0" encoding="UTF-8" standalone="no"?>
<svg
   xmlns:dc="http://purl.org/dc/elements/1.1/"
   xmlns:cc="http://creativecommons.org/ns#"
   xmlns:rdf="http://www.w3.org/1999/02/22-rdf-syntax-ns#"
   xmlns:svg="http://www.w3.org/2000/svg"
   xmlns="http://www.w3.org/2000/svg"
   xmlns:sodipodi="http://sodipodi.sourceforge.net/DTD/sodipodi-0.dtd"
   xmlns:inkscape="http://www.inkscape.org/namespaces/inkscape"
   width="64.640625"
   height="69.9375"
   viewBox="0 0 17.102832 18.504297"
   version="1.1"
   id="svg8"
   sodipodi:docname="clubs.svg"
   inkscape:version="1.0.1 (0767f8302a, 2020-10-17)">
  <defs
     id="defs2" />
  <sodipodi:namedview
     id="base"
     pagecolor="#ffffff"
     bordercolor="#666666"
     borderopacity="1.0"
     inkscape:pageopacity="0.0"
     inkscape:pageshadow="2"
     inkscape:zoom="1"
     inkscape:cx="190.28737"
     inkscape:cy="24.588416"
     inkscape:document-units="mm"
     inkscape:current-layer="layer1"
     inkscape:document-rotation="0"
     showgrid="false"
     units="px"
     fit-margin-top="0"
     fit-margin-left="0"
     fit-margin-right="0"
     fit-margin-bottom="0"
     inkscape:window-width="1920"
     inkscape:window-height="1136"
     inkscape:window-x="0"
     inkscape:window-y="27"
     inkscape:window-maximized="1" />
  <metadata
     id="metadata5">
    <rdf:RDF>
      <cc:Work
         rdf:about="">
        <dc:format>image/svg+xml</dc:format>
        <dc:type
           rdf:resource="http://purl.org/dc/dcmitype/StillImage" />
        <dc:title></dc:title>
      </cc:Work>
    </rdf:RDF>
  </metadata>
  <g
     inkscape:label="Layer 1"
     inkscape:groupmode="layer"
     id="layer1">
    <g
       aria-label="♣"
       id="text839"
       style="font-style:normal;font-weight:normal;font-size:25.4px;line-height:1.25;font-family:sans-serif;fill:#000000;fill-opacity:1;stroke:none;stroke-width:0.264583">
      <path
         d="m 8.5700195,6.5937638e-7 q 2.6541015,0 3.9067385,2.81533194062362 0.16123,0.6449219 0.198437,1.3394532 0,1.4510742 -1.488281,3.4354491 l -0.744141,0.7441406 h 0.03721 q 0.917774,-0.3472656 1.959571,-0.3472656 h 0.235644 q 2.951758,0 4.142383,2.5052731 0.285254,0.818555 0.285254,1.562696 0,2.54248 -2.59209,3.832324 -0.496094,0.148828 -1.37666,0.223242 -3.001367,0 -4.2540039,-3.398242 h -0.037207 v 0.111621 q 0,4.254004 1.0169921,5.605859 v 0.07441 H 7.2801758 l -0.074414,-0.07441 q 1.0541992,-1.5875 1.0541992,-5.71748 v -0.03721 h -0.037207 q -1.2402344,3.435449 -4.2788085,3.435449 -2.3688477,0 -3.63388671,-2.492871 Q 1.0058284e-7,12.774415 1.0058284e-7,12.055079 1.0058284e-7,9.1653326 3.0509766,8.135938 3.8695313,7.9871099 4.5020508,7.9871099 h 0.1116211 q 1.0666016,0 2.0339844,0.3472656 h 0.037207 V 8.2971685 Q 5.6430664,7.4166021 5.2833985,6.5608404 4.5392578,5.1965826 4.5392578,4.1919928 V 4.01836 q 0,-2.4928711 2.6665039,-3.78271481 Q 8.0863281,6.5937638e-7 8.5700195,6.5937638e-7 Z"
         style="font-style:normal;font-variant:normal;font-weight:normal;font-stretch:normal;font-size:25.4px;font-family:'DejaVu Sans';-inkscape-font-specification:'DejaVu Sans';stroke-width:0.264583"
         id="path877" />
    </g>
  </g>
</svg>
