<?xml version="1.0" encoding="UTF-8" standalone="no"?> <svg width="50px" height="150px" viewbox="0 0 50 150" version="1.1" xmlns="http://www.w3.org/2000/svg" xmlns:xlink="http://www.w3.org/1999/xlink" xmlns:sketch="http://www.bohemiancoding.com/sketch/ns"><title>Untitled 2</title><desc>Created with Sketch.</desc><defs></defs><g id="Page-1" stroke="none" stroke-width="1" fill="none" fill-rule="evenodd" sketch:type="MSPage"><g id="pinto" sketch:type="MSLayerGroup" transform="translate(25.000000, 75.000000) rotate(-270.000000) translate(-25.000000, -75.000000) translate(-50.000000, 50.000000)"><g id="Page-1" sketch:type="MSShapeGroup"><g id="car"><path d="M42.1322601,49.8471039 L40.3792908,49.6804227 C40.3957108,49.4102655 40.4040404,49.1379237 40.4040404,48.8636364 C40.4040404,41.5416795 34.4684216,35.6060606 27.1464646,35.6060606 C20.3976929,35.6060606 14.8267016,40.6487375 13.9958311,47.1717506 L13.1313132,47.0895478 L-0.09617661,41.6538431 L-0.09617661,29.5454546 L48.4848485,24.5235559 L73.7373735,-0.0675702335 L112.552774,-0.0675702335 L149.914181,24.5235559 L149.914181,41.6538431 L134.343435,46.1489899 L133.089905,46.3217585 C131.904252,40.2158238 126.528339,35.6060606 120.075757,35.6060606 C112.7538,35.6060606 106.818182,41.5416795 106.818182,48.8636364 C106.818182,49.1944283 106.830297,49.5223906 106.854107,49.8471039 L42.1322601,49.8471039 L42.1322601,49.8471039 Z" id="car-2" fill="#B3E7AC"></path><path d="M55.5925465,22.3815301 L98.2357755,22.5571141 L96.1415915,1.98518387 L73.987433,2.17260496 L55.5925465,22.3815301 L55.5925465,22.3815301 Z" id="Path" fill-opacity="1" fill="#666666"></path><path d="M100.373856,22.5240688 L125.697403,21.2944878 L109.090909,1.76767677 L97.6044625,1.76767677 L100.373856,22.5240688 L100.373856,22.5240688 Z" id="Path" fill-opacity="1" fill="#666666"></path></g></g></g></g></svg>