<svg viewBox="0 0 22 22" xmlns="http://www.w3.org/2000/svg"><path d="m18.921 9.63a.327.327 0 0 0 -.218-.13l-1.907-.292a6.284 6.284 0 0 0 -.427-1.02c.125-.174.312-.419.562-.735s.427-.547.532-.693a.401.401 0 0 0 .083-.24.336.336 0 0 0 -.073-.228c-.25-.355-.823-.945-1.719-1.771a.402.402 0 0 0 -.26-.104.338.338 0 0 0 -.25.093l-1.48 1.115a6.514 6.514 0 0 0 -.937-.386l-.291-1.917a.309.309 0 0 0 -.12-.224.393.393 0 0 0 -.256-.088h-2.313c-.2 0-.326.097-.375.291-.09.347-.19.993-.302 1.937a5.982 5.982 0 0 0 -.948.396l-1.437-1.114a.443.443 0 0 0 -.271-.104c-.153 0-.48.248-.984.744-.504.497-.846.87-1.027 1.12a.439.439 0 0 0 -.094.24c0 .083.035.166.104.25.466.562.837 1.041 1.115 1.437a5.14 5.14 0 0 0 -.406.959l-1.937.291a.314.314 0 0 0 -.198.136.401.401 0 0 0 -.084.24v2.312c0 .09.028.172.084.245a.327.327 0 0 0 .218.13l1.907.282c.097.34.24.684.427 1.03a21.98 21.98 0 0 1 -.563.735c-.25.316-.427.547-.53.692a.402.402 0 0 0 -.011.48c.27.375.843.958 1.719 1.75a.359.359 0 0 0 .26.114.375.375 0 0 0 .26-.093l1.47-1.115c.284.146.597.274.937.386l.292 1.917a.31.31 0 0 0 .12.224.39.39 0 0 0 .255.088h2.313c.201 0 .326-.097.375-.292.09-.347.19-.993.302-1.937a5.92 5.92 0 0 0 .948-.396l1.437 1.126a.51.51 0 0 0 .271.093c.153 0 .48-.246.98-.74.5-.492.843-.868 1.03-1.125a.347.347 0 0 0 .094-.239.402.402 0 0 0 -.105-.26c-.5-.612-.871-1.09-1.114-1.438a6.68 6.68 0 0 0 .406-.948l1.927-.291a.318.318 0 0 0 .208-.136.402.402 0 0 0 .083-.24v-2.313a.393.393 0 0 0 -.083-.244m-6.031 3.265a2.57 2.57 0 0 1 -1.886.782 2.57 2.57 0 0 1 -1.885-.782 2.57 2.57 0 0 1 -.781-1.885c0-.736.26-1.365.78-1.886a2.57 2.57 0 0 1 1.886-.781c.737 0 1.365.26 1.886.781.52.521.781 1.15.781 1.886a2.57 2.57 0 0 1 -.781 1.885" fill="#fff"/></svg>