<?xml version="1.0" encoding="utf-8"?>
<!-- Generator: Adobe Illustrator 16.0.0, SVG Export Plug-In . SVG Version: 6.00 Build 0)  -->
<!DOCTYPE svg PUBLIC "-//W3C//DTD SVG 1.1//EN" "http://www.w3.org/Graphics/SVG/1.1/DTD/svg11.dtd">
<svg version="1.1" id="Layer_1" xmlns="http://www.w3.org/2000/svg" xmlns:xlink="http://www.w3.org/1999/xlink" x="0px" y="0px"
	 width="750px" height="500px" viewBox="0 0 750 500" enable-background="new 0 0 750 500" xml:space="preserve">
<g>
	
		<radialGradient id="SVGID_1_" cx="636.4307" cy="-110.0723" r="757.4456" gradientTransform="matrix(1.5 0 0 -1 -552.5254 501)" gradientUnits="userSpaceOnUse">
		<stop  offset="0.2354" style="stop-color:#F8DE6C"/>
		<stop  offset="0.3023" style="stop-color:#C6EEAE"/>
		<stop  offset="0.3603" style="stop-color:#A0FAE1"/>
		<stop  offset="0.3887" style="stop-color:#91FFF5"/>
		<stop  offset="0.4675" style="stop-color:#87F5F0"/>
		<stop  offset="0.6007" style="stop-color:#6EDBE2"/>
		<stop  offset="0.7643" style="stop-color:#46B2CC"/>
		<stop  offset="0.9677" style="stop-color:#1A6D8C"/>
	</radialGradient>
	<path fill="url(#SVGID_1_)" d="M749.992,464.785V1H-0.017v463.785C73.88,419.543,214.118,389,374.988,389
		C535.86,389,676.1,419.543,749.992,464.785z"/>
	
		<radialGradient id="SVGID_2_" cx="636.4307" cy="-112.0723" r="757.4456" gradientTransform="matrix(1.5 0 0 -1 -552.5254 501)" gradientUnits="userSpaceOnUse">
		<stop  offset="0" style="stop-color:#F8DE6C"/>
		<stop  offset="0.023" style="stop-color:#C6EEAE"/>
		<stop  offset="0.1041" style="stop-color:#A0FAE1"/>
		<stop  offset="0.1172" style="stop-color:#91FFF5"/>
		<stop  offset="0.1882" style="stop-color:#87F6EC"/>
		<stop  offset="0.25" style="stop-color:#42B7AF"/>
		<stop  offset="0.6798" style="stop-color:#1A938C"/>
		<stop  offset="0.9452" style="stop-color:#6DDED5"/>
	</radialGradient>
	<path fill="url(#SVGID_2_)" d="M749.992,466.785V3H-0.017v463.785C73.88,421.543,214.118,391,374.988,391
		C535.86,391,676.1,421.543,749.992,466.785z"/>
	<polygon opacity="0.15" fill="#FFFFFF" enable-background="new    " points="397.535,423.016 312.24,445 -0.017,464.785 
		-0.017,416.994 347.987,419.334 0.004,373.324 -0.017,319.375 349.227,412.076 0.004,276 0.004,188.833 356.689,402.232 
		-0.017,149.795 -0.017,121.778 363.432,397.871 -0.017,54 -0.017,1 38.486,1 372.788,394.367 88.484,1 252.987,1 383.148,392.584 
		345.135,1 431.476,1 395.051,392.584 531.192,1 564.178,1 401.641,394.477 669.18,1 749.992,1 749.992,116 410.388,397.76 
		750.014,155.872 749.992,201.549 421.155,405.982 750.014,254.5 749.992,312 426.057,417.666 749.992,369.834 749.992,435.125 
		418.768,433.736 	"/>
	<path fill="#AAD663" d="M594.957,425.791c0,0-0.818,4.402,1.043,6.709c1.859,2.305,9,3.416,10.207,0
		c1.209-3.418-0.957-7.5-3.207-8.625S596.416,422.166,594.957,425.791z"/>
	<path fill="#AAD663" d="M455.791,349.25c-4.551-0.273-13.584,0.582-16.084,8.582s8.084,12.752,15.668,12.834
		c7.582,0.084,13.666-2,13.916-7.334C469.541,358,467.592,349.959,455.791,349.25z"/>
	<path fill="#7ABD8F" d="M480.612,384.475c0,0-6.563-2.563-7.813-5.188s3.438-7.563,7.5-7.813c4.063-0.25,10.313,3.375,10.313,7.5
		S485.55,385.162,480.612,384.475z"/>
	<path fill="#7ABD8F" d="M610.521,368.229c0,0-5.789-3.748-15.6-1.769c-9.81,1.979-12.142,15.106-6.288,22.988
		c5.854,7.879,27.54,8.446,31.729-1.733C623.299,380.575,616.101,370.173,610.521,368.229z"/>
	<path fill="#A36454" d="M585.861,412.619c0,0,15.953-18.633,7.049-30.501l0.558-2.32c0,0,2.4,3.922,3.212,8.354
		c0,0,2.246-4.014,0.958-9.359l1.216-0.293c0,0,1.003,5.761-0.841,10.919l3.521-5.136l0.186-4.031l0.729-0.176l0.85,3.523
		l3.901-2.482l0.438,1.822l-4.174,2.42c0,0-1.71,1.44-3.5,5.217c0,0,3.489-3.842,8.377-4.721l-0.362,1.16
		c0,0-12.829,4.119-11.364,26.997L585.861,412.619z"/>
	<path fill="#BF8F80" d="M591.582,439.5c0,0,5.5-2.688,6-10.063h1.063c0,0,0.063,0.625-0.625,2.625c0,0,1.47-2.031,4.75-2.234v0.547
		c0,0-2.125,0.25-3.875,2.125c0,0,1-0.5,2.375-0.375l-0.172,0.859c0,0-5.078,1.141-6.641,7.828L591.582,439.5z"/>
	<path fill="#BF8F80" d="M444.875,394.666c0,0,5.5-5,6-18s-6.418-14.75-6.418-14.75l0.584-1c0,0,2.584-0.416,5.166,3.5
		c0,0,0.418-3.084-1.582-5.584l0.916-0.5c0,0,2.5,2.918,2.834,9.084c0,0,1.416-2.582,2.25-5l-1.75-3.334l0.916-0.25l1.5,3.084
		l3.5-2.166l0.584,1.166l-3.418,1.75l-1.666,4.834c0,0,2.084-2.584,5.084-3.5v0.916c0,0-10.002,8.418-6.334,30.334L444.875,394.666z
		"/>
	<path fill="#A36454" d="M480.612,395.225v-0.313c-1.75-10.813,4.063-12.5,4.063-12.5l-0.5-1.125l-2.438,1.313l1.875-3.438l-3,2.75
		l-0.996-4.438v4.625l-1.533-2.563l-1.096,0.438c0,0,3.125,2.875,2.563,7c-0.562,4.125-3,6.75-3,6.75L480.612,395.225z"/>
	<path fill="#BF8F80" d="M466.707,391.25"/>
	<path fill="#FFFFFF" d="M639.415,291.604h55l-6.334-3.5c0,0,1.668-5-2.332-8.168c-4-3.166-10,0-10,0s-3.502-8.332-10.168-6
		c-6.666,2.334-3.832,9.334-3.832,9.334s-3-4.078-6.5-0.705c-3.5,3.371-1.709,5.039-1.709,5.039L639.415,291.604z"/>
	<path fill="#FFFFFF" d="M543.927,133.004l-9.13-5.727c0,0,2.573-7.303-1.576-11.453c-4.15-4.15-9.296-3.236-9.296-3.236
		s-2.073-8.632-12.198-8.051c-10.127,0.582-11.453,6.971-11.453,6.971s-8.465-1.41-10.789,9.461c0,0-9.006-0.187-10.127,8.88
		l-13.029,3.154H543.927L543.927,133.004z"/>
	<path fill="#FFFFFF" d="M586.209,224.752c0,0,6.102-4.846,2.373-10.949c-3.404-5.575-8.541-3.301-8.541-3.301
		s0.354-8.479-8.916-7.583c-7.742,0.749-7,8.583-7,8.583s-3.5-1.038-6,2.314s-1.5,5.77-1.5,5.77s-1.75-0.584-1.5,2.25l-5.666,2.916
		H586.209z"/>
	<path fill="#FFFFFF" d="M157.851,156.632h51.752l-5.459-3.299c0,0,0.796-4.891-4.664-5.118c0,0,0.229-6.482-5.346-7.279
		c0,0,0.114-6.711-6.824-6.938s-6.938,6.028-6.938,6.028s-3.754-1.138-6.938,2.047c-3.185,3.185-1.364,6.597-1.364,6.597
		s-3.64-0.683-5.46,3.412L157.851,156.632z"/>
	<path fill="#FFFFFF" d="M108.018,336.131l18.059-3.59c0,0-0.924-3.283,1.744-5.645c2.668-2.359,6.156-0.615,6.156-0.615
		s-2.381-4.359,1.099-8.008c2.384-2.5,6.083-2.56,6.083-2.56s1.026-12.108,13.236-12.313s11.799,13.545,11.799,13.545
		s4.57-1.762,7.219,1.842c2.735,3.721,0.682,7.393,0.682,7.393s7.079-2.053,8.311,5.539l15.493,4.412H108.018L108.018,336.131z"/>
	<path fill="#FFFFFF" d="M128.975,458.5c0,0,65.785-69.5,204.482-79.668v-5.508c0,0-120.572,4.676-204.5,80.176L128.975,458.5z"/>
	<path fill="#FFFFFF" d="M128.975,447.488c0,0,65.785-78.066,204.482-89.488v-6.186c0,0-120.572,5.25-204.5,90.059L128.975,447.488z
		"/>
	<rect x="133.625" y="428.334" fill="#FFFFFF" width="3.332" height="43"/>
	<rect x="151.291" y="412.418" fill="#FFFFFF" width="3.334" height="43"/>
	<rect x="172.957" y="396.73" fill="#FFFFFF" width="3.334" height="43"/>
	<rect x="196.957" y="382.926" fill="#FFFFFF" width="3.334" height="43"/>
	<rect x="223.957" y="369.25" fill="#FFFFFF" width="3.334" height="47.73"/>
	<rect x="260.041" y="356.75" fill="#FFFFFF" width="3.333" height="47.676"/>
	<rect x="297.624" y="348.25" fill="#FFFFFF" width="3.333" height="50.15"/>
	<g>
		<polygon fill="#EF4A6B" points="499.269,401.036 504.567,346.807 517.843,331.773 550.002,317.691 575.537,347.255 
			577.179,362.249 560.28,413.14 		"/>
		<path fill="#CC0033" d="M504.039,373.271l-2.88,25.039c0,0,36.957,3.046,59.057,9.723l5.535-19.262
			C565.751,388.771,531.801,401.026,504.039,373.271z"/>
		<polygon fill="#FFD286" points="494.555,357.961 517.843,331.773 550.002,317.691 575.537,347.255 578.823,377.284 
			583.519,376.143 579.324,345.855 550.771,312.451 515.53,328.254 490.708,355.365 		"/>
		<polygon fill="#FFFAD7" points="535.335,347.212 536.436,333.134 554.362,336.076 550.114,350.121 		"/>
		<polygon fill="#4A3247" points="537.757,345.208 548.748,347.366 551.015,338.407 538.895,336.002 		"/>
		<polygon fill="#FFFAD7" points="517.532,402.854 522.048,360.234 557.775,367.266 547.574,408.494 545.762,407.809 
			553.449,369.234 524.363,362.999 519.847,404.217 		"/>
		<polygon fill="#FFFAD7" points="539.01,365.085 532.181,404.563 533.091,404.463 540.979,365.457 		"/>
		<polygon fill="#FFFAD7" points="540.174,367.305 544.082,407.619 545.762,407.809 541.061,366.201 		"/>
		<polygon fill="#FFFAD7" points="532.234,405.06 553.379,368.459 554.492,370.184 532.86,405.41 		"/>
		<polygon fill="#FFFAD7" points="517.554,402.641 538.283,364.578 539.506,365.784 518.646,402.521 		"/>
		<polygon fill="#FFFAD7" points="524.742,361.869 533.091,404.463 531.947,405.51 523.416,362.014 		"/>
		<polygon fill="#CC0033" points="506.195,347.509 518.987,333.408 549.434,319.766 574.109,347.621 575.593,361.166 
			573.996,366.118 572.998,360.443 571.111,348.955 549.162,325.327 520.957,335.33 		"/>
	</g>
	<path fill="#AAD663" d="M751.106,501v-36.215C677.104,419.543,536.658,389,375.551,389C214.445,389,74,419.543-0.004,464.785V501
		H751.106z"/>
	<g>
		<g>
			<path fill="#FFFAD7" d="M444.334,418.84c-2.307-0.172-4.66,0.264-4.75,1.461c-0.133,1.752,1.893,2.877,1.893,2.877l2.503,0.207
				l2.504,0.187c0,0,2.174-0.797,2.315-2.547C448.896,419.826,446.639,419.029,444.334,418.84z"/>
			<path fill="#FFFAD7" d="M443.359,431.271c2.307,0.172,4.659-0.263,4.752-1.462c0.131-1.75-1.894-2.875-1.894-2.875l-2.502-0.207
				l-2.504-0.186c0,0-2.176,0.797-2.315,2.547C438.799,430.287,441.055,431.084,443.359,431.271z"/>
		</g>
		<g>
			<path fill="#FFFAD7" d="M453.643,425.824c0.104-1.463-0.754-3.004-2.641-3.148c-2.76-0.213-4.377,1-4.377,1l-0.141,1.586
				l-0.109,1.59c0,0,1.41,1.451,4.17,1.671C452.432,428.672,453.518,427.285,453.643,425.824z"/>
			<path fill="#FFFAD7" d="M434.053,424.289c-0.104,1.465,0.754,3.002,2.642,3.148c2.76,0.213,4.379-1.003,4.379-1.003l0.141-1.586
				l0.107-1.59c0,0-1.41-1.449-4.168-1.668C435.266,421.439,434.178,422.828,434.053,424.289z"/>
		</g>
		
			<ellipse transform="matrix(0.078 -0.9969 0.9969 0.078 -14.5442 834.3381)" fill="#FFDE17" cx="443.832" cy="425.033" rx="2.515" ry="3.963"/>
	</g>
	<g>
		<g>
			<path fill="#FFFAD7" d="M511.916,420.102c-1.445-0.35-2.988-0.319-3.17,0.433c-0.269,1.098,0.899,2.024,0.899,2.024l1.568,0.394
				l1.57,0.381c0,0,1.465-0.279,1.737-1.375C514.711,421.205,513.361,420.463,511.916,420.102z"/>
			<path fill="#FFFAD7" d="M509.996,427.896c1.447,0.352,2.988,0.321,3.172-0.433c0.266-1.096-0.902-2.022-0.902-2.022l-1.565-0.394
				l-1.572-0.381c0,0-1.465,0.279-1.736,1.375C507.203,426.793,508.553,427.535,509.996,427.896z"/>
		</g>
		<g>
			<path fill="#FFFAD7" d="M517.1,425.512c0.22-0.918-0.164-1.985-1.35-2.274c-1.729-0.425-2.885,0.178-2.885,0.178l-0.256,0.992
				l-0.234,0.998c0,0,0.744,1.069,2.473,1.498C516.031,427.195,516.865,426.428,517.1,425.512z"/>
			<path fill="#FFFAD7" d="M504.814,422.486c-0.22,0.92,0.163,1.985,1.35,2.276c1.729,0.425,2.885-0.178,2.885-0.178l0.256-0.994
				l0.234-0.998c0,0-0.744-1.067-2.473-1.496C505.885,420.805,505.049,421.572,504.814,422.486z"/>
		</g>
		
			<ellipse transform="matrix(0.2393 -0.9709 0.9709 0.2393 -23.0182 818.5844)" fill="#FFDE17" cx="510.929" cy="423.983" rx="1.62" ry="2.551"/>
	</g>
	<g>
		<g>
			<path fill="#FFFAD7" d="M250.814,422.844c-2.286,0.347-4.484,1.293-4.305,2.48c0.26,1.735,2.483,2.385,2.483,2.385l2.485-0.355
				l2.482-0.377c0,0,1.943-1.26,1.693-2.998C255.482,422.791,253.104,422.516,250.814,422.844z"/>
			<path fill="#FFFAD7" d="M252.631,435.18c2.286-0.344,4.484-1.291,4.307-2.479c-0.262-1.734-2.484-2.383-2.484-2.383l-2.486,0.354
				l-2.482,0.377c0,0-1.942,1.26-1.691,2.996C247.965,435.234,250.342,435.51,252.631,435.18z"/>
		</g>
		<g>
			<path fill="#FFFAD7" d="M261.444,427.582c-0.226-1.449-1.403-2.76-3.275-2.482c-2.737,0.406-4.046,1.949-4.046,1.949l0.216,1.578
				l0.249,1.574c0,0,1.696,1.1,4.436,0.701C260.896,430.629,261.646,429.035,261.444,427.582z"/>
			<path fill="#FFFAD7" d="M242.002,430.443c0.227,1.448,1.403,2.76,3.276,2.481c2.737-0.408,4.046-1.951,4.046-1.951l-0.216-1.577
				l-0.249-1.572c0,0-1.697-1.103-4.436-0.701C242.552,427.396,241.801,428.99,242.002,430.443z"/>
		</g>
		
			<ellipse transform="matrix(-0.1456 -0.9893 0.9893 -0.1456 -136.0837 740.4839)" fill="#FFDE17" cx="251.702" cy="429.003" rx="2.514" ry="3.963"/>
	</g>
	<g>
		<g>
			<path fill="#FFFAD7" d="M188.48,469.965c-1.399,0.49-2.67,1.351-2.416,2.076c0.373,1.063,1.85,1.205,1.85,1.205l1.523-0.521
				l1.519-0.534c0,0,1.073-1.025,0.708-2.091C191.414,469.371,189.883,469.482,188.48,469.965z"/>
			<path fill="#FFFAD7" d="M191.1,477.518c1.399-0.491,2.67-1.352,2.416-2.077c-0.372-1.063-1.85-1.203-1.85-1.203l-1.523,0.52
				l-1.519,0.535c0,0-1.073,1.025-0.707,2.09C188.168,478.109,189.697,477.998,191.1,477.518z"/>
		</g>
		<g>
			<path fill="#FFFAD7" d="M195.742,471.676c-0.315-0.887-1.214-1.569-2.359-1.172c-1.676,0.584-2.315,1.713-2.315,1.713
				l0.325,0.969l0.344,0.959c0,0,1.201,0.492,2.879-0.088C195.762,473.66,196.043,472.568,195.742,471.676z"/>
			<path fill="#FFFAD7" d="M183.839,475.805c0.315,0.888,1.214,1.57,2.36,1.172c1.676-0.584,2.314-1.713,2.314-1.713l-0.324-0.969
				l-0.346-0.961c0,0-1.2-0.49-2.877,0.09C183.82,473.82,183.537,474.912,183.839,475.805z"/>
		</g>
		
			<ellipse transform="matrix(-0.3279 -0.9447 0.9447 -0.3279 -195.5505 808.351)" fill="#FFDE17" cx="189.762" cy="473.734" rx="1.613" ry="2.541"/>
	</g>
	<g>
		<g>
			<path fill="#FFDE17" d="M397.752,443.703c-3.012-0.197-6.08,0.402-6.182,1.967c-0.15,2.287,2.506,3.73,2.506,3.73l3.268,0.237
				l3.271,0.211c0,0,2.826-1.065,2.992-3.354C403.719,444.932,400.762,443.92,397.752,443.703z"/>
			<path fill="#FFDE17" d="M396.637,459.939c3.013,0.196,6.078-0.398,6.181-1.966c0.151-2.286-2.505-3.729-2.505-3.729l-3.27-0.238
				l-3.27-0.211c0,0-2.828,1.064-2.992,3.353C390.67,458.713,393.625,459.725,396.637,459.939z"/>
		</g>
		<g>
			<path fill="#FFDE17" d="M409.99,452.701c0.115-1.91-1.021-3.91-3.486-4.074c-3.604-0.246-5.701,1.359-5.701,1.359l-0.164,2.071
				l-0.123,2.076c0,0,1.859,1.875,5.464,2.127C408.443,456.436,409.842,454.611,409.99,452.701z"/>
			<path fill="#FFDE17" d="M384.398,450.943c-0.115,1.912,1.021,3.909,3.487,4.075c3.604,0.244,5.701-1.36,5.701-1.36l0.164-2.072
				l0.121-2.076c0,0-1.859-1.877-5.463-2.127C385.947,447.209,384.545,449.035,384.398,450.943z"/>
		</g>
		
			<ellipse transform="matrix(0.0684 -0.9977 0.9977 0.0684 -80.7203 817.1214)" fill="#FFFAD7" cx="397.19" cy="451.785" rx="3.282" ry="5.171"/>
	</g>
	<g>
		<g>
			<path fill="#FFDE17" d="M325.447,424.744c-2.313,0.008-4.625,0.625-4.621,1.826c0.004,1.756,2.108,2.721,2.108,2.721l2.513,0.01
				l2.51-0.01c0,0,2.105-0.965,2.111-2.721C330.072,425.369,327.76,424.752,325.447,424.744z"/>
			<path fill="#FFDE17" d="M325.447,437.213c2.313-0.008,4.625-0.625,4.621-1.828c-0.007-1.754-2.111-2.719-2.111-2.719l-2.51-0.01
				l-2.513,0.01c0,0-2.104,0.965-2.108,2.719C320.822,436.586,323.135,437.205,325.447,437.213z"/>
		</g>
		<g>
			<path fill="#FFDE17" d="M335.273,430.979c-0.013-1.467-0.986-2.936-2.88-2.932c-2.768,0.002-4.286,1.338-4.286,1.338
				l-0.017,1.594l0.017,1.595c0,0,1.52,1.334,4.286,1.338C334.287,433.912,335.262,432.445,335.273,430.979z"/>
			<path fill="#FFDE17" d="M315.621,430.979c0.014,1.468,0.986,2.935,2.881,2.933c2.766-0.004,4.285-1.338,4.285-1.338l0.018-1.595
				l-0.018-1.594c0,0-1.521-1.336-4.285-1.338C316.609,428.043,315.633,429.512,315.621,430.979z"/>
		</g>
		<ellipse fill="#FFFAD7" cx="325.447" cy="430.979" rx="3.963" ry="2.514"/>
	</g>
	<g>
		<g>
			<path fill="#FFDE17" d="M527.145,465.213c-2.271-0.432-4.659-0.266-4.885,0.914c-0.33,1.725,1.556,3.072,1.556,3.072l2.463,0.488
				l2.467,0.467c0,0,2.25-0.545,2.59-2.269C531.566,466.709,529.414,465.66,527.145,465.213z"/>
			<path fill="#FFDE17" d="M524.77,477.453c2.273,0.434,4.66,0.268,4.886-0.914c0.33-1.723-1.554-3.07-1.554-3.07l-2.463-0.487
				l-2.467-0.468c0,0-2.252,0.545-2.59,2.267C520.35,475.959,522.502,477.006,524.77,477.453z"/>
		</g>
		<g>
			<path fill="#FFDE17" d="M535.604,473.205c0.269-1.443-0.407-3.07-2.268-3.428c-2.717-0.523-4.463,0.5-4.463,0.5l-0.32,1.561
				l-0.287,1.566c0,0,1.238,1.6,3.953,2.131C534.076,475.896,535.313,474.643,535.604,473.205z"/>
			<path fill="#FFDE17" d="M516.313,469.463c-0.268,1.443,0.408,3.068,2.269,3.428c2.717,0.521,4.463-0.498,4.463-0.498l0.32-1.563
				l0.285-1.566c0,0-1.236-1.602-3.951-2.131C517.84,466.77,516.604,468.025,516.313,469.463z"/>
		</g>
		
			<ellipse transform="matrix(0.1904 -0.9817 0.9817 0.1904 -36.9045 897.952)" fill="#FFFAD7" cx="525.949" cy="471.35" rx="2.516" ry="3.963"/>
	</g>
	<g opacity="0.5">
		<path fill="#FFFFFF" d="M409.11,390.949v4.424c0,0,8.158,0.381,14.374,3.113c202.324,6.899,323.095,68.133,323.095,68.133
			C639.528,403.434,468.88,392.74,409.11,390.949z"/>
		<path fill="#FFFFFF" d="M363.828,395.373v-4.578C103.84,395.076,6.987,468.797,6.987,468.797s95.335-64.69,343-70.529
			C356.122,395.738,363.828,395.373,363.828,395.373z"/>
	</g>
	<path fill="#F1F2F2" d="M475.626,132.212l7.083-1c0,0,1.667-6.667,8.25-7.417c0,0,2.175-10.073,11.75-7.666
		c0,0,1.334-6.917,9.834-6.834s9.833,7.5,9.833,7.5s8.756-0.427,8.417,10.334l6.583,4.916L475.626,132.212z"/>
	<path fill="#F1F2F2" d="M204.874,155.875h-42.188l4.938-1.938c0,0,2.563-4,6.375-3.563c0,0-1.813-4.375,2.25-6.563
		s5.25,0.5,5.25,0.5s-0.313-5.688,5.063-6.125c3.854-0.313,5.375,2.813,5.688,5.313c0,0,4.5-0.125,5.188,5.563
		c0,0,3.313,0.313,3.875,4.25L204.874,155.875z"/>
	<path fill="#F1F2F2" d="M119.625,335.225l8.416-1.5c0,0-0.75-3.418,1.334-4.75c2.082-1.334,6,1,6,1s-1.334-5.166,1.916-8.084
		c3.25-2.916,7.5-0.166,7.5-0.166s2.166-10.082,9.166-9.916s10.251,6.748,8.918,11.416c0,0,4.416-1.584,5.666,0.5
		s1.75,2.416,0.666,5.166c0,0,5.918-2.5,8.584,0.75s2.5,4.168,2.5,4.168l7.916,1.666L119.625,335.225z"/>
	<path fill="#F1F2F2" d="M647.165,290.997l8.063-2.375c0,0-1.063-2.375,0.938-4.188c2.001-1.813,4.75-1,5.938,1.5
		c0,0-1.188-6.438,3.313-8.25c4.501-1.812,9.625,3.5,9.625,6.813c0,0,4.438-3.875,8-2.375c3.562,1.5,3.125,4.25,2.875,6.625
		l4.438,2.063L647.165,290.997z"/>
	<path fill="#F1F2F2" d="M584.813,224.275c0.013-0.012,0.023-0.023,0.035-0.035c2.047-2.19,2.498-5.789,0.359-9.248
		c-2.15-3.477-6.988-0.143-6.988-0.143s-0.106-7.956-6.594-8.207s-5.627,9.497-5.627,9.497s-2.975-2.724-5.986-0.968
		c-3.01,1.756-2.147,5.877-2.147,5.877c-1.791,0.215-1.398,1.828-1.398,1.828l-2.617,1.184L584.813,224.275z"/>
	<path fill="#231F20" d="M608.054,387.682c0,0-5.18,3.049-6.827,6.531c0,0,11.904,2.446,17.608-5.188
		C618.835,389.025,612.541,392.428,608.054,387.682z"/>
	<path fill="#231F20" d="M594.275,385.646c0,0,1.379,3.588,0.727,7.281c0,0-7.533-1.912-8.611-10.652
		C586.391,382.275,589.976,386.747,594.275,385.646z"/>
	<path fill="#231F20" d="M461.02,364.5c0,0-3.125,1.875-4.375,5.188c0,0,9.625,1.188,12.125-5.375
		C468.77,364.313,463.582,366.563,461.02,364.5z"/>
	<path fill="#231F20" d="M445.645,363.125c0,0,3.313,2.375,4,6.063c0,0-7.813-1.875-9.313-7.25
		C440.332,361.938,442.895,364.438,445.645,363.125z"/>
	<path fill="#231F20" d="M477.337,380.766c0,0,1.25,1.234,1.578,2.5c0,0-4.953-2.031-5.844-4.203
		C473.071,379.063,476.431,381.125,477.337,380.766z"/>
	<path fill="#231F20" d="M484.813,382.635c0,0-1.438,0.438-2.229,1.543c0,0,4.416,0.25,6.541-2.188
		C489.124,381.99,486.749,382.697,484.813,382.635z"/>
</g>
</svg>
