<?xml version="1.0" encoding="utf-8"?>
<!-- Generator: Adobe Illustrator 16.0.0, SVG Export Plug-In . SVG Version: 6.00 Build 0)  -->
<!DOCTYPE svg PUBLIC "-//W3C//DTD SVG 1.1//EN" "http://www.w3.org/Graphics/SVG/1.1/DTD/svg11.dtd">
<svg version="1.1" id="Poster" xmlns="http://www.w3.org/2000/svg" xmlns:xlink="http://www.w3.org/1999/xlink" x="0px" y="0px"
	 width="246px" height="105px" viewBox="0 0 246 105" enable-background="new 0 0 246 105" xml:space="preserve">
<g>
	<g>
		<g>
			<g>
				<g id="XMLID_3_">
					<g>
						<path fill="#8E3C00" d="M190.768,96.386c-0.439,0.248-0.903,0.501-1.365,0.732c0,0-5.345,1.013-14.72,2.147
							c1.45-0.758,2.84-1.535,4.204-2.354C182.903,96.763,186.879,96.572,190.768,96.386z"/>
						<path fill="#C6710C" d="M242.835,3.801c0.734-0.298,1.472-0.549,2.268-0.631c-0.293,6.411-6.579,13.057-8.556,14.972
							c-0.359,0.355-0.571,0.547-0.571,0.547c-3.153,1.344-3.362,2.311-6.41-0.466c-3.114-2.837-1.032-3.235,1.493-6.16l0.021-0.021
							c2.587-2.883,5.678-5.238,9.17-6.961C241.111,4.661,241.951,4.176,242.835,3.801z"/>
						<path fill="#C6710C" d="M231.036,12.021c-1.618,0.838-3.216,1.659-4.858,2.48c-1.766,0.863-3.572,1.725-5.403,2.587
							c-1.157,0.547-2.333,1.071-3.532,1.6c-3.154,1.344-3.387,2.311-6.434-0.466c-3.092-2.837-1.03-3.235,1.513-6.16
							c1.725-1.935,3.724-3.659,5.91-5.089c0.039-0.041,0.084-0.063,0.148-0.083c0.733-0.424,1.492-0.883,2.27-1.347
							c0.273-0.169,0.568-0.314,0.863-0.463c3.469-1.744,7.315-2.818,11.25-3.05c3.405-0.146,6.875,0.275,10.072,1.77
							c-0.884,0.375-1.724,0.86-2.586,1.28c-3.492,1.723-6.583,4.078-9.17,6.961L231.036,12.021z"/>
						<path fill="#C6710C" d="M222.142,4.597c-0.501,0.318-1.007,0.633-1.492,0.947c-0.777,0.4-1.536,0.84-2.27,1.347
							c-0.064,0.02-0.109,0.042-0.148,0.083c-1.954,1.114-3.785,2.103-5.595,3.068c-2.966,1.558-5.78,3.03-8.662,4.46
							c-2.88,1.409-5.824,2.817-8.937,4.187c-3.153,1.344-3.386,2.311-6.436-0.466c-3.094-2.837-1.03-3.235,1.517-6.16
							c1.744-1.956,3.76-3.701,5.969-5.13c0.022-0.022,0.042-0.022,0.063-0.042c0.801-0.462,1.598-0.927,2.42-1.429
							c0.02-0.022,0.043-0.044,0.061-0.044c0.21-0.106,0.443-0.232,0.652-0.337c3.491-1.744,7.343-2.818,11.27-3.05
							C214.49,1.844,218.527,2.475,222.142,4.597z"/>
						<path fill="#C6710C" d="M199.938,4.597c-0.442,0.274-0.863,0.549-1.307,0.821c-0.018,0-0.041,0.021-0.061,0.044
							c-0.844,0.42-1.639,0.902-2.42,1.429c-0.021,0.02-0.041,0.02-0.063,0.042c-1.977,1.136-3.847,2.124-5.676,3.109
							c-2.942,1.558-5.762,3.03-8.643,4.46c-2.883,1.409-5.826,2.817-8.957,4.187c-3.135,1.344-3.365,2.311-6.419-0.466
							c-3.086-2.837-1.027-3.235,1.497-6.16c1.768-1.956,3.784-3.701,5.992-5.13c0.021-0.022,0.041-0.022,0.062-0.042
							c0.802-0.462,1.601-0.927,2.419-1.429c0.021-0.022,0.044-0.044,0.065-0.044c0.211-0.106,0.44-0.232,0.651-0.337
							c3.489-1.744,7.336-2.818,11.269-3.05C192.281,1.844,196.318,2.475,199.938,4.597z"/>
						<path fill="#C6710C" d="M147.557,19.99c-0.905,0.127-1.724-0.274-3.363-1.768c-3.113-2.837-1.031-3.235,1.493-6.16
							c1.762-1.956,3.786-3.701,5.99-5.13c0.022-0.022,0.043-0.022,0.064-0.042c0.776-0.462,1.579-0.927,2.418-1.429
							c0.02-0.022,0.043-0.044,0.063-0.044c0.206-0.106,0.441-0.232,0.653-0.337c3.488-1.744,7.336-2.818,11.271-3.05
							c3.932-0.188,7.966,0.443,11.586,2.565c-0.442,0.274-0.863,0.549-1.304,0.821c-0.021,0-0.044,0.021-0.065,0.044
							c-0.839,0.42-1.639,0.902-2.419,1.429c-0.021,0.02-0.041,0.02-0.062,0.042c-1.975,1.136-3.848,2.124-5.68,3.109
							c-2.942,1.558-5.759,3.03-8.643,4.46c-2.878,1.409-5.822,2.817-8.958,4.187C149.156,19.317,148.334,19.863,147.557,19.99z"/>
						<path fill="#C6710C" d="M155.505,4.597c-0.44,0.274-0.864,0.549-1.282,0.821c-0.021,0-0.044,0.021-0.063,0.044
							c-0.839,0.42-1.642,0.902-2.418,1.429c-0.021,0.02-0.042,0.02-0.064,0.042c-1.978,1.136-3.846,2.124-5.679,3.109
							c-2.94,1.558-5.76,3.03-8.638,4.46c-1.685,0.818-3.389,1.641-5.155,2.461c-1.241,0.588-2.502,1.154-3.805,1.726
							c-3.154,1.344-3.364,2.311-6.413-0.466c-3.113-2.837-1.031-3.235,1.491-6.16c1.768-1.956,3.785-3.701,5.995-5.13
							c0.021-0.022,0.042-0.022,0.062-0.042c0.776-0.462,1.576-0.927,2.421-1.429c0.02-0.022,0.04-0.044,0.063-0.044
							c0.209-0.106,0.439-0.232,0.65-0.337c3.493-1.744,7.34-2.818,11.27-3.05C147.869,1.844,151.91,2.475,155.505,4.597z"/>
						<path fill="#C6710C" d="M133.302,4.597c-0.445,0.274-0.864,0.549-1.283,0.821c-0.022,0-0.043,0.021-0.063,0.044
							c-0.845,0.42-1.645,0.902-2.421,1.429c-0.02,0.02-0.04,0.02-0.062,0.042c-1.979,1.136-3.851,2.124-5.678,3.109
							c-2.944,1.558-5.762,3.03-8.643,4.46c-2.902,1.409-5.825,2.817-8.958,4.187c-3.154,1.344-3.364,2.311-6.414-0.466
							c-3.112-2.837-1.03-3.235,1.495-6.16c1.765-1.956,3.784-3.701,5.992-5.13c0.022-0.022,0.043-0.022,0.063-0.042
							c0.78-0.462,1.578-0.927,2.417-1.429c0.021-0.022,0.045-0.044,0.064-0.044c0.21-0.106,0.442-0.232,0.651-0.337
							c3.491-1.744,7.34-2.818,11.272-3.05C125.663,1.844,129.703,2.475,133.302,4.597z"/>
						<path fill="#C6710C" d="M111.095,4.597c-0.44,0.274-0.862,0.549-1.283,0.821c-0.019,0-0.042,0.021-0.064,0.044
							c-0.84,0.42-1.638,0.902-2.417,1.429c-0.02,0.02-0.041,0.02-0.063,0.042c-1.976,1.136-3.848,2.124-5.677,3.109
							c-2.943,1.558-5.762,3.03-8.643,4.46c-2.903,1.409-5.825,2.817-8.959,4.187c-3.153,1.344-3.365,2.311-6.412-0.466
							c-3.113-2.837-1.033-3.235,1.493-6.16c1.766-1.956,3.785-3.701,5.993-5.13c0.021-0.022,0.041-0.022,0.063-0.042
							c0.778-0.462,1.578-0.927,2.418-1.429c0.022-0.022,0.042-0.044,0.064-0.044c0.209-0.106,0.441-0.232,0.651-0.337
							c3.471-1.744,7.339-2.818,11.273-3.05C103.46,1.844,107.499,2.475,111.095,4.597z"/>
						<path fill="#C6710C" d="M88.889,4.597c-0.441,0.274-0.863,0.549-1.282,0.821c-0.021,0-0.042,0.021-0.064,0.044
							c-0.84,0.42-1.64,0.902-2.418,1.429c-0.021,0.02-0.041,0.02-0.063,0.042c-1.977,1.136-3.849,2.124-5.677,3.109
							c-2.944,1.558-5.762,3.03-8.643,4.46c-2.902,1.409-5.824,2.817-8.959,4.187c-1.512,0.65-2.375,1.219-3.174,1.302
							c-0.862,0.104-1.662-0.336-3.239-1.768c-3.111-2.837-1.031-3.235,1.493-6.16c1.746-1.935,3.723-3.659,5.909-5.089
							c0.041-0.041,0.083-0.063,0.147-0.083c0.736-0.424,1.493-0.883,2.271-1.347c0.273-0.169,0.566-0.314,0.862-0.463
							c3.469-1.744,7.338-2.818,11.271-3.05C81.257,1.844,85.294,2.475,88.889,4.597z"/>
						<path fill="#C6710C" d="M45.594,4.597c-0.064-0.039-0.148-0.081-0.211-0.104l0.084-0.168c3.049-1.302,6.309-2.104,9.651-2.293
							c3.932-0.188,7.969,0.443,11.565,2.565c-0.505,0.318-1.009,0.633-1.493,0.947c-0.778,0.4-1.535,0.84-2.271,1.347
							c-0.063,0.02-0.106,0.042-0.147,0.083c-1.957,1.114-3.785,2.103-5.594,3.068c-2.944,1.558-5.763,3.03-8.663,4.46
							c-2.883,1.409-5.804,2.817-8.938,4.187c-3.154,1.344-3.364,2.311-6.413-0.466c-3.111-2.837-1.03-3.235,1.493-6.16
							c0.905-0.986,1.872-1.935,2.902-2.817C40.062,7.9,42.67,6.467,45.594,4.597z"/>
						<path fill="#C6710C" d="M12.788,12.902c0.233-0.251,0.485-0.522,0.759-0.84c2.586-2.88,5.721-5.259,9.188-6.981
							c1.053-0.523,2.145-0.988,3.261-1.386c2.566-0.928,5.276-1.494,8.011-1.664c3.848-0.188,7.821,0.424,11.376,2.461
							c0.063,0.023,0.147,0.065,0.211,0.104c-2.924,1.87-5.532,3.304-8.033,4.648c-0.505,0.273-1.009,0.527-1.494,0.797
							c-2.943,1.558-5.76,3.03-8.642,4.46c-2.881,1.409-5.824,2.817-8.958,4.187c-3.134,1.344-3.363,2.311-6.412-0.466
							C9.298,15.678,10.645,15.093,12.788,12.902z"/>
						<path fill="#C6710C" d="M25.996,3.695c-1.116,0.397-2.208,0.862-3.261,1.386c-3.467,1.723-6.602,4.102-9.188,6.981
							c-0.274,0.317-0.526,0.589-0.759,0.84c-1.072,0.527-2.122,1.056-3.195,1.6c-1.176,0.591-2.375,1.154-3.574,1.725
							c-1.242,0.589-2.481,1.178-3.765,1.747c-2.019-5.657-0.4-10.662,4.458-13.522c2.544-1.515,6.499-2.25,9.462-2.42
							C19.476,1.886,22.862,2.283,25.996,3.695z"/>
						<path fill="#8E3C00" d="M221.092,67.388c-3.198,5.046-6.919,9.904-11.231,14.383c-4.309,0.337-8.79,0.61-13.393,0.883
							c4.123-4.439,7.655-9.19,10.619-14.108C211.965,68.208,216.631,67.807,221.092,67.388z"/>
						<path fill="#8E3C00" d="M76.462,97.205c3.743,0.083,7.549,0.189,11.417,0.254c1.264,1.364,2.607,2.69,3.975,3.97
							c-23.467-1.534-38.209-4.311-38.209-4.311c-0.503-0.251-0.987-0.501-1.471-0.797c3.785,0.17,7.718,0.338,11.775,0.463
							c4.059,0.146,8.222,0.296,12.491,0.421H76.462z"/>
						<path fill="#8E3C00" d="M118.181,97.835c2.524,0.02,5.067,0.02,7.589,0.02c-0.21,1.493-0.106,3.386-0.272,4.503
							c-1.302,0.017-2.627,0.017-3.973,0.017c-6.097,0-11.923-0.123-17.412-0.312v-0.019c-1.304-1.348-2.522-2.802-3.7-4.355
							c3.027,0.042,6.077,0.083,9.146,0.105C112.418,97.816,115.28,97.835,118.181,97.835z"/>
						<path fill="#8E3C00" d="M155.107,97.564c3.782-0.066,7.527-0.151,11.246-0.235c-1.492,1.158-3.004,2.252-4.602,3.284
							c-8.432,0.753-18.507,1.389-29.796,1.638v-0.207c0.523-1.39,1.029-2.802,1.511-4.209c3.029-0.019,6.078-0.041,9.105-0.063
							C146.776,97.71,150.941,97.646,155.107,97.564z"/>
						<path fill="#8E3C00" d="M189.467,69.576c-2.669,4.856-5.723,9.505-9.147,13.832c-4.817,0.191-9.739,0.358-14.72,0.483
							c-4.962,0.149-10.012,0.255-15.077,0.318c-4.272,0.086-8.558,0.124-12.87,0.147c1.239-4.479,2.334-8.896,3.279-13.25v-0.206
							c4.961-0.046,9.925-0.106,14.85-0.213c5.78-0.105,11.498-0.254,17.113-0.423C178.529,70.056,184.081,69.847,189.467,69.576z"
							/>
						<path fill="#8E3C00" d="M105.375,84.314c-4.374-0.043-8.685-0.104-12.955-0.188c-1.997-4.334-3.742-8.896-5.255-13.543
							c4.877,0.105,9.84,0.19,14.887,0.255c4.457,0.063,8.959,0.102,13.499,0.124c4.374,0.021,8.811,0.021,13.247,0.021
							c-0.42,4.686-0.82,9.211-1.239,13.351v0.063c-3.639,0.024-7.276,0.024-10.892,0C112.883,84.378,109.097,84.357,105.375,84.314
							z"/>
						<path fill="#8E3C00" d="M70.384,70.142c2.06,4.69,4.437,9.271,7.128,13.646c-5.257-0.146-10.388-0.295-15.308-0.483
							L46.56,82.63c-4.71-0.231-9.147-0.481-13.268-0.754h-0.023c-4.267-4.438-7.968-9.254-11.144-14.26
							c4.143,0.338,8.769,0.674,13.859,0.993l16.884,0.883C58.419,69.743,64.286,69.953,70.384,70.142z"/>
						<path fill="#C6710C" d="M166.354,97.329c-3.719,0.084-7.464,0.169-11.246,0.235c3.906-4.166,7.399-8.753,10.492-13.673
							c4.98-0.125,9.902-0.292,14.72-0.483c5.508-0.207,10.913-0.461,16.148-0.755c4.603-0.272,9.084-0.546,13.393-0.883
							c-5.403,5.653-11.732,10.681-19.072,14.615h-0.021c-3.889,0.187-7.864,0.377-11.881,0.526
							C174.767,97.056,170.58,97.205,166.354,97.329z"/>
						<path fill="#C6710C" d="M137.652,84.357c4.313-0.023,8.598-0.062,12.87-0.147v0.022c-2.294,4.938-4.922,9.545-7.95,13.539
							c-3.027,0.022-6.076,0.045-9.105,0.063c-2.564,0.02-5.131,0.02-7.697,0.02c-2.521,0-5.064,0-7.589-0.02
							c-0.566-4.227-1.073-8.748-1.513-13.438c3.616,0.024,7.253,0.024,10.892,0C130.924,84.421,134.286,84.396,137.652,84.357z"/>
						<path fill="#C6710C" d="M87.879,97.459c-3.869-0.064-7.674-0.171-11.417-0.254h-0.021c-5.363-4.121-10.095-8.786-14.236-13.9
							c4.919,0.188,10.05,0.337,15.308,0.483c4.858,0.127,9.841,0.253,14.908,0.338c4.27,0.084,8.581,0.146,12.955,0.188
							c1.22,4.497,2.628,8.977,4.184,13.479c-3.069-0.022-6.119-0.063-9.146-0.105C96.185,97.628,92,97.564,87.879,97.459z"/>
						<path fill="#C6710C" d="M33.292,81.876c4.121,0.272,8.557,0.522,13.268,0.754c4.921,5.302,10.662,10.117,17.39,14.154
							c-4.058-0.125-7.99-0.293-11.775-0.463C44.92,92.433,38.654,87.469,33.292,81.876z"/>
						<path fill="#AF5B00" d="M125.497,102.357c0.166-1.117,0.063-3.01,0.272-4.503c2.566,0,5.133,0,7.697-0.02
							c-0.481,1.407-0.987,2.819-1.511,4.209v0.207C129.852,102.313,127.686,102.336,125.497,102.357z"/>
						<path fill="#8E3C00" d="M237.026,18.223c-0.039,2.166-0.229,4.542-0.544,7.065c-4.858,0.696-10.158,1.282-15.813,1.83
							c0.294-3.639,0.337-7.023,0.104-10.029c1.831-0.862,3.638-1.724,5.403-2.587c1.643-0.821,3.24-1.643,4.858-2.48l0.043,0.021
							l-0.021,0.021c-2.525,2.925-4.607,3.323-1.493,6.16c3.048,2.776,3.257,1.81,6.41,0.466c0,0,0.212-0.191,0.571-0.547
							L237.026,18.223z"/>
						<path fill="#AF5B00" d="M76.441,97.205c-4.269-0.125-8.432-0.275-12.491-0.421c-6.729-4.037-12.469-8.853-17.39-14.154
							l15.645,0.675C66.347,88.419,71.078,93.084,76.441,97.205z"/>
						<path fill="#AF5B00" d="M178.887,96.912c-1.364,0.818-2.754,1.596-4.204,2.354c-3.699,0.441-8.032,0.924-12.931,1.348
							c1.598-1.032,3.109-2.126,4.602-3.284C170.58,97.205,174.767,97.056,178.887,96.912z"/>
						<path fill="#C6710C" d="M236.482,25.288c-0.525,4.247-1.471,8.938-2.86,13.838c-4.709,0.609-9.775,1.155-15.158,1.641
							c-5.72,0.524-11.8,0.966-18.128,1.347v0.019c-5.971,0.357-12.199,0.672-18.566,0.925c1.008-4.521,1.807-9.041,2.419-13.541
							c6.517-0.275,12.806-0.609,18.859-1.009l17.622-1.389C226.324,26.57,231.624,25.984,236.482,25.288z"/>
						<path fill="#8E3C00" d="M233.622,39.126c-1.302,4.606-2.985,9.397-5.089,14.237l-0.332-0.149
							c-4.436,0.505-9.17,0.968-14.137,1.366c1.876-4.667,3.324-9.333,4.399-13.813C223.847,40.281,228.913,39.735,233.622,39.126z"
							/>
						<path fill="#C6710C" d="M195.9,55.798c6.328-0.332,12.406-0.735,18.164-1.218c4.967-0.398,9.701-0.861,14.137-1.366
							l0.332,0.149c-2.06,4.709-4.541,9.439-7.441,14.024c-4.461,0.419-9.127,0.82-14.005,1.157
							c-5.637,0.396-11.545,0.755-17.62,1.031c-5.386,0.271-10.938,0.479-16.572,0.689v-0.018c1.979-4.418,3.701-8.96,5.214-13.607
							C184.208,56.409,190.158,56.138,195.9,55.798z"/>
						<path fill="#AF5B00" d="M220.774,17.089c0.232,3.006,0.189,6.391-0.104,10.029l-17.622,1.389
							c0.696-4.922,0.989-9.631,0.927-14.005c2.882-1.43,5.696-2.902,8.662-4.46c1.81-0.966,3.641-1.954,5.595-3.068
							c-2.187,1.43-4.186,3.154-5.91,5.089c-2.543,2.925-4.604,3.323-1.513,6.16c3.047,2.776,3.279,1.81,6.434,0.466
							C218.441,18.16,219.617,17.636,220.774,17.089z"/>
						<path fill="#AF5B00" d="M218.464,40.767c-1.075,4.48-2.523,9.146-4.399,13.813c-5.758,0.482-11.836,0.886-18.164,1.218
							c1.786-4.539,3.259-9.145,4.436-13.666v-0.019C206.664,41.732,212.744,41.291,218.464,40.767z"/>
						<path fill="#8E3C00" d="M203.975,14.502c0.063,4.374-0.23,9.083-0.927,14.005c-6.054,0.399-12.343,0.733-18.859,1.009h-0.024
							l-19.891,0.675c-5.74,0.145-11.547,0.25-17.389,0.333c0.334-4.183,0.544-7.734,0.672-10.533
							c0.777-0.127,1.6-0.673,3.046-1.302c3.136-1.369,6.08-2.777,8.958-4.187c2.884-1.43,5.7-2.902,8.643-4.46
							c1.832-0.985,3.705-1.974,5.68-3.109c-2.208,1.429-4.225,3.174-5.992,5.13c-2.524,2.925-4.583,3.323-1.497,6.16
							c3.054,2.776,3.284,1.81,6.419,0.466c3.131-1.369,6.074-2.777,8.957-4.187c2.881-1.43,5.7-2.902,8.643-4.46
							c1.829-0.985,3.699-1.974,5.676-3.109c-2.209,1.429-4.225,3.174-5.969,5.13c-2.547,2.925-4.61,3.323-1.517,6.16
							c3.05,2.776,3.282,1.81,6.436,0.466C198.15,17.319,201.095,15.911,203.975,14.502z"/>
						<path fill="#AF5B00" d="M207.087,68.545c-2.964,4.918-6.496,9.669-10.619,14.108c-5.235,0.294-10.641,0.548-16.148,0.755
							c3.425-4.327,6.479-8.976,9.147-13.832C195.542,69.3,201.45,68.94,207.087,68.545z"/>
						<path fill="#8E3C00" d="M178.108,56.641c-6.076,0.212-12.277,0.4-18.565,0.526c-5.26,0.126-10.597,0.209-15.942,0.273v-0.189
							c0.76-4.647,1.389-9.106,1.916-13.268c5.632-0.063,11.249-0.168,16.781-0.293c6.626-0.171,13.121-0.381,19.472-0.634
							c6.367-0.253,12.596-0.567,18.566-0.925c-1.177,4.521-2.649,9.127-4.436,13.666C190.158,56.138,184.208,56.409,178.108,56.641
							z"/>
						<path fill="#AF5B00" d="M184.164,29.516h0.024c-0.612,4.5-1.411,9.021-2.419,13.541c-6.351,0.253-12.846,0.463-19.472,0.634
							v-0.023c0.859-4.965,1.513-9.566,1.976-13.477L184.164,29.516z"/>
						<path fill="#AF5B00" d="M178.108,56.641c-1.513,4.647-3.234,9.189-5.214,13.607v0.018c-5.615,0.169-11.333,0.317-17.113,0.423
							c1.449-4.479,2.688-9.044,3.762-13.521C165.831,57.041,172.032,56.853,178.108,56.641z"/>
						<path fill="#C6710C" d="M164.273,30.19c-0.463,3.91-1.116,8.512-1.976,13.477v0.023c-5.532,0.125-11.149,0.229-16.781,0.293
							c-4.881,0.061-9.779,0.104-14.657,0.104c-5.613,0.041-11.248,0.021-16.801-0.022c-0.208-4.919-0.378-9.464-0.503-13.436h0.02
							c5.993,0.042,12.047,0.064,18.105,0.021h0.02l15.185-0.127C152.727,30.44,158.533,30.335,164.273,30.19z"/>
						<path fill="#AF5B00" d="M165.6,83.892c-3.093,4.92-6.586,9.507-10.492,13.673c-4.166,0.081-8.331,0.146-12.535,0.207
							c3.028-3.994,5.656-8.601,7.95-13.539V84.21C155.588,84.146,160.638,84.041,165.6,83.892z"/>
						<path fill="#C6710C" d="M129.894,57.524c4.563,0,9.146-0.02,13.707-0.084c5.346-0.064,10.683-0.147,15.942-0.273
							c-1.073,4.478-2.313,9.042-3.762,13.521c-4.925,0.106-9.889,0.167-14.85,0.213c-4.035,0.038-8.095,0.061-12.133,0.082
							c-4.437,0-8.873,0-13.247-0.021c-0.336-4.521-0.609-9.045-0.841-13.438C119.736,57.545,124.805,57.568,129.894,57.524z"/>
						<path fill="#AF5B00" d="M144.193,18.223c1.64,1.493,2.458,1.895,3.363,1.768c-0.128,2.799-0.338,6.351-0.672,10.533
							L131.7,30.65c0.275-5.402,0.466-10.135,0.505-13.688c1.767-0.82,3.471-1.643,5.155-2.461c2.878-1.43,5.697-2.902,8.638-4.46
							c1.833-0.985,3.701-1.974,5.679-3.109c-2.204,1.429-4.229,3.174-5.99,5.13C143.162,14.987,141.08,15.386,144.193,18.223z"/>
						<path fill="#AF5B00" d="M145.517,43.983c-0.527,4.161-1.156,8.62-1.916,13.268v0.189c-4.562,0.064-9.145,0.084-13.707,0.084
							c0.355-4.542,0.675-9.062,0.966-13.415v-0.021C135.737,44.088,140.636,44.044,145.517,43.983z"/>
						<path fill="#AF5B00" d="M140.932,70.901v0.206c-0.945,4.354-2.04,8.771-3.279,13.25c-3.366,0.039-6.729,0.063-10.093,0.039
							v-0.063c0.419-4.14,0.819-8.665,1.239-13.351C132.837,70.962,136.896,70.939,140.932,70.901z"/>
						<path fill="#8E3C00" d="M96.164,30.44c-5.97-0.105-11.817-0.207-17.495-0.377c-0.862-7.213-1.092-11.841-1.092-11.841
							c3.047,2.776,3.258,1.81,6.412,0.466c3.134-1.369,6.056-2.777,8.959-4.187c2.88-1.43,5.7-2.902,8.643-4.46
							c1.829-0.985,3.701-1.974,5.677-3.109c-2.208,1.429-4.227,3.174-5.992,5.13c-2.525,2.925-4.607,3.323-1.495,6.16
							c3.05,2.776,3.26,1.81,6.414,0.466c3.133-1.369,6.056-2.777,8.958-4.187c2.881-1.43,5.699-2.902,8.643-4.46
							c1.827-0.985,3.699-1.974,5.678-3.109c-2.21,1.429-4.228,3.174-5.995,5.13c-2.522,2.925-4.604,3.323-1.491,6.16
							c3.048,2.776,3.258,1.81,6.413,0.466c1.303-0.571,2.563-1.138,3.805-1.726c-0.039,3.553-0.229,8.285-0.505,13.688h-0.02
							c-6.058,0.044-12.112,0.021-18.105-0.021h-0.02L96.164,30.44z"/>
						<path fill="#8E3C00" d="M114.059,44.065c5.553,0.044,11.188,0.063,16.801,0.022v0.021c-0.291,4.354-0.61,8.873-0.966,13.415
							c-5.089,0.044-10.157,0.021-15.183,0c-5.13-0.043-10.218-0.084-15.224-0.148c-5.468-0.083-10.829-0.188-16.085-0.313
							c-1.115-4.69-2.02-9.251-2.778-13.5h0.023c5.488,0.146,11.144,0.252,16.885,0.336
							C102.956,43.983,108.487,44.044,114.059,44.065z"/>
						<path fill="#AF5B00" d="M116.667,84.396c0.44,4.69,0.947,9.212,1.513,13.438c-2.901,0-5.762-0.019-8.621-0.041
							c-1.556-4.503-2.964-8.982-4.184-13.479C109.097,84.357,112.883,84.378,116.667,84.396z"/>
						<path fill="#AF5B00" d="M114.711,57.524c0.232,4.393,0.505,8.917,0.841,13.438c-4.54-0.022-9.042-0.061-13.499-0.124
							c-0.988-4.609-1.851-9.127-2.566-13.462C104.493,57.44,109.581,57.481,114.711,57.524z"/>
						<path fill="#AF5B00" d="M113.556,30.63c0.125,3.972,0.294,8.517,0.503,13.436c-5.572-0.021-11.103-0.082-16.526-0.166
							c-0.631-4.944-1.052-9.484-1.368-13.459L113.556,30.63z"/>
						<path fill="#AF5B00" d="M104.113,102.044v0.019c-4.31-0.17-8.41-0.378-12.258-0.634c-1.368-1.279-2.711-2.605-3.975-3.97
							c4.121,0.105,8.306,0.169,12.534,0.229C101.59,99.242,102.809,100.696,104.113,102.044z"/>
						<path fill="#C6710C" d="M99.487,57.376c0.715,4.335,1.578,8.853,2.566,13.462c-5.047-0.064-10.01-0.149-14.887-0.255
							c-5.742-0.125-11.356-0.272-16.781-0.441c-6.098-0.188-11.965-0.398-17.516-0.649c-2.502-4.459-4.625-9.064-6.414-13.73
							c5.889,0.292,12.198,0.543,18.82,0.794c5.825,0.19,11.88,0.359,18.127,0.508C88.658,57.188,94.019,57.293,99.487,57.376z"/>
						<path fill="#C6710C" d="M96.164,30.44c0.316,3.975,0.737,8.515,1.368,13.459c-5.741-0.084-11.397-0.189-16.885-0.336h-0.023
							l-18.967-0.588c-6.875-0.253-13.373-0.546-19.387-0.887c-1.094-4.583-1.83-9.146-2.272-13.563
							c5.973,0.339,12.449,0.654,19.326,0.928c0.021,0,0.042,0,0.063,0l19.282,0.61C84.347,30.233,90.194,30.335,96.164,30.44z"/>
						<path fill="#AF5B00" d="M87.166,70.583c1.514,4.646,3.259,9.209,5.255,13.543c-5.067-0.085-10.05-0.211-14.908-0.338
							c-2.691-4.375-5.068-8.956-7.128-13.646C75.81,70.311,81.423,70.458,87.166,70.583z"/>
						<path fill="#AF5B00" d="M80.624,43.563c0.758,4.249,1.663,8.81,2.778,13.5c-6.247-0.148-12.302-0.317-18.127-0.508
							c-1.471-4.581-2.648-9.146-3.617-13.58L80.624,43.563z"/>
						<path fill="#AF5B00" d="M79.385,10.042c1.828-0.985,3.701-1.974,5.677-3.109c-2.208,1.429-4.227,3.174-5.993,5.13
							c-2.525,2.925-4.606,3.323-1.493,6.16c0,0,0.23,4.628,1.092,11.841l-19.282-0.61c-0.021,0-0.042,0-0.063,0l0.021-0.294
							c-0.379-3.242-0.61-6.309-0.736-9.169c0.799-0.083,1.662-0.651,3.174-1.302c3.135-1.369,6.057-2.777,8.959-4.187
							C73.623,13.072,76.441,11.6,79.385,10.042z"/>
						<path fill="#8E3C00" d="M29.045,54.729c-5.553-0.397-10.41-0.82-14.446-1.262c-2.104-4.773-3.785-9.504-5.089-14.068
							c3.868,0.545,9,1.071,15.119,1.556c5.195,0.4,11.145,0.8,17.643,1.135c6.014,0.341,12.511,0.634,19.387,0.887
							c0.969,4.435,2.146,8.999,3.617,13.58c-6.623-0.251-12.931-0.502-18.82-0.794C40.125,55.443,34.28,55.084,29.045,54.729z"/>
						<path fill="#8E3C00" d="M59.346,29.159l-0.021,0.294c-6.876-0.273-13.353-0.589-19.326-0.928l-17.6-1.197
							c-6.77-0.565-12.175-1.176-15.791-1.827c-0.461-3.408-0.632-6.541-0.588-9.274c1.199-0.57,2.398-1.134,3.574-1.725
							c1.073-0.544,2.123-1.072,3.195-1.6c-2.144,2.19-3.49,2.775-0.734,5.32c3.049,2.776,3.278,1.81,6.412,0.466
							c3.134-1.369,6.077-2.777,8.958-4.187c2.881-1.43,5.698-2.902,8.642-4.46c0.485-0.27,0.989-0.523,1.494-0.797
							c-1.031,0.883-1.997,1.831-2.902,2.817c-2.523,2.925-4.604,3.323-1.493,6.16c3.049,2.776,3.259,1.81,6.413,0.466
							c3.134-1.369,6.055-2.777,8.938-4.187c2.9-1.43,5.718-2.902,8.663-4.46c1.809-0.966,3.637-1.954,5.594-3.068
							c-2.187,1.43-4.164,3.154-5.909,5.089c-2.524,2.925-4.604,3.323-1.493,6.16c1.577,1.432,2.377,1.872,3.239,1.768
							C58.736,22.851,58.967,25.917,59.346,29.159z"/>
						<path fill="#AF5B00" d="M52.868,69.492l-16.884-0.883c-2.755-4.542-5.069-9.215-6.939-13.881
							c5.235,0.355,11.081,0.715,17.409,1.033C48.243,60.428,50.366,65.033,52.868,69.492z"/>
						<path fill="#AF5B00" d="M39.999,28.525c0.442,4.418,1.178,8.98,2.272,13.563c-6.498-0.335-12.447-0.734-17.643-1.135
							c-1.156-4.774-1.872-9.375-2.229-13.626L39.999,28.525z"/>
						<path fill="#C6710C" d="M29.045,54.729c1.87,4.666,4.184,9.339,6.939,13.881c-5.09-0.319-9.716-0.655-13.859-0.993h-0.021
							c-2.921-4.625-5.425-9.396-7.506-14.149C18.635,53.908,23.492,54.331,29.045,54.729z"/>
						<path fill="#C6710C" d="M22.398,27.328c0.358,4.251,1.074,8.852,2.229,13.626c-6.119-0.484-11.25-1.011-15.119-1.556
							c-1.388-4.92-2.356-9.634-2.902-13.897C10.223,26.152,15.629,26.763,22.398,27.328z"/>
					</g>
				</g>
			</g>
			<g>
				<path fill="#BB8258" d="M126.139,98.496l-0.155,1.982l-0.384,1.959l-0.209-0.031c-0.682-0.439-1.018-0.818-1.234-1.18
					c-0.235-0.363-0.266-0.7-0.255-1.028c0.071-0.321,0.192-0.632,0.518-0.921c0.3-0.296,0.728-0.577,1.511-0.809L126.139,98.496z"
					/>
			</g>
			<g>
				<path fill="#BB8258" d="M128.9,71.027l-0.491,6.692l-0.735,6.67l-0.209-0.022c-0.626-1.186-0.906-2.334-1.063-3.464
					c-0.18-1.139-0.151-2.261-0.085-3.376c0.134-1.109,0.311-2.215,0.691-3.298c0.36-1.089,0.848-2.17,1.684-3.219L128.9,71.027z"/>
			</g>
			<g>
				<path fill="#BB8258" d="M130.979,44.148l-0.367,6.73l-0.61,6.707l-0.21-0.013c-0.648-1.18-0.951-2.327-1.126-3.464
					c-0.204-1.141-0.196-2.265-0.148-3.383c0.11-1.115,0.266-2.23,0.627-3.327c0.346-1.101,0.806-2.195,1.628-3.266L130.979,44.148z
					"/>
			</g>
			<g>
				<path fill="#BB8258" d="M132.32,17.007c0.001,2.285-0.037,4.572-0.093,6.856l-0.427,6.846l-0.208-0.014
					c-0.682-1.178-1.009-2.337-1.22-3.485c-0.229-1.151-0.255-2.293-0.247-3.432c0.079-1.133,0.196-2.264,0.514-3.394
					c0.294-1.127,0.71-2.245,1.469-3.383L132.32,17.007z"/>
			</g>
			<path fill="#CA7D1F" d="M126.111,98.491c0.969,0.791,1.123,1.481,1.07,2.153c-0.135,0.655-0.47,1.287-1.609,1.789l-0.157-0.026
				l0.205-1.977l0.336-1.96L126.111,98.491z"/>
			<path fill="#CA7D1F" d="M128.875,71.026c0.863,2.318,0.906,4.574,0.739,6.804c-0.247,2.225-0.7,4.432-1.967,6.555l-0.156-0.015
				l0.552-6.685l0.674-6.671L128.875,71.026z"/>
			<path fill="#CA7D1F" d="M130.952,44.147c0.905,2.313,0.99,4.571,0.863,6.818c-0.208,2.239-0.618,4.462-1.841,6.619l-0.158-0.011
				l0.431-6.723l0.55-6.717L130.952,44.147z"/>
			<path fill="#CA7D1F" d="M132.289,17.007c1.034,2.304,1.2,4.615,1.147,6.906c-0.134,2.286-0.487,4.568-1.663,6.794l-0.153-0.01
				l0.516-13.695L132.289,17.007z"/>
			<g>
				<path fill="#BB8258" d="M116.773,84.431l0.799,6.714l0.715,6.723l-0.208,0.028c-0.882-1.02-1.409-2.097-1.807-3.188
					c-0.42-1.091-0.627-2.208-0.789-3.328c-0.094-1.129-0.139-2.267,0.027-3.419c0.146-1.157,0.42-2.317,1.054-3.512L116.773,84.431
					z"/>
			</g>
			<g>
				<path fill="#BB8258" d="M114.811,57.551l0.502,6.715l0.348,6.725l-0.21,0.017c-0.815-1.066-1.28-2.16-1.62-3.267
					c-0.358-1.102-0.506-2.222-0.615-3.342c-0.038-1.124-0.029-2.253,0.185-3.395c0.197-1.134,0.521-2.278,1.2-3.44L114.811,57.551z
					"/>
			</g>
			<g>
				<path fill="#BB8258" d="M113.673,30.672l0.33,6.723l0.159,6.724l-0.208,0.008c-0.786-1.091-1.22-2.194-1.525-3.308
					c-0.329-1.111-0.448-2.229-0.525-3.351c-0.008-1.123,0.027-2.249,0.275-3.38c0.225-1.128,0.577-2.261,1.285-3.404
					L113.673,30.672z"/>
			</g>
			<g>
				<path fill="#BB8258" d="M105.472,84.313c1.037,0.925,1.731,1.95,2.308,3.013c0.61,1.038,1.016,2.13,1.382,3.23
					c0.321,1.124,0.604,2.253,0.688,3.46c0.126,1.188,0.133,2.419-0.187,3.774l-0.199,0.07c-0.802-2.216-1.573-4.439-2.31-6.684
					c-0.661-2.263-1.287-4.531-1.885-6.81L105.472,84.313z"/>
			</g>
			<g>
				<path fill="#BB8258" d="M99.55,57.193c0.93,1.015,1.509,2.096,1.966,3.191c0.491,1.082,0.771,2.193,1.013,3.321
					c0.19,1.136,0.336,2.28,0.283,3.468c-0.021,1.181-0.161,2.39-0.646,3.682l-0.206,0.046c-0.52-2.264-1.021-4.53-1.494-6.801
					c-0.398-2.288-0.773-4.575-1.123-6.869L99.55,57.193z"/>
			</g>
			<g>
				<path fill="#BB8258" d="M96.255,30.332c0.834,1.077,1.317,2.177,1.68,3.276c0.387,1.105,0.57,2.227,0.716,3.347
					c0.078,1.134,0.124,2.265-0.035,3.424c-0.134,1.158-0.384,2.326-0.982,3.549l-0.209,0.025l-0.865-6.785l-0.514-6.819
					L96.255,30.332z"/>
			</g>
			<g>
				<path fill="#BB8258" d="M100.493,97.662c0.88-0.081,1.479,0.056,1.979,0.275c0.516,0.176,0.858,0.472,1.171,0.798
					c0.273,0.372,0.517,0.767,0.609,1.307c0.118,0.512,0.148,1.117-0.062,1.976l-0.152,0.143c-0.682-0.67-1.349-1.356-2-2.062
					c-0.593-0.759-1.161-1.53-1.712-2.309L100.493,97.662z"/>
			</g>
			<g>
				<path fill="#BB8258" d="M87.272,70.593c1.084,0.919,1.842,1.944,2.482,2.975c0.67,1.029,1.155,2.123,1.611,3.226
					c0.398,1.125,0.774,2.258,0.974,3.468c0.225,1.2,0.354,2.451,0.189,3.859l-0.191,0.09c-1.053-2.187-2.025-4.407-2.933-6.66
					c-0.843-2.275-1.618-4.578-2.333-6.888L87.272,70.593z"/>
			</g>
			<g>
				<path fill="#BB8258" d="M80.742,43.582c0.932,1.003,1.517,2.064,1.983,3.129c0.493,1.07,0.785,2.171,1.042,3.281
					c0.194,1.118,0.354,2.251,0.322,3.426c-0.011,1.17-0.132,2.366-0.589,3.652l-0.205,0.051c-0.565-2.228-1.092-4.462-1.587-6.709
					c-0.425-2.26-0.815-4.526-1.175-6.794L80.742,43.582z"/>
			</g>
			<g>
				<path fill="#BB8258" d="M77.681,18.251c0.8,0.943,1.26,1.895,1.599,2.856c0.361,0.959,0.525,1.93,0.646,2.909
					c0.057,0.982,0.079,1.969-0.099,2.979c-0.158,1.012-0.433,2.034-1.049,3.103l-0.208,0.026c-0.27-1.969-0.516-3.936-0.735-5.912
					c-0.153-1.983-0.281-3.963-0.362-5.947L77.681,18.251z"/>
			</g>
			<path fill="#CA7D1F" d="M100.472,97.68c0.601,0.743,1.218,1.469,1.846,2.181c0.6,0.741,1.216,1.466,1.852,2.174l-0.113,0.112
				c-1.421,0.03-2.271-0.552-2.94-1.27c-0.62-0.797-1.032-1.699-0.771-3.099L100.472,97.68z"/>
			<path fill="#CA7D1F" d="M87.249,70.602c0.775,2.295,1.604,4.566,2.499,6.815c0.848,2.268,1.763,4.508,2.76,6.715l-0.145,0.065
				c-1.979-1.757-3.162-3.946-4.084-6.212c-0.845-2.293-1.441-4.709-1.18-7.333L87.249,70.602z"/>
			<path fill="#CA7D1F" d="M80.716,43.586c0.419,2.258,0.869,4.508,1.354,6.752c0.433,2.255,0.899,4.505,1.405,6.743l-0.154,0.036
				c-1.556-1.993-2.293-4.21-2.794-6.463c-0.425-2.268-0.619-4.602,0.034-7.042L80.716,43.586z"/>
			<path fill="#CA7D1F" d="M77.655,18.254c0.141,1.977,0.334,3.951,0.544,5.924c0.159,1.978,0.344,3.953,0.552,5.924l-0.156,0.023
				c-1.281-1.854-1.735-3.814-1.965-5.799c-0.148-1.991-0.075-4.015,0.867-6.063L77.655,18.254z"/>
			<g>
				<path fill="#BB8258" d="M87.909,97.375c1.389,1.3,2.726,2.637,4.028,4.01l-0.141,0.156c-0.846,0.213-1.465,0.157-2,0.008
					c-0.553-0.137-0.963-0.422-1.343-0.741c-0.308-0.362-0.583-0.754-0.708-1.294c-0.142-0.523-0.191-1.134,0.012-1.991
					L87.909,97.375z"/>
			</g>
			<g>
				<path fill="#BB8258" d="M70.476,70.14c1.068,2.336,2.208,4.633,3.425,6.89c1.156,2.29,2.391,4.541,3.712,6.737l-0.179,0.112
					c-2.554-1.448-4.136-3.596-5.395-5.877c-0.573-1.174-1.09-2.374-1.401-3.672c-0.329-1.297-0.513-2.629-0.354-4.106L70.476,70.14
					z"/>
			</g>
			<g>
				<path fill="#BB8258" d="M61.775,42.996c0.525,2.285,1.106,4.547,1.739,6.799c0.564,2.267,1.184,4.521,1.857,6.767l-0.202,0.062
					c-1.055-0.893-1.771-1.912-2.355-2.974c-0.602-1.057-0.993-2.181-1.332-3.314c-0.273-1.157-0.488-2.324-0.489-3.54
					c-0.021-1.221,0.098-2.452,0.577-3.754L61.775,42.996z"/>
			</g>
			<g>
				<path fill="#BB8258" d="M58.709,20.026c0.107,1.529,0.242,3.059,0.399,4.577c0.096,1.524,0.217,3.051,0.357,4.576l-0.21,0.027
					c-0.817-0.678-1.287-1.404-1.63-2.148c-0.359-0.741-0.504-1.51-0.609-2.28c-0.032-0.784-0.009-1.573,0.217-2.368
					c0.215-0.78,0.566-1.563,1.268-2.371L58.709,20.026z"/>
			</g>
			<path fill="#CA7D1F" d="M87.89,97.395c1.422-0.057,2.255,0.458,2.942,1.113c0.636,0.67,1.12,1.467,1.089,2.898l-0.107,0.117
				l-2.116-1.919l-1.921-2.101L87.89,97.395z"/>
			<path fill="#CA7D1F" d="M70.451,70.15c2.012,1.931,3.309,4.08,4.521,6.32c1.136,2.272,2.164,4.577,2.617,7.312l-0.133,0.082
				c-1.377-2.17-2.667-4.395-3.882-6.665c-1.167-2.287-2.254-4.625-3.267-6.983L70.451,70.15z"/>
			<path fill="#CA7D1F" d="M61.749,43.002c1.532,2.072,2.302,4.242,2.932,6.481c0.553,2.255,0.962,4.537,0.664,7.085l-0.151,0.049
				c-0.731-2.226-1.411-4.471-2.038-6.729c-0.574-2.274-1.095-4.56-1.562-6.853L61.749,43.002z"/>
			<path fill="#CA7D1F" d="M58.683,20.03c0.562,0.735,0.95,1.484,1.169,2.236c0.27,0.74,0.377,1.486,0.463,2.237
				c0.084,1.514-0.003,3.038-0.876,4.679l-0.156,0.022c-0.202-1.522-0.384-3.049-0.54-4.572c-0.101-1.532-0.171-3.063-0.217-4.595
				L58.683,20.03z"/>
			<g>
				<path fill="#BB8258" d="M52.774,69.587c-1.262-0.746-2.203-1.678-3.029-2.716c-0.835-1.021-1.469-2.144-2.043-3.297
					c-1.029-2.356-1.748-4.879-1.334-7.75l0.197-0.075c0.934,2.347,1.948,4.663,3.044,6.938c1.035,2.305,2.146,4.569,3.35,6.797
					L52.774,69.587z"/>
			</g>
			<g>
				<path fill="#BB8258" d="M76.398,97.321c-1.772-0.428-3.304-1.17-4.785-2.095c-0.744-0.438-1.396-0.98-2.097-1.474
					c-0.653-0.543-1.278-1.123-1.915-1.684c-0.577-0.624-1.17-1.233-1.727-1.877c-0.514-0.684-1.064-1.33-1.522-2.06
					c-0.939-1.43-1.749-2.966-2.233-4.716l0.163-0.134c2.125,2.554,4.39,4.988,6.788,7.283c2.352,2.343,4.833,4.542,7.458,6.591
					L76.398,97.321z"/>
			</g>
			<g>
				<path fill="#BB8258" d="M35.903,68.704c-1.374-2.193-2.664-4.46-3.854-6.768c-1.129-2.34-2.164-4.724-3.102-7.145l0.197-0.079
					c1.172,0.925,2.029,1.944,2.79,3.002c0.787,1.045,1.398,2.16,1.996,3.282c0.543,1.149,1.064,2.307,1.427,3.564
					c0.38,1.223,0.694,2.542,0.726,4.037L35.903,68.704z"/>
			</g>
			<g>
				<path fill="#BB8258" d="M63.923,96.935c-3.234-1.911-6.341-4.052-9.278-6.398c-2.897-2.404-5.623-5.01-8.156-7.785l0.155-0.143
					c1.818,0.867,3.392,1.9,4.917,2.969c1.538,1.052,2.967,2.201,4.409,3.329c1.403,1.18,2.815,2.348,4.156,3.638
					c1.362,1.278,2.676,2.598,3.908,4.21L63.923,96.935z"/>
			</g>
			<g>
				<path fill="#BB8258" d="M133.577,97.908c0.575,0.604,0.815,1.084,0.939,1.525c0.14,0.445,0.087,0.825-0.007,1.188
					c-0.164,0.344-0.367,0.674-0.771,0.93c-0.372,0.265-0.869,0.484-1.69,0.575l-0.194-0.073l0.678-2.139l0.85-2.073L133.577,97.908
					z"/>
			</g>
			<g>
				<path fill="#BB8258" d="M141.034,71.179c0.477,1.271,0.609,2.469,0.612,3.635c0.012,1.181-0.181,2.319-0.421,3.443
					c-0.316,1.101-0.672,2.196-1.229,3.233c-0.552,1.039-1.221,2.045-2.226,2.949l-0.207-0.057l3.266-13.25L141.034,71.179z"/>
			</g>
			<g>
				<path fill="#BB8258" d="M145.623,44.036c0.6,1.201,0.842,2.356,0.951,3.508c0.137,1.15,0.055,2.273-0.076,3.393
					c-0.192,1.105-0.438,2.204-0.892,3.271c-0.433,1.067-0.995,2.111-1.907,3.091l-0.204-0.03l0.925-6.636l0.993-6.619
					L145.623,44.036z"/>
			</g>
			<g>
				<path fill="#BB8258" d="M147.656,20.02c0.703,0.913,1.049,1.816,1.263,2.718c0.237,0.898,0.264,1.789,0.237,2.678
					c-0.093,0.883-0.229,1.761-0.576,2.625c-0.326,0.864-0.781,1.718-1.588,2.537l-0.209-0.017l0.271-5.277l0.393-5.271
					L147.656,20.02z"/>
			</g>
			<g>
				<path fill="#BB8258" d="M150.631,84.31c0.118,1.502-0.105,2.849-0.492,4.174c-0.361,1.317-0.94,2.532-1.589,3.709
					c-1.392,2.29-3.168,4.427-5.881,5.675l-0.169-0.126c1.551-2.105,2.954-4.323,4.233-6.601c1.347-2.243,2.568-4.557,3.707-6.924
					L150.631,84.31z"/>
			</g>
			<g>
				<path fill="#BB8258" d="M159.641,57.242c0.44,1.316,0.54,2.543,0.513,3.742c-0.031,1.212-0.263,2.38-0.538,3.535
					c-0.694,2.257-1.687,4.452-3.74,6.246l-0.198-0.066c0.678-2.237,1.315-4.484,1.911-6.741c0.647-2.241,1.267-4.499,1.848-6.765
					L159.641,57.242z"/>
			</g>
			<g>
				<path fill="#BB8258" d="M164.382,30.246c0.604,1.216,0.845,2.394,0.953,3.565c0.13,1.17,0.048,2.313-0.089,3.448
					c-0.2,1.127-0.453,2.248-0.912,3.33c-0.438,1.089-1.011,2.152-1.935,3.145l-0.203-0.035l1.976-13.48L164.382,30.246z"/>
			</g>
			<g>
				<path fill="#BB8258" d="M165.694,84.003c-0.144,1.614-0.611,3.029-1.24,4.401c-0.287,0.691-0.69,1.307-1.035,1.962
					c-0.4,0.62-0.828,1.216-1.245,1.819c-0.929,1.143-1.912,2.246-3.075,3.183c-1.152,0.939-2.418,1.776-3.946,2.323l-0.149-0.144
					c1.948-2.117,3.779-4.338,5.505-6.64c1.778-2.263,3.443-4.602,5.012-7.021L165.694,84.003z"/>
			</g>
			<g>
				<path fill="#BB8258" d="M178.204,56.703c0.334,1.387,0.317,2.662,0.152,3.92c-0.138,1.256-0.494,2.438-0.902,3.605
					c-0.932,2.278-2.177,4.459-4.462,6.106l-0.188-0.087c0.96-2.229,1.853-4.488,2.689-6.771c0.896-2.258,1.73-4.534,2.514-6.843
					L178.204,56.703z"/>
			</g>
			<path fill="#CA7D1F" d="M116.746,84.433c1.271,2.146,1.741,4.349,2.028,6.577c0.206,2.237,0.234,4.488-0.511,6.863l-0.157,0.02
				l-0.899-6.707l-0.617-6.739L116.746,84.433z"/>
			<path fill="#CA7D1F" d="M114.786,57.553c1.182,2.185,1.557,4.407,1.734,6.641c0.099,2.238,0.008,4.486-0.885,6.8l-0.158,0.013
				l-0.529-6.715l-0.32-6.729L114.786,57.553z"/>
			<path fill="#CA7D1F" d="M105.447,84.318c0.658,2.261,1.345,4.513,2.06,6.752c0.676,2.257,1.388,4.497,2.133,6.729l-0.151,0.054
				c-1.763-1.88-2.738-4.067-3.488-6.314c-0.665-2.292-1.095-4.627-0.706-7.18L105.447,84.318z"/>
			<path fill="#CA7D1F" d="M99.524,57.198c0.411,2.284,0.846,4.562,1.303,6.832c0.412,2.279,0.853,4.556,1.313,6.828l-0.155,0.032
				c-1.515-2.043-2.221-4.284-2.707-6.564c-0.399-2.309-0.57-4.639,0.089-7.101L99.524,57.198z"/>
			<path fill="#CA7D1F" d="M52.799,69.573c-1.256-2.196-2.433-4.444-3.524-6.729c-1.044-2.31-2.003-4.655-2.882-7.03l0.148-0.057
				c1.883,1.983,3.071,4.172,4.162,6.42c1.027,2.289,1.921,4.583,2.232,7.319L52.799,69.573z"/>
			<path fill="#CA7D1F" d="M76.415,97.301c-2.657-1.994-5.202-4.165-7.6-6.472c-2.367-2.348-4.591-4.834-6.674-7.43l0.123-0.1
				c2.913,1.909,5.278,4.145,7.651,6.398c2.331,2.325,4.583,4.603,6.599,7.479L76.415,97.301z"/>
			<path fill="#CA7D1F" d="M35.926,68.691c-1.115-0.842-2.068-1.787-2.867-2.862c-0.817-1.051-1.48-2.188-2.092-3.354
				c-1.134-2.372-2-4.891-1.994-7.694l0.146-0.058c0.992,2.394,2.079,4.746,3.258,7.046c1.134,2.331,2.359,4.609,3.682,6.841
				L35.926,68.691z"/>
			<path fill="#CA7D1F" d="M63.937,96.913c-3.767-1.034-7.077-3.064-10.055-5.439c-2.932-2.442-5.583-5.269-7.372-8.741l0.115-0.106
				c2.573,2.729,5.331,5.279,8.251,7.626c2.888,2.383,5.944,4.563,9.145,6.525L63.937,96.913z"/>
			<path fill="#CA7D1F" d="M150.603,84.297c-1.073,2.387-2.253,4.745-3.548,7.028c-1.34,2.26-2.801,4.447-4.411,6.526l-0.123-0.094
				c0.736-2.722,1.91-4.972,3.169-7.223c1.328-2.221,2.702-4.359,4.774-6.304L150.603,84.297z"/>
			<path fill="#CA7D1F" d="M159.615,57.236c-0.522,2.28-1.08,4.556-1.669,6.82c-0.658,2.247-1.357,4.479-2.097,6.698l-0.148-0.047
				c-0.147-1.276-0.131-2.487,0.045-3.647c0.116-1.176,0.38-2.308,0.676-3.427c0.325-1.113,0.673-2.211,1.183-3.278
				c0.45-1.091,1.069-2.147,1.852-3.156L159.615,57.236z"/>
			<path fill="#CA7D1F" d="M165.675,83.988c-1.516,2.448-3.141,4.839-4.876,7.144c-1.778,2.274-3.665,4.458-5.664,6.541
				l-0.115-0.105c1.205-2.815,2.833-5.116,4.525-7.392c1.769-2.242,3.551-4.391,5.999-6.274L165.675,83.988z"/>
			<path fill="#CA7D1F" d="M178.179,56.695c-0.719,2.321-1.498,4.63-2.342,6.913c-0.893,2.266-1.848,4.508-2.868,6.716l-0.143-0.064
				c0.03-2.648,0.72-4.945,1.536-7.216c0.896-2.24,1.91-4.402,3.67-6.399L178.179,56.695z"/>
			<g>
				<path fill="#BB8258" d="M184.286,29.57c1.089,2.464,1.043,4.789,0.695,7.107c-0.473,2.271-1.242,4.499-3.106,6.437l-0.203-0.046
					c0.451-2.245,0.864-4.496,1.239-6.755c0.427-2.248,0.815-4.51,1.17-6.774L184.286,29.57z"/>
			</g>
			<g>
				<path fill="#BB8258" d="M202.957,28.533c-0.58-1.259-0.825-2.47-0.967-3.628c-0.168-1.176-0.147-2.328-0.096-3.476
					c0.112-1.143,0.24-2.279,0.563-3.424c0.291-1.146,0.684-2.29,1.412-3.469l0.209-0.005c0.07,2.345,0.029,4.695-0.095,7.042
					c-0.188,2.338-0.463,4.672-0.815,6.988L202.957,28.533z"/>
			</g>
			<g>
				<path fill="#BB8258" d="M195.801,55.817c-0.257-1.391-0.199-2.652-0.049-3.843c0.127-1.212,0.438-2.355,0.771-3.489
					c0.402-1.113,0.821-2.222,1.432-3.275c0.584-1.068,1.271-2.105,2.294-3.08l0.202,0.052c-0.574,2.335-1.213,4.654-1.927,6.952
					c-0.774,2.278-1.616,4.533-2.523,6.755L195.801,55.817z"/>
			</g>
			<g>
				<path fill="#BB8258" d="M180.236,83.396c0.271-1.547,0.795-2.888,1.373-4.126c0.562-1.272,1.268-2.433,1.991-3.579
					c0.776-1.118,1.563-2.222,2.512-3.242c0.929-1.033,1.943-2.022,3.264-2.875l0.185,0.102c-1.307,2.442-2.708,4.836-4.204,7.171
					c-1.557,2.298-3.207,4.532-4.95,6.68L180.236,83.396z"/>
			</g>
			<g>
				<path fill="#BB8258" d="M161.692,100.569c-0.017-0.882,0.163-1.471,0.411-1.949c0.22-0.499,0.547-0.821,0.903-1.105
					c0.396-0.241,0.81-0.452,1.355-0.494c0.527-0.071,1.133-0.041,1.961,0.255l0.131,0.171c-0.732,0.604-1.477,1.197-2.229,1.781
					c-0.796,0.52-1.602,1.027-2.417,1.518L161.692,100.569z"/>
			</g>
			<path fill="#CA7D1F" d="M202.987,28.536c0.29-2.326,0.503-4.651,0.635-6.987c0.183-2.332,0.279-4.673,0.275-7.012l0.155-0.005
				c1.088,2.337,1.257,4.749,1.143,7.122c-0.197,2.357-0.684,4.735-2.054,6.903L202.987,28.536z"/>
			<path fill="#CA7D1F" d="M195.828,55.825c0.85-2.247,1.629-4.515,2.349-6.804c0.766-2.272,1.463-4.569,2.096-6.884l0.151,0.039
				c0.413,2.593-0.042,5.012-0.751,7.332c-0.782,2.287-1.836,4.531-3.698,6.374L195.828,55.825z"/>
			<path fill="#CA7D1F" d="M180.259,83.408c1.698-2.185,3.29-4.44,4.79-6.766c1.545-2.289,2.994-4.646,4.352-7.06l0.141,0.079
				c-0.418,2.937-1.671,5.483-3.177,7.851c-0.796,1.153-1.639,2.279-2.627,3.294c-0.977,1.044-2.089,1.936-3.354,2.703
				L180.259,83.408z"/>
			<path fill="#CA7D1F" d="M161.708,100.592c0.777-0.542,1.545-1.099,2.307-1.664c0.784-0.531,1.556-1.075,2.325-1.628l0.099,0.123
				c-0.109,1.413-0.752,2.189-1.512,2.788c-0.832,0.541-1.758,0.88-3.129,0.513L161.708,100.592z"/>
			<g>
				<path fill="#BB8258" d="M220.571,27.151c0.104-1.691,0.15-3.379,0.14-5.07c0.057-1.689,0.05-3.381-0.035-5.071l0.209-0.012
					c0.797,0.793,1.228,1.645,1.513,2.504c0.306,0.862,0.387,1.736,0.412,2.604c-0.042,0.875-0.149,1.738-0.473,2.595
					c-0.305,0.865-0.748,1.681-1.556,2.468L220.571,27.151z"/>
			</g>
			<g>
				<path fill="#BB8258" d="M213.969,54.577c0.866-2.256,1.644-4.539,2.35-6.852c0.763-2.292,1.446-4.61,2.043-6.95l0.207,0.049
					c0.806,2.688,0.438,5.176-0.249,7.537c-0.405,1.164-0.873,2.31-1.555,3.372c-0.67,1.082-1.463,2.073-2.602,2.924L213.969,54.577
					z"/>
			</g>
			<g>
				<path fill="#BB8258" d="M196.397,82.622c1.983-2.185,3.839-4.468,5.582-6.835c1.796-2.334,3.474-4.757,5.031-7.253l0.18,0.109
					c-0.14,1.641-0.62,3.111-1.236,4.502c-0.608,1.399-1.424,2.672-2.294,3.9c-0.487,0.579-0.953,1.168-1.455,1.731
					c-0.554,0.521-1.053,1.086-1.655,1.56c-1.183,1.002-2.452,1.845-3.995,2.425L196.397,82.622z"/>
			</g>
			<g>
				<path fill="#BB8258" d="M174.643,99.216l2.065-1.237l2.132-1.111l0.108,0.181c0.032,0.837-0.128,1.378-0.356,1.811
					c-0.213,0.458-0.541,0.732-0.883,0.971c-0.365,0.164-0.757,0.285-1.249,0.227c-0.475-0.04-1.011-0.189-1.718-0.655
					L174.643,99.216z"/>
			</g>
			<path fill="#CA7D1F" d="M220.597,27.154c-0.919-1.788-1.08-3.421-1.094-5.089c0.063-1.665,0.27-3.297,1.201-5.057L220.861,17
				c0.146,1.689,0.21,3.385,0.216,5.087c-0.047,1.695-0.161,3.392-0.321,5.081L220.597,27.154z"/>
			<path fill="#CA7D1F" d="M213.992,54.588c-0.084-2.65,0.48-4.934,1.173-7.229c0.765-2.26,1.635-4.475,3.222-6.578l0.156,0.038
				c-0.543,2.359-1.166,4.702-1.875,7.017c-0.761,2.299-1.604,4.576-2.526,6.809L213.992,54.588z"/>
			<path fill="#CA7D1F" d="M196.419,82.64c1.241-2.894,2.871-5.23,4.596-7.582c1.778-2.297,3.588-4.545,6.02-6.511l0.135,0.08
				c-1.511,2.539-3.142,5.003-4.897,7.377c-1.793,2.346-3.714,4.602-5.737,6.742L196.419,82.64z"/>
			<path fill="#CA7D1F" d="M174.655,99.238c0.202-1.312,0.794-1.909,1.483-2.324c0.696-0.354,1.48-0.527,2.714-0.023l0.081,0.136
				l-2.048,1.276l-2.158,1.075L174.655,99.238z"/>
			<path fill="#C6710C" d="M53.552,97.349c-7.326-3.698-14.015-8.652-19.803-14.484c-5.795-5.827-10.723-12.498-14.784-19.637
				c-4.006-7.178-7.17-14.813-9.468-22.693c-2.25-7.883-3.805-16.035-3.696-24.268l0.422,0.008c0.74,4.074,1.505,8.032,2.731,11.895
				c1.072,3.884,2.358,7.68,3.712,11.43c1.442,3.721,2.852,7.435,4.568,11.012c1.643,3.599,3.393,7.149,5.391,10.553
				c1.887,3.463,4.002,6.791,6.262,10.012c2.19,3.28,4.694,6.321,7.224,9.363c2.592,2.981,5.335,5.865,8.284,8.581
				c2.861,2.862,6.087,5.268,9.352,7.857L53.552,97.349z"/>
			<path fill="#6B3200" d="M189.43,97.268c-5.531,1.396-11.155,2.314-16.781,3.271c-5.633,0.824-11.291,1.509-16.964,2.098
				c-11.344,1.127-22.753,1.534-34.157,1.676c-11.402-0.156-22.81-0.543-34.155-1.683c-5.672-0.585-11.331-1.267-16.968-2.097
				c-5.619-0.951-11.244-1.875-16.775-3.265l0.039-0.208c11.19,1.922,22.502,3.095,33.824,3.945
				c11.326,0.821,22.68,1.223,34.035,1.206c11.354,0.013,22.709-0.385,34.038-1.21c11.318-0.847,22.635-2.02,33.821-3.941
				L189.43,97.268z"/>
			<path fill="#C6710C" d="M237.25,18.266c-0.192,8.052-1.8,16.008-4.126,23.698c-2.354,7.69-5.533,15.138-9.524,22.13
				c-4.053,6.959-8.934,13.445-14.642,19.127c-5.71,5.677-12.271,10.503-19.455,14.128l-0.189-0.372
				c6.494-4.871,12.179-10.291,17.303-16.09c2.494-2.969,4.956-5.939,7.129-9.133c2.231-3.142,4.34-6.382,6.21-9.761
				c1.979-3.317,3.743-6.77,5.386-10.284c1.729-3.479,3.145-7.105,4.617-10.728c1.382-3.654,2.714-7.354,3.837-11.138
				c1.301-3.76,2.131-7.622,3.032-11.593L237.25,18.266z"/>
			<path fill="#BE5A00" d="M229.636,18.18c0.595,0.246,1.162,0.509,1.708,0.691c0.533,0.22,1.032,0.242,1.265,0.112
				c0.483-0.233,1.636-1.127,2.744-1.744l-0.44,0.284c0.932-1.056,1.886-2.232,2.816-3.342c0.913-1.144,1.842-2.266,2.706-3.427
				c1.731-2.343,3.359-4.617,4.563-7.555l0.211,0.008c-0.141,3.118-1.515,6.02-3.15,8.604c-1.656,2.607-3.693,4.938-5.966,7.032
				l-0.017,0.017l-0.025,0.01c-0.556,0.233-1.096,0.491-1.641,0.751c-0.55,0.249-1.118,0.544-1.775,0.561
				c-0.664,0.012-1.246-0.324-1.739-0.673c-0.498-0.354-0.955-0.766-1.4-1.175L229.636,18.18z"/>
			<path fill="#DB7E00" d="M245.131,3.36c-0.98,0.732-1.57,1.372-2.32,2.12c-0.731,0.701-1.51,1.43-2.332,2.066l-2.19,1.838
				c-0.739,0.587-1.472,1.168-2.169,1.793c-0.753,0.556-1.443,1.186-2.165,1.787l-1.104,0.904c-0.398,0.377-0.91,0.766-1.362,1.053
				c-0.89,0.579-1.854,1.221-2.015,1.025c-0.206-0.157-0.344,0.177-0.245,0.652c0.084,0.454,0.258,0.993,0.444,1.542l-0.213,0.233
				c-0.391-0.341-0.771-0.705-1.108-1.125c-0.317-0.407-0.645-0.943-0.558-1.574c0.31-1.207,1.268-1.778,1.938-2.537
				c1.383-1.461,2.764-3.087,4.376-4.389c1.612-1.312,3.36-2.463,5.2-3.427c1.826-0.895,3.646-2.046,5.771-2.276L245.131,3.36z"/>
			<path fill="#DB7E00" d="M210.704,18.373c-0.617-0.593-1.323-1.192-1.588-2.134c-0.206-1.06,0.654-1.773,1.204-2.364
				c1.267-1.179,2.312-2.54,3.604-3.746c2.52-2.407,5.457-4.405,8.628-5.85c3.218-1.399,6.656-2.248,10.147-2.428
				c3.48-0.163,7.047,0.342,10.21,1.854l-0.13,0.288c-3.573-0.435-6.794-0.214-9.94,0.329c-3.108,0.605-6.197,1.537-8.945,2.807
				l-1.189,0.528l-0.999,0.498c-0.703,0.361-1.38,0.769-2.063,1.163c-1.396,0.748-2.686,1.715-4,2.607
				c-0.317,0.24-0.622,0.437-0.958,0.716c-0.313,0.259-0.709,0.613-0.972,0.775c-0.738,0.626-1.518,1.181-2.22,1.644
				c-0.353,0.223-0.686,0.434-0.913,0.599c-0.23,0.192-0.312,0.179-0.411,0.355c-0.133,0.446,0.332,1.378,0.756,2.127
				L210.704,18.373z"/>
			<g>
				<path fill="#C4997D" d="M231.144,12.256c-0.992,2.186-2.31,3.729-3.816,5.056c-1.424,1.331-3.073,2.373-4.818,3.181
					c-1.69,0.794-3.736,1.401-5.428,1.598c-0.507,0.064-1.03,0.249-1.9,0.303c-0.847,0.095-2.137-0.133-2.786-0.665
					c-1.253-1.08-1.489-2.098-1.722-3.313l0.283-0.315c0.711,0.591,1.452,1.223,2.25,1.51c0.77,0.332,1.573-0.103,2.416-0.522
					c1.711-0.862,3.426-1.569,5.116-2.406c3.44-1.519,6.792-3.229,10.217-4.798L231.144,12.256z"/>
			</g>
			<g>
				<path fill="#C4997D" d="M222.252,4.819c-1.841,2.954-4.352,5.248-6.876,7.195l-0.936,0.743c-0.309,0.23-0.723,0.48-1.015,0.688
					l-1.99,1.324c-1.365,0.828-2.771,1.58-4.172,2.352c-1.475,0.66-2.894,1.348-4.377,1.93c-1.54,0.531-3.026,1.139-4.621,1.502
					c-0.79,0.184-1.567,0.428-2.368,0.563c-0.73,0.097-1.42,0.274-2.418,0.478c-0.501,0.074-1.182,0.183-1.926,0.043
					c-0.743-0.142-1.303-0.505-1.658-0.89c-0.73-0.737-1.08-1.525-1.429-2.333l0.284-0.315c1.139,0.992,2.473,2.256,3.882,1.446
					c1.388-0.681,2.854-1.365,4.274-2.006c2.852-1.325,5.674-2.732,8.468-4.175c5.63-2.813,11.304-5.59,16.651-8.903L222.252,4.819z
					"/>
			</g>
			<path fill="#DB7E00" d="M188.501,18.373c-0.638-0.619-1.401-1.24-1.611-2.25c-0.103-1.11,0.804-1.771,1.376-2.397
				c1.311-1.234,2.4-2.663,3.764-3.89c2.656-2.478,5.764-4.476,9.108-5.892c3.379-1.359,6.999-2.143,10.641-2.132
				c3.626-0.006,7.314,0.803,10.44,2.691l-0.161,0.271c-3.637-0.85-6.974-0.883-10.259-0.484c-1.64,0.251-3.261,0.494-4.83,0.977
				c-1.563,0.416-3.169,0.932-4.591,1.575c-1.572,0.606-3.023,1.341-4.456,2.157c-1.472,0.76-2.817,1.723-4.21,2.665
				c-1.265,0.862-2.726,2.235-4.276,3.257c-0.795,0.492-1.359,0.894-1.478,1.053c-0.186,0.412,0.313,1.403,0.761,2.168
				L188.501,18.373z"/>
			<g>
				<path fill="#C4997D" d="M200.045,4.819c-1.838,2.954-4.351,5.248-6.877,7.195l-0.935,0.743c-0.309,0.23-0.725,0.48-1.015,0.688
					l-1.986,1.324c-1.369,0.828-2.772,1.58-4.176,2.352c-1.472,0.66-2.895,1.348-4.376,1.93c-1.541,0.531-3.023,1.139-4.622,1.502
					c-0.793,0.184-1.566,0.428-2.369,0.563c-0.731,0.097-1.414,0.274-2.416,0.478c-0.504,0.074-1.182,0.183-1.923,0.043
					c-0.746-0.142-1.307-0.505-1.664-0.89c-0.73-0.737-1.077-1.525-1.426-2.333l0.282-0.315c1.139,0.992,2.475,2.256,3.886,1.446
					c1.383-0.681,2.858-1.365,4.273-2.006c2.852-1.325,5.67-2.732,8.468-4.175c5.63-2.813,11.302-5.59,16.646-8.903L200.045,4.819z"
					/>
			</g>
			<path fill="#DB7E00" d="M166.291,18.373c-0.634-0.619-1.4-1.24-1.606-2.25c-0.103-1.11,0.805-1.771,1.372-2.397
				c1.313-1.234,2.401-2.663,3.763-3.89c2.658-2.478,5.77-4.476,9.11-5.892c3.382-1.359,6.999-2.143,10.644-2.132
				c3.626-0.006,7.314,0.803,10.441,2.691l-0.161,0.271c-3.638-0.85-6.976-0.883-10.263-0.484c-1.638,0.251-3.259,0.494-4.828,0.977
				c-1.564,0.416-3.17,0.932-4.592,1.575c-1.573,0.606-3.028,1.341-4.457,2.157c-1.471,0.76-2.815,1.723-4.21,2.665
				c-1.267,0.862-2.728,2.235-4.274,3.257c-0.794,0.492-1.358,0.894-1.475,1.053c-0.189,0.412,0.311,1.403,0.757,2.168
				L166.291,18.373z"/>
			<g>
				<path fill="#C4997D" d="M177.839,4.819c-1.841,2.954-4.352,5.248-6.876,7.195l-0.937,0.743c-0.306,0.23-0.723,0.48-1.018,0.688
					l-1.983,1.324c-1.368,0.828-2.773,1.58-4.176,2.352c-1.473,0.66-2.894,1.348-4.376,1.93c-1.54,0.531-3.026,1.139-4.621,1.502
					c-0.79,0.184-1.568,0.428-2.368,0.563c-0.73,0.097-1.419,0.274-2.42,0.478c-0.5,0.074-1.183,0.183-1.923,0.043
					c-0.741-0.142-1.304-0.505-1.663-0.89c-0.728-0.737-1.075-1.525-1.425-2.333l0.282-0.315c1.14,0.992,2.478,2.256,3.886,1.446
					c1.386-0.681,2.855-1.365,4.272-2.006c2.853-1.325,5.673-2.732,8.468-4.175c5.63-2.813,11.304-5.59,16.651-8.903L177.839,4.819z
					"/>
			</g>
			<path fill="#DB7E00" d="M144.088,18.373c-0.639-0.619-1.401-1.24-1.61-2.25c-0.103-1.11,0.805-1.771,1.377-2.397
				c1.309-1.234,2.396-2.663,3.761-3.89c2.658-2.478,5.766-4.476,9.107-5.892c3.38-1.359,6.999-2.143,10.644-2.132
				c3.624-0.006,7.313,0.803,10.439,2.691l-0.16,0.271c-3.638-0.85-6.975-0.883-10.258-0.484c-1.642,0.251-3.265,0.494-4.831,0.977
				c-1.563,0.416-3.167,0.932-4.591,1.575c-1.574,0.606-3.024,1.341-4.458,2.157c-1.47,0.76-2.815,1.723-4.212,2.665
				c-1.261,0.862-2.723,2.235-4.271,3.257c-0.797,0.492-1.362,0.894-1.479,1.053c-0.185,0.412,0.313,1.403,0.757,2.168
				L144.088,18.373z"/>
			<g>
				<path fill="#C4997D" d="M155.63,4.819c-1.838,2.954-4.345,5.248-6.876,7.195l-0.935,0.743c-0.31,0.23-0.724,0.48-1.015,0.688
					l-1.988,1.324c-1.367,0.828-2.771,1.58-4.175,2.352c-1.471,0.66-2.891,1.348-4.374,1.93c-1.541,0.531-3.025,1.139-4.619,1.502
					c-0.795,0.184-1.572,0.428-2.372,0.563c-0.732,0.097-1.417,0.274-2.417,0.478c-0.504,0.074-1.181,0.183-1.924,0.043
					c-0.742-0.142-1.307-0.505-1.663-0.89c-0.73-0.737-1.076-1.525-1.424-2.333l0.284-0.315c1.135,0.992,2.473,2.256,3.883,1.446
					c1.385-0.681,2.855-1.365,4.27-2.006c2.853-1.325,5.675-2.732,8.471-4.175c5.628-2.813,11.301-5.59,16.649-8.903L155.63,4.819z"
					/>
			</g>
			<path fill="#DB7E00" d="M121.881,18.373c-0.634-0.619-1.399-1.24-1.612-2.25c-0.101-1.11,0.805-1.771,1.378-2.397
				c1.309-1.234,2.398-2.663,3.761-3.89c2.654-2.478,5.763-4.476,9.107-5.892c3.381-1.359,7-2.143,10.641-2.132
				c3.627-0.006,7.315,0.803,10.44,2.691l-0.158,0.271c-3.638-0.85-6.974-0.883-10.258-0.484c-1.642,0.251-3.265,0.494-4.832,0.977
				c-1.561,0.416-3.168,0.932-4.593,1.575c-1.574,0.606-3.025,1.341-4.456,2.157c-1.469,0.76-2.818,1.723-4.211,2.665
				c-1.263,0.862-2.726,2.235-4.274,3.257c-0.792,0.492-1.356,0.894-1.475,1.053c-0.186,0.412,0.313,1.403,0.757,2.168
				L121.881,18.373z"/>
			<g>
				<path fill="#C4997D" d="M133.427,4.819c-1.841,2.954-4.351,5.248-6.877,7.195l-0.937,0.743c-0.31,0.23-0.72,0.48-1.017,0.688
					l-1.984,1.324c-1.365,0.828-2.772,1.58-4.175,2.352c-1.471,0.66-2.892,1.348-4.375,1.93c-1.541,0.531-3.025,1.139-4.62,1.502
					c-0.792,0.184-1.57,0.428-2.371,0.563c-0.731,0.097-1.417,0.274-2.417,0.478c-0.504,0.074-1.182,0.183-1.925,0.043
					c-0.743-0.142-1.307-0.505-1.662-0.89c-0.728-0.737-1.076-1.525-1.425-2.333l0.284-0.315c1.138,0.992,2.475,2.256,3.882,1.446
					c1.385-0.681,2.856-1.365,4.273-2.006c2.853-1.325,5.672-2.732,8.47-4.175c5.626-2.813,11.302-5.59,16.648-8.903L133.427,4.819z
					"/>
			</g>
			<path fill="#DB7E00" d="M99.676,18.373c-0.636-0.619-1.401-1.24-1.613-2.25c-0.101-1.11,0.806-1.771,1.378-2.397
				c1.31-1.234,2.397-2.663,3.761-3.89c2.657-2.478,5.765-4.476,9.111-5.892c3.379-1.359,6.999-2.143,10.639-2.132
				c3.63-0.006,7.316,0.803,10.44,2.691l-0.159,0.271c-3.637-0.85-6.977-0.883-10.26-0.484c-1.639,0.251-3.262,0.494-4.83,0.977
				c-1.563,0.416-3.168,0.932-4.59,1.575c-1.573,0.606-3.027,1.341-4.458,2.157c-1.472,0.76-2.818,1.723-4.212,2.665
				c-1.263,0.862-2.724,2.235-4.273,3.257c-0.794,0.492-1.358,0.894-1.478,1.053c-0.186,0.412,0.313,1.403,0.758,2.168
				L99.676,18.373z"/>
			<g>
				<path fill="#C4997D" d="M111.218,4.819c-1.838,2.954-4.348,5.248-6.873,7.195l-0.938,0.743c-0.308,0.23-0.722,0.48-1.017,0.688
					l-1.983,1.324c-1.368,0.828-2.774,1.58-4.176,2.352c-1.472,0.66-2.892,1.348-4.376,1.93c-1.541,0.531-3.024,1.139-4.619,1.502
					c-0.793,0.184-1.571,0.428-2.371,0.563c-0.732,0.097-1.418,0.274-2.418,0.478c-0.503,0.074-1.182,0.183-1.923,0.043
					c-0.743-0.142-1.307-0.505-1.664-0.89c-0.728-0.737-1.076-1.525-1.425-2.333l0.284-0.315c1.138,0.992,2.475,2.256,3.882,1.446
					c1.385-0.681,2.856-1.365,4.274-2.006c2.852-1.325,5.673-2.732,8.47-4.175c5.627-2.813,11.302-5.59,16.649-8.903L111.218,4.819z
					"/>
			</g>
			<path fill="#DB7E00" d="M77.469,18.373c-0.638-0.619-1.401-1.24-1.612-2.25c-0.103-1.11,0.804-1.771,1.378-2.397
				c1.309-1.234,2.397-2.663,3.76-3.89c2.657-2.478,5.765-4.476,9.11-5.892c3.381-1.359,6.999-2.143,10.64-2.132
				c3.629-0.006,7.315,0.803,10.441,2.691l-0.16,0.271c-3.638-0.85-6.975-0.883-10.258-0.484c-1.639,0.251-3.262,0.494-4.833,0.977
				c-1.56,0.416-3.167,0.932-4.587,1.575C89.773,7.449,88.322,8.184,86.889,9c-1.471,0.76-2.816,1.723-4.211,2.665
				c-1.263,0.862-2.726,2.235-4.274,3.257c-0.794,0.492-1.357,0.894-1.479,1.053c-0.184,0.412,0.314,1.403,0.76,2.168L77.469,18.373
				z"/>
			<g>
				<path fill="#C4997D" d="M89.012,4.819c-1.841,2.954-4.348,5.248-6.874,7.195L81.2,12.758c-0.307,0.23-0.721,0.48-1.016,0.688
					L78.2,14.77c-1.368,0.828-2.774,1.58-4.175,2.352c-1.471,0.66-2.892,1.348-4.377,1.93c-1.54,0.531-3.024,1.139-4.619,1.502
					c-0.793,0.184-1.571,0.428-2.37,0.563c-0.731,0.097-1.418,0.274-2.417,0.478c-0.504,0.074-1.183,0.183-1.923,0.043
					c-0.745-0.142-1.308-0.505-1.666-0.89c-0.729-0.737-1.076-1.525-1.424-2.333l0.283-0.315c1.138,0.992,2.475,2.256,3.884,1.446
					c1.384-0.681,2.857-1.365,4.274-2.006c2.851-1.325,5.671-2.732,8.469-4.175c5.626-2.813,11.302-5.59,16.65-8.903L89.012,4.819z"
					/>
			</g>
			<path fill="#DB7E00" d="M55.261,18.373c-0.636-0.619-1.399-1.24-1.61-2.25c-0.102-1.11,0.804-1.771,1.376-2.397
				c1.309-1.234,2.398-2.663,3.761-3.89c2.656-2.478,5.766-4.476,9.109-5.892c3.382-1.359,6.999-2.143,10.64-2.132
				c3.629-0.006,7.317,0.803,10.441,2.691l-0.16,0.271c-3.637-0.85-6.975-0.883-10.259-0.484c-1.639,0.251-3.261,0.494-4.832,0.977
				c-1.56,0.416-3.166,0.932-4.59,1.575C67.567,7.449,66.114,8.184,64.682,9c-1.471,0.76-2.817,1.723-4.211,2.665
				c-1.263,0.862-2.724,2.235-4.275,3.257c-0.793,0.492-1.356,0.894-1.478,1.053c-0.185,0.412,0.314,1.403,0.76,2.168L55.261,18.373
				z"/>
			<path fill="#DB7E00" d="M33.091,18.334c-0.684-0.671-1.604-1.353-1.641-2.521c0.178-1.149,1.117-1.754,1.752-2.477
				c0.728-0.666,1.377-1.41,2.076-2.118c0.708-0.71,1.447-1.378,2.21-2.015l0.138,0.159c-0.264,1.204-0.696,2.148-1.141,2.979
				c-0.112,0.223-0.231,0.459-0.376,0.659l-0.398,0.624c-0.324,0.441-0.699,0.828-1.042,1.209c-0.764,0.638-1.468,1.416-1.566,1.102
				c-0.139-0.152-0.29,0.201-0.183,0.645c0.053,0.473,0.21,0.968,0.313,1.599L33.091,18.334z"/>
			<g>
				<path fill="#C4997D" d="M66.805,4.819c-1.839,2.954-4.348,5.248-6.873,7.195l-0.938,0.743c-0.308,0.23-0.722,0.48-1.017,0.688
					l-1.984,1.324c-1.368,0.828-2.773,1.58-4.176,2.352c-1.471,0.66-2.893,1.348-4.376,1.93c-1.539,0.531-3.025,1.139-4.619,1.502
					c-0.793,0.184-1.571,0.428-2.372,0.563c-0.729,0.097-1.417,0.274-2.416,0.478c-0.504,0.074-1.184,0.183-1.924,0.043
					c-0.743-0.142-1.307-0.505-1.665-0.89c-0.727-0.737-1.076-1.525-1.425-2.333l0.284-0.315c1.138,0.992,2.475,2.256,3.884,1.446
					c1.385-0.681,2.856-1.365,4.273-2.006c2.852-1.325,5.673-2.732,8.47-4.175c5.626-2.813,11.301-5.59,16.648-8.903L66.805,4.819z"
					/>
			</g>
			<path fill="#DB7E00" d="M45.421,4.221c3.333-1.563,7.029-2.371,10.725-2.484c3.691-0.007,7.494,0.75,10.627,2.768l-0.162,0.271
				L61.094,4.8c-1.66,0.045-3.292,0.02-4.887,0.089c-0.878-0.033-1.618,0-2.477,0.026c-0.838-0.054-1.668,0.033-2.543-0.024
				c-1.76-0.01-3.499-0.078-5.65-0.38L45.421,4.221z"/>
			<path fill="#DB7E00" d="M2.103,18.065c-1.037-2.771-1.307-5.992-0.088-8.808c1.204-2.813,3.71-4.908,6.527-5.977
				c2.84-1.014,5.825-1.447,8.81-1.469c2.979,0.003,5.989,0.528,8.71,1.771l-0.129,0.291c-3.123-0.168-5.854,0.018-8.563,0.413
				L15.37,4.648c-0.666,0.126-1.33,0.278-1.98,0.453c-1.306,0.308-2.595,0.639-3.726,1.123c-1.117,0.362-2.11,0.933-3.029,1.627
				c-0.96,0.639-1.66,1.48-2.342,2.405c-1.279,1.899-1.843,4.565-1.89,7.704L2.103,18.065z"/>
			<g>
				<path fill="#C4997D" d="M13.027,13.046c-0.216,1.774-0.75,2.916-1.398,3.824c-0.623,0.949-1.478,1.601-2.344,2.03
					c-0.919,0.425-1.924,0.676-3.071,0.582c-1.128-0.047-2.368-0.34-3.875-1.278l-0.173-0.38c1.724-0.981,3.531-1.777,5.272-2.701
					c1.813-0.794,3.551-1.725,5.4-2.452L13.027,13.046z"/>
			</g>
			<path fill="#DB7E00" d="M11.952,18.373c-0.637-0.619-1.4-1.24-1.612-2.25c-0.101-1.112,0.806-1.771,1.378-2.397
				c1.31-1.234,2.396-2.663,3.76-3.89c2.655-2.478,5.765-4.476,9.109-5.892c3.381-1.359,7-2.143,10.642-2.132
				c3.625-0.006,7.313,0.804,10.44,2.691L45.51,4.775c-3.639-0.85-6.975-0.883-10.259-0.484c-1.641,0.251-3.262,0.494-4.833,0.977
				c-1.562,0.416-3.167,0.932-4.589,1.575c-1.573,0.606-3.027,1.341-4.458,2.155c-1.471,0.762-2.817,1.72-4.21,2.664
				c-1.261,0.865-2.723,2.238-4.274,3.26c-0.794,0.492-1.358,0.894-1.477,1.053c-0.186,0.412,0.312,1.403,0.757,2.168L11.952,18.373
				z"/>
			<g>
				<path fill="#C4997D" d="M45.701,4.819c-1.838,2.954-4.347,5.248-6.875,7.193l-0.937,0.745c-0.309,0.23-0.721,0.479-1.015,0.686
					l-1.986,1.326c-1.369,0.828-2.772,1.58-4.175,2.352c-1.471,0.66-2.893,1.348-4.376,1.93c-1.541,0.526-3.025,1.138-4.619,1.502
					c-0.794,0.184-1.571,0.428-2.373,0.563c-0.73,0.097-1.415,0.274-2.414,0.478c-0.505,0.074-1.184,0.179-1.924,0.043
					c-0.744-0.142-1.308-0.505-1.667-0.89c-0.726-0.737-1.074-1.525-1.423-2.333l0.285-0.315c1.138,0.992,2.472,2.256,3.883,1.443
					c1.385-0.678,2.856-1.362,4.272-2.003c2.854-1.325,5.672-2.734,8.47-4.175c5.626-2.813,11.302-5.59,16.649-8.903L45.701,4.819z"
					/>
			</g>
			<path fill="#BE5A00" d="M231.099,12.163c-3.329,1.765-6.69,3.471-10.096,5.087c-1.703,0.796-3.47,1.488-5.158,2.292
				c-0.807,0.382-1.818,0.915-2.798,0.482c-0.913-0.389-1.603-1.058-2.301-1.689l0.142-0.155c0.936,0.322,1.868,0.804,2.552,0.81
				c0.335,0,0.434-0.097,0.686-0.257l0.995-0.678c1.695-1.136,3.31-1.86,5-2.71c1.706-0.752,3.406-1.493,5.229-2.071
				c1.777-0.588,3.639-1.098,5.648-1.302L231.099,12.163z"/>
			<path fill="#BE5A00" d="M222.193,4.731c-5.314,3.41-10.942,6.286-16.535,9.196c-2.827,1.4-5.671,2.759-8.557,4.044
				c-1.455,0.629-2.876,1.26-4.318,1.936c-0.719,0.354-1.682,0.361-2.37-0.098c-0.702-0.407-1.29-0.942-1.877-1.475l0.143-0.155
				c0.708,0.381,1.415,0.787,2.071,1.023c0.715,0.231,1.025,0.062,1.61-0.322c0.592-0.356,1.299-0.815,2.023-1.221l2.048-1.176
				c2.703-1.58,5.506-2.991,8.285-4.435c2.8-1.379,5.639-2.764,8.523-4c2.892-1.282,5.808-2.375,8.842-3.496L222.193,4.731z"/>
			<path fill="#BE5A00" d="M199.987,4.731c-5.313,3.41-10.94,6.286-16.534,9.196c-2.828,1.4-5.672,2.759-8.558,4.044
				c-1.455,0.629-2.876,1.26-4.319,1.936c-0.719,0.354-1.68,0.361-2.368-0.098c-0.703-0.407-1.294-0.942-1.877-1.475l0.143-0.155
				c0.708,0.381,1.413,0.787,2.07,1.023c0.714,0.231,1.022,0.062,1.611-0.322c0.59-0.356,1.295-0.815,2.021-1.221l2.047-1.176
				c2.707-1.58,5.507-2.991,8.289-4.435c2.801-1.379,5.637-2.764,8.522-4c2.893-1.282,5.806-2.375,8.842-3.496L199.987,4.731z"/>
			<path fill="#BE5A00" d="M177.781,4.731c-5.316,3.41-10.942,6.286-16.536,9.196c-2.826,1.4-5.671,2.759-8.556,4.044
				c-1.453,0.629-2.879,1.26-4.321,1.936c-0.715,0.354-1.679,0.361-2.37-0.098c-0.701-0.407-1.288-0.942-1.874-1.475l0.146-0.155
				c0.704,0.381,1.411,0.787,2.068,1.023c0.717,0.231,1.026,0.062,1.608-0.322c0.593-0.356,1.3-0.815,2.025-1.221l2.046-1.176
				c2.703-1.58,5.508-2.991,8.287-4.435c2.8-1.379,5.639-2.764,8.522-4c2.891-1.282,5.809-2.375,8.844-3.496L177.781,4.731z"/>
			<path fill="#BE5A00" d="M155.574,4.731c-5.314,3.41-10.94,6.286-16.535,9.196c-2.828,1.4-5.672,2.759-8.557,4.044
				c-1.457,0.629-2.876,1.26-4.319,1.936c-0.718,0.354-1.682,0.361-2.372-0.098c-0.699-0.407-1.29-0.942-1.873-1.475l0.142-0.155
				c0.708,0.381,1.414,0.787,2.071,1.023c0.713,0.231,1.024,0.062,1.609-0.322c0.589-0.356,1.297-0.815,2.021-1.221l2.046-1.176
				c2.708-1.58,5.509-2.991,8.287-4.435c2.803-1.379,5.641-2.764,8.524-4c2.893-1.282,5.808-2.375,8.84-3.496L155.574,4.731z"/>
			<path fill="#BE5A00" d="M133.367,4.731c-5.313,3.41-10.938,6.286-16.533,9.196c-2.828,1.4-5.674,2.759-8.558,4.044
				c-1.455,0.629-2.875,1.26-4.318,1.936c-0.72,0.354-1.681,0.361-2.37-0.098c-0.7-0.407-1.292-0.942-1.874-1.475l0.142-0.155
				c0.705,0.381,1.413,0.787,2.07,1.023c0.714,0.231,1.024,0.062,1.61-0.322c0.59-0.356,1.297-0.815,2.022-1.221l2.047-1.176
				c2.705-1.58,5.508-2.991,8.286-4.435c2.8-1.379,5.64-2.764,8.524-4c2.892-1.282,5.81-2.375,8.844-3.496L133.367,4.731z"/>
			<path fill="#BE5A00" d="M111.163,4.731c-5.315,3.41-10.941,6.286-16.536,9.196c-2.828,1.4-5.674,2.759-8.558,4.044
				c-1.455,0.629-2.875,1.26-4.319,1.936c-0.72,0.354-1.681,0.361-2.37-0.098c-0.702-0.407-1.291-0.942-1.875-1.475l0.143-0.155
				c0.706,0.381,1.413,0.787,2.069,1.023c0.716,0.231,1.026,0.062,1.611-0.322c0.591-0.356,1.297-0.815,2.021-1.221l2.048-1.176
				c2.706-1.58,5.508-2.991,8.287-4.435c2.799-1.379,5.638-2.764,8.523-4c2.892-1.282,5.809-2.375,8.842-3.496L111.163,4.731z"/>
			<path fill="#BE5A00" d="M88.957,4.731c-5.315,3.41-10.941,6.286-16.536,9.196c-2.827,1.4-5.672,2.759-8.556,4.044
				c-1.457,0.629-2.877,1.26-4.32,1.936c-0.719,0.354-1.681,0.361-2.37-0.098c-0.7-0.407-1.292-0.942-1.876-1.475l0.142-0.155
				c0.706,0.381,1.415,0.787,2.072,1.023c0.715,0.231,1.023,0.062,1.609-0.322c0.591-0.356,1.297-0.815,2.022-1.221l2.048-1.176
				c2.705-1.58,5.507-2.991,8.286-4.435c2.799-1.379,5.638-2.764,8.522-4c2.893-1.282,5.809-2.375,8.842-3.496L88.957,4.731z"/>
			<path fill="#BE5A00" d="M66.751,4.731c-5.315,3.41-10.942,6.286-16.537,9.196c-2.827,1.4-5.673,2.759-8.558,4.044
				c-1.456,0.629-2.875,1.26-4.318,1.936c-0.719,0.354-1.681,0.361-2.37-0.098c-0.701-0.407-1.292-0.942-1.877-1.475l0.142-0.155
				c0.707,0.381,1.416,0.787,2.072,1.023c0.715,0.231,1.025,0.062,1.611-0.322c0.588-0.356,1.297-0.815,2.022-1.221l2.047-1.176
				c2.705-1.58,5.508-2.991,8.286-4.435c2.8-1.379,5.638-2.764,8.523-4c2.892-1.282,5.809-2.375,8.842-3.496L66.751,4.731z"/>
			<path fill="#BE5A00" d="M12.979,12.952l-5.263,2.737c-1.797,0.83-3.604,1.637-5.421,2.42l-0.086-0.194
				c0.594-1.085,1.329-1.838,2.103-2.494c0.771-0.673,1.617-1.165,2.482-1.618c0.91-0.413,1.806-0.758,2.816-0.954
				c1.002-0.211,2.06-0.306,3.276-0.083L12.979,12.952z"/>
			<path fill="#BE5A00" d="M45.646,4.731c-2.645,1.719-5.398,3.276-8.168,4.779c-2.768,1.512-5.559,2.98-8.368,4.417
				c-2.828,1.399-5.674,2.759-8.558,4.044c-1.456,0.629-2.876,1.26-4.317,1.936c-0.721,0.354-1.682,0.361-2.371-0.098
				c-0.701-0.407-1.291-0.942-1.875-1.475l0.142-0.155c0.706,0.381,1.414,0.787,2.07,1.023c0.714,0.231,1.025,0.062,1.61-0.322
				c0.589-0.359,1.297-0.815,2.025-1.221l2.045-1.176c2.703-1.58,5.508-2.991,8.286-4.435c2.8-1.379,5.637-2.764,8.525-4
				c2.89-1.282,5.808-2.375,8.84-3.496L45.646,4.731z"/>
			<g>
				<path fill="#BB8258" d="M52.141,96.26c23.096,0.98,46.214,1.4,69.329,1.423c23.113,0.068,46.234-0.259,69.328-1.355l0.007,0.211
					c-5.752,0.687-11.526,1.096-17.297,1.581c-5.773,0.369-11.554,0.672-17.335,0.951c-11.564,0.522-23.136,0.585-34.708,0.715
					c-11.57-0.165-23.141-0.288-34.701-0.819l-17.332-0.962c-5.771-0.481-11.543-0.871-17.299-1.534L52.141,96.26z"/>
			</g>
			<path fill="#CA7D1F" d="M133.552,97.901l-0.676,2.136l-0.853,2.082l-0.149-0.057c-0.728-1.073-0.702-1.846-0.484-2.55
				c0.285-0.697,0.764-1.317,2.015-1.665L133.552,97.901z"/>
			<path fill="#CA7D1F" d="M141.009,71.171c-0.463,2.229-0.952,4.456-1.465,6.673c-0.574,2.205-1.176,4.398-1.803,6.589
				l-0.149-0.043c-0.204-1.233-0.249-2.421-0.125-3.558c0.075-1.151,0.292-2.263,0.548-3.368c0.285-1.091,0.602-2.173,1.069-3.227
				c0.424-1.069,1.014-2.104,1.771-3.099L141.009,71.171z"/>
			<path fill="#CA7D1F" d="M145.594,44.035l-0.81,6.651l-1.106,6.608l-0.158-0.023c-0.672-2.378-0.571-4.604-0.296-6.811
				c0.357-2.196,0.89-4.358,2.215-6.445L145.594,44.035z"/>
			<path fill="#CA7D1F" d="M147.631,20.02l-0.208,5.284l-0.458,5.27l-0.157-0.012c-0.909-1.839-1.023-3.603-0.959-5.354
				c0.149-1.752,0.484-3.479,1.623-5.195L147.631,20.02z"/>
			<path fill="#CA7D1F" d="M52.141,96.29l34.679,0.083c11.552,0.039,23.103,0.183,34.652,0.103
				c11.55,0.133,23.098,0.021,34.652,0.019l34.674-0.141l0.007,0.157c-23.09,1.156-46.216,1.546-69.335,1.54
				c-23.12-0.082-46.239-0.564-69.334-1.609L52.141,96.29z"/>
			<g>
				<path fill="#BB8258" d="M33.269,81.808c7.371,0.193,14.727,0.248,22.098,0.256c7.369,0.162,14.708,0.247,22.075,0.278
					c14.716,0.113,29.425,0.335,44.138,0.223c14.71,0.178,29.42-0.001,44.132-0.101c7.356-0.028,14.714-0.141,22.07-0.302
					c7.359-0.054,14.722-0.188,22.086-0.448l0.018,0.21c-29.383,2.169-58.857,2.72-88.309,2.744
					c-14.73-0.049-29.457-0.273-44.18-0.69c-7.361-0.21-14.723-0.454-22.078-0.804c-7.357-0.309-14.714-0.664-22.062-1.156
					L33.269,81.808z"/>
			</g>
			<g>
				<path fill="#BB8258" d="M22.12,67.548c8.267,0.709,16.553,1.132,24.841,1.535c8.285,0.463,16.58,0.729,24.874,0.986
					c16.587,0.485,33.183,0.726,49.779,0.739c16.594,0.047,33.19-0.13,49.775-0.629c16.585-0.518,33.17-1.307,49.692-2.856
					l0.021,0.21c-8.235,1.077-16.504,1.953-24.78,2.706c-8.286,0.648-16.581,1.141-24.877,1.573
					c-16.604,0.81-33.222,0.979-49.834,1.099c-16.617-0.175-33.229-0.418-49.826-1.203c-8.299-0.439-16.59-0.862-24.88-1.513
					c-8.27-0.708-16.561-1.428-24.802-2.438L22.12,67.548z"/>
			</g>
			<g>
				<path fill="#BB8258" d="M14.588,53.395c8.888,0.653,17.794,0.937,26.698,1.144c8.897,0.307,17.8,0.522,26.704,0.65
					c17.804,0.301,35.608,0.604,53.413,0.505c17.804,0.178,35.606-0.067,53.405-0.38c8.9-0.14,17.794-0.397,26.692-0.769
					c8.898-0.273,17.8-0.687,26.685-1.399l0.021,0.21c-17.717,1.986-35.533,2.938-53.345,3.59
					c-17.813,0.624-35.64,0.864-53.463,0.848c-17.824-0.055-35.648-0.366-53.463-0.972c-17.808-0.648-35.63-1.394-53.369-3.217
					L14.588,53.395z"/>
			</g>
			<path fill="#CA7D1F" d="M33.269,81.834c7.349,0.477,14.703,0.817,22.059,1.107c7.357,0.337,14.715,0.568,22.077,0.762
				c14.719,0.386,29.446,0.575,44.172,0.594c29.448,0.043,58.913-0.451,88.292-2.559l0.013,0.158
				c-7.327,0.768-14.671,1.408-22.02,1.97c-7.355,0.48-14.72,0.854-22.081,1.177c-14.728,0.614-29.473,0.744-44.208,0.828
				c-14.737-0.134-29.477-0.329-44.202-0.939c-14.725-0.603-29.443-1.524-44.113-2.938L33.269,81.834z"/>
			<path fill="#CA7D1F" d="M22.118,67.576c8.29,0.5,16.575,0.712,24.877,0.907c8.281,0.332,16.579,0.489,24.87,0.632
				c16.583,0.291,33.166,0.56,49.75,0.487c16.585,0.141,33.166-0.072,49.747-0.369c8.288-0.137,16.579-0.366,24.864-0.694
				c8.29-0.249,16.579-0.617,24.857-1.188l0.016,0.154c-16.525,1.578-33.112,2.404-49.702,2.952
				c-16.587,0.526-33.188,0.737-49.783,0.722c-16.6-0.046-33.196-0.32-49.787-0.836c-8.295-0.271-16.591-0.554-24.877-1.029
				c-8.287-0.422-16.577-0.856-24.846-1.581L22.118,67.576z"/>
			<path fill="#CA7D1F" d="M14.585,53.423c17.732,1.792,35.553,2.503,53.358,3.129c17.813,0.566,35.634,0.849,53.454,0.875
				c17.822,0.045,35.643-0.163,53.453-0.76c17.81-0.618,35.622-1.54,53.335-3.494l0.018,0.157
				c-8.835,1.214-17.708,2.137-26.597,2.915c-8.896,0.695-17.8,1.215-26.713,1.65c-17.821,0.825-35.665,1.026-53.499,1.104
				c-17.835-0.143-35.671-0.424-53.492-1.224c-8.909-0.423-17.815-0.904-26.712-1.526c-8.889-0.717-17.78-1.51-26.624-2.671
				L14.585,53.423z"/>
			<g>
				<path fill="#BB8258" d="M9.525,39.336c9.266,1.228,18.608,1.827,27.938,2.396c9.335,0.532,18.677,0.96,28.023,1.239
					c18.695,0.653,37.392,0.943,56.096,0.967c18.7,0.047,37.406-0.18,56.094-0.848c18.684-0.704,37.381-1.705,55.934-4.038
					l0.029,0.209c-9.244,1.482-18.55,2.58-27.874,3.518c-9.329,0.827-18.681,1.431-28.03,1.945
					c-18.708,0.976-37.434,1.194-56.157,1.315c-18.708-0.18-37.471-0.481-56.142-1.432c-9.361-0.456-18.701-1.041-28.04-1.766
					c-9.323-0.871-18.658-1.773-27.9-3.298L9.525,39.336z"/>
			</g>
			<g>
				<path fill="#BB8258" d="M6.618,25.446c9.514,1.273,19.102,1.44,28.695,1.823c9.559,0.489,19.155,0.738,28.73,0.886L92.8,28.692
					c9.578,0.078,19.177,0.16,28.756,0.126c9.573,0.077,19.171,0.032,28.752-0.03l14.358-0.22c4.799-0.155,9.596-0.241,14.391-0.314
					c9.571-0.154,19.168-0.47,28.712-1.056l14.37-0.727c4.781-0.325,9.562-0.719,14.331-1.24l0.03,0.207
					c-4.753,0.669-9.521,1.218-14.297,1.69l-14.346,1.175c-9.568,0.779-19.155,1.246-28.745,1.579
					c-19.174,0.824-38.374,1.008-57.561,1.036c-19.19-0.106-38.387-0.358-57.562-1.124c-9.591-0.329-19.178-0.735-28.752-1.415
					c-9.567-0.684-19.171-1.149-28.654-2.729L6.618,25.446z"/>
			</g>
			<path fill="#CA7D1F" d="M9.521,39.362c9.295,1.017,18.639,1.407,27.978,1.769c9.334,0.406,18.679,0.725,28.017,0.888
				c18.707,0.458,37.367,0.779,56.068,0.712c18.69,0.143,37.377-0.121,56.055-0.586c9.344-0.219,18.679-0.563,28.013-1.063
				c9.332-0.433,18.663-1.023,27.962-2.004l0.021,0.157c-18.564,2.361-37.263,3.398-55.948,4.134
				c-18.693,0.696-37.401,0.958-56.107,0.939c-18.705-0.054-37.411-0.38-56.103-1.062c-9.347-0.297-18.691-0.735-28.028-1.282
				c-9.333-0.591-18.673-1.201-27.948-2.445L9.521,39.362z"/>
			<path fill="#CA7D1F" d="M6.614,25.471c9.47,1.557,19.072,2.009,28.64,2.677c9.569,0.668,19.158,1.06,28.746,1.37
				c19.179,0.735,38.365,0.959,57.553,1.036c19.187,0.001,38.373-0.154,57.553-0.941c9.587-0.322,19.176-0.775,28.734-1.538
				l14.347-1.151c4.773-0.47,9.538-1.006,14.287-1.667l0.025,0.155c-4.738,0.778-9.497,1.423-14.269,2.006l-14.327,1.482
				c-9.574,0.91-19.154,1.479-28.76,1.932c-19.159,1.023-38.399,1.177-57.594,1.296c-19.196-0.194-38.428-0.421-57.59-1.381
				C54.36,30.3,44.776,29.788,35.198,28.98c-9.546-0.891-19.163-1.571-28.61-3.355L6.614,25.471z"/>
			<g>
				<path fill="#BB8258" d="M42.173,42.157c-0.986-0.945-1.61-1.981-2.104-3.083c-0.506-1.087-0.795-2.22-1.02-3.368
					c-0.327-2.306-0.326-4.695,0.854-7.119l0.21-0.02c0.255,2.277,0.595,4.542,1.008,6.793c0.346,2.263,0.763,4.512,1.256,6.754
					L42.173,42.157z"/>
			</g>
			<g>
				<path fill="#BB8258" d="M24.535,41.015c-0.571-2.229-1.07-4.488-1.48-6.76c-0.343-2.283-0.602-4.577-0.763-6.88l0.21-0.015
					c0.838,1.084,1.341,2.166,1.741,3.256c0.427,1.087,0.666,2.188,0.883,3.294c0.156,1.119,0.288,2.243,0.232,3.404
					c-0.033,1.146-0.159,2.364-0.619,3.65L24.535,41.015z"/>
			</g>
			<path fill="#CA7D1F" d="M113.648,30.676c1.129,2.206,1.445,4.436,1.564,6.674c0.038,2.241-0.117,4.484-1.077,6.769l-0.157,0.008
				l-0.341-6.722l-0.148-6.727L113.648,30.676z"/>
			<path fill="#CA7D1F" d="M96.229,30.334l1.381,13.598l-0.157,0.018c-1.325-2.134-1.823-4.386-2.098-6.658
				c-0.191-2.277-0.159-4.592,0.716-6.945L96.229,30.334z"/>
			<path fill="#CA7D1F" d="M164.355,30.242c-0.248,2.256-0.52,4.515-0.825,6.768c-0.356,2.246-0.74,4.486-1.152,6.723l-0.157-0.027
				c-0.649-2.418-0.535-4.68-0.249-6.926c0.363-2.232,0.902-4.427,2.228-6.56L164.355,30.242z"/>
			<path fill="#CA7D1F" d="M184.262,29.569c-0.288,2.269-0.619,4.537-0.991,6.809c-0.434,2.252-0.907,4.496-1.42,6.732l-0.156-0.034
				c-0.268-1.236-0.372-2.419-0.313-3.568c0-1.158,0.153-2.287,0.339-3.41c0.211-1.109,0.455-2.217,0.854-3.304
				c0.338-1.108,0.852-2.19,1.529-3.25L184.262,29.569z"/>
			<path fill="#CA7D1F" d="M42.199,42.15c-0.552-2.222-1.034-4.472-1.439-6.729c-0.356-2.268-0.634-4.55-0.83-6.836l0.156-0.017
				c1.273,2.177,1.811,4.362,2.227,6.594c0.34,2.242,0.542,4.472,0.04,6.959L42.199,42.15z"/>
			<path fill="#CA7D1F" d="M24.561,41.007c-1.566-1.976-2.282-4.265-2.699-6.553c-0.339-2.31-0.399-4.689,0.456-7.08l0.159-0.011
				c0.221,2.289,0.54,4.569,0.941,6.831c0.35,2.273,0.784,4.531,1.295,6.778L24.561,41.007z"/>
			<g>
				<defs>
					<path id="SVGID_1_" d="M245.103,3.17c-0.796,0.082-1.533,0.333-2.268,0.631c-3.197-1.494-6.667-1.915-10.072-1.77
						c-3.935,0.231-7.781,1.306-11.25,3.05c-0.295,0.148-0.59,0.294-0.863,0.463c0.485-0.314,0.991-0.629,1.492-0.947
						c-3.614-2.122-7.651-2.753-11.588-2.565c-3.927,0.231-7.778,1.306-11.27,3.05c-0.209,0.104-0.442,0.23-0.652,0.337
						c0.443-0.272,0.864-0.547,1.307-0.821c-3.62-2.122-7.657-2.753-11.59-2.565c-3.933,0.231-7.779,1.306-11.269,3.05
						c-0.211,0.104-0.44,0.23-0.651,0.337c0.44-0.272,0.861-0.547,1.304-0.821c-3.62-2.122-7.654-2.753-11.586-2.565
						c-3.935,0.231-7.782,1.306-11.271,3.05c-0.212,0.104-0.447,0.23-0.653,0.337c0.418-0.272,0.842-0.547,1.282-0.821
						c-3.595-2.122-7.636-2.753-11.566-2.565c-3.93,0.231-7.776,1.306-11.27,3.05c-0.211,0.104-0.441,0.23-0.65,0.337
						c0.419-0.272,0.838-0.547,1.283-0.821c-3.599-2.122-7.639-2.753-11.567-2.565c-3.932,0.231-7.781,1.306-11.272,3.05
						c-0.209,0.104-0.441,0.23-0.651,0.337c0.421-0.272,0.843-0.547,1.283-0.821c-3.596-2.122-7.634-2.753-11.564-2.565
						c-3.934,0.231-7.802,1.306-11.273,3.05c-0.209,0.104-0.442,0.23-0.651,0.337c0.419-0.272,0.841-0.547,1.282-0.821
						c-3.595-2.122-7.632-2.753-11.565-2.565c-3.933,0.231-7.801,1.306-11.271,3.05c-0.296,0.148-0.589,0.294-0.862,0.463
						c0.484-0.314,0.988-0.629,1.493-0.947c-3.597-2.122-7.634-2.753-11.565-2.565c-3.342,0.189-6.602,0.991-9.651,2.293
						l-0.084,0.168c-3.555-2.037-7.528-2.648-11.376-2.461c-2.735,0.17-5.445,0.736-8.011,1.664c-3.134-1.412-6.52-1.81-9.822-1.664
						c-2.963,0.17-6.918,0.905-9.462,2.42c-4.858,2.86-6.476,7.865-4.458,13.522c1.283-0.569,2.523-1.158,3.765-1.747
						c-0.043,2.733,0.127,5.866,0.588,9.274c0.546,4.264,1.514,8.978,2.902,13.897c1.304,4.564,2.986,9.295,5.089,14.068
						c2.081,4.753,4.584,9.524,7.506,14.149h0.021c3.176,5.006,6.877,9.822,11.144,14.26h0.023
						c5.362,5.593,11.628,10.557,18.882,14.445c0.483,0.296,0.967,0.546,1.471,0.797c0,0,14.742,2.776,38.209,4.311
						c3.848,0.256,7.949,0.464,12.258,0.634c5.489,0.188,11.315,0.312,17.412,0.312c1.346,0,2.671,0,3.973-0.017
						c2.188-0.021,4.354-0.044,6.459-0.106c11.289-0.249,21.364-0.885,29.796-1.638c4.898-0.424,9.231-0.906,12.931-1.348
						c9.375-1.135,14.72-2.147,14.72-2.147c0.462-0.231,0.926-0.484,1.365-0.732h0.021c7.34-3.935,13.669-8.962,19.072-14.615
						c4.313-4.479,8.033-9.337,11.231-14.383c2.9-4.585,5.382-9.315,7.441-14.024c2.104-4.84,3.787-9.631,5.089-14.237
						c1.39-4.9,2.335-9.591,2.86-13.838c0.315-2.523,0.505-4.899,0.544-7.065l-0.479-0.081
						C238.523,16.227,244.81,9.581,245.103,3.17z"/>
				</defs>
				<clipPath id="SVGID_2_">
					<use xlink:href="#SVGID_1_"  overflow="visible"/>
				</clipPath>
			</g>
		</g>
	</g>
</g>
</svg>
