<?xml version="1.0" encoding="utf-8"?>
<!-- Generator: Adobe Illustrator 16.0.0, SVG Export Plug-In . SVG Version: 6.00 Build 0)  -->
<!DOCTYPE svg PUBLIC "-//W3C//DTD SVG 1.1//EN" "http://www.w3.org/Graphics/SVG/1.1/DTD/svg11.dtd">
<svg version="1.1" xmlns="http://www.w3.org/2000/svg" xmlns:xlink="http://www.w3.org/1999/xlink" x="0px" y="0px" width="232px"
	 height="214px" viewBox="0 0 232 214" enable-background="new 0 0 232 214" xml:space="preserve">
<g id="BACKGROUND" display="none">
</g>
<g id="OBJECTS">
	<g>
		<g display="none">
			<g>
				<g display="inline">
					<defs>
						<path id="SVGID_1_" d="M618.521-284.92"/>
					</defs>
					<clipPath id="SVGID_2_">
						<use xlink:href="#SVGID_1_"  overflow="visible"/>
					</clipPath>
				</g>
			</g>
		</g>
		<g display="none">
			<g display="inline">
				<g>
					<radialGradient id="SVGID_3_" cx="113.0864" cy="25.3154" r="0" gradientUnits="userSpaceOnUse">
						<stop  offset="0" style="stop-color:#FFFFFF"/>
						<stop  offset="1" style="stop-color:#CFCFD0"/>
					</radialGradient>
					<path fill-rule="evenodd" clip-rule="evenodd" fill="url(#SVGID_3_)" d="M113.086,25.315"/>
				</g>
			</g>
		</g>
		<g>
			<polygon fill-rule="evenodd" clip-rule="evenodd" fill="#989898" points="180.047,83.451 181.982,104.292 150.182,106.187 
				159.246,122.209 134.957,124.916 151.368,154.533 124.268,154.197 137.444,177.711 119.743,186.559 180.436,183.527 
				214.712,117.568 			"/>
			<polygon fill-rule="evenodd" clip-rule="evenodd" fill="#989898" points="103.209,194.152 117.494,166.916 94.82,159.643 
				107.65,143.02 79.034,140.045 88.56,125.037 69.417,117.941 72.597,101.123 49.451,87.368 34.826,159.279 			"/>
			<g>
				<g>
					<path fill="#F78E00" d="M99.767,101.374c0.305-0.835,1.23-1.267,2.065-0.96c0.835,0.305,1.265,1.229,0.96,2.065
						c-1.796,4.966-4.422,10.753-7.736,15.972c-2.683,4.229-5.826,8.086-9.357,10.84c-0.699,0.547-1.708,0.42-2.252-0.279
						c-0.545-0.699-0.42-1.707,0.28-2.254c3.212-2.506,6.113-6.078,8.619-10.027C95.504,111.754,98.027,106.18,99.767,101.374z"/>
					<path fill="#F78E00" d="M85.19,126.508c0.589,0.186,1.044,0.709,1.112,1.363c0.093,0.881-0.547,1.674-1.43,1.766
						c-1.787,0.184-3.928,0.525-6.104,1.23c-2.127,0.688-4.289,1.727-6.175,3.309c-0.677,0.572-1.69,0.484-2.261-0.191
						c-0.572-0.68-0.486-1.691,0.192-2.264c1.912-1.604,4.029-2.729,6.14-3.521c-1.873-0.061-3.832,0.123-5.759,0.717
						c-0.848,0.264-1.749-0.211-2.01-1.059c-0.263-0.848,0.212-1.748,1.06-2.012c2.388-0.734,4.777-0.947,7.03-0.857
						c-1.701-0.779-3.581-1.373-5.595-1.574c-0.883-0.092-1.525-0.881-1.434-1.764c0.091-0.883,0.88-1.525,1.763-1.434
						c2.913,0.295,5.555,1.258,7.855,2.471C81.802,123.863,83.692,125.262,85.19,126.508z"/>
					<path fill-rule="evenodd" clip-rule="evenodd" fill="#FDD25B" d="M107.879,91.74c5.816,2.966,8.127,10.084,5.162,15.9
						c-2.965,5.817-10.084,8.127-15.9,5.161c-5.816-2.963-8.127-10.083-5.162-15.9C94.945,91.085,102.063,88.774,107.879,91.74z"/>
				</g>
				<g>
					<path fill="#F78E00" d="M125.719,111.758c-0.062-0.889,0.608-1.656,1.496-1.719c0.888-0.061,1.656,0.609,1.718,1.498
						c0.379,5.266,0.335,11.619-0.566,17.738c-0.73,4.953-2.032,9.754-4.137,13.709c-0.417,0.781-1.39,1.078-2.172,0.662
						c-0.782-0.42-1.078-1.393-0.661-2.174c1.915-3.596,3.109-8.041,3.792-12.668C126.049,122.973,126.086,116.855,125.719,111.758z
						"/>
					<path fill="#F78E00" d="M122.649,140.617c0.615-0.07,1.243,0.221,1.572,0.793c0.443,0.768,0.179,1.75-0.588,2.195
						c-1.557,0.893-3.375,2.076-5.075,3.605c-1.662,1.496-3.215,3.322-4.293,5.535c-0.387,0.799-1.347,1.131-2.145,0.746
						c-0.798-0.387-1.131-1.346-0.745-2.145c1.093-2.242,2.57-4.131,4.175-5.717c-1.734,0.709-3.448,1.674-4.968,3.002
						c-0.668,0.584-1.684,0.516-2.268-0.152c-0.585-0.668-0.518-1.682,0.15-2.268c1.881-1.643,3.977-2.809,6.071-3.643
						c-1.871-0.023-3.828,0.203-5.751,0.836c-0.844,0.275-1.751-0.184-2.027-1.027c-0.276-0.844,0.183-1.75,1.026-2.025
						c2.78-0.918,5.586-1.113,8.181-0.939C118.479,139.58,120.774,140.09,122.649,140.617z"/>
					<circle fill-rule="evenodd" clip-rule="evenodd" fill="#FDD25B" cx="128.59" cy="111.461" r="11.821"/>
				</g>
				<circle fill-rule="evenodd" clip-rule="evenodd" fill="#FDD25B" cx="125.027" cy="70.793" r="43.784"/>
				<path fill-rule="evenodd" clip-rule="evenodd" fill="#FBB334" d="M141.292,30.133c-7.523-3.357,8.18-9.272,3.291-11.61
					c-4.891-2.339-5.454,3.568-8.912,2.707c-3.46-0.86,1.962-13.17-6.756-13.751c-8.718-0.58,5.914,16.394-2.517,14.348
					c-2.954-0.718-2.18-8.908-8.038-7.97c-6.87,1.101,13.116,11.171,1.262,13.478l-0.03,0.006c4.031-0.502,7.56,4.71,11.298,5.313
					c3.739,0.604,7.5-3.681,10.448-2.5L141.292,30.133z"/>
				<circle fill-rule="evenodd" clip-rule="evenodd" fill="#FBB334" cx="141.179" cy="73.428" r="9.221"/>
				<g>
					<g>
						<circle fill-rule="evenodd" clip-rule="evenodd" fill="#4D4D4D" cx="141.753" cy="57.61" r="5.743"/>
						<circle fill-rule="evenodd" clip-rule="evenodd" fill="#989898" cx="140.562" cy="55.071" r="2.158"/>
					</g>
					<g>
						<circle fill-rule="evenodd" clip-rule="evenodd" fill="#4D4D4D" cx="113.29" cy="53.017" r="5.743"/>
						<circle fill-rule="evenodd" clip-rule="evenodd" fill="#989898" cx="112.098" cy="50.477" r="2.158"/>
					</g>
				</g>
				<g>
					<path fill-rule="evenodd" clip-rule="evenodd" fill="#F78E00" d="M126.643,60.752c11.142,1.798,3.632,15.903-2.409,14.927
						C118.192,74.704,115.501,58.954,126.643,60.752z"/>
					<path fill-rule="evenodd" clip-rule="evenodd" fill="#EB8700" d="M132.344,65.937c0.198,2.287-0.833,4.867-2.405,6.805
						C127.9,70.758,127.634,65.197,132.344,65.937z"/>
					<path fill-rule="evenodd" clip-rule="evenodd" fill="#EB8700" d="M119.594,63.878c-0.907,2.108-0.741,4.883,0.141,7.217
						C122.294,69.854,124.298,64.659,119.594,63.878z"/>
				</g>
				<circle fill-rule="evenodd" clip-rule="evenodd" fill="#FBB334" cx="109.07" cy="68.247" r="9.221"/>
				<path fill-rule="evenodd" clip-rule="evenodd" fill="#FBB334" d="M166.555,51.114c8.463-9.303,33.003-17.513,53.093-1.748
					c5.313,4.169-7.072,10.448-15.474,7.696c4.745,3.053,0.541,6.938-9.717,6.406c6.205,3.79-6.619,5.862-14.335,5.067
					C167.463,67.233,153.138,65.858,166.555,51.114z"/>
				<path fill-rule="evenodd" clip-rule="evenodd" fill="#FBB334" d="M94.558,37.505C91.053,25.426,72.632,7.254,47.654,12.567
					c-6.606,1.405,1.751,12.494,10.506,13.721c-5.604,0.653-3.539,5.993,5.906,10.029c-7.24,0.672,3.363,8.177,10.642,10.86
					C86.648,51.58,100.116,56.651,94.558,37.505z"/>
			</g>
			<g>
				<g>
					<defs>
						<polygon id="SVGID_4_" points="38.189,87.781 66.124,86.755 51.301,110.434 68.517,109.666 63.479,125.271 73.065,133.533 
							59.981,158.34 94.82,159.643 93.596,169.6 112.271,171.025 96.928,210.186 38.256,240.922 -24.707,120.729 						"/>
					</defs>
					<clipPath id="SVGID_5_">
						<use xlink:href="#SVGID_4_"  overflow="visible"/>
					</clipPath>
					<g clip-path="url(#SVGID_5_)">
						<radialGradient id="SVGID_6_" cx="50.8203" cy="154.7949" r="102.5654" gradientUnits="userSpaceOnUse">
							<stop  offset="0" style="stop-color:#FFFFFF"/>
							<stop  offset="1" style="stop-color:#CFCFD0"/>
						</radialGradient>
						<path fill-rule="evenodd" clip-rule="evenodd" fill="url(#SVGID_6_)" d="M9.026,176.234
							c15.393,29.385,63.998,34.283,102.442,14.145c38.445-20.141,52.173-57.689,36.78-87.074
							C132.854,73.92,94.17,63.829,55.725,83.966C17.281,104.106-6.367,146.852,9.026,176.234z"/>
					</g>
				</g>
				<polygon fill-rule="evenodd" clip-rule="evenodd" fill="#989898" points="58.67,160.826 53.342,170.928 44.401,170.934 
					39.757,174.902 44.227,169.354 52.556,169.908 72.515,134.574 				"/>
				<polygon fill-rule="evenodd" clip-rule="evenodd" fill="#989898" points="42.83,131 46.336,123.838 44.618,119.275 
					48.43,113.785 55.418,103.857 45.718,119.35 47.643,124.037 				"/>
			</g>
			<g>
				<g>
					<defs>
						<polygon id="SVGID_7_" points="173.536,74.166 189.589,97.052 161.657,97.49 171.664,111.52 155.828,115.779 166.202,134.211 
							153.601,144.773 157.989,169.732 135.008,165.162 143.968,181.607 102.76,190.029 190.764,239.629 257.384,121.424 						"/>
					</defs>
					<clipPath id="SVGID_8_">
						<use xlink:href="#SVGID_7_"  overflow="visible"/>
					</clipPath>
					<g clip-path="url(#SVGID_8_)">
						<radialGradient id="SVGID_9_" cx="124.3315" cy="121.2402" r="118.9825" gradientUnits="userSpaceOnUse">
							<stop  offset="0" style="stop-color:#FFFFFF"/>
							<stop  offset="1" style="stop-color:#CFCFD0"/>
						</radialGradient>
						<path fill-rule="evenodd" clip-rule="evenodd" fill="url(#SVGID_9_)" d="M83.445,97.8
							c-16.287,28.899,6.038,72.35,43.847,93.659s76.785,12.408,93.072-16.49c16.287-28.898,3.718-66.851-34.09-88.16
							C148.464,65.5,99.732,68.903,83.445,97.8z"/>
					</g>
				</g>
				<polygon fill-rule="evenodd" clip-rule="evenodd" fill="#989898" points="189.098,184.438 176.136,181.971 166.476,171.424 
					157.989,169.734 135.008,165.162 165.732,172.742 175.547,183.014 				"/>
			</g>
		</g>
	</g>
</g>
<g id="DESIGNED_BY_FREEPIK" display="none">
</g>
</svg>
