<?xml version="1.0" encoding="utf-8"?>
<!-- Generator: Adobe Illustrator 16.0.0, SVG Export Plug-In . SVG Version: 6.00 Build 0)  -->
<!DOCTYPE svg PUBLIC "-//W3C//DTD SVG 1.1//EN" "http://www.w3.org/Graphics/SVG/1.1/DTD/svg11.dtd">
<svg version="1.1" id="Layer_1" xmlns="http://www.w3.org/2000/svg" xmlns:xlink="http://www.w3.org/1999/xlink" x="0px" y="0px"
	 width="52px" height="70px" viewBox="0 0 52 70" enable-background="new 0 0 52 70" xml:space="preserve">
<radialGradient id="SVGID_1_" cx="-966.6592" cy="709.5195" r="38.6622" gradientTransform="matrix(-1.0031 0 0 1 -929.163 -671)" gradientUnits="userSpaceOnUse">
	<stop  offset="0.0049" style="stop-color:#F6F6F5"/>
	<stop  offset="0.1419" style="stop-color:#F6F6F5"/>
	<stop  offset="0.2463" style="stop-color:#F6F6F5"/>
	<stop  offset="0.5027" style="stop-color:#E3E4DC"/>
	<stop  offset="0.6196" style="stop-color:#E0E0D8"/>
	<stop  offset="0.7662" style="stop-color:#D6D5CB"/>
	<stop  offset="0.9818" style="stop-color:#CFCCC2"/>
</radialGradient>
<path fill="url(#SVGID_1_)" stroke="#CCCCCC" stroke-width="0.25" stroke-miterlimit="10" d="M26.801,68
	c40.287-1.807,26.177-66.221,0-66.674l0,0C0.623,1.779-13.486,66.193,26.801,68L26.801,68z"/>
<radialGradient id="SVGID_2_" cx="12.1177" cy="28.0361" r="4.7976" gradientTransform="matrix(1 0 0 -1 0 71)" gradientUnits="userSpaceOnUse">
	<stop  offset="0" style="stop-color:#FABCA2"/>
	<stop  offset="0.049" style="stop-color:#FBC4AD"/>
	<stop  offset="0.683" style="stop-color:#FCD9CB"/>
</radialGradient>
<ellipse fill="url(#SVGID_2_)" cx="12.117" cy="42.964" rx="4.806" ry="4.79"/>
<radialGradient id="SVGID_3_" cx="40.834" cy="712.8867" r="4.7901" gradientTransform="matrix(1.0031 0 0 1.0031 1.1571 -672.1335)" gradientUnits="userSpaceOnUse">
	<stop  offset="0" style="stop-color:#FABCA2"/>
	<stop  offset="0.049" style="stop-color:#FBC4AD"/>
	<stop  offset="0.683" style="stop-color:#FCD9CB"/>
</radialGradient>
<ellipse fill="url(#SVGID_3_)" cx="42.117" cy="42.964" rx="4.806" ry="4.79"/>
<g>
	<path fill="#FF6666" d="M26.801,60.139c-8.456,0-15.335-6.857-15.335-15.287h0.301c0,8.264,6.745,14.986,15.034,14.986
		c8.29,0,15.033-6.723,15.033-14.986h0.302C42.136,53.279,35.257,60.139,26.801,60.139z"/>
</g>
<ellipse fill="#404041" cx="21.746" cy="41.115" rx="1.031" ry="1.849"/>
<ellipse fill="#404041" cx="32.738" cy="41.115" rx="1.031" ry="1.849"/>
<g>
	<path fill="#404041" d="M20.082,37.066l-0.26-0.15c0.474-0.809,1.194-1.271,1.978-1.271c0.714,0,1.394,0.398,1.864,1.092
		l-0.25,0.168C23,36.295,22.412,35.945,21.8,35.945C21.127,35.945,20.5,36.354,20.082,37.066z"/>
</g>
<g>
	<path fill="#404041" d="M31.076,37.066l-0.261-0.15c0.474-0.809,1.194-1.271,1.978-1.271c0.716,0,1.396,0.398,1.865,1.092
		l-0.25,0.168c-0.414-0.609-1.002-0.959-1.615-0.959C32.119,35.945,31.492,36.354,31.076,37.066z"/>
</g>
<g>
	<path fill="#404041" d="M25.521,23.73c-0.253,0-0.461-0.076-0.625-0.228c-0.671-0.62-0.396-2.35-0.153-3.875
		c0.084-0.522,0.164-1.025,0.188-1.403c-0.56,0.788-1.714,2.168-2.509,1.966c-0.389-0.099-0.602-0.544-0.633-1.324
		c0-0.774,0.662-1.877,1.192-2.764c0.195-0.326,0.38-0.634,0.5-0.874l0.271,0.134c-0.127,0.25-0.313,0.563-0.512,0.894
		c-0.512,0.855-1.148,1.919-1.148,2.604c0.018,0.428,0.102,0.962,0.406,1.04c0.627,0.161,1.924-1.367,2.443-2.23l0.206-0.342
		l0.072,0.392c0.071,0.394-0.043,1.117-0.177,1.955c-0.221,1.38-0.493,3.097,0.06,3.608c0.163,0.149,0.397,0.186,0.716,0.11
		c1.813-0.542,1.49-3.371,1.297-5.06c-0.029-0.265-0.056-0.494-0.07-0.688l0.299-0.027c0.35,3.263,1.204,3.567,1.458,3.583
		c0.512,0.031,1.103-0.731,1.339-1.738c0.234-1.001,0.117-2.219-0.854-2.792c-0.063-0.032-0.125-0.063-0.187-0.092l-0.073-0.037
		l0.127-0.272c0.096,0.041,0.188,0.086,0.271,0.136c0.561,0.275,1.35,0.62,1.758,0.367c0.219-0.134,0.329-0.442,0.33-0.916
		c-0.096-1.156-2.023-1.466-3.303-1.671c-0.178-0.028-0.342-0.055-0.485-0.081l0.056-0.295c0.144,0.026,0.306,0.052,0.479,0.08
		c1.373,0.22,3.447,0.554,3.557,1.95v0.012c0,0.588-0.16,0.984-0.474,1.177c-0.339,0.208-0.798,0.144-1.252-0.011
		c0.501,0.722,0.528,1.714,0.343,2.514c-0.236,1.014-0.877,2.016-1.65,1.969c-0.386-0.023-0.845-0.312-1.215-1.309
		c0.031,1.509-0.246,3.065-1.671,3.492C25.761,23.715,25.637,23.73,25.521,23.73z"/>
</g>
</svg>
