<?xml version="1.0" encoding="utf-8"?>
<!-- Generator: Adobe Illustrator 16.0.0, SVG Export Plug-In . SVG Version: 6.00 Build 0)  -->
<!DOCTYPE svg PUBLIC "-//W3C//DTD SVG 1.1//EN" "http://www.w3.org/Graphics/SVG/1.1/DTD/svg11.dtd">
<svg version="1.1" id="Layer_1" xmlns="http://www.w3.org/2000/svg" xmlns:xlink="http://www.w3.org/1999/xlink" x="0px" y="0px"
	 width="265px" height="294px" viewBox="0 0 265 294" enable-background="new 0 0 265 294" xml:space="preserve">
<g id="BACKGROUND_2">
	<g>
		<g>
			<path fill="#F9C441" d="M144.908,255v17.25c0,0,10.832,0.832,15.166,5.166c0,0,1.416,4.75-3.25,5l1.084,1
				c0,0,1.75,2.334-0.916,4.416c-2.668,2.084-5.25-0.582-5.25-0.582s-3.5-5.334-6.834-6.834c0,0,1.25,2.918,1.25,6.5
				c0,3.584-6.084,5.25-6.75-0.166c-0.668-5.418-1.5-9.334-1.5-9.334s-0.834,1.25-2.168,1.334c-1.332,0.082-3.416-2.002-2.582-3.918
				c0,0,2.5-2.666,6.25-2.916v-18.084L144.908,255z"/>
			<path fill="#D89500" d="M156.824,282.416c0,0-5.166-4.291-8.229-5.979c0,0,5.553,1.815,9.715,5.688
				C158.311,282.127,158.428,282.457,156.824,282.416z"/>
			<path fill="#E6E7E8" d="M148.533,243.125c0,0,2.375,5.375,0,10.125s-11.5,3.25-13.375,0s0.75-11.5,0.75-11.5l8.125-1.375
				L148.533,243.125z"/>
		</g>
		<g>
			<path fill="#F9C441" d="M117.768,255v17.25c0,0-10.833,0.832-15.166,5.166c0,0-1.417,4.75,3.25,5l-1.084,1
				c0,0-1.75,2.334,0.916,4.416c2.668,2.084,5.25-0.582,5.25-0.582s3.5-5.334,6.834-6.834c0,0-1.25,2.918-1.25,6.5
				c0,3.584,6.083,5.25,6.75-0.166c0.667-5.418,1.5-9.334,1.5-9.334s0.834,1.25,2.166,1.334c1.334,0.082,3.416-2.002,2.584-3.918
				c0,0-2.5-2.666-6.25-2.916v-18.084L117.768,255z"/>
			<path fill="#D89500" d="M105.852,282.416c0,0,5.166-4.291,8.229-5.979c0,0-5.554,1.815-9.715,5.688
				C104.365,282.127,104.744,282.355,105.852,282.416z"/>
			<path fill="#E6E7E8" d="M114.143,243.125c0,0-2.375,5.375,0,10.125s11.5,3.25,13.375,0s-0.75-11.5-0.75-11.5l-8.125-1.375
				L114.143,243.125z"/>
		</g>
		<path fill="#EFEFEF" d="M236.354,111c-33,2-61.25,22.25-61.25,22.25l-5-1L131.436,151l-38.668-18.75l-5,1
			c0,0-28.25-20.25-61.25-22.25s-31.25,25.75-13.75,34.5c0,0-8.75,8.75-3.5,20.25s15.75,10,15.75,10s6,24,32.25,20.5
			c0,0,10.5,15.25,23.25,8.5c0,0,5.334,42,50.918,42c45.583,0,50.917-42,50.917-42c12.75,6.75,23.25-8.5,23.25-8.5
			c26.25,3.5,32.25-20.5,32.25-20.5s10.5,1.5,15.75-10s-3.5-20.25-3.5-20.25C267.604,136.75,269.354,109,236.354,111z"/>
		<path fill="#FFFFFF" d="M178.441,130.168c-9.834-8.833-4.834-48.834-12.834-71.334S131.24,38.652,131.24,38.652l0,0
			c-2.307-0.154-26.358-1.233-33.973,20.181c-8,22.5-3,62.501-12.833,71.333c0,0-0.666,6.666,8.667,6.166c0,0-0.25,8.5,8.291,12
			c8.542,3.5,13.875-1.332,13.875-1.332s1,11.104,16.047,11.164v0.002c0.021,0,0.039,0,0.061,0s0.039,0,0.061,0v-0.002
			C146.484,158.104,147.607,147,147.607,147s5.334,4.834,13.875,1.334s8.291-12,8.291-12
			C179.107,136.834,178.441,130.168,178.441,130.168z"/>
		<path fill="#754C29" d="M119.08,64.75c0,0-1.625-7.938-8.438-8.375c0,0-4.25,0.5-5.688,7.438c0,0-1.5-0.063-2.438-2.688
			c0,0-0.5,2.625,2.313,4.5c0,0-0.125,0.688-3.438,0c0,0,1.188,2,5.125,1.375c0,0,0.88-6.756,4.688-7.875
			C115.014,58.006,119.08,64.75,119.08,64.75z"/>
		<path fill="#754C29" d="M144.238,64.75c0,0,1.625-7.938,8.438-8.375c0,0,4.25,0.5,5.688,7.438c0,0,1.5-0.063,2.438-2.688
			c0,0,0.5,2.625-2.313,4.5c0,0,0.125,0.688,3.438,0c0,0-1.188,2-5.125,1.375c0,0-0.882-6.756-4.688-7.875
			C148.305,58.006,144.238,64.75,144.238,64.75z"/>
		<path fill="#EF4A6B" d="M134.018,56.375c0,0,11.75-6.178,14.5-17.776s-1.625-19.349-7.25-16.099c0,0-1.022-18.875-14.125-17
			c-11.148,1.595-9.25,16.75-6.75,19c0,0-5.404-2.5-6.577,3.625s3.407,12.227,3.407,12.227s6.818-1.863,13.045-1.754
			C130.268,38.598,134.643,43.25,134.018,56.375z"/>
		<path fill="#B2002B" d="M141.268,22.5c0,0-2.688,1.125-3.938,3.563c0,0,0.443-4.063,3.691-5.751L141.268,22.5z"/>
		<polygon fill="#5C2849" points="141.518,70.666 132.768,66.417 125.018,67.667 119.685,73 116.768,75.167 117.685,78.917 
			121.685,86 129.852,90.834 134.018,90.334 142.602,83 146.268,74.917 		"/>
		<path fill="#F9C441" d="M145.602,75c0,0-2.813,11.688-14.166,14.334C120.08,86.688,117.268,75,117.268,75l-1.25-0.334
			c1.615,14.922,15.418,18.668,15.418,18.668s13.802-3.746,15.416-18.668L145.602,75z"/>
		<g>
			<path fill="#F9C441" d="M113.848,70.705c0.002-0.017,0.004-0.039,0.004-0.039S113.85,70.681,113.848,70.705z"/>
			<path fill="#F9C441" d="M149.021,70.705c0.024,0.339,0.131,2.883-2.67,2.961c-3,0.084-4-9.666-14.917-9.833
				c-10.918,0.167-11.918,9.917-14.918,9.833c-2.8-0.078-2.695-2.622-2.67-2.961c-0.034,0.398-0.415,5.442,2.584,5.442
				c0.686,0,1.553-0.445,2.648-1.564c5.226-5.333,12.355-6.5,12.355-6.5s7.128,1.167,12.354,6.5
				c1.096,1.119,1.963,1.564,2.647,1.564C149.438,76.147,149.057,71.104,149.021,70.705z"/>
			<path fill="#F9C441" d="M149.021,70.705c-0.002-0.024-0.004-0.039-0.004-0.039S149.02,70.688,149.021,70.705z"/>
		</g>
		<path fill="#A73E5C" d="M134.893,77.188c0,0-4.125-1.438-6.563,0l3.105,5.438L134.893,77.188z"/>
		<path fill="#CC0033" d="M135.186,54.75c0,0,10-10.584,10-19.75c0-9.167-8.334-10.167-10-2.584c0,0,0.832-13.5-5.5-16
			c-6.334-2.5-7.084,6.584-4.918,12.834c0,0-3.916-4.5-6.916-1s0.684,11.731,0.684,11.731s6.721-1.419,11.732-1.384
			C130.268,38.598,135.631,40.507,135.186,54.75z"/>
		<path fill="#FFCC00" d="M130.93,67.438V64.25c0,0-6.186-0.063-10.35,6.416c0,0-2.188,4.896-5.813,3.146c0,0,0.189,2,1.907,1.875
			C118.392,75.562,123.467,68.313,130.93,67.438z"/>
		<path fill="#FFCC00" d="M117.414,75.885c-0.131-0.467-0.739,0.263-0.739,0.263c1.532,12.522,14.761,16.79,14.761,16.79v-3
			C131.436,89.938,120.873,88.207,117.414,75.885z"/>
		<path fill="#FFFFFF" d="M141.498,68.986L141.498,68.986c-2.23-1.415-2.734,0.985-2.734,0.985
			c-3.453-2.036-7.152-2.616-7.152-2.616V64.25C131.611,64.25,136.941,63.831,141.498,68.986z"/>
		<path fill="#FFFFFF" d="M131.811,89.792v2.874c0,0,6.832-1.664,10.457-9.874C142.268,82.792,139.186,88.25,131.811,89.792z"/>
		<path fill="#231F20" d="M144.238,75.729c0,0-5.699-5.791-12.803-7.041c0,0-7.043,0.295-12.918,7.46
			C118.518,76.147,132.082,69.458,144.238,75.729z"/>
		<path fill="#F1F2F2" d="M129.518,40c0,0-23,0-30.5,20.25s-1.705,59.754-13.477,71.502c0,0,3.305,4.074,10.141,1.91
			c0,0-1.385,0.225-4.164-3.162c0,0,5.896-8.649,7-43.352C99.275,63.366,104.768,44,129.518,40z"/>
		<path fill="#F1F2F2" d="M149.018,42.721c0,0,1.156,0.611,1.732,0.95c5.055,2.976,9.936,7.69,12.703,15.164
			c7.5,20.25,1.705,59.754,13.477,71.501c0,0-3.305,4.074-10.141,1.912c0,0,1.385,0.225,4.164-3.164c0,0-5.896-8.648-7-43.352
			c-0.549-17.211-3.576-32.109-14.592-40.545c-0.443-0.34-1.369-0.987-1.369-0.987L149.018,42.721z"/>
		<path fill="#F1F2F2" d="M95.436,135.584c0,0,1.998,13.998,20.332,9.166C115.768,144.75,100.269,145.668,95.436,135.584z"/>
		<path fill="#F1F2F2" d="M168.326,134.998c0,0-2,13.998-20.334,9.166C147.992,144.164,163.492,145.082,168.326,134.998z"/>
		<path fill="#F1F2F2" d="M117.934,145.178c0,0,13.502,7.584,27.927,0C145.861,145.178,132.602,162.25,117.934,145.178z"/>
		<g>
			<path fill="#F1F2F2" d="M10.102,158.914c0,0-0.69,15.916,19.071,15.125c0,0,0.762,20.709,30.095,20.043
				c0,0,8.168,13.332,22.334,7.332c0,0-0.333-3.166,0-8.5c0,0-8.666,5.166-20-4.666c0,0-21.334,2.332-30.334-19.168
				C31.268,169.08,16.047,172.297,10.102,158.914z"/>
			<path fill="#F1F2F2" d="M2.518,124.248c0,0-3.125,12.625,12.125,20.875l4.75-3.701C19.393,141.422,4.018,136.998,2.518,124.248z"
				/>
		</g>
		<g>
			<path fill="#F1F2F2" d="M253.006,158.914c0,0,0.689,15.916-19.072,15.125c0,0-0.762,20.709-30.094,20.043
				c0,0-8.168,13.332-22.334,7.332c0,0,0.332-3.166,0-8.5c0,0,8.666,5.166,20-4.666c0,0,21.334,2.332,30.334-19.168
				C231.84,169.08,247.061,172.297,253.006,158.914z"/>
			<path fill="#F1F2F2" d="M260.59,124.248c0,0,3.125,12.625-12.125,20.875l-4.75-3.701
				C243.715,141.422,259.09,136.998,260.59,124.248z"/>
		</g>
		<path fill="#F1F2F2" d="M84.424,204.5c0,0,4.102,40.334,47.473,40.334c0,0,40.316,1.916,47.436-40.334
			c0,0-8.521,29.438-47.043,29.438C132.289,233.938,94.018,236.5,84.424,204.5z"/>
		<path fill="#F1F2F2" d="M127.227,247.25c0,0-9.6-0.541-12.75-2.168c0,0-1.219,3.463,0,6.5c0,0,8.375,2.541,12.459,1.209
			C126.936,252.791,128.395,249.709,127.227,247.25z"/>
		<path fill="#F1F2F2" d="M135.615,247.25c0,0,9.602-0.541,12.752-2.168c0,0,1.219,3.463,0,6.5c0,0-8.377,2.541-12.459,1.209
			C135.908,252.791,134.449,249.709,135.615,247.25z"/>
		<path fill="#D89500" d="M118.107,256.275c0,0,2.73,0.733,4.91,0l-0.123,15.756c0,0-0.828,1.156-2.332,1.279v-14.73
			c0,0-1.484,0.121-2.455-0.283V256.275z"/>
		<path fill="#D89500" d="M128.873,277.25c0,0-0.867,1.277-1.959,1.209c-1.092-0.068-2.334-1.48-2.334-1.48v-1.354
			C124.58,275.625,126.77,278.146,128.873,277.25z"/>
		<path fill="#D89500" d="M117.861,280.125l0.531-2.156c0,0-6.406,3.656-8.781,6.844c-2.375,3.188-5.313,0.75-4.688-1.125
			c0,0-0.969,1.156,0.063,2.97c1.032,1.813,3.596,2.254,5.469,0.469C112.329,285.34,113.768,281.625,117.861,280.125z"/>
		<path fill="#D89500" d="M116.955,287.094c0,0,0.156,2.5,2.844,2.688c2.688,0.188,2.906-2,3.063-3.063
			c0.157-1.063,1.031-5.781,1.031-5.781l-2,5.906C121.893,286.844,119.111,289.656,116.955,287.094z"/>
		<path fill="#FFFFFF" d="M113.602,273.311c0,0-6.833,1.033-10.503,4.07c0,0-0.823,1.771,0.601,1.613
			C103.699,278.994,108.951,274.396,113.602,273.311z"/>
		<path fill="#FFFFFF" d="M112.83,277.969c0,0-5.063,2.797-7.313,5.391c0,0-0.594,0.531,0.266,1.375
			c0.86,0.845,2.1,0.063,2.449-0.358c0.348-0.422,6.066-6.328,8.004-7.094c0,0-0.5-0.406-1.063-0.531
			C115.174,276.75,113.939,277.322,112.83,277.969z"/>
		<path fill="#FFFFFF" d="M119.986,277.438c0,0-1.682,4.318-2.125,7.22c-0.442,2.899,2.094,2.813,2.563,1.969
			c0.469-0.844,0.594-7.563,1-9.188C121.424,277.438,120.955,277,119.986,277.438z"/>
		<path fill="#FFFFFF" d="M118.107,259.125v13.219c0,0,0.16,0.563,1.035,0.75V259.25L118.107,259.125z"/>
		<g>
			<path fill="#D89500" d="M144.695,256.334c0,0-2.732,0.734-4.91,0l0.121,15.756c0,0,0.83,1.156,2.334,1.279v-14.73
				c0,0,1.484,0.121,2.455-0.283V256.334z"/>
			<path fill="#D89500" d="M133.93,277.309c0,0,0.867,1.277,1.959,1.209c1.092-0.067,2.332-1.479,2.332-1.479v-1.354
				C138.221,275.684,136.033,278.205,133.93,277.309z"/>
			<path fill="#D89500" d="M144.939,280.184l-0.531-2.156c0,0,6.406,3.656,8.781,6.845s5.313,0.75,4.688-1.125
				c0,0,0.969,1.155-0.063,2.969c-1.032,1.813-3.597,2.254-5.469,0.47C150.473,285.4,149.033,281.684,144.939,280.184z"/>
			<path fill="#D89500" d="M145.846,287.152c0,0-0.156,2.5-2.844,2.688s-2.906-2-3.063-3.063c-0.157-1.063-1.031-5.781-1.031-5.781
				l2,5.906C140.908,286.902,143.689,289.715,145.846,287.152z"/>
			<path fill="#FFFFFF" d="M149.199,273.369c0,0,6.834,1.033,10.504,4.07c0,0,0.822,1.771-0.602,1.612
				C159.102,279.053,153.85,274.455,149.199,273.369z"/>
			<path fill="#FFFFFF" d="M149.971,278.027c0,0,5.063,2.797,7.313,5.391c0,0,0.594,0.531-0.267,1.375
				c-0.859,0.844-2.1,0.063-2.447-0.359c-0.35-0.422-6.067-6.328-8.006-7.094c0,0,0.5-0.406,1.063-0.531
				C147.627,276.809,148.861,277.381,149.971,278.027z"/>
			<path fill="#FFFFFF" d="M142.814,277.496c0,0,1.682,4.318,2.125,7.219c0.442,2.901-2.094,2.813-2.563,1.969
				c-0.469-0.844-0.594-7.563-1-9.188C141.377,277.496,141.846,277.059,142.814,277.496z"/>
			<path fill="#FFFFFF" d="M144.695,259.184v13.219c0,0-0.162,0.563-1.037,0.75v-13.844L144.695,259.184z"/>
		</g>
		<path fill="#231F20" d="M114.789,288.146"/>
		<path fill="#F1F2F2" d="M97.935,226.814c0,0,29.37,19.295,63.903,1.311C161.838,228.125,133.338,251.805,97.935,226.814z"/>
		<path fill="#B2002B" d="M136.143,51.813c0,0,8.096-8.25,8.375-16.442c0.187-5.396-5.75-10.183-8.375-2.808
			c0,0,1.644-3.625,4.197-0.875C142.893,34.438,141.768,43.125,136.143,51.813z"/>
		<path fill="#B2002B" d="M134.436,32.083c0,0,0-13.583-6.25-14.833c-6.251-1.25-2.834,11.535-2.834,11.535s-1.334-9.618,2.25-9.202
			C131.186,20,133.852,27.583,134.436,32.083z"/>
		<path fill="#C8CCCC" d="M39.518,182.416c0,0,9.501,9.252,21.584,6.834c0,0,6.917,9.5,19.25,5.25v3.5c0,0-13.5,1.834-19.75-7
			C60.602,191,45.435,192.666,39.518,182.416z"/>
		<path fill="#C8CCCC" d="M223.271,182.814c0,0-9.5,9.25-21.584,6.834c0,0-6.916,9.5-19.25,5.25v3.5c0,0,13.5,1.834,19.75-7
			C202.188,191.398,217.355,193.063,223.271,182.814z"/>
		<g opacity="0.5">
			<path fill="#FFFFFF" d="M491.89,341.619"/>
			<path fill="#FFFFFF" d="M-247.702,343.797"/>
		</g>
		<path fill="#F1F2F2" d="M11.268,152.25c0,0,14.25,15.25,27.5,6.25c0,0,2.668,19.5,25,15c0,0,8.5,11,21.25,2.5
			c0,0-5.332,8.33-3.416,25.414c0,0-8.584,8.086-23.334-6.414c0,0-23,3-31-20C27.268,175,4.018,171.25,11.268,152.25z"/>
		<path fill="#F1F2F2" d="M252.283,152.25c0,0-14.25,15.25-27.5,6.25c0,0-2.666,19.5-25,15c0,0-8.5,11-21.25,2.5
			c0,0,5.334,8.33,3.418,25.416c0,0,8.582,8.084,23.332-6.416c0,0,23,3,31-20C236.283,175,259.533,171.25,252.283,152.25z"/>
	</g>
</g>
<g id="DESIGNED_BY_FREEPIK" display="none">
</g>
</svg>
