<svg xmlns="http://www.w3.org/2000/svg" xmlns:xlink="http://www.w3.org/1999/xlink">
  <defs/>
  <g>
    <path stroke="none" fill="#FFFFFF" d="M420.1 1.25 L421.4 1.25 442.6 1.25 443.9 1.25 Q462.75 1.9 462.75 21.4 L462.75 42.55 Q462.75 62.7 442.6 62.7 L421.4 62.7 Q402 62.7 401.35 43.95 L401.35 42.55 401.35 21.4 401.35 20 Q401.95 1.85 420.1 1.25 M411.05 47.5 L411.1 47.9 Q411.35 49.8 412.75 51.25 414.5 53 417 53 419.5 53 421.25 51.25 422.6 49.85 422.95 48.05 L423 47.5 423 47 Q423 44.5 421.25 42.75 419.5 41 417 41 414.5 41 412.75 42.75 411 44.5 411 47 L411.05 47.5 M373 47.5 L373 47 Q373 44.5 371.25 42.75 369.5 41 367 41 364.5 41 362.75 42.75 361 44.5 361 47 L361.05 47.5 361.1 47.9 Q361.35 49.8 362.75 51.25 364.5 53 367 53 369.5 53 371.25 51.25 372.6 49.85 372.95 48.05 L373 47.5 M373 17.5 L373 17 Q373 14.5 371.25 12.75 369.5 11 367 11 364.5 11 362.75 12.75 361 14.5 361 17 L361.05 17.5 361.1 17.9 Q361.35 19.8 362.75 21.25 364.5 23 367 23 369.5 23 371.25 21.25 372.6 19.85 372.95 18.05 L373 17.5 M411.05 32.5 L411.1 32.9 Q411.35 34.8 412.75 36.25 414.5 38 417 38 419.5 38 421.25 36.25 422.6 34.85 422.95 33.05 L423 32.5 423 32 Q423 29.5 421.25 27.75 419.5 26 417 26 414.5 26 412.75 27.75 411 29.5 411 32 L411.05 32.5 M411.05 17.5 L411.1 17.9 Q411.35 19.8 412.75 21.25 414.5 23 417 23 419.5 23 421.25 21.25 422.6 19.85 422.95 18.05 L423 17.5 423 17 Q423 14.5 421.25 12.75 419.5 11 417 11 414.5 11 412.75 12.75 411 14.5 411 17 L411.05 17.5 M382.75 21.4 L382.75 42.55 Q382.75 62.7 362.6 62.7 L341.4 62.7 Q322 62.7 321.35 43.95 L321.35 42.55 321.35 21.4 321.35 20 Q321.95 1.85 340.1 1.25 L341.4 1.25 362.6 1.25 363.9 1.25 Q382.75 1.9 382.75 21.4 M331.05 47.5 L331.1 47.9 Q331.35 49.8 332.75 51.25 334.5 53 337 53 339.5 53 341.25 51.25 342.6 49.85 342.95 48.05 L343 47.5 343 47 Q343 44.5 341.25 42.75 339.5 41 337 41 334.5 41 332.75 42.75 331 44.5 331 47 L331.05 47.5 M292.95 48.05 L293 47.5 293 47 Q293 44.5 291.25 42.75 289.5 41 287 41 284.5 41 282.75 42.75 281 44.5 281 47 L281.05 47.5 281.1 47.9 Q281.35 49.8 282.75 51.25 284.5 53 287 53 289.5 53 291.25 51.25 292.6 49.85 292.95 48.05 M293 17.5 L293 17 Q293 14.5 291.25 12.75 289.5 11 287 11 284.5 11 282.75 12.75 281 14.5 281 17 L281.05 17.5 281.1 17.9 Q281.35 19.8 282.75 21.25 284.5 23 287 23 289.5 23 291.25 21.25 292.6 19.85 292.95 18.05 L293 17.5 M331 17 L331.05 17.5 331.1 17.9 Q331.35 19.8 332.75 21.25 334.5 23 337 23 339.5 23 341.25 21.25 342.6 19.85 342.95 18.05 L343 17.5 343 17 Q343 14.5 341.25 12.75 339.5 11 337 11 334.5 11 332.75 12.75 331 14.5 331 17 M451.25 42.75 Q449.5 41 447 41 444.5 41 442.75 42.75 441 44.5 441 47 L441.05 47.5 441.1 47.9 Q441.35 49.8 442.75 51.25 444.5 53 447 53 449.5 53 451.25 51.25 452.6 49.85 452.95 48.05 L453 47.5 453 47 Q453 44.5 451.25 42.75 M441 32 L441.05 32.5 441.1 32.9 Q441.35 34.8 442.75 36.25 444.5 38 447 38 449.5 38 451.25 36.25 452.6 34.85 452.95 33.05 L453 32.5 453 32 Q453 29.5 451.25 27.75 449.5 26 447 26 444.5 26 442.75 27.75 441 29.5 441 32 M453 17.5 L453 17 Q453 14.5 451.25 12.75 449.5 11 447 11 444.5 11 442.75 12.75 441 14.5 441 17 L441.05 17.5 441.1 17.9 Q441.35 19.8 442.75 21.25 444.5 23 447 23 449.5 23 451.25 21.25 452.6 19.85 452.95 18.05 L453 17.5 M302.75 21.4 L302.75 42.55 Q302.75 62.7 282.6 62.7 L261.4 62.7 Q242 62.7 241.35 43.95 L241.35 42.55 241.35 21.4 241.35 20 Q241.95 1.85 260.1 1.25 L261.4 1.25 282.6 1.25 283.9 1.25 Q302.75 1.9 302.75 21.4 M358 32 Q358 29.5 356.25 27.75 354.5 26 352 26 349.5 26 347.75 27.75 346 29.5 346 32 L346.05 32.5 346.1 32.9 Q346.35 34.8 347.75 36.25 349.5 38 352 38 354.5 38 356.25 36.25 357.6 34.85 357.95 33.05 L358 32.5 358 32 M101.4 1.25 L122.6 1.25 123.9 1.25 Q142.75 1.9 142.75 21.4 L142.75 42.55 Q142.75 62.7 122.6 62.7 L101.4 62.7 Q82 62.7 81.35 43.95 L81.35 42.55 81.35 21.4 81.35 20 Q81.95 1.85 100.1 1.25 L101.4 1.25 M62.75 21.4 L62.75 42.55 Q62.75 62.7 42.6 62.7 L21.4 62.7 Q2 62.7 1.35 43.95 L1.35 42.55 1.35 21.4 1.35 20 Q1.95 1.85 20.1 1.25 L21.4 1.25 42.6 1.25 43.9 1.25 Q62.75 1.9 62.75 21.4 M251 47 L251.05 47.5 251.1 47.9 Q251.35 49.8 252.75 51.25 254.5 53 257 53 259.5 53 261.25 51.25 262.6 49.85 262.95 48.05 L263 47.5 263 47 Q263 44.5 261.25 42.75 259.5 41 257 41 254.5 41 252.75 42.75 251 44.5 251 47 M212.95 48.05 L213 47.5 213 47 Q213 44.5 211.25 42.75 209.5 41 207 41 204.5 41 202.75 42.75 201 44.5 201 47 L201.05 47.5 201.1 47.9 Q201.35 49.8 202.75 51.25 204.5 53 207 53 209.5 53 211.25 51.25 212.6 49.85 212.95 48.05 M251 17 L251.05 17.5 251.1 17.9 Q251.35 19.8 252.75 21.25 254.5 23 257 23 259.5 23 261.25 21.25 262.6 19.85 262.95 18.05 L263 17.5 263 17 Q263 14.5 261.25 12.75 259.5 11 257 11 254.5 11 252.75 12.75 251 14.5 251 17 M38 32 Q38 29.5 36.25 27.75 34.5 26 32 26 29.5 26 27.75 27.75 26 29.5 26 32 L26.05 32.5 26.1 32.9 Q26.35 34.8 27.75 36.25 29.5 38 32 38 34.5 38 36.25 36.25 37.6 34.85 37.95 33.05 L38 32.5 38 32 M127 41 Q124.5 41 122.75 42.75 121 44.5 121 47 L121.05 47.5 121.1 47.9 Q121.35 49.8 122.75 51.25 124.5 53 127 53 129.5 53 131.25 51.25 132.6 49.85 132.95 48.05 L133 47.5 133 47 Q133 44.5 131.25 42.75 129.5 41 127 41 M102.95 18.05 L103 17.5 103 17 Q103 14.5 101.25 12.75 99.5 11 97 11 94.5 11 92.75 12.75 91 14.5 91 17 L91.05 17.5 91.1 17.9 Q91.35 19.8 92.75 21.25 94.5 23 97 23 99.5 23 101.25 21.25 102.6 19.85 102.95 18.05 M222.75 21.4 L222.75 42.55 Q222.75 62.7 202.6 62.7 L181.4 62.7 Q162 62.7 161.35 43.95 L161.35 42.55 161.35 21.4 161.35 20 Q161.95 1.85 180.1 1.25 L181.4 1.25 202.6 1.25 203.9 1.25 Q222.75 1.9 222.75 21.4 M181.25 21.25 Q182.6 19.85 182.95 18.05 L183 17.5 183 17 Q183 14.5 181.25 12.75 179.5 11 177 11 174.5 11 172.75 12.75 171 14.5 171 17 L171.05 17.5 171.1 17.9 Q171.35 19.8 172.75 21.25 174.5 23 177 23 179.5 23 181.25 21.25 M198 32 Q198 29.5 196.25 27.75 194.5 26 192 26 189.5 26 187.75 27.75 186 29.5 186 32 L186.05 32.5 186.1 32.9 Q186.35 34.8 187.75 36.25 189.5 38 192 38 194.5 38 196.25 36.25 197.6 34.85 197.95 33.05 L198 32.5 198 32"/>
    <path stroke="none" fill="#EEEEEE" d="M419.6 0 L421.05 0 443.05 0 444.4 0 454.15 0 Q464 0 464 9.85 L464 54.15 Q464 64 454.15 64 L409.9 64 Q400.05 64 400.05 54.15 L400.05 44.45 400.05 43 400.05 20.95 400.05 19.55 400.05 9.85 Q400.05 0 409.9 0 L419.6 0 M420.1 1.25 Q401.95 1.85 401.35 20 L401.35 21.4 401.35 42.55 401.35 43.95 Q402 62.7 421.4 62.7 L442.6 62.7 Q462.75 62.7 462.75 42.55 L462.75 21.4 Q462.75 1.9 443.9 1.25 L442.6 1.25 421.4 1.25 420.1 1.25 M382.75 21.4 Q382.75 1.9 363.9 1.25 L362.6 1.25 341.4 1.25 340.1 1.25 Q321.95 1.85 321.35 20 L321.35 21.4 321.35 42.55 321.35 43.95 Q322 62.7 341.4 62.7 L362.6 62.7 Q382.75 62.7 382.75 42.55 L382.75 21.4 M384 9.85 L384 54.15 Q384 64 374.15 64 L329.9 64 Q320.05 64 320.05 54.15 L320.05 44.45 320.05 43 320.05 20.95 320.05 19.55 320.05 9.85 Q320.05 0 329.9 0 L339.6 0 341.05 0 363.05 0 364.4 0 374.15 0 Q384 0 384 9.85 M304 9.85 L304 54.15 Q304 64 294.15 64 L249.9 64 Q240.05 64 240.05 54.15 L240.05 44.45 240.05 43 240.05 20.95 240.05 19.55 240.05 9.85 Q240.05 0 249.9 0 L259.6 0 261.05 0 283.05 0 284.4 0 294.15 0 Q304 0 304 9.85 M302.75 21.4 Q302.75 1.9 283.9 1.25 L282.6 1.25 261.4 1.25 260.1 1.25 Q241.95 1.85 241.35 20 L241.35 21.4 241.35 42.55 241.35 43.95 Q242 62.7 261.4 62.7 L282.6 62.7 Q302.75 62.7 302.75 42.55 L302.75 21.4 M101.4 1.25 L100.1 1.25 Q81.95 1.85 81.35 20 L81.35 21.4 81.35 42.55 81.35 43.95 Q82 62.7 101.4 62.7 L122.6 62.7 Q142.75 62.7 142.75 42.55 L142.75 21.4 Q142.75 1.9 123.9 1.25 L122.6 1.25 101.4 1.25 M64 9.85 L64 54.15 Q64 64 54.15 64 L9.9 64 Q0.05 64 0.05 54.15 L0.05 44.45 0.05 43 0.05 20.95 0.05 19.55 0.05 9.85 Q0.05 0 9.9 0 L19.6 0 21.05 0 43.05 0 44.4 0 54.15 0 Q64 0 64 9.85 M99.6 0 L101.05 0 123.05 0 124.4 0 134.15 0 Q144 0 144 9.85 L144 54.15 Q144 64 134.15 64 L89.9 64 Q80.05 64 80.05 54.15 L80.05 44.45 80.05 43 80.05 20.95 80.05 19.55 80.05 9.85 Q80.05 0 89.9 0 L99.6 0 M62.75 21.4 Q62.75 1.9 43.9 1.25 L42.6 1.25 21.4 1.25 20.1 1.25 Q1.95 1.85 1.35 20 L1.35 21.4 1.35 42.55 1.35 43.95 Q2 62.7 21.4 62.7 L42.6 62.7 Q62.75 62.7 62.75 42.55 L62.75 21.4 M224 9.85 L224 54.15 Q224 64 214.15 64 L169.9 64 Q160.05 64 160.05 54.15 L160.05 44.45 160.05 43 160.05 20.95 160.05 19.55 160.05 9.85 Q160.05 0 169.9 0 L179.6 0 181.05 0 203.05 0 204.4 0 214.15 0 Q224 0 224 9.85 M222.75 21.4 Q222.75 1.9 203.9 1.25 L202.6 1.25 181.4 1.25 180.1 1.25 Q161.95 1.85 161.35 20 L161.35 21.4 161.35 42.55 161.35 43.95 Q162 62.7 181.4 62.7 L202.6 62.7 Q222.75 62.7 222.75 42.55 L222.75 21.4"/>
    <path stroke="none" fill="#414141" d="M411.05 17.5 L411 17 Q411 14.5 412.75 12.75 414.5 11 417 11 419.5 11 421.25 12.75 423 14.5 423 17 L423 17.5 422.95 18.05 Q422.6 19.85 421.25 21.25 419.5 23 417 23 414.5 23 412.75 21.25 411.35 19.8 411.1 17.9 L411.05 17.5 M411.05 32.5 L411 32 Q411 29.5 412.75 27.75 414.5 26 417 26 419.5 26 421.25 27.75 423 29.5 423 32 L423 32.5 422.95 33.05 Q422.6 34.85 421.25 36.25 419.5 38 417 38 414.5 38 412.75 36.25 411.35 34.8 411.1 32.9 L411.05 32.5 M373 17.5 L372.95 18.05 Q372.6 19.85 371.25 21.25 369.5 23 367 23 364.5 23 362.75 21.25 361.35 19.8 361.1 17.9 L361.05 17.5 361 17 Q361 14.5 362.75 12.75 364.5 11 367 11 369.5 11 371.25 12.75 373 14.5 373 17 L373 17.5 M373 47.5 L372.95 48.05 Q372.6 49.85 371.25 51.25 369.5 53 367 53 364.5 53 362.75 51.25 361.35 49.8 361.1 47.9 L361.05 47.5 361 47 Q361 44.5 362.75 42.75 364.5 41 367 41 369.5 41 371.25 42.75 373 44.5 373 47 L373 47.5 M411.05 47.5 L411 47 Q411 44.5 412.75 42.75 414.5 41 417 41 419.5 41 421.25 42.75 423 44.5 423 47 L423 47.5 422.95 48.05 Q422.6 49.85 421.25 51.25 419.5 53 417 53 414.5 53 412.75 51.25 411.35 49.8 411.1 47.9 L411.05 47.5 M453 17.5 L452.95 18.05 Q452.6 19.85 451.25 21.25 449.5 23 447 23 444.5 23 442.75 21.25 441.35 19.8 441.1 17.9 L441.05 17.5 441 17 Q441 14.5 442.75 12.75 444.5 11 447 11 449.5 11 451.25 12.75 453 14.5 453 17 L453 17.5 M441 32 Q441 29.5 442.75 27.75 444.5 26 447 26 449.5 26 451.25 27.75 453 29.5 453 32 L453 32.5 452.95 33.05 Q452.6 34.85 451.25 36.25 449.5 38 447 38 444.5 38 442.75 36.25 441.35 34.8 441.1 32.9 L441.05 32.5 441 32 M451.25 42.75 Q453 44.5 453 47 L453 47.5 452.95 48.05 Q452.6 49.85 451.25 51.25 449.5 53 447 53 444.5 53 442.75 51.25 441.35 49.8 441.1 47.9 L441.05 47.5 441 47 Q441 44.5 442.75 42.75 444.5 41 447 41 449.5 41 451.25 42.75 M331 17 Q331 14.5 332.75 12.75 334.5 11 337 11 339.5 11 341.25 12.75 343 14.5 343 17 L343 17.5 342.95 18.05 Q342.6 19.85 341.25 21.25 339.5 23 337 23 334.5 23 332.75 21.25 331.35 19.8 331.1 17.9 L331.05 17.5 331 17 M293 17.5 L292.95 18.05 Q292.6 19.85 291.25 21.25 289.5 23 287 23 284.5 23 282.75 21.25 281.35 19.8 281.1 17.9 L281.05 17.5 281 17 Q281 14.5 282.75 12.75 284.5 11 287 11 289.5 11 291.25 12.75 293 14.5 293 17 L293 17.5 M292.95 48.05 Q292.6 49.85 291.25 51.25 289.5 53 287 53 284.5 53 282.75 51.25 281.35 49.8 281.1 47.9 L281.05 47.5 281 47 Q281 44.5 282.75 42.75 284.5 41 287 41 289.5 41 291.25 42.75 293 44.5 293 47 L293 47.5 292.95 48.05 M331.05 47.5 L331 47 Q331 44.5 332.75 42.75 334.5 41 337 41 339.5 41 341.25 42.75 343 44.5 343 47 L343 47.5 342.95 48.05 Q342.6 49.85 341.25 51.25 339.5 53 337 53 334.5 53 332.75 51.25 331.35 49.8 331.1 47.9 L331.05 47.5 M358 32 L358 32.5 357.95 33.05 Q357.6 34.85 356.25 36.25 354.5 38 352 38 349.5 38 347.75 36.25 346.35 34.8 346.1 32.9 L346.05 32.5 346 32 Q346 29.5 347.75 27.75 349.5 26 352 26 354.5 26 356.25 27.75 358 29.5 358 32 M102.95 18.05 Q102.6 19.85 101.25 21.25 99.5 23 97 23 94.5 23 92.75 21.25 91.35 19.8 91.1 17.9 L91.05 17.5 91 17 Q91 14.5 92.75 12.75 94.5 11 97 11 99.5 11 101.25 12.75 103 14.5 103 17 L103 17.5 102.95 18.05 M127 41 Q129.5 41 131.25 42.75 133 44.5 133 47 L133 47.5 132.95 48.05 Q132.6 49.85 131.25 51.25 129.5 53 127 53 124.5 53 122.75 51.25 121.35 49.8 121.1 47.9 L121.05 47.5 121 47 Q121 44.5 122.75 42.75 124.5 41 127 41 M38 32 L38 32.5 37.95 33.05 Q37.6 34.85 36.25 36.25 34.5 38 32 38 29.5 38 27.75 36.25 26.35 34.8 26.1 32.9 L26.05 32.5 26 32 Q26 29.5 27.75 27.75 29.5 26 32 26 34.5 26 36.25 27.75 38 29.5 38 32 M251 17 Q251 14.5 252.75 12.75 254.5 11 257 11 259.5 11 261.25 12.75 263 14.5 263 17 L263 17.5 262.95 18.05 Q262.6 19.85 261.25 21.25 259.5 23 257 23 254.5 23 252.75 21.25 251.35 19.8 251.1 17.9 L251.05 17.5 251 17 M212.95 48.05 Q212.6 49.85 211.25 51.25 209.5 53 207 53 204.5 53 202.75 51.25 201.35 49.8 201.1 47.9 L201.05 47.5 201 47 Q201 44.5 202.75 42.75 204.5 41 207 41 209.5 41 211.25 42.75 213 44.5 213 47 L213 47.5 212.95 48.05 M251 47 Q251 44.5 252.75 42.75 254.5 41 257 41 259.5 41 261.25 42.75 263 44.5 263 47 L263 47.5 262.95 48.05 Q262.6 49.85 261.25 51.25 259.5 53 257 53 254.5 53 252.75 51.25 251.35 49.8 251.1 47.9 L251.05 47.5 251 47 M198 32 L198 32.5 197.95 33.05 Q197.6 34.85 196.25 36.25 194.5 38 192 38 189.5 38 187.75 36.25 186.35 34.8 186.1 32.9 L186.05 32.5 186 32 Q186 29.5 187.75 27.75 189.5 26 192 26 194.5 26 196.25 27.75 198 29.5 198 32 M181.25 21.25 Q179.5 23 177 23 174.5 23 172.75 21.25 171.35 19.8 171.1 17.9 L171.05 17.5 171 17 Q171 14.5 172.75 12.75 174.5 11 177 11 179.5 11 181.25 12.75 183 14.5 183 17 L183 17.5 182.95 18.05 Q182.6 19.85 181.25 21.25"/>
    <path stroke="none" fill="#FFFFFF" d="M444.6 73.25 L445.9 73.25 Q464.75 73.9 464.75 93.4 L464.75 114.55 Q464.75 134.7 444.6 134.7 L423.4 134.7 Q404 134.7 403.35 115.95 L403.35 114.55 403.35 93.4 403.35 92 Q403.95 73.85 422.1 73.25 L423.4 73.25 444.6 73.25 M449 83 Q446.5 83 444.75 84.75 443 86.5 443 89 L443.05 89.5 443.1 89.9 Q443.35 91.8 444.75 93.25 446.5 95 449 95 451.5 95 453.25 93.25 454.6 91.85 454.95 90.05 L455 89.5 455 89 Q455 86.5 453.25 84.75 451.5 83 449 83 M284.6 73.25 L285.9 73.25 Q304.75 73.9 304.75 93.4 L304.75 114.55 Q304.75 134.7 284.6 134.7 L263.4 134.7 Q244 134.7 243.35 115.95 L243.35 114.55 243.35 93.4 243.35 92 Q243.95 73.85 262.1 73.25 L263.4 73.25 284.6 73.25 M289 83 Q286.5 83 284.75 84.75 283 86.5 283 89 L283.05 89.5 283.1 89.9 Q283.35 91.8 284.75 93.25 286.5 95 289 95 291.5 95 293.25 93.25 294.6 91.85 294.95 90.05 L295 89.5 295 89 Q295 86.5 293.25 84.75 291.5 83 289 83 M342.1 73.25 L343.4 73.25 364.6 73.25 365.9 73.25 Q384.75 73.9 384.75 93.4 L384.75 114.55 Q384.75 134.7 364.6 134.7 L343.4 134.7 Q324 134.7 323.35 115.95 L323.35 114.55 323.35 93.4 323.35 92 Q323.95 73.85 342.1 73.25 M444.75 114.75 Q443 116.5 443 119 L443.05 119.5 443.1 119.9 Q443.35 121.8 444.75 123.25 446.5 125 449 125 451.5 125 453.25 123.25 454.6 121.85 454.95 120.05 L455 119.5 455 119 Q455 116.5 453.25 114.75 451.5 113 449 113 446.5 113 444.75 114.75 M455 104 Q455 101.5 453.25 99.75 451.5 98 449 98 446.5 98 444.75 99.75 443 101.5 443 104 L443.05 104.5 443.1 104.9 Q443.35 106.8 444.75 108.25 446.5 110 449 110 451.5 110 453.25 108.25 454.6 106.85 454.95 105.05 L455 104.5 455 104 M295 119.5 L295 119 Q295 116.5 293.25 114.75 291.5 113 289 113 286.5 113 284.75 114.75 283 116.5 283 119 L283.05 119.5 283.1 119.9 Q283.35 121.8 284.75 123.25 286.5 125 289 125 291.5 125 293.25 123.25 294.6 121.85 294.95 120.05 L295 119.5 M345 119 Q345 116.5 343.25 114.75 341.5 113 339 113 336.5 113 334.75 114.75 333 116.5 333 119 L333.05 119.5 333.1 119.9 Q333.35 121.8 334.75 123.25 336.5 125 339 125 341.5 125 343.25 123.25 344.6 121.85 344.95 120.05 L345 119.5 345 119 M364.75 114.75 Q363 116.5 363 119 L363.05 119.5 363.1 119.9 Q363.35 121.8 364.75 123.25 366.5 125 369 125 371.5 125 373.25 123.25 374.6 121.85 374.95 120.05 L375 119.5 375 119 Q375 116.5 373.25 114.75 371.5 113 369 113 366.5 113 364.75 114.75 M360 104.5 L360 104 Q360 101.5 358.25 99.75 356.5 98 354 98 351.5 98 349.75 99.75 348 101.5 348 104 L348.05 104.5 348.1 104.9 Q348.35 106.8 349.75 108.25 351.5 110 354 110 356.5 110 358.25 108.25 359.6 106.85 359.95 105.05 L360 104.5 M424.95 120.05 L425 119.5 425 119 Q425 116.5 423.25 114.75 421.5 113 419 113 416.5 113 414.75 114.75 413 116.5 413 119 L413.05 119.5 413.1 119.9 Q413.35 121.8 414.75 123.25 416.5 125 419 125 421.5 125 423.25 123.25 424.6 121.85 424.95 120.05 M423.25 108.25 Q424.6 106.85 424.95 105.05 L425 104.5 425 104 Q425 101.5 423.25 99.75 421.5 98 419 98 416.5 98 414.75 99.75 413 101.5 413 104 L413.05 104.5 413.1 104.9 Q413.35 106.8 414.75 108.25 416.5 110 419 110 421.5 110 423.25 108.25 M419 83 Q416.5 83 414.75 84.75 413 86.5 413 89 L413.05 89.5 413.1 89.9 Q413.35 91.8 414.75 93.25 416.5 95 419 95 421.5 95 423.25 93.25 424.6 91.85 424.95 90.05 L425 89.5 425 89 Q425 86.5 423.25 84.75 421.5 83 419 83 M369 83 Q366.5 83 364.75 84.75 363 86.5 363 89 L363.05 89.5 363.1 89.9 Q363.35 91.8 364.75 93.25 366.5 95 369 95 371.5 95 373.25 93.25 374.6 91.85 374.95 90.05 L375 89.5 375 89 Q375 86.5 373.25 84.75 371.5 83 369 83 M339 83 Q336.5 83 334.75 84.75 333 86.5 333 89 L333.05 89.5 333.1 89.9 Q333.35 91.8 334.75 93.25 336.5 95 339 95 341.5 95 343.25 93.25 344.6 91.85 344.95 90.05 L345 89.5 345 89 Q345 86.5 343.25 84.75 341.5 83 339 83 M125.9 73.25 Q144.75 73.9 144.75 93.4 L144.75 114.55 Q144.75 134.7 124.6 134.7 L103.4 134.7 Q84 134.7 83.35 115.95 L83.35 114.55 83.35 93.4 83.35 92 Q83.95 73.85 102.1 73.25 L103.4 73.25 124.6 73.25 125.9 73.25 M182.1 73.25 L183.4 73.25 204.6 73.25 205.9 73.25 Q224.75 73.9 224.75 93.4 L224.75 114.55 Q224.75 134.7 204.6 134.7 L183.4 134.7 Q164 134.7 163.35 115.95 L163.35 114.55 163.35 93.4 163.35 92 Q163.95 73.85 182.1 73.25 M253.1 89.9 Q253.35 91.8 254.75 93.25 256.5 95 259 95 261.5 95 263.25 93.25 264.6 91.85 264.95 90.05 L265 89.5 265 89 Q265 86.5 263.25 84.75 261.5 83 259 83 256.5 83 254.75 84.75 253 86.5 253 89 L253.05 89.5 253.1 89.9 M173 89 L173.05 89.5 173.1 89.9 Q173.35 91.8 174.75 93.25 176.5 95 179 95 181.5 95 183.25 93.25 184.6 91.85 184.95 90.05 L185 89.5 185 89 Q185 86.5 183.25 84.75 181.5 83 179 83 176.5 83 174.75 84.75 173 86.5 173 89 M22.1 73.25 L23.4 73.25 44.6 73.25 45.9 73.25 Q64.75 73.9 64.75 93.4 L64.75 114.55 Q64.75 134.7 44.6 134.7 L23.4 134.7 Q4 134.7 3.35 115.95 L3.35 114.55 3.35 93.4 3.35 92 Q3.95 73.85 22.1 73.25 M123.05 119.5 L123.1 119.9 Q123.35 121.8 124.75 123.25 126.5 125 129 125 131.5 125 133.25 123.25 134.6 121.85 134.95 120.05 L135 119.5 135 119 Q135 116.5 133.25 114.75 131.5 113 129 113 126.5 113 124.75 114.75 123 116.5 123 119 L123.05 119.5 M203 119 L203.05 119.5 203.1 119.9 Q203.35 121.8 204.75 123.25 206.5 125 209 125 211.5 125 213.25 123.25 214.6 121.85 214.95 120.05 L215 119.5 215 119 Q215 116.5 213.25 114.75 211.5 113 209 113 206.5 113 204.75 114.75 203 116.5 203 119 M200 104 Q200 101.5 198.25 99.75 196.5 98 194 98 191.5 98 189.75 99.75 188 101.5 188 104 L188.05 104.5 188.1 104.9 Q188.35 106.8 189.75 108.25 191.5 110 194 110 196.5 110 198.25 108.25 199.6 106.85 199.95 105.05 L200 104.5 200 104 M263.25 114.75 Q261.5 113 259 113 256.5 113 254.75 114.75 253 116.5 253 119 L253.05 119.5 253.1 119.9 Q253.35 121.8 254.75 123.25 256.5 125 259 125 261.5 125 263.25 123.25 264.6 121.85 264.95 120.05 L265 119.5 265 119 Q265 116.5 263.25 114.75 M40 104 Q40 101.5 38.25 99.75 36.5 98 34 98 31.5 98 29.75 99.75 28 101.5 28 104 L28.05 104.5 28.1 104.9 Q28.35 106.8 29.75 108.25 31.5 110 34 110 36.5 110 38.25 108.25 39.6 106.85 39.95 105.05 L40 104.5 40 104 M93 89 L93.05 89.5 93.1 89.9 Q93.35 91.8 94.75 93.25 96.5 95 99 95 101.5 95 103.25 93.25 104.6 91.85 104.95 90.05 L105 89.5 105 89 Q105 86.5 103.25 84.75 101.5 83 99 83 96.5 83 94.75 84.75 93 86.5 93 89"/>
    <path stroke="none" fill="#EEEEEE" d="M444.6 73.25 L423.4 73.25 422.1 73.25 Q403.95 73.85 403.35 92 L403.35 93.4 403.35 114.55 403.35 115.95 Q404 134.7 423.4 134.7 L444.6 134.7 Q464.75 134.7 464.75 114.55 L464.75 93.4 Q464.75 73.9 445.9 73.25 L444.6 73.25 M445.05 72 L446.4 72 456.15 72 Q466 72 466 81.85 L466 126.15 Q466 136 456.15 136 L411.9 136 Q402.05 136 402.05 126.15 L402.05 116.45 402.05 115 402.05 92.95 402.05 91.55 402.05 81.85 Q402.05 72 411.9 72 L421.6 72 423.05 72 445.05 72 M284.6 73.25 L263.4 73.25 262.1 73.25 Q243.95 73.85 243.35 92 L243.35 93.4 243.35 114.55 243.35 115.95 Q244 134.7 263.4 134.7 L284.6 134.7 Q304.75 134.7 304.75 114.55 L304.75 93.4 Q304.75 73.9 285.9 73.25 L284.6 73.25 M285.05 72 L286.4 72 296.15 72 Q306 72 306 81.85 L306 126.15 Q306 136 296.15 136 L251.9 136 Q242.05 136 242.05 126.15 L242.05 116.45 242.05 115 242.05 92.95 242.05 91.55 242.05 81.85 Q242.05 72 251.9 72 L261.6 72 263.05 72 285.05 72 M341.6 72 L343.05 72 365.05 72 366.4 72 376.15 72 Q386 72 386 81.85 L386 126.15 Q386 136 376.15 136 L331.9 136 Q322.05 136 322.05 126.15 L322.05 116.45 322.05 115 322.05 92.95 322.05 91.55 322.05 81.85 Q322.05 72 331.9 72 L341.6 72 M342.1 73.25 Q323.95 73.85 323.35 92 L323.35 93.4 323.35 114.55 323.35 115.95 Q324 134.7 343.4 134.7 L364.6 134.7 Q384.75 134.7 384.75 114.55 L384.75 93.4 Q384.75 73.9 365.9 73.25 L364.6 73.25 343.4 73.25 342.1 73.25 M125.9 73.25 L124.6 73.25 103.4 73.25 102.1 73.25 Q83.95 73.85 83.35 92 L83.35 93.4 83.35 114.55 83.35 115.95 Q84 134.7 103.4 134.7 L124.6 134.7 Q144.75 134.7 144.75 114.55 L144.75 93.4 Q144.75 73.9 125.9 73.25 M181.6 72 L183.05 72 205.05 72 206.4 72 216.15 72 Q226 72 226 81.85 L226 126.15 Q226 136 216.15 136 L171.9 136 Q162.05 136 162.05 126.15 L162.05 116.45 162.05 115 162.05 92.95 162.05 91.55 162.05 81.85 Q162.05 72 171.9 72 L181.6 72 M126.4 72 L136.15 72 Q146 72 146 81.85 L146 126.15 Q146 136 136.15 136 L91.9 136 Q82.05 136 82.05 126.15 L82.05 116.45 82.05 115 82.05 92.95 82.05 91.55 82.05 81.85 Q82.05 72 91.9 72 L101.6 72 103.05 72 125.05 72 126.4 72 M182.1 73.25 Q163.95 73.85 163.35 92 L163.35 93.4 163.35 114.55 163.35 115.95 Q164 134.7 183.4 134.7 L204.6 134.7 Q224.75 134.7 224.75 114.55 L224.75 93.4 Q224.75 73.9 205.9 73.25 L204.6 73.25 183.4 73.25 182.1 73.25 M22.1 73.25 Q3.95 73.85 3.35 92 L3.35 93.4 3.35 114.55 3.35 115.95 Q4 134.7 23.4 134.7 L44.6 134.7 Q64.75 134.7 64.75 114.55 L64.75 93.4 Q64.75 73.9 45.9 73.25 L44.6 73.25 23.4 73.25 22.1 73.25 M21.6 72 L23.05 72 45.05 72 46.4 72 56.15 72 Q66 72 66 81.85 L66 126.15 Q66 136 56.15 136 L11.9 136 Q2.05 136 2.05 126.15 L2.05 116.45 2.05 115 2.05 92.95 2.05 91.55 2.05 81.85 Q2.05 72 11.9 72 L21.6 72"/>
    <path stroke="none" fill="#838383" d="M21.6 72 L11.9 72 Q2.05 72 2.05 81.85 L2.05 91.55 2.05 92.95 2.05 115 2.05 116.45 2.05 126.15 Q2.05 136 11.9 136 L56.15 136 Q66 136 66 126.15 L66 81.85 Q66 72 56.15 72 L46.4 72 45.05 72 23.05 72 21.6 72 M445.05 72 L423.05 72 421.6 72 411.9 72 Q402.05 72 402.05 81.85 L402.05 91.55 402.05 92.95 402.05 115 402.05 116.45 402.05 126.15 Q402.05 136 411.9 136 L456.15 136 Q466 136 466 126.15 L466 81.85 Q466 72 456.15 72 L446.4 72 445.05 72 M446.4 70 L456.15 70 Q468 70 468 81.85 L468 126.15 Q468 138 456.15 138 L411.9 138 Q400.05 138 400.05 125.2 L400.05 116.6 400.05 114.85 400.05 93.1 400.05 91.4 400.05 81.85 Q400.05 70 411.9 70 L421.6 70 423.05 70 445.05 70 446.4 70 M285.05 72 L263.05 72 261.6 72 251.9 72 Q242.05 72 242.05 81.85 L242.05 91.55 242.05 92.95 242.05 115 242.05 116.45 242.05 126.15 Q242.05 136 251.9 136 L296.15 136 Q306 136 306 126.15 L306 81.85 Q306 72 296.15 72 L286.4 72 285.05 72 M286.4 70 L296.15 70 Q308 70 308 81.85 L308 126.15 Q308 138 296.15 138 L251.9 138 Q240.05 138 240.05 125.2 L240.05 116.6 240.05 114.85 240.05 93.1 240.05 91.4 240.05 81.85 Q240.05 70 251.9 70 L261.6 70 263.05 70 285.05 70 286.4 70 M341.6 72 L331.9 72 Q322.05 72 322.05 81.85 L322.05 91.55 322.05 92.95 322.05 115 322.05 116.45 322.05 126.15 Q322.05 136 331.9 136 L376.15 136 Q386 136 386 126.15 L386 81.85 Q386 72 376.15 72 L366.4 72 365.05 72 343.05 72 341.6 72 M343.05 70 L365.05 70 366.4 70 376.15 70 Q388 70 388 81.85 L388 126.15 Q388 138 376.15 138 L331.9 138 Q320.05 138 320.05 125.2 L320.05 116.6 320.05 114.85 320.05 93.1 320.05 91.4 320.05 81.85 Q320.05 70 331.9 70 L341.6 70 343.05 70 M136.15 70 Q148 70 148 81.85 L148 126.15 Q148 138 136.15 138 L91.9 138 Q80.05 138 80.05 125.2 L80.05 116.6 80.05 114.85 80.05 93.1 80.05 91.4 80.05 81.85 Q80.05 70 91.9 70 L101.6 70 103.05 70 125.05 70 126.4 70 136.15 70 M126.4 72 L125.05 72 103.05 72 101.6 72 91.9 72 Q82.05 72 82.05 81.85 L82.05 91.55 82.05 92.95 82.05 115 82.05 116.45 82.05 126.15 Q82.05 136 91.9 136 L136.15 136 Q146 136 146 126.15 L146 81.85 Q146 72 136.15 72 L126.4 72 M181.6 72 L171.9 72 Q162.05 72 162.05 81.85 L162.05 91.55 162.05 92.95 162.05 115 162.05 116.45 162.05 126.15 Q162.05 136 171.9 136 L216.15 136 Q226 136 226 126.15 L226 81.85 Q226 72 216.15 72 L206.4 72 205.05 72 183.05 72 181.6 72 M183.05 70 L205.05 70 206.4 70 216.15 70 Q228 70 228 81.85 L228 126.15 Q228 138 216.15 138 L171.9 138 Q160.05 138 160.05 125.2 L160.05 116.6 160.05 114.85 160.05 93.1 160.05 91.4 160.05 81.85 Q160.05 70 171.9 70 L181.6 70 183.05 70 M23.05 70 L45.05 70 46.4 70 56.15 70 Q68 70 68 81.85 L68 126.15 Q68 138 56.15 138 L11.9 138 Q0.05 138 0.05 125.2 L0.05 116.6 0.05 114.85 0.05 93.1 0.05 91.4 0.05 81.85 Q0.05 70 11.9 70 L21.6 70 23.05 70"/>
    <path stroke="none" fill="#414141" d="M449 83 Q451.5 83 453.25 84.75 455 86.5 455 89 L455 89.5 454.95 90.05 Q454.6 91.85 453.25 93.25 451.5 95 449 95 446.5 95 444.75 93.25 443.35 91.8 443.1 89.9 L443.05 89.5 443 89 Q443 86.5 444.75 84.75 446.5 83 449 83 M289 83 Q291.5 83 293.25 84.75 295 86.5 295 89 L295 89.5 294.95 90.05 Q294.6 91.85 293.25 93.25 291.5 95 289 95 286.5 95 284.75 93.25 283.35 91.8 283.1 89.9 L283.05 89.5 283 89 Q283 86.5 284.75 84.75 286.5 83 289 83 M339 83 Q341.5 83 343.25 84.75 345 86.5 345 89 L345 89.5 344.95 90.05 Q344.6 91.85 343.25 93.25 341.5 95 339 95 336.5 95 334.75 93.25 333.35 91.8 333.1 89.9 L333.05 89.5 333 89 Q333 86.5 334.75 84.75 336.5 83 339 83 M369 83 Q371.5 83 373.25 84.75 375 86.5 375 89 L375 89.5 374.95 90.05 Q374.6 91.85 373.25 93.25 371.5 95 369 95 366.5 95 364.75 93.25 363.35 91.8 363.1 89.9 L363.05 89.5 363 89 Q363 86.5 364.75 84.75 366.5 83 369 83 M419 83 Q421.5 83 423.25 84.75 425 86.5 425 89 L425 89.5 424.95 90.05 Q424.6 91.85 423.25 93.25 421.5 95 419 95 416.5 95 414.75 93.25 413.35 91.8 413.1 89.9 L413.05 89.5 413 89 Q413 86.5 414.75 84.75 416.5 83 419 83 M423.25 108.25 Q421.5 110 419 110 416.5 110 414.75 108.25 413.35 106.8 413.1 104.9 L413.05 104.5 413 104 Q413 101.5 414.75 99.75 416.5 98 419 98 421.5 98 423.25 99.75 425 101.5 425 104 L425 104.5 424.95 105.05 Q424.6 106.85 423.25 108.25 M424.95 120.05 Q424.6 121.85 423.25 123.25 421.5 125 419 125 416.5 125 414.75 123.25 413.35 121.8 413.1 119.9 L413.05 119.5 413 119 Q413 116.5 414.75 114.75 416.5 113 419 113 421.5 113 423.25 114.75 425 116.5 425 119 L425 119.5 424.95 120.05 M360 104.5 L359.95 105.05 Q359.6 106.85 358.25 108.25 356.5 110 354 110 351.5 110 349.75 108.25 348.35 106.8 348.1 104.9 L348.05 104.5 348 104 Q348 101.5 349.75 99.75 351.5 98 354 98 356.5 98 358.25 99.75 360 101.5 360 104 L360 104.5 M364.75 114.75 Q366.5 113 369 113 371.5 113 373.25 114.75 375 116.5 375 119 L375 119.5 374.95 120.05 Q374.6 121.85 373.25 123.25 371.5 125 369 125 366.5 125 364.75 123.25 363.35 121.8 363.1 119.9 L363.05 119.5 363 119 Q363 116.5 364.75 114.75 M345 119 L345 119.5 344.95 120.05 Q344.6 121.85 343.25 123.25 341.5 125 339 125 336.5 125 334.75 123.25 333.35 121.8 333.1 119.9 L333.05 119.5 333 119 Q333 116.5 334.75 114.75 336.5 113 339 113 341.5 113 343.25 114.75 345 116.5 345 119 M295 119.5 L294.95 120.05 Q294.6 121.85 293.25 123.25 291.5 125 289 125 286.5 125 284.75 123.25 283.35 121.8 283.1 119.9 L283.05 119.5 283 119 Q283 116.5 284.75 114.75 286.5 113 289 113 291.5 113 293.25 114.75 295 116.5 295 119 L295 119.5 M455 104 L455 104.5 454.95 105.05 Q454.6 106.85 453.25 108.25 451.5 110 449 110 446.5 110 444.75 108.25 443.35 106.8 443.1 104.9 L443.05 104.5 443 104 Q443 101.5 444.75 99.75 446.5 98 449 98 451.5 98 453.25 99.75 455 101.5 455 104 M444.75 114.75 Q446.5 113 449 113 451.5 113 453.25 114.75 455 116.5 455 119 L455 119.5 454.95 120.05 Q454.6 121.85 453.25 123.25 451.5 125 449 125 446.5 125 444.75 123.25 443.35 121.8 443.1 119.9 L443.05 119.5 443 119 Q443 116.5 444.75 114.75 M173 89 Q173 86.5 174.75 84.75 176.5 83 179 83 181.5 83 183.25 84.75 185 86.5 185 89 L185 89.5 184.95 90.05 Q184.6 91.85 183.25 93.25 181.5 95 179 95 176.5 95 174.75 93.25 173.35 91.8 173.1 89.9 L173.05 89.5 173 89 M253.1 89.9 L253.05 89.5 253 89 Q253 86.5 254.75 84.75 256.5 83 259 83 261.5 83 263.25 84.75 265 86.5 265 89 L265 89.5 264.95 90.05 Q264.6 91.85 263.25 93.25 261.5 95 259 95 256.5 95 254.75 93.25 253.35 91.8 253.1 89.9 M93 89 Q93 86.5 94.75 84.75 96.5 83 99 83 101.5 83 103.25 84.75 105 86.5 105 89 L105 89.5 104.95 90.05 Q104.6 91.85 103.25 93.25 101.5 95 99 95 96.5 95 94.75 93.25 93.35 91.8 93.1 89.9 L93.05 89.5 93 89 M40 104 L40 104.5 39.95 105.05 Q39.6 106.85 38.25 108.25 36.5 110 34 110 31.5 110 29.75 108.25 28.35 106.8 28.1 104.9 L28.05 104.5 28 104 Q28 101.5 29.75 99.75 31.5 98 34 98 36.5 98 38.25 99.75 40 101.5 40 104 M263.25 114.75 Q265 116.5 265 119 L265 119.5 264.95 120.05 Q264.6 121.85 263.25 123.25 261.5 125 259 125 256.5 125 254.75 123.25 253.35 121.8 253.1 119.9 L253.05 119.5 253 119 Q253 116.5 254.75 114.75 256.5 113 259 113 261.5 113 263.25 114.75 M200 104 L200 104.5 199.95 105.05 Q199.6 106.85 198.25 108.25 196.5 110 194 110 191.5 110 189.75 108.25 188.35 106.8 188.1 104.9 L188.05 104.5 188 104 Q188 101.5 189.75 99.75 191.5 98 194 98 196.5 98 198.25 99.75 200 101.5 200 104 M203 119 Q203 116.5 204.75 114.75 206.5 113 209 113 211.5 113 213.25 114.75 215 116.5 215 119 L215 119.5 214.95 120.05 Q214.6 121.85 213.25 123.25 211.5 125 209 125 206.5 125 204.75 123.25 203.35 121.8 203.1 119.9 L203.05 119.5 203 119 M123.05 119.5 L123 119 Q123 116.5 124.75 114.75 126.5 113 129 113 131.5 113 133.25 114.75 135 116.5 135 119 L135 119.5 134.95 120.05 Q134.6 121.85 133.25 123.25 131.5 125 129 125 126.5 125 124.75 123.25 123.35 121.8 123.1 119.9 L123.05 119.5"/>
  </g>
</svg>