<svg xmlns="http://www.w3.org/2000/svg" xmlns:xlink="http://www.w3.org/1999/xlink">
  <defs/>
  <g>
    <path stroke="none" fill="#E86A17" d="M36.95 86.95 Q32 88.45 27 86.95 L26.2 86.2 Q23.85 83.7 23.85 80.35 23.85 76.9 26.2 74.45 28.65 72 32 72 35.3 72 37.75 74.45 40.1 76.9 40.1 80.35 40.1 83.7 37.75 86.2 L36.95 86.95 M39.25 88.2 L41.2 89.8 Q45 93.7 45 99.2 L45 115.2 Q45 117.65 41.2 119.35 37.35 121 32 121 26.6 121 22.75 119.35 19 117.65 19 115.2 L19 99.2 Q19 93.7 22.75 89.8 23.7 88.8 24.8 88.1 32.05 93.2 39.25 88.2"/>
    <path stroke="none" fill="#D46217" d="M36.95 86.95 Q38.1 87.4 39.25 88.2 32.05 93.2 24.8 88.1 25.85 87.4 27 86.95 32 88.45 36.95 86.95"/>
    <path stroke="none" fill="#E86A17" d="M495.6 100.65 L480 84.85 464.35 100.75 463.35 101.8 Q461.9 103.2 460.5 101.8 L457.7 98.9 Q456.3 97.5 457.75 96.1 L479.7 74.05 480.15 74.05 480.45 74.1 489.35 83 490.3 83.95 502.3 96.1 Q503.7 97.5 502.3 98.9 L499.45 101.8 Q498.05 103.2 496.7 101.8 L495.6 100.65 M495.6 104.7 L495.6 118.15 Q495.55 120 493.6 120 L466.3 120 Q464.4 120 464.35 118.15 L464.35 104.8 480 88.9 495.6 104.7"/>
    <path stroke="none" fill="#D46217" d="M495.6 100.65 L495.6 104.7 480 88.9 464.35 104.8 464.35 100.75 480 84.85 495.6 100.65"/>
    <path stroke="none" fill="#E86A17" d="M99.85 91.8 Q95.85 92.9 92.2 91.8 L90.15 90.25 Q87.75 87.8 87.75 84.35 87.75 80.9 90.15 78.4 92.6 76 96 76 99.45 76 101.8 78.4 104.25 80.9 104.25 84.35 104.25 87.8 101.8 90.25 100.9 91.2 99.85 91.8 M101.7 93 L102.35 93.6 Q105 96.3 105 100.05 L105 116.2 Q105 117.35 102.35 118.2 99.7 119 96 119 92.3 119 89.65 118.2 87 117.35 87 116.2 L87 100.05 Q87 96.3 89.65 93.6 L90.35 92.95 Q95.8 97.3 101.7 93"/>
    <path stroke="none" fill="#D46217" d="M99.85 91.8 Q100.85 92.25 101.7 93 95.8 97.3 90.35 92.95 91.2 92.25 92.2 91.8 95.85 92.9 99.85 91.8"/>
    <path stroke="none" fill="#E86A17" d="M153.5 90.5 Q159.85 94.05 166.65 90.7 L168.5 94.05 Q171.95 101.8 172 112.75 L172 112.85 Q172 115.8 168.5 117.9 165 120 160 120 155 120 151.5 117.9 148 115.8 148 112.85 L148 112.75 Q148.05 101.8 151.5 94.05 152.45 91.95 153.5 90.5 M154.95 88.65 Q154.2 88.15 153.55 87.5 150.9 84.85 150.9 81.1 150.9 77.35 153.55 74.7 156.2 72 160 72 163.8 72 166.5 74.7 169.2 77.35 169.2 81.1 169.2 84.85 166.5 87.5 L165.35 88.5 165.15 88.65 Q159.85 90.05 154.95 88.65"/>
    <path stroke="none" fill="#D46217" d="M153.5 90.5 L154.95 88.65 Q159.85 90.05 165.15 88.65 L165.05 88.7 166.65 90.7 Q159.85 94.05 153.5 90.5"/>
    <path stroke="none" fill="#E86A17" d="M229.2 106.35 L218.9 106.35 220.45 90.65 227.65 90.85 229.2 106.35 M220.7 88.2 L219 86.95 Q216.9 84.9 216.9 82 216.9 79.1 219 77.05 221.05 75 223.95 75 226.9 75 228.95 77.05 231 79.1 231 82 231 84.9 228.95 86.95 L227.35 88.2 Q224.2 89 220.7 88.2 M229.4 108.5 L238.95 108.5 Q240.65 108.5 241.8 109.65 243 110.85 243 112.5 L243 116 Q243 117.65 241.8 118.8 240.65 120 238.95 120 L209 120 Q207.35 120 206.15 118.8 205 117.65 205 116 L205 112.5 Q205 110.85 206.15 109.65 207.35 108.5 209 108.5 L218.65 108.5 229.4 108.5"/>
    <path stroke="none" fill="#D46217" d="M220.45 90.65 L220.7 88.2 Q224.2 89 227.35 88.2 L227.65 90.85 220.45 90.65 M229.2 106.35 L229.4 108.5 218.65 108.5 218.9 106.35 229.2 106.35"/>
    <path stroke="none" fill="#E86A17" d="M294.4 107.75 L282.6 107.75 Q278 107 278 101.75 L278 94.2 Q278 91.05 279.65 89.6 288.25 93.95 297.35 89.55 299 91.05 299 94.2 L299 101.75 Q299 107 294.4 107.75 M282.05 88.4 Q279.4 85.75 279.4 82.05 279.4 78.3 282.05 75.65 284.75 73 288.45 73 292.25 73 294.95 75.65 297.6 78.3 297.6 82.05 297.6 85.75 294.95 88.4 288.3 90.75 282.05 88.4 M294.4 110.1 L294.4 118.25 Q294.4 121 291.6 121 L285.4 121 Q282.6 121 282.6 118.25 L282.6 110.1 294.4 110.1"/>
    <path stroke="none" fill="#D46217" d="M294.95 88.4 Q296.4 88.7 297.35 89.55 288.25 93.95 279.65 89.6 280.6 88.7 282.05 88.4 288.3 90.75 294.95 88.4 M294.4 107.75 L294.4 110.1 282.6 110.1 282.6 107.75 294.4 107.75"/>
    <path stroke="none" fill="#E86A17" d="M408.75 86.55 Q407.5 84.5 407.5 82 407.5 78.3 410.15 75.7 412.8 73.05 416.5 73.05 420.25 73.05 422.85 75.7 425.5 78.3 425.5 82 425.5 84.5 424.3 86.55 416.5 91.5 408.75 86.55 M406.9 87.8 Q416.6 95 426.4 87.9 L437.35 94.15 Q439.25 95.2 439.8 97.25 440.35 99.3 439.25 101.15 L438.9 101.75 Q437.85 103.6 435.8 104.15 433.65 104.7 431.8 103.65 L425.65 100.1 425.8 100.3 426.6 102 429.95 114.35 Q430.5 116.4 429.35 118.3 428.3 120.1 426.25 120.7 L425.6 120.85 Q423.5 121.4 421.6 120.35 419.75 119.25 419.2 117.2 L417.4 110.5 415.6 110.5 413.8 117.2 Q413.25 119.25 411.35 120.35 409.5 121.4 407.45 120.85 L406.8 120.7 Q404.65 120.1 403.6 118.3 402.55 116.4 403.1 114.35 L406.45 102 Q406.7 101.05 407.25 100.3 L407.4 100.1 401.2 103.65 Q399.3 104.7 397.25 104.15 395.15 103.6 394.05 101.75 L393.7 101.15 Q392.65 99.3 393.2 97.25 393.75 95.2 395.65 94.15 L406.85 87.8 406.9 87.8"/>
    <path stroke="none" fill="#D46217" d="M408.75 86.55 Q416.5 91.5 424.3 86.55 L426.2 87.8 426.4 87.9 Q416.6 95 406.9 87.8 L408.75 86.55"/>
    <path stroke="none" fill="#E86A17" d="M359.45 105.65 L344.55 105.65 341.65 105.65 Q339 105.65 339 102.95 L339 86.95 339.05 86.95 Q339.4 85 341.65 85 L344.9 85 Q352.4 91.1 359.8 85 L362.35 85 Q364.6 85 364.95 86.95 L365 86.95 365 102.95 Q365 105.55 362.55 105.65 L359.45 105.65 M347.35 85 L347.15 84.8 Q345 82.6 345 79.5 345 76.35 347.15 74.2 349.4 72 352.5 72 355.6 72 357.8 74.2 360 76.35 360 79.5 360 82.6 357.8 84.8 L357.6 85 Q352.5 87 347.35 85 M359.45 107.65 L359.45 119.95 Q358.45 121 356.8 121 L347.2 121 Q345.55 121 344.55 119.95 L344.55 107.65 359.45 107.65"/>
    <path stroke="none" fill="#D46217" d="M357.6 85 L359.8 85 Q352.4 91.1 344.9 85 L347.35 85 Q352.5 87 357.6 85 M359.45 105.65 L359.45 107.65 344.55 107.65 344.55 105.65 359.45 105.65"/>
    <path stroke="none" fill="#E86A17" d="M562.6 100.4 Q561.65 100.75 560.7 99.8 L544 82.85 527.35 99.8 Q526.35 100.8 525.35 100.4 524.9 100.2 524.5 99.8 L521.7 96.9 Q520.3 95.5 521.75 94.1 L543.7 72.05 544.15 72.05 544.45 72.1 553.35 81 554.3 81.95 566.3 94.1 Q567.7 95.5 566.3 96.9 L563.45 99.8 562.6 100.4 M562.6 105.65 L562.6 119.15 Q562.55 120.95 560.75 121 L527.3 121 Q525.4 121 525.35 119.15 L525.35 105.8 544 86.9 559.6 102.7 559.6 102.65 562.6 105.65"/>
    <path stroke="none" fill="#D46217" d="M562.6 100.4 L562.6 105.65 559.6 102.65 559.6 102.7 544 86.9 525.35 105.8 525.35 100.4 Q526.35 100.8 527.35 99.8 L544 82.85 560.7 99.8 Q561.65 100.75 562.6 100.4"/>
    <path stroke="none" fill="#E86A17" d="M661.2 88.35 L656.95 84.05 656.95 77 664.55 77 664.55 81.05 668.65 81.05 668.65 77 676.25 77 676.25 81.05 680.35 81.05 680.35 77 687.95 77 687.95 84.05 683.75 88.35 661.2 88.35 M684.25 91.35 L687.15 107.4 687.15 116 657.7 116 657.7 107.4 660.65 91.35 684.25 91.35"/>
    <path stroke="none" fill="#D46217" d="M661.2 88.35 L683.75 88.35 684.25 91.35 660.65 91.35 661.2 88.35"/>
    <path stroke="none" fill="#E86A17" d="M747.2 97 Q747.2 101.6 743.9 104.9 740.6 108.2 736 108.2 731.3 108.2 728.05 104.9 724.75 101.6 724.75 97 724.75 92.4 728.05 89.1 731.3 85.8 736 85.8 740.6 85.8 743.9 89.1 747.2 92.4 747.2 97 M745.75 87.2 Q741.7 83.15 736 83.15 730.2 83.15 726.2 87.2 722.15 91.3 722.15 97 722.15 102.7 726.2 106.8 730.2 110.85 736 110.85 741.7 110.85 745.75 106.8 749.85 102.7 749.85 97 749.85 91.3 745.75 87.2 M750.8 82.15 Q757 88.35 757 97 757 105.7 750.8 111.85 744.7 118 736 118 727.3 118 721.15 111.85 715 105.7 715 97 715 88.35 721.15 82.15 727.3 76 736 76 744.7 76 750.8 82.15"/>
    <path stroke="none" fill="#D46217" d="M745.75 87.2 Q749.85 91.3 749.85 97 749.85 102.7 745.75 106.8 741.7 110.85 736 110.85 730.2 110.85 726.2 106.8 722.15 102.7 722.15 97 722.15 91.3 726.2 87.2 730.2 83.15 736 83.15 741.7 83.15 745.75 87.2 M747.2 97 Q747.2 92.4 743.9 89.1 740.6 85.8 736 85.8 731.3 85.8 728.05 89.1 724.75 92.4 724.75 97 724.75 101.6 728.05 104.9 731.3 108.2 736 108.2 740.6 108.2 743.9 104.9 747.2 101.6 747.2 97"/>
    <path stroke="none" fill="#E86A17" d="M811.8 93.05 L811.85 93.5 Q811.65 95.2 808.85 96.6 L808.8 96.65 Q805.1 98.45 799.95 98.45 794.7 98.45 791.05 96.65 788.3 95.25 788.1 93.5 L788.15 93.05 788.15 93.1 Q788.65 91.6 791.05 90.4 794.7 88.6 799.95 88.6 805.15 88.6 808.85 90.4 811.3 91.6 811.8 93.1 L811.8 93.05 M779 94.3 L779 92.75 Q779.5 88.9 785.1 86.1 791.25 83 799.95 83 808.65 83 814.8 86.1 820.9 89.15 821 93.4 L821 93.65 Q820.95 95.45 819.85 97.05 818.35 99.2 814.8 100.95 808.65 104 799.95 104 791.25 104 785.1 100.95 781.6 99.2 780.1 97.05 779.2 95.7 779 94.3 M813.85 93.5 L813.75 92.6 Q813.2 90.3 809.7 88.6 805.65 86.6 799.95 86.6 794.15 86.6 790.15 88.6 786.75 90.3 786.2 92.6 L786.1 93.5 Q786.1 96.35 790.15 98.4 794.15 100.45 799.95 100.45 805.65 100.45 809.7 98.4 813.85 96.35 813.85 93.5"/>
    <path stroke="none" fill="#D46217" d="M821 93.65 L821 100.65 Q820.9 104.9 814.8 107.95 808.65 111 799.95 111 791.25 111 785.1 107.95 779.55 105.15 779 101.3 L779 94.3 Q779.2 95.7 780.1 97.05 781.6 99.2 785.1 100.95 791.25 104 799.95 104 808.65 104 814.8 100.95 818.35 99.2 819.85 97.05 820.95 95.45 821 93.65 M813.85 93.5 Q813.85 96.35 809.7 98.4 805.65 100.45 799.95 100.45 794.15 100.45 790.15 98.4 786.1 96.35 786.1 93.5 L786.2 92.6 Q786.75 90.3 790.15 88.6 794.15 86.6 799.95 86.6 805.65 86.6 809.7 88.6 813.2 90.3 813.75 92.6 L813.85 93.5 M811.8 93.05 L811.8 93.1 Q811.3 91.6 808.85 90.4 805.15 88.6 799.95 88.6 794.7 88.6 791.05 90.4 788.65 91.6 788.15 93.1 L788.15 93.05 788.1 93.5 Q788.3 95.25 791.05 96.65 794.7 98.45 799.95 98.45 805.1 98.45 808.8 96.65 L808.85 96.6 Q811.65 95.2 811.85 93.5 L811.8 93.05"/>
    <path stroke="none" fill="#E86A17" d="M860.9 85.8 L860.9 96.35 870.1 96.35 867.05 85.8 860.9 85.8 M869.85 82 L874.95 93.9 886 95.6 885.25 110.3 881.65 110.25 881.8 108.5 Q881.8 105.4 879.6 103.2 877.4 101 874.25 101 871.15 101 868.95 103.2 866.65 105.4 866.65 108.5 L866.8 110 860.05 109.85 860.15 108.5 Q860.15 105.4 857.95 103.2 855.7 101 852.6 101 849.45 101 847.25 103.2 845.05 105.4 845.05 108.5 L845.1 109.6 841 109.5 841 95.6 850.8 94.55 856.1 82 869.85 82 M879.8 108.5 L879.7 109.8 Q879.35 111.25 878.2 112.4 876.55 114 874.25 114 872 114 870.4 112.4 869.15 111.2 868.85 109.65 L868.8 109.6 868.7 108.5 Q868.7 106.25 870.4 104.6 872 103 874.25 103 876.55 103 878.2 104.6 L878.2 104.55 Q879.8 106.2 879.8 108.5 M856.55 104.55 L856.55 104.6 Q858.15 106.25 858.15 108.5 L858.1 109.5 Q857.75 111.2 856.55 112.4 854.9 114 852.6 114 850.3 114 848.7 112.4 847.35 111.1 847.1 109.35 L847.1 109.45 847.05 108.5 Q847.05 106.2 848.7 104.55 L848.7 104.6 Q850.3 103 852.6 103 854.85 103 856.55 104.55"/>
    <path stroke="none" fill="#D46217" d="M860.9 85.8 L867.05 85.8 870.1 96.35 860.9 96.35 860.9 85.8"/>
    <path stroke="none" fill="#E86A17" d="M943.95 108.2 Q930.05 114.15 913.45 114.8 L910 107.5 945 103.2 Q944.65 105.85 943.95 108.2 M915.25 104.45 L926.45 75 929.75 102.3 915.25 104.45"/>
    <path stroke="none" fill="#D46217" d="M943.95 108.2 Q941.9 115.05 936.35 119 L915.45 119 913.45 114.8 Q930.05 114.15 943.95 108.2"/>
    <path stroke="none" fill="#E86A17" d="M998.55 96.55 L985.55 96.55 976.35 85.8 981.05 84 998.55 96.55 M1002.6 99.45 L1003 99.75 1011.05 99.95 1011.2 99.95 1012 99.95 Q1013.95 100.1 1015.35 101.3 1017 102.6 1017 104.5 1017 106.35 1015.35 107.7 1013.75 108.95 1011.55 109 L1011.25 109 1011.05 109 972.9 109 968 94.25 972.5 94.25 979 99.25 988 99.45 1002.6 99.45"/>
    <path stroke="none" fill="#D46217" d="M998.55 96.55 L1002.6 99.45 988 99.45 985.55 96.55 998.55 96.55"/>
    <path stroke="none" fill="#E86A17" d="M1075.7 98.75 L1032.3 98.75 1032.3 91.3 1030 89 1030 86.35 1043.55 86.35 1043.55 89.85 1053.55 89.85 Q1053.7 89.05 1054.25 88.45 1055.1 87.65 1056.35 87.65 1057.55 87.65 1058.4 88.45 1059.05 89.05 1059.2 89.85 L1066.45 89.85 1066.45 86.35 1066.7 86.35 Q1069.7 85.65 1072.9 86.35 L1072.9 89.85 1078 89.85 Q1080.2 94.75 1078 98.75 L1075.7 98.75 M1077 101.05 L1080 101.05 1080 105.55 1078.1 105.55 Q1077.9 106.8 1076.9 107.8 1075.65 109 1073.9 109 1072.2 109 1070.95 107.8 1069.95 106.8 1069.75 105.55 L1065.8 105.55 Q1065.6 106.8 1064.6 107.8 1063.4 109 1061.65 109 1059.85 109 1058.6 107.8 1057.6 106.8 1057.4 105.55 L1053.55 105.55 Q1053.35 106.8 1052.35 107.8 1051.1 109 1049.35 109 1047.55 109 1046.3 107.8 1045.3 106.8 1045.1 105.55 L1041.25 105.55 Q1041.05 106.8 1040.05 107.8 1038.8 109 1037 109 1035.25 109 1034 107.8 1033.05 106.8 1032.85 105.55 L1030.95 105.55 1030.95 101.05 1032.3 101.05 1077 101.05"/>
    <path stroke="none" fill="#D46217" d="M1075.7 98.75 L1077 101.05 1032.3 101.05 1032.3 98.75 1075.7 98.75"/>
    <path stroke="none" fill="#E86A17" d="M1175.1 79 L1175.75 79.25 Q1187.35 87.55 1200 88.7 L1200 89.3 Q1189.9 101.75 1175.1 99.55 L1175.1 79"/>
    <path stroke="none" fill="#D46217" d="M1175.1 79 L1175.1 99.55 1175.1 116 1171 116 1171 79 1175.1 79"/>
    <path stroke="none" fill="#E86A17" d="M1110.2 79.8 L1112.65 80.5 1117.55 80.05 Q1117.85 79.95 1118.25 79.8 1119.15 79.45 1119.95 79.25 L1123.85 79.1 1125.4 79.5 1126.3 79.8 1129.3 80.55 Q1131.8 80.8 1134.3 79.8 L1134.75 79.6 1136 79.25 1136 99.9 1134.75 100.25 1134.3 100.45 Q1131.8 101.45 1129.3 101.2 L1126.3 100.45 1125.4 100.15 1123.85 99.75 1119.95 99.9 Q1119.15 100.1 1118.25 100.45 L1117.55 100.7 1112.65 101.15 1112.2 101.1 1111.9 101 1110.2 100.45 1110.2 79.8"/>
    <path stroke="none" fill="#D46217" d="M1110.2 79.8 L1110.2 100.45 1110.2 117 1106 117 1106 79.8 1110.2 79.8"/>
    <path stroke="none" fill="#DBDBDB" d="M584.3 91.1 L585.25 92.85 585.2 92.85 584.3 91.1"/>
    <path stroke="none" fill="#707070" d="M606.4 77.5 L606.1 77.6 605.05 78.25 606.05 77.6 606.4 77.5"/>
    <path stroke="none" fill="#E86A17" d="M588.2 91.5 L595.75 88.1 596.15 87.95 607.05 105.65 607.05 121.9 607.05 122 588.2 110.85 588.2 91.5 M625.9 95.55 L609 105.5 608.7 105.05 608.4 104.55 604.2 97.65 597.35 86.5 596.85 85.7 596.35 84.95 618.4 72 631 92.55 630.95 92.6 625.9 95.55"/>
    <path stroke="none" fill="#D46217" d="M625.9 95.55 L625.9 110.85 607.05 121.9 607.05 105.65 596.15 87.95 596.15 87.9 595.75 88.1 588.2 91.5 585.25 92.85 584.3 91.1 584 90.55 605.05 78.25 606.1 77.6 606.4 77.5 618.4 72 596.35 84.95 596.85 85.7 597.35 86.5 604.2 97.65 608.4 104.55 608.7 105.05 609 105.5 625.9 95.55"/>
    <path stroke="none" fill="#E86A17" d="M27 86.95 L26.2 86.2 Q23.85 83.7 23.85 80.35 23.85 76.9 26.2 74.45 28.65 72 32 72 35.3 72 37.75 74.45 40.1 76.9 40.1 80.35 40.1 83.7 37.75 86.2 L36.95 86.95 Q32 88.45 27 86.95 M39.25 88.2 L41.2 89.8 Q45 93.7 45 99.2 L45 115.2 Q45 117.65 41.2 119.35 37.35 121 32 121 26.6 121 22.75 119.35 19 117.65 19 115.2 L19 99.2 Q19 93.7 22.75 89.8 23.7 88.8 24.8 88.1 32.05 93.2 39.25 88.2"/>
    <path stroke="none" fill="#D46217" d="M39.25 88.2 Q32.05 93.2 24.8 88.1 25.85 87.4 27 86.95 32 88.45 36.95 86.95 38.1 87.4 39.25 88.2"/>
    <path stroke="none" fill="#E86A17" d="M464.35 100.75 L463.35 101.8 Q461.9 103.2 460.5 101.8 L457.7 98.9 Q456.3 97.5 457.75 96.1 L479.7 74.05 480.15 74.05 480.45 74.1 489.35 83 490.3 83.95 502.3 96.1 Q503.7 97.5 502.3 98.9 L499.45 101.8 Q498.05 103.2 496.7 101.8 L495.6 100.65 480 84.85 464.35 100.75 M495.6 104.7 L495.6 118.15 Q495.55 120 493.6 120 L466.3 120 Q464.4 120 464.35 118.15 L464.35 104.8 480 88.9 495.6 104.7"/>
    <path stroke="none" fill="#D46217" d="M495.6 104.7 L480 88.9 464.35 104.8 464.35 100.75 480 84.85 495.6 100.65 495.6 104.7"/>
    <path stroke="none" fill="#E86A17" d="M99.85 91.8 Q95.85 92.9 92.2 91.8 L90.15 90.25 Q87.75 87.8 87.75 84.35 87.75 80.9 90.15 78.4 92.6 76 96 76 99.45 76 101.8 78.4 104.25 80.9 104.25 84.35 104.25 87.8 101.8 90.25 100.9 91.2 99.85 91.8 M90.35 92.95 Q95.8 97.3 101.7 93 L102.35 93.6 Q105 96.3 105 100.05 L105 116.2 Q105 117.35 102.35 118.2 99.7 119 96 119 92.3 119 89.65 118.2 87 117.35 87 116.2 L87 100.05 Q87 96.3 89.65 93.6 L90.35 92.95"/>
    <path stroke="none" fill="#D46217" d="M90.35 92.95 Q91.2 92.25 92.2 91.8 95.85 92.9 99.85 91.8 100.85 92.25 101.7 93 95.8 97.3 90.35 92.95"/>
    <path stroke="none" fill="#E86A17" d="M166.65 90.7 L168.5 94.05 Q171.95 101.8 172 112.75 L172 112.85 Q172 115.8 168.5 117.9 165 120 160 120 155 120 151.5 117.9 148 115.8 148 112.85 L148 112.75 Q148.05 101.8 151.5 94.05 152.45 91.95 153.5 90.5 159.85 94.05 166.65 90.7 M154.95 88.65 Q154.2 88.15 153.55 87.5 150.9 84.85 150.9 81.1 150.9 77.35 153.55 74.7 156.2 72 160 72 163.8 72 166.5 74.7 169.2 77.35 169.2 81.1 169.2 84.85 166.5 87.5 L165.35 88.5 165.15 88.65 Q159.85 90.05 154.95 88.65"/>
    <path stroke="none" fill="#D46217" d="M154.95 88.65 Q159.85 90.05 165.15 88.65 L165.05 88.7 166.65 90.7 Q159.85 94.05 153.5 90.5 L154.95 88.65"/>
    <path stroke="none" fill="#E86A17" d="M220.7 88.2 L219 86.95 Q216.9 84.9 216.9 82 216.9 79.1 219 77.05 221.05 75 223.95 75 226.9 75 228.95 77.05 231 79.1 231 82 231 84.9 228.95 86.95 L227.35 88.2 Q224.2 89 220.7 88.2 M227.65 90.85 L229.2 106.35 218.9 106.35 220.45 90.65 227.65 90.85 M229.4 108.5 L238.95 108.5 Q240.65 108.5 241.8 109.65 243 110.85 243 112.5 L243 116 Q243 117.65 241.8 118.8 240.65 120 238.95 120 L209 120 Q207.35 120 206.15 118.8 205 117.65 205 116 L205 112.5 Q205 110.85 206.15 109.65 207.35 108.5 209 108.5 L218.65 108.5 229.4 108.5"/>
    <path stroke="none" fill="#D46217" d="M229.4 108.5 L218.65 108.5 218.9 106.35 229.2 106.35 229.4 108.5 M220.45 90.65 L220.7 88.2 Q224.2 89 227.35 88.2 L227.65 90.85 220.45 90.65"/>
    <path stroke="none" fill="#E86A17" d="M282.05 88.4 Q279.4 85.75 279.4 82.05 279.4 78.3 282.05 75.65 284.75 73 288.45 73 292.25 73 294.95 75.65 297.6 78.3 297.6 82.05 297.6 85.75 294.95 88.4 288.3 90.75 282.05 88.4 M297.35 89.55 Q299 91.05 299 94.2 L299 101.75 Q299 107 294.4 107.75 L282.6 107.75 Q278 107 278 101.75 L278 94.2 Q278 91.05 279.65 89.6 288.25 93.95 297.35 89.55 M294.4 110.1 L294.4 118.25 Q294.4 121 291.6 121 L285.4 121 Q282.6 121 282.6 118.25 L282.6 110.1 294.4 110.1"/>
    <path stroke="none" fill="#D46217" d="M294.4 110.1 L282.6 110.1 282.6 107.75 294.4 107.75 294.4 110.1 M294.95 88.4 Q296.4 88.7 297.35 89.55 288.25 93.95 279.65 89.6 280.6 88.7 282.05 88.4 288.3 90.75 294.95 88.4"/>
    <path stroke="none" fill="#E86A17" d="M408.75 86.55 Q407.5 84.5 407.5 82 407.5 78.3 410.15 75.7 412.8 73.05 416.5 73.05 420.25 73.05 422.85 75.7 425.5 78.3 425.5 82 425.5 84.5 424.3 86.55 416.5 91.5 408.75 86.55 M426.4 87.9 L437.35 94.15 Q439.25 95.2 439.8 97.25 440.35 99.3 439.25 101.15 L438.9 101.75 Q437.85 103.6 435.8 104.15 433.65 104.7 431.8 103.65 L425.65 100.1 425.8 100.3 426.6 102 429.95 114.35 Q430.5 116.4 429.35 118.3 428.3 120.1 426.25 120.7 L425.6 120.85 Q423.5 121.4 421.6 120.35 419.75 119.25 419.2 117.2 L417.4 110.5 415.6 110.5 413.8 117.2 Q413.25 119.25 411.35 120.35 409.5 121.4 407.45 120.85 L406.8 120.7 Q404.65 120.1 403.6 118.3 402.55 116.4 403.1 114.35 L406.45 102 Q406.7 101.05 407.25 100.3 L407.4 100.1 401.2 103.65 Q399.3 104.7 397.25 104.15 395.15 103.6 394.05 101.75 L393.7 101.15 Q392.65 99.3 393.2 97.25 393.75 95.2 395.65 94.15 L406.85 87.8 406.9 87.8 Q416.6 95 426.4 87.9"/>
    <path stroke="none" fill="#D46217" d="M426.4 87.9 Q416.6 95 406.9 87.8 L408.75 86.55 Q416.5 91.5 424.3 86.55 L426.2 87.8 426.4 87.9"/>
    <path stroke="none" fill="#E86A17" d="M347.35 85 L347.15 84.8 Q345 82.6 345 79.5 345 76.35 347.15 74.2 349.4 72 352.5 72 355.6 72 357.8 74.2 360 76.35 360 79.5 360 82.6 357.8 84.8 L357.6 85 Q352.5 87 347.35 85 M359.8 85 L362.35 85 Q364.6 85 364.95 86.95 L365 86.95 365 102.95 Q365 105.55 362.55 105.65 L359.45 105.65 344.55 105.65 341.65 105.65 Q339 105.65 339 102.95 L339 86.95 339.05 86.95 Q339.4 85 341.65 85 L344.9 85 Q352.4 91.1 359.8 85 M359.45 107.65 L359.45 119.95 Q358.45 121 356.8 121 L347.2 121 Q345.55 121 344.55 119.95 L344.55 107.65 359.45 107.65"/>
    <path stroke="none" fill="#D46217" d="M359.45 107.65 L344.55 107.65 344.55 105.65 359.45 105.65 359.45 107.65 M357.6 85 L359.8 85 Q352.4 91.1 344.9 85 L347.35 85 Q352.5 87 357.6 85"/>
    <path stroke="none" fill="#E86A17" d="M525.35 100.4 Q524.9 100.2 524.5 99.8 L521.7 96.9 Q520.3 95.5 521.75 94.1 L543.7 72.05 544.15 72.05 544.45 72.1 553.35 81 554.3 81.95 566.3 94.1 Q567.7 95.5 566.3 96.9 L563.45 99.8 562.6 100.4 Q561.65 100.75 560.7 99.8 L544 82.85 527.35 99.8 Q526.35 100.8 525.35 100.4 M562.6 105.65 L562.6 119.15 Q562.55 120.95 560.75 121 L527.3 121 Q525.4 121 525.35 119.15 L525.35 105.8 544 86.9 559.6 102.7 559.6 102.65 562.6 105.65"/>
    <path stroke="none" fill="#D46217" d="M562.6 105.65 L559.6 102.65 559.6 102.7 544 86.9 525.35 105.8 525.35 100.4 Q526.35 100.8 527.35 99.8 L544 82.85 560.7 99.8 Q561.65 100.75 562.6 100.4 L562.6 105.65"/>
    <path stroke="none" fill="#E86A17" d="M660.65 91.35 L684.25 91.35 687.15 107.4 687.15 116 657.7 116 657.7 107.4 660.65 91.35 M683.75 88.35 L661.2 88.35 656.95 84.05 656.95 77 664.55 77 664.55 81.05 668.65 81.05 668.65 77 676.25 77 676.25 81.05 680.35 81.05 680.35 77 687.95 77 687.95 84.05 683.75 88.35"/>
    <path stroke="none" fill="#D46217" d="M683.75 88.35 L684.25 91.35 660.65 91.35 661.2 88.35 683.75 88.35"/>
    <path stroke="none" fill="#E86A17" d="M749.85 97 Q749.85 91.3 745.75 87.2 741.7 83.15 736 83.15 730.2 83.15 726.2 87.2 722.15 91.3 722.15 97 722.15 102.7 726.2 106.8 730.2 110.85 736 110.85 741.7 110.85 745.75 106.8 749.85 102.7 749.85 97 M743.9 89.1 Q747.2 92.4 747.2 97 747.2 101.6 743.9 104.9 740.6 108.2 736 108.2 731.3 108.2 728.05 104.9 724.75 101.6 724.75 97 724.75 92.4 728.05 89.1 731.3 85.8 736 85.8 740.6 85.8 743.9 89.1 M757 97 Q757 105.7 750.8 111.85 744.7 118 736 118 727.3 118 721.15 111.85 715 105.7 715 97 715 88.35 721.15 82.15 727.3 76 736 76 744.7 76 750.8 82.15 757 88.35 757 97"/>
    <path stroke="none" fill="#D46217" d="M749.85 97 Q749.85 102.7 745.75 106.8 741.7 110.85 736 110.85 730.2 110.85 726.2 106.8 722.15 102.7 722.15 97 722.15 91.3 726.2 87.2 730.2 83.15 736 83.15 741.7 83.15 745.75 87.2 749.85 91.3 749.85 97 M743.9 89.1 Q740.6 85.8 736 85.8 731.3 85.8 728.05 89.1 724.75 92.4 724.75 97 724.75 101.6 728.05 104.9 731.3 108.2 736 108.2 740.6 108.2 743.9 104.9 747.2 101.6 747.2 97 747.2 92.4 743.9 89.1"/>
    <path stroke="none" fill="#E86A17" d="M779 94.3 L779 92.75 Q779.5 88.9 785.1 86.1 791.25 83 799.95 83 808.65 83 814.8 86.1 820.9 89.15 821 93.4 L821 93.65 Q820.95 95.45 819.85 97.05 818.35 99.2 814.8 100.95 808.65 104 799.95 104 791.25 104 785.1 100.95 781.6 99.2 780.1 97.05 779.2 95.7 779 94.3 M813.85 93.5 L813.75 92.6 Q813.2 90.3 809.7 88.6 805.65 86.6 799.95 86.6 794.15 86.6 790.15 88.6 786.75 90.3 786.2 92.6 L786.1 93.5 Q786.1 96.35 790.15 98.4 794.15 100.45 799.95 100.45 805.65 100.45 809.7 98.4 813.85 96.35 813.85 93.5 M811.85 93.5 Q811.65 95.2 808.85 96.6 L808.8 96.65 Q805.1 98.45 799.95 98.45 794.7 98.45 791.05 96.65 788.3 95.25 788.1 93.5 L788.15 93.05 788.15 93.1 Q788.65 91.6 791.05 90.4 794.7 88.6 799.95 88.6 805.15 88.6 808.85 90.4 811.3 91.6 811.8 93.1 L811.8 93.05 811.85 93.5"/>
    <path stroke="none" fill="#D46217" d="M811.85 93.5 L811.8 93.05 811.8 93.1 Q811.3 91.6 808.85 90.4 805.15 88.6 799.95 88.6 794.7 88.6 791.05 90.4 788.65 91.6 788.15 93.1 L788.15 93.05 788.1 93.5 Q788.3 95.25 791.05 96.65 794.7 98.45 799.95 98.45 805.1 98.45 808.8 96.65 L808.85 96.6 Q811.65 95.2 811.85 93.5 M821 93.65 L821 100.65 Q820.9 104.9 814.8 107.95 808.65 111 799.95 111 791.25 111 785.1 107.95 779.55 105.15 779 101.3 L779 94.3 Q779.2 95.7 780.1 97.05 781.6 99.2 785.1 100.95 791.25 104 799.95 104 808.65 104 814.8 100.95 818.35 99.2 819.85 97.05 820.95 95.45 821 93.65 M813.85 93.5 Q813.85 96.35 809.7 98.4 805.65 100.45 799.95 100.45 794.15 100.45 790.15 98.4 786.1 96.35 786.1 93.5 L786.2 92.6 Q786.75 90.3 790.15 88.6 794.15 86.6 799.95 86.6 805.65 86.6 809.7 88.6 813.2 90.3 813.75 92.6 L813.85 93.5"/>
    <path stroke="none" fill="#E86A17" d="M856.1 82 L869.85 82 874.95 93.9 886 95.6 885.25 110.3 881.65 110.25 881.8 108.5 Q881.8 105.4 879.6 103.2 877.4 101 874.25 101 871.15 101 868.95 103.2 866.65 105.4 866.65 108.5 L866.8 110 860.05 109.85 860.15 108.5 Q860.15 105.4 857.95 103.2 855.7 101 852.6 101 849.45 101 847.25 103.2 845.05 105.4 845.05 108.5 L845.1 109.6 841 109.5 841 95.6 850.8 94.55 856.1 82 M867.05 85.8 L860.9 85.8 860.9 96.35 870.1 96.35 867.05 85.8 M878.2 104.55 Q879.8 106.2 879.8 108.5 L879.7 109.8 Q879.35 111.25 878.2 112.4 876.55 114 874.25 114 872 114 870.4 112.4 869.15 111.2 868.85 109.65 L868.8 109.6 868.7 108.5 Q868.7 106.25 870.4 104.6 872 103 874.25 103 876.55 103 878.2 104.6 L878.2 104.55 M856.55 104.55 L856.55 104.6 Q858.15 106.25 858.15 108.5 L858.1 109.5 Q857.75 111.2 856.55 112.4 854.9 114 852.6 114 850.3 114 848.7 112.4 847.35 111.1 847.1 109.35 L847.1 109.45 847.05 108.5 Q847.05 106.2 848.7 104.55 L848.7 104.6 Q850.3 103 852.6 103 854.85 103 856.55 104.55"/>
    <path stroke="none" fill="#D46217" d="M867.05 85.8 L870.1 96.35 860.9 96.35 860.9 85.8 867.05 85.8"/>
    <path stroke="none" fill="#E86A17" d="M913.45 114.8 L910 107.5 945 103.2 Q944.65 105.85 943.95 108.2 930.05 114.15 913.45 114.8 M915.25 104.45 L926.45 75 929.75 102.3 915.25 104.45"/>
    <path stroke="none" fill="#D46217" d="M943.95 108.2 Q941.9 115.05 936.35 119 L915.45 119 913.45 114.8 Q930.05 114.15 943.95 108.2"/>
    <path stroke="none" fill="#E86A17" d="M985.55 96.55 L976.35 85.8 981.05 84 998.55 96.55 985.55 96.55 M1002.6 99.45 L1003 99.75 1011.05 99.95 1011.2 99.95 1012 99.95 Q1013.95 100.1 1015.35 101.3 1017 102.6 1017 104.5 1017 106.35 1015.35 107.7 1013.75 108.95 1011.55 109 L1011.25 109 1011.05 109 972.9 109 968 94.25 972.5 94.25 979 99.25 988 99.45 1002.6 99.45"/>
    <path stroke="none" fill="#D46217" d="M1002.6 99.45 L988 99.45 985.55 96.55 998.55 96.55 1002.6 99.45"/>
    <path stroke="none" fill="#E86A17" d="M1032.3 98.75 L1032.3 91.3 1030 89 1030 86.35 1043.55 86.35 1043.55 89.85 1053.55 89.85 Q1053.7 89.05 1054.25 88.45 1055.1 87.65 1056.35 87.65 1057.55 87.65 1058.4 88.45 1059.05 89.05 1059.2 89.85 L1066.45 89.85 1066.45 86.35 1066.7 86.35 Q1069.7 85.65 1072.9 86.35 L1072.9 89.85 1078 89.85 Q1080.2 94.75 1078 98.75 L1075.7 98.75 1032.3 98.75 M1077 101.05 L1080 101.05 1080 105.55 1078.1 105.55 Q1077.9 106.8 1076.9 107.8 1075.65 109 1073.9 109 1072.2 109 1070.95 107.8 1069.95 106.8 1069.75 105.55 L1065.8 105.55 Q1065.6 106.8 1064.6 107.8 1063.4 109 1061.65 109 1059.85 109 1058.6 107.8 1057.6 106.8 1057.4 105.55 L1053.55 105.55 Q1053.35 106.8 1052.35 107.8 1051.1 109 1049.35 109 1047.55 109 1046.3 107.8 1045.3 106.8 1045.1 105.55 L1041.25 105.55 Q1041.05 106.8 1040.05 107.8 1038.8 109 1037 109 1035.25 109 1034 107.8 1033.05 106.8 1032.85 105.55 L1030.95 105.55 1030.95 101.05 1032.3 101.05 1077 101.05"/>
    <path stroke="none" fill="#D46217" d="M1077 101.05 L1032.3 101.05 1032.3 98.75 1075.7 98.75 1077 101.05"/>
    <path stroke="none" fill="#E86A17" d="M1175.1 79 L1175.75 79.25 Q1187.35 87.55 1200 88.7 L1200 89.3 Q1189.9 101.75 1175.1 99.55 L1175.1 79"/>
    <path stroke="none" fill="#D46217" d="M1175.1 79 L1175.1 99.55 1175.1 116 1171 116 1171 79 1175.1 79"/>
    <path stroke="none" fill="#E86A17" d="M1110.2 79.8 L1112.65 80.5 1117.55 80.05 Q1117.85 79.95 1118.25 79.8 1119.15 79.45 1119.95 79.25 L1123.85 79.1 1125.4 79.5 1126.3 79.8 1129.3 80.55 Q1131.8 80.8 1134.3 79.8 L1134.75 79.6 1136 79.25 1136 99.9 1134.75 100.25 1134.3 100.45 Q1131.8 101.45 1129.3 101.2 L1126.3 100.45 1125.4 100.15 1123.85 99.75 1119.95 99.9 Q1119.15 100.1 1118.25 100.45 L1117.55 100.7 1112.65 101.15 1112.2 101.1 1111.9 101 1110.2 100.45 1110.2 79.8"/>
    <path stroke="none" fill="#D46217" d="M1110.2 79.8 L1110.2 100.45 1110.2 117 1106 117 1106 79.8 1110.2 79.8"/>
    <path stroke="none" fill="#DBDBDB" d="M585.25 92.85 L585.2 92.85 584.3 91.1 585.25 92.85"/>
    <path stroke="none" fill="#707070" d="M605.05 78.25 L606.05 77.6 606.4 77.5 606.1 77.6 605.05 78.25"/>
    <path stroke="none" fill="#E86A17" d="M618.4 72 L631 92.55 630.95 92.6 625.9 95.55 609 105.5 608.7 105.05 608.4 104.55 604.2 97.65 597.35 86.5 596.85 85.7 596.35 84.95 618.4 72 M607.05 121.9 L607.05 122 588.2 110.85 588.2 91.5 595.75 88.1 596.15 87.95 607.05 105.65 607.05 121.9"/>
    <path stroke="none" fill="#D46217" d="M585.25 92.85 L584.3 91.1 584 90.55 605.05 78.25 606.1 77.6 606.4 77.5 618.4 72 596.35 84.95 596.85 85.7 597.35 86.5 604.2 97.65 608.4 104.55 608.7 105.05 609 105.5 625.9 95.55 625.9 110.85 607.05 121.9 607.05 105.65 596.15 87.95 596.15 87.9 595.75 88.1 588.2 91.5 585.25 92.85"/>
    <path stroke="none" fill="#E86A17" d="M408.75 22.55 Q407.5 20.5 407.5 18 407.5 14.3 410.15 11.7 412.8 9.05 416.5 9.05 420.25 9.05 422.85 11.7 425.5 14.3 425.5 18 425.5 20.5 424.3 22.55 L426.2 23.8 437.35 30.15 Q439.25 31.2 439.8 33.25 440.35 35.3 439.25 37.15 L438.9 37.75 Q437.85 39.6 435.8 40.15 433.65 40.7 431.8 39.65 L425.65 36.1 425.8 36.3 426.6 38 429.95 50.35 Q430.5 52.4 429.35 54.3 428.3 56.1 426.25 56.7 L425.6 56.85 Q423.5 57.4 421.6 56.35 419.75 55.25 419.2 53.2 L417.4 46.5 415.6 46.5 413.8 53.2 Q413.25 55.25 411.35 56.35 409.5 57.4 407.45 56.85 L406.8 56.7 Q404.65 56.1 403.6 54.3 402.55 52.4 403.1 50.35 L406.45 38 Q406.7 37.05 407.25 36.3 L407.4 36.1 401.2 39.65 Q399.3 40.7 397.25 40.15 395.15 39.6 394.05 37.75 L393.7 37.15 Q392.65 35.3 393.2 33.25 393.75 31.2 395.65 30.15 L406.85 23.8 406.9 23.8 408.75 22.55"/>
    <path stroke="none" fill="#E86A17" d="M365 22.95 L365 38.95 Q365 41.55 362.55 41.65 L359.45 41.65 359.45 55.95 Q358.45 57 356.8 57 L347.2 57 Q345.55 57 344.55 55.95 L344.55 41.65 341.65 41.65 Q339 41.65 339 38.95 L339 22.95 339.05 22.95 Q339.4 21 341.65 21 L347.35 21 347.15 20.8 Q345 18.6 345 15.5 345 12.35 347.15 10.2 349.4 8 352.5 8 355.6 8 357.8 10.2 360 12.35 360 15.5 360 18.6 357.8 20.8 L357.6 21 362.35 21 Q364.6 21 364.95 22.95 L365 22.95"/>
    <path stroke="none" fill="#E86A17" d="M294.4 43.75 L294.4 54.25 Q294.4 57 291.6 57 L285.4 57 Q282.6 57 282.6 54.25 L282.6 43.75 Q278 43 278 37.75 L278 30.2 Q278 27.05 279.65 25.6 280.6 24.7 282.05 24.4 279.4 21.75 279.4 18.05 279.4 14.3 282.05 11.65 284.75 9 288.45 9 292.25 9 294.95 11.65 297.6 14.3 297.6 18.05 297.6 21.75 294.95 24.4 296.4 24.7 297.35 25.55 299 27.05 299 30.2 L299 37.75 Q299 43 294.4 43.75"/>
    <path stroke="none" fill="#E86A17" d="M243 52 Q243 53.65 241.8 54.8 240.65 56 238.95 56 L209 56 Q207.35 56 206.15 54.8 205 53.65 205 52 L205 48.5 Q205 46.85 206.15 45.65 207.35 44.5 209 44.5 L218.65 44.5 220.7 24.2 219 22.95 Q216.9 20.9 216.9 18 216.9 15.1 219 13.05 221.05 11 223.95 11 226.9 11 228.95 13.05 231 15.1 231 18 231 20.9 228.95 22.95 L227.35 24.2 229.4 44.5 238.95 44.5 Q240.65 44.5 241.8 45.65 243 46.85 243 48.5 L243 52"/>
    <path stroke="none" fill="#E86A17" d="M169.2 17.1 Q169.2 20.85 166.5 23.5 L165.35 24.5 165.15 24.65 165.05 24.7 166.65 26.7 168.5 30.05 Q171.95 37.8 172 48.75 L172 48.85 Q172 51.8 168.5 53.9 165 56 160 56 155 56 151.5 53.9 148 51.8 148 48.85 L148 48.75 Q148.05 37.8 151.5 30.05 152.45 27.95 153.5 26.5 L154.95 24.65 Q154.2 24.15 153.55 23.5 150.9 20.85 150.9 17.1 150.9 13.35 153.55 10.7 156.2 8 160 8 163.8 8 166.5 10.7 169.2 13.35 169.2 17.1"/>
    <path stroke="none" fill="#E86A17" d="M104.25 20.35 Q104.25 23.8 101.8 26.25 100.9 27.2 99.85 27.8 100.85 28.25 101.7 29 L102.35 29.6 Q105 32.3 105 36.05 L105 52.2 Q105 53.35 102.35 54.2 99.7 55 96 55 92.3 55 89.65 54.2 87 53.35 87 52.2 L87 36.05 Q87 32.3 89.65 29.6 L90.35 28.95 Q91.2 28.25 92.2 27.8 L90.15 26.25 Q87.75 23.8 87.75 20.35 87.75 16.9 90.15 14.4 92.6 12 96 12 99.45 12 101.8 14.4 104.25 16.9 104.25 20.35"/>
    <path stroke="none" fill="#E86A17" d="M45 35.2 L45 51.2 Q45 53.65 41.2 55.35 37.35 57 32 57 26.6 57 22.75 55.35 19 53.65 19 51.2 L19 35.2 Q19 29.7 22.75 25.8 23.7 24.8 24.8 24.1 25.85 23.4 27 22.95 L26.2 22.2 Q23.85 19.7 23.85 16.35 23.85 12.9 26.2 10.45 28.65 8 32 8 35.3 8 37.75 10.45 40.1 12.9 40.1 16.35 40.1 19.7 37.75 22.2 L36.95 22.95 Q38.1 23.4 39.25 24.2 L41.2 25.8 Q45 29.7 45 35.2"/>
    <path stroke="none" fill="#E86A17" d="M496.7 37.8 L480 20.85 463.35 37.8 Q461.9 39.2 460.5 37.8 L457.7 34.9 Q456.3 33.5 457.75 32.1 L479.7 10.05 480.15 10.05 480.45 10.1 489.35 19 490.3 19.95 502.3 32.1 Q503.7 33.5 502.3 34.9 L499.45 37.8 Q498.05 39.2 496.7 37.8 M493.6 56 L466.3 56 Q464.4 56 464.35 54.15 L464.35 40.8 480 24.9 495.6 40.7 495.6 54.15 Q495.55 56 493.6 56"/>
    <path stroke="none" fill="#E86A17" d="M554.3 17.95 L566.3 30.1 Q567.7 31.5 566.3 32.9 L563.45 35.8 562.6 36.4 Q561.65 36.75 560.7 35.8 L544 18.85 527.35 35.8 Q526.35 36.8 525.35 36.4 524.9 36.2 524.5 35.8 L521.7 32.9 Q520.3 31.5 521.75 30.1 L543.7 8.05 544.15 8.05 544.45 8.1 553.35 17 554.3 17.95 M562.6 41.65 L562.6 55.15 Q562.55 56.95 560.75 57 L527.3 57 Q525.4 57 525.35 55.15 L525.35 41.8 544 22.9 559.6 38.7 559.6 38.65 562.6 41.65"/>
    <path stroke="none" fill="#E86A17" d="M596.15 23.95 L596.15 23.9 595.75 24.1 596.15 23.95 M630.95 28.6 L625.9 31.55 625.9 46.85 607.05 57.9 607.05 58 588.2 46.85 588.2 27.5 585.25 28.85 585.2 28.85 584 26.55 606.05 13.6 606.4 13.5 618.4 8 631 28.55 630.95 28.6"/>
    <path stroke="none" fill="#E86A17" d="M668.65 17.05 L668.65 13 676.25 13 676.25 17.05 680.35 17.05 680.35 13 687.95 13 687.95 20.05 683.75 24.35 687.15 43.4 687.15 52 657.7 52 657.7 43.4 661.2 24.35 656.95 20.05 656.95 13 664.55 13 664.55 17.05 668.65 17.05"/>
    <path stroke="none" fill="#E86A17" d="M745.75 23.2 Q741.7 19.15 736 19.15 730.2 19.15 726.2 23.2 722.15 27.3 722.15 33 722.15 38.7 726.2 42.8 730.2 46.85 736 46.85 741.7 46.85 745.75 42.8 749.85 38.7 749.85 33 749.85 27.3 745.75 23.2 M736 44.2 Q731.3 44.2 728.05 40.9 724.75 37.6 724.75 33 724.75 28.4 728.05 25.1 731.3 21.8 736 21.8 740.6 21.8 743.9 25.1 747.2 28.4 747.2 33 747.2 37.6 743.9 40.9 740.6 44.2 736 44.2 M750.8 47.85 Q744.7 54 736 54 727.3 54 721.15 47.85 715 41.7 715 33 715 24.35 721.15 18.15 727.3 12 736 12 744.7 12 750.8 18.15 757 24.35 757 33 757 41.7 750.8 47.85"/>
    <path stroke="none" fill="#E86A17" d="M856.1 18 L869.85 18 874.95 29.9 886 31.6 885.25 46.3 881.65 46.25 881.8 44.5 Q881.8 41.4 879.6 39.2 877.4 37 874.25 37 871.15 37 868.95 39.2 866.65 41.4 866.65 44.5 L866.8 46 860.05 45.85 860.15 44.5 Q860.15 41.4 857.95 39.2 855.7 37 852.6 37 849.45 37 847.25 39.2 845.05 41.4 845.05 44.5 L845.1 45.6 841 45.5 841 31.6 850.8 30.55 856.1 18 M858.1 45.5 Q857.75 47.2 856.55 48.4 854.9 50 852.6 50 850.3 50 848.7 48.4 847.35 47.1 847.1 45.35 L847.1 45.45 847.05 44.5 Q847.05 42.2 848.7 40.55 L848.7 40.6 Q850.3 39 852.6 39 854.85 39 856.55 40.55 L856.55 40.6 Q858.15 42.25 858.15 44.5 L858.1 45.5 M870.4 40.6 Q872 39 874.25 39 876.55 39 878.2 40.6 L878.2 40.55 Q879.8 42.2 879.8 44.5 L879.7 45.8 Q879.35 47.25 878.2 48.4 876.55 50 874.25 50 872 50 870.4 48.4 869.15 47.2 868.85 45.65 L868.8 45.6 868.7 44.5 Q868.7 42.25 870.4 40.6"/>
    <path stroke="none" fill="#E86A17" d="M943.95 44.2 Q941.9 51.05 936.35 55 L915.45 55 910 43.5 945 39.2 Q944.65 41.85 943.95 44.2 M915.25 40.45 L926.45 11 929.75 38.3 915.25 40.45"/>
    <path stroke="none" fill="#E86A17" d="M1017 40.5 Q1017 42.35 1015.35 43.7 1013.75 44.95 1011.55 45 L1011.25 45 1011.05 45 972.9 45 968 30.25 972.5 30.25 979 35.25 988 35.45 976.35 21.8 981.05 20 1003 35.75 1011.05 35.95 1011.2 35.95 1012 35.95 Q1013.95 36.1 1015.35 37.3 1017 38.6 1017 40.5"/>
    <path stroke="none" fill="#E86A17" d="M1066.7 22.35 Q1069.7 21.65 1072.9 22.35 L1072.9 25.85 1078 25.85 Q1080.2 30.75 1078 34.75 L1075.7 34.75 1077 37.05 1080 37.05 1080 41.55 1078.1 41.55 Q1077.9 42.8 1076.9 43.8 1075.65 45 1073.9 45 1072.2 45 1070.95 43.8 1069.95 42.8 1069.75 41.55 L1065.8 41.55 Q1065.6 42.8 1064.6 43.8 1063.4 45 1061.65 45 1059.85 45 1058.6 43.8 1057.6 42.8 1057.4 41.55 L1053.55 41.55 Q1053.35 42.8 1052.35 43.8 1051.1 45 1049.35 45 1047.55 45 1046.3 43.8 1045.3 42.8 1045.1 41.55 L1041.25 41.55 Q1041.05 42.8 1040.05 43.8 1038.8 45 1037 45 1035.25 45 1034 43.8 1033.05 42.8 1032.85 41.55 L1030.95 41.55 1030.95 37.05 1032.3 37.05 1032.3 27.3 1030 25 1030 22.35 1043.55 22.35 1043.55 25.85 1053.55 25.85 Q1053.7 25.05 1054.25 24.45 1055.1 23.65 1056.35 23.65 1057.55 23.65 1058.4 24.45 1059.05 25.05 1059.2 25.85 L1066.45 25.85 1066.45 22.35 1066.7 22.35"/>
    <path stroke="none" fill="#E86A17" d="M1177.1 16.2 Q1188.1 23.6 1200 24.7 L1200 25.3 Q1190.6 36.95 1177.1 35.8 L1177.1 16.2 M1175.1 52 L1171 52 1171 15 1175.1 15 1175.1 52"/>
    <path stroke="none" fill="#E86A17" d="M1134.75 36.25 L1134.3 36.45 Q1131.8 37.45 1129.3 37.2 L1126.3 36.45 1125.4 36.15 1123.85 35.75 1119.95 35.9 Q1119.15 36.1 1118.25 36.45 L1117.55 36.7 1112.65 37.15 1112.2 37.1 1112.2 16.45 1112.65 16.5 1117.55 16.05 Q1117.85 15.95 1118.25 15.8 1119.15 15.45 1119.95 15.25 L1123.85 15.1 1125.4 15.5 1126.3 15.8 1129.3 16.55 Q1131.8 16.8 1134.3 15.8 L1134.75 15.6 1136 15.25 1136 35.9 1134.75 36.25 M1110.2 15.8 L1110.2 53 1106 53 1106 15.8 1110.2 15.8"/>
    <path stroke="none" fill="#E86A17" d="M821 29.65 Q820.95 31.45 819.85 33.05 L819 34.1 818.15 34.85 Q816.8 35.95 814.8 36.95 808.65 40 799.95 40 791.25 40 785.1 36.95 783.15 35.95 781.8 34.85 L781 34.1 780.1 33.05 Q779.2 31.7 779 30.3 L779 28.75 Q779.5 24.9 785.1 22.1 791.25 19 799.95 19 808.65 19 814.8 22.1 820.9 25.15 821 29.4 L821 29.65 M810.3 34.1 Q813.85 32.15 813.85 29.5 L813.75 28.6 Q813.2 26.3 809.7 24.6 805.65 22.6 799.95 22.6 794.15 22.6 790.15 24.6 786.75 26.3 786.2 28.6 L786.1 29.5 Q786.1 32.15 789.6 34.1 L790.15 34.4 791.1 34.85 Q794.85 36.45 799.95 36.45 805 36.45 808.75 34.85 L809.7 34.4 810.3 34.1 M821 34.85 L821 36.65 Q820.9 40.9 814.8 43.95 808.65 47 799.95 47 791.25 47 785.1 43.95 779.55 41.15 779 37.3 L779 34.85 780 34.85 780.1 35.05 Q781.6 37.2 785.1 38.95 791.25 42 799.95 42 808.65 42 814.8 38.95 818.35 37.2 819.85 35.05 L820 34.85 821 34.85 M811.85 29.5 Q811.65 31.2 808.85 32.6 L808.8 32.65 Q806.75 33.65 804.2 34.1 L799.95 34.45 795.65 34.1 Q793.1 33.65 791.05 32.65 788.3 31.25 788.1 29.5 L788.15 29.05 788.15 29.1 Q788.65 27.6 791.05 26.4 794.7 24.6 799.95 24.6 805.15 24.6 808.85 26.4 811.3 27.6 811.8 29.1 L811.8 29.05 811.85 29.5"/>
    <path stroke="none" fill="#E86A17" d="M27 150.95 L26.2 150.2 Q23.85 147.7 23.85 144.35 23.85 140.9 26.2 138.45 28.65 136 32 136 35.3 136 37.75 138.45 40.1 140.9 40.1 144.35 40.1 147.7 37.75 150.2 L36.95 150.95 Q32 152.45 27 150.95 M39.25 152.2 L41.2 153.8 Q45 157.7 45 163.2 L45 179.2 Q45 181.65 41.2 183.35 37.35 185 32 185 26.6 185 22.75 183.35 19 181.65 19 179.2 L19 163.2 Q19 157.7 22.75 153.8 23.7 152.8 24.8 152.1 32.05 157.2 39.25 152.2"/>
    <path stroke="none" fill="#D46217" d="M39.25 152.2 Q32.05 157.2 24.8 152.1 25.85 151.4 27 150.95 32 152.45 36.95 150.95 38.1 151.4 39.25 152.2"/>
    <path stroke="none" fill="#9C4B15" d="M39.25 152.2 Q38.1 151.4 36.95 150.95 L37.75 150.2 Q40.1 147.7 40.1 144.35 40.1 140.9 37.75 138.45 35.3 136 32 136 28.65 136 26.2 138.45 23.85 140.9 23.85 144.35 23.85 147.7 26.2 150.2 L27 150.95 Q25.85 151.4 24.8 152.1 23.7 152.8 22.75 153.8 19 157.7 19 163.2 L19 179.2 Q19 181.65 22.75 183.35 26.6 185 32 185 37.35 185 41.2 183.35 45 181.65 45 179.2 L45 163.2 Q45 157.7 41.2 153.8 L39.25 152.2 M24.8 137.05 Q27.85 134 32 134 36.1 134 39.2 137.05 L39.2 137.1 Q42.1 140.1 42.1 144.35 42.1 147.7 40.2 150.4 L40.4 150.55 40.35 150.55 42.65 152.4 Q47 156.9 47 163.2 L47 179.2 Q47.3 182.8 42.05 185.2 L42 185.2 Q37.8 187 32 187 26.15 187 21.95 185.2 16.75 182.8 17 179.2 L17 163.2 Q17 156.9 21.3 152.45 22.4 151.25 23.75 150.45 L23.7 150.45 23.8 150.4 Q21.85 147.7 21.85 144.35 21.85 140.1 24.75 137.1 L24.8 137.05"/>
    <path stroke="none" fill="#E86A17" d="M99.85 155.8 Q95.85 156.9 92.2 155.8 L90.15 154.25 Q87.75 151.8 87.75 148.35 87.75 144.9 90.15 142.4 92.6 140 96 140 99.45 140 101.8 142.4 104.25 144.9 104.25 148.35 104.25 151.8 101.8 154.25 100.9 155.2 99.85 155.8 M101.7 157 L102.35 157.6 Q105 160.3 105 164.05 L105 180.2 Q105 181.35 102.35 182.2 99.7 183 96 183 92.3 183 89.65 182.2 87 181.35 87 180.2 L87 164.05 Q87 160.3 89.65 157.6 L90.35 156.95 Q95.8 161.3 101.7 157"/>
    <path stroke="none" fill="#D46217" d="M101.7 157 Q95.8 161.3 90.35 156.95 91.2 156.25 92.2 155.8 95.85 156.9 99.85 155.8 100.85 156.25 101.7 157"/>
    <path stroke="none" fill="#9C4B15" d="M88.7 141.05 L88.75 141 Q91.8 138 96 138 100.3 138 103.25 141 106.25 144.1 106.25 148.35 106.25 152.65 103.25 155.7 L103.25 155.65 103.2 155.7 103.8 156.2 Q107 159.5 107 164.05 L107 180.2 Q107.45 182.65 102.95 184.1 L102.95 184.15 96 185 Q91.95 185 89.1 184.15 L89.05 184.1 Q84.55 182.65 85 180.2 L85 164.05 Q85 159.5 88.25 156.2 L88.75 155.7 88.7 155.65 Q85.75 152.6 85.75 148.35 85.75 144.1 88.7 141.05 M99.85 155.8 Q100.9 155.2 101.8 154.25 104.25 151.8 104.25 148.35 104.25 144.9 101.8 142.4 99.45 140 96 140 92.6 140 90.15 142.4 87.75 144.9 87.75 148.35 87.75 151.8 90.15 154.25 L92.2 155.8 Q91.2 156.25 90.35 156.95 L89.65 157.6 Q87 160.3 87 164.05 L87 180.2 Q87 181.35 89.65 182.2 92.3 183 96 183 99.7 183 102.35 182.2 105 181.35 105 180.2 L105 164.05 Q105 160.3 102.35 157.6 L101.7 157 Q100.85 156.25 99.85 155.8"/>
    <path stroke="none" fill="#E86A17" d="M154.95 152.65 Q154.2 152.15 153.55 151.5 150.9 148.85 150.9 145.1 150.9 141.35 153.55 138.7 156.2 136 160 136 163.8 136 166.5 138.7 169.2 141.35 169.2 145.1 169.2 148.85 166.5 151.5 L165.35 152.5 165.15 152.65 Q159.85 154.05 154.95 152.65 M166.65 154.7 L168.5 158.05 Q171.95 165.8 172 176.75 L172 176.85 Q172 179.8 168.5 181.9 165 184 160 184 155 184 151.5 181.9 148 179.8 148 176.85 L148 176.75 Q148.05 165.8 151.5 158.05 152.45 155.95 153.5 154.5 159.85 158.05 166.65 154.7"/>
    <path stroke="none" fill="#D46217" d="M166.65 154.7 Q159.85 158.05 153.5 154.5 L154.95 152.65 Q159.85 154.05 165.15 152.65 L165.05 152.7 166.65 154.7"/>
    <path stroke="none" fill="#9C4B15" d="M166.65 154.7 L165.05 152.7 165.15 152.65 165.35 152.5 166.5 151.5 Q169.2 148.85 169.2 145.1 169.2 141.35 166.5 138.7 163.8 136 160 136 156.2 136 153.55 138.7 150.9 141.35 150.9 145.1 150.9 148.85 153.55 151.5 154.2 152.15 154.95 152.65 L153.5 154.5 Q152.45 155.95 151.5 158.05 148.05 165.8 148 176.75 L148 176.85 Q148 179.8 151.5 181.9 155 184 160 184 165 184 168.5 181.9 172 179.8 172 176.85 L172 176.75 Q171.95 165.8 168.5 158.05 L166.65 154.7 M171.2 145.1 Q171.2 149.7 167.9 152.95 L168.35 153.6 168.3 153.6 170.35 157.2 170.35 157.25 Q173.95 165.3 174 176.75 L174 176.85 Q174.15 180.85 169.55 183.65 165.6 186 160 186 154.4 186 150.5 183.65 145.85 180.85 146 176.85 L146 176.75 Q146.05 165.3 149.7 157.25 150.7 154.95 151.85 153.4 L151.9 153.35 152.15 152.95 Q148.9 149.7 148.9 145.1 148.9 140.5 152.15 137.3 155.35 134 160 134 164.65 134 167.95 137.3 L167.9 137.3 Q171.2 140.5 171.2 145.1"/>
    <path stroke="none" fill="#E86A17" d="M220.7 152.2 L219 150.95 Q216.9 148.9 216.9 146 216.9 143.1 219 141.05 221.05 139 223.95 139 226.9 139 228.95 141.05 231 143.1 231 146 231 148.9 228.95 150.95 L227.35 152.2 Q224.2 153 220.7 152.2 M227.65 154.85 L229.2 170.35 218.9 170.35 220.45 154.65 227.65 154.85 M229.4 172.5 L238.95 172.5 Q240.65 172.5 241.8 173.65 243 174.85 243 176.5 L243 180 Q243 181.65 241.8 182.8 240.65 184 238.95 184 L209 184 Q207.35 184 206.15 182.8 205 181.65 205 180 L205 176.5 Q205 174.85 206.15 173.65 207.35 172.5 209 172.5 L218.65 172.5 229.4 172.5"/>
    <path stroke="none" fill="#D46217" d="M229.4 172.5 L218.65 172.5 218.9 170.35 229.2 170.35 229.4 172.5 M227.35 152.2 L227.65 154.85 220.45 154.65 220.7 152.2 Q224.2 153 227.35 152.2"/>
    <path stroke="none" fill="#9C4B15" d="M227.35 152.2 L228.95 150.95 Q231 148.9 231 146 231 143.1 228.95 141.05 226.9 139 223.95 139 221.05 139 219 141.05 216.9 143.1 216.9 146 216.9 148.9 219 150.95 L220.7 152.2 220.45 154.65 218.9 170.35 218.65 172.5 209 172.5 Q207.35 172.5 206.15 173.65 205 174.85 205 176.5 L205 180 Q205 181.65 206.15 182.8 207.35 184 209 184 L238.95 184 Q240.65 184 241.8 182.8 243 181.65 243 180 L243 176.5 Q243 174.85 241.8 173.65 240.65 172.5 238.95 172.5 L229.4 172.5 229.2 170.35 227.65 154.85 227.35 152.2 M223.95 137 Q227.75 137 230.4 139.65 233 142.25 233 146 233 149.75 230.4 152.4 L229.5 153.2 231.25 170.5 238.95 170.5 Q241.5 170.5 243.25 172.25 245 174 245 176.5 L245 180 Q245 182.45 243.25 184.2 L243.2 184.25 Q241.45 186 238.95 186 L209 186 Q206.5 186 204.75 184.25 203 182.5 203 180 L203 176.5 Q203 174.05 204.7 172.3 L204.8 172.2 Q206.55 170.5 209 170.5 L216.85 170.5 218.6 153.25 217.6 152.4 Q214.9 149.75 214.9 146 214.9 142.25 217.6 139.65 220.2 137 223.95 137"/>
    <path stroke="none" fill="#E86A17" d="M282.05 152.4 Q279.4 149.75 279.4 146.05 279.4 142.3 282.05 139.65 284.75 137 288.45 137 292.25 137 294.95 139.65 297.6 142.3 297.6 146.05 297.6 149.75 294.95 152.4 288.3 154.75 282.05 152.4 M297.35 153.55 Q299 155.05 299 158.2 L299 165.75 Q299 171 294.4 171.75 L282.6 171.75 Q278 171 278 165.75 L278 158.2 Q278 155.05 279.65 153.6 288.25 157.95 297.35 153.55 M294.4 174.1 L294.4 182.25 Q294.4 185 291.6 185 L285.4 185 Q282.6 185 282.6 182.25 L282.6 174.1 294.4 174.1"/>
    <path stroke="none" fill="#D46217" d="M294.4 174.1 L282.6 174.1 282.6 171.75 294.4 171.75 294.4 174.1 M294.95 152.4 Q296.4 152.7 297.35 153.55 288.25 157.95 279.65 153.6 280.6 152.7 282.05 152.4 288.3 154.75 294.95 152.4"/>
    <path stroke="none" fill="#9C4B15" d="M294.95 152.4 Q297.6 149.75 297.6 146.05 297.6 142.3 294.95 139.65 292.25 137 288.45 137 284.75 137 282.05 139.65 279.4 142.3 279.4 146.05 279.4 149.75 282.05 152.4 280.6 152.7 279.65 153.6 278 155.05 278 158.2 L278 165.75 Q278 171 282.6 171.75 L282.6 174.1 282.6 182.25 Q282.6 185 285.4 185 L291.6 185 Q294.4 185 294.4 182.25 L294.4 174.1 294.4 171.75 Q299 171 299 165.75 L299 158.2 Q299 155.05 297.35 153.55 296.4 152.7 294.95 152.4 M299.6 146.05 Q299.6 149.1 298.15 151.6 L298.7 152.05 298.7 152.1 Q301 154 301 158.2 L301 165.75 Q301 171.8 296.4 173.35 L296.4 182.25 Q296.4 187 291.6 187 L285.4 187 Q280.6 187 280.6 182.25 L280.6 173.35 Q276 171.8 276 165.75 L276 158.2 Q276 154 278.35 152.1 L278.9 151.65 Q277.4 149.15 277.4 146.05 277.4 141.45 280.65 138.25 283.95 135 288.45 135 293.05 135 296.35 138.25 L296.4 138.25 Q299.6 141.45 299.6 146.05"/>
    <path stroke="none" fill="#E86A17" d="M357.6 149 Q352.5 151 347.35 149 L347.15 148.8 Q345 146.6 345 143.5 345 140.35 347.15 138.2 349.4 136 352.5 136 355.6 136 357.8 138.2 360 140.35 360 143.5 360 146.6 357.8 148.8 L357.6 149 M359.8 149 L362.35 149 Q364.6 149 364.95 150.95 L365 150.95 365 166.95 Q365 169.55 362.55 169.65 L359.45 169.65 344.55 169.65 341.65 169.65 Q339 169.65 339 166.95 L339 150.95 339.05 150.95 Q339.4 149 341.65 149 L344.9 149 Q352.4 155.1 359.8 149 M359.45 171.65 L359.45 183.95 Q358.45 185 356.8 185 L347.2 185 Q345.55 185 344.55 183.95 L344.55 171.65 359.45 171.65"/>
    <path stroke="none" fill="#D46217" d="M359.45 171.65 L344.55 171.65 344.55 169.65 359.45 169.65 359.45 171.65 M357.6 149 L359.8 149 Q352.4 155.1 344.9 149 L347.35 149 Q352.5 151 357.6 149"/>
    <path stroke="none" fill="#9C4B15" d="M343.65 147 Q343 145.4 343 143.5 343 139.5 345.75 136.8 348.6 134 352.5 134 356.45 134 359.25 136.8 L359.2 136.8 Q362 139.5 362 143.5 362 145.4 361.4 147 L362.35 147 Q366.1 147 366.85 150.1 L367 150.95 367 166.95 Q367 171.55 362.65 171.65 L362.55 171.65 361.45 171.65 361.45 183.95 Q361.45 184.75 360.9 185.35 359.35 187 356.8 187 L347.2 187 Q344.65 187 343.1 185.35 342.55 184.75 342.55 183.95 L342.55 171.65 341.65 171.65 Q337 171.65 337 166.95 L337 150.95 337.2 150.15 Q337.9 147 341.65 147 L343.65 147 M357.6 149 L357.8 148.8 Q360 146.6 360 143.5 360 140.35 357.8 138.2 355.6 136 352.5 136 349.4 136 347.15 138.2 345 140.35 345 143.5 345 146.6 347.15 148.8 L347.35 149 344.9 149 341.65 149 Q339.4 149 339.05 150.95 L339 150.95 339 166.95 Q339 169.65 341.65 169.65 L344.55 169.65 344.55 171.65 344.55 183.95 Q345.55 185 347.2 185 L356.8 185 Q358.45 185 359.45 183.95 L359.45 171.65 359.45 169.65 362.55 169.65 Q365 169.55 365 166.95 L365 150.95 364.95 150.95 Q364.6 149 362.35 149 L359.8 149 357.6 149"/>
    <path stroke="none" fill="#E86A17" d="M426.4 151.9 L437.35 158.15 Q439.25 159.2 439.8 161.25 440.35 163.3 439.25 165.15 L438.9 165.75 Q437.85 167.6 435.8 168.15 433.65 168.7 431.8 167.65 L425.65 164.1 425.8 164.3 426.6 166 429.95 178.35 Q430.5 180.4 429.35 182.3 428.3 184.1 426.25 184.7 L425.6 184.85 Q423.5 185.4 421.6 184.35 419.75 183.25 419.2 181.2 L417.4 174.5 415.6 174.5 413.8 181.2 Q413.25 183.25 411.35 184.35 409.5 185.4 407.45 184.85 L406.8 184.7 Q404.65 184.1 403.6 182.3 402.55 180.4 403.1 178.35 L406.45 166 Q406.7 165.05 407.25 164.3 L407.4 164.1 401.2 167.65 Q399.3 168.7 397.25 168.15 395.15 167.6 394.05 165.75 L393.7 165.15 Q392.65 163.3 393.2 161.25 393.75 159.2 395.65 158.15 L406.85 151.8 406.9 151.8 Q416.6 159 426.4 151.9 M408.75 150.55 Q407.5 148.5 407.5 146 407.5 142.3 410.15 139.7 412.8 137.05 416.5 137.05 420.25 137.05 422.85 139.7 425.5 142.3 425.5 146 425.5 148.5 424.3 150.55 416.5 155.5 408.75 150.55"/>
    <path stroke="none" fill="#D46217" d="M408.75 150.55 Q416.5 155.5 424.3 150.55 L426.2 151.8 426.4 151.9 Q416.6 159 406.9 151.8 L408.75 150.55"/>
    <path stroke="none" fill="#9C4B15" d="M408.75 150.55 L406.9 151.8 406.85 151.8 395.65 158.15 Q393.75 159.2 393.2 161.25 392.65 163.3 393.7 165.15 L394.05 165.75 Q395.15 167.6 397.25 168.15 399.3 168.7 401.2 167.65 L407.4 164.1 407.25 164.3 Q406.7 165.05 406.45 166 L403.1 178.35 Q402.55 180.4 403.6 182.3 404.65 184.1 406.8 184.7 L407.45 184.85 Q409.5 185.4 411.35 184.35 413.25 183.25 413.8 181.2 L415.6 174.5 417.4 174.5 419.2 181.2 Q419.75 183.25 421.6 184.35 423.5 185.4 425.6 184.85 L426.25 184.7 Q428.3 184.1 429.35 182.3 430.5 180.4 429.95 178.35 L426.6 166 425.8 164.3 425.65 164.1 431.8 167.65 Q433.65 168.7 435.8 168.15 437.85 167.6 438.9 165.75 L439.25 165.15 Q440.35 163.3 439.8 161.25 439.25 159.2 437.35 158.15 L426.4 151.9 426.2 151.8 424.3 150.55 Q425.5 148.5 425.5 146 425.5 142.3 422.85 139.7 420.25 137.05 416.5 137.05 412.8 137.05 410.15 139.7 407.5 142.3 407.5 146 407.5 148.5 408.75 150.55 M394.7 156.4 L405.9 150.05 406.1 149.95 406.2 149.9 Q405.5 148.05 405.5 146 405.5 141.45 408.75 138.3 411.95 135.05 416.5 135.05 421.05 135.05 424.25 138.3 L424.3 138.3 Q427.5 141.5 427.5 146 427.5 148.05 426.85 149.85 L427.25 150.1 427.2 150.05 438.35 156.4 Q440.95 157.85 441.75 160.75 442.5 163.6 441 166.2 L441 166.15 440.65 166.75 Q439.2 169.3 436.35 170.1 L436.3 170.1 Q433.35 170.85 430.85 169.4 L430.8 169.4 429.35 168.55 431.9 177.85 Q432.65 180.7 431.05 183.35 L431.1 183.3 Q429.65 185.8 426.8 186.65 L426.7 186.65 426.05 186.8 426.1 186.8 Q423.25 187.55 420.65 186.1 L420.6 186.1 Q418.05 184.55 417.3 181.75 L416.5 178.85 415.75 181.75 Q415 184.55 412.35 186.1 409.8 187.55 407 186.8 L406.35 186.65 406.25 186.65 Q403.3 185.8 401.9 183.3 L401.85 183.3 Q400.4 180.65 401.2 177.85 L403.7 168.55 402.2 169.4 Q399.55 170.85 396.75 170.1 393.85 169.3 392.35 166.8 L392.35 166.75 392 166.15 391.95 166.15 Q390.5 163.55 391.3 160.75 392.05 157.85 394.7 156.4"/>
    <path stroke="none" fill="#E86A17" d="M464.35 164.75 L463.35 165.8 Q461.9 167.2 460.5 165.8 L457.7 162.9 Q456.3 161.5 457.75 160.1 L479.7 138.05 480.15 138.05 480.45 138.1 489.35 147 490.3 147.95 502.3 160.1 Q503.7 161.5 502.3 162.9 L499.45 165.8 Q498.05 167.2 496.7 165.8 L495.6 164.65 480 148.85 464.35 164.75 M495.6 168.7 L495.6 182.15 Q495.55 184 493.6 184 L466.3 184 Q464.4 184 464.35 182.15 L464.35 168.8 480 152.9 495.6 168.7"/>
    <path stroke="none" fill="#D46217" d="M495.6 168.7 L480 152.9 464.35 168.8 464.35 164.75 480 148.85 495.6 164.65 495.6 168.7"/>
    <path stroke="none" fill="#9C4B15" d="M495.6 164.65 L496.7 165.8 Q498.05 167.2 499.45 165.8 L502.3 162.9 Q503.7 161.5 502.3 160.1 L490.3 147.95 489.35 147 480.45 138.1 480.15 138.05 479.7 138.05 457.75 160.1 Q456.3 161.5 457.7 162.9 L460.5 165.8 Q461.9 167.2 463.35 165.8 L464.35 164.75 464.35 168.8 464.35 182.15 Q464.4 184 466.3 184 L493.6 184 Q495.55 184 495.6 182.15 L495.6 168.7 495.6 164.65 M491.75 146.55 L503.75 158.7 Q506.55 161.5 503.75 164.35 L503.75 164.3 500.9 167.2 500.9 167.25 Q499.5 168.6 498.1 168.5 L497.6 168.5 497.6 182.2 Q497.55 186 493.6 186 L466.3 186 Q462.45 186 462.35 182.2 L462.35 168.6 Q460.7 168.85 459.1 167.25 L456.25 164.3 Q454.9 162.9 455.05 161.5 454.95 160.05 456.35 158.65 L456.35 158.7 478.3 136.65 Q478.7 136.25 479.25 136.1 L480.3 136.05 481.1 136.2 481.9 136.7 490.8 145.6 491.75 146.55"/>
    <path stroke="none" fill="#E86A17" d="M525.35 164.4 Q524.9 164.2 524.5 163.8 L521.7 160.9 Q520.3 159.5 521.75 158.1 L543.7 136.05 544.15 136.05 544.45 136.1 553.35 145 554.3 145.95 566.3 158.1 Q567.7 159.5 566.3 160.9 L563.45 163.8 562.6 164.4 Q561.65 164.75 560.7 163.8 L544 146.85 527.35 163.8 Q526.35 164.8 525.35 164.4 M562.6 169.65 L562.6 183.15 Q562.55 184.95 560.75 185 L527.3 185 Q525.4 185 525.35 183.15 L525.35 169.8 544 150.9 559.6 166.7 559.6 166.65 562.6 169.65"/>
    <path stroke="none" fill="#D46217" d="M562.6 169.65 L559.6 166.65 559.6 166.7 544 150.9 525.35 169.8 525.35 164.4 Q526.35 164.8 527.35 163.8 L544 146.85 560.7 163.8 Q561.65 164.75 562.6 164.4 L562.6 169.65"/>
    <path stroke="none" fill="#9C4B15" d="M562.6 169.65 L562.6 164.4 563.45 163.8 566.3 160.9 Q567.7 159.5 566.3 158.1 L554.3 145.95 553.35 145 544.45 136.1 544.15 136.05 543.7 136.05 521.75 158.1 Q520.3 159.5 521.7 160.9 L524.5 163.8 Q524.9 164.2 525.35 164.4 L525.35 169.8 525.35 183.15 Q525.4 185 527.3 185 L560.75 185 Q562.55 184.95 562.6 183.15 L562.6 169.65 M543.25 134.1 L544.3 134.05 545.1 134.2 545.9 134.7 554.8 143.6 555.75 144.55 567.75 156.7 Q570.55 159.5 567.75 162.35 L567.75 162.3 564.9 165.2 564.9 165.25 564.6 165.5 564.6 183.2 Q564.5 186.9 560.8 187 L527.3 187 Q523.45 187 523.35 183.2 L523.35 165.5 523.1 165.25 520.25 162.3 Q518.9 160.9 519.05 159.5 518.95 158.05 520.35 156.65 L520.35 156.7 542.3 134.65 Q542.7 134.25 543.25 134.1"/>
    <path stroke="none" fill="#707070" d="M606.4 141.5 L606.1 141.6 605.05 142.25 606.05 141.6 606.4 141.5"/>
    <path stroke="none" fill="#DBDBDB" d="M584.3 155.1 L585.25 156.85 585.2 156.85 584.3 155.1"/>
    <path stroke="none" fill="#E86A17" d="M588.2 155.5 L595.9 152.05 596.15 151.95 607.05 169.65 607.05 185.9 607.05 186 588.2 174.85 588.2 155.5 M625.9 159.55 L609 169.5 608.7 169.05 608.4 168.55 604.2 161.65 597.35 150.5 596.85 149.7 596.35 148.95 618.4 136 631 156.55 630.95 156.6 625.9 159.55"/>
    <path stroke="none" fill="#D46217" d="M625.9 159.55 L625.9 174.85 607.05 185.9 607.05 169.65 596.15 151.95 596.15 151.9 595.9 152.05 588.2 155.5 585.25 156.85 584.3 155.1 584 154.55 605.05 142.25 606.1 141.6 606.4 141.5 618.4 136 596.35 148.95 596.85 149.7 597.35 150.5 604.2 161.65 608.4 168.55 608.7 169.05 609 169.5 625.9 159.55"/>
    <path stroke="none" fill="#9C4B15" d="M625.9 159.55 L630.95 156.6 631 156.55 618.4 136 606.4 141.5 606.05 141.6 605.05 142.25 584 154.55 584.3 155.1 585.2 156.85 585.25 156.85 588.2 155.5 588.2 174.85 607.05 186 607.05 185.9 625.9 174.85 625.9 159.55 M620.1 134.95 L632.7 155.5 Q633.05 156.1 633 156.8 L632.45 158 632.4 158.05 631.95 158.35 627.9 160.7 627.9 174.85 627.65 175.85 626.9 176.6 608.55 187.35 Q608.05 187.85 607.4 188 L606.05 187.75 587.2 176.6 586.5 175.85 Q586.2 175.4 586.2 174.85 L586.2 158.65 586.1 158.7 585.25 158.85 585.2 158.85 584.2 158.55 583.45 157.8 582.25 155.5 Q581.85 154.75 582.1 154 582.3 153.25 583 152.85 L605.05 139.9 605.5 139.7 605.7 139.65 617.6 134.2 619 134.1 Q619.7 134.3 620.1 134.95 M595.9 152.05 L596.15 151.9 596.15 151.95 595.9 152.05"/>
    <path stroke="none" fill="#E86A17" d="M661.2 152.35 L656.95 148.05 656.95 141 664.55 141 664.55 145.05 668.65 145.05 668.65 141 676.25 141 676.25 145.05 680.35 145.05 680.35 141 687.95 141 687.95 148.05 683.75 152.35 661.2 152.35 M684.25 155.35 L687.15 171.4 687.15 180 657.7 180 657.7 171.4 660.65 155.35 684.25 155.35"/>
    <path stroke="none" fill="#D46217" d="M684.25 155.35 L660.65 155.35 661.2 152.35 683.75 152.35 684.25 155.35"/>
    <path stroke="none" fill="#9C4B15" d="M684.25 155.35 L683.75 152.35 687.95 148.05 687.95 141 680.35 141 680.35 145.05 676.25 145.05 676.25 141 668.65 141 668.65 145.05 664.55 145.05 664.55 141 656.95 141 656.95 148.05 661.2 152.35 660.65 155.35 657.7 171.4 657.7 180 687.15 180 687.15 171.4 684.25 155.35 M689.95 148.05 Q689.95 148.85 689.4 149.45 L685.9 153 689.15 171.05 689.15 171.4 689.15 180 Q689.15 180.85 688.6 181.45 688 182 687.15 182 L657.7 182 Q656.85 182 656.3 181.45 655.7 180.85 655.7 180 L655.7 171.4 655.75 171.05 659.05 153 655.55 149.45 Q654.95 148.85 654.95 148.05 L654.95 141 Q654.95 140.15 655.55 139.6 656.1 139 656.95 139 L688 139 Q688.8 139 689.4 139.6 689.95 140.15 689.95 141 L689.95 148.05"/>
    <path stroke="none" fill="#E86A17" d="M722.15 161 Q722.15 166.7 726.2 170.8 730.2 174.85 736 174.85 741.7 174.85 745.75 170.8 749.85 166.7 749.85 161 749.85 155.3 745.75 151.2 741.7 147.15 736 147.15 730.2 147.15 726.2 151.2 722.15 155.3 722.15 161 M724.75 161 Q724.75 156.4 728.05 153.1 731.3 149.8 736 149.8 740.6 149.8 743.9 153.1 747.2 156.4 747.2 161 747.2 165.6 743.9 168.9 740.6 172.2 736 172.2 731.3 172.2 728.05 168.9 724.75 165.6 724.75 161 M715 161 Q715 152.35 721.15 146.15 727.3 140 736 140 744.7 140 750.8 146.15 757 152.35 757 161 757 169.7 750.8 175.85 744.7 182 736 182 727.3 182 721.15 175.85 715 169.7 715 161"/>
    <path stroke="none" fill="#D46217" d="M722.15 161 Q722.15 155.3 726.2 151.2 730.2 147.15 736 147.15 741.7 147.15 745.75 151.2 749.85 155.3 749.85 161 749.85 166.7 745.75 170.8 741.7 174.85 736 174.85 730.2 174.85 726.2 170.8 722.15 166.7 722.15 161 M724.75 161 Q724.75 165.6 728.05 168.9 731.3 172.2 736 172.2 740.6 172.2 743.9 168.9 747.2 165.6 747.2 161 747.2 156.4 743.9 153.1 740.6 149.8 736 149.8 731.3 149.8 728.05 153.1 724.75 156.4 724.75 161"/>
    <path stroke="none" fill="#9C4B15" d="M713 161 Q713 151.55 719.75 144.75 726.45 138 736 138 745.55 138 752.25 144.75 759 151.5 759 161 759 170.5 752.25 177.25 L752.2 177.3 Q745.5 184 736 184 726.45 184 719.75 177.3 713 170.55 713 161 M715 161 Q715 169.7 721.15 175.85 727.3 182 736 182 744.7 182 750.8 175.85 757 169.7 757 161 757 152.35 750.8 146.15 744.7 140 736 140 727.3 140 721.15 146.15 715 152.35 715 161"/>
    <path stroke="none" fill="#E86A17" d="M779 158.3 L779 156.75 Q779.5 152.9 785.1 150.1 791.25 147 799.95 147 L804.95 147.3 Q810.5 147.95 814.8 150.1 820.9 153.15 821 157.4 L821 157.65 Q820.95 159.45 819.85 161.05 818.35 163.2 814.8 164.95 810.5 167.1 804.95 167.75 L799.95 168 Q791.25 168 785.1 164.95 781.6 163.2 780.1 161.05 779.2 159.7 779 158.3 M811.8 157.05 L811.85 157.5 Q811.65 159.2 808.85 160.6 L808.8 160.65 Q807.05 161.5 804.95 161.95 L799.95 162.45 Q794.7 162.45 791.05 160.65 788.3 159.25 788.1 157.5 L788.15 157.05 788.15 157.1 Q788.65 155.6 791.05 154.4 794.7 152.6 799.95 152.6 L804.95 153.1 Q807.05 153.55 808.85 154.4 811.3 155.6 811.8 157.1 L811.8 157.05 M813.85 157.5 L813.75 156.6 Q813.2 154.3 809.7 152.6 807.55 151.55 804.95 151.05 L799.95 150.6 Q794.15 150.6 790.15 152.6 786.75 154.3 786.2 156.6 L786.1 157.5 Q786.1 160.35 790.15 162.4 794.15 164.45 799.95 164.45 L804.95 164 Q807.55 163.5 809.7 162.4 813.85 160.35 813.85 157.5"/>
    <path stroke="none" fill="#D46217" d="M813.85 157.5 Q813.85 160.35 809.7 162.4 807.55 163.5 804.95 164 L799.95 164.45 Q794.15 164.45 790.15 162.4 786.1 160.35 786.1 157.5 L786.2 156.6 Q786.75 154.3 790.15 152.6 794.15 150.6 799.95 150.6 L804.95 151.05 Q807.55 151.55 809.7 152.6 813.2 154.3 813.75 156.6 L813.85 157.5 M821 157.65 L821 164.65 Q820.9 168.9 814.8 171.95 810.5 174.1 804.95 174.75 L799.95 175 Q791.25 175 785.1 171.95 779.55 169.15 779 165.3 L779 158.3 Q779.2 159.7 780.1 161.05 781.6 163.2 785.1 164.95 791.25 168 799.95 168 L804.95 167.75 Q810.5 167.1 814.8 164.95 818.35 163.2 819.85 161.05 820.95 159.45 821 157.65 M811.8 157.05 L811.8 157.1 Q811.3 155.6 808.85 154.4 807.05 153.55 804.95 153.1 L799.95 152.6 Q794.7 152.6 791.05 154.4 788.65 155.6 788.15 157.1 L788.15 157.05 788.1 157.5 Q788.3 159.25 791.05 160.65 794.7 162.45 799.95 162.45 L804.95 161.95 Q807.05 161.5 808.8 160.65 L808.85 160.6 Q811.65 159.2 811.85 157.5 L811.8 157.05"/>
    <path stroke="none" fill="#9C4B15" d="M815.7 148.3 Q823.1 152 823 157.35 L823 164.7 Q823.1 170.05 815.7 173.75 811.05 176.1 804.95 176.75 L799.95 177 Q790.7 177 784.2 173.75 777.5 170.35 777.05 165.6 L777 165.3 777 156.75 777.05 156.5 Q777.45 151.7 784.2 148.3 L784.2 148.35 Q790.7 145 799.95 145 L804.95 145.3 Q811.05 145.95 815.7 148.35 L815.7 148.3 M821 157.65 L821 157.4 Q820.9 153.15 814.8 150.1 810.5 147.95 804.95 147.3 L799.95 147 Q791.25 147 785.1 150.1 779.5 152.9 779 156.75 L779 158.3 779 165.3 Q779.55 169.15 785.1 171.95 791.25 175 799.95 175 L804.95 174.75 Q810.5 174.1 814.8 171.95 820.9 168.9 821 164.65 L821 157.65"/>
    <path stroke="none" fill="#E86A17" d="M856.1 146 L869.8 146 874.9 157.95 885.95 159.65 885.2 174.45 881.6 174.4 881.75 172.65 Q881.75 169.55 879.55 167.3 877.35 165.1 874.2 165.1 871.1 165.1 868.9 167.3 866.65 169.55 866.65 172.65 L866.8 174.15 860.05 174 860.15 172.65 Q860.15 169.55 857.95 167.3 855.7 165.1 852.6 165.1 849.45 165.1 847.25 167.3 845.05 169.55 845.05 172.65 L845.1 173.75 841 173.65 841 159.65 850.8 158.6 856.1 146 M848.7 168.75 Q850.3 167.1 852.6 167.1 854.85 167.1 856.55 168.7 L856.55 168.75 Q858.15 170.4 858.15 172.65 L858.1 173.65 Q857.75 175.35 856.55 176.6 854.9 178.2 852.6 178.2 850.3 178.2 848.7 176.6 847.35 175.25 847.1 173.5 L847.1 173.6 847.05 172.65 Q847.05 170.35 848.7 168.7 L848.7 168.75 M878.15 168.7 Q879.75 170.35 879.75 172.65 L879.65 173.95 Q879.3 175.4 878.15 176.6 876.5 178.2 874.2 178.2 871.95 178.2 870.35 176.6 869.1 175.35 868.8 173.8 L868.75 173.75 868.65 172.65 Q868.65 170.4 870.35 168.75 871.95 167.1 874.2 167.1 876.5 167.1 878.15 168.75 L878.15 168.7 M860.9 149.8 L860.9 160.45 870.05 160.45 867.05 149.8 860.9 149.8"/>
    <path stroke="none" fill="#D46217" d="M860.9 149.8 L867.05 149.8 870.05 160.45 860.9 160.45 860.9 149.8"/>
    <path stroke="none" fill="#9C4B15" d="M856.1 146 L850.8 158.6 841 159.65 841 173.65 845.1 173.75 845.05 172.65 Q845.05 169.55 847.25 167.3 849.45 165.1 852.6 165.1 855.7 165.1 857.95 167.3 860.15 169.55 860.15 172.65 L860.05 174 866.8 174.15 866.65 172.65 Q866.65 169.55 868.9 167.3 871.1 165.1 874.2 165.1 877.35 165.1 879.55 167.3 881.75 169.55 881.75 172.65 L881.6 174.4 885.2 174.45 885.95 159.65 874.9 157.95 869.8 146 856.1 146 M870.9 144.35 L871.65 145.25 876.3 156.15 886.25 157.7 Q887 157.8 887.5 158.4 888 159 887.95 159.75 L887.2 174.55 Q887.15 175.35 886.6 175.9 886 176.45 885.2 176.45 L881.6 176.4 880.9 176.3 879.6 178 879.55 178.05 Q877.3 180.2 874.2 180.2 871.1 180.2 868.95 178.05 868 177.1 867.45 176.05 L866.75 176.15 860 176 859.5 175.9 858 178 857.95 178.05 Q855.7 180.2 852.6 180.2 849.5 180.2 847.35 178.05 846.25 176.95 845.7 175.7 L845.05 175.75 840.95 175.65 Q840.15 175.65 839.6 175.05 839 174.45 839 173.65 L839 159.65 Q839 158.9 839.55 158.35 840.05 157.75 840.8 157.65 L849.45 156.75 854.25 145.25 Q854.5 144.65 855 144.35 855.5 144 856.1 144 L869.8 144 Q870.4 144 870.9 144.35 M878.15 168.7 L878.15 168.75 Q876.5 167.1 874.2 167.1 871.95 167.1 870.35 168.75 868.65 170.4 868.65 172.65 L868.75 173.75 868.8 173.8 Q869.1 175.35 870.35 176.6 871.95 178.2 874.2 178.2 876.5 178.2 878.15 176.6 879.3 175.4 879.65 173.95 L879.75 172.65 Q879.75 170.35 878.15 168.7 M848.7 168.75 L848.7 168.7 Q847.05 170.35 847.05 172.65 L847.1 173.6 847.1 173.5 Q847.35 175.25 848.7 176.6 850.3 178.2 852.6 178.2 854.9 178.2 856.55 176.6 857.75 175.35 858.1 173.65 L858.15 172.65 Q858.15 170.4 856.55 168.75 L856.55 168.7 Q854.85 167.1 852.6 167.1 850.3 167.1 848.7 168.75"/>
    <path stroke="none" fill="#E86A17" d="M915.25 168.45 L926.45 139 929.75 166.3 915.25 168.45 M913.45 178.8 L910 171.5 945 167.2 Q944.65 169.85 943.95 172.2 930.05 178.15 913.45 178.8"/>
    <path stroke="none" fill="#D46217" d="M913.45 178.8 Q930.05 178.15 943.95 172.2 941.9 179.05 936.35 183 L915.45 183 913.45 178.8"/>
    <path stroke="none" fill="#9C4B15" d="M913.45 178.8 L915.45 183 936.35 183 Q941.9 179.05 943.95 172.2 944.65 169.85 945 167.2 L910 171.5 913.45 178.8 M926.7 137.05 Q927.4 137.1 927.9 137.6 928.35 138.1 928.45 138.75 L931.75 166.05 931.7 166.85 944.75 165.25 945.95 165.45 946.8 166.3 947 167.45 945.9 172.8 Q943.6 180.3 937.5 184.65 L936.35 185 915.45 185 914.4 184.7 913.65 183.85 908.2 172.35 Q907.9 171.75 908.05 171.15 908.15 170.5 908.65 170.05 909.1 169.6 909.75 169.55 L913.35 169.1 Q913.1 168.4 913.4 167.75 L924.6 138.3 Q924.85 137.65 925.45 137.3 926 136.95 926.7 137.05 M915.25 168.45 L929.75 166.3 926.45 139 915.25 168.45"/>
    <path stroke="none" fill="#E86A17" d="M1002.6 163.45 L1003 163.75 1011.05 163.95 1011.2 163.95 1012 163.95 Q1013.95 164.1 1015.35 165.3 1017 166.6 1017 168.5 1017 170.35 1015.35 171.7 1013.75 172.95 1011.55 173 L1011.25 173 1011.05 173 972.9 173 968 158.25 972.5 158.25 979 163.25 988 163.45 1002.6 163.45 M985.55 160.55 L976.35 149.8 981.05 148 998.55 160.55 985.55 160.55"/>
    <path stroke="none" fill="#D46217" d="M985.55 160.55 L998.55 160.55 1002.6 163.45 988 163.45 985.55 160.55"/>
    <path stroke="none" fill="#9C4B15" d="M985.55 160.55 L988 163.45 979 163.25 972.5 158.25 968 158.25 972.9 173 1011.05 173 1011.25 173 1011.55 173 Q1013.75 172.95 1015.35 171.7 1017 170.35 1017 168.5 1017 166.6 1015.35 165.3 1013.95 164.1 1012 163.95 L1011.2 163.95 1011.05 163.95 1003 163.75 1002.6 163.45 998.55 160.55 981.05 148 976.35 149.8 985.55 160.55 M981.3 146.05 L982.25 146.4 1003.7 161.8 1011.1 161.95 1011.2 161.95 1012 161.95 1012.15 161.95 Q1014.75 162.15 1016.6 163.75 1019.05 165.65 1019 168.5 1019.05 171.25 1016.65 173.25 L1016.6 173.3 Q1014.5 174.9 1011.6 175 L1011.25 175 1011.05 175 972.9 175 Q972.25 175 971.75 174.65 971.2 174.25 971 173.65 L966.1 158.9 Q965.9 158.25 966.1 157.65 966.3 157 966.85 156.65 967.35 156.25 968 156.25 L972.5 156.25 Q973.2 156.25 973.75 156.7 L979.7 161.3 983.6 161.35 974.85 151.1 Q974.4 150.6 974.35 149.95 974.3 149.3 974.7 148.75 975 148.15 975.65 147.95 L980.35 146.15 981.3 146.05"/>
    <path stroke="none" fill="#E86A17" d="M1032.3 162.75 L1032.3 155.3 1030 153 1030 150.35 1043.55 150.35 1043.55 153.85 1053.55 153.85 Q1053.7 153.05 1054.25 152.45 1055.1 151.65 1056.35 151.65 1057.55 151.65 1058.4 152.45 1059.05 153.05 1059.2 153.85 L1066.45 153.85 1066.45 150.35 1066.7 150.35 Q1069.7 149.65 1072.9 150.35 L1072.9 153.85 1078 153.85 Q1080.2 158.75 1078 162.75 L1075.7 162.75 1032.3 162.75 M1077 165.05 L1080 165.05 1080 169.55 1078.1 169.55 Q1077.9 170.8 1076.9 171.8 1075.65 173 1073.9 173 1072.2 173 1070.95 171.8 1069.95 170.8 1069.75 169.55 L1065.8 169.55 Q1065.6 170.8 1064.6 171.8 1063.4 173 1061.65 173 1059.85 173 1058.6 171.8 1057.6 170.8 1057.4 169.55 L1053.55 169.55 Q1053.35 170.8 1052.35 171.8 1051.1 173 1049.35 173 1047.55 173 1046.3 171.8 1045.3 170.8 1045.1 169.55 L1041.25 169.55 Q1041.05 170.8 1040.05 171.8 1038.8 173 1037 173 1035.25 173 1034 171.8 1033.05 170.8 1032.85 169.55 L1030.95 169.55 1030.95 165.05 1032.3 165.05 1077 165.05"/>
    <path stroke="none" fill="#D46217" d="M1077 165.05 L1032.3 165.05 1032.3 162.75 1075.7 162.75 1077 165.05"/>
    <path stroke="none" fill="#9C4B15" d="M1077 165.05 L1075.7 162.75 1078 162.75 Q1080.2 158.75 1078 153.85 L1072.9 153.85 1072.9 150.35 Q1069.7 149.65 1066.7 150.35 L1066.45 150.35 1066.45 153.85 1059.2 153.85 Q1059.05 153.05 1058.4 152.45 1057.55 151.65 1056.35 151.65 1055.1 151.65 1054.25 152.45 1053.7 153.05 1053.55 153.85 L1043.55 153.85 1043.55 150.35 1030 150.35 1030 153 1032.3 155.3 1032.3 162.75 1032.3 165.05 1030.95 165.05 1030.95 169.55 1032.85 169.55 Q1033.05 170.8 1034 171.8 1035.25 173 1037 173 1038.8 173 1040.05 171.8 1041.05 170.8 1041.25 169.55 L1045.1 169.55 Q1045.3 170.8 1046.3 171.8 1047.55 173 1049.35 173 1051.1 173 1052.35 171.8 1053.35 170.8 1053.55 169.55 L1057.4 169.55 Q1057.6 170.8 1058.6 171.8 1059.85 173 1061.65 173 1063.4 173 1064.6 171.8 1065.6 170.8 1065.8 169.55 L1069.75 169.55 Q1069.95 170.8 1070.95 171.8 1072.2 173 1073.9 173 1075.65 173 1076.9 171.8 1077.9 170.8 1078.1 169.55 L1080 169.55 1080 165.05 1077 165.05 M1043.55 148.35 Q1044.4 148.35 1045 148.95 1045.55 149.5 1045.55 150.35 L1045.55 151.85 1052.2 151.85 1052.8 151.1 1052.9 151 Q1054.3 149.65 1056.35 149.65 1058.35 149.65 1059.75 151 L1059.8 151 1060.5 151.85 1064.45 151.85 1064.45 150.35 Q1064.45 149.5 1065.05 148.95 1065.6 148.35 1066.45 148.35 1069.8 147.6 1073.35 148.4 1074 148.55 1074.45 149.1 1074.9 149.65 1074.9 150.35 L1074.9 151.85 1078 151.85 Q1078.6 151.85 1079.1 152.2 L1079.85 153.05 Q1082.3 158.5 1080.1 163.05 1080.85 163.1 1081.45 163.65 1082 164.2 1082 165.05 L1082 169.55 Q1082 170.4 1081.45 171 1080.85 171.55 1080 171.55 L1079.55 171.55 1078.35 173.25 1078.3 173.25 Q1076.45 175 1073.9 175 1071.4 175 1069.6 173.25 L1069.55 173.25 Q1068.75 172.45 1068.3 171.55 1067.9 170.75 1067.8 169.9 L1067.25 171.55 1066.05 173.25 Q1064.25 175 1061.65 175 1059.05 175 1057.25 173.25 L1057.2 173.25 Q1056.4 172.45 1055.95 171.55 L1055.5 170.2 1055 171.55 1053.8 173.25 1053.75 173.25 Q1051.9 175 1049.35 175 1046.75 175 1044.95 173.25 L1044.9 173.25 1043.65 171.55 1043.2 170.2 1042.7 171.55 1041.5 173.25 1041.45 173.25 Q1039.6 175 1037 175 1034.45 175 1032.65 173.25 L1032.55 173.2 1031.4 171.55 1030.95 171.55 Q1030.1 171.55 1029.55 171 1028.95 170.4 1028.95 169.55 L1028.95 165.05 Q1028.95 164.2 1029.55 163.65 L1030.3 163.15 1030.3 156.15 1028.6 154.45 Q1028 153.85 1028 153 L1028 150.35 Q1028 149.5 1028.6 148.95 1029.15 148.35 1030 148.35 L1043.55 148.35"/>
    <path stroke="none" fill="#E86A17" d="M1110.2 143.8 L1112.65 144.5 1117.55 144.05 Q1117.85 143.95 1118.25 143.8 1119.15 143.45 1119.95 143.25 L1123.85 143.1 1125.4 143.5 1126.3 143.8 1129.3 144.55 Q1131.8 144.8 1134.3 143.8 L1134.75 143.6 1136 143.25 1136 163.9 1134.75 164.25 1134.3 164.45 Q1131.8 165.45 1129.3 165.2 L1126.3 164.45 1125.4 164.15 1123.85 163.75 1119.95 163.9 Q1119.15 164.1 1118.25 164.45 L1117.55 164.7 1112.65 165.15 1112.2 165.1 1111.9 165 1110.2 164.45 1110.2 143.8"/>
    <path stroke="none" fill="#D46217" d="M1110.2 143.8 L1110.2 164.45 1110.2 181 1106 181 1106 143.8 1110.2 143.8"/>
    <path stroke="none" fill="#9C4B15" d="M1110.2 143.8 L1106 143.8 1106 181 1110.2 181 1110.2 164.45 1111.9 165 1112.2 165.1 1112.65 165.15 1117.55 164.7 1118.25 164.45 Q1119.15 164.1 1119.95 163.9 L1123.85 163.75 1125.4 164.15 1126.3 164.45 1129.3 165.2 Q1131.8 165.45 1134.3 164.45 L1134.75 164.25 1136 163.9 1136 143.25 1134.75 143.6 1134.3 143.8 Q1131.8 144.8 1129.3 144.55 L1126.3 143.8 1125.4 143.5 1123.85 143.1 1119.95 143.25 Q1119.15 143.45 1118.25 143.8 1117.85 143.95 1117.55 144.05 L1112.65 144.5 1110.2 143.8 M1136.75 141.4 L1137.65 142.15 Q1138 142.65 1138 143.25 L1138 163.9 Q1138 164.6 1137.6 165.15 1137.15 165.7 1136.45 165.85 L1135.6 166.1 1135.05 166.3 Q1132.1 167.5 1129.1 167.2 L1125.55 166.3 1125.5 166.3 1125 166.1 1124.8 166.05 1123.5 165.75 1123.55 165.75 1120.45 165.85 1119.05 166.3 1119 166.35 1118.2 166.6 Q1115.25 167.6 1112.35 167.15 L1112.25 167.1 1112.2 167.1 1112.2 181 Q1112.2 181.85 1111.65 182.45 1111.05 183 1110.2 183 L1106 183 Q1105.15 183 1104.6 182.45 1104 181.85 1104 181 L1104 143.8 Q1104 142.95 1104.6 142.4 1105.15 141.8 1106 141.8 L1110.2 141.8 1111 141.95 1113 142.55 1116.95 142.15 1117.55 141.95 1119.5 141.3 1124.15 141.15 1126 141.6 1127.05 141.95 1127.1 142 1129.5 142.55 Q1131.5 142.75 1133.55 141.95 L1133.85 141.8 1134.15 141.7 1135.55 141.3 1136.75 141.4"/>
    <path stroke="none" fill="#E86A17" d="M1175.1 143 L1175.75 143.25 Q1187.35 151.55 1200 152.7 L1200 153.3 Q1189.9 165.75 1175.1 163.55 L1175.1 143"/>
    <path stroke="none" fill="#D46217" d="M1175.1 143 L1175.1 163.55 1175.1 180 1171 180 1171 143 1175.1 143"/>
    <path stroke="none" fill="#9C4B15" d="M1175.1 143 L1171 143 1171 180 1175.1 180 1175.1 163.55 Q1189.9 165.75 1200 153.3 L1200 152.7 Q1187.35 151.55 1175.75 143.25 L1175.1 143 M1176 141.2 L1176.3 141.35 1176.95 141.65 Q1188.05 149.6 1200.2 150.7 1200.95 150.75 1201.5 151.35 1202 151.95 1202 152.7 L1202 153.3 Q1202 154 1201.55 154.55 1191.5 166.95 1177.1 165.8 L1177.1 180 Q1177.1 180.85 1176.55 181.45 1175.95 182 1175.1 182 L1171 182 Q1170.15 182 1169.6 181.45 1169 180.85 1169 180 L1169 143 Q1169 142.15 1169.6 141.6 1170.15 141 1171 141 L1175.1 141 1176 141.2"/>
  </g>
</svg>