<svg xmlns="http://www.w3.org/2000/svg" xmlns:xlink="http://www.w3.org/1999/xlink">
  <defs/>
  <g>
    <path stroke="none" fill="#BBBBBB" d="M743 12 L617 12 Q612 12 612 17 L612 193 Q612 198 617 198 L743 198 Q748 198 748 193 L748 17 Q748 12 743 12 M750 17 L750 193 Q750 200 743 200 L617 200 Q610 200 610 193 L610 17 Q610 10 617 10 L743 10 Q750 10 750 17 M743 212 L617 212 Q612 212 612 217 L612 393 Q612 398 617 398 L743 398 Q748 398 748 393 L748 217 Q748 212 743 212 M750 217 L750 393 Q750 400 743 400 L617 400 Q610 400 610 393 L610 217 Q610 210 617 210 L743 210 Q750 210 750 217 M743 412 L617 412 Q612 412 612 417 L612 593 Q612 598 617 598 L743 598 Q748 598 748 593 L748 417 Q748 412 743 412 M750 417 L750 593 Q750 600 743 600 L617 600 Q610 600 610 593 L610 417 Q610 410 617 410 L743 410 Q750 410 750 417 M593 12 L467 12 Q462 12 462 17 L462 193 Q462 198 467 198 L593 198 Q598 198 598 193 L598 17 Q598 12 593 12 M600 17 L600 193 Q600 200 593 200 L467 200 Q460 200 460 193 L460 17 Q460 10 467 10 L593 10 Q600 10 600 17 M443 12 L317 12 Q312 12 312 17 L312 193 Q312 198 317 198 L443 198 Q448 198 448 193 L448 17 Q448 12 443 12 M450 17 L450 193 Q450 200 443 200 L317 200 Q310 200 310 193 L310 17 Q310 10 317 10 L443 10 Q450 10 450 17 M462 217 L462 393 Q462 398 467 398 L593 398 Q598 398 598 393 L598 217 Q598 212 593 212 L467 212 Q462 212 462 217 M467 210 L593 210 Q600 210 600 217 L600 393 Q600 400 593 400 L467 400 Q460 400 460 393 L460 217 Q460 210 467 210 M443 212 L317 212 Q312 212 312 217 L312 393 Q312 398 317 398 L443 398 Q448 398 448 393 L448 217 Q448 212 443 212 M450 217 L450 393 Q450 400 443 400 L317 400 Q310 400 310 393 L310 217 Q310 210 317 210 L443 210 Q450 210 450 217 M300 17 L300 193 Q300 200 293 200 L167 200 Q160 200 160 193 L160 17 Q160 10 167 10 L293 10 Q300 10 300 17 M293 12 L167 12 Q162 12 162 17 L162 193 Q162 198 167 198 L293 198 Q298 198 298 193 L298 17 Q298 12 293 12 M143 12 L17 12 Q12 12 12 17 L12 193 Q12 198 17 198 L143 198 Q148 198 148 193 L148 17 Q148 12 143 12 M150 17 L150 193 Q150 200 143 200 L17 200 Q10 200 10 193 L10 17 Q10 10 17 10 L143 10 Q150 10 150 17 M143 212 L17 212 Q12 212 12 217 L12 393 Q12 398 17 398 L143 398 Q148 398 148 393 L148 217 Q148 212 143 212 M150 217 L150 393 Q150 400 143 400 L17 400 Q10 400 10 393 L10 217 Q10 210 17 210 L143 210 Q150 210 150 217 M160 217 Q160 210 167 210 L293 210 Q300 210 300 217 L300 393 Q300 400 293 400 L167 400 Q160 400 160 393 L160 217 M293 212 L167 212 Q162 212 162 217 L162 393 Q162 398 167 398 L293 398 Q298 398 298 393 L298 217 Q298 212 293 212 M312 417 L312 593 Q312 598 317 598 L443 598 Q448 598 448 593 L448 417 Q448 412 443 412 L317 412 Q312 412 312 417 M317 410 L443 410 Q450 410 450 417 L450 593 Q450 600 443 600 L317 600 Q310 600 310 593 L310 417 Q310 410 317 410 M300 417 L300 593 Q300 600 293 600 L167 600 Q160 600 160 593 L160 417 Q160 410 167 410 L293 410 Q300 410 300 417 M293 412 L167 412 Q162 412 162 417 L162 593 Q162 598 167 598 L293 598 Q298 598 298 593 L298 417 Q298 412 293 412 M150 417 L150 593 Q150 600 143 600 L17 600 Q10 600 10 593 L10 417 Q10 410 17 410 L143 410 Q150 410 150 417 M143 412 L17 412 Q12 412 12 417 L12 593 Q12 598 17 598 L143 598 Q148 598 148 593 L148 417 Q148 412 143 412 M593 412 L467 412 Q462 412 462 417 L462 593 Q462 598 467 598 L593 598 Q598 598 598 593 L598 417 Q598 412 593 412 M600 417 L600 593 Q600 600 593 600 L467 600 Q460 600 460 593 L460 417 Q460 410 467 410 L593 410 Q600 410 600 417"/>
    <path stroke="none" fill="#FFFFFF" d="M743 12 Q748 12 748 17 L748 193 Q748 198 743 198 L617 198 Q612 198 612 193 L612 17 Q612 12 617 12 L743 12 M743 193 L743 17 617 17 617 193 743 193 M743 212 Q748 212 748 217 L748 393 Q748 398 743 398 L617 398 Q612 398 612 393 L612 217 Q612 212 617 212 L743 212 M743 393 L743 217 617 217 617 393 743 393 M743 412 Q748 412 748 417 L748 593 Q748 598 743 598 L617 598 Q612 598 612 593 L612 417 Q612 412 617 412 L743 412 M743 593 L743 417 617 417 617 593 743 593 M593 12 Q598 12 598 17 L598 193 Q598 198 593 198 L467 198 Q462 198 462 193 L462 17 Q462 12 467 12 L593 12 M593 193 L593 17 467 17 467 193 593 193 M443 12 Q448 12 448 17 L448 193 Q448 198 443 198 L317 198 Q312 198 312 193 L312 17 Q312 12 317 12 L443 12 M443 193 L443 17 317 17 317 193 443 193 M462 217 Q462 212 467 212 L593 212 Q598 212 598 217 L598 393 Q598 398 593 398 L467 398 Q462 398 462 393 L462 217 M443 212 Q448 212 448 217 L448 393 Q448 398 443 398 L317 398 Q312 398 312 393 L312 217 Q312 212 317 212 L443 212 M443 393 L443 217 317 217 317 393 443 393 M467 217 L467 393 593 393 593 217 467 217 M293 12 Q298 12 298 17 L298 193 Q298 198 293 198 L167 198 Q162 198 162 193 L162 17 Q162 12 167 12 L293 12 M293 17 L167 17 167 193 293 193 293 17 M143 12 Q148 12 148 17 L148 193 Q148 198 143 198 L17 198 Q12 198 12 193 L12 17 Q12 12 17 12 L143 12 M143 193 L143 17 17 17 17 193 143 193 M143 212 Q148 212 148 217 L148 393 Q148 398 143 398 L17 398 Q12 398 12 393 L12 217 Q12 212 17 212 L143 212 M17 393 L143 393 143 217 17 217 17 393 M293 212 Q298 212 298 217 L298 393 Q298 398 293 398 L167 398 Q162 398 162 393 L162 217 Q162 212 167 212 L293 212 M167 393 L293 393 293 217 167 217 167 393 M312 417 Q312 412 317 412 L443 412 Q448 412 448 417 L448 593 Q448 598 443 598 L317 598 Q312 598 312 593 L312 417 M293 412 Q298 412 298 417 L298 593 Q298 598 293 598 L167 598 Q162 598 162 593 L162 417 Q162 412 167 412 L293 412 M167 593 L293 593 293 417 167 417 167 593 M317 417 L317 593 443 593 443 417 317 417 M143 412 Q148 412 148 417 L148 593 Q148 598 143 598 L17 598 Q12 598 12 593 L12 417 Q12 412 17 412 L143 412 M17 417 L17 593 143 593 143 417 17 417 M593 412 Q598 412 598 417 L598 593 Q598 598 593 598 L467 598 Q462 598 462 593 L462 417 Q462 412 467 412 L593 412 M593 593 L593 417 467 417 467 593 593 593"/>
    <path stroke="none" fill="#C93F3F" d="M743 193 L617 193 617 17 743 17 743 193 M728 178 L728 32 632 32 632 178 728 178 M723 173 L637 173 637 37 723 37 723 173 M573 37 L573 173 487 173 487 37 573 37 M578 178 L578 32 482 32 482 178 578 178 M593 193 L467 193 467 17 593 17 593 193 M428 178 L428 32 332 32 332 178 428 178 M443 193 L317 193 317 17 443 17 443 193 M423 173 L337 173 337 37 423 37 423 173 M293 17 L293 193 167 193 167 17 293 17 M182 178 L278 178 278 32 182 32 182 178 M143 193 L17 193 17 17 143 17 143 193"/>
    <path stroke="none" fill="#B63A3A" d="M728 178 L632 178 632 32 728 32 728 178 M723 173 L723 37 637 37 637 173 723 173 M573 37 L487 37 487 173 573 173 573 37 M578 178 L482 178 482 32 578 32 578 178 M428 178 L332 178 332 32 428 32 428 178 M423 173 L423 37 337 37 337 173 423 173 M182 178 L182 32 278 32 278 178 182 178"/>
    <path stroke="none" fill="#529848" d="M728 378 L728 232 632 232 632 378 728 378 M743 393 L617 393 617 217 743 217 743 393 M723 373 L637 373 637 237 723 237 723 373 M482 232 L482 378 578 378 578 232 482 232 M467 217 L593 217 593 393 467 393 467 217 M443 393 L317 393 317 217 443 217 443 393 M332 378 L428 378 428 232 332 232 332 378 M337 373 L337 237 423 237 423 373 337 373 M487 373 L487 237 573 237 573 373 487 373 M17 393 L17 217 143 217 143 393 17 393 M167 393 L167 217 293 217 293 393 167 393 M182 232 L182 378 278 378 278 232 182 232"/>
    <path stroke="none" fill="#4485BF" d="M743 593 L617 593 617 417 743 417 743 593 M723 573 L637 573 637 437 723 437 723 573 M728 578 L728 432 632 432 632 578 728 578 M317 417 L443 417 443 593 317 593 317 417 M167 593 L167 417 293 417 293 593 167 593 M182 578 L278 578 278 432 182 432 182 578 M17 417 L143 417 143 593 17 593 17 417 M593 593 L467 593 467 417 593 417 593 593 M573 437 L573 573 487 573 487 437 573 437 M428 578 L428 432 332 432 332 578 428 578 M578 578 L578 432 482 432 482 578 578 578 M423 573 L337 573 337 437 423 437 423 573"/>
    <path stroke="none" fill="#3D77AB" d="M423 573 L423 437 337 437 337 573 423 573 M723 573 L723 437 637 437 637 573 723 573 M728 578 L632 578 632 432 728 432 728 578 M182 578 L182 432 278 432 278 578 182 578 M573 437 L487 437 487 573 573 573 573 437 M578 578 L482 578 482 432 578 432 578 578 M428 578 L332 578 332 432 428 432 428 578"/>
    <path stroke="none" fill="#498840" d="M728 378 L632 378 632 232 728 232 728 378 M723 373 L723 237 637 237 637 373 723 373 M482 232 L578 232 578 378 482 378 482 232 M332 378 L332 232 428 232 428 378 332 378 M487 373 L573 373 573 237 487 237 487 373 M337 373 L423 373 423 237 337 237 337 373 M182 232 L278 232 278 378 182 378 182 232"/>
    <path stroke="none" fill="#000000" fill-opacity="0.2" d="M262.1 41.25 L264.75 44.1 267.7 47.35 Q269.1 49.2 268.4 50.8 267.4 52.75 264.95 52.5 L262.65 51.95 263.15 53.55 Q263.6 54.35 264.4 55.15 L259.7 55.15 261.05 53.55 261.5 51.95 259.2 52.5 Q256.8 52.75 255.9 50.8 255.1 49.2 256.45 47.35 L259.45 44.1 262.1 41.25 M251.7 63.55 Q252.75 64.35 252.75 65.85 252.85 67 252.5 67.7 251.7 69.5 250.1 69.65 248.95 69.65 248.25 68.7 L247.8 67.7 Q247.7 67.55 247.55 67.7 L247.35 67.9 Q247.1 68.5 247.35 69.15 L248.5 71.45 244.25 71.45 245.5 69.15 Q245.75 68.6 245.6 67.9 245.4 67.2 245.05 67.7 244.6 69.75 242.75 69.65 241.25 69.5 240.3 67.7 240 67 240.1 65.85 240.1 64.35 241.15 63.55 242.6 62.15 244.35 64.1 L244.8 63.75 Q244.9 63.45 244.1 62.4 243.1 61.35 243.55 59.85 244 58.6 245.25 58.25 245.85 57.9 246.3 57.9 L246.55 57.9 247.7 58.25 Q248.85 58.6 249.3 59.85 249.75 61.35 248.85 62.4 247.9 63.45 248 63.75 L248.5 64.1 249.65 63.3 Q250.8 62.6 251.7 63.55 M268.4 83.2 Q267.4 85.15 264.95 85.05 L262.65 84.45 263.15 86.05 264.4 87.7 259.7 87.7 261.05 86.05 261.5 84.45 259.2 85.05 Q256.8 85.15 255.9 83.2 255.1 81.6 256.45 79.85 L259.45 76.65 262.1 73.75 264.75 76.65 267.7 79.85 Q269.1 81.6 268.4 83.2 M249.65 95.7 Q250.8 95.15 251.7 95.95 252.75 96.85 252.75 98.35 252.85 99.5 252.5 100.1 251.7 102.05 250.1 102.05 248.95 102.15 248.25 101.1 L247.8 100.1 Q247.7 99.95 247.55 100.1 L247.35 100.3 Q247.1 101 247.35 101.6 L248.5 104 244.25 104 245.5 101.6 Q245.75 101 245.6 100.3 245.4 99.75 245.05 100.1 244.6 102.25 242.75 102.05 241.25 102.05 240.3 100.1 240 99.5 240.1 98.35 240.1 96.85 241.15 95.95 242.6 94.7 244.35 96.55 L244.8 96.3 Q244.9 95.95 244.1 94.9 243.1 93.9 243.55 92.4 244 91.1 245.25 90.65 L246.3 90.45 246.55 90.45 247.7 90.65 Q248.85 91.1 249.3 92.4 249.75 93.9 248.85 94.9 247.9 95.95 248 96.3 248.25 96.65 248.5 96.55 L249.65 95.7 M227.05 44.1 L229.6 41.25 232.35 44.1 235.35 47.35 Q236.7 49.2 235.9 50.8 235 52.75 232.6 52.5 L230.3 51.95 230.75 53.55 Q231.1 54.35 232 55.15 L227.3 55.15 Q228.2 54.35 228.55 53.55 L229 51.95 226.85 52.5 Q224.3 52.75 223.4 50.8 222.6 49.2 223.95 47.35 L227.05 44.1 M202.85 47.35 Q204.2 49.2 203.5 50.8 202.6 52.75 200.1 52.5 L197.9 51.95 198.25 53.55 199.6 55.15 194.9 55.15 Q195.8 54.35 196.15 53.55 L196.65 51.95 194.35 52.5 Q191.9 52.75 191 50.8 190.2 49.2 191.55 47.35 L194.65 44.1 197.2 41.25 199.95 44.1 202.85 47.35 M207.8 67.7 L207.6 65.85 Q207.7 64.35 208.65 63.55 210.1 62.15 211.95 64.1 L212.4 63.75 Q212.55 63.45 211.6 62.4 210.7 61.35 211.15 59.85 211.5 58.6 212.9 58.25 213.45 57.9 213.9 57.9 L214.05 57.9 215.2 58.25 Q216.45 58.6 216.8 59.85 217.25 61.35 216.35 62.4 215.5 63.45 215.65 63.75 215.75 64.25 216.1 64.1 L217.25 63.3 Q218.4 62.6 219.3 63.55 220.25 64.35 220.35 65.85 L220.1 67.7 Q219.3 69.5 217.6 69.65 216.45 69.65 215.85 68.7 L215.4 67.7 Q215.3 67.55 215.05 67.7 L214.85 67.9 Q214.7 68.5 214.95 69.15 L216.1 71.45 211.85 71.45 213.1 69.15 Q213.35 68.6 213.1 67.9 212.9 67.2 212.65 67.7 212.2 69.75 210.35 69.65 208.75 69.5 207.8 67.7 M203.5 83.2 Q202.6 85.15 200.1 85.05 L197.9 84.45 198.25 86.05 199.6 87.7 194.9 87.7 196.15 86.05 196.65 84.45 194.35 85.05 Q191.9 85.15 191 83.2 190.2 81.6 191.55 79.85 L194.65 76.65 197.2 73.75 199.95 76.65 202.85 79.85 Q204.2 81.6 203.5 83.2 M223.95 79.85 L227.05 76.65 229.6 73.75 232.35 76.65 235.35 79.85 Q236.7 81.6 235.9 83.2 235 85.15 232.6 85.05 L230.3 84.45 230.75 86.05 Q231.1 86.75 232 87.7 L227.3 87.7 228.55 86.05 229 84.45 226.85 85.05 Q224.3 85.15 223.4 83.2 222.6 81.6 223.95 79.85 M214.05 90.45 L215.2 90.65 Q216.45 91.1 216.8 92.4 217.25 93.9 216.35 94.9 215.5 95.95 215.65 96.3 215.75 96.65 216.1 96.55 L217.25 95.7 Q218.4 95.15 219.3 95.95 220.25 96.85 220.35 98.35 L220.1 100.1 Q219.3 102.05 217.6 102.05 216.45 102.15 215.85 101.1 L215.4 100.1 Q215.3 99.95 215.05 100.1 L214.85 100.3 Q214.7 101 214.95 101.6 L216.1 104 211.85 104 213.1 101.6 Q213.35 101 213.1 100.3 212.9 99.75 212.65 100.1 212.2 102.25 210.35 102.05 208.75 102.05 207.8 100.1 L207.6 98.35 Q207.7 96.85 208.65 95.95 210.1 94.7 211.95 96.55 L212.4 96.3 Q212.55 95.95 211.6 94.9 210.7 93.9 211.15 92.4 211.5 91.1 212.9 90.65 L213.9 90.45 214.05 90.45 M232.35 109.05 L235.35 112.25 Q236.7 114.1 235.9 115.7 235 117.65 232.6 117.55 L230.3 116.85 230.75 118.5 Q231.1 119.3 232 120.2 L227.3 120.2 228.55 118.5 229 116.85 Q228 117.45 226.85 117.55 224.3 117.65 223.4 115.7 222.6 114.1 223.95 112.25 L227.05 109.05 229.6 106.3 232.35 109.05 M219.3 128.5 Q220.25 129.3 220.35 130.75 L220.1 132.6 Q219.3 134.55 217.6 134.55 216.45 134.55 215.85 133.65 L215.4 132.6 215.05 132.6 214.85 132.85 Q214.7 133.4 214.95 134.1 L216.1 136.5 211.85 136.5 213.1 134.1 Q213.35 133.55 213.1 132.85 212.9 132.25 212.65 132.6 212.2 134.7 210.35 134.55 208.75 134.55 207.8 132.6 L207.6 130.75 Q207.7 129.3 208.65 128.5 210.1 127.1 211.95 129.05 L212.4 128.7 Q212.55 128.35 211.6 127.45 210.7 126.4 211.15 124.8 211.5 123.55 212.9 123.2 L213.9 122.95 214.05 122.95 215.2 123.2 Q216.45 123.55 216.8 124.8 217.25 126.4 216.35 127.45 215.5 128.35 215.65 128.7 215.75 129.15 216.1 129.05 L217.25 128.25 Q218.4 127.65 219.3 128.5 M227.05 141.6 L229.6 138.7 232.35 141.6 235.35 144.8 Q236.7 146.65 235.9 148.15 235 150.1 232.6 149.95 L230.3 149.4 230.75 151 Q231.1 151.8 232 152.6 L227.3 152.6 Q228.2 151.8 228.55 151 L229 149.4 226.85 149.95 Q224.3 150.1 223.4 148.15 222.6 146.65 223.95 144.8 L227.05 141.6 M245.25 123.2 Q245.85 122.85 246.3 122.95 L246.55 122.95 247.7 123.2 Q248.85 123.55 249.3 124.8 249.75 126.4 248.85 127.45 247.9 128.35 248 128.7 L248.5 129.05 249.65 128.25 Q250.8 127.65 251.7 128.5 252.75 129.3 252.75 130.75 252.85 132.05 252.5 132.6 251.7 134.55 250.1 134.55 248.95 134.55 248.25 133.65 L247.8 132.6 247.55 132.6 247.35 132.85 Q247.1 133.4 247.35 134.1 L248.5 136.5 244.25 136.5 245.5 134.1 Q245.75 133.55 245.6 132.85 245.4 132.25 245.05 132.6 244.6 134.7 242.75 134.55 241.25 134.55 240.3 132.6 240 131.9 240.1 130.75 240.1 129.3 241.15 128.5 242.6 127.1 244.35 129.05 L244.8 128.7 Q244.9 128.35 244.1 127.45 243.1 126.4 243.55 124.8 244 123.55 245.25 123.2 M197.2 106.3 L199.95 109.05 202.85 112.25 Q204.2 114.1 203.5 115.7 202.6 117.65 200.1 117.55 L197.9 116.85 198.25 118.5 199.6 120.2 194.9 120.2 196.15 118.5 196.65 116.85 Q195.6 117.45 194.35 117.55 191.9 117.65 191 115.7 190.2 114.1 191.55 112.25 L194.65 109.05 197.2 106.3 M194.65 141.6 L197.2 138.7 199.95 141.6 202.85 144.8 Q204.2 146.65 203.5 148.15 202.6 150.1 200.1 149.95 L197.9 149.4 198.25 151 199.6 152.6 194.9 152.6 Q195.8 151.8 196.15 151 L196.65 149.4 194.35 149.95 Q191.9 150.1 191 148.15 190.2 146.65 191.55 144.8 L194.65 141.6 M243.55 157.3 Q244 156.05 245.25 155.6 L246.3 155.35 246.55 155.35 247.7 155.6 Q248.85 156.05 249.3 157.3 249.75 158.8 248.85 159.85 247.9 160.9 248 161.25 L248.5 161.55 249.65 160.75 Q250.8 160.1 251.7 161 252.75 161.8 252.75 163.3 252.85 164.45 252.5 165 251.7 167 250.1 167.1 248.95 167.1 248.25 166.15 L247.8 165 247.55 165 Q247.35 165 247.35 165.35 247.1 165.95 247.35 166.65 L248.5 168.95 244.25 168.95 245.5 166.65 Q245.75 166.05 245.6 165.35 245.4 164.7 245.05 165 244.6 167.2 242.75 167.1 241.25 167 240.3 165 240 164.45 240.1 163.3 240.1 161.8 241.15 161 242.6 159.6 244.35 161.55 L244.8 161.25 Q244.9 160.9 244.1 159.85 243.1 158.8 243.55 157.3 M207.8 165 L207.6 163.3 Q207.7 161.8 208.65 161 210.1 159.6 211.95 161.55 L212.4 161.25 Q212.55 160.9 211.6 159.85 210.7 158.8 211.15 157.3 211.5 156.05 212.9 155.6 L213.9 155.35 214.05 155.35 215.2 155.6 Q216.45 156.05 216.8 157.3 217.25 158.8 216.35 159.85 215.5 160.9 215.65 161.25 L216.1 161.55 217.25 160.75 Q218.4 160.1 219.3 161 220.25 161.8 220.35 163.3 L220.1 165 Q219.3 167 217.6 167.1 216.45 167.1 215.85 166.15 L215.4 165 215.05 165 214.85 165.35 Q214.7 165.95 214.95 166.65 L216.1 168.95 211.85 168.95 213.1 166.65 Q213.35 166.05 213.1 165.35 212.9 164.7 212.65 165 212.2 167.2 210.35 167.1 208.75 167 207.8 165 M262.1 106.3 L264.75 109.05 267.7 112.25 Q269.1 114.1 268.4 115.7 267.4 117.65 264.95 117.55 L262.65 116.85 263.15 118.5 264.4 120.2 259.7 120.2 261.05 118.5 261.5 116.85 Q260.5 117.45 259.2 117.55 256.8 117.65 255.9 115.7 255.1 114.1 256.45 112.25 L259.45 109.05 262.1 106.3 M262.1 138.7 L264.75 141.6 267.7 144.8 Q269.1 146.65 268.4 148.15 267.4 150.1 264.95 149.95 L262.65 149.4 263.15 151 Q263.6 151.8 264.4 152.6 L259.7 152.6 261.05 151 261.5 149.4 259.2 149.95 Q256.8 150.1 255.9 148.15 255.1 146.65 256.45 144.8 L259.45 141.6 262.1 138.7"/>
    <path stroke="none" fill="#000000" fill-opacity="0.10196078431372549" d="M252.05 42.25 Q252.95 43.3 252.95 44.7 252.95 45.7 252.3 46.85 L250.8 49.05 Q247 52.85 245.95 54.9 244.9 52.85 241.25 49.05 240.3 48.15 239.65 46.85 238.95 45.7 238.95 44.7 238.95 43.3 239.85 42.25 240.9 41 242.5 41 244.1 41 245.15 42.25 245.95 43.2 245.95 44.45 246.05 43.2 246.85 42.25 247.8 41 249.4 41 251 41 252.05 42.25 M262.1 71.45 L256.8 64.45 262.1 57.55 267.4 64.45 262.1 71.45 M252.3 79.4 L250.8 81.55 Q247 85.35 245.95 87.45 244.9 85.35 241.25 81.55 240.3 80.65 239.65 79.4 238.95 78.1 238.95 77.1 238.95 75.8 239.85 74.8 240.9 73.5 242.5 73.5 244.1 73.5 245.15 74.65 245.95 75.7 245.95 76.95 246.05 75.7 246.85 74.65 247.8 73.5 249.4 73.5 251 73.5 252.05 74.8 252.95 75.8 252.95 77.1 252.95 78.1 252.3 79.4 M267.4 96.95 L262.1 103.85 256.8 96.95 262.1 90.05 267.4 96.95 M220.6 44.7 Q220.6 45.7 219.9 46.85 219.2 48.15 218.3 49.05 214.6 52.85 213.55 54.9 212.55 52.85 208.75 49.05 207.95 48.15 207.25 46.85 206.55 45.7 206.55 44.7 206.55 43.3 207.5 42.25 208.4 41 210.1 41 211.75 41 212.65 42.25 213.45 43.2 213.55 44.45 213.55 43.2 214.5 42.25 215.4 41 217 41 218.65 41 219.65 42.25 220.6 43.3 220.6 44.7 M191.9 64.45 L197.2 57.55 202.6 64.45 197.2 71.45 191.9 64.45 M206.55 77.1 Q206.55 75.8 207.5 74.8 208.4 73.5 210.1 73.5 211.75 73.5 212.65 74.65 213.45 75.7 213.55 76.95 213.55 75.7 214.5 74.65 215.4 73.5 217 73.5 218.65 73.5 219.65 74.8 220.6 75.8 220.6 77.1 220.6 78.1 219.9 79.4 L218.3 81.55 Q214.6 85.35 213.55 87.45 212.55 85.35 208.75 81.55 L207.25 79.4 Q206.55 78.1 206.55 77.1 M197.2 90.05 L202.6 96.95 197.2 103.85 191.9 96.95 197.2 90.05 M229.7 71.45 L224.3 64.45 229.7 57.55 235 64.45 229.7 71.45 M235 96.95 L229.7 103.85 224.3 96.95 229.7 90.05 235 96.95 M242.5 106.05 Q244.1 106.05 245.15 107.2 245.95 108.1 245.95 109.5 246.05 108.1 246.85 107.2 247.8 106.05 249.4 106.05 251 106.05 252.05 107.2 252.95 108.25 252.95 109.6 252.95 110.65 252.3 111.9 L250.8 113.95 Q247 117.9 245.95 119.95 244.9 117.9 241.25 113.95 240.3 113.05 239.65 111.9 238.95 110.65 238.95 109.6 238.95 108.25 239.85 107.2 240.9 106.05 242.5 106.05 M212.65 107.2 Q213.45 108.1 213.55 109.5 213.55 108.1 214.5 107.2 215.4 106.05 217 106.05 218.65 106.05 219.65 107.2 220.6 108.25 220.6 109.6 220.6 110.65 219.9 111.9 L218.3 113.95 Q214.6 117.9 213.55 119.95 212.55 117.9 208.75 113.95 L207.25 111.9 Q206.55 110.65 206.55 109.6 206.55 108.25 207.5 107.2 208.4 106.05 210.1 106.05 211.75 106.05 212.65 107.2 M212.65 139.7 Q213.45 140.65 213.55 141.9 213.55 140.65 214.5 139.7 215.4 138.45 217 138.45 218.65 138.45 219.65 139.7 220.6 140.75 220.6 142.15 220.6 143.05 219.9 144.3 219.2 145.6 218.3 146.5 214.6 150.3 213.55 152.35 212.55 150.3 208.75 146.5 207.95 145.6 207.25 144.3 206.55 143.05 206.55 142.15 206.55 140.75 207.5 139.7 208.4 138.45 210.1 138.45 211.75 138.45 212.65 139.7 M235 129.5 L229.7 136.4 224.3 129.5 229.7 122.6 235 129.5 M245.95 141.9 Q246.05 140.65 246.85 139.7 247.8 138.45 249.4 138.45 251 138.45 252.05 139.7 252.95 140.75 252.95 142.15 252.95 143.05 252.3 144.3 L250.8 146.5 Q247 150.3 245.95 152.35 244.9 150.3 241.25 146.5 240.3 145.6 239.65 144.3 238.95 143.05 238.95 142.15 238.95 140.75 239.85 139.7 240.9 138.45 242.5 138.45 244.1 138.45 245.15 139.7 245.95 140.65 245.95 141.9 M197.2 122.6 L202.6 129.5 197.2 136.4 191.9 129.5 197.2 122.6 M191.9 161.9 L197.2 155 202.6 161.9 197.2 168.9 191.9 161.9 M229.7 168.9 L224.3 161.9 229.7 155 235 161.9 229.7 168.9 M267.4 129.5 L262.1 136.4 256.8 129.5 262.1 122.6 267.4 129.5 M262.1 168.9 L256.8 161.9 262.1 155 267.4 161.9 262.1 168.9"/>
    <path stroke="none" fill="#000000" fill-opacity="0.10196078431372549" d="M552.05 42.25 Q552.95 43.3 552.95 44.7 552.95 45.7 552.3 46.85 L550.8 49.05 Q547 52.85 545.95 54.9 544.9 52.85 541.25 49.05 540.3 48.15 539.65 46.85 538.95 45.7 538.95 44.7 538.95 43.3 539.85 42.25 540.9 41 542.5 41 544.1 41 545.15 42.25 545.95 43.2 545.95 44.45 546.05 43.2 546.85 42.25 547.8 41 549.4 41 551 41 552.05 42.25 M510.1 41 Q511.75 41 512.65 42.25 513.45 43.2 513.55 44.45 513.55 43.2 514.5 42.25 515.4 41 517 41 518.65 41 519.65 42.25 520.6 43.3 520.6 44.7 520.6 45.7 519.9 46.85 519.2 48.15 518.3 49.05 514.6 52.85 513.55 54.9 512.55 52.85 508.75 49.05 507.95 48.15 507.25 46.85 506.55 45.7 506.55 44.7 506.55 43.3 507.5 42.25 508.4 41 510.1 41 M524.3 64.45 L529.7 57.55 535 64.45 529.7 71.45 524.3 64.45 M502.6 64.45 L497.2 71.45 491.9 64.45 497.2 57.55 502.6 64.45 M507.5 74.8 Q508.4 73.5 510.1 73.5 511.75 73.5 512.65 74.65 513.45 75.7 513.55 76.95 513.55 75.7 514.5 74.65 515.4 73.5 517 73.5 518.65 73.5 519.65 74.8 520.6 75.8 520.6 77.1 520.6 78.1 519.9 79.4 L518.3 81.55 Q514.6 85.35 513.55 87.45 512.55 85.35 508.75 81.55 L507.25 79.4 Q506.55 78.1 506.55 77.1 506.55 75.8 507.5 74.8 M502.6 96.95 L497.2 103.85 491.9 96.95 497.2 90.05 502.6 96.95 M529.7 90.05 L535 96.95 529.7 103.85 524.3 96.95 529.7 90.05 M556.8 64.45 L562.1 57.55 567.4 64.45 562.1 71.45 556.8 64.45 M552.05 74.8 Q552.95 75.8 552.95 77.1 552.95 78.1 552.3 79.4 L550.8 81.55 Q547 85.35 545.95 87.45 544.9 85.35 541.25 81.55 540.3 80.65 539.65 79.4 538.95 78.1 538.95 77.1 538.95 75.8 539.85 74.8 540.9 73.5 542.5 73.5 544.1 73.5 545.15 74.65 545.95 75.7 545.95 76.95 546.05 75.7 546.85 74.65 547.8 73.5 549.4 73.5 551 73.5 552.05 74.8 M562.1 90.05 L567.4 96.95 562.1 103.85 556.8 96.95 562.1 90.05 M552.05 107.2 Q552.95 108.25 552.95 109.6 552.95 110.65 552.3 111.9 L550.8 113.95 Q547 117.9 545.95 119.95 544.9 117.9 541.25 113.95 540.3 113.05 539.65 111.9 538.95 110.65 538.95 109.6 538.95 108.25 539.85 107.2 540.9 106.05 542.5 106.05 544.1 106.05 545.15 107.2 545.95 108.1 545.95 109.5 546.05 108.1 546.85 107.2 547.8 106.05 549.4 106.05 551 106.05 552.05 107.2 M539.85 139.7 Q540.9 138.45 542.5 138.45 544.1 138.45 545.15 139.7 545.95 140.65 545.95 141.9 546.05 140.65 546.85 139.7 547.8 138.45 549.4 138.45 551 138.45 552.05 139.7 552.95 140.75 552.95 142.15 552.95 143.05 552.3 144.3 L550.8 146.5 Q547 150.3 545.95 152.35 544.9 150.3 541.25 146.5 540.3 145.6 539.65 144.3 538.95 143.05 538.95 142.15 538.95 140.75 539.85 139.7 M562.1 122.6 L567.4 129.5 562.1 136.4 556.8 129.5 562.1 122.6 M517 106.05 Q518.65 106.05 519.65 107.2 520.6 108.25 520.6 109.6 520.6 110.65 519.9 111.9 L518.3 113.95 Q514.6 117.9 513.55 119.95 512.55 117.9 508.75 113.95 L507.25 111.9 Q506.55 110.65 506.55 109.6 506.55 108.25 507.5 107.2 508.4 106.05 510.1 106.05 511.75 106.05 512.65 107.2 513.45 108.1 513.55 109.5 513.55 108.1 514.5 107.2 515.4 106.05 517 106.05 M510.1 138.45 Q511.75 138.45 512.65 139.7 513.45 140.65 513.55 141.9 513.55 140.65 514.5 139.7 515.4 138.45 517 138.45 518.65 138.45 519.65 139.7 520.6 140.75 520.6 142.15 520.6 143.05 519.9 144.3 519.2 145.6 518.3 146.5 514.6 150.3 513.55 152.35 512.55 150.3 508.75 146.5 507.95 145.6 507.25 144.3 506.55 143.05 506.55 142.15 506.55 140.75 507.5 139.7 508.4 138.45 510.1 138.45 M502.6 129.5 L497.2 136.4 491.9 129.5 497.2 122.6 502.6 129.5 M529.7 122.6 L535 129.5 529.7 136.4 524.3 129.5 529.7 122.6 M524.3 161.9 L529.7 155 535 161.9 529.7 168.9 524.3 161.9 M502.6 161.9 L497.2 168.9 491.9 161.9 497.2 155 502.6 161.9 M556.8 161.9 L562.1 155 567.4 161.9 562.1 168.9 556.8 161.9"/>
    <path stroke="none" fill="#000000" fill-opacity="0.2" d="M559.45 44.1 L562.1 41.25 564.75 44.1 567.7 47.35 Q569.1 49.2 568.4 50.8 567.4 52.75 564.95 52.5 L562.65 51.95 563.15 53.55 Q563.6 54.35 564.4 55.15 L559.7 55.15 561.05 53.55 561.5 51.95 559.2 52.5 Q556.8 52.75 555.9 50.8 555.1 49.2 556.45 47.35 L559.45 44.1 M497.2 41.25 L499.95 44.1 502.85 47.35 Q504.2 49.2 503.5 50.8 502.6 52.75 500.1 52.5 L497.9 51.95 498.25 53.55 499.6 55.15 494.9 55.15 Q495.8 54.35 496.15 53.55 L496.65 51.95 494.35 52.5 Q491.9 52.75 491 50.8 490.2 49.2 491.55 47.35 L494.65 44.1 497.2 41.25 M529.6 41.25 L532.35 44.1 535.35 47.35 Q536.7 49.2 535.9 50.8 535 52.75 532.6 52.5 L530.3 51.95 530.75 53.55 Q531.1 54.35 532 55.15 L527.3 55.15 528.55 53.55 529 51.95 526.85 52.5 Q524.3 52.75 523.4 50.8 522.6 49.2 523.95 47.35 L527.05 44.1 529.6 41.25 M514.05 57.9 L515.2 58.25 Q516.45 58.6 516.8 59.85 517.25 61.35 516.35 62.4 515.5 63.45 515.65 63.75 515.75 64.25 516.1 64.1 L517.25 63.3 Q518.4 62.6 519.3 63.55 520.25 64.35 520.35 65.85 L520.1 67.7 Q519.3 69.5 517.6 69.65 516.45 69.65 515.85 68.7 L515.4 67.7 Q515.3 67.55 515.05 67.7 L514.85 67.9 Q514.7 68.5 514.95 69.15 L516.1 71.45 511.85 71.45 513.1 69.15 Q513.35 68.6 513.1 67.9 512.9 67.2 512.65 67.7 512.2 69.75 510.35 69.65 508.75 69.5 507.8 67.7 L507.6 65.85 Q507.7 64.35 508.65 63.55 510.1 62.15 511.95 64.1 L512.4 63.75 Q512.55 63.45 511.6 62.4 510.7 61.35 511.15 59.85 511.5 58.6 512.9 58.25 513.45 57.9 513.9 57.9 L514.05 57.9 M503.5 83.2 Q502.6 85.15 500.1 85.05 L497.9 84.45 498.25 86.05 499.6 87.7 494.9 87.7 496.15 86.05 496.65 84.45 494.35 85.05 Q491.9 85.15 491 83.2 490.2 81.6 491.55 79.85 L494.65 76.65 497.2 73.75 499.95 76.65 502.85 79.85 Q504.2 81.6 503.5 83.2 M508.65 95.95 Q510.1 94.7 511.95 96.55 L512.4 96.3 Q512.55 95.95 511.6 94.9 510.7 93.9 511.15 92.4 511.5 91.1 512.9 90.65 L513.9 90.45 514.05 90.45 515.2 90.65 Q516.45 91.1 516.8 92.4 517.25 93.9 516.35 94.9 515.5 95.95 515.65 96.3 515.75 96.65 516.1 96.55 L517.25 95.7 Q518.4 95.15 519.3 95.95 520.25 96.85 520.35 98.35 L520.1 100.1 Q519.3 102.05 517.6 102.05 516.45 102.15 515.85 101.1 L515.4 100.1 Q515.3 99.95 515.05 100.1 L514.85 100.3 Q514.7 101 514.95 101.6 L516.1 104 511.85 104 513.1 101.6 Q513.35 101 513.1 100.3 512.9 99.75 512.65 100.1 512.2 102.25 510.35 102.05 508.75 102.05 507.8 100.1 L507.6 98.35 Q507.7 96.85 508.65 95.95 M523.95 79.85 L527.05 76.65 529.6 73.75 532.35 76.65 535.35 79.85 Q536.7 81.6 535.9 83.2 535 85.15 532.6 85.05 L530.3 84.45 530.75 86.05 532 87.7 527.3 87.7 528.55 86.05 529 84.45 526.85 85.05 Q524.3 85.15 523.4 83.2 522.6 81.6 523.95 79.85 M543.55 59.85 Q544 58.6 545.25 58.25 545.85 57.9 546.3 57.9 L546.55 57.9 547.7 58.25 Q548.85 58.6 549.3 59.85 549.75 61.35 548.85 62.4 547.9 63.45 548 63.75 548.25 64.25 548.5 64.1 L549.65 63.3 Q550.8 62.6 551.7 63.55 552.75 64.35 552.75 65.85 552.85 67 552.5 67.7 551.7 69.5 550.1 69.65 548.95 69.65 548.25 68.7 L547.8 67.7 Q547.7 67.55 547.55 67.7 L547.35 67.9 Q547.1 68.5 547.35 69.15 L548.5 71.45 544.25 71.45 545.5 69.15 Q545.75 68.6 545.6 67.9 545.4 67.2 545.05 67.7 544.6 69.75 542.75 69.65 541.25 69.5 540.3 67.7 540 67 540.1 65.85 540.1 64.35 541.15 63.55 542.6 62.15 544.35 64.1 L544.8 63.75 Q544.9 63.45 544.1 62.4 543.1 61.35 543.55 59.85 M546.3 90.45 L546.55 90.45 547.7 90.65 Q548.85 91.1 549.3 92.4 549.75 93.9 548.85 94.9 547.9 95.95 548 96.3 548.25 96.65 548.5 96.55 L549.65 95.7 Q550.8 95.15 551.7 95.95 552.75 96.85 552.75 98.35 552.85 99.5 552.5 100.1 551.7 102.05 550.1 102.05 548.95 102.15 548.25 101.1 L547.8 100.1 Q547.7 99.95 547.55 100.1 L547.35 100.3 Q547.1 101 547.35 101.6 L548.5 104 544.25 104 545.5 101.6 Q545.75 101 545.6 100.3 545.4 99.75 545.05 100.1 544.6 102.25 542.75 102.05 541.25 102.05 540.3 100.1 540 99.5 540.1 98.35 540.1 96.85 541.15 95.95 542.6 94.7 544.35 96.55 544.6 96.65 544.8 96.3 544.9 95.95 544.1 94.9 543.1 93.9 543.55 92.4 544 91.1 545.25 90.65 L546.3 90.45 M568.4 83.2 Q567.4 85.15 564.95 85.05 L562.65 84.45 563.15 86.05 564.4 87.7 559.7 87.7 561.05 86.05 561.5 84.45 559.2 85.05 Q556.8 85.15 555.9 83.2 555.1 81.6 556.45 79.85 L559.45 76.65 562.1 73.75 564.75 76.65 567.7 79.85 Q569.1 81.6 568.4 83.2 M562.1 106.3 L564.75 109.05 567.7 112.25 Q569.1 114.1 568.4 115.7 567.4 117.65 564.95 117.55 L562.65 116.85 563.15 118.5 564.4 120.2 559.7 120.2 561.05 118.5 561.5 116.85 Q560.5 117.45 559.2 117.55 556.8 117.65 555.9 115.7 555.1 114.1 556.45 112.25 L559.45 109.05 562.1 106.3 M532.6 117.55 L530.3 116.85 530.75 118.5 Q531.1 119.3 532 120.2 L527.3 120.2 528.55 118.5 529 116.85 Q528 117.45 526.85 117.55 524.3 117.65 523.4 115.7 522.6 114.1 523.95 112.25 L527.05 109.05 529.6 106.3 532.35 109.05 535.35 112.25 Q536.7 114.1 535.9 115.7 535 117.65 532.6 117.55 M549.3 124.8 Q549.75 126.4 548.85 127.45 547.9 128.35 548 128.7 548.25 129.15 548.5 129.05 L549.65 128.25 Q550.8 127.65 551.7 128.5 552.75 129.3 552.75 130.75 552.85 132.05 552.5 132.6 551.7 134.55 550.1 134.55 548.95 134.55 548.25 133.65 L547.8 132.6 547.55 132.6 547.35 132.85 Q547.1 133.4 547.35 134.1 L548.5 136.5 544.25 136.5 545.5 134.1 Q545.75 133.55 545.6 132.85 545.4 132.25 545.05 132.6 544.6 134.7 542.75 134.55 541.25 134.55 540.3 132.6 540 131.9 540.1 130.75 540.1 129.3 541.15 128.5 542.6 127.1 544.35 129.05 L544.8 128.7 Q544.9 128.35 544.1 127.45 543.1 126.4 543.55 124.8 544 123.55 545.25 123.2 L546.3 122.95 546.55 122.95 547.7 123.2 Q548.85 123.55 549.3 124.8 M562.1 138.7 L564.75 141.6 567.7 144.8 Q569.1 146.65 568.4 148.15 567.4 150.1 564.95 149.95 L562.65 149.4 563.15 151 Q563.6 151.8 564.4 152.6 L559.7 152.6 561.05 151 561.5 149.4 559.2 149.95 Q556.8 150.1 555.9 148.15 555.1 146.65 556.45 144.8 L559.45 141.6 562.1 138.7 M497.2 106.3 L499.95 109.05 502.85 112.25 Q504.2 114.1 503.5 115.7 502.6 117.65 500.1 117.55 L497.9 116.85 498.25 118.5 499.6 120.2 494.9 120.2 496.15 118.5 496.65 116.85 Q495.6 117.45 494.35 117.55 491.9 117.65 491 115.7 490.2 114.1 491.55 112.25 L494.65 109.05 497.2 106.3 M508.65 128.5 Q510.1 127.1 511.95 129.05 L512.4 128.7 Q512.55 128.35 511.6 127.45 510.7 126.4 511.15 124.8 511.5 123.55 512.9 123.2 L513.9 122.95 514.05 122.95 515.2 123.2 Q516.45 123.55 516.8 124.8 517.25 126.4 516.35 127.45 515.5 128.35 515.65 128.7 515.75 129.15 516.1 129.05 L517.25 128.25 Q518.4 127.65 519.3 128.5 520.25 129.3 520.35 130.75 L520.1 132.6 Q519.3 134.55 517.6 134.55 516.45 134.55 515.85 133.65 L515.4 132.6 515.05 132.6 514.85 132.85 Q514.7 133.4 514.95 134.1 L516.1 136.5 511.85 136.5 513.1 134.1 Q513.35 133.55 513.1 132.85 512.9 132.25 512.65 132.6 512.2 134.7 510.35 134.55 508.75 134.55 507.8 132.6 L507.6 130.75 Q507.7 129.3 508.65 128.5 M499.95 141.6 L502.85 144.8 Q504.2 146.65 503.5 148.15 502.6 150.1 500.1 149.95 L497.9 149.4 498.25 151 499.6 152.6 494.9 152.6 Q495.8 151.8 496.15 151 L496.65 149.4 494.35 149.95 Q491.9 150.1 491 148.15 490.2 146.65 491.55 144.8 L494.65 141.6 497.2 138.7 499.95 141.6 M527.05 141.6 L529.6 138.7 532.35 141.6 535.35 144.8 Q536.7 146.65 535.9 148.15 535 150.1 532.6 149.95 L530.3 149.4 530.75 151 Q531.1 151.8 532 152.6 L527.3 152.6 528.55 151 529 149.4 526.85 149.95 Q524.3 150.1 523.4 148.15 522.6 146.65 523.95 144.8 L527.05 141.6 M514.05 155.35 L515.2 155.6 Q516.45 156.05 516.8 157.3 517.25 158.8 516.35 159.85 515.5 160.9 515.65 161.25 L516.1 161.55 517.25 160.75 Q518.4 160.1 519.3 161 520.25 161.8 520.35 163.3 L520.1 165 Q519.3 167 517.6 167.1 516.45 167.1 515.85 166.15 L515.4 165 515.05 165 514.85 165.35 Q514.7 165.95 514.95 166.65 L516.1 168.95 511.85 168.95 513.1 166.65 Q513.35 166.05 513.1 165.35 512.9 164.7 512.65 165 512.2 167.2 510.35 167.1 508.75 167 507.8 165 L507.6 163.3 Q507.7 161.8 508.65 161 510.1 159.6 511.95 161.55 L512.4 161.25 Q512.55 160.9 511.6 159.85 510.7 158.8 511.15 157.3 511.5 156.05 512.9 155.6 L513.9 155.35 514.05 155.35 M543.55 157.3 Q544 156.05 545.25 155.6 L546.3 155.35 546.55 155.35 547.7 155.6 Q548.85 156.05 549.3 157.3 549.75 158.8 548.85 159.85 547.9 160.9 548 161.25 L548.5 161.55 549.65 160.75 Q550.8 160.1 551.7 161 552.75 161.8 552.75 163.3 552.85 164.45 552.5 165 551.7 167 550.1 167.1 548.95 167.1 548.25 166.15 L547.8 165 547.55 165 Q547.35 165 547.35 165.35 547.1 165.95 547.35 166.65 L548.5 168.95 544.25 168.95 545.5 166.65 Q545.75 166.05 545.6 165.35 545.4 164.7 545.05 165 544.6 167.2 542.75 167.1 541.25 167 540.3 165 540 164.45 540.1 163.3 540.1 161.8 541.15 161 542.6 159.6 544.35 161.55 L544.8 161.25 Q544.9 160.9 544.1 159.85 543.1 158.8 543.55 157.3"/>
    <path stroke="none" fill="#000000" fill-opacity="0.2" d="M670.85 85.85 L675.45 91.05 Q677.6 94 676.5 96.55 675.05 99.65 671.1 99.25 L667.6 98.35 668.15 100.9 Q668.85 102.2 670.3 103.45 L662.8 103.45 Q664.25 102.2 664.8 100.9 L665.6 98.35 Q663.9 99.1 661.95 99.25 658.05 99.65 656.6 96.55 655.35 94 657.5 91.05 L662.4 85.85 666.45 81.35 670.85 85.85 M695.35 115.4 Q697.2 114.3 698.65 115.8 700.15 117.1 700.3 119.5 700.3 121.3 699.9 122.4 698.65 125.3 695.9 125.5 694.1 125.5 693.15 124 L692.4 122.4 Q692.25 122.2 691.85 122.4 L691.55 122.75 Q691.3 123.7 691.7 124.75 L693.55 128.4 686.8 128.4 688.75 124.75 Q689.15 123.85 688.75 122.75 688.45 121.6 688.05 122.4 687.35 125.7 684.4 125.5 681.85 125.3 680.35 122.4 680 121.3 680 119.5 680.15 117.1 681.7 115.8 684 113.6 686.95 116.7 L687.65 116.15 Q687.9 115.65 686.4 114 684.95 112.3 685.65 109.95 686.2 107.95 688.45 107.4 689.3 106.85 690.05 106.85 L690.3 106.85 692.1 107.4 Q694.1 107.95 694.65 109.95 695.35 112.3 693.95 114 692.6 115.65 692.8 116.15 693 116.95 693.55 116.7 L695.35 115.4"/>
    <path stroke="none" fill="#000000" fill-opacity="0.10196078431372549" d="M691 82.95 Q692.4 80.95 694.95 80.95 697.6 80.95 699.2 82.95 700.7 84.6 700.7 86.8 700.7 88.4 699.6 90.25 698.45 92.3 697.05 93.75 691.15 99.8 689.5 103.05 687.9 99.8 681.85 93.75 680.55 92.3 679.45 90.25 678.35 88.4 678.35 86.8 678.35 84.6 679.85 82.95 681.3 80.95 684 80.95 686.6 80.95 688.05 82.95 689.3 84.45 689.5 86.45 689.5 84.45 691 82.95 M666.45 106.25 L675.05 117.25 666.45 128.4 658.05 117.25 666.45 106.25"/>
    <path stroke="none" fill="#000000" fill-opacity="0.10196078431372549" d="M252.05 442.25 Q252.95 443.3 252.95 444.7 252.95 445.7 252.3 446.85 L250.8 449.05 Q247 452.85 245.95 454.9 244.9 452.85 241.25 449.05 240.3 448.15 239.65 446.85 238.95 445.7 238.95 444.7 238.95 443.3 239.85 442.25 240.9 441 242.5 441 244.1 441 245.15 442.25 245.95 443.2 245.95 444.45 246.05 443.2 246.85 442.25 247.8 441 249.4 441 251 441 252.05 442.25 M267.4 464.45 L262.1 471.45 256.8 464.45 262.1 457.55 267.4 464.45 M252.3 479.4 L250.8 481.55 Q247 485.35 245.95 487.45 244.9 485.35 241.25 481.55 240.3 480.65 239.65 479.4 238.95 478.1 238.95 477.1 238.95 475.8 239.85 474.8 240.9 473.5 242.5 473.5 244.1 473.5 245.15 474.65 245.95 475.7 245.95 476.95 246.05 475.7 246.85 474.65 247.8 473.5 249.4 473.5 251 473.5 252.05 474.8 252.95 475.8 252.95 477.1 252.95 478.1 252.3 479.4 M217 441 Q218.65 441 219.65 442.25 220.6 443.3 220.6 444.7 220.6 445.7 219.9 446.85 219.2 448.15 218.3 449.05 214.6 452.85 213.55 454.9 212.55 452.85 208.75 449.05 207.95 448.15 207.25 446.85 206.55 445.7 206.55 444.7 206.55 443.3 207.5 442.25 208.4 441 210.1 441 211.75 441 212.65 442.25 213.45 443.2 213.55 444.45 213.55 443.2 214.5 442.25 215.4 441 217 441 M197.2 457.55 L202.6 464.45 197.2 471.45 191.9 464.45 197.2 457.55 M207.5 474.8 Q208.4 473.5 210.1 473.5 211.75 473.5 212.65 474.65 213.45 475.7 213.55 476.95 213.55 475.7 214.5 474.65 215.4 473.5 217 473.5 218.65 473.5 219.65 474.8 220.6 475.8 220.6 477.1 220.6 478.1 219.9 479.4 L218.3 481.55 Q214.6 485.35 213.55 487.45 212.55 485.35 208.75 481.55 L207.25 479.4 Q206.55 478.1 206.55 477.1 206.55 475.8 207.5 474.8 M235 464.45 L229.7 471.45 224.3 464.45 229.7 457.55 235 464.45 M229.7 503.85 L224.3 496.95 229.7 490.05 235 496.95 229.7 503.85 M238.95 509.6 Q238.95 508.25 239.85 507.2 240.9 506.05 242.5 506.05 244.1 506.05 245.15 507.2 245.95 508.1 245.95 509.5 246.05 508.1 246.85 507.2 247.8 506.05 249.4 506.05 251 506.05 252.05 507.2 252.95 508.25 252.95 509.6 252.95 510.65 252.3 511.9 L250.8 513.95 Q247 517.9 245.95 519.95 244.9 517.9 241.25 513.95 240.3 513.05 239.65 511.9 238.95 510.65 238.95 509.6 M214.5 507.2 Q215.4 506.05 217 506.05 218.65 506.05 219.65 507.2 220.6 508.25 220.6 509.6 220.6 510.65 219.9 511.9 L218.3 513.95 Q214.6 517.9 213.55 519.95 212.55 517.9 208.75 513.95 L207.25 511.9 Q206.55 510.65 206.55 509.6 206.55 508.25 207.5 507.2 208.4 506.05 210.1 506.05 211.75 506.05 212.65 507.2 213.45 508.1 213.55 509.5 213.55 508.1 214.5 507.2 M212.65 539.7 Q213.45 540.65 213.55 541.9 213.55 540.65 214.5 539.7 215.4 538.45 217 538.45 218.65 538.45 219.65 539.7 220.6 540.75 220.6 542.15 220.6 543.05 219.9 544.3 219.2 545.6 218.3 546.5 214.6 550.3 213.55 552.35 212.55 550.3 208.75 546.5 207.95 545.6 207.25 544.3 206.55 543.05 206.55 542.15 206.55 540.75 207.5 539.7 208.4 538.45 210.1 538.45 211.75 538.45 212.65 539.7 M235 529.5 L229.7 536.4 224.3 529.5 229.7 522.6 235 529.5 M239.85 539.7 Q240.9 538.45 242.5 538.45 244.1 538.45 245.15 539.7 245.95 540.65 245.95 541.9 246.05 540.65 246.85 539.7 247.8 538.45 249.4 538.45 251 538.45 252.05 539.7 252.95 540.75 252.95 542.15 252.95 543.05 252.3 544.3 L250.8 546.5 Q247 550.3 245.95 552.35 244.9 550.3 241.25 546.5 240.3 545.6 239.65 544.3 238.95 543.05 238.95 542.15 238.95 540.75 239.85 539.7 M191.9 496.95 L197.2 490.05 202.6 496.95 197.2 503.85 191.9 496.95 M197.2 522.6 L202.6 529.5 197.2 536.4 191.9 529.5 197.2 522.6 M197.2 555 L202.6 561.9 197.2 568.9 191.9 561.9 197.2 555 M235 561.9 L229.7 568.9 224.3 561.9 229.7 555 235 561.9 M262.1 503.85 L256.8 496.95 262.1 490.05 267.4 496.95 262.1 503.85 M267.4 529.5 L262.1 536.4 256.8 529.5 262.1 522.6 267.4 529.5 M267.4 561.9 L262.1 568.9 256.8 561.9 262.1 555 267.4 561.9"/>
    <path stroke="none" fill="#000000" fill-opacity="0.2" d="M267.7 447.35 Q269.1 449.2 268.4 450.8 267.4 452.75 264.95 452.5 L262.65 451.95 263.15 453.55 Q263.6 454.35 264.4 455.15 L259.7 455.15 261.05 453.55 261.5 451.95 259.2 452.5 Q256.8 452.75 255.9 450.8 255.1 449.2 256.45 447.35 L259.45 444.1 262.1 441.25 264.75 444.1 267.7 447.35 M252.75 465.85 Q252.85 467 252.5 467.7 251.7 469.5 250.1 469.65 248.95 469.65 248.25 468.7 L247.8 467.7 Q247.7 467.55 247.55 467.7 L247.35 467.9 Q247.1 468.5 247.35 469.15 L248.5 471.45 244.25 471.45 245.5 469.15 Q245.75 468.6 245.6 467.9 245.4 467.2 245.05 467.7 244.6 469.75 242.75 469.65 241.25 469.5 240.3 467.7 240 467 240.1 465.85 240.1 464.35 241.15 463.55 242.6 462.15 244.35 464.1 L244.8 463.75 Q244.9 463.45 244.1 462.4 243.1 461.35 243.55 459.85 244 458.6 245.25 458.25 245.85 457.9 246.3 457.9 L246.55 457.9 247.7 458.25 Q248.85 458.6 249.3 459.85 249.75 461.35 248.85 462.4 247.9 463.45 248 463.75 L248.5 464.1 249.65 463.3 Q250.8 462.6 251.7 463.55 252.75 464.35 252.75 465.85 M267.7 479.85 Q269.1 481.6 268.4 483.2 267.4 485.15 264.95 485.05 L262.65 484.45 263.15 486.05 264.4 487.7 259.7 487.7 261.05 486.05 261.5 484.45 259.2 485.05 Q256.8 485.15 255.9 483.2 255.1 481.6 256.45 479.85 L259.45 476.65 262.1 473.75 264.75 476.65 267.7 479.85 M202.85 447.35 Q204.2 449.2 203.5 450.8 202.6 452.75 200.1 452.5 L197.9 451.95 198.25 453.55 199.6 455.15 194.9 455.15 Q195.8 454.35 196.15 453.55 L196.65 451.95 194.35 452.5 Q191.9 452.75 191 450.8 190.2 449.2 191.55 447.35 L194.65 444.1 197.2 441.25 199.95 444.1 202.85 447.35 M207.8 467.7 L207.6 465.85 Q207.7 464.35 208.65 463.55 210.1 462.15 211.95 464.1 L212.4 463.75 Q212.55 463.45 211.6 462.4 210.7 461.35 211.15 459.85 211.5 458.6 212.9 458.25 213.45 457.9 213.9 457.9 L214.05 457.9 215.2 458.25 Q216.45 458.6 216.8 459.85 217.25 461.35 216.35 462.4 215.5 463.45 215.65 463.75 215.75 464.25 216.1 464.1 L217.25 463.3 Q218.4 462.6 219.3 463.55 220.25 464.35 220.35 465.85 L220.1 467.7 Q219.3 469.5 217.6 469.65 216.45 469.65 215.85 468.7 L215.4 467.7 Q215.3 467.55 215.05 467.7 L214.85 467.9 Q214.7 468.5 214.95 469.15 L216.1 471.45 211.85 471.45 213.1 469.15 Q213.35 468.6 213.1 467.9 212.9 467.2 212.65 467.7 212.2 469.75 210.35 469.65 208.75 469.5 207.8 467.7 M202.85 479.85 Q204.2 481.6 203.5 483.2 202.6 485.15 200.1 485.05 L197.9 484.45 198.25 486.05 199.6 487.7 194.9 487.7 196.15 486.05 196.65 484.45 194.35 485.05 Q191.9 485.15 191 483.2 190.2 481.6 191.55 479.85 L194.65 476.65 197.2 473.75 199.95 476.65 202.85 479.85 M235.35 447.35 Q236.7 449.2 235.9 450.8 235 452.75 232.6 452.5 L230.3 451.95 230.75 453.55 Q231.1 454.35 232 455.15 L227.3 455.15 Q228.2 454.35 228.55 453.55 L229 451.95 226.85 452.5 Q224.3 452.75 223.4 450.8 222.6 449.2 223.95 447.35 L227.05 444.1 229.6 441.25 232.35 444.1 235.35 447.35 M227.05 476.65 L229.6 473.75 232.35 476.65 235.35 479.85 Q236.7 481.6 235.9 483.2 235 485.15 232.6 485.05 L230.3 484.45 230.75 486.05 Q231.1 486.75 232 487.7 L227.3 487.7 228.55 486.05 229 484.45 226.85 485.05 Q224.3 485.15 223.4 483.2 222.6 481.6 223.95 479.85 L227.05 476.65 M246.55 490.45 L247.7 490.65 Q248.85 491.1 249.3 492.4 249.75 493.9 248.85 494.9 247.9 495.95 248 496.3 248.25 496.65 248.5 496.55 L249.65 495.7 Q250.8 495.15 251.7 495.95 252.75 496.85 252.75 498.35 252.85 499.5 252.5 500.1 251.7 502.05 250.1 502.05 248.95 502.15 248.25 501.1 L247.8 500.1 Q247.7 499.95 247.55 500.1 L247.35 500.3 Q247.1 501 247.35 501.6 L248.5 504 244.25 504 245.5 501.6 Q245.75 501 245.6 500.3 245.4 499.75 245.05 500.1 244.6 502.25 242.75 502.05 241.25 502.05 240.3 500.1 240 499.5 240.1 498.35 240.1 496.85 241.15 495.95 242.6 494.7 244.35 496.55 L244.8 496.3 Q244.9 495.95 244.1 494.9 243.1 493.9 243.55 492.4 244 491.1 245.25 490.65 L246.3 490.45 246.55 490.45 M214.05 490.45 L215.2 490.65 Q216.45 491.1 216.8 492.4 217.25 493.9 216.35 494.9 215.5 495.95 215.65 496.3 215.75 496.65 216.1 496.55 L217.25 495.7 Q218.4 495.15 219.3 495.95 220.25 496.85 220.35 498.35 L220.1 500.1 Q219.3 502.05 217.6 502.05 216.45 502.15 215.85 501.1 L215.4 500.1 Q215.3 499.95 215.05 500.1 L214.85 500.3 Q214.7 501 214.95 501.6 L216.1 504 211.85 504 213.1 501.6 Q213.35 501 213.1 500.3 212.9 499.75 212.65 500.1 212.2 502.25 210.35 502.05 208.75 502.05 207.8 500.1 L207.6 498.35 Q207.7 496.85 208.65 495.95 210.1 494.7 211.95 496.55 L212.4 496.3 Q212.55 495.95 211.6 494.9 210.7 493.9 211.15 492.4 211.5 491.1 212.9 490.65 L213.9 490.45 214.05 490.45 M232.6 517.55 L230.3 516.85 230.75 518.5 Q231.1 519.3 232 520.2 L227.3 520.2 228.55 518.5 229 516.85 Q228 517.45 226.85 517.55 224.3 517.65 223.4 515.7 222.6 514.1 223.95 512.25 L227.05 509.05 229.6 506.3 232.35 509.05 235.35 512.25 Q236.7 514.1 235.9 515.7 235 517.65 232.6 517.55 M214.05 522.95 L215.2 523.2 Q216.45 523.55 216.8 524.8 217.25 526.4 216.35 527.45 215.5 528.35 215.65 528.7 215.75 529.15 216.1 529.05 L217.25 528.25 Q218.4 527.65 219.3 528.5 220.25 529.3 220.35 530.75 L220.1 532.6 Q219.3 534.55 217.6 534.55 216.45 534.55 215.85 533.65 L215.4 532.6 215.05 532.6 214.85 532.85 Q214.7 533.4 214.95 534.1 L216.1 536.5 211.85 536.5 213.1 534.1 Q213.35 533.55 213.1 532.85 212.9 532.25 212.65 532.6 212.2 534.7 210.35 534.55 208.75 534.55 207.8 532.6 L207.6 530.75 Q207.7 529.3 208.65 528.5 210.1 527.1 211.95 529.05 L212.4 528.7 Q212.55 528.35 211.6 527.45 210.7 526.4 211.15 524.8 211.5 523.55 212.9 523.2 L213.9 522.95 214.05 522.95 M245.25 523.2 Q245.85 522.85 246.3 522.95 L246.55 522.95 247.7 523.2 Q248.85 523.55 249.3 524.8 249.75 526.4 248.85 527.45 247.9 528.35 248 528.7 L248.5 529.05 249.65 528.25 Q250.8 527.65 251.7 528.5 252.75 529.3 252.75 530.75 252.85 532.05 252.5 532.6 251.7 534.55 250.1 534.55 248.95 534.55 248.25 533.65 L247.8 532.6 247.55 532.6 247.35 532.85 Q247.1 533.4 247.35 534.1 L248.5 536.5 244.25 536.5 245.5 534.1 Q245.75 533.55 245.6 532.85 245.4 532.25 245.05 532.6 244.6 534.7 242.75 534.55 241.25 534.55 240.3 532.6 240 531.9 240.1 530.75 240.1 529.3 241.15 528.5 242.6 527.1 244.35 529.05 L244.8 528.7 Q244.9 528.35 244.1 527.45 243.1 526.4 243.55 524.8 244 523.55 245.25 523.2 M232.35 541.6 L235.35 544.8 Q236.7 546.65 235.9 548.15 235 550.1 232.6 549.95 L230.3 549.4 230.75 551 Q231.1 551.8 232 552.6 L227.3 552.6 Q228.2 551.8 228.55 551 L229 549.4 226.85 549.95 Q224.3 550.1 223.4 548.15 222.6 546.65 223.95 544.8 L227.05 541.6 229.6 538.7 232.35 541.6 M197.2 506.3 L199.95 509.05 202.85 512.25 Q204.2 514.1 203.5 515.7 202.6 517.65 200.1 517.55 L197.9 516.85 198.25 518.5 199.6 520.2 194.9 520.2 196.15 518.5 196.65 516.85 Q195.6 517.45 194.35 517.55 191.9 517.65 191 515.7 190.2 514.1 191.55 512.25 L194.65 509.05 197.2 506.3 M197.2 538.7 L199.95 541.6 202.85 544.8 Q204.2 546.65 203.5 548.15 202.6 550.1 200.1 549.95 L197.9 549.4 198.25 551 199.6 552.6 194.9 552.6 Q195.8 551.8 196.15 551 L196.65 549.4 194.35 549.95 Q191.9 550.1 191 548.15 190.2 546.65 191.55 544.8 L194.65 541.6 197.2 538.7 M207.8 565 L207.6 563.3 Q207.7 561.8 208.65 561 210.1 559.6 211.95 561.55 L212.4 561.25 Q212.55 560.9 211.6 559.85 210.7 558.8 211.15 557.3 211.5 556.05 212.9 555.6 L213.9 555.35 214.05 555.35 215.2 555.6 Q216.45 556.05 216.8 557.3 217.25 558.8 216.35 559.85 215.5 560.9 215.65 561.25 L216.1 561.55 217.25 560.75 Q218.4 560.1 219.3 561 220.25 561.8 220.35 563.3 L220.1 565 Q219.3 567 217.6 567.1 216.45 567.1 215.85 566.15 L215.4 565 215.05 565 214.85 565.35 Q214.7 565.95 214.95 566.65 L216.1 568.95 211.85 568.95 213.1 566.65 Q213.35 566.05 213.1 565.35 212.9 564.7 212.65 565 212.2 567.2 210.35 567.1 208.75 567 207.8 565 M246.55 555.35 L247.7 555.6 Q248.85 556.05 249.3 557.3 249.75 558.8 248.85 559.85 247.9 560.9 248 561.25 L248.5 561.55 249.65 560.75 Q250.8 560.1 251.7 561 252.75 561.8 252.75 563.3 252.85 564.45 252.5 565 251.7 567 250.1 567.1 248.95 567.1 248.25 566.15 L247.8 565 247.55 565 Q247.35 565 247.35 565.35 247.1 565.95 247.35 566.65 L248.5 568.95 244.25 568.95 245.5 566.65 Q245.75 566.05 245.6 565.35 245.4 564.7 245.05 565 244.6 567.2 242.75 567.1 241.25 567 240.3 565 240 564.45 240.1 563.3 240.1 561.8 241.15 561 242.6 559.6 244.35 561.55 L244.8 561.25 Q244.9 560.9 244.1 559.85 243.1 558.8 243.55 557.3 244 556.05 245.25 555.6 L246.3 555.35 246.55 555.35 M256.45 512.25 L259.45 509.05 262.1 506.3 264.75 509.05 267.7 512.25 Q269.1 514.1 268.4 515.7 267.4 517.65 264.95 517.55 L262.65 516.85 263.15 518.5 264.4 520.2 259.7 520.2 261.05 518.5 261.5 516.85 Q260.5 517.45 259.2 517.55 256.8 517.65 255.9 515.7 255.1 514.1 256.45 512.25 M262.1 538.7 L264.75 541.6 267.7 544.8 Q269.1 546.65 268.4 548.15 267.4 550.1 264.95 549.95 L262.65 549.4 263.15 551 Q263.6 551.8 264.4 552.6 L259.7 552.6 261.05 551 261.5 549.4 259.2 549.95 Q256.8 550.1 255.9 548.15 255.1 546.65 256.45 544.8 L259.45 541.6 262.1 538.7"/>
    <path stroke="none" fill="#000000" fill-opacity="0.10196078431372549" d="M552.05 442.25 Q552.95 443.3 552.95 444.7 552.95 445.7 552.3 446.85 L550.8 449.05 Q547 452.85 545.95 454.9 544.9 452.85 541.25 449.05 540.3 448.15 539.65 446.85 538.95 445.7 538.95 444.7 538.95 443.3 539.85 442.25 540.9 441 542.5 441 544.1 441 545.15 442.25 545.95 443.2 545.95 444.45 546.05 443.2 546.85 442.25 547.8 441 549.4 441 551 441 552.05 442.25 M512.65 442.25 Q513.45 443.2 513.55 444.45 513.55 443.2 514.5 442.25 515.4 441 517 441 518.65 441 519.65 442.25 520.6 443.3 520.6 444.7 520.6 445.7 519.9 446.85 519.2 448.15 518.3 449.05 514.6 452.85 513.55 454.9 512.55 452.85 508.75 449.05 507.95 448.15 507.25 446.85 506.55 445.7 506.55 444.7 506.55 443.3 507.5 442.25 508.4 441 510.1 441 511.75 441 512.65 442.25 M529.7 457.55 L535 464.45 529.7 471.45 524.3 464.45 529.7 457.55 M502.6 464.45 L497.2 471.45 491.9 464.45 497.2 457.55 502.6 464.45 M507.5 474.8 Q508.4 473.5 510.1 473.5 511.75 473.5 512.65 474.65 513.45 475.7 513.55 476.95 513.55 475.7 514.5 474.65 515.4 473.5 517 473.5 518.65 473.5 519.65 474.8 520.6 475.8 520.6 477.1 520.6 478.1 519.9 479.4 L518.3 481.55 Q514.6 485.35 513.55 487.45 512.55 485.35 508.75 481.55 L507.25 479.4 Q506.55 478.1 506.55 477.1 506.55 475.8 507.5 474.8 M562.1 457.55 L567.4 464.45 562.1 471.45 556.8 464.45 562.1 457.55 M552.05 474.8 Q552.95 475.8 552.95 477.1 552.95 478.1 552.3 479.4 L550.8 481.55 Q547 485.35 545.95 487.45 544.9 485.35 541.25 481.55 540.3 480.65 539.65 479.4 538.95 478.1 538.95 477.1 538.95 475.8 539.85 474.8 540.9 473.5 542.5 473.5 544.1 473.5 545.15 474.65 545.95 475.7 545.95 476.95 546.05 475.7 546.85 474.65 547.8 473.5 549.4 473.5 551 473.5 552.05 474.8 M556.8 496.95 L562.1 490.05 567.4 496.95 562.1 503.85 556.8 496.95 M539.85 507.2 Q540.9 506.05 542.5 506.05 544.1 506.05 545.15 507.2 545.95 508.1 545.95 509.5 546.05 508.1 546.85 507.2 547.8 506.05 549.4 506.05 551 506.05 552.05 507.2 552.95 508.25 552.95 509.6 552.95 510.65 552.3 511.9 L550.8 513.95 Q547 517.9 545.95 519.95 544.9 517.9 541.25 513.95 540.3 513.05 539.65 511.9 538.95 510.65 538.95 509.6 538.95 508.25 539.85 507.2 M539.85 539.7 Q540.9 538.45 542.5 538.45 544.1 538.45 545.15 539.7 545.95 540.65 545.95 541.9 546.05 540.65 546.85 539.7 547.8 538.45 549.4 538.45 551 538.45 552.05 539.7 552.95 540.75 552.95 542.15 552.95 543.05 552.3 544.3 L550.8 546.5 Q547 550.3 545.95 552.35 544.9 550.3 541.25 546.5 540.3 545.6 539.65 544.3 538.95 543.05 538.95 542.15 538.95 540.75 539.85 539.7 M562.1 522.6 L567.4 529.5 562.1 536.4 556.8 529.5 562.1 522.6 M524.3 496.95 L529.7 490.05 535 496.95 529.7 503.85 524.3 496.95 M514.5 507.2 Q515.4 506.05 517 506.05 518.65 506.05 519.65 507.2 520.6 508.25 520.6 509.6 520.6 510.65 519.9 511.9 L518.3 513.95 Q514.6 517.9 513.55 519.95 512.55 517.9 508.75 513.95 L507.25 511.9 Q506.55 510.65 506.55 509.6 506.55 508.25 507.5 507.2 508.4 506.05 510.1 506.05 511.75 506.05 512.65 507.2 513.45 508.1 513.55 509.5 513.55 508.1 514.5 507.2 M497.2 503.85 L491.9 496.95 497.2 490.05 502.6 496.95 497.2 503.85 M510.1 538.45 Q511.75 538.45 512.65 539.7 513.45 540.65 513.55 541.9 513.55 540.65 514.5 539.7 515.4 538.45 517 538.45 518.65 538.45 519.65 539.7 520.6 540.75 520.6 542.15 520.6 543.05 519.9 544.3 519.2 545.6 518.3 546.5 514.6 550.3 513.55 552.35 512.55 550.3 508.75 546.5 507.95 545.6 507.25 544.3 506.55 543.05 506.55 542.15 506.55 540.75 507.5 539.7 508.4 538.45 510.1 538.45 M502.6 529.5 L497.2 536.4 491.9 529.5 497.2 522.6 502.6 529.5 M529.7 522.6 L535 529.5 529.7 536.4 524.3 529.5 529.7 522.6 M529.7 555 L535 561.9 529.7 568.9 524.3 561.9 529.7 555 M502.6 561.9 L497.2 568.9 491.9 561.9 497.2 555 502.6 561.9 M562.1 555 L567.4 561.9 562.1 568.9 556.8 561.9 562.1 555"/>
    <path stroke="none" fill="#000000" fill-opacity="0.2" d="M527.05 444.1 L529.6 441.25 532.35 444.1 535.35 447.35 Q536.7 449.2 535.9 450.8 535 452.75 532.6 452.5 L530.3 451.95 530.75 453.55 Q531.1 454.35 532 455.15 L527.3 455.15 528.55 453.55 529 451.95 526.85 452.5 Q524.3 452.75 523.4 450.8 522.6 449.2 523.95 447.35 L527.05 444.1 M514.05 457.9 L515.2 458.25 Q516.45 458.6 516.8 459.85 517.25 461.35 516.35 462.4 515.5 463.45 515.65 463.75 515.75 464.25 516.1 464.1 L517.25 463.3 Q518.4 462.6 519.3 463.55 520.25 464.35 520.35 465.85 L520.1 467.7 Q519.3 469.5 517.6 469.65 516.45 469.65 515.85 468.7 L515.4 467.7 Q515.3 467.55 515.05 467.7 L514.85 467.9 Q514.7 468.5 514.95 469.15 L516.1 471.45 511.85 471.45 513.1 469.15 Q513.35 468.6 513.1 467.9 512.9 467.2 512.65 467.7 512.2 469.75 510.35 469.65 508.75 469.5 507.8 467.7 L507.6 465.85 Q507.7 464.35 508.65 463.55 510.1 462.15 511.95 464.1 L512.4 463.75 Q512.55 463.45 511.6 462.4 510.7 461.35 511.15 459.85 511.5 458.6 512.9 458.25 513.45 457.9 513.9 457.9 L514.05 457.9 M503.5 450.8 Q502.6 452.75 500.1 452.5 L497.9 451.95 498.25 453.55 499.6 455.15 494.9 455.15 Q495.8 454.35 496.15 453.55 L496.65 451.95 494.35 452.5 Q491.9 452.75 491 450.8 490.2 449.2 491.55 447.35 L494.65 444.1 497.2 441.25 499.95 444.1 502.85 447.35 Q504.2 449.2 503.5 450.8 M497.2 473.75 L499.95 476.65 502.85 479.85 Q504.2 481.6 503.5 483.2 502.6 485.15 500.1 485.05 L497.9 484.45 498.25 486.05 499.6 487.7 494.9 487.7 496.15 486.05 496.65 484.45 494.35 485.05 Q491.9 485.15 491 483.2 490.2 481.6 491.55 479.85 L494.65 476.65 497.2 473.75 M532.35 476.65 L535.35 479.85 Q536.7 481.6 535.9 483.2 535 485.15 532.6 485.05 L530.3 484.45 530.75 486.05 532 487.7 527.3 487.7 528.55 486.05 529 484.45 526.85 485.05 Q524.3 485.15 523.4 483.2 522.6 481.6 523.95 479.85 L527.05 476.65 529.6 473.75 532.35 476.65 M515.2 490.65 Q516.45 491.1 516.8 492.4 517.25 493.9 516.35 494.9 515.5 495.95 515.65 496.3 515.75 496.65 516.1 496.55 L517.25 495.7 Q518.4 495.15 519.3 495.95 520.25 496.85 520.35 498.35 L520.1 500.1 Q519.3 502.05 517.6 502.05 516.45 502.15 515.85 501.1 L515.4 500.1 Q515.3 499.95 515.05 500.1 L514.85 500.3 Q514.7 501 514.95 501.6 L516.1 504 511.85 504 513.1 501.6 Q513.35 501 513.1 500.3 512.9 499.75 512.65 500.1 512.2 502.25 510.35 502.05 508.75 502.05 507.8 500.1 L507.6 498.35 Q507.7 496.85 508.65 495.95 510.1 494.7 511.95 496.55 L512.4 496.3 Q512.55 495.95 511.6 494.9 510.7 493.9 511.15 492.4 511.5 491.1 512.9 490.65 L513.9 490.45 514.05 490.45 515.2 490.65 M567.7 447.35 Q569.1 449.2 568.4 450.8 567.4 452.75 564.95 452.5 L562.65 451.95 563.15 453.55 Q563.6 454.35 564.4 455.15 L559.7 455.15 561.05 453.55 561.5 451.95 559.2 452.5 Q556.8 452.75 555.9 450.8 555.1 449.2 556.45 447.35 L559.45 444.1 562.1 441.25 564.75 444.1 567.7 447.35 M540.1 465.85 Q540.1 464.35 541.15 463.55 542.6 462.15 544.35 464.1 L544.8 463.75 Q544.9 463.45 544.1 462.4 543.1 461.35 543.55 459.85 544 458.6 545.25 458.25 545.85 457.9 546.3 457.9 L546.55 457.9 547.7 458.25 Q548.85 458.6 549.3 459.85 549.75 461.35 548.85 462.4 547.9 463.45 548 463.75 548.25 464.25 548.5 464.1 L549.65 463.3 Q550.8 462.6 551.7 463.55 552.75 464.35 552.75 465.85 552.85 467 552.5 467.7 551.7 469.5 550.1 469.65 548.95 469.65 548.25 468.7 L547.8 467.7 Q547.7 467.55 547.55 467.7 L547.35 467.9 Q547.1 468.5 547.35 469.15 L548.5 471.45 544.25 471.45 545.5 469.15 Q545.75 468.6 545.6 467.9 545.4 467.2 545.05 467.7 544.6 469.75 542.75 469.65 541.25 469.5 540.3 467.7 540 467 540.1 465.85 M546.3 490.45 L546.55 490.45 547.7 490.65 Q548.85 491.1 549.3 492.4 549.75 493.9 548.85 494.9 547.9 495.95 548 496.3 548.25 496.65 548.5 496.55 L549.65 495.7 Q550.8 495.15 551.7 495.95 552.75 496.85 552.75 498.35 552.85 499.5 552.5 500.1 551.7 502.05 550.1 502.05 548.95 502.15 548.25 501.1 L547.8 500.1 Q547.7 499.95 547.55 500.1 L547.35 500.3 Q547.1 501 547.35 501.6 L548.5 504 544.25 504 545.5 501.6 Q545.75 501 545.6 500.3 545.4 499.75 545.05 500.1 544.6 502.25 542.75 502.05 541.25 502.05 540.3 500.1 540 499.5 540.1 498.35 540.1 496.85 541.15 495.95 542.6 494.7 544.35 496.55 544.6 496.65 544.8 496.3 544.9 495.95 544.1 494.9 543.1 493.9 543.55 492.4 544 491.1 545.25 490.65 L546.3 490.45 M567.7 479.85 Q569.1 481.6 568.4 483.2 567.4 485.15 564.95 485.05 L562.65 484.45 563.15 486.05 564.4 487.7 559.7 487.7 561.05 486.05 561.5 484.45 559.2 485.05 Q556.8 485.15 555.9 483.2 555.1 481.6 556.45 479.85 L559.45 476.65 562.1 473.75 564.75 476.65 567.7 479.85 M555.9 515.7 Q555.1 514.1 556.45 512.25 L559.45 509.05 562.1 506.3 564.75 509.05 567.7 512.25 Q569.1 514.1 568.4 515.7 567.4 517.65 564.95 517.55 L562.65 516.85 563.15 518.5 564.4 520.2 559.7 520.2 561.05 518.5 561.5 516.85 Q560.5 517.45 559.2 517.55 556.8 517.65 555.9 515.7 M532.6 517.55 L530.3 516.85 530.75 518.5 Q531.1 519.3 532 520.2 L527.3 520.2 528.55 518.5 529 516.85 Q528 517.45 526.85 517.55 524.3 517.65 523.4 515.7 522.6 514.1 523.95 512.25 L527.05 509.05 529.6 506.3 532.35 509.05 535.35 512.25 Q536.7 514.1 535.9 515.7 535 517.65 532.6 517.55 M546.3 522.95 L546.55 522.95 547.7 523.2 Q548.85 523.55 549.3 524.8 549.75 526.4 548.85 527.45 547.9 528.35 548 528.7 548.25 529.15 548.5 529.05 L549.65 528.25 Q550.8 527.65 551.7 528.5 552.75 529.3 552.75 530.75 552.85 532.05 552.5 532.6 551.7 534.55 550.1 534.55 548.95 534.55 548.25 533.65 L547.8 532.6 547.55 532.6 547.35 532.85 Q547.1 533.4 547.35 534.1 L548.5 536.5 544.25 536.5 545.5 534.1 Q545.75 533.55 545.6 532.85 545.4 532.25 545.05 532.6 544.6 534.7 542.75 534.55 541.25 534.55 540.3 532.6 540 531.9 540.1 530.75 540.1 529.3 541.15 528.5 542.6 527.1 544.35 529.05 L544.8 528.7 Q544.9 528.35 544.1 527.45 543.1 526.4 543.55 524.8 544 523.55 545.25 523.2 L546.3 522.95 M562.1 538.7 L564.75 541.6 567.7 544.8 Q569.1 546.65 568.4 548.15 567.4 550.1 564.95 549.95 L562.65 549.4 563.15 551 Q563.6 551.8 564.4 552.6 L559.7 552.6 561.05 551 561.5 549.4 559.2 549.95 Q556.8 550.1 555.9 548.15 555.1 546.65 556.45 544.8 L559.45 541.6 562.1 538.7 M497.9 516.85 L498.25 518.5 499.6 520.2 494.9 520.2 496.15 518.5 496.65 516.85 Q495.6 517.45 494.35 517.55 491.9 517.65 491 515.7 490.2 514.1 491.55 512.25 L494.65 509.05 497.2 506.3 499.95 509.05 502.85 512.25 Q504.2 514.1 503.5 515.7 502.6 517.65 500.1 517.55 L497.9 516.85 M511.6 527.45 Q510.7 526.4 511.15 524.8 511.5 523.55 512.9 523.2 L513.9 522.95 514.05 522.95 515.2 523.2 Q516.45 523.55 516.8 524.8 517.25 526.4 516.35 527.45 515.5 528.35 515.65 528.7 515.75 529.15 516.1 529.05 L517.25 528.25 Q518.4 527.65 519.3 528.5 520.25 529.3 520.35 530.75 L520.1 532.6 Q519.3 534.55 517.6 534.55 516.45 534.55 515.85 533.65 L515.4 532.6 515.05 532.6 514.85 532.85 Q514.7 533.4 514.95 534.1 L516.1 536.5 511.85 536.5 513.1 534.1 Q513.35 533.55 513.1 532.85 512.9 532.25 512.65 532.6 512.2 534.7 510.35 534.55 508.75 534.55 507.8 532.6 L507.6 530.75 Q507.7 529.3 508.65 528.5 510.1 527.1 511.95 529.05 L512.4 528.7 Q512.55 528.35 511.6 527.45 M497.2 538.7 L499.95 541.6 502.85 544.8 Q504.2 546.65 503.5 548.15 502.6 550.1 500.1 549.95 L497.9 549.4 498.25 551 499.6 552.6 494.9 552.6 Q495.8 551.8 496.15 551 L496.65 549.4 494.35 549.95 Q491.9 550.1 491 548.15 490.2 546.65 491.55 544.8 L494.65 541.6 497.2 538.7 M532.35 541.6 L535.35 544.8 Q536.7 546.65 535.9 548.15 535 550.1 532.6 549.95 L530.3 549.4 530.75 551 Q531.1 551.8 532 552.6 L527.3 552.6 528.55 551 529 549.4 526.85 549.95 Q524.3 550.1 523.4 548.15 522.6 546.65 523.95 544.8 L527.05 541.6 529.6 538.7 532.35 541.6 M513.9 555.35 L514.05 555.35 515.2 555.6 Q516.45 556.05 516.8 557.3 517.25 558.8 516.35 559.85 515.5 560.9 515.65 561.25 L516.1 561.55 517.25 560.75 Q518.4 560.1 519.3 561 520.25 561.8 520.35 563.3 L520.1 565 Q519.3 567 517.6 567.1 516.45 567.1 515.85 566.15 L515.4 565 515.05 565 514.85 565.35 Q514.7 565.95 514.95 566.65 L516.1 568.95 511.85 568.95 513.1 566.65 Q513.35 566.05 513.1 565.35 512.9 564.7 512.65 565 512.2 567.2 510.35 567.1 508.75 567 507.8 565 L507.6 563.3 Q507.7 561.8 508.65 561 510.1 559.6 511.95 561.55 L512.4 561.25 Q512.55 560.9 511.6 559.85 510.7 558.8 511.15 557.3 511.5 556.05 512.9 555.6 L513.9 555.35 M540.3 565 Q540 564.45 540.1 563.3 540.1 561.8 541.15 561 542.6 559.6 544.35 561.55 L544.8 561.25 Q544.9 560.9 544.1 559.85 543.1 558.8 543.55 557.3 544 556.05 545.25 555.6 L546.3 555.35 546.55 555.35 547.7 555.6 Q548.85 556.05 549.3 557.3 549.75 558.8 548.85 559.85 547.9 560.9 548 561.25 L548.5 561.55 549.65 560.75 Q550.8 560.1 551.7 561 552.75 561.8 552.75 563.3 552.85 564.45 552.5 565 551.7 567 550.1 567.1 548.95 567.1 548.25 566.15 L547.8 565 547.55 565 Q547.35 565 547.35 565.35 547.1 565.95 547.35 566.65 L548.5 568.95 544.25 568.95 545.5 566.65 Q545.75 566.05 545.6 565.35 545.4 564.7 545.05 565 544.6 567.2 542.75 567.1 541.25 567 540.3 565"/>
    <path stroke="none" fill="#000000" fill-opacity="0.2" d="M666.45 481.35 L670.85 485.85 675.45 491.05 Q677.6 494 676.5 496.55 675.05 499.65 671.1 499.25 L667.6 498.35 668.15 500.9 Q668.85 502.2 670.3 503.45 L662.8 503.45 Q664.25 502.2 664.8 500.9 L665.6 498.35 Q663.9 499.1 661.95 499.25 658.05 499.65 656.6 496.55 655.35 494 657.5 491.05 L662.4 485.85 666.45 481.35 M700.3 519.5 Q700.3 521.3 699.9 522.4 698.65 525.3 695.9 525.5 694.1 525.5 693.15 524 L692.4 522.4 Q692.25 522.2 691.85 522.4 L691.55 522.75 Q691.3 523.7 691.7 524.75 L693.55 528.4 686.8 528.4 688.75 524.75 Q689.15 523.85 688.75 522.75 688.45 521.6 688.05 522.4 687.35 525.7 684.4 525.5 681.85 525.3 680.35 522.4 680 521.3 680 519.5 680.15 517.1 681.7 515.8 684 513.6 686.95 516.7 L687.65 516.15 Q687.9 515.65 686.4 514 684.95 512.3 685.65 509.95 686.2 507.95 688.45 507.4 689.3 506.85 690.05 506.85 L690.3 506.85 692.1 507.4 Q694.1 507.95 694.65 509.95 695.35 512.3 693.95 514 692.6 515.65 692.8 516.15 693 516.95 693.55 516.7 L695.35 515.4 Q697.2 514.3 698.65 515.8 700.15 517.1 700.3 519.5"/>
    <path stroke="none" fill="#000000" fill-opacity="0.10196078431372549" d="M688.05 482.95 Q689.3 484.45 689.5 486.45 689.5 484.45 691 482.95 692.4 480.95 694.95 480.95 697.6 480.95 699.2 482.95 700.7 484.6 700.7 486.8 700.7 488.4 699.6 490.25 698.45 492.3 697.05 493.75 691.15 499.8 689.5 503.05 687.9 499.8 681.85 493.75 680.55 492.3 679.45 490.25 678.35 488.4 678.35 486.8 678.35 484.6 679.85 482.95 681.3 480.95 684 480.95 686.6 480.95 688.05 482.95 M666.45 506.25 L675.05 517.25 666.45 528.4 658.05 517.25 666.45 506.25"/>
    <path stroke="none" fill="#000000" fill-opacity="0.10196078431372549" d="M252.95 244.7 Q252.95 245.7 252.3 246.85 L250.8 249.05 Q247 252.85 245.95 254.9 244.9 252.85 241.25 249.05 240.3 248.15 239.65 246.85 238.95 245.7 238.95 244.7 238.95 243.3 239.85 242.25 240.9 241 242.5 241 244.1 241 245.15 242.25 245.95 243.2 245.95 244.45 246.05 243.2 246.85 242.25 247.8 241 249.4 241 251 241 252.05 242.25 252.95 243.3 252.95 244.7 M267.4 264.45 L262.1 271.45 256.8 264.45 262.1 257.55 267.4 264.45 M252.3 279.4 L250.8 281.55 Q247 285.35 245.95 287.45 244.9 285.35 241.25 281.55 240.3 280.65 239.65 279.4 238.95 278.1 238.95 277.1 238.95 275.8 239.85 274.8 240.9 273.5 242.5 273.5 244.1 273.5 245.15 274.65 245.95 275.7 245.95 276.95 246.05 275.7 246.85 274.65 247.8 273.5 249.4 273.5 251 273.5 252.05 274.8 252.95 275.8 252.95 277.1 252.95 278.1 252.3 279.4 M220.6 244.7 Q220.6 245.7 219.9 246.85 219.2 248.15 218.3 249.05 214.6 252.85 213.55 254.9 212.55 252.85 208.75 249.05 207.95 248.15 207.25 246.85 206.55 245.7 206.55 244.7 206.55 243.3 207.5 242.25 208.4 241 210.1 241 211.75 241 212.65 242.25 213.45 243.2 213.55 244.45 213.55 243.2 214.5 242.25 215.4 241 217 241 218.65 241 219.65 242.25 220.6 243.3 220.6 244.7 M202.6 264.45 L197.2 271.45 191.9 264.45 197.2 257.55 202.6 264.45 M206.55 277.1 Q206.55 275.8 207.5 274.8 208.4 273.5 210.1 273.5 211.75 273.5 212.65 274.65 213.45 275.7 213.55 276.95 213.55 275.7 214.5 274.65 215.4 273.5 217 273.5 218.65 273.5 219.65 274.8 220.6 275.8 220.6 277.1 220.6 278.1 219.9 279.4 L218.3 281.55 Q214.6 285.35 213.55 287.45 212.55 285.35 208.75 281.55 L207.25 279.4 Q206.55 278.1 206.55 277.1 M235 264.45 L229.7 271.45 224.3 264.45 229.7 257.55 235 264.45 M242.5 306.05 Q244.1 306.05 245.15 307.2 245.95 308.1 245.95 309.5 246.05 308.1 246.85 307.2 247.8 306.05 249.4 306.05 251 306.05 252.05 307.2 252.95 308.25 252.95 309.6 252.95 310.65 252.3 311.9 L250.8 313.95 Q247 317.9 245.95 319.95 244.9 317.9 241.25 313.95 240.3 313.05 239.65 311.9 238.95 310.65 238.95 309.6 238.95 308.25 239.85 307.2 240.9 306.05 242.5 306.05 M229.7 303.85 L224.3 296.95 229.7 290.05 235 296.95 229.7 303.85 M212.65 307.2 Q213.45 308.1 213.55 309.5 213.55 308.1 214.5 307.2 215.4 306.05 217 306.05 218.65 306.05 219.65 307.2 220.6 308.25 220.6 309.6 220.6 310.65 219.9 311.9 L218.3 313.95 Q214.6 317.9 213.55 319.95 212.55 317.9 208.75 313.95 L207.25 311.9 Q206.55 310.65 206.55 309.6 206.55 308.25 207.5 307.2 208.4 306.05 210.1 306.05 211.75 306.05 212.65 307.2 M212.65 339.7 Q213.45 340.65 213.55 341.9 213.55 340.65 214.5 339.7 215.4 338.45 217 338.45 218.65 338.45 219.65 339.7 220.6 340.75 220.6 342.15 220.6 343.05 219.9 344.3 219.2 345.6 218.3 346.5 214.6 350.3 213.55 352.35 212.55 350.3 208.75 346.5 207.95 345.6 207.25 344.3 206.55 343.05 206.55 342.15 206.55 340.75 207.5 339.7 208.4 338.45 210.1 338.45 211.75 338.45 212.65 339.7 M235 329.5 L229.7 336.4 224.3 329.5 229.7 322.6 235 329.5 M242.5 338.45 Q244.1 338.45 245.15 339.7 245.95 340.65 245.95 341.9 246.05 340.65 246.85 339.7 247.8 338.45 249.4 338.45 251 338.45 252.05 339.7 252.95 340.75 252.95 342.15 252.95 343.05 252.3 344.3 L250.8 346.5 Q247 350.3 245.95 352.35 244.9 350.3 241.25 346.5 240.3 345.6 239.65 344.3 238.95 343.05 238.95 342.15 238.95 340.75 239.85 339.7 240.9 338.45 242.5 338.45 M191.9 296.95 L197.2 290.05 202.6 296.95 197.2 303.85 191.9 296.95 M197.2 322.6 L202.6 329.5 197.2 336.4 191.9 329.5 197.2 322.6 M191.9 361.9 L197.2 355 202.6 361.9 197.2 368.9 191.9 361.9 M229.7 368.9 L224.3 361.9 229.7 355 235 361.9 229.7 368.9 M262.1 303.85 L256.8 296.95 262.1 290.05 267.4 296.95 262.1 303.85 M267.4 329.5 L262.1 336.4 256.8 329.5 262.1 322.6 267.4 329.5 M262.1 368.9 L256.8 361.9 262.1 355 267.4 361.9 262.1 368.9"/>
    <path stroke="none" fill="#000000" fill-opacity="0.2" d="M264.75 244.1 L267.7 247.35 Q269.1 249.2 268.4 250.8 267.4 252.75 264.95 252.5 L262.65 251.95 263.15 253.55 Q263.6 254.35 264.4 255.15 L259.7 255.15 261.05 253.55 261.5 251.95 259.2 252.5 Q256.8 252.75 255.9 250.8 255.1 249.2 256.45 247.35 L259.45 244.1 262.1 241.25 264.75 244.1 M252.75 265.85 Q252.85 267 252.5 267.7 251.7 269.5 250.1 269.65 248.95 269.65 248.25 268.7 L247.8 267.7 Q247.7 267.55 247.55 267.7 L247.35 267.9 Q247.1 268.5 247.35 269.15 L248.5 271.45 244.25 271.45 245.5 269.15 Q245.75 268.6 245.6 267.9 245.4 267.2 245.05 267.7 244.6 269.75 242.75 269.65 241.25 269.5 240.3 267.7 240 267 240.1 265.85 240.1 264.35 241.15 263.55 242.6 262.15 244.35 264.1 L244.8 263.75 Q244.9 263.45 244.1 262.4 243.1 261.35 243.55 259.85 244 258.6 245.25 258.25 245.85 257.9 246.3 257.9 L246.55 257.9 247.7 258.25 Q248.85 258.6 249.3 259.85 249.75 261.35 248.85 262.4 247.9 263.45 248 263.75 L248.5 264.1 249.65 263.3 Q250.8 262.6 251.7 263.55 252.75 264.35 252.75 265.85 M267.7 279.85 Q269.1 281.6 268.4 283.2 267.4 285.15 264.95 285.05 L262.65 284.45 263.15 286.05 264.4 287.7 259.7 287.7 261.05 286.05 261.5 284.45 259.2 285.05 Q256.8 285.15 255.9 283.2 255.1 281.6 256.45 279.85 L259.45 276.65 262.1 273.75 264.75 276.65 267.7 279.85 M232.35 244.1 L235.35 247.35 Q236.7 249.2 235.9 250.8 235 252.75 232.6 252.5 L230.3 251.95 230.75 253.55 Q231.1 254.35 232 255.15 L227.3 255.15 Q228.2 254.35 228.55 253.55 L229 251.95 226.85 252.5 Q224.3 252.75 223.4 250.8 222.6 249.2 223.95 247.35 L227.05 244.1 229.6 241.25 232.35 244.1 M197.2 241.25 L199.95 244.1 202.85 247.35 Q204.2 249.2 203.5 250.8 202.6 252.75 200.1 252.5 L197.9 251.95 198.25 253.55 199.6 255.15 194.9 255.15 Q195.8 254.35 196.15 253.55 L196.65 251.95 194.35 252.5 Q191.9 252.75 191 250.8 190.2 249.2 191.55 247.35 L194.65 244.1 197.2 241.25 M207.8 267.7 L207.6 265.85 Q207.7 264.35 208.65 263.55 210.1 262.15 211.95 264.1 L212.4 263.75 Q212.55 263.45 211.6 262.4 210.7 261.35 211.15 259.85 211.5 258.6 212.9 258.25 213.45 257.9 213.9 257.9 L214.05 257.9 215.2 258.25 Q216.45 258.6 216.8 259.85 217.25 261.35 216.35 262.4 215.5 263.45 215.65 263.75 215.75 264.25 216.1 264.1 L217.25 263.3 Q218.4 262.6 219.3 263.55 220.25 264.35 220.35 265.85 L220.1 267.7 Q219.3 269.5 217.6 269.65 216.45 269.65 215.85 268.7 L215.4 267.7 Q215.3 267.55 215.05 267.7 L214.85 267.9 Q214.7 268.5 214.95 269.15 L216.1 271.45 211.85 271.45 213.1 269.15 Q213.35 268.6 213.1 267.9 212.9 267.2 212.65 267.7 212.2 269.75 210.35 269.65 208.75 269.5 207.8 267.7 M202.85 279.85 Q204.2 281.6 203.5 283.2 202.6 285.15 200.1 285.05 L197.9 284.45 198.25 286.05 199.6 287.7 194.9 287.7 196.15 286.05 196.65 284.45 194.35 285.05 Q191.9 285.15 191 283.2 190.2 281.6 191.55 279.85 L194.65 276.65 197.2 273.75 199.95 276.65 202.85 279.85 M227.05 276.65 L229.6 273.75 232.35 276.65 235.35 279.85 Q236.7 281.6 235.9 283.2 235 285.15 232.6 285.05 L230.3 284.45 230.75 286.05 Q231.1 286.75 232 287.7 L227.3 287.7 228.55 286.05 229 284.45 226.85 285.05 Q224.3 285.15 223.4 283.2 222.6 281.6 223.95 279.85 L227.05 276.65 M246.55 290.45 L247.7 290.65 Q248.85 291.1 249.3 292.4 249.75 293.9 248.85 294.9 247.9 295.95 248 296.3 248.25 296.65 248.5 296.55 L249.65 295.7 Q250.8 295.15 251.7 295.95 252.75 296.85 252.75 298.35 252.85 299.5 252.5 300.1 251.7 302.05 250.1 302.05 248.95 302.15 248.25 301.1 L247.8 300.1 Q247.7 299.95 247.55 300.1 L247.35 300.3 Q247.1 301 247.35 301.6 L248.5 304 244.25 304 245.5 301.6 Q245.75 301 245.6 300.3 245.4 299.75 245.05 300.1 244.6 302.25 242.75 302.05 241.25 302.05 240.3 300.1 240 299.5 240.1 298.35 240.1 296.85 241.15 295.95 242.6 294.7 244.35 296.55 L244.8 296.3 Q244.9 295.95 244.1 294.9 243.1 293.9 243.55 292.4 244 291.1 245.25 290.65 L246.3 290.45 246.55 290.45 M215.2 290.65 Q216.45 291.1 216.8 292.4 217.25 293.9 216.35 294.9 215.5 295.95 215.65 296.3 215.75 296.65 216.1 296.55 L217.25 295.7 Q218.4 295.15 219.3 295.95 220.25 296.85 220.35 298.35 L220.1 300.1 Q219.3 302.05 217.6 302.05 216.45 302.15 215.85 301.1 L215.4 300.1 Q215.3 299.95 215.05 300.1 L214.85 300.3 Q214.7 301 214.95 301.6 L216.1 304 211.85 304 213.1 301.6 Q213.35 301 213.1 300.3 212.9 299.75 212.65 300.1 212.2 302.25 210.35 302.05 208.75 302.05 207.8 300.1 L207.6 298.35 Q207.7 296.85 208.65 295.95 210.1 294.7 211.95 296.55 L212.4 296.3 Q212.55 295.95 211.6 294.9 210.7 293.9 211.15 292.4 211.5 291.1 212.9 290.65 L213.9 290.45 214.05 290.45 215.2 290.65 M235.9 315.7 Q235 317.65 232.6 317.55 L230.3 316.85 230.75 318.5 Q231.1 319.3 232 320.2 L227.3 320.2 228.55 318.5 229 316.85 Q228 317.45 226.85 317.55 224.3 317.65 223.4 315.7 222.6 314.1 223.95 312.25 L227.05 309.05 229.6 306.3 232.35 309.05 235.35 312.25 Q236.7 314.1 235.9 315.7 M219.3 328.5 Q220.25 329.3 220.35 330.75 L220.1 332.6 Q219.3 334.55 217.6 334.55 216.45 334.55 215.85 333.65 L215.4 332.6 215.05 332.6 214.85 332.85 Q214.7 333.4 214.95 334.1 L216.1 336.5 211.85 336.5 213.1 334.1 Q213.35 333.55 213.1 332.85 212.9 332.25 212.65 332.6 212.2 334.7 210.35 334.55 208.75 334.55 207.8 332.6 L207.6 330.75 Q207.7 329.3 208.65 328.5 210.1 327.1 211.95 329.05 L212.4 328.7 Q212.55 328.35 211.6 327.45 210.7 326.4 211.15 324.8 211.5 323.55 212.9 323.2 L213.9 322.95 214.05 322.95 215.2 323.2 Q216.45 323.55 216.8 324.8 217.25 326.4 216.35 327.45 215.5 328.35 215.65 328.7 215.75 329.15 216.1 329.05 L217.25 328.25 Q218.4 327.65 219.3 328.5 M246.55 322.95 L247.7 323.2 Q248.85 323.55 249.3 324.8 249.75 326.4 248.85 327.45 247.9 328.35 248 328.7 L248.5 329.05 249.65 328.25 Q250.8 327.65 251.7 328.5 252.75 329.3 252.75 330.75 252.85 332.05 252.5 332.6 251.7 334.55 250.1 334.55 248.95 334.55 248.25 333.65 L247.8 332.6 247.55 332.6 247.35 332.85 Q247.1 333.4 247.35 334.1 L248.5 336.5 244.25 336.5 245.5 334.1 Q245.75 333.55 245.6 332.85 245.4 332.25 245.05 332.6 244.6 334.7 242.75 334.55 241.25 334.55 240.3 332.6 240 331.9 240.1 330.75 240.1 329.3 241.15 328.5 242.6 327.1 244.35 329.05 L244.8 328.7 Q244.9 328.35 244.1 327.45 243.1 326.4 243.55 324.8 244 323.55 245.25 323.2 245.85 322.85 246.3 322.95 L246.55 322.95 M232.35 341.6 L235.35 344.8 Q236.7 346.65 235.9 348.15 235 350.1 232.6 349.95 L230.3 349.4 230.75 351 Q231.1 351.8 232 352.6 L227.3 352.6 Q228.2 351.8 228.55 351 L229 349.4 226.85 349.95 Q224.3 350.1 223.4 348.15 222.6 346.65 223.95 344.8 L227.05 341.6 229.6 338.7 232.35 341.6 M194.65 309.05 L197.2 306.3 199.95 309.05 202.85 312.25 Q204.2 314.1 203.5 315.7 202.6 317.65 200.1 317.55 L197.9 316.85 198.25 318.5 199.6 320.2 194.9 320.2 196.15 318.5 196.65 316.85 Q195.6 317.45 194.35 317.55 191.9 317.65 191 315.7 190.2 314.1 191.55 312.25 L194.65 309.05 M197.2 338.7 L199.95 341.6 202.85 344.8 Q204.2 346.65 203.5 348.15 202.6 350.1 200.1 349.95 L197.9 349.4 198.25 351 199.6 352.6 194.9 352.6 Q195.8 351.8 196.15 351 L196.65 349.4 194.35 349.95 Q191.9 350.1 191 348.15 190.2 346.65 191.55 344.8 L194.65 341.6 197.2 338.7 M246.55 355.35 L247.7 355.6 Q248.85 356.05 249.3 357.3 249.75 358.8 248.85 359.85 247.9 360.9 248 361.25 L248.5 361.55 249.65 360.75 Q250.8 360.1 251.7 361 252.75 361.8 252.75 363.3 252.85 364.45 252.5 365 251.7 367 250.1 367.1 248.95 367.1 248.25 366.15 L247.8 365 247.55 365 Q247.35 365 247.35 365.35 247.1 365.95 247.35 366.65 L248.5 368.95 244.25 368.95 245.5 366.65 Q245.75 366.05 245.6 365.35 245.4 364.7 245.05 365 244.6 367.2 242.75 367.1 241.25 367 240.3 365 240 364.45 240.1 363.3 240.1 361.8 241.15 361 242.6 359.6 244.35 361.55 L244.8 361.25 Q244.9 360.9 244.1 359.85 243.1 358.8 243.55 357.3 244 356.05 245.25 355.6 L246.3 355.35 246.55 355.35 M207.8 365 L207.6 363.3 Q207.7 361.8 208.65 361 210.1 359.6 211.95 361.55 L212.4 361.25 Q212.55 360.9 211.6 359.85 210.7 358.8 211.15 357.3 211.5 356.05 212.9 355.6 L213.9 355.35 214.05 355.35 215.2 355.6 Q216.45 356.05 216.8 357.3 217.25 358.8 216.35 359.85 215.5 360.9 215.65 361.25 L216.1 361.55 217.25 360.75 Q218.4 360.1 219.3 361 220.25 361.8 220.35 363.3 L220.1 365 Q219.3 367 217.6 367.1 216.45 367.1 215.85 366.15 L215.4 365 215.05 365 214.85 365.35 Q214.7 365.95 214.95 366.65 L216.1 368.95 211.85 368.95 213.1 366.65 Q213.35 366.05 213.1 365.35 212.9 364.7 212.65 365 212.2 367.2 210.35 367.1 208.75 367 207.8 365 M256.45 312.25 L259.45 309.05 262.1 306.3 264.75 309.05 267.7 312.25 Q269.1 314.1 268.4 315.7 267.4 317.65 264.95 317.55 L262.65 316.85 263.15 318.5 264.4 320.2 259.7 320.2 261.05 318.5 261.5 316.85 Q260.5 317.45 259.2 317.55 256.8 317.65 255.9 315.7 255.1 314.1 256.45 312.25 M264.75 341.6 L267.7 344.8 Q269.1 346.65 268.4 348.15 267.4 350.1 264.95 349.95 L262.65 349.4 263.15 351 Q263.6 351.8 264.4 352.6 L259.7 352.6 261.05 351 261.5 349.4 259.2 349.95 Q256.8 350.1 255.9 348.15 255.1 346.65 256.45 344.8 L259.45 341.6 262.1 338.7 264.75 341.6"/>
    <path stroke="none" fill="#000000" fill-opacity="0.2" d="M491.55 247.35 L494.65 244.1 497.2 241.25 499.95 244.1 502.85 247.35 Q504.2 249.2 503.5 250.8 502.6 252.75 500.1 252.5 L497.9 251.95 498.25 253.55 499.6 255.15 494.9 255.15 Q495.8 254.35 496.15 253.55 L496.65 251.95 494.35 252.5 Q491.9 252.75 491 250.8 490.2 249.2 491.55 247.35 M491.55 279.85 L494.65 276.65 497.2 273.75 499.95 276.65 502.85 279.85 Q504.2 281.6 503.5 283.2 502.6 285.15 500.1 285.05 L497.9 284.45 498.25 286.05 499.6 287.7 494.9 287.7 496.15 286.05 496.65 284.45 494.35 285.05 Q491.9 285.15 491 283.2 490.2 281.6 491.55 279.85 M491.55 312.25 L494.65 309.05 497.2 306.3 499.95 309.05 502.85 312.25 Q504.2 314.1 503.5 315.7 502.6 317.65 500.1 317.55 L497.9 316.85 498.25 318.5 499.6 320.2 494.9 320.2 496.15 318.5 496.65 316.85 Q495.6 317.45 494.35 317.55 491.9 317.65 491 315.7 490.2 314.1 491.55 312.25 M491.55 344.8 L494.65 341.6 497.2 338.7 499.95 341.6 502.85 344.8 Q504.2 346.65 503.5 348.15 502.6 350.1 500.1 349.95 L497.9 349.4 498.25 351 499.6 352.6 494.9 352.6 Q495.8 351.8 496.15 351 L496.65 349.4 494.35 349.95 Q491.9 350.1 491 348.15 490.2 346.65 491.55 344.8 M562.1 241.25 L564.75 244.1 567.7 247.35 Q569.1 249.2 568.4 250.8 567.4 252.75 564.95 252.5 L562.65 251.95 563.15 253.55 Q563.6 254.35 564.4 255.15 L559.7 255.15 561.05 253.55 561.5 251.95 559.2 252.5 Q556.8 252.75 555.9 250.8 555.1 249.2 556.45 247.35 L559.45 244.1 562.1 241.25 M529.6 241.25 L532.35 244.1 535.35 247.35 Q536.7 249.2 535.9 250.8 535 252.75 532.6 252.5 L530.3 251.95 530.75 253.55 Q531.1 254.35 532 255.15 L527.3 255.15 528.55 253.55 529 251.95 526.85 252.5 Q524.3 252.75 523.4 250.8 522.6 249.2 523.95 247.35 L527.05 244.1 529.6 241.25 M514.05 257.9 L515.2 258.25 Q516.45 258.6 516.8 259.85 517.25 261.35 516.35 262.4 515.5 263.45 515.65 263.75 515.75 264.25 516.1 264.1 L517.25 263.3 Q518.4 262.6 519.3 263.55 520.25 264.35 520.35 265.85 L520.1 267.7 Q519.3 269.5 517.6 269.65 516.45 269.65 515.85 268.7 L515.4 267.7 Q515.3 267.55 515.05 267.7 L514.85 267.9 Q514.7 268.5 514.95 269.15 L516.1 271.45 511.85 271.45 513.1 269.15 Q513.35 268.6 513.1 267.9 512.9 267.2 512.65 267.7 512.2 269.75 510.35 269.65 508.75 269.5 507.8 267.7 L507.6 265.85 Q507.7 264.35 508.65 263.55 510.1 262.15 511.95 264.1 L512.4 263.75 Q512.55 263.45 511.6 262.4 510.7 261.35 511.15 259.85 511.5 258.6 512.9 258.25 513.45 257.9 513.9 257.9 L514.05 257.9 M511.6 294.9 Q510.7 293.9 511.15 292.4 511.5 291.1 512.9 290.65 L513.9 290.45 514.05 290.45 515.2 290.65 Q516.45 291.1 516.8 292.4 517.25 293.9 516.35 294.9 515.5 295.95 515.65 296.3 515.75 296.65 516.1 296.55 L517.25 295.7 Q518.4 295.15 519.3 295.95 520.25 296.85 520.35 298.35 L520.1 300.1 Q519.3 302.05 517.6 302.05 516.45 302.15 515.85 301.1 L515.4 300.1 Q515.3 299.95 515.05 300.1 L514.85 300.3 Q514.7 301 514.95 301.6 L516.1 304 511.85 304 513.1 301.6 Q513.35 301 513.1 300.3 512.9 299.75 512.65 300.1 512.2 302.25 510.35 302.05 508.75 302.05 507.8 300.1 L507.6 298.35 Q507.7 296.85 508.65 295.95 510.1 294.7 511.95 296.55 L512.4 296.3 Q512.55 295.95 511.6 294.9 M532.35 276.65 L535.35 279.85 Q536.7 281.6 535.9 283.2 535 285.15 532.6 285.05 L530.3 284.45 530.75 286.05 532 287.7 527.3 287.7 528.55 286.05 529 284.45 526.85 285.05 Q524.3 285.15 523.4 283.2 522.6 281.6 523.95 279.85 L527.05 276.65 529.6 273.75 532.35 276.65 M540.1 265.85 Q540.1 264.35 541.15 263.55 542.6 262.15 544.35 264.1 L544.8 263.75 Q544.9 263.45 544.1 262.4 543.1 261.35 543.55 259.85 544 258.6 545.25 258.25 545.85 257.9 546.3 257.9 L546.55 257.9 547.7 258.25 Q548.85 258.6 549.3 259.85 549.75 261.35 548.85 262.4 547.9 263.45 548 263.75 548.25 264.25 548.5 264.1 L549.65 263.3 Q550.8 262.6 551.7 263.55 552.75 264.35 552.75 265.85 552.85 267 552.5 267.7 551.7 269.5 550.1 269.65 548.95 269.65 548.25 268.7 L547.8 267.7 Q547.7 267.55 547.55 267.7 L547.35 267.9 Q547.1 268.5 547.35 269.15 L548.5 271.45 544.25 271.45 545.5 269.15 Q545.75 268.6 545.6 267.9 545.4 267.2 545.05 267.7 544.6 269.75 542.75 269.65 541.25 269.5 540.3 267.7 540 267 540.1 265.85 M544.1 294.9 Q543.1 293.9 543.55 292.4 544 291.1 545.25 290.65 L546.3 290.45 546.55 290.45 547.7 290.65 Q548.85 291.1 549.3 292.4 549.75 293.9 548.85 294.9 547.9 295.95 548 296.3 548.25 296.65 548.5 296.55 L549.65 295.7 Q550.8 295.15 551.7 295.95 552.75 296.85 552.75 298.35 552.85 299.5 552.5 300.1 551.7 302.05 550.1 302.05 548.95 302.15 548.25 301.1 L547.8 300.1 Q547.7 299.95 547.55 300.1 L547.35 300.3 Q547.1 301 547.35 301.6 L548.5 304 544.25 304 545.5 301.6 Q545.75 301 545.6 300.3 545.4 299.75 545.05 300.1 544.6 302.25 542.75 302.05 541.25 302.05 540.3 300.1 540 299.5 540.1 298.35 540.1 296.85 541.15 295.95 542.6 294.7 544.35 296.55 544.6 296.65 544.8 296.3 544.9 295.95 544.1 294.9 M567.7 279.85 Q569.1 281.6 568.4 283.2 567.4 285.15 564.95 285.05 L562.65 284.45 563.15 286.05 564.4 287.7 559.7 287.7 561.05 286.05 561.5 284.45 559.2 285.05 Q556.8 285.15 555.9 283.2 555.1 281.6 556.45 279.85 L559.45 276.65 562.1 273.75 564.75 276.65 567.7 279.85 M559.45 309.05 L562.1 306.3 564.75 309.05 567.7 312.25 Q569.1 314.1 568.4 315.7 567.4 317.65 564.95 317.55 L562.65 316.85 563.15 318.5 564.4 320.2 559.7 320.2 561.05 318.5 561.5 316.85 Q560.5 317.45 559.2 317.55 556.8 317.65 555.9 315.7 555.1 314.1 556.45 312.25 L559.45 309.05 M535.9 315.7 Q535 317.65 532.6 317.55 L530.3 316.85 530.75 318.5 Q531.1 319.3 532 320.2 L527.3 320.2 528.55 318.5 529 316.85 Q528 317.45 526.85 317.55 524.3 317.65 523.4 315.7 522.6 314.1 523.95 312.25 L527.05 309.05 529.6 306.3 532.35 309.05 535.35 312.25 Q536.7 314.1 535.9 315.7 M547.7 323.2 Q548.85 323.55 549.3 324.8 549.75 326.4 548.85 327.45 547.9 328.35 548 328.7 548.25 329.15 548.5 329.05 L549.65 328.25 Q550.8 327.65 551.7 328.5 552.75 329.3 552.75 330.75 552.85 332.05 552.5 332.6 551.7 334.55 550.1 334.55 548.95 334.55 548.25 333.65 L547.8 332.6 547.55 332.6 547.35 332.85 Q547.1 333.4 547.35 334.1 L548.5 336.5 544.25 336.5 545.5 334.1 Q545.75 333.55 545.6 332.85 545.4 332.25 545.05 332.6 544.6 334.7 542.75 334.55 541.25 334.55 540.3 332.6 540 331.9 540.1 330.75 540.1 329.3 541.15 328.5 542.6 327.1 544.35 329.05 L544.8 328.7 Q544.9 328.35 544.1 327.45 543.1 326.4 543.55 324.8 544 323.55 545.25 323.2 L546.3 322.95 546.55 322.95 547.7 323.2 M564.75 341.6 L567.7 344.8 Q569.1 346.65 568.4 348.15 567.4 350.1 564.95 349.95 L562.65 349.4 563.15 351 Q563.6 351.8 564.4 352.6 L559.7 352.6 561.05 351 561.5 349.4 559.2 349.95 Q556.8 350.1 555.9 348.15 555.1 346.65 556.45 344.8 L559.45 341.6 562.1 338.7 564.75 341.6 M507.6 330.75 Q507.7 329.3 508.65 328.5 510.1 327.1 511.95 329.05 L512.4 328.7 Q512.55 328.35 511.6 327.45 510.7 326.4 511.15 324.8 511.5 323.55 512.9 323.2 L513.9 322.95 514.05 322.95 515.2 323.2 Q516.45 323.55 516.8 324.8 517.25 326.4 516.35 327.45 515.5 328.35 515.65 328.7 515.75 329.15 516.1 329.05 L517.25 328.25 Q518.4 327.65 519.3 328.5 520.25 329.3 520.35 330.75 L520.1 332.6 Q519.3 334.55 517.6 334.55 516.45 334.55 515.85 333.65 L515.4 332.6 515.05 332.6 514.85 332.85 Q514.7 333.4 514.95 334.1 L516.1 336.5 511.85 336.5 513.1 334.1 Q513.35 333.55 513.1 332.85 512.9 332.25 512.65 332.6 512.2 334.7 510.35 334.55 508.75 334.55 507.8 332.6 L507.6 330.75 M532.35 341.6 L535.35 344.8 Q536.7 346.65 535.9 348.15 535 350.1 532.6 349.95 L530.3 349.4 530.75 351 Q531.1 351.8 532 352.6 L527.3 352.6 528.55 351 529 349.4 526.85 349.95 Q524.3 350.1 523.4 348.15 522.6 346.65 523.95 344.8 L527.05 341.6 529.6 338.7 532.35 341.6 M513.9 355.35 L514.05 355.35 515.2 355.6 Q516.45 356.05 516.8 357.3 517.25 358.8 516.35 359.85 515.5 360.9 515.65 361.25 L516.1 361.55 517.25 360.75 Q518.4 360.1 519.3 361 520.25 361.8 520.35 363.3 L520.1 365 Q519.3 367 517.6 367.1 516.45 367.1 515.85 366.15 L515.4 365 515.05 365 514.85 365.35 Q514.7 365.95 514.95 366.65 L516.1 368.95 511.85 368.95 513.1 366.65 Q513.35 366.05 513.1 365.35 512.9 364.7 512.65 365 512.2 367.2 510.35 367.1 508.75 367 507.8 365 L507.6 363.3 Q507.7 361.8 508.65 361 510.1 359.6 511.95 361.55 L512.4 361.25 Q512.55 360.9 511.6 359.85 510.7 358.8 511.15 357.3 511.5 356.05 512.9 355.6 L513.9 355.35 M545.25 355.6 L546.3 355.35 546.55 355.35 547.7 355.6 Q548.85 356.05 549.3 357.3 549.75 358.8 548.85 359.85 547.9 360.9 548 361.25 L548.5 361.55 549.65 360.75 Q550.8 360.1 551.7 361 552.75 361.8 552.75 363.3 552.85 364.45 552.5 365 551.7 367 550.1 367.1 548.95 367.1 548.25 366.15 L547.8 365 547.55 365 Q547.35 365 547.35 365.35 547.1 365.95 547.35 366.65 L548.5 368.95 544.25 368.95 545.5 366.65 Q545.75 366.05 545.6 365.35 545.4 364.7 545.05 365 544.6 367.2 542.75 367.1 541.25 367 540.3 365 540 364.45 540.1 363.3 540.1 361.8 541.15 361 542.6 359.6 544.35 361.55 L544.8 361.25 Q544.9 360.9 544.1 359.85 543.1 358.8 543.55 357.3 544 356.05 545.25 355.6"/>
    <path stroke="none" fill="#000000" fill-opacity="0.10196078431372549" d="M552.05 242.25 Q552.95 243.3 552.95 244.7 552.95 245.7 552.3 246.85 L550.8 249.05 Q547 252.85 545.95 254.9 544.9 252.85 541.25 249.05 540.3 248.15 539.65 246.85 538.95 245.7 538.95 244.7 538.95 243.3 539.85 242.25 540.9 241 542.5 241 544.1 241 545.15 242.25 545.95 243.2 545.95 244.45 546.05 243.2 546.85 242.25 547.8 241 549.4 241 551 241 552.05 242.25 M510.1 241 Q511.75 241 512.65 242.25 513.45 243.2 513.55 244.45 513.55 243.2 514.5 242.25 515.4 241 517 241 518.65 241 519.65 242.25 520.6 243.3 520.6 244.7 520.6 245.7 519.9 246.85 519.2 248.15 518.3 249.05 514.6 252.85 513.55 254.9 512.55 252.85 508.75 249.05 507.95 248.15 507.25 246.85 506.55 245.7 506.55 244.7 506.55 243.3 507.5 242.25 508.4 241 510.1 241 M529.7 257.55 L535 264.45 529.7 271.45 524.3 264.45 529.7 257.55 M502.6 264.45 L497.2 271.45 491.9 264.45 497.2 257.55 502.6 264.45 M507.5 274.8 Q508.4 273.5 510.1 273.5 511.75 273.5 512.65 274.65 513.45 275.7 513.55 276.95 513.55 275.7 514.5 274.65 515.4 273.5 517 273.5 518.65 273.5 519.65 274.8 520.6 275.8 520.6 277.1 520.6 278.1 519.9 279.4 L518.3 281.55 Q514.6 285.35 513.55 287.45 512.55 285.35 508.75 281.55 L507.25 279.4 Q506.55 278.1 506.55 277.1 506.55 275.8 507.5 274.8 M567.4 264.45 L562.1 271.45 556.8 264.45 562.1 257.55 567.4 264.45 M552.05 274.8 Q552.95 275.8 552.95 277.1 552.95 278.1 552.3 279.4 L550.8 281.55 Q547 285.35 545.95 287.45 544.9 285.35 541.25 281.55 540.3 280.65 539.65 279.4 538.95 278.1 538.95 277.1 538.95 275.8 539.85 274.8 540.9 273.5 542.5 273.5 544.1 273.5 545.15 274.65 545.95 275.7 545.95 276.95 546.05 275.7 546.85 274.65 547.8 273.5 549.4 273.5 551 273.5 552.05 274.8 M556.8 296.95 L562.1 290.05 567.4 296.95 562.1 303.85 556.8 296.95 M552.05 307.2 Q552.95 308.25 552.95 309.6 552.95 310.65 552.3 311.9 L550.8 313.95 Q547 317.9 545.95 319.95 544.9 317.9 541.25 313.95 540.3 313.05 539.65 311.9 538.95 310.65 538.95 309.6 538.95 308.25 539.85 307.2 540.9 306.05 542.5 306.05 544.1 306.05 545.15 307.2 545.95 308.1 545.95 309.5 546.05 308.1 546.85 307.2 547.8 306.05 549.4 306.05 551 306.05 552.05 307.2 M542.5 338.45 Q544.1 338.45 545.15 339.7 545.95 340.65 545.95 341.9 546.05 340.65 546.85 339.7 547.8 338.45 549.4 338.45 551 338.45 552.05 339.7 552.95 340.75 552.95 342.15 552.95 343.05 552.3 344.3 L550.8 346.5 Q547 350.3 545.95 352.35 544.9 350.3 541.25 346.5 540.3 345.6 539.65 344.3 538.95 343.05 538.95 342.15 538.95 340.75 539.85 339.7 540.9 338.45 542.5 338.45 M567.4 329.5 L562.1 336.4 556.8 329.5 562.1 322.6 567.4 329.5 M524.3 296.95 L529.7 290.05 535 296.95 529.7 303.85 524.3 296.95 M517 306.05 Q518.65 306.05 519.65 307.2 520.6 308.25 520.6 309.6 520.6 310.65 519.9 311.9 L518.3 313.95 Q514.6 317.9 513.55 319.95 512.55 317.9 508.75 313.95 L507.25 311.9 Q506.55 310.65 506.55 309.6 506.55 308.25 507.5 307.2 508.4 306.05 510.1 306.05 511.75 306.05 512.65 307.2 513.45 308.1 513.55 309.5 513.55 308.1 514.5 307.2 515.4 306.05 517 306.05 M497.2 303.85 L491.9 296.95 497.2 290.05 502.6 296.95 497.2 303.85 M510.1 338.45 Q511.75 338.45 512.65 339.7 513.45 340.65 513.55 341.9 513.55 340.65 514.5 339.7 515.4 338.45 517 338.45 518.65 338.45 519.65 339.7 520.6 340.75 520.6 342.15 520.6 343.05 519.9 344.3 519.2 345.6 518.3 346.5 514.6 350.3 513.55 352.35 512.55 350.3 508.75 346.5 507.95 345.6 507.25 344.3 506.55 343.05 506.55 342.15 506.55 340.75 507.5 339.7 508.4 338.45 510.1 338.45 M502.6 329.5 L497.2 336.4 491.9 329.5 497.2 322.6 502.6 329.5 M529.7 322.6 L535 329.5 529.7 336.4 524.3 329.5 529.7 322.6 M524.3 361.9 L529.7 355 535 361.9 529.7 368.9 524.3 361.9 M502.6 361.9 L497.2 368.9 491.9 361.9 497.2 355 502.6 361.9 M556.8 361.9 L562.1 355 567.4 361.9 562.1 368.9 556.8 361.9"/>
    <path stroke="none" fill="#000000" fill-opacity="0.2" d="M662.4 285.85 L666.45 281.35 670.85 285.85 675.45 291.05 Q677.6 294 676.5 296.55 675.05 299.65 671.1 299.25 L667.6 298.35 668.15 300.9 Q668.85 302.2 670.3 303.45 L662.8 303.45 Q664.25 302.2 664.8 300.9 L665.6 298.35 Q663.9 299.1 661.95 299.25 658.05 299.65 656.6 296.55 655.35 294 657.5 291.05 L662.4 285.85 M699.9 322.4 Q698.65 325.3 695.9 325.5 694.1 325.5 693.15 324 L692.4 322.4 Q692.25 322.2 691.85 322.4 L691.55 322.75 Q691.3 323.7 691.7 324.75 L693.55 328.4 686.8 328.4 688.75 324.75 Q689.15 323.85 688.75 322.75 688.45 321.6 688.05 322.4 687.35 325.7 684.4 325.5 681.85 325.3 680.35 322.4 680 321.3 680 319.5 680.15 317.1 681.7 315.8 684 313.6 686.95 316.7 L687.65 316.15 Q687.9 315.65 686.4 314 684.95 312.3 685.65 309.95 686.2 307.95 688.45 307.4 689.3 306.85 690.05 306.85 L690.3 306.85 692.1 307.4 Q694.1 307.95 694.65 309.95 695.35 312.3 693.95 314 692.6 315.65 692.8 316.15 693 316.95 693.55 316.7 L695.35 315.4 Q697.2 314.3 698.65 315.8 700.15 317.1 700.3 319.5 700.3 321.3 699.9 322.4"/>
    <path stroke="none" fill="#000000" fill-opacity="0.10196078431372549" d="M691 282.95 Q692.4 280.95 694.95 280.95 697.6 280.95 699.2 282.95 700.7 284.6 700.7 286.8 700.7 288.4 699.6 290.25 698.45 292.3 697.05 293.75 691.15 299.8 689.5 303.05 687.9 299.8 681.85 293.75 680.55 292.3 679.45 290.25 678.35 288.4 678.35 286.8 678.35 284.6 679.85 282.95 681.3 280.95 684 280.95 686.6 280.95 688.05 282.95 689.3 284.45 689.5 286.45 689.5 284.45 691 282.95 M666.45 306.25 L675.05 317.25 666.45 328.4 658.05 317.25 666.45 306.25"/>
  </g>
</svg>