<?xml version="1.0" encoding="utf-8"?>
<!-- Generator: Adobe Illustrator 16.0.0, SVG Export Plug-In . SVG Version: 6.00 Build 0)  -->
<!DOCTYPE svg PUBLIC "-//W3C//DTD SVG 1.1//EN" "http://www.w3.org/Graphics/SVG/1.1/DTD/svg11.dtd">
<svg version="1.1" id="Layer_1" xmlns="http://www.w3.org/2000/svg" xmlns:xlink="http://www.w3.org/1999/xlink" x="0px" y="0px"
	 width="800px" height="142.857px" viewBox="0 0 800 142.857" enable-background="new 0 0 800 142.857" xml:space="preserve">
<rect x="14" y="100.429" fill="#FFFFFF" width="15" height="14"/>
<rect x="71" y="100.429" fill="#FFFFFF" width="15" height="14"/>
<rect x="714" y="85.429" fill="#FFFFFF" width="15" height="15"/>
<rect x="771" y="85.429" fill="#FFFFFF" width="15" height="15"/>
<rect x="571" y="57.429" fill="#FFFFFF" width="15" height="14"/>
<rect x="514" y="57.429" fill="#FFFFFF" width="15" height="14"/>
<path fill="#4D4D4D" d="M14.286,14.286h14.286v14.286h42.857V14.286h14.286v28.572H14.286V14.286z M714.286,42.857h14.285V28.572
	h-14.285V42.857z M771.429,28.572v14.286h14.285V28.572H771.429z M485.714,85.715h-71.429v42.856h14.286v-14.285h42.857v14.285
	h14.285V85.715z M185.714,28.572h-14.286v14.286h-42.857V28.572h-14.286v28.571h71.429V28.572z M314.286,114.286h14.286V100h42.857
	v14.286h14.286V71.429h-71.429V114.286z M285.714,85.715V42.857h-14.286v14.285h-42.857V42.857h-14.286v42.857H285.714z
	 M571.429,100V85.715h-42.857V100H571.429z M571.429,114.286h14.285V100h-14.285V114.286z M514.286,114.286h14.285V100h-14.285
	V114.286z"/>
<rect x="671" y="71.429" fill="#FFFFFF" width="15" height="14"/>
<rect x="614" y="71.429" fill="#FFFFFF" width="15" height="14"/>
<path d="M14.286,128.571v-14.285h14.286V100H14.286v14.286H0V71.429h14.286V57.143h71.429v14.286h28.571v42.857H85.714V100H71.429
	v14.286h14.286v14.285H14.286z M785.714,114.286V100h-14.285V85.715h14.285V100H800V57.143h-14.286V42.857h-71.428v14.285H700
	V42.857h-14.286V28.572h-71.428v14.286H600V28.572h-14.286V14.286h-71.428v14.286h-28.572v42.857h28.572V57.143h14.285v14.286
	h-14.285v14.286h71.428V71.429h-14.285V57.143h14.285v14.286H600v14.286h14.286V71.429h14.285v14.286h-14.285V100h71.428V85.715
	h-14.285V71.429h14.285v14.286H700V100h14.286V85.715h14.285V100h-14.285v14.286H785.714z M414.285,28.572H400v14.286h-14.286
	v42.857H400V71.429h14.285V28.572z M428.571,14.286v14.286h42.857V14.286H428.571z M371.429,42.857V28.572h-42.857v14.286H371.429z
	 M314.286,42.857H300v14.285h-14.286V100H300V85.715h14.286V42.857z M271.429,57.143V42.857h-42.857v14.285H271.429z
	 M214.286,57.143H200v14.286h-14.286v42.857H200V100h14.286V57.143z"/>
<path fill="#808080" d="M14.286,128.571h14.286v14.286H14.286V128.571z M71.429,142.857h14.286v-14.286H71.429V142.857z
	 M85.714,57.143V42.857H14.286v14.285H85.714z M28.571,0H14.286v14.286h14.286V0z M71.429,14.286h14.286V0H71.429V14.286z
	 M714.286,128.571h14.285v-14.285h-14.285V128.571z M771.429,128.571h14.285v-14.285h-14.285V128.571z M714.286,28.572h14.285
	V14.286h-14.285V28.572z M771.429,14.286v14.286h14.285V14.286H771.429z M485.714,85.715V0h-14.285v28.572h-42.857V0h-14.286v85.715
	H485.714z M471.429,142.857h14.285v-14.286h-14.285V142.857z M414.285,142.857h14.286v-14.286h-14.286V142.857z M114.286,128.571
	h71.429V57.143h-71.429V128.571z M128.571,14.286h-14.286v14.286h14.286V14.286z M171.429,28.572h14.286V14.286h-14.286V28.572z
	 M385.714,71.429V14.286h-14.286v28.572h-42.857V14.286h-14.286v57.143H385.714z M371.429,128.571h14.286v-14.285h-14.286V128.571z
	 M314.286,128.571h14.286v-14.285h-14.286V128.571z M214.286,114.286h71.429V85.715h-71.429V114.286z M228.571,28.572h-14.286
	v14.286h14.286V28.572z M271.429,42.857h14.286V28.572h-14.286V42.857z M571.429,100h14.285V85.715h-14.285V100z M514.286,100
	h14.285V85.715h-14.285V100z M571.429,128.571h14.285v-14.285h-14.285V128.571z M514.286,128.571h14.285v-14.285h-14.285V128.571z
	 M671.429,114.286h14.285V100h-14.285V114.286z M614.286,114.286h14.285V100h-14.285V114.286z"/>
</svg>
