<?xml version="1.0" encoding="iso-8859-1"?>
<!-- Uploaded to: SVG Repo, www.svgrepo.com, Generator: SVG Repo Mixer Tools -->
<!DOCTYPE svg PUBLIC "-//W3C//DTD SVG 1.1//EN" "http://www.w3.org/Graphics/SVG/1.1/DTD/svg11.dtd">
<svg height="800px" width="800px" version="1.1" id="Capa_1" xmlns="http://www.w3.org/2000/svg" xmlns:xlink="http://www.w3.org/1999/xlink" 
	 viewBox="0 0 460.833 460.833" xml:space="preserve">
<g>
	<path style="fill:#D3B539;" d="M251.438,133.423l-11.401-44.209c-29.145-5.829-77.526,13.99-111.917,53.044
		s45.466,54.21,45.466,54.21L251.438,133.423z"/>
	<path style="fill:#F9D43A;" d="M402.525,295.77H72.243c0-48.777,19.772-92.926,51.726-124.88
		c31.966-31.966,76.115-51.727,124.88-51.727c16.986,0,33.4,2.402,48.94,6.878c45.676,13.139,83.739,44.207,106.111,85.103
		c-109.072-8.848-120.077,60.144-120.077,60.144h139.942l0.035,0.245C425.526,284.369,415.477,295.77,402.525,295.77z"/>
	<g>
		<path style="fill:#D3B539;" d="M82.009,290.613L82.009,290.613l-15.621,15.621c-18.333,18.333-48.056,18.333-66.388,0l0,0
			l15.621-15.621C33.953,272.28,63.676,272.28,82.009,290.613z"/>
		<path style="fill:#D3B539;" d="M82.009,290.613L82.009,290.613l-15.621,15.621c-18.333,18.333-18.333,48.056,0,66.388l0,0
			l15.621-15.621C100.342,338.669,100.342,308.946,82.009,290.613z"/>
	</g>
	<path style="fill:#D3B539;" d="M224.373,253.804l-60.116-33.064c-5.879-3.234-13.163-2.374-18.128,2.14l-2.769,2.517
		c-4.899,4.454-6.478,11.503-3.946,17.621l12.291,29.703c2.654,6.414,9.205,10.324,16.11,9.616l56.559-5.801V253.804z"/>
	<path style="fill:#D3B539;" d="M402.525,295.77H273.845c-31.185-101.448,22.943-168.504,23.945-169.728
		c45.676,13.139,83.739,44.207,106.111,85.103c-109.072-8.848-120.077,60.144-120.077,60.144h139.942l0.035,0.245
		C425.526,284.369,415.477,295.77,402.525,295.77z"/>
	<g>
		<circle style="fill:#FFFFFF;" cx="339.129" cy="167.845" r="14.192"/>
		<circle style="fill:#4D4D4D;" cx="339.129" cy="167.845" r="8.683"/>
	</g>
	<polygon style="fill:#D3B539;" points="395.055,210.589 395.67,236.688 381.681,206.96 	"/>
	<polygon style="fill:#D3B539;" points="403.94,273.549 421.959,254.66 410.831,285.572 	"/>
	<polygon style="fill:#D3B539;" points="379.241,273.549 397.261,254.66 386.133,285.572 	"/>
	<polygon style="fill:#D3B539;" points="354.543,273.549 372.563,254.66 361.434,285.572 	"/>
	<polygon style="fill:#D3B539;" points="329.845,273.549 347.865,254.66 336.736,285.572 	"/>
	<polygon style="fill:#D3B539;" points="305.146,273.549 323.166,254.66 312.038,285.572 	"/>
	<polygon style="fill:#D3B539;" points="369.991,208.84 370.606,234.939 356.616,205.211 	"/>
	<polygon style="fill:#D3B539;" points="342.598,210.721 348.321,236.193 328.772,209.786 	"/>
	<polygon style="fill:#D3B539;" points="316.795,220.72 327.776,244.405 303.084,222.731 	"/>
	<path style="fill:#D3B539;" d="M338.703,149.457l-5.403-4.443c0.486-0.59,12.107-14.569,31.368-24.731
		c17.957-9.474,46.084-17.182,78.107-0.109l-3.291,6.172c-23.544-12.554-47.61-12.508-71.552,0.122
		C349.902,135.982,338.813,149.323,338.703,149.457z"/>
	<circle style="fill:#F74B4B;" cx="449.172" cy="126.69" r="11.658"/>
</g>
</svg>