<?xml version="1.0" encoding="iso-8859-1"?>
<!-- Uploaded to: SVG Repo, www.svgrepo.com, Generator: SVG Repo Mixer Tools -->
<!DOCTYPE svg PUBLIC "-//W3C//DTD SVG 1.1//EN" "http://www.w3.org/Graphics/SVG/1.1/DTD/svg11.dtd">
<svg height="800px" width="800px" version="1.1" id="Capa_1" xmlns="http://www.w3.org/2000/svg" xmlns:xlink="http://www.w3.org/1999/xlink" 
	 viewBox="0 0 407.738 407.738" xml:space="preserve">
<g>
	<g>
		<path style="fill:#F99B2B;" d="M107.278,203.869L107.278,203.869l-34.329,0C32.66,203.869,0,171.209,0,130.92v0h34.329
			C74.618,130.92,107.278,163.58,107.278,203.869z"/>
		<path style="fill:#F99B2B;" d="M107.278,203.869L107.278,203.869l-34.329,0C32.66,203.869,0,236.53,0,276.818v0h34.329
			C74.618,276.818,107.278,244.158,107.278,203.869z"/>
	</g>
	<polygon style="fill:#CC640E;" points="255.054,36.466 277.214,63.957 306.784,44.659 319.364,77.653 353.451,68.437 
		355.22,103.703 341.803,129.326 381.27,139.559 364.758,177.323 394.966,181.709 368.964,203.869 394.966,226.029 368.802,244.82 
		381.27,268.18 347.803,265.819 355.22,304.035 353.451,339.301 319.364,330.086 306.784,363.079 277.214,343.781 255.054,371.272 
		232.894,343.781 203.323,363.079 190.743,330.086 156.657,339.301 154.888,304.035 119.622,302.266 128.837,268.18 95.844,255.6 
		115.142,226.029 87.651,203.869 115.142,181.709 95.844,152.139 128.837,139.559 119.622,105.472 154.888,103.703 156.657,68.437 
		190.743,77.653 203.323,44.659 232.894,63.957 	"/>
	<path style="fill:#CC640E;" d="M407.677,222.268c-4.21,35.25-20.33,66.84-44.25,90.6c-27.79,27.64-66.08,44.72-108.37,44.72
		c-84.22,0-152.62-67.73-153.71-151.69c-1.1-85.13,68.07-155.48,153.21-155.75c38.83-0.12,74.33,14.16,101.45,37.8
		c27.94,24.35,47,58.65,51.65,97.38c0.04,0.36,0.06,0.72,0.06,1.08c0,4.81-3.87,8.84-8.81,8.84c-9.52,0-17.24,7.72-17.24,17.24
		h17.25C404.157,212.488,408.297,217.058,407.677,222.268z"/>
	<path style="fill:#F99B2B;" d="M407.677,222.268c-4.21,35.25-20.33,66.84-44.25,90.6c-41.37-21.48-69.62-64.71-69.62-114.55
		c0-46.79,24.92-87.77,62.2-110.37c27.94,24.35,47,58.65,51.65,97.38c0.04,0.36,0.06,0.72,0.06,1.08c0,4.81-3.87,8.84-8.81,8.84
		c-9.52,0-17.24,7.72-17.24,17.24h17.25C404.157,212.488,408.297,217.058,407.677,222.268z"/>
	<g>
		<circle style="fill:#FFFFFF;" cx="338.804" cy="177.323" r="25.955"/>
		<circle style="fill:#4D4D4D;" cx="338.804" cy="177.323" r="15.88"/>
	</g>
	<path style="fill:#F99B2B;" d="M231.935,238.406l27.394,27.394l-25.388,44.962c-11.212,19.858-38.27,23.552-54.395,7.427l0,0
		c-16.125-16.125-12.431-43.183,7.427-54.395L231.935,238.406z"/>
</g>
</svg>