<?xml version="1.0" encoding="iso-8859-1"?>
<!-- Uploaded to: SVG Repo, www.svgrepo.com, Generator: SVG Repo Mixer Tools -->
<!DOCTYPE svg PUBLIC "-//W3C//DTD SVG 1.1//EN" "http://www.w3.org/Graphics/SVG/1.1/DTD/svg11.dtd">
<svg height="800px" width="800px" version="1.1" id="Capa_1" xmlns="http://www.w3.org/2000/svg" xmlns:xlink="http://www.w3.org/1999/xlink" 
	 viewBox="0 0 424.44 424.44" xml:space="preserve">
<g>
	<path style="fill:#EA8518;" d="M269.319,228.107l33.033,33.033l-30.613,54.216c-13.52,23.944-46.147,28.399-65.591,8.955l0,0
		c-19.444-19.444-14.989-52.071,8.955-65.591L269.319,228.107z"/>
	<path style="fill:#EA8518;" d="M345.075,132.258l12.405-26.818c0,0-87.066-46.654-166.531,12.428"/>
	<g>
		<path style="fill:#EA8518;" d="M184.649,121.175h-51.842c-14.814,0-26.823,12.009-26.823,26.823v18.56"/>
		<path style="fill:#EA8518;" d="M184.649,273.984h-51.842c-14.814,0-26.823-12.009-26.823-26.823v-18.56"/>
	</g>
	<path style="fill:#F9993A;" d="M424.44,197.583c-23.17,36.91-55.24,63.06-91.02,78.43c-1.82,0.79-3.66,1.54-5.5,2.27
		c-1.82,0.72-3.66,1.41-5.5,2.07c-5.6,2.03-11.27,3.81-17,5.33c-2.33,0.62-4.67,1.2-7.01,1.73c-1.33,0.3-2.66,0.59-3.99,0.86
		c-5.11,1.06-10.25,1.92-15.41,2.58c-7.59,0.98-15.24,1.53-22.89,1.66c-1.47,0.03-2.94,0.04-4.41,0.03
		c-2.2-0.01-4.39-0.05-6.59-0.13c-20.23-0.75-40.37-4.48-59.66-11.18c-1.71-0.59-3.41-1.21-5.11-1.85
		c-1.97-0.75-3.94-1.52-5.89-2.34c-12.8-5.3-25.15-11.98-36.81-20.03c-2.06-1.41-4.1-2.87-6.11-4.37c-1.65-1.23-3.28-2.49-4.89-3.77
		c-6.86-5.47-13.44-11.45-19.67-17.94c-1.68-1.75-3.33-3.53-4.95-5.35c-2.06-2.3-4.08-4.66-6.05-7.09
		c-5.33-6.53-10.34-13.5-14.98-20.91c4.64-7.4,9.65-14.37,14.98-20.91c1.97-2.43,3.99-4.8,6.05-7.11c1.62-1.82,3.27-3.6,4.95-5.34
		c6.23-6.49,12.8-12.47,19.67-17.93c1.61-1.29,3.24-2.54,4.89-3.77c2.01-1.51,4.05-2.97,6.11-4.39c11.65-8.04,24.01-14.71,36.81-20
		c1.95-0.81,3.92-1.59,5.89-2.33c1.69-0.64,3.4-1.26,5.11-1.86c19.28-6.72,39.43-10.45,59.66-11.19c2.2-0.08,4.39-0.13,6.59-0.14
		h1.02c1.13,0,2.26,0.01,3.39,0.03c7.66,0.12,15.29,0.68,22.89,1.66c5.16,0.67,10.3,1.53,15.41,2.58c1.33,0.27,2.66,0.56,3.99,0.86
		c2.34,0.53,4.68,1.11,7.01,1.73c5.73,1.52,11.4,3.29,17,5.32c1.84,0.66,3.68,1.35,5.5,2.07c1.84,0.73,3.68,1.49,5.5,2.28
		c29.97,12.88,57.33,33.32,79.03,61.3l-10.2,10.2c-3.39,3.39-3.39,8.87,0,12.26l1.83,1.83l15.1-15.1
		C420.99,192.223,422.74,194.873,424.44,197.583z"/>
	<path style="fill:#F9993A;" d="M6.42,137.753c-2.136-0.275-4.277-0.48-6.42-0.65V258.05c2.144-0.17,4.285-0.374,6.42-0.649
		c36.429-4.674,71.173-24.608,93.264-59.824C77.593,162.361,42.849,142.427,6.42,137.753z"/>
	<g>
		<circle style="fill:#FFFFFF;" cx="363.988" cy="197.581" r="24.851"/>
		<circle style="fill:#4D4D4D;" cx="363.988" cy="197.581" r="15.204"/>
	</g>
	<path style="fill:#E6E6E6;" d="M327.917,116.864v161.417c-9.625,3.804-19.495,6.853-29.513,9.132V107.748
		C308.423,110.026,318.293,113.06,327.917,116.864z"/>
	<path style="fill:#E6E6E6;" d="M131.544,142.523v110.115c-10.526-7.854-20.429-16.871-29.513-27.053V169.56
		C111.131,159.378,121.018,150.361,131.544,142.523z"/>
	<path style="fill:#E6E6E6;" d="M251.709,102.616v189.93c-24.233-0.115-48.45-4.509-71.355-13.166V115.798
		C203.243,107.125,227.476,102.73,251.709,102.616z"/>
	<path style="fill:#666464;" d="M333.42,119.143v156.87c-1.82,0.79-3.66,1.54-5.5,2.27c-1.82,0.72-3.66,1.41-5.5,2.07v-165.56
		c1.84,0.66,3.68,1.35,5.5,2.07C329.76,117.593,331.6,118.353,333.42,119.143z"/>
	<path style="fill:#666464;" d="M305.42,109.473v176.21c-2.33,0.62-4.67,1.2-7.01,1.73c-1.33,0.3-2.66,0.59-3.99,0.86v-181.39
		c1.33,0.27,2.66,0.56,3.99,0.86C300.75,108.273,303.09,108.853,305.42,109.473z"/>
	<path style="fill:#666464;" d="M256.12,102.643v189.87c-1.47,0.03-2.94,0.04-4.41,0.03c-2.2-0.01-4.39-0.05-6.59-0.13v-189.66
		c2.2-0.08,4.39-0.13,6.59-0.14h1.02C253.86,102.613,254.99,102.623,256.12,102.643z"/>
	<path style="fill:#666464;" d="M185.46,113.943v167.29c-1.71-0.59-3.41-1.21-5.11-1.85c-1.97-0.75-3.94-1.52-5.89-2.34v-158.91
		c1.95-0.81,3.92-1.59,5.89-2.33C182.04,115.163,183.75,114.543,185.46,113.943z"/>
	<path style="fill:#666464;" d="M137.65,138.133v118.88c-2.06-1.41-4.1-2.87-6.11-4.37c-1.65-1.23-3.28-2.49-4.89-3.77v-102.58
		c1.61-1.29,3.24-2.54,4.89-3.77C133.55,141.013,135.59,139.553,137.65,138.133z"/>
	<path style="fill:#666464;" d="M106.98,164.223v66.71c-1.68-1.75-3.33-3.53-4.95-5.35c-2.06-2.3-4.08-4.66-6.05-7.09v-41.82
		c1.97-2.43,3.99-4.8,6.05-7.11C103.65,167.743,105.3,165.963,106.98,164.223z"/>
	<path style="fill:#F9993A;" d="M286.35,202.159v40.764l-52.342,14.564c-23.117,6.432-45.997-10.951-45.997-34.946v0
		c0-23.995,22.88-41.378,45.997-34.946L286.35,202.159z"/>
</g>
</svg>