<?xml version="1.0" encoding="iso-8859-1"?>
<!-- Uploaded to: SVG Repo, www.svgrepo.com, Generator: SVG Repo Mixer Tools -->
<!DOCTYPE svg PUBLIC "-//W3C//DTD SVG 1.1//EN" "http://www.w3.org/Graphics/SVG/1.1/DTD/svg11.dtd">
<svg height="800px" width="800px" version="1.1" id="Capa_1" xmlns="http://www.w3.org/2000/svg" xmlns:xlink="http://www.w3.org/1999/xlink" 
	 viewBox="0 0 455.363 455.363" xml:space="preserve">
<g>
	<g>
		<path style="fill:#51CAF4;" d="M47.525,341.84L47.525,341.84c28.792-54.424-14.232-69.605,45.36-94.69l0,0l0,0
			C106.507,285.823,86.199,328.218,47.525,341.84L47.525,341.84z"/>
		<path style="fill:#51CAF4;" d="M0,206.915L0,206.915c56.544,24.366,32.532,63.159,94.69,45.36l0,0l0,0
			C81.068,213.601,38.674,193.293,0,206.915L0,206.915z"/>
	</g>
	<path style="fill:#51CAF4;" d="M440.743,232.272L440.743,232.272c-7.709,0-14.293-5.562-15.582-13.162l-4.828-28.478
		c-4.05-23.95-24.79-41.47-49.08-41.47c0,0-7.243,0.005-16.294,0.015c-18.081,0.019-35.724-6.446-48.998-18.724
		c-13.329-12.328-31.779-18.853-50.822-16.43c-8.902,1.132-17.076,4.036-24.261,8.282c-3.103,1.834-2.903,6.416,0.396,7.87
		c11.845,5.221,21.932,14.033,28.7,25.315c-66.229,12.442-128.133,42.911-178.632,88.492c-4.39,3.97,7.44,17.53,7.44,17.53h351.548
		c7.878,0,14.653-6.059,15.016-13.928C455.734,239.189,449.042,232.272,440.743,232.272z"/>
	<path style="fill:#85E1F9;" d="M455.363,246.892c0,8.07-6.55,14.62-14.62,14.62h-297.64c26.92-18.87,59.23-29.24,92.67-29.24
		h204.97C448.813,232.272,455.363,238.812,455.363,246.892z"/>
	<g>
		<circle style="fill:#4D4D4D;" cx="396.854" cy="223.025" r="6.68"/>
	</g>
	<path style="fill:#51CAF4;" d="M263.761,260.591l-19.47,19.47l0.193,0.193c12.766,12.766,33.463,12.766,46.228,0l19.663-19.663l0,0
		C297.503,247.719,276.633,247.719,263.761,260.591z"/>
</g>
</svg>