<?xml version="1.0" encoding="iso-8859-1"?>
<!-- Uploaded to: SVG Repo, www.svgrepo.com, Generator: SVG Repo Mixer Tools -->
<!DOCTYPE svg PUBLIC "-//W3C//DTD SVG 1.1//EN" "http://www.w3.org/Graphics/SVG/1.1/DTD/svg11.dtd">
<svg height="800px" width="800px" version="1.1" id="Capa_1" xmlns="http://www.w3.org/2000/svg" xmlns:xlink="http://www.w3.org/1999/xlink" 
	 viewBox="0 0 444.179 444.179" xml:space="preserve">
<g>
	<path style="fill:#F9D25B;" d="M444.179,197.119c-31.63,31.61-71.51,49.9-112.72,54.87c-7.68,0.93-15.41,1.4-23.14,1.4
		c-2.04,0-4.09-0.03-6.13-0.1c-21.7-0.69-43.31-5.03-63.82-13.03c-24.01-9.37-46.52-23.75-65.91-43.14
		c43.42-43.42,102.44-61.72,159-54.88C372.669,147.209,412.549,165.499,444.179,197.119z"/>
	<path style="fill:#F9D25B;" d="M175.198,197.804L175.198,197.804c-45.043,0-81.558,36.515-81.558,81.558v93.641h0
		c45.043,0,81.558-36.515,81.558-81.558V197.804z"/>
	<path style="fill:#F9D25B;" d="M175.198,197.804L175.198,197.804c0-45.043-36.515-81.558-81.558-81.558H0v0
		c0,45.043,36.515,81.558,81.558,81.558H175.198z"/>
	<path style="fill:#F7B66F;" d="M444.177,197.114c-31.625,31.614-71.512,49.909-112.716,54.872
		c-8.099-16.57-12.631-35.191-12.631-54.872s4.533-38.302,12.631-54.873C372.664,147.206,412.552,165.501,444.177,197.114z"/>
	<path style="fill:#F9D25B;" d="M316.617,143.622L316.617,143.622c0-40.011-32.435-72.446-72.446-72.446h-83.178v0
		c0,40.011,32.435,72.446,72.446,72.446H316.617z"/>
	<g>
		<circle style="fill:#FFFFFF;" cx="369.324" cy="197.115" r="30.244"/>
		<circle style="fill:#4D4D4D;" cx="369.324" cy="197.115" r="18.504"/>
	</g>
	<path style="fill:#DDB850;" d="M302.209,253.279l-0.02,0.01c-21.7-0.69-43.31-5.03-63.82-13.03
		c6.12-4.89,28.526-15.182,39.426-11.732c17.02,5.39,9.994-1.008,9.994-1.008L302.209,253.279z"/>
	<path style="fill:#F9D25B;" d="M287.793,227.517L287.793,227.517c-27.364,0-49.547,22.183-49.547,49.547v56.887h0
		c27.364,0,49.547-22.183,49.547-49.547V227.517z"/>
</g>
</svg>