<!DOCTYPE svg PUBLIC "-//W3C//DTD SVG 1.1//EN" "http://www.w3.org/Graphics/SVG/1.1/DTD/svg11.dtd">
<!-- Uploaded to: SVG Repo, www.svgrepo.com, Transformed by: SVG Repo Mixer Tools -->
<svg version="1.1" id="Layer_1" xmlns="http://www.w3.org/2000/svg" xmlns:xlink="http://www.w3.org/1999/xlink" viewBox="0 0 512 512" xml:space="preserve" width="800px" height="800px" fill="#000000" transform="rotate(90)">
<g id="SVGRepo_bgCarrier" stroke-width="0"/>
<g id="SVGRepo_tracerCarrier" stroke-linecap="round" stroke-linejoin="round"/>
<g id="SVGRepo_iconCarrier"> <path style="fill:#AA3E51;" d="M400.696,261.719c0-22.045-17.871-39.916-39.916-39.916l-40.594,37.536l40.594,42.296 C382.825,301.635,400.696,283.764,400.696,261.719z"/> <g> <path style="fill:#F72349;" d="M111.304,261.719c0,22.045,17.871,39.916,39.916,39.916l33.916-43.038l-33.916-36.795 C129.175,221.802,111.304,239.674,111.304,261.719z"/> <path style="fill:#F72349;" d="M456.348,359.789h-33.391h-33.391v35.341c0,9.207-7.49,16.696-16.696,16.696 c-9.207,0-16.696-7.489-16.696-16.696v-93.496h4.606V104.78C360.78,46.91,313.868,0,256,0l-83.478,210.365L256,395.13 C256,459.572,308.427,512,372.87,512s116.87-52.428,116.87-116.87v-35.341H456.348z"/> </g> <g> <path style="fill:#FB5858;" d="M372.87,445.217c-27.619,0-50.087-22.468-50.087-50.087v-93.496h-33.391v93.496 c0,46.03,37.448,83.478,83.478,83.478s83.478-37.448,83.478-83.478v-79.863h-33.391v79.863 C422.957,422.749,400.487,445.217,372.87,445.217z"/> <path style="fill:#FB5858;" d="M151.22,104.78l16.107,16.542l-16.107,16.849v163.464h4.606v93.496 c0,9.207-7.49,16.696-16.696,16.696s-16.696-7.489-16.696-16.696v-35.341H89.043H55.652H22.261v35.341 c0,64.442,52.428,116.87,116.87,116.87S256,459.572,256,395.13V0C198.132,0,151.22,46.91,151.22,104.78z"/> </g> <path style="fill:#FF835D;" d="M139.13,478.609c46.03,0,83.478-37.448,83.478-83.478v-93.496h-33.391v93.496 c0,27.619-22.469,50.087-50.087,50.087s-50.087-22.468-50.087-50.087v-79.863H55.652v79.863 C55.652,441.16,93.101,478.609,139.13,478.609z"/> <g> <rect x="151.218" y="104.782" style="fill:#F72349;" width="33.391" height="33.391"/> <rect x="189.217" y="166.957" style="fill:#F72349;" width="33.391" height="33.391"/> </g> </g>
</svg>