<?xml version="1.0" encoding="iso-8859-1"?>
<!-- Uploaded to: SVG Repo, www.svgrepo.com, Generator: SVG Repo Mixer Tools -->
<svg height="800px" width="800px" version="1.1" id="Layer_1" xmlns="http://www.w3.org/2000/svg" xmlns:xlink="http://www.w3.org/1999/xlink" 
	 viewBox="0 0 512 512" xml:space="preserve">
<g>
	<path style="fill:#FFB27A;" d="M314.839,366.194l-38.968,0.774L264.258,384l33.032,33.032
		C297.29,417.032,323.097,399.09,314.839,366.194z"/>
	<path style="fill:#FFB27A;" d="M222.968,334.452c0,24.774-26.839,49.548-41.29,49.548c-0.689,0-8.258-24.774-24.774-41.29
		c-24.774-24.774-36.129-28.903-51.484-64.516l11.57-9.463L222.968,334.452z"/>
</g>
<path style="fill:#ADA9A7;" d="M487.226,268.387l16.516-16.516c-8.258-24.774-65.032-99.097-165.161-99.097
	c-18.587,0-37.992,2.279-57.423,5.988c-19.413-25.748-49.347-63.795-58.189-63.795c-9.634,0-66.065,57.806-66.065,74.323
	c0,5.03,7.434,14.459,14.158,21.961c-39.282,14.514-69.662,27.587-80.223,27.587C67.097,218.839,53.677,128,0,128
	c0,54.194,16.516,75.871,16.516,107.355v8.258C16.516,275.097,0,296.774,0,350.968c53.677,0,67.097-90.839,90.839-90.839
	s114.581,115.613,214.71,115.613c104.258,0,206.452-69.505,206.452-90.839C512,262.194,487.226,268.387,487.226,268.387z"/>
<path style="fill:#D6AE90;" d="M305.548,375.742c46.927,0,93.403-14.092,130.364-31.525c-20.675-11.8-39.525-34.539-39.525-34.539
	s-49.548,24.774-165.161,0c-39.325-8.426-101.431-33.507-119.074-37.908C150.609,301.079,225.06,375.742,305.548,375.742z"/>
<path style="fill:#FFB27A;" d="M379.871,326.329l-33.032,16.516l-41.29-16.516c23.398-19.269,66.065-16.516,66.065-16.516
	L379.871,326.329z"/>
<circle style="fill:#464655;" cx="454.194" cy="251.871" r="16.516"/>
<path style="fill:#8C888A;" d="M475.99,211.495c-27.228-28.378-73.417-58.721-137.409-58.721c-100.129,0-224,66.065-247.742,66.065
	c-5.436,0-10.333-4.771-15.295-12.118c0.002-0.004,0.004-0.008,0.006-0.013c-5.204-7.702-10.479-18.213-16.529-29.079
	c-0.845,9.292-5.279,17.657-10.215,26.887c-5.726,10.701-11.645,21.774-11.645,34.968c0,13.193,5.919,24.266,11.645,34.968
	c4.936,9.229,9.37,17.595,10.215,26.887c6.049-10.866,11.325-21.377,16.529-29.079c-1.613-3.323-3.291-6.492-4.897-9.494
	c-4.677-8.742-8.717-16.299-8.717-23.283c0-4.686,1.823-9.633,4.434-15.019c10.133,12.829,27.103,23.05,57.502,10.89
	c34.29-13.716,203.771-34.373,256-8.258c2.425,1.212,4.904,2.248,7.41,3.194c-4.766,11.089-7.41,23.226-7.41,35.96
	c0,34.413,18.78,64.853,48.078,81.601c6.619-2.923,12.988-5.961,19.027-9.077c-30.377-12.019-50.589-40.192-50.589-72.525
	c0-11.292,2.556-22.01,7.084-31.717C430.812,238.834,459.338,229.608,475.99,211.495z"/>
</svg>