<?xml version="1.0" encoding="iso-8859-1"?>
<!-- Uploaded to: SVG Repo, www.svgrepo.com, Generator: SVG Repo Mixer Tools -->
<svg height="800px" width="800px" version="1.1" id="Layer_1" xmlns="http://www.w3.org/2000/svg" xmlns:xlink="http://www.w3.org/1999/xlink" 
	 viewBox="0 0 512 512" xml:space="preserve">
<path style="fill:#E46A53;" d="M310.047,66.477c-3.597-3.616-7.445-6.921-11.282-9.58c-26.082-16.834-61.582-1.723-75.484,12.189
	c-22.424,22.424-42.985,57.21-30.655,137.629c4.201,35.883,39.218,63.265,39.349,107.852c0.02,6.417-0.685,13.197-2.307,20.4
	c0,0-5.389,18.557-10.537,35.752c-0.01,0-0.01,0.01-0.01,0.01c-0.503-46.411-58.781-71.172-58.781-71.172l19.201-37.677
	l-44.718-33.526l24.782-23.865l-36.87-33.475l33.647-25.609l-25.003-34.181l41.515-24.902l-13.149-31.591l53.412-17.71L191.517,0
	c0,0,63.173,5.289,71.423,5.984C272.583,27.753,305.303,61.622,310.047,66.477z"/>
<path style="fill:#F4A026;" d="M387.207,159.806c-6.185,12.35-24.026,16.209-35.864,9.107
	c-11.161-6.696-36.712-21.609-36.712-21.609s-22.422-18.712-39.133-8.301c-8.698,4.48-18.313,20.623-8.192,36.711
	c0.675,1.481,10.406,13.59,10.406,13.59c25.054,30.161,32.216,83.986,12.2,117.693c-7.082,11.918-47.398,84.873-51.679,97.133
	c-4.967,14.235-8.562,24.509-8.029,33.647c1.532,26.686,16.35,41.988,40.638,41.988c24.127,0,31.058-8.915,37.606-20.571
	c5.762-10.245,4.493-23.835-3.083-33.032c-6.538-7.928-12.703-9.067-12.764-9.067h-0.353c-8.754,0-15.947-6.921-16.179-15.695
	c-0.232-8.895,6.8-16.299,15.695-16.531c2.155-0.041,21.387,0.071,38.472,20.792c16.108,19.543,18.647,47.408,6.317,69.339
	c-10.294,18.294-26.151,37-65.711,37c-19.997,0-37.485-6.71-50.551-19.412c-13.317-12.935-21.024-31.249-22.274-52.958
	c-0.896-15.544,4.05-29.719,9.782-46.119c1.642-4.684,4.826-15.061,8.1-26c0,0,0-0.01,0.01-0.01
	c5.148-17.197,10.537-35.752,10.537-35.752c1.622-7.203,2.327-13.983,2.307-20.4c-0.131-44.587-35.148-71.969-39.349-107.852
	c-12.331-80.42,8.231-115.205,30.655-137.629c13.902-13.912,49.399-29.02,75.484-12.189c11.172,7.737,22.394,20.964,27.521,31.169
	c9.923,19.765,12.945,22.343,56.001,48.547C392.355,140.454,389.746,154.729,387.207,159.806z"/>
<circle style="fill:#EB7830;" cx="284.594" cy="89.487" r="8.587"/>
</svg>