<?xml version="1.0" encoding="iso-8859-1"?>
<!-- Uploaded to: SVG Repo, www.svgrepo.com, Generator: SVG Repo Mixer Tools -->
<!DOCTYPE svg PUBLIC "-//W3C//DTD SVG 1.1//EN" "http://www.w3.org/Graphics/SVG/1.1/DTD/svg11.dtd">
<svg height="800px" width="800px" version="1.1" id="Capa_1" xmlns="http://www.w3.org/2000/svg" xmlns:xlink="http://www.w3.org/1999/xlink" 
	 viewBox="0 0 448.745 448.745" xml:space="preserve">
<g>
	<path style="fill:#666666;" d="M448.745,225.814l-23.31,29.68l-1.23,1.57c-3.31,4.23-6.85,8.24-10.6,12.03
		c-19.4,19.66-44.23,33.31-71.5,39.02c-17.36,3.62-35.22,5.74-53.4,6.19c-15.14,0.38-30.51-0.39-46.01-2.39
		c-14.13-1.82-27.9-4.61-41.25-8.28c-46.55-12.77-88.05-36.3-122.11-67.44c61.67-51.32,143.68-77.83,229.52-66.76
		C361.435,176.224,409.025,196.294,448.745,225.814z"/>
	<path style="fill:#FFFFFF;" d="M425.435,255.494l-1.23,1.57c-3.31,4.23-6.85,8.24-10.6,12.03l-38.06-4.91
		c1.06-8.21,8.58-14.01,16.79-12.95L425.435,255.494z"/>
	<path style="fill:#666666;" d="M1.521,177.118c-3.002-2.103-1.227-6.848,2.408-6.383c0.049,0.006,0.097,0.012,0.146,0.019
		c15.64,2.018,30.22,6.863,43.299,13.965c21.795,11.836,39.395,29.926,50.74,51.566c-10.823,37.016-38.102,66.095-72.514,80.043
		c-0.054,0.022-0.109,0.044-0.164,0.066c-3.816,1.528-7.013-3.198-4.213-6.207c14.78-15.885,25.525-35.769,30.337-58.189
		C44.831,221.541,26.783,194.814,1.521,177.118z"/>
	<path style="fill:#666666;" d="M235.143,113.291l4.432,79.731l51.735-8.097c4.458-35.008-20.273-67.026-55.286-71.543
		C235.73,113.344,235.438,113.325,235.143,113.291z"/>
	<path style="fill:#333333;" d="M371.037,212.967c-0.656,5.084,2.934,9.737,8.018,10.392s9.737-2.934,10.392-8.018"/>
	<path style="fill:#333333;" d="M319.549,272.593c-0.849-0.11-1.646-0.58-2.144-1.358c-11.416-17.826-8.061-37.097-7.913-37.909
		c0.298-1.63,1.858-2.697,3.491-2.412c1.628,0.298,2.707,1.858,2.412,3.486c-0.037,0.21-3.034,17.835,7.062,33.599
		c0.894,1.395,0.487,3.251-0.908,4.144C320.931,272.54,320.223,272.68,319.549,272.593z"/>
	<path style="fill:#333333;" d="M332.853,269.772c-0.849-0.11-1.646-0.58-2.144-1.358c-11.416-17.826-8.061-37.097-7.913-37.909
		c0.299-1.629,1.87-2.687,3.491-2.412c1.628,0.298,2.707,1.858,2.412,3.486c-0.037,0.21-3.034,17.835,7.062,33.599
		c0.894,1.395,0.487,3.251-0.908,4.144C334.235,269.719,333.527,269.859,332.853,269.772z"/>
	<path style="fill:#4D4D4D;" d="M288.708,314.3c-15.144,0.385-30.511-0.387-46.013-2.387c-14.133-1.823-27.9-4.607-41.25-8.276
		l22.433-19.057l23.791-0.591l29.387,0.111C277.056,284.101,291.985,298.742,288.708,314.3z"/>
	<path style="fill:#666666;" d="M254.342,267.698L254.342,267.698c16.093,2.076,27.456,16.805,25.38,32.898v0
		c-1.645,12.754-11.394,22.956-24.059,25.179l-55.136,9.679l23.355-50.875C229.246,272.892,241.588,266.052,254.342,267.698z"/>
</g>
</svg>