<!DOCTYPE svg PUBLIC "-//W3C//DTD SVG 1.1//EN" "http://www.w3.org/Graphics/SVG/1.1/DTD/svg11.dtd">
<!-- Uploaded to: SVG Repo, www.svgrepo.com, Transformed by: SVG Repo Mixer Tools -->
<svg version="1.1" id="Capa_1" xmlns="http://www.w3.org/2000/svg" xmlns:xlink="http://www.w3.org/1999/xlink" viewBox="0 0 277 277" xml:space="preserve" width="800px" height="800px" fill="#000000" transform="rotate(90)">
<g id="SVGRepo_bgCarrier" stroke-width="0"/>
<g id="SVGRepo_tracerCarrier" stroke-linecap="round" stroke-linejoin="round"/>
<g id="SVGRepo_iconCarrier"> <g> <g> <path style="fill:#3FAE2A;" d="M184.96,195.667h-17.387v34.411c0,25.914,21.008,46.922,46.923,46.922l0,0v-51.798 C214.496,208.89,201.272,195.667,184.96,195.667z"/> <path style="fill:#379624;" d="M214.496,268.63c-22.237-3.686-39.197-22.996-39.197-46.278v-26.686h-7.726v34.411 c0,25.914,21.008,46.922,46.923,46.922V268.63z"/> <circle style="fill:#4A9C3B;" cx="199.77" cy="231.058" r="4.599"/> <circle style="fill:#4A9C3B;" cx="202.234" cy="250.037" r="7.063"/> </g> <g> <path style="fill:#3FAE2A;" d="M92.04,195.667c-16.312,0-29.536,13.224-29.536,29.535V277c25.915,0,46.922-21.008,46.922-46.922 v-34.411H92.04z"/> <path style="fill:#379624;" d="M62.504,268.63c22.237-3.686,39.197-22.996,39.197-46.278v-26.686h7.725v34.411 c0,25.914-21.008,46.922-46.922,46.922V268.63z"/> <circle style="fill:#4A9C3B;" cx="78.103" cy="252.499" r="7.432"/> <circle style="fill:#4A9C3B;" cx="85.743" cy="224.333" r="10.099"/> </g> <g> <path style="fill:#3FAE2A;" d="M231.135,104.981c-11.534-11.535-30.235-11.535-41.77,0l-12.295,12.295l24.332,24.332 c18.325,18.324,48.034,18.324,66.358,0L231.135,104.981z"/> <path style="fill:#379624;" d="M261.844,135.69c-18.33,13.118-43.978,11.455-60.44-5.008l-18.869-18.869l-5.463,5.463 l24.332,24.332c18.325,18.324,48.034,18.324,66.358,0L261.844,135.69z"/> <circle style="fill:#4A9C3B;" cx="226.494" cy="115.754" r="5.687"/> <circle style="fill:#4A9C3B;" cx="233.494" cy="135.278" r="3.409"/> <circle style="fill:#4A9C3B;" cx="242.244" cy="129.249" r="3.409"/> </g> <g> <path style="fill:#3FAE2A;" d="M87.634,104.981c-11.535-11.535-30.235-11.535-41.77,0L9.238,141.608h0 c18.324,18.324,48.034,18.324,66.358,0l24.332-24.332L87.634,104.981z"/> <path style="fill:#379624;" d="M15.156,135.69c18.33,13.118,43.978,11.455,60.44-5.008l18.869-18.869l5.463,5.463l-24.332,24.332 c-18.325,18.324-48.034,18.324-66.358,0L15.156,135.69z"/> <circle style="fill:#4A9C3B;" cx="38.494" cy="131.528" r="5.687"/> <circle style="fill:#4A9C3B;" cx="56.749" cy="115.754" r="7.432"/> </g> <g> <path style="fill:#3FAE2A;" d="M138.5,0L138.5,0c-18.061,0-32.703,14.642-32.703,32.703v50.702h65.405V32.703 C171.203,14.642,156.561,0,138.5,0z"/> <g> <circle style="fill:#FFFFFF;" cx="171.203" cy="34.333" r="12.087"/> <circle style="fill:#5F4637;" cx="171.203" cy="34.333" r="6.043"/> </g> <g> <circle style="fill:#FFFFFF;" cx="105.797" cy="34.333" r="12.087"/> <circle style="fill:#5F4637;" cx="105.797" cy="34.333" r="6.043"/> </g> <circle style="fill:#4A9C3B;" cx="156.033" cy="53.853" r="3.409"/> <circle style="fill:#4A9C3B;" cx="125.316" cy="53.853" r="7.432"/> <circle style="fill:#4A9C3B;" cx="144.5" cy="32.333" r="10.186"/> </g> <path style="fill:#A75A29;" d="M138.5,247.999L138.5,247.999c-41.148,0-74.506-33.356-74.506-74.505v-36.286 c0-41.148,33.357-74.506,74.506-74.506l0,0c41.148,0,74.506,33.357,74.506,74.506v36.286 C213.006,214.643,179.648,247.999,138.5,247.999z"/> <path style="fill:#E89E6C;" d="M138.5,233.891c-33.303,0-60.397-27.094-60.397-60.396v-36.286 c0-33.304,27.094-60.397,60.396-60.397c33.303,0,60.397,27.093,60.397,60.397v36.286 C198.896,206.797,171.803,233.891,138.5,233.891z"/> <circle style="fill:#BD8158;" cx="138.5" cy="155.351" r="29.51"/> <rect x="78.103" y="152.976" style="fill:#BD8158;" width="120.793" height="4.75"/> <path style="fill:#BD8158;" d="M97.201,120.334c0-6.897-3.668-12.922-9.148-16.279c-6.28,9.525-9.949,20.915-9.949,33.154v2.223 C88.65,139.431,97.201,130.88,97.201,120.334z M78.103,171.272v2.223c0,12.237,3.669,23.629,9.949,33.153 c5.48-3.357,9.148-9.382,9.148-16.279C97.201,179.822,88.65,171.272,78.103,171.272z M138.499,114.972 c17.281,0,32.732-7.811,43.034-20.087c-10.963-11.146-26.202-18.073-43.034-18.073c-16.831,0-32.07,6.928-43.034,18.073 C105.768,107.162,121.219,114.972,138.499,114.972z M188.948,104.055c-5.48,3.357-9.148,9.382-9.148,16.279 c0,10.547,8.55,19.098,19.097,19.098v-2.223C198.896,124.97,195.228,113.58,188.948,104.055z M179.799,190.369 c0,6.897,3.668,12.922,9.148,16.279c6.28-9.524,9.949-20.916,9.949-33.153v-2.223C188.35,171.272,179.799,179.822,179.799,190.369z M138.499,195.73c-17.28,0-32.731,7.811-43.034,20.088c10.964,11.146,26.202,18.073,43.034,18.073 c16.832,0,32.07-6.928,43.034-18.073C171.231,203.54,155.78,195.73,138.499,195.73z"/> </g> </g>
</svg>