<?xml version="1.0" standalone="no"?>
<!DOCTYPE svg PUBLIC "-//W3C//DTD SVG 20010904//EN"
 "http://www.w3.org/TR/2001/REC-SVG-20010904/DTD/svg10.dtd">
<svg version="1.0" xmlns="http://www.w3.org/2000/svg"
 width="1563.000000pt" height="1563.000000pt" viewBox="0 0 1563.000000 1563.000000"
 preserveAspectRatio="xMidYMid meet">
<metadata>
Created by potrace 1.14, written by Peter Selinger 2001-2017
</metadata>
<g transform="translate(0.000000,1563.000000) scale(0.100000,-0.100000)"
fill="#000000" stroke="none">
<path d="M6214 14795 c-827 -75 -1591 -311 -2320 -715 -172 -95 -499 -309
-659 -430 -434 -330 -835 -733 -1158 -1165 -624 -835 -1010 -1824 -1117 -2860
-16 -155 -20 -266 -20 -548 0 -460 16 -668 81 -1046 135 -788 438 -1542 892
-2221 558 -835 1333 -1515 2237 -1964 747 -371 1504 -563 2346 -596 559 -21
1115 37 1642 174 l130 33 5 -336 c4 -288 8 -349 25 -426 51 -231 156 -419 325
-582 138 -133 271 -214 447 -271 164 -54 87 -52 2190 -52 2148 0 2034 -3 2220
62 173 61 304 144 437 275 164 163 277 381 317 612 13 75 16 167 16 435 0 339
0 341 -24 393 -41 87 -140 142 -234 129 -54 -7 -88 -25 -133 -69 -65 -63 -69
-89 -69 -457 0 -291 -2 -335 -19 -403 -52 -201 -174 -353 -356 -443 -160 -79
-3 -74 -2152 -74 -2140 0 -1998 -5 -2148 70 -180 88 -305 241 -362 440 -17 62
-18 151 -18 2030 l0 1965 27 80 c31 91 83 182 146 255 48 55 166 139 239 171
119 51 44 49 2122 49 1900 0 1939 0 2015 -20 117 -30 208 -82 302 -175 89 -89
129 -151 171 -270 l28 -80 5 -840 5 -840 24 -48 c37 -75 120 -127 203 -127 92
0 196 78 219 163 6 24 9 330 6 885 -4 913 -1 872 -57 1042 -108 327 -386 605
-714 715 -161 54 -189 57 -674 62 -414 5 -452 7 -448 22 24 84 79 423 100 616
71 656 21 1365 -144 2025 -226 908 -702 1799 -1318 2466 -59 64 -119 130 -133
147 -38 45 -346 329 -459 424 -241 201 -561 424 -820 573 -150 86 -484 251
-633 314 -302 128 -699 254 -1017 322 -159 34 -456 81 -665 105 -156 17 -870
20 -1051 4z m711 -445 c958 -41 1835 -317 2647 -833 467 -297 923 -707 1278
-1151 601 -749 982 -1624 1120 -2566 51 -356 70 -908 42 -1210 -24 -251 -83
-619 -123 -772 l-10 -38 -514 0 c-283 0 -515 2 -515 5 0 3 13 51 29 108 225
800 198 1705 -75 2516 -365 1084 -1146 1981 -2173 2495 -781 392 -1654 533
-2521 410 -1166 -166 -2207 -797 -2914 -1767 -262 -359 -499 -836 -625 -1258
-47 -154 -91 -340 -91 -383 0 -80 60 -173 134 -207 77 -35 187 -19 244 34 49
45 64 80 107 249 218 856 716 1602 1430 2137 906 681 2039 930 3140 689 716
-156 1368 -512 1890 -1033 635 -633 1021 -1430 1119 -2310 63 -558 17 -1052
-145 -1581 l-32 -104 -466 0 c-256 0 -518 -5 -581 -10 -274 -23 -519 -137
-715 -334 -133 -134 -216 -269 -275 -446 -56 -165 -60 -224 -60 -892 l0 -606
-77 -33 c-263 -110 -580 -201 -858 -248 -506 -85 -1095 -59 -1580 69 -306 81
-493 151 -775 291 -390 194 -699 416 -1005 724 -471 473 -794 1025 -981 1678
-52 183 -59 200 -106 244 -123 119 -325 63 -374 -103 -16 -55 -16 -60 6 -148
106 -436 318 -921 575 -1316 155 -239 427 -566 631 -759 698 -661 1573 -1064
2533 -1168 222 -24 692 -24 896 0 332 39 636 106 915 202 91 31 173 59 183 62
16 5 17 -24 17 -520 0 -289 -3 -528 -8 -531 -4 -2 -75 -23 -157 -45 -722 -198
-1530 -239 -2260 -115 -559 95 -1009 241 -1510 491 -382 192 -716 411 -1055
693 -151 126 -457 430 -599 595 -410 476 -746 1049 -965 1645 -300 812 -396
1742 -271 2606 231 1597 1200 3022 2609 3837 560 324 1193 549 1821 646 282
44 388 53 795 69 19 1 134 -3 255 -8z"/>
<path d="M8165 11146 c-5 -2 -43 -12 -84 -21 -108 -25 -213 -72 -319 -144
-469 -315 -1014 -829 -1450 -1366 -127 -157 -294 -381 -386 -517 -44 -65 -83
-118 -87 -118 -4 0 -113 127 -242 283 -128 155 -258 303 -288 328 -112 94
-211 150 -349 194 -114 37 -310 46 -445 20 -294 -55 -536 -239 -670 -509 -75
-151 -98 -252 -98 -421 0 -168 23 -269 98 -420 52 -107 77 -137 767 -970 488
-588 734 -877 779 -915 327 -273 788 -297 1140 -59 160 108 282 266 364 474
15 39 64 142 108 230 310 622 726 1206 1182 1660 202 201 330 312 570 491 240
179 307 250 385 404 138 276 141 587 7 855 -120 240 -328 415 -584 491 -73 21
-114 26 -238 30 -82 2 -154 2 -160 0z m276 -472 c262 -77 412 -376 317 -632
-44 -119 -84 -163 -272 -305 -236 -177 -370 -291 -565 -482 -418 -410 -750
-832 -1064 -1356 -161 -269 -309 -552 -390 -748 -59 -145 -125 -224 -237 -285
-73 -40 -141 -56 -238 -56 -135 0 -255 52 -348 151 -60 64 -1333 1607 -1366
1656 -51 75 -71 147 -71 258 0 85 4 110 26 168 50 129 126 211 254 274 65 32
84 37 171 41 137 6 239 -25 336 -102 21 -17 187 -211 369 -431 181 -220 342
-410 356 -422 40 -34 120 -57 173 -49 65 10 131 56 171 118 226 353 392 589
572 813 380 474 787 872 1228 1204 173 129 218 157 295 182 73 23 209 25 283
3z"/>
<path d="M10197 6544 c-305 -55 -569 -289 -669 -594 -53 -163 -51 -383 4 -544
54 -158 113 -242 322 -454 l170 -172 -175 -178 c-189 -191 -218 -228 -279
-352 -62 -130 -84 -242 -78 -408 5 -118 10 -150 36 -232 47 -142 108 -238 221
-350 53 -52 126 -112 161 -133 305 -177 675 -162 959 40 36 26 140 120 231
209 l165 163 175 -173 c188 -185 261 -241 380 -292 118 -49 217 -69 350 -68
241 2 441 86 614 258 267 264 330 670 157 1014 -52 104 -96 157 -283 347
l-157 161 170 169 c221 222 289 323 341 510 30 111 31 325 0 436 -85 313 -312
541 -629 631 -63 18 -104 22 -213 23 -136 0 -196 -9 -298 -46 -153 -55 -234
-115 -441 -323 l-165 -165 -180 177 c-124 121 -205 192 -256 224 -193 120
-412 162 -633 122z m283 -466 c97 -30 135 -60 395 -319 168 -167 273 -264 297
-274 50 -20 134 -19 183 4 27 12 128 106 295 273 221 222 264 260 320 286 223
107 470 22 573 -196 29 -61 32 -76 32 -162 0 -105 -16 -162 -68 -240 -17 -25
-142 -157 -278 -295 -160 -162 -253 -263 -264 -287 -19 -48 -19 -128 0 -176
10 -24 107 -129 274 -297 142 -143 270 -280 284 -305 122 -211 39 -479 -181
-587 -53 -26 -66 -28 -177 -28 -184 0 -181 -2 -510 324 -258 257 -273 270
-327 286 -61 17 -110 14 -163 -12 -16 -9 -147 -131 -290 -274 -233 -231 -268
-261 -330 -291 -67 -31 -76 -33 -185 -33 -108 0 -119 2 -180 31 -164 79 -257
257 -229 437 19 121 40 150 324 437 159 162 269 281 280 305 25 52 25 147 0
195 -9 19 -135 154 -280 300 -286 289 -306 317 -324 442 -17 122 22 252 103
345 45 51 161 111 237 123 60 9 136 4 189 -12z"/>
</g>
</svg>
