<svg xmlns="http://www.w3.org/2000/svg" width="171.76999999999998" height="35" viewBox="0 0 171.76999999999998 35"><rect class="svg__rect" x="0" y="0" width="112.73" height="35" fill="#31C4F3"/><rect class="svg__rect" x="110.73" y="0" width="61.03999999999999" height="35" fill="#EA4560"/><path class="svg__text" d="M15.70 22L14.22 22L14.22 13.47L17.48 13.47Q18.91 13.47 19.75 14.21Q20.59 14.96 20.59 16.18L20.59 16.18Q20.59 17.44 19.77 18.13Q18.95 18.83 17.46 18.83L17.46 18.83L15.70 18.83L15.70 22ZM15.70 14.66L15.70 17.64L17.48 17.64Q18.27 17.64 18.69 17.27Q19.10 16.90 19.10 16.19L19.10 16.19Q19.10 15.50 18.68 15.09Q18.26 14.68 17.52 14.66L17.52 14.66L15.70 14.66ZM30.23 22L24.88 22L24.88 13.47L26.36 13.47L26.36 20.82L30.23 20.82L30.23 22ZM35.14 22L33.59 22L36.82 13.47L38.15 13.47L41.38 22L39.83 22L39.13 20.01L35.83 20.01L35.14 22ZM37.48 15.28L36.24 18.82L38.72 18.82L37.48 15.28ZM47.37 18.86L44.50 13.47L46.15 13.47L48.11 17.51L50.08 13.47L51.72 13.47L48.86 18.86L48.86 22L47.37 22L47.37 18.86ZM63.09 22L61.61 22L61.61 13.47L63.09 13.47L63.09 17.02L66.90 17.02L66.90 13.47L68.38 13.47L68.38 22L66.90 22L66.90 18.21L63.09 18.21L63.09 22ZM78.70 22L73.12 22L73.12 13.47L78.66 13.47L78.66 14.66L74.60 14.66L74.60 17.02L78.11 17.02L78.11 18.19L74.60 18.19L74.60 20.82L78.70 20.82L78.70 22ZM84.38 22L82.89 22L82.89 13.47L85.89 13.47Q87.37 13.47 88.17 14.13Q88.98 14.79 88.98 16.05L88.98 16.05Q88.98 16.90 88.56 17.48Q88.15 18.06 87.41 18.37L87.41 18.37L89.33 21.92L89.33 22L87.74 22L86.03 18.71L84.38 18.71L84.38 22ZM84.38 14.66L84.38 17.52L85.90 17.52Q86.65 17.52 87.07 17.15Q87.49 16.77 87.49 16.11L87.49 16.11Q87.49 15.43 87.10 15.05Q86.72 14.68 85.94 14.66L85.94 14.66L84.38 14.66ZM98.95 22L93.37 22L93.37 13.47L98.91 13.47L98.91 14.66L94.85 14.66L94.85 17.02L98.36 17.02L98.36 18.19L94.85 18.19L94.85 20.82L98.95 20.82L98.95 22Z" fill="#FFFFFF"/><path class="svg__text" d="M124.85 18.26L124.85 18.26L124.85 13.60L127.23 13.60L127.23 18.19Q127.23 20.20 128.82 20.20L128.82 20.20Q130.40 20.20 130.40 18.19L130.40 18.19L130.40 13.60L132.75 13.60L132.75 18.26Q132.75 20.13 131.71 21.15Q130.67 22.17 128.80 22.17L128.80 22.17Q126.92 22.17 125.88 21.15Q124.85 20.13 124.85 18.26ZM140.16 22L137.83 22L137.83 13.60L139.79 13.60L143.50 18.07L143.50 13.60L145.82 13.60L145.82 22L143.87 22L140.16 17.52L140.16 22ZM150.56 17.80L150.56 17.80Q150.56 16.55 151.16 15.55Q151.77 14.56 152.83 14.00Q153.89 13.43 155.22 13.43L155.22 13.43Q156.55 13.43 157.62 14.00Q158.68 14.56 159.29 15.55Q159.89 16.55 159.89 17.80L159.89 17.80Q159.89 19.05 159.29 20.04Q158.68 21.04 157.62 21.60Q156.56 22.17 155.22 22.17L155.22 22.17Q153.89 22.17 152.83 21.60Q151.77 21.04 151.16 20.04Q150.56 19.05 150.56 17.80ZM152.96 17.80L152.96 17.80Q152.96 18.51 153.26 19.05Q153.56 19.60 154.07 19.90Q154.59 20.20 155.22 20.20L155.22 20.20Q155.86 20.20 156.38 19.90Q156.89 19.60 157.19 19.05Q157.49 18.51 157.49 17.80L157.49 17.80Q157.49 17.09 157.19 16.54Q156.89 16 156.38 15.70Q155.86 15.40 155.22 15.40L155.22 15.40Q154.58 15.40 154.07 15.70Q153.56 16 153.26 16.54Q152.96 17.09 152.96 17.80Z" fill="#FFFFFF" x="123.73"/></svg>