<?xml version="1.0"?>
<svg xmlns="http://www.w3.org/2000/svg" xmlns:xlink="http://www.w3.org/1999/xlink" version="1.1" id="Capa_1" x="0px" y="0px" width="512px" height="512px" viewBox="0 0 419.901 419.901" style="enable-background:new 0 0 419.901 419.901;" xml:space="preserve" class=""><g><g>
	<path d="M335.726,59.54H84.186c-12.102,0-21.942,9.84-21.942,21.936v256.947c0,12.105,9.84,21.951,21.942,21.951h251.54   c12.093,0,21.934-9.84,21.934-21.951V81.476C357.659,69.38,347.818,59.54,335.726,59.54z M262.796,158.644l-83.671,64.322   c-0.624,0.481-1.361,0.719-2.083,0.713c-0.712,0-1.434-0.225-2.052-0.688c-1.23-0.908-1.69-2.539-1.13-3.971l16.831-42.6H92.092   c-1.885,0-3.431-1.522-3.413-3.41v-34.139c-0.006-1.885,1.528-3.404,3.419-3.419l98.592,0.015l-16.824-42.6   c-0.56-1.428-0.101-3.051,1.129-3.979c1.221-0.929,2.911-0.929,4.135,0.012l83.665,64.323c0.84,0.648,1.333,1.659,1.333,2.712   C264.123,157.003,263.624,158.007,262.796,158.644z M376.876,0H43.026C21.251,0,3.586,17.658,3.586,39.43v341.026   c0,21.787,17.665,39.445,39.439,39.445h333.85c21.775,0,39.439-17.658,39.439-39.445V39.43C416.315,17.658,398.651,0,376.876,0z    M373.21,338.423c0,20.666-16.818,37.491-37.484,37.491H84.186c-20.67,0-37.494-16.818-37.494-37.491V81.476   c0-20.663,16.818-37.488,37.494-37.488h251.54c20.66,0,37.484,16.818,37.484,37.488V338.423z" data-original="#000000" class="active-path" data-old_color="#000000" fill="#FF0000"/>
</g></g> </svg>
