<?xml version="1.0"?>
<svg xmlns="http://www.w3.org/2000/svg" xmlns:xlink="http://www.w3.org/1999/xlink" version="1.1" id="Capa_1" x="0px" y="0px" width="512px" height="512px" viewBox="0 0 377.338 377.338" style="enable-background:new 0 0 377.338 377.338;" xml:space="preserve"><g><g>
	<path d="M301.688,53.505H75.648c-10.875,0-19.724,8.843-19.724,19.713v230.904c0,10.873,8.843,19.722,19.724,19.722h226.04   c10.873,0,19.722-8.844,19.722-19.722V73.218C321.403,62.348,312.561,53.505,301.688,53.505z M78.585,134.592l75.189-57.792   c0.561-0.438,1.224-0.646,1.873-0.646c0.64,0,1.289,0.208,1.843,0.624c1.104,0.81,1.519,2.284,1.015,3.568l-15.124,38.282h88.599   c1.69,0,3.081,1.368,3.063,3.065v30.679c0.006,1.688-1.373,3.053-3.069,3.064l-88.6-0.011l15.12,38.285   c0.502,1.28,0.086,2.746-1.015,3.578c-1.106,0.831-2.62,0.831-3.717-0.011l-75.178-57.817c-0.756-0.588-1.2-1.488-1.2-2.44   C77.385,136.064,77.834,135.168,78.585,134.592z M338.675,0H38.66C19.093,0,3.223,15.869,3.223,35.434v306.462   c0,19.573,15.87,35.442,35.437,35.442h300.019c19.569,0,35.437-15.869,35.437-35.442V35.434C374.115,15.869,358.248,0,338.675,0z    M335.379,304.122c0,18.572-15.113,33.691-33.691,33.691H75.648c-18.574,0-33.694-15.114-33.694-33.691V73.218   c0-18.569,15.114-33.688,33.694-33.688h226.04c18.572,0,33.691,15.114,33.691,33.688V304.122z" data-original="#000000" class="active-path" data-old_color="#000000" fill="#FF0000"/>
</g></g> </svg>
