<?xml version="1.0" standalone="no"?>
<!DOCTYPE svg PUBLIC "-//W3C//DTD SVG 20010904//EN"
 "http://www.w3.org/TR/2001/REC-SVG-20010904/DTD/svg10.dtd">
<svg version="1.0" xmlns="http://www.w3.org/2000/svg"
 width="1024.000000pt" height="1024.000000pt" viewBox="0 0 1024.000000 1024.000000"
 preserveAspectRatio="xMidYMid meet">
<metadata>
Created by potrace 1.11, written by Peter Selinger 2001-2013
</metadata>
<g transform="translate(0.000000,1024.000000) scale(0.100000,-0.100000)"
fill="#000000" stroke="none">
<path d="M6220 9235 c-158 -38 -284 -130 -372 -270 -14 -22 -44 -92 -67 -155
-24 -63 -47 -124 -51 -135 -5 -11 -21 -54 -35 -95 -14 -41 -44 -122 -65 -180
-21 -58 -68 -188 -105 -290 -37 -102 -71 -194 -75 -205 -8 -18 -54 -144 -180
-495 -189 -524 -249 -682 -250 -658 0 7 -52 154 -135 378 -31 85 -72 198 -90
250 -19 52 -43 120 -55 150 -12 30 -28 75 -36 100 -8 25 -19 54 -24 65 -5 11
-60 160 -121 330 -125 348 -145 396 -187 457 -70 100 -144 159 -272 217 -103
46 -317 47 -415 1 -11 -5 -78 -30 -150 -55 -153 -55 -171 -62 -770 -279 -253
-92 -469 -171 -480 -175 -11 -5 -36 -14 -55 -21 -19 -7 -44 -16 -55 -20 -11
-4 -67 -25 -125 -45 -58 -21 -114 -41 -125 -45 -11 -5 -54 -20 -95 -35 -41
-15 -84 -30 -95 -34 -46 -19 -136 -51 -220 -81 -49 -17 -99 -35 -110 -40 -23
-10 -238 -89 -275 -100 -149 -47 -805 -297 -847 -322 -168 -101 -273 -278
-279 -473 -1 -49 1 -111 6 -136 7 -37 347 -992 395 -1109 8 -19 71 -192 140
-385 69 -192 130 -359 135 -370 5 -11 16 -40 24 -65 8 -25 19 -56 24 -70 6
-14 29 -74 51 -135 22 -60 67 -186 101 -280 76 -207 130 -356 180 -495 21 -58
61 -168 90 -245 28 -77 67 -183 85 -235 19 -52 82 -225 140 -385 59 -159 113
-310 121 -335 8 -25 19 -54 24 -65 5 -11 20 -51 33 -90 14 -38 41 -113 60
-165 19 -52 65 -178 102 -280 37 -102 92 -252 122 -335 30 -82 66 -181 80
-220 87 -241 115 -301 177 -377 70 -86 206 -170 318 -195 18 -4 80 -7 138 -7
116 1 105 -2 410 109 102 37 226 82 275 100 50 18 488 177 975 355 487 177
926 337 975 355 50 18 97 35 105 38 8 4 132 49 275 100 202 74 265 93 285 86
22 -7 92 -32 245 -89 28 -10 127 -46 220 -80 94 -34 179 -65 190 -70 11 -4 36
-13 55 -20 19 -7 44 -16 55 -20 129 -54 948 -342 991 -348 70 -11 179 -7 237
9 23 7 47 13 52 15 35 8 111 50 157 86 117 93 162 161 229 350 65 181 111 307
259 713 79 215 157 431 175 480 90 252 358 988 375 1030 8 19 93 254 123 340
34 98 149 413 162 445 8 19 53 143 101 275 48 132 104 287 125 345 20 58 62
173 92 255 154 420 383 1048 403 1105 12 36 37 103 54 150 77 208 81 221 85
337 10 247 -131 459 -372 561 -40 17 -73 29 -73 25 0 -3 -6 -1 -12 4 -7 5 -42
20 -78 32 -36 12 -74 26 -85 31 -11 5 -207 76 -435 159 -550 198 -425 153
-1490 541 -426 155 -824 301 -885 322 -345 126 -324 119 -430 123 -61 2 -121
-2 -155 -10z"/>
</g>
</svg>
