<svg xmlns="http://www.w3.org/2000/svg" width="500" height="500" viewBox="0 0 32 32"><g color="#000"><path fill="#373748" style="line-height:normal;text-indent:0;text-align:start;text-decoration-line:none;text-decoration-style:solid;text-decoration-color:#000;text-transform:none;block-progression:tb;isolation:auto;mix-blend-mode:normal" d="M.5 0a.5.5 0 00-.5.5v31a.5.5 0 00.5.5h31a.5.5 0 00.5-.5V.5a.5.5 0 00-.5-.5H.5zM1 1h30v30H1V1z" font-family="sans-serif" font-weight="400" overflow="visible"/><path fill="#5fd38d" style="isolation:auto;mix-blend-mode:normal" d="M1 1h12v12H1z" overflow="visible"/><path fill="#f2f2f2" style="isolation:auto;mix-blend-mode:normal" d="M3 3h8v8H3z" overflow="visible"/><path fill="#5fd38d" style="isolation:auto;mix-blend-mode:normal" d="M4 7.5h2.5V10H4zm3.5 0H10V10H7.5zM3 13v4h10v1l2-2.008L13 14v1H5v-2zm1-9h2.5v2.5H4zm3.5 0H10v2.5H7.5z" overflow="visible"/><path fill="#f55" style="isolation:auto;mix-blend-mode:normal" d="M1 31V19h12v12z" overflow="visible"/><path fill="#f2f2f2" style="isolation:auto;mix-blend-mode:normal" d="M3 29v-8h8v8z" overflow="visible"/><path fill="#f55" style="isolation:auto;mix-blend-mode:normal" d="M7.5 28v-2.5H10V28zm0-3.5V22H10v2.5zM13 29h4V19h1l-2.008-2L14 19h1v8h-2zM4 28v-2.5h2.5V28zm0-3.5V22h2.5v2.5z" overflow="visible"/><path fill="#2a7fff" style="isolation:auto;mix-blend-mode:normal" d="M31 1v12H19V1z" overflow="visible"/><path fill="#f2f2f2" style="isolation:auto;mix-blend-mode:normal" d="M29 3v8h-8V3z" overflow="visible"/><path fill="#2a7fff" style="isolation:auto;mix-blend-mode:normal" d="M24.5 4v2.5H22V4zm0 3.5V10H22V7.5zM19 3h-4v10h-1l2.008 2L18 13h-1V5h2zM28 4v2.5h-2.5V4zm0 3.5V10h-2.5V7.5z" overflow="visible"/><path fill="#ffd42a" style="isolation:auto;mix-blend-mode:normal" d="M31 31H19V19h12z" overflow="visible"/><path fill="#f2f2f2" style="isolation:auto;mix-blend-mode:normal" d="M29 29h-8v-8h8z" overflow="visible"/><path fill="#ffd42a" style="isolation:auto;mix-blend-mode:normal" d="M28 24.5h-2.5V22H28zm-3.5 0H22V22h2.5zM29 19v-4H19v-1l-2 2.008L19 18v-1h8v2zM28 28h-2.5v-2.5H28zm-3.5 0H22v-2.5h2.5z" overflow="visible"/></g></svg>