<?xml version="1.0" encoding="UTF-8"?>
<svg xmlns="http://www.w3.org/2000/svg" xmlns:xlink="http://www.w3.org/1999/xlink" width="100pt" height="100pt" viewBox="0 0 100 100" version="1.1">
<g id="surface8137571">
<path style=" stroke:none;fill-rule:nonzero;fill:rgb(19.607843%,87.843138%,76.862746%);fill-opacity:1;" d="M 50 4 C 48.558594 3.980469 47.214844 4.738281 46.488281 5.984375 C 45.761719 7.230469 45.761719 8.769531 46.488281 10.015625 C 47.214844 11.261719 48.558594 12.019531 50 12 C 71.035156 12 88 28.964844 88 50 C 88 71.035156 71.035156 88 50 88 C 28.964844 88 12 71.035156 12 50 C 12 39.046875 16.617188 29.214844 24 22.289062 L 24 30 C 23.980469 31.441406 24.738281 32.785156 25.984375 33.511719 C 27.230469 34.238281 28.769531 34.238281 30.015625 33.511719 C 31.261719 32.785156 32.019531 31.441406 32 30 L 32 8 L 10 8 C 8.558594 7.980469 7.214844 8.738281 6.488281 9.984375 C 5.761719 11.230469 5.761719 12.769531 6.488281 14.015625 C 7.214844 15.261719 8.558594 16.019531 10 16 L 19.050781 16 C 9.8125 24.417969 4 36.542969 4 50 C 4 75.359375 24.640625 96 50 96 C 75.359375 96 96 75.359375 96 50 C 96 24.640625 75.359375 4 50 4 Z M 50 4 "/>
</g>
</svg>
