<?xml version="1.0" standalone="no"?>
<!DOCTYPE svg PUBLIC "-//W3C//DTD SVG 20010904//EN"
 "http://www.w3.org/TR/2001/REC-SVG-20010904/DTD/svg10.dtd">
<svg version="1.0" xmlns="http://www.w3.org/2000/svg"
 width="580.000000pt" height="580.000000pt" viewBox="0 0 580.000000 580.000000"
 preserveAspectRatio="xMidYMid meet">
<metadata>
Created by potrace 1.11, written by Peter Selinger 2001-2013
</metadata>
<g transform="translate(0.000000,580.000000) scale(0.100000,-0.100000)"
fill="#000000" stroke="none">
<path d="M2815 5744 c-108 -61 -195 -109 -285 -157 -41 -22 -86 -47 -100 -56
-14 -9 -51 -30 -83 -46 -32 -17 -70 -40 -84 -53 -14 -13 -44 -35 -66 -49 -49
-31 -76 -61 -77 -86 0 -11 -5 -15 -11 -11 -6 3 -34 6 -62 5 -39 0 -71 -11
-132 -42 -44 -23 -92 -50 -107 -60 -14 -11 -29 -19 -32 -19 -4 0 -58 -29 -121
-65 -63 -36 -117 -65 -119 -65 -12 0 -133 -75 -146 -90 -8 -10 -35 -29 -60
-43 -26 -14 -53 -39 -64 -58 -18 -33 -21 -34 -80 -34 -60 0 -65 -2 -366 -168
-168 -93 -309 -174 -315 -181 -5 -6 -26 -21 -45 -33 -68 -42 -82 -65 -93 -155
-12 -90 -16 -600 -6 -713 7 -76 17 -105 51 -148 15 -18 19 -30 12 -35 -41 -27
-47 -84 -49 -442 -1 -386 4 -439 41 -493 l31 -43 -20 -26 c-30 -41 -39 -178
-34 -525 6 -349 11 -375 78 -425 62 -46 520 -320 552 -330 18 -6 39 -15 47
-19 73 -42 96 -50 126 -47 30 3 34 0 50 -34 21 -47 56 -82 116 -116 26 -15
138 -83 250 -151 112 -68 214 -130 228 -137 96 -50 170 -79 203 -79 34 0 39
-4 58 -43 18 -36 85 -102 103 -102 4 0 34 -18 67 -40 33 -22 62 -40 63 -40 2
0 88 -52 192 -115 103 -63 196 -115 207 -115 10 0 38 -11 62 -25 60 -36 117
-40 169 -13 22 12 64 32 91 43 51 22 566 326 597 353 10 8 27 36 39 62 20 45
23 47 49 37 23 -9 35 -6 76 17 27 15 69 35 94 43 36 12 330 182 557 322 30 18
51 42 69 79 24 48 29 52 56 48 19 -3 48 5 86 25 31 16 63 29 70 29 17 0 81 32
167 85 39 23 144 86 235 140 91 54 175 106 187 117 39 36 63 110 68 210 10
185 13 530 5 558 -5 17 -9 53 -11 82 -1 30 -10 68 -21 86 l-18 34 30 62 c29
59 32 73 36 197 9 257 10 508 1 531 -5 13 -10 51 -12 86 -2 37 -10 74 -20 89
-16 24 -16 27 14 87 28 55 32 72 36 171 10 259 9 550 -2 571 -7 11 -12 44 -11
72 0 79 -15 113 -68 146 -26 17 -58 40 -72 53 -20 19 -245 147 -563 321 -60
34 -100 43 -140 32 -22 -7 -28 -3 -43 24 -9 17 -36 44 -60 59 -24 15 -54 37
-68 50 -14 13 -157 97 -319 187 -288 161 -294 164 -349 162 -51 -2 -56 0 -72
27 -9 17 -36 42 -60 57 -23 14 -52 37 -63 49 -16 18 -195 121 -565 323 -25 13
-49 28 -54 33 -17 16 -39 9 -121 -37z"/>
</g>
</svg>
