<svg width="138" height="119" viewBox="0 0 138 119" fill="none" xmlns="http://www.w3.org/2000/svg">
<path d="M69.7877 111.344C108.536 131.494 130.656 102.155 136.872 84.9676C118.801 93.3264 107.173 87.4626 101.001 85.337C100.823 82.2741 80.669 73.2873 75.6909 73.3386C79.3044 68.7772 87.9473 69.126 94.5359 69.0582C78.8742 55.501 66.8985 58.5431 57.5281 58.6396C87.8883 20.9659 118.904 32.4678 136.369 36.3743C94.2231 -31.9301 41.1252 15.9018 26.4779 29.6252C41.0769 25.3884 45.504 28.6995 50.3704 32.006C15.4894 43.1649 6.73033 59.8925 1.71609 70.5978C33.3277 68.9588 49.4634 85.8678 62.8927 95.9454C56.1547 95.7229 48.1261 98.1406 42.016 101.998C44.9382 101.384 57.5765 105.778 69.7877 111.344Z" fill="#F23F0D" stroke="#FFF0"/>
</svg>
