<svg width="2354" height="575" viewBox="0 0 2354 575" fill="none" xmlns="http://www.w3.org/2000/svg">
<path d="M2246.54 574.862H45.6096C38.9706 574.862 33.1217 570.498 31.2317 564.134L0.621604 461.105C-0.727396 456.566 0.146622 451.658 2.97762 447.863C5.80862 444.069 10.2657 441.833 14.9997 441.833H1906.01C1908.1 441.833 2117.08 441.396 2335.93 405.301C2340.47 404.555 2345.1 405.926 2348.49 409.026C2351.88 412.126 2353.67 416.61 2353.33 421.194C2351.17 450.747 2322.14 506.751 2285.66 527.387L2259.11 568.061C2256.34 572.304 2251.61 574.862 2246.54 574.862ZM56.8017 544.862H2238.42L2262.65 507.745C2264.13 505.48 2266.19 503.658 2268.62 502.47C2280.82 496.504 2294.34 482.353 2305.72 463.647C2311.17 454.678 2315.33 446.038 2318.24 438.507C2105.3 471.439 1908.05 471.833 1906.02 471.833H35.1046L56.8017 544.862Z" fill="#331A00"/>
<path d="M893.48 471.833H806.021C797.737 471.833 791.021 465.117 791.021 456.833V248.341C791.021 243.446 793.409 238.859 797.419 236.052L884.878 174.833C889.459 171.626 895.446 171.234 900.407 173.817C905.368 176.4 908.48 181.528 908.48 187.122V456.833C908.48 465.117 901.764 471.833 893.48 471.833ZM821.02 441.833H878.479V215.931L821.02 256.151V441.833Z" fill="#331A00"/>
<path d="M893.48 263.34H806.021C797.737 263.34 791.021 256.624 791.021 248.34C791.021 240.056 797.737 233.34 806.021 233.34H893.48C901.764 233.34 908.48 240.056 908.48 248.34C908.48 256.624 901.764 263.34 893.48 263.34Z" fill="#331A00"/>
<path d="M1173.34 471.833H1085.89C1077.6 471.833 1070.89 465.117 1070.89 456.833V241.34C1070.89 236.445 1073.27 231.859 1077.28 229.051L1164.74 167.831C1169.32 164.623 1175.31 164.232 1180.27 166.815C1185.23 169.398 1188.34 174.526 1188.34 180.12V456.832C1188.34 465.117 1181.63 471.833 1173.34 471.833ZM1100.89 441.833H1158.34V208.93L1100.89 249.15V441.833Z" fill="#331A00"/>
<path d="M1173.34 256.34H1085.89C1077.6 256.34 1070.89 249.624 1070.89 241.34C1070.89 233.056 1077.6 226.34 1085.89 226.34H1173.34C1181.63 226.34 1188.34 233.056 1188.34 241.34C1188.34 249.624 1181.63 256.34 1173.34 256.34Z" fill="#331A00"/>
<path d="M806.021 258.998C797.737 258.998 791.021 252.282 791.021 243.998V155.07C791.021 146.786 797.737 140.07 806.021 140.07C814.305 140.07 821.021 146.786 821.021 155.07V243.998C821.021 252.282 814.306 258.998 806.021 258.998Z" fill="#331A00"/>
<path d="M1606.09 471.833H1503.29C1495.01 471.833 1488.29 465.117 1488.29 456.833V420.101C1488.29 411.817 1495.01 405.101 1503.29 405.101H1606.09C1614.37 405.101 1621.09 411.817 1621.09 420.101V456.833C1621.09 465.117 1614.37 471.833 1606.09 471.833ZM1518.29 441.833H1591.09V435.101H1518.29V441.833Z" fill="#331A00"/>
<path d="M1238.2 466.089H1173.34C1165.06 466.089 1158.34 459.373 1158.34 451.089V142.343C1158.34 134.059 1165.06 127.343 1173.34 127.343H1238.2C1246.48 127.343 1253.2 134.059 1253.2 142.343V451.089C1253.2 459.374 1246.48 466.089 1238.2 466.089ZM1188.34 436.089H1223.2V157.343H1188.34V436.089Z" fill="#331A00"/>
<path d="M1273.17 157.343H1173.34C1165.06 157.343 1158.34 150.627 1158.34 142.343C1158.34 134.059 1165.06 127.343 1173.34 127.343H1273.17C1281.45 127.343 1288.17 134.059 1288.17 142.343C1288.17 150.627 1281.45 157.343 1273.17 157.343Z" fill="#331A00"/>
<path d="M1173.34 171.759C1165.06 171.759 1158.34 165.043 1158.34 156.759V15C1158.34 6.716 1165.06 0 1173.34 0C1181.63 0 1188.34 6.716 1188.34 15V156.759C1188.34 165.044 1181.63 171.759 1173.34 171.759Z" fill="#331A00"/>
<path d="M1431.32 471.833C1431.31 471.833 1431.3 471.833 1431.3 471.833H1238.2C1229.91 471.833 1223.2 465.117 1223.2 456.833V358.845C1223.2 350.561 1229.91 343.845 1238.2 343.845H1417.8C1425.29 343.845 1431.64 349.375 1432.66 356.798L1446.04 453.974C1446.22 454.899 1446.32 455.855 1446.32 456.833C1446.32 465.117 1439.6 471.833 1431.32 471.833ZM1253.2 441.833H1414.09L1404.72 373.845H1253.2V441.833Z" fill="#331A00"/>
<path d="M1440.74 373.844H1238.2C1229.91 373.844 1223.2 367.128 1223.2 358.844C1223.2 350.56 1229.91 343.844 1238.2 343.844H1440.74C1449.03 343.844 1455.74 350.56 1455.74 358.844C1455.74 367.128 1449.03 373.844 1440.74 373.844Z" fill="#331A00"/>
<path d="M1262.51 256.34H1238.2C1229.91 256.34 1223.2 249.624 1223.2 241.34C1223.2 233.056 1229.91 226.34 1238.2 226.34H1262.51C1270.8 226.34 1277.51 233.056 1277.51 241.34C1277.51 249.624 1270.8 256.34 1262.51 256.34Z" fill="#331A00"/>
<path d="M1421.33 373.844H1238.2C1229.91 373.844 1223.2 367.128 1223.2 358.844V296.716C1223.2 288.432 1229.91 281.716 1238.2 281.716H1421.33C1429.62 281.716 1436.33 288.432 1436.33 296.716V358.844C1436.33 367.128 1429.62 373.844 1421.33 373.844ZM1253.2 343.844H1406.33V311.716H1253.2V343.844Z" fill="#331A00"/>
<path d="M1085.89 471.833H927.202C918.918 471.833 912.202 465.117 912.202 456.833V399.076C912.202 390.792 918.918 384.076 927.202 384.076H1085.89C1094.17 384.076 1100.89 390.792 1100.89 399.076V456.833C1100.89 465.117 1094.17 471.833 1085.89 471.833ZM942.202 441.833H1070.89V414.076H942.202V441.833Z" fill="#331A00"/>
<path d="M42.7045 471.836C40.6535 471.836 38.5685 471.413 36.5755 470.519C29.0165 467.129 25.6365 458.253 29.0265 450.694L70.7545 357.639C72.8255 353.021 77.0855 349.759 82.0825 348.963L159.157 336.69C167.338 335.39 175.027 340.963 176.329 349.145C177.632 357.326 172.055 365.015 163.873 366.317L94.8095 377.315L56.4005 462.97C53.9035 468.536 48.4335 471.836 42.7045 471.836Z" fill="#331A00"/>
<path d="M806.02 471.833H602.565C594.281 471.833 587.565 465.117 587.565 456.833V361.824C587.565 353.54 594.281 346.824 602.565 346.824H806.021C814.305 346.824 821.021 353.54 821.021 361.824V456.833C821.02 465.117 814.305 471.833 806.02 471.833ZM617.565 441.833H791.021V376.824H617.565V441.833Z" fill="#331A00"/>
<path d="M1606.09 434.707H1467.68C1459.4 434.707 1452.68 427.991 1452.68 419.707V379.287C1452.68 371.003 1459.4 364.287 1467.68 364.287H1592.59C1599.04 364.287 1604.77 368.414 1606.81 374.535L1620.32 414.955C1621.84 419.53 1621.08 424.56 1618.26 428.474C1615.44 432.387 1610.91 434.707 1606.09 434.707ZM1482.68 404.707H1585.26L1581.78 394.287H1482.68V404.707V404.707Z" fill="#331A00"/>
<path d="M1602.11 413.282C1594.53 413.282 1588.02 407.555 1587.21 399.85C1586.34 391.611 1592.32 384.23 1600.55 383.364L1746.01 368.058C1754.26 367.19 1761.63 373.168 1762.5 381.407C1763.37 389.646 1757.39 397.027 1749.15 397.893L1603.69 413.199C1603.16 413.254 1602.63 413.282 1602.11 413.282Z" fill="#331A00"/>
<path d="M575.77 468.378H437.365C432.542 468.378 428.012 466.059 425.194 462.145C422.375 458.231 421.61 453.201 423.138 448.625L436.639 408.204C438.683 402.083 444.413 397.956 450.867 397.956H575.771C584.055 397.956 590.771 404.672 590.771 412.956V453.378C590.77 461.662 584.055 468.378 575.77 468.378ZM458.19 438.378H560.771V427.957H461.671L458.19 438.378Z" fill="#331A00"/>
<path d="M441.347 446.952C440.823 446.952 440.293 446.924 439.759 446.868L294.3 431.563C286.061 430.696 280.085 423.314 280.952 415.076C281.819 406.838 289.194 400.865 297.439 401.728L442.898 417.033C451.137 417.9 457.113 425.282 456.246 433.52C455.436 441.226 448.927 446.952 441.347 446.952Z" fill="#331A00"/>
<path d="M1797.78 471.439H1659.38C1651.09 471.439 1644.38 464.723 1644.38 456.439V416.018C1644.38 407.734 1651.09 401.018 1659.38 401.018H1784.28C1790.74 401.018 1796.47 405.145 1798.51 411.266L1812.01 451.687C1813.54 456.262 1812.77 461.292 1809.96 465.207C1807.14 469.119 1802.61 471.439 1797.78 471.439ZM1674.38 441.439H1776.96L1773.48 431.018H1674.38V441.439H1674.38Z" fill="#331A00"/>
<path d="M1793.8 450.012C1786.22 450.012 1779.71 444.285 1778.9 436.58C1778.04 428.341 1784.01 420.96 1792.25 420.094L1937.71 404.788C1945.96 403.917 1953.33 409.898 1954.2 418.137C1955.06 426.376 1949.09 433.758 1940.85 434.624L1795.39 449.929C1794.86 449.985 1794.33 450.012 1793.8 450.012Z" fill="#331A00"/>
<path d="M1020.04 413.781H893.48C885.196 413.781 878.48 407.065 878.48 398.781V327.78C878.48 319.496 885.196 312.78 893.48 312.78H1020.04C1028.32 312.78 1035.04 319.496 1035.04 327.78V398.781C1035.04 407.066 1028.32 413.781 1020.04 413.781ZM908.48 383.781H1005.04V342.78H908.48V383.781Z" fill="#331A00"/>
<path d="M1341.08 373.844H1315.56C1307.27 373.844 1300.56 367.128 1300.56 358.844V254.889C1300.56 249.261 1303.71 244.106 1308.72 241.539C1313.73 238.974 1319.75 239.426 1324.32 242.714L1349.84 261.08C1353.76 263.899 1356.08 268.43 1356.08 273.255V358.844C1356.08 367.128 1349.36 373.844 1341.08 373.844Z" fill="#331A00"/>
<path d="M717.053 378.281H691.534C683.25 378.281 676.534 371.565 676.534 363.281V296.873C676.534 292.048 678.855 287.517 682.772 284.698L708.291 266.332C712.859 263.044 718.883 262.59 723.893 265.157C728.902 267.723 732.053 272.878 732.053 278.507V363.281C732.053 371.565 725.337 378.281 717.053 378.281Z" fill="#331A00"/>
<path d="M717.053 332.315H691.534C683.25 332.315 676.534 325.599 676.534 317.315C676.534 309.031 683.25 302.315 691.534 302.315H717.053C725.337 302.315 732.053 309.031 732.053 317.315C732.053 325.599 725.337 332.315 717.053 332.315Z" fill="#331A00"/>
<path d="M1238.2 389.476H1173.34C1165.06 389.476 1158.34 382.76 1158.34 374.476C1158.34 366.192 1165.06 359.476 1173.34 359.476H1238.2C1246.48 359.476 1253.2 366.192 1253.2 374.476C1253.2 382.76 1246.48 389.476 1238.2 389.476Z" fill="#331A00"/>
<path d="M1341.08 422.838H1238.2C1229.91 422.838 1223.2 416.122 1223.2 407.838C1223.2 399.554 1229.91 392.838 1238.2 392.838H1326.08V358.844C1326.08 350.56 1332.79 343.844 1341.08 343.844C1349.36 343.844 1356.08 350.56 1356.08 358.844V407.838C1356.08 416.123 1349.36 422.838 1341.08 422.838Z" fill="#331A00"/>
<path d="M893.48 424.328H602.565C594.281 424.328 587.565 417.612 587.565 409.328C587.565 401.044 594.281 394.328 602.565 394.328H893.48C901.764 394.328 908.48 401.044 908.48 409.328C908.48 417.612 901.764 424.328 893.48 424.328Z" fill="#331A00"/>
<path d="M1223.26 157.343C1214.97 157.343 1208.26 150.627 1208.26 142.343V97.1553C1208.26 88.8713 1214.97 82.1553 1223.26 82.1553C1231.54 82.1553 1238.26 88.8713 1238.26 97.1553V142.343C1238.26 150.628 1231.54 157.343 1223.26 157.343Z" fill="#331A00"/>
</svg>
