<svg xmlns="http://www.w3.org/2000/svg" viewBox="0 0 36 36"><path fill="#BB1A34" d="M22 0l-4 8-5-5v7L3 8l8 8-11 6h12L6 34.2l12-8 11 10-3-14h10l-8-6 8-9-12 3L22 0z"/><path fill="#FCAB40" d="M23 13l1.8-.5L30 11 26.6 15l-1.3 1.5 1.6 1.1 3 2.2h-6l.5 2.3 1.5 7.2-5.8-5.3-1-1-1.3.8-5.2 3.5 2.4-4.8 1.3-2.7H9.6l3.7-2 2.2-1.2-1.8-1.7-3-3 3.2.6 2.2.4V8.7l1.5 1.4 1.7 1.8 1.2-2.2L21.8 7"/><path fill="#F5F8FA" d="M21.5 14.3l.8-.2 2.1-.5L23 15l-.5.7.7.5 1.2.9h-2.5l.2.9.7 3-2.5-2.2-.4-.4-.5.3-2.2 1.4 1-2 .6-1H16l1.6-.9.8-.5-.7-.7-1.2-1.3 1.3.3.9.2v-1.7l.6.6.7.7.5-1 .5-1"/></svg>