<svg xmlns="http://www.w3.org/2000/svg" viewBox="0 0 36 36"><path fill="#939598" d="M0 34h36v2H0z"/><path fill="#231F20" d="M6 27h29v5H6z"/><circle fill="#58595B" cx="7" cy="32" r="3"/><circle fill="#58595B" cx="13" cy="32" r="3"/><circle fill="#A0041E" cx="7" cy="32" r="1.5"/><circle fill="#A0041E" cx="13" cy="32" r="1.5"/><path fill="#DD2E44" d="M5 33H1c-1 0-1.5-.5 0-2l4-4c1-1 2-2 2 0v4c0 2 0 2-2 2z"/><path fill="#231F20" d="M8 20c0 3.3-1.3 6-3 6s-3-2.7-3-6 1.3-6 3-6 3 2.7 3 6z"/><path fill="#6D6E71" d="M11 15H7L5 7h8z"/><path fill="#414042" d="M26 25a2 2 0 01-2 2H6a2 2 0 01-2-2V15c0-1.1.9-2 2-2h18a2 2 0 012 2v10z"/><path fill="#C1694F" d="M13 26a1 1 0 11-2 0V13a1 1 0 012 0v13zm6 0a1 1 0 11-2 0V13a1 1 0 112 0v13z"/><path fill="#808285" d="M36 26c0 .6-.4 1-1 1H7a1 1 0 110-2h28c.6 0 1 .4 1 1z"/><circle fill="#58595B" cx="30" cy="31" r="4"/><circle fill="#58595B" cx="22" cy="31" r="4"/><circle fill="#A0041E" cx="30" cy="31" r="2"/><circle fill="#A0041E" cx="22" cy="31" r="2"/><path fill="#414042" d="M12 3H6a1 1 0 00-1 1v3h8V4c0-.6-.4-1-1-1z"/><path fill="#BE1931" d="M23 7h12v18H23z"/><path fill="#A0041E" d="M36 6c0 .6-.4 1-1 1H23a1 1 0 110-2h12c.6 0 1 .4 1 1z"/><path fill="#EA596E" d="M25 18h8v5h-8z"/><path fill="#F4900C" d="M30 32h-8a1 1 0 01-.4 0l-4.8-2H10a1 1 0 110-2h7.4l4.8 2H30a1 1 0 110 2z"/><path fill="#55ACEE" d="M33 10c0-.6-.4-1-1-1h-6a1 1 0 00-1 1v5c0 .6.4 1 1 1h6c.6 0 1-.4 1-1v-5z"/></svg>