<svg xmlns="http://www.w3.org/2000/svg" viewBox="0 0 36 36"><circle fill="#FFE8B6" cx="29" cy="4" r="4"/><circle fill="#FFD983" cx="29" cy="4" r="3"/><path fill="#FFCC4D" d="M32.5.5l-4.2 2.8 1.4 1.4zm-7 7l2.8-4.2 1.4 1.4z"/><path fill="#FFCC4D" d="M32.5 7.5l-2.8-4.2-1.4 1.4zM25.5.5l4.2 2.8-1.4 1.4z"/><path fill="#C1694F" d="M23 13.5c-.1 0-.3 0-.4-.2a.5.5 0 010-.7C28.5 8 28.6 4 28.6 4c0-.3.2-.5.5-.5s.5.2.5.5c0 .2 0 4.3-6.2 9.4l-.3.1z"/><path fill="#DD2E44" d="M4.8 35.4L.6 31.2a2 2 0 010-2.9l19-19a2 2 0 012.9 0l4.2 4.2c.8.8.8 2 0 2.8l-19 19.1a2 2 0 01-2.9 0z"/><path fill="#FFCC4D" d="M18.3 10.7l7 7-2 2.2-7.2-7.1zM4 24.8l7 7-2 2.2L2 27z"/><path fill="#EA596E" d="M22.5 9.3l1.4 1.4-2.8 2.8-1.4-1.4zm-19 19l1.3 1.5L2 32.6.6 31.2zm14-14.1l1.5 1.4-12 12-1.5-1.4z"/><path fill="#FFD983" d="M19.7 12l1.4 1.5-2.1 2.1-1.4-1.4zM5.5 26.3L7 27.6l-2 2.2-1.5-1.5z"/></svg>