<?xml version="1.0" encoding="UTF-8" standalone="no"?>
<!-- Created with Inkscape (http://www.inkscape.org/) -->

<svg
   width="60"
   height="60"
   viewBox="0 0 15.874999 15.875001"
   version="1.1"
   id="svg5"
   xmlns="http://www.w3.org/2000/svg"
   xmlns:svg="http://www.w3.org/2000/svg">
  <defs
     id="defs2" />
  <g
     id="layer1">
    <g
       id="g2783"
       transform="matrix(0.50000167,0,0,0.50058069,1.9577511e-5,-0.01843809)">
      <path
         id="rect2573"
         style="opacity:1;fill:#aa4400;fill-opacity:1;stroke:none;stroke-width:0.999999"
         d="m 48.960938,10.398438 c -5.046399,3.052737 -10.187333,4.527998 -17.125,1.58789 C 26.812135,9.8572995 7.4586697,19.78031 7.6367188,29.4375 c 0.2547212,13.815513 3.0566342,18.664169 0,23.511719 C 4.5800837,57.796769 -1.2783174,70.883353 0.25,77.669922 c 0,0 3.2315611,15.099688 13.5,23.753908 8.357984,7.04409 33.390869,18.56322 40.164062,18.57617 0.451547,8.6e-4 0.82267,-0.0501 1.101563,-0.15625 1.364821,-0.89961 11.002355,-2.76848 7.460937,-2.125 -1.735668,-7.86841 -2.367187,-16.66281 -2.367187,-19.203125 0,-4.847546 -18.84946,-10.665446 -26.236328,-11.392578 -7.386866,-0.72714 -6.622715,-21.812855 -3.056641,-28.841797 3.566074,-7.028946 18.594735,-1.211824 23.179688,2.423828 4.584952,3.635668 12.990404,-2.909499 17.830078,-8.726562 4.83967,-5.81706 -5.348641,-24.237142 -9.933594,-25.691407 -2.779948,-0.88175 -8.733285,-9.324785 -12.998047,-15.845703 0,0 0.002,-0.002 0.002,-0.002 0.02117,-0.0127 0.04333,-0.02821 0.06445,-0.04101 z M 98.458984,111.40234 c -0.01172,0.007 -0.02344,0.0147 -0.03516,0.0215 0.01172,-0.007 0.02344,-0.0147 0.03516,-0.0215 z"
         transform="scale(0.26458333)" />
      <path
         id="path857"
         style="fill:#552200;fill-opacity:1;stroke:none;stroke-width:0.0882004px;stroke-linecap:butt;stroke-linejoin:miter;stroke-opacity:1"
         d="m 17.610761,0.03727246 c -0.112632,0.0019272 -0.223596,0.01083466 -0.333064,0.02587824 -0.0085,0.0011701 -0.01694,0.002779 -0.02543,0.0040351 -0.102153,0.01505908 -0.202861,0.03608224 -0.301806,0.0633517 -0.01025,0.002822 -0.02051,0.005782 -0.03073,0.008739 -0.09849,0.0285462 -0.195292,0.063399 -0.290151,0.10485771 -0.008,0.003485 -0.01606,0.006668 -0.02402,0.0102505 -0.10132,0.0456306 -0.200569,0.0981623 -0.297215,0.15947063 -0.159678,0.10129492 -0.3079,0.20716013 -0.460744,0.31138031 3.033388,1.76870075 7.39343,4.53529345 8.127747,6.22391085 1.143726,2.6300733 5.121721,4.0717725 4.81318,6.4845425 -0.425403,3.326615 -2.621058,3.446264 -3.240574,5.713569 -0.619517,2.267304 2.144606,7.66339 -0.09519,8.343582 -1.486498,0.451427 -5.31495,2.178815 -7.686252,3.516598 0.01592,-6.02e-4 0.02978,7.75e-4 0.04556,3.44e-4 0.02462,-7.74e-4 0.0468,5.17e-4 0.07117,0 0.15891,-0.0033 0.313733,-0.0026 0.462334,0.003 0.03886,0.0015 0.07609,0.004 0.114259,0.006 0.06898,0.0037 0.134041,0.01017 0.200969,0.01529 0.0608,0.0047 0.123661,0.0079 0.182602,0.01395 0.04672,0.0048 0.09246,0.01 0.1381,0.01546 0.110613,0.0133 0.217989,0.02847 0.322467,0.0452 0.04538,0.0073 0.09101,0.01423 0.135275,0.02201 0.03453,0.0061 0.06696,0.01265 0.09978,0.01916 0.01882,0.0037 0.03799,0.0074 0.05704,0.01109 0.167272,0.0324 0.317121,0.06643 0.469044,0.102504 0.17432,0.04139 0.350616,0.08313 0.507013,0.123007 0.0098,0.0025 0.02205,0.0052 0.03179,0.0077 0.105877,0.02686 0.204618,0.04993 0.303043,0.07276 0.141679,0.03353 0.278872,0.06382 0.407235,0.08436 0.02106,0.0033 0.04302,0.0079 0.06375,0.01075 1.81e-4,2.3e-5 3.61e-4,-2.5e-5 5.42e-4,0 0.04237,0.0059 0.08305,0.0092 0.124149,0.01311 0.04659,0.0046 0.09252,0.0078 0.137569,0.0094 0.03746,0.0012 0.07408,4.31e-4 0.110551,-6.88e-4 5.8e-5,-2e-6 9e-5,2e-6 1.81e-4,0 0.04736,-0.0014 0.09385,-0.0052 0.139689,-0.01092 0.03352,-0.0041 0.06683,-0.009 0.0996,-0.01563 0.04611,-0.0096 0.09138,-0.0225 0.136157,-0.03747 0.03025,-0.0099 0.06071,-0.01877 0.09042,-0.03126 0.06493,-0.02727 0.128867,-0.05977 0.191609,-0.100657 0.01068,-0.007 0.02116,-0.01514 0.03179,-0.02252 0.06858,-0.04762 0.136338,-0.101398 0.203088,-0.167705 0.07252,-0.07204 0.159087,-0.140573 0.257304,-0.206859 1.8e-4,-8.6e-5 3.61e-4,-2.58e-4 5.42e-4,-3.44e-4 2.71e-4,-1.72e-4 4.52e-4,-3.44e-4 7.23e-4,-5.16e-4 9.95e-4,-6.88e-4 0.002,-0.0014 0.003,-0.002 9.1e-5,-7.1e-5 2.72e-4,-8.6e-5 3.62e-4,-1.72e-4 0.09756,-0.06553 0.206696,-0.128836 0.32547,-0.191232 0.0025,-0.0013 0.005,-0.0026 0.0074,-0.0039 0.203037,-0.106238 0.438139,-0.210546 0.687319,-0.317429 0.04669,-0.02003 0.08965,-0.03952 0.137569,-0.05982 0.301682,-0.127833 0.626737,-0.262296 0.958575,-0.412542 0.0039,-0.0018 0.0077,-0.0033 0.01166,-0.005 0,0 1.81e-4,-1.72e-4 1.81e-4,-1.72e-4 0.0021,-9.55e-4 0.0043,-0.0019 0.0064,-0.0029 0.165947,-0.07538 0.33357,-0.154838 0.501008,-0.239626 0.166894,-0.08451 0.333525,-0.174564 0.498007,-0.270883 0.0046,-0.0027 0.0092,-0.0054 0.01378,-0.0081 0.165103,-0.09712 0.328076,-0.200632 0.486704,-0.312221 0.160481,-0.112892 0.316598,-0.233885 0.466396,-0.364145 0.149796,-0.130261 0.293218,-0.26973 0.428249,-0.419935 0.06755,-0.07514 0.132938,-0.152967 0.196024,-0.233577 0.06306,-0.08057 0.123804,-0.16385 0.181896,-0.250213 0.05809,-0.08636 0.113562,-0.175717 0.166179,-0.268194 0.05391,-0.09475 0.104611,-0.192903 0.152228,-0.294409 0.04536,-0.09668 0.08781,-0.19633 0.126973,-0.29945 0.04013,-0.10567 0.07689,-0.214761 0.110021,-0.327512 0.03294,-0.112097 0.06226,-0.22776 0.08777,-0.347173 1.81e-4,-6.88e-4 3.62e-4,-0.0013 5.43e-4,-0.002 0,0 0,-1.72e-4 0,-1.72e-4 9e-5,-5.16e-4 2.71e-4,-0.0011 3.61e-4,-0.0017 0.02479,-0.116501 0.04579,-0.236861 0.06304,-0.360616 9.04e-4,-0.0063 0.0016,-0.01265 0.0025,-0.01899 0.01697,-0.125019 0.0302,-0.253468 0.03903,-0.386159 0.009,-0.135921 0.01377,-0.275981 0.01377,-0.420271 0,-0.568739 -0.01041,-1.078786 -0.02331,-1.54329 -0.01328,-0.47871 -0.02922,-0.907799 -0.03991,-1.294422 -0.01053,-0.380766 -0.01584,-0.721477 -0.0079,-1.031101 0.004,-0.154812 0.01126,-0.301876 0.02278,-0.442284 0.01152,-0.140407 0.02733,-0.274201 0.04839,-0.402459 0.02106,-0.128258 0.04725,-0.250991 0.07982,-0.369355 0.03196,-0.116115 0.07022,-0.227844 0.115141,-0.336586 9.1e-5,-2.58e-4 2.72e-4,-4.31e-4 3.62e-4,-6.89e-4 0.0016,-0.0039 0.0033,-0.0079 0.0049,-0.01176 0.04548,-0.108551 0.09766,-0.214213 0.158055,-0.317597 0.0608,-0.10408 0.129862,-0.206002 0.207679,-0.307011 0.0017,-0.0022 0.0033,-0.0044 0.0049,-0.0066 1.81e-4,-2.58e-4 3.62e-4,-4.31e-4 5.43e-4,-6.89e-4 0.07753,-0.10005 0.1638,-0.19906 0.259952,-0.298272 9.4e-4,-9.72e-4 0.0017,-0.0019 0.0026,-0.0029 0,0 0,-1.72e-4 0,-1.72e-4 0.0011,-0.0012 0.0026,-0.0024 0.0037,-0.0035 0.09512,-0.09772 0.200051,-0.195591 0.315051,-0.294577 1.81e-4,-1.72e-4 3.62e-4,-3.44e-4 5.42e-4,-5.16e-4 0.0053,-0.0046 0.01071,-0.0092 0.01607,-0.01378 5.43e-4,-4.3e-4 0.0011,-8.94e-4 0.0016,-0.0013 0.117147,-0.10001 0.244451,-0.20118 0.383748,-0.304659 0.143146,-0.106339 0.298438,-0.215118 0.466925,-0.327344 0.03106,-0.02069 0.06183,-0.04648 0.09218,-0.07696 0.03036,-0.03049 0.06031,-0.06566 0.08989,-0.105362 0.118282,-0.158756 0.23005,-0.388855 0.332711,-0.671324 0,0 0,-1.72e-4 0,-1.72e-4 0.05132,-0.141225 0.100458,-0.295535 0.14693,-0.460602 0,0 0,-1.72e-4 0,-1.72e-4 0.04647,-0.165079 0.0904,-0.340924 0.131388,-0.525129 0,0 0,-1.72e-4 0,-1.72e-4 0.08199,-0.368481 0.152455,-0.770519 0.20874,-1.187211 0,0 0,-1.72e-4 0,-1.72e-4 0.05629,-0.416753 0.09844,-0.84806 0.123971,-1.275265 0.01276,-0.213603 0.0213,-0.42623 0.02543,-0.635365 0.0041,-0.209133 0.0037,-0.414748 -0.0014,-0.614694 -0.0051,-0.199945 -0.01498,-0.394211 -0.03002,-0.580247 -0.01504,-0.186035 -0.03518,-0.363941 -0.06075,-0.531346 -0.02556,-0.167404 -0.05652,-0.324278 -0.09324,-0.468331 -0.03634,-0.142557 -0.07838,-0.272078 -0.126268,-0.387167 -9.04e-4,-0.0022 -0.0019,-0.0044 -0.0028,-0.0066 -0.0482,-0.114745 -0.10223,-0.21495 -0.162646,-0.297432 -0.192094,-0.2622586 -0.380092,-0.5015742 -0.564407,-0.721233 -0.0033,-0.00389 -0.0066,-0.00772 -0.0099,-0.011595 -0.184108,-0.218862 -0.36444,-0.418105 -0.540744,-0.5988991 0,0 0,-1.72e-4 0,-1.72e-4 -0.17648,-0.1809705 -0.348982,-0.3435926 -0.517608,-0.4908486 -0.0014,-0.0012 -0.0027,-0.00268 -0.0041,-0.00386 0,0 -1.81e-4,0 -1.81e-4,0 -0.0014,-0.00119 -0.0027,-0.00218 -0.0041,-0.00336 C 29.460676,8.0564739 29.296029,7.925054 29.135495,7.8075695 28.973589,7.6890809 28.81572,7.5843092 28.661859,7.4909796 28.507999,7.3976509 28.3582,7.3158279 28.212417,7.2431196 28.066635,7.1704097 27.92484,7.1068377 27.787169,7.0502081 27.650839,6.9941291 27.518697,6.945057 27.390353,6.9003151 c -0.0013,-4.302e-4 -0.0026,-0.00107 -0.0039,-0.00151 0,0 -1.8e-4,0 -1.8e-4,0 -0.0023,-7.744e-4 -0.0043,-0.0014 -0.0065,-0.00219 -0.25636,-0.089012 -0.497216,-0.1602768 -0.721402,-0.2308883 -0.113138,-0.035635 -0.222166,-0.071174 -0.32706,-0.1088911 -0.104892,-0.037716 -0.205719,-0.077659 -0.302336,-0.121998 -0.09587,-0.043996 -0.187451,-0.092402 -0.27514,-0.1473721 -7.23e-4,-4.302e-4 -0.0014,-7.743e-4 -0.0021,-0.00118 0,0 -1.81e-4,0 -1.81e-4,0 -6.33e-4,-4.302e-4 -0.0013,-9.292e-4 -0.0019,-0.00134 -0.08754,-0.055166 -0.171089,-0.1170647 -0.250416,-0.187702 -0.07997,-0.071206 -0.155692,-0.1513702 -0.227282,-0.2428199 -0.07159,-0.09145 -0.139022,-0.1941384 -0.202204,-0.310372 -0.0483,-0.088861 -0.108637,-0.1876047 -0.175009,-0.2908794 -0.01075,-0.016724 -0.02076,-0.032843 -0.03196,-0.049908 -0.06637,-0.1011108 -0.14117,-0.2083896 -0.22269,-0.3202868 -0.01474,-0.020231 -0.03,-0.040791 -0.04521,-0.061335 C 24.510353,4.7074816 24.419854,4.5891307 24.32151,4.4665717 24.30681,4.4482487 24.29077,4.4292647 24.27577,4.4107817 24.180323,4.2932465 24.07938,4.1728048 23.972816,4.0498286 23.959147,4.0340545 23.946395,4.0186238 23.932551,4.0027775 23.819818,3.8737313 23.699958,3.7419293 23.576353,3.6092248 23.551103,3.5821163 23.525912,3.5551015 23.50024,3.5278923 23.375345,3.3955268 23.245893,3.2621503 23.111724,3.1286268 23.088637,3.1056514 23.064955,3.0827045 23.041615,3.05973 22.900057,2.9203929 22.754974,2.7811143 22.604887,2.6431555 c -0.0075,-0.00693 -0.0154,-0.013744 -0.02296,-0.020669 C 22.436046,2.4888683 22.285755,2.3569966 22.133192,2.2269171 22.108632,2.2059751 22.084442,2.1847201 22.059732,2.1639021 21.907669,2.0358204 21.752479,1.9107233 21.59528,1.7884982 21.56394,1.7641312 21.53249,1.7399892 21.50098,1.7159042 21.341135,1.5937444 21.179462,1.474657 21.015864,1.3610011 c -0.0218,-0.015146 -0.04384,-0.029389 -0.06569,-0.044363 -0.163186,-0.1118018 -0.327743,-0.2190995 -0.493238,-0.32011822 -0.01316,-0.008036 -0.02621,-0.0167437 -0.03938,-0.0247021 -0.16807,-0.10154873 -0.337066,-0.19503234 -0.506129,-0.28314982 -0.0322,-0.0167815 -0.06439,-0.0338281 -0.0966,-0.0500762 -0.165316,-0.0833958 -0.330551,-0.15958592 -0.495357,-0.22769547 -0.03031,-0.0125244 -0.06051,-0.0238254 -0.09077,-0.0357931 -0.171807,-0.0679323 -0.343179,-0.1293499 -0.512841,-0.1779557 -0.0034,-9.6361e-4 -0.0067,-0.001901 -0.01007,-0.002856 -0.1821,-0.0517487 -0.362435,-0.0911408 -0.540389,-0.11779683 -0.011,-0.0016519 -0.02204,-0.0033296 -0.03302,-0.0048697 -0.07952,-0.01119515 -0.15857,-0.0199933 -0.236995,-0.02571047 -0.01376,-0.0010066 -0.02743,-0.0015229 -0.04115,-0.0023488 -0.08173,-0.0049385 -0.163016,-0.0077606 -0.243352,-0.006384 z m 0.08388,30.97839654 c -0.123425,0.0054 -0.250028,0.01426 -0.379862,0.02605 0.129903,-0.0119 0.256365,-0.02051 0.379862,-0.02605 z m -0.566526,0.04436 c -0.192866,0.02188 -0.390361,0.04857 -0.597784,0.08654 0.207348,-0.03796 0.404828,-0.06452 0.597784,-0.08654 z" />
      <path
         id="path1893"
         style="fill:#803300;fill-opacity:1;stroke:none;stroke-width:0.0882004px;stroke-linecap:butt;stroke-linejoin:miter;stroke-opacity:1"
         d="m 15.847606,0.72523286 c -0.130473,0.0889667 -0.266353,0.17601986 -0.393284,0.26584173 -0.03504,0.0248028 -0.07102,0.0494412 -0.105782,0.0742741 -0.159066,0.1135862 -0.311317,0.2259437 -0.465336,0.3389389 -0.374751,0.2750829 -0.74275,0.5464981 -1.099499,0.798364 -0.0287,0.020256 -0.05789,0.039982 -0.08653,0.05999 -0.254202,0.1776133 -0.506826,0.3470195 -0.759901,0.4994187 -1.81e-4,8.61e-5 -3.62e-4,2.581e-4 -5.43e-4,3.442e-4 1.128386,1.725326 2.703366,3.9593318 3.438893,4.1926283 1.213102,0.3847743 3.908982,5.2585062 2.628486,6.7976032 -1.280497,1.539098 -3.504539,3.270655 -4.717641,2.308718 -1.213102,-0.961933 -5.1893717,-2.500987 -6.1328954,-0.641245 -0.9435238,1.859741 -1.1457992,7.438866 0.8086424,7.631255 1.954443,0.192387 6.941715,1.731576 6.941715,3.014156 0,0.672125 0.167165,2.999211 0.626393,5.081062 0.682876,-0.125022 1.284377,-0.156541 1.820902,-0.135778 -0.187572,-0.0075 -0.38043,-0.01064 -0.584715,-0.0034 2.371302,-1.337783 6.199755,-3.065172 7.686252,-3.516599 2.239793,-0.680191 -0.52433,-6.076277 0.09519,-8.343582 0.619517,-2.267304 2.815171,-2.386954 3.240575,-5.713569 C 29.097062,11.020921 25.119066,9.5792213 23.975341,6.9491481 23.241024,5.2605306 18.880981,2.493938 15.847593,0.72523716 Z M 31.597678,14.829772 c -0.05628,0.416692 -0.126745,0.81873 -0.208739,1.187211 0.08199,-0.368481 0.152455,-0.770519 0.208739,-1.187211 z m -1.854103,3.660442 c -0.0054,0.0046 -0.01075,0.0092 -0.01607,0.01378 0.0053,-0.0046 0.01071,-0.0092 0.01607,-0.01378 z m -0.59849,0.614359 c -0.0017,0.0022 -0.0033,0.0044 -0.0049,0.0066 0.0017,-0.0022 0.0033,-0.0044 0.0049,-0.0066 z m -0.37068,0.631162 c -0.0016,0.0039 -0.0033,0.0078 -0.0049,0.01176 0.0016,-0.0039 0.0033,-0.0079 0.0049,-0.01176 z m -4.849029,10.737666 c -0.249225,0.106898 -0.484249,0.211177 -0.687319,0.317429 0.203038,-0.106238 0.43814,-0.210546 0.687319,-0.317429 z m -0.687319,0.317429 c -0.0025,0.0013 -0.005,0.0026 -0.0074,0.0039 0.0024,-0.0013 0.005,-0.0026 0.0074,-0.0039 z m -0.333241,0.195264 c -0.0012,8.6e-4 -0.0025,0.0017 -0.0037,0.0025 0.0012,-8.6e-4 0.0025,-0.0017 0.0037,-0.0025 z m -4.444972,0.03075 c 0.131724,0.007 0.259762,0.01654 0.383571,0.02924 -0.123767,-0.01284 -0.251916,-0.02212 -0.383571,-0.02924 z m 0.521671,0.0447 c 0.110613,0.0133 0.217989,0.02847 0.322467,0.0452 -0.104511,-0.01684 -0.211829,-0.03178 -0.322467,-0.0452 z m 0.457742,0.06722 c 0.05397,0.0095 0.10446,0.0201 0.156819,0.03025 -0.05266,-0.01025 -0.102533,-0.02065 -0.156819,-0.03025 z m 0.625863,0.132752 c 0.17432,0.04139 0.350616,0.08313 0.507013,0.123006 -0.160432,-0.0409 -0.327573,-0.08036 -0.507013,-0.123006 z m 2.362352,0.111075 c -0.02195,0.01487 -0.04457,0.02537 -0.06675,0.03848 0.01574,-0.0093 0.03207,-0.01487 0.04768,-0.02504 0.0064,-0.0042 0.01274,-0.0088 0.01907,-0.01344 z m -1.520509,0.09242 c 0.02839,0.0066 0.05957,0.01475 0.08742,0.021 0.0585,0.01324 0.119259,0.0283 0.175362,0.03932 0.04943,0.0097 0.09675,0.01655 0.144457,0.02403 -0.128363,-0.02053 -0.265556,-0.05082 -0.407235,-0.08436 z m 1.309828,0.02168 c -0.02971,0.01249 -0.06017,0.02138 -0.09042,0.03126 0.01352,-0.0045 0.02771,-0.0063 0.04115,-0.01126 0.01358,-0.005 0.02715,-0.0099 0.04062,-0.01546 0.0029,-0.0012 0.0057,-0.0033 0.0087,-0.0045 z m -0.226575,0.06873 c -0.03278,0.0066 -0.06609,0.01149 -0.0996,0.01563 0.012,-0.0015 0.02466,-0.0011 0.03656,-0.0029 0.0099,-0.0015 0.02017,-0.002 0.03002,-0.0037 0.01128,-0.002 0.02184,-0.0067 0.03302,-0.0091 z m -0.612266,0.0047 c 0.0024,3.44e-4 0.0049,8.61e-4 0.0072,0.0012 0.02394,0.0033 0.04747,0.0061 0.07099,0.0087 0.01587,0.0018 0.03071,0.0017 0.04644,0.0032 -0.04127,-0.0039 -0.08211,-0.0071 -0.124679,-0.01311 z m 0.372975,0.02185 c -0.03653,0.0011 -0.0732,0.0019 -0.110727,6.88e-4 0.01342,4.3e-4 0.02771,0.0027 0.04097,0.0029 0.01335,1.72e-4 0.02616,-0.001 0.03938,-0.0012 0.01037,-8.6e-5 0.02008,-0.002 0.03037,-0.0024 z" />
      <ellipse
         style="opacity:0.5;fill:#000000;fill-opacity:1;stroke:none;stroke-width:0.0882347"
         id="path2257"
         cx="2.7202902"
         cy="11.153394"
         rx="2.3751643"
         ry="3.2266145"
         transform="matrix(0.90468732,-0.42607612,0.46145766,0.88716224,0,0)" />
      <ellipse
         style="opacity:0.5;fill:#000000;fill-opacity:1;stroke:none;stroke-width:0.0591712"
         id="path2257-8"
         cx="3.4082043"
         cy="28.95125"
         rx="1.5381918"
         ry="2.2406301"
         transform="matrix(0.90417594,-0.42716024,0.46258663,0.88657409,0,0)" />
      <ellipse
         style="opacity:0.5;fill:#000000;fill-opacity:1;stroke:none;stroke-width:0.059825"
         id="path2257-1"
         cx="14.592628"
         cy="21.871319"
         rx="1.6477089"
         ry="2.1381836"
         transform="matrix(0.83565887,-0.54924881,0.58744791,0.80926198,0,0)" />
      <ellipse
         style="opacity:0.5;fill:#000000;fill-opacity:1;stroke:none;stroke-width:0.0712517"
         id="path2257-0"
         cx="12.68984"
         cy="-33.269093"
         rx="2.4497948"
         ry="2.0399473"
         transform="matrix(-0.46196982,0.88689564,-0.90445554,-0.4265679,0,0)" />
      <ellipse
         style="opacity:0.5;fill:#000000;fill-opacity:1;stroke:none;stroke-width:0.0411514"
         id="path2257-16"
         cx="13.622409"
         cy="5.2446146"
         rx="1.0676395"
         ry="1.5613761"
         transform="matrix(0.9782289,0.20752883,-0.228125,0.97363185,0,0)" />
      <ellipse
         style="opacity:0.5;fill:#000000;fill-opacity:1;stroke:none;stroke-width:0.11073"
         id="path2257-6"
         cx="5.8520608"
         cy="21.47057"
         rx="3.0761981"
         ry="3.9235585"
         transform="matrix(0.99818384,0.0602414,0.06943186,0.9975867,0,0)" />
      <ellipse
         style="opacity:0.5;fill:#000000;fill-opacity:1;stroke:none;stroke-width:0.0473395"
         id="path2257-2"
         cx="16.544577"
         cy="10.611364"
         rx="1.3356099"
         ry="1.6516975"
         transform="matrix(0.95614638,-0.29288922,0.32047024,0.94725858,0,0)" />
      <ellipse
         style="opacity:0.5;fill:#000000;fill-opacity:1;stroke:none;stroke-width:0.0327159"
         id="path2257-89"
         cx="0.02935138"
         cy="27.773596"
         rx="0.88169593"
         ry="1.1949766"
         transform="matrix(0.91677405,-0.39940624,0.43358299,0.90111364,0,0)" />
      <ellipse
         style="opacity:0.5;fill:#000000;fill-opacity:1;stroke:none;stroke-width:0.0256884"
         id="path2257-89-3"
         cx="3.2206202"
         cy="15.401956"
         rx="0.67676198"
         ry="0.9598406"
         transform="matrix(0.99126647,-0.13187416,0.070925,0.99748165,0,0)" />
      <ellipse
         style="opacity:0.5;fill:#000000;fill-opacity:1;stroke:none;stroke-width:0.0882245"
         id="path2257-4"
         cx="27.032831"
         cy="9.390151"
         rx="2.3830819"
         ry="3.2151518"
         transform="matrix(0.93977801,0.34178544,-0.3727255,0.92794165,0,0)" />
      <ellipse
         style="opacity:0.5;fill:#000000;fill-opacity:1;stroke:none;stroke-width:0.0650805"
         id="path2257-69"
         cx="18.686453"
         cy="3.0623958"
         rx="1.5251834"
         ry="2.7336543"
         transform="matrix(0.77234169,0.6352073,-0.39731988,0.91768018,0,0)" />
    </g>
  </g>
</svg>
