<?xml version="1.0" encoding="UTF-8" standalone="no"?>
<!-- Created with Inkscape (http://www.inkscape.org/) -->

<svg
   width="60"
   height="60"
   viewBox="0 0 15.875 15.875"
   version="1.1"
   id="svg5"
   sodipodi:docname="starship-2.svg"
   inkscape:version="1.1 (c4e8f9e, 2021-05-24)"
   xmlns:inkscape="http://www.inkscape.org/namespaces/inkscape"
   xmlns:sodipodi="http://sodipodi.sourceforge.net/DTD/sodipodi-0.dtd"
   xmlns="http://www.w3.org/2000/svg"
   xmlns:svg="http://www.w3.org/2000/svg">
  <sodipodi:namedview
     id="namedview7"
     pagecolor="#ffffff"
     bordercolor="#666666"
     borderopacity="1.0"
     inkscape:pageshadow="2"
     inkscape:pageopacity="0.0"
     inkscape:pagecheckerboard="0"
     inkscape:document-units="mm"
     showgrid="false"
     units="px"
     showguides="false"
     inkscape:zoom="10.732997"
     inkscape:cx="22.966559"
     inkscape:cy="37.035323"
     inkscape:window-width="1792"
     inkscape:window-height="1067"
     inkscape:window-x="0"
     inkscape:window-y="25"
     inkscape:window-maximized="1"
     inkscape:current-layer="layer1" />
  <defs
     id="defs2" />
  <g
     inkscape:label="Layer 1"
     inkscape:groupmode="layer"
     id="layer1">
    <path
       id="path846"
       style="fill:#666666;stroke-width:0.268942"
       d="M 9.8934528,0 C 10.30926,0.27469322 10.583333,0.75084753 10.583333,1.2943116 v 7.6629967 c 0,0.854741 -0.6777342,1.5430967 -1.519287,1.5430967 H 6.8109538 c -0.8415528,0 -1.5192872,-0.6883557 -1.5192872,-1.5430967 V 1.2943116 c 0,-0.54048587 0.2711849,-1.01420861 0.6831624,-1.28958784 A 7.9374999,8.0618925 0 0 0 0,7.8131075 7.9374999,8.0618925 0 0 0 7.9374999,15.875 7.9374999,8.0618925 0 0 0 15.875,7.8131075 7.9374999,8.0618925 0 0 0 9.8934528,0 Z" />
    <path
       id="path846-2"
       style="fill:#4d4d4d;stroke-width:0.268941"
       d="M 11.770341,0.75964356 V 9.7451414 c 0,1.0379226 -0.835865,1.8732706 -1.8737875,1.8732706 H 5.9784463 c -1.0379223,0 -1.8737873,-0.835348 -1.8737873,-1.8732706 V 0.76274413 A 7.9374999,8.0618924 0 0 0 0,7.8129597 7.9374999,8.0618924 0 0 0 7.9374999,15.875 7.9374999,8.0618924 0 0 0 15.875,7.8129597 7.9374999,8.0618924 0 0 0 11.770341,0.75964356 Z" />
    <path
       id="path846-6"
       style="fill:#ffcc00;stroke-width:0.268941"
       d="M 9.8934528,0 C 10.304222,0.27136505 10.576275,0.7396087 10.582816,1.2748576 A 7.9374999,8.0618924 0 0 1 15.855879,8.3343749 7.9374999,8.0618924 0 0 0 15.875,7.8129597 7.9374999,8.0618924 0 0 0 9.8934528,0 Z M 5.974829,0.00465088 A 7.9374999,8.0618924 0 0 0 0,7.8129597 7.9374999,8.0618924 0 0 0 0.01963704,8.3410929 7.9374999,8.0618924 0 0 1 5.2921833,1.2779581 C 5.2976761,0.74438496 5.5670775,0.27720546 5.974829,0.00465088 Z" />
    <circle
       style="fill:#00ccff;stroke:#ffcc00;stroke-width:0.279613;stroke-miterlimit:4;stroke-dasharray:none;stroke-opacity:1"
       id="path1729"
       cx="7.9375"
       cy="13.49375"
       r="0" />
    <rect
       style="fill:#4d4d4d;stroke:none;stroke-width:0.170662;stroke-miterlimit:4;stroke-dasharray:none;stroke-opacity:1"
       id="rect3296"
       width="1.6762948"
       height="3.446121"
       x="7.0993524"
       y="7.5645933"
       ry="0.55232006" />
    <rect
       style="fill:#333333;stroke:none;stroke-width:0.05941;stroke-miterlimit:4;stroke-dasharray:none;stroke-opacity:1"
       id="rect3899"
       width="1.3229166"
       height="0.52916664"
       x="7.2760415"
       y="7.6729169"
       ry="0.25653949" />
    <ellipse
       style="fill:#00ccff;stroke:#ffcc00;stroke-width:0.52916667;stroke-miterlimit:4;stroke-dasharray:none;stroke-opacity:1"
       id="path4376"
       cx="7.9375"
       cy="13.747297"
       rx="2.4966176"
       ry="1.7028677" />
  </g>
</svg>
