<?xml version="1.0" encoding="utf-8"?>
<!-- Uploaded to: SVG Repo, www.svgrepo.com, Generator: SVG Repo Mixer Tools -->
<svg fill="#fff" height="800px" width="800px" version="1.1" id="Layer_1" xmlns="http://www.w3.org/2000/svg" xmlns:xlink="http://www.w3.org/1999/xlink" 
	 viewBox="0 0 256 113" xml:space="preserve">
<path d="M254.6,67.6h-26.9c-1.4,0-2.3-1.5-2.3-3.5c0-1.5,0.5-2.4,1.4-3.3l24.4-17.3c0.5-0.3,0.8-1.1,0.8-2c0-0.6-0.2-1.2-0.5-1.7
	c0,0-27.8-36.4-87.3-38v50.3h-13.8V6h-8.2v46.2h-13.8V14.4h-8.2v37.9h-13.8V22.7h-8.2v29.5H84.4V31.1h-8.2v21.1H63.7L1.7,8.1
	l25.8,48.5L1.7,105.4L64.1,61h12v21.3h8.2V61h13.8v29.5h8.2V61h13.8v37.9h8.2V61h13.8v46.2h8.2V61h13.8v50.2
	c32.3-0.5,65.4-10.9,91.2-41.5c0.2-0.2,0.2-0.6,0.2-0.9C255.5,68.1,255,67.6,254.6,67.6z M208.5,51.4c-6.5,0-12-5.6-12-12.6
	c0-6.8,5.6-12.6,12-12.6c6.5,0,12,5.6,12,12.6C220.6,45.6,215,51.4,208.5,51.4z"/>
</svg>