<svg width="250" height="300" viewBox="0 0 250 300" fill="none" xmlns="http://www.w3.org/2000/svg">
<g id="rigFull">
<g id="rigShadow:armatures:scale">
<ellipse id="shadow" cx="124" cy="260" rx="70" ry="12" fill="#EAE8F9"/>
</g>
<g id="rigHearts:armatures:display">
<path id="leftHeart:armatures:translate,rotate" d="M203.022 107.84C210.196 98.6456 221.436 105.567 223.125 112.324C225.467 105.559 237.987 102.058 242.724 112.715C247.46 123.372 228.524 142.204 219.591 141.107C210.658 140.011 195.848 117.034 203.022 107.84Z" fill="#F29595"/>
<path id="rightHeart:armatures:translate,rotate" d="M13.7753 74.0295C16.6878 62.7372 29.7561 64.6026 33.9992 70.125C33.4494 62.9872 43.5349 54.7848 52.1282 62.6689C60.7215 70.5529 50.8649 95.3746 42.2356 97.9307C33.6063 100.487 10.8627 85.3219 13.7753 74.0295Z" fill="#F29595"/>
<path id="middleHeart:armatures:translate,rotate" d="M134.774 7.08379C140.067 0.735971 147.821 5.91653 148.842 10.7491C150.665 6.00763 159.584 3.82727 162.656 11.4998C165.728 19.1724 151.895 32.0721 145.622 31.0785C139.349 30.0849 129.482 13.4316 134.774 7.08379Z" fill="#F29595"/>
</g>
<g id="rigClouds:armatures:display">
<path id="rightCloud:armatures:translate,rotate" d="M128.586 124.635C121.315 134.459 108.409 137.768 99.0671 129.595C99.0671 129.595 94.7591 151.583 77.2933 152.617C59.8275 153.65 54.8627 139.372 54.8627 139.372C48.8793 142.275 24.233 139.771 22.6076 118.856C20.9821 97.9414 33.3334 88.1184 45.5704 87.4916C35.7564 86.5369 42.8012 48.1471 73.7291 41.8522C104.657 35.5574 112.475 55.9547 112.475 55.9547C112.475 55.9547 129.647 45.5768 140.694 58.3733C151.74 71.1698 146.085 93.8993 130.189 96.1195C139.161 101.079 135.857 114.81 128.586 124.635Z" fill="#C4EDD5"/>
<path id="leftCloud:armatures:translate,rotate" d="M214.288 43.4798C216.025 50.2947 209.7 57.7075 203.37 55.5833C208.404 62.8895 189.895 72.8086 185.569 62.2697C185.569 62.2697 179.883 69.6565 173.188 66.799C166.494 63.9415 167.296 57.704 167.296 57.704C164.529 57.6741 155.818 52.1667 159.095 44.0782C162.372 35.9896 170.588 35.3443 175.26 37.3824C173.323 36.1694 206.634 13.4602 214.288 43.4798Z" fill="#C4EDD5"/>
<path id="middleCloud:armatures:translate,rotate" d="M108.667 21.6481C106.988 26.7232 111.391 32.6792 116.303 31.4042C111.616 37.2822 144.412 49.8665 143.543 34.9249C154.924 35.5973 151.169 14.6201 138.582 19.0941C140.115 18.277 116.061 -0.70801 108.667 21.6481Z" fill="#C4EDD5"/>
</g>
<g id="rigMoon:armatures:display">
<g id="moon:armatures:translate">
<g id="moonDark">
<circle cx="60.3067" cy="60.3067" r="46.5" transform="rotate(-21.5 60.3067 60.3067)" fill="#BCC1B2"/>
<circle cx="60.3067" cy="60.3067" r="46.5" transform="rotate(-21.5 60.3067 60.3067)" fill="#BCC1B2"/>
</g>
<g id="moonLight">
<path d="M44.9548 66.3539C57.2751 89.4453 80.9016 98.9473 77.349 103.571C53.4548 112.983 26.4545 101.243 17.0423 77.349C7.6301 53.4547 19.3701 26.4545 43.2644 17.0423C48.3534 20.4116 32.6346 43.2626 44.9548 66.3539Z" fill="#BCC1B2"/>
<path d="M44.9548 66.3539C57.2751 89.4453 80.9016 98.9473 77.349 103.571C53.4548 112.983 26.4545 101.243 17.0423 77.349C7.6301 53.4547 19.3701 26.4545 43.2644 17.0423C48.3534 20.4116 32.6346 43.2626 44.9548 66.3539Z" fill="#EBF0E1"/>
</g>
<g id="craterDark">
<g id="crater6">
<path d="M69.0926 58.1868C70.0035 60.4992 68.8673 63.1121 66.555 64.023C64.2426 64.9338 62.5601 63.4312 61.6493 61.1189C60.7384 58.8065 60.9441 56.5601 63.2565 55.6492C65.5688 54.7384 68.1817 55.8745 69.0926 58.1868Z" fill="#A4AB96"/>
<path d="M69.0926 58.1868C70.0035 60.4992 68.8673 63.1121 66.555 64.023C64.2426 64.9338 62.5601 63.4312 61.6493 61.1189C60.7384 58.8065 60.9441 56.5601 63.2565 55.6492C65.5688 54.7384 68.1817 55.8745 69.0926 58.1868Z" fill="#A4AB96"/>
<path d="M69.0926 58.1868C70.0035 60.4992 68.8673 63.1121 66.555 64.023C64.2426 64.9338 62.5601 63.4312 61.6493 61.1189C60.7384 58.8065 60.9441 56.5601 63.2565 55.6492C65.5688 54.7384 68.1817 55.8745 69.0926 58.1868Z" fill="#A4AB96"/>
</g>
<g id="crater5">
<path d="M82.2424 38.2312C83.6593 41.8282 81.8919 45.8927 78.2949 47.3096C74.698 48.7265 70.6334 46.9592 69.2165 43.3622C67.7996 39.7652 69.7502 36.1659 73.3472 34.749C76.9442 33.3321 80.8255 34.6342 82.2424 38.2312Z" fill="#A4AB96"/>
<path d="M82.2424 38.2312C83.6593 41.8282 81.8919 45.8927 78.2949 47.3096C74.698 48.7265 70.6334 46.9592 69.2165 43.3622C67.7996 39.7652 69.7502 36.1659 73.3472 34.749C76.9442 33.3321 80.8255 34.6342 82.2424 38.2312Z" fill="#A4AB96"/>
<path d="M82.2424 38.2312C83.6593 41.8282 81.8919 45.8927 78.2949 47.3096C74.698 48.7265 70.6334 46.9592 69.2165 43.3622C67.7996 39.7652 69.7502 36.1659 73.3472 34.749C76.9442 33.3321 80.8255 34.6342 82.2424 38.2312Z" fill="#A4AB96"/>
</g>
<g id="crater4">
<path d="M57.77 30.6745C59.9965 36.3269 57.8952 40.857 51.9476 43.1785C46 45.5 39.5273 44.39 37.3008 38.7375C35.0743 33.0851 37.8515 26.698 43.5039 24.4714C49.1563 22.2449 55.5434 25.0221 57.77 30.6745Z" fill="#A4AB96"/>
<path d="M57.77 30.6745C59.9965 36.3269 57.8952 40.857 51.9476 43.1785C46 45.5 39.5273 44.39 37.3008 38.7375C35.0743 33.0851 37.8515 26.698 43.5039 24.4714C49.1563 22.2449 55.5434 25.0221 57.77 30.6745Z" fill="#A4AB96"/>
<path d="M57.77 30.6745C59.9965 36.3269 57.8952 40.857 51.9476 43.1785C46 45.5 39.5273 44.39 37.3008 38.7375C35.0743 33.0851 37.8515 26.698 43.5039 24.4714C49.1563 22.2449 55.5434 25.0221 57.77 30.6745Z" fill="#A4AB96"/>
</g>
</g>
<g id="craterLight">
<path id="crater3" d="M48.1967 85.4979C49.6136 89.0949 47.8463 93.1594 44.2493 94.5763C40.6523 95.9932 36.5877 94.2259 35.1708 90.6289C33.754 87.0319 35.7045 83.4326 39.3015 82.0157C42.8985 80.5988 46.7798 81.9009 48.1967 85.4979Z" fill="#DADFD0"/>
<path id="crater2" d="M27.4268 70.9695C28.1615 72.8346 27.2991 74.9209 25.5006 75.6294C23.7021 76.3378 21.6486 75.4001 20.9139 73.535C20.1792 71.6699 21.1366 69.8249 22.9351 69.1164C24.7336 68.408 26.6921 69.1044 27.4268 70.9695Z" fill="#DADFD0"/>
<path id="crater1" d="M40.5289 42.8399C39.0651 41.6775 38.0351 40.6017 37.3008 38.7375C35.0743 33.0851 37.8515 26.698 43.5039 24.4714C40.8675 31.4212 40.4004 36.9792 40.5289 42.8399Z" fill="#DADFD0"/>
</g>
</g>
</g>
<g id="rigBody:armatures:translate,rotate">
<path id="body" d="M217 171.12C217 219.997 175.81 254.62 125 254.62C74.1898 254.62 33 219.997 33 171.12C33 122.243 74.1898 66.6198 125 66.6198C175.81 66.6198 217 122.243 217 171.12Z" fill="#DE9E53"/>
<g id="rigFace:armatures:translate,scale,rotate">
<path id="face" d="M190 152.272C190 184.419 161.122 188.62 125.5 188.62C89.8776 188.62 61 184.419 61 152.272C61 120.124 89.8776 98.6198 125.5 98.6198C132.481 98.6198 139.203 99.4457 145.5 101.016C171.332 107.458 190 126.425 190 152.272Z" fill="#F0CEA6"/>
<g id="eyesWincingSmall:armatures:display">
<path id="rightEye" fill-rule="evenodd" clip-rule="evenodd" d="M74.8203 139.624C76.1355 140.907 79.4093 138.688 83.0756 139.513C86.7418 140.339 89.4729 143.176 91.3533 142.149C92.3206 141.621 92.3836 140.641 91.5519 139.487C90.7202 138.334 87.9381 136.853 84.0712 136.09C80.2044 135.328 75.9848 136.216 74.9857 137.348C73.9866 138.481 74.0557 138.878 74.8203 139.624Z" fill="#363636"/>
<path id="leftEye" fill-rule="evenodd" clip-rule="evenodd" d="M174.755 139.512C173.44 140.795 170.166 138.576 166.5 139.401C162.834 140.227 160.103 143.064 158.222 142.037C157.255 141.509 157.192 140.529 158.024 139.375C158.855 138.222 161.637 136.741 165.504 135.978C169.371 135.216 173.591 136.104 174.59 137.236C175.589 138.369 175.52 138.766 174.755 139.512Z" fill="#363636"/>
</g>
<g id="eyesWincingBig:armatures:display">
<path id="rightEye_2" fill-rule="evenodd" clip-rule="evenodd" d="M76.6354 132.538C79.3213 130.031 84.0277 138.657 86.7667 138.814C90 139 91.3923 139.78 91.1314 141.658C90.7792 144.194 87.5 141.5 82.5 142.5C77.5 143.5 75 147.5 73.5 145.5C72 143.5 79.4203 139.518 80.6045 139.246C79.2179 138.062 74.2673 134.748 76.6354 132.538Z" fill="#363636"/>
<path id="leftEye_2" fill-rule="evenodd" clip-rule="evenodd" d="M170.527 132.457C167.841 129.95 163.134 138.575 160.395 138.733C157.162 138.919 155.77 139.698 156.031 141.577C156.383 144.113 159.662 141.419 164.662 142.419C169.662 143.419 172.162 147.419 173.662 145.419C175.162 143.419 167.742 139.437 166.558 139.165C167.944 137.981 172.895 134.667 170.527 132.457Z" fill="#363636"/>
</g>
<g id="eyesClosed:armatures:display">
<path id="rightEye_3" fill-rule="evenodd" clip-rule="evenodd" d="M75.106 138.148C76.8055 137.299 78.4189 139 82.5 139C86.5811 139 88.9156 137.062 90.6629 138.31C91.5617 138.952 91.1562 140.668 90 141.5C88.8437 142.332 86.7785 143.093 82.5 143C78.2214 142.907 75.2884 142.168 74.5 141C73.7116 139.832 74.118 138.642 75.106 138.148Z" fill="#363636"/>
<path id="leftEye_3" fill-rule="evenodd" clip-rule="evenodd" d="M158.022 138.148C159.721 137.299 161.334 139 165.416 139C169.497 139 171.831 137.062 173.578 138.31C174.477 138.952 174.072 140.668 172.916 141.5C171.759 142.332 169.694 143.093 165.416 143C161.137 142.907 158.204 142.168 157.416 141C156.627 139.832 157.034 138.642 158.022 138.148Z" fill="#363636"/>
</g>
<g id="eyesOpen:armatures:display,translate">
<path id="rightEye_4" d="M90 140.5C90 144.09 87.5 148 82.5 148C77.5 148 74 144.09 74 140.5C74 136.91 76.5 133.5 81.5 133C86.5 132.5 90 136.91 90 140.5Z" fill="#363636"/>
<path id="leftEye_4" d="M158 139.539C158 143.129 160.5 147.039 165.5 147.039C170.5 147.039 174 143.129 174 139.539C174 135.949 171.5 132.539 166.5 132.039C161.5 131.539 158 135.949 158 139.539Z" fill="#363636"/>
</g>
<g id="eyesHappyClosed:armatures:display">
<path id="rightEye_5" fill-rule="evenodd" clip-rule="evenodd" d="M75.106 142.75C76.8055 143.599 78.4189 141.898 82.5 141.898C86.5811 141.898 88.9156 143.836 90.663 142.588C91.5618 141.946 91.1563 140.23 90 139.398C88.8438 138.566 86.7786 137.805 82.5 137.898C78.2215 137.991 75.2885 138.73 74.5 139.898C73.7116 141.066 74.1181 142.256 75.106 142.75Z" fill="#363636"/>
<path id="leftEye_5" fill-rule="evenodd" clip-rule="evenodd" d="M158.022 142.75C159.721 143.599 161.334 141.898 165.416 141.898C169.497 141.898 171.831 143.836 173.578 142.588C174.477 141.946 174.072 140.23 172.916 139.398C171.759 138.566 169.694 137.805 165.416 137.898C161.137 137.991 158.204 138.73 157.416 139.898C156.627 141.066 157.034 142.256 158.022 142.75Z" fill="#363636"/>
</g>
<g id="eyesConcentrated:armatures:display">
<path id="rightEye_6" d="M90 140.5C90 144.09 88.5 148 83.5 148C78.5 148 76 144.09 76 140.5C76 136.91 77.5 133.5 82.5 133C87.5 132.5 90 136.91 90 140.5Z" fill="#363636"/>
<path id="leftEye_6" d="M160 139.539C160 143.129 161.5 147.039 166.5 147.039C171.5 147.039 174 143.129 174 139.539C174 135.949 172.5 132.539 167.5 132.039C162.5 131.539 160 135.949 160 139.539Z" fill="#363636"/>
</g>
<g id="eyebrowsSmallUp:armatures:display">
<path id="rightEyebrow" fill-rule="evenodd" clip-rule="evenodd" d="M89.3221 121.641C87.5235 121.867 86.6752 123.731 83.0553 125.616C79.4353 127.5 76.7006 127.303 75.5782 128.931C75.0009 129.768 75.9485 130.71 77.259 130.724C78.5695 130.737 80.6622 130.285 84.4254 128.248C88.1887 126.211 90.5373 124.371 90.8364 123.238C91.1356 122.105 90.3676 121.51 89.3221 121.641Z" fill="#363636"/>
<path id="leftEyebrow" fill-rule="evenodd" clip-rule="evenodd" d="M160.571 121.641C162.369 121.867 163.218 123.731 166.838 125.616C170.458 127.5 173.192 127.303 174.315 128.931C174.892 129.768 173.944 130.71 172.634 130.724C171.323 130.737 169.231 130.285 165.467 128.248C161.704 126.211 159.356 124.371 159.056 123.238C158.757 122.105 159.525 121.51 160.571 121.641Z" fill="#363636"/>
</g>
<g id="eyebrowsBigUp:armatures:display,translate">
<path id="rightEyebrow_2" fill-rule="evenodd" clip-rule="evenodd" d="M76.0823 129.869C76.0823 127.626 81.1271 127.112 85.0824 125.612C89.0376 124.112 90.5478 119.972 93.5824 122.112C96.617 124.252 91.672 128.626 85.6272 129.869C79.5824 131.112 76.0824 132.112 76.0823 129.869Z" fill="#363636"/>
<path id="leftEyebrow_2" fill-rule="evenodd" clip-rule="evenodd" d="M174.939 129.981C174.939 127.738 169.895 127.224 165.939 125.724C161.984 124.224 160.474 120.084 157.439 122.224C154.405 124.364 159.35 128.738 165.395 129.981C171.439 131.224 174.939 132.224 174.939 129.981Z" fill="#363636"/>
</g>
<g id="eyebrowsSerious:armatures:display">
<path id="leftEyebrow_3" fill-rule="evenodd" clip-rule="evenodd" d="M166.679 124.416C164.881 124.184 163.593 125.777 159.616 126.695C155.64 127.613 153.042 126.737 151.547 128.032C150.779 128.698 151.46 129.848 152.726 130.189C153.991 130.53 156.13 130.616 160.284 129.586C164.437 128.556 167.172 127.363 167.745 126.341C168.318 125.319 167.724 124.551 166.679 124.416Z" fill="#363636"/>
<path id="rightEyebrow_3" fill-rule="evenodd" clip-rule="evenodd" d="M82.8063 124.416C84.6041 124.184 85.8922 125.777 89.8687 126.695C93.8452 127.613 96.4433 126.737 97.9376 128.032C98.7062 128.698 98.0247 129.848 96.7593 130.189C95.4939 130.53 93.3545 130.616 89.2012 129.586C85.0478 128.556 82.3132 127.363 81.74 126.341C81.1667 125.319 81.7612 124.551 82.8063 124.416Z" fill="#363636"/>
</g>
<g id="cheeksHappy:armatures:display">
<ellipse id="rightCheek" cx="82" cy="153" rx="10" ry="7" fill="#F29595"/>
<ellipse id="leftCheek" cx="166" cy="153" rx="10" ry="7" fill="#F29595"/>
</g>
<g id="cheeksTired:armatures:display">
<path id="rightCheek_2" d="M72.4845 148.284C82.9846 149.784 89.9847 144.784 91.4848 146.284C92.9848 147.784 87.1846 157.584 75.9846 160.784C61.9846 164.784 61.9844 146.784 72.4845 148.284Z" fill="black" fill-opacity="0.15"/>
<path id="leftCheek_2" d="M176.233 148.284C165.733 149.784 158.733 144.784 157.233 146.284C155.733 147.784 161.533 157.584 172.733 160.784C186.733 164.784 186.734 146.784 176.233 148.284Z" fill="black" fill-opacity="0.15"/>
</g>
<path id="leftTear:armatures:display,translate,scale" d="M170 153.998C170 150.21 171.944 148.105 173.889 146C175.444 147.684 177 149.789 177 153.998C177 158.208 170 157.787 170 153.998Z" fill="#89B8FF"/>
<g id="rigMouth">
<path id="bunnySmallSmile:armatures:display" d="M118.5 157.5C123 157.5 122.5 152 126 152C129.5 152 128.5 157.5 132.5 157.5C136.5 157.5 136.5 154 139 155.5C141.5 157 139 161.1 133 161.5C127 161.9 126.5 159.5 126 158C125.5 159.5 122.5 162 117.5 162C112.5 162 109.5 157 112 155.5C114.5 154 114 157.5 118.5 157.5Z" fill="#363636"/>
<path id="smallFrown:armatures:display" fill-rule="evenodd" clip-rule="evenodd" d="M118.106 159.23C119.5 159.23 120.5 157.003 125.419 157.003C130.338 157.003 131.916 160.317 133.663 159.069C134.562 158.427 134.77 157.178 134.128 156.279C132.218 153.605 128.401 152.938 125.332 153.004C122.527 153.065 118.61 153.75 117.212 156.547C116.718 157.535 116.712 159.23 118.106 159.23Z" fill="#363636"/>
<path id="mediumFrown:armatures:display" fill-rule="evenodd" clip-rule="evenodd" d="M114.643 161.474C117.168 162.493 116.343 161.474 125.378 161.474C134.414 161.474 135.16 162.777 137.755 161.28C139.091 160.51 139.4 158.012 138.446 156.933C135.608 153.725 129.938 152.925 125.378 153.005C121.212 153.078 115.392 153.899 113.314 157.255C112.58 158.44 113.175 160.881 114.643 161.474Z" fill="#363636"/>
<path id="bigFrown:armatures:display" d="M147 164C147 171.6 136 165 126 165C116 165 105 170.5 105 162.5C105 154.5 120 153 126 153C132 153 147 154.5 147 164Z" fill="#363636"/>
<path id="grimmice:armatures:display" fill-rule="evenodd" clip-rule="evenodd" d="M110.338 154.377C113.931 153.526 119 153 126 153C133 153 139.535 153.289 143.229 154.539C145.129 155.182 145.569 156.432 144.212 157.332C140.173 160.01 130.5 156.165 121 157.332C111.5 158.5 111.5 158.5 108.447 157.064C107.403 156.075 108.25 154.872 110.338 154.377Z" fill="#363636"/>
<g id="sideTongue:armatures:display">
<path id="mouth" fill-rule="evenodd" clip-rule="evenodd" d="M141.967 156.449C142.626 152.541 131.84 153.5 123 151.5C114.16 149.5 113.13 154.132 114 156C114.87 157.868 120.5 156 126.5 157C132.5 158 141.307 160.356 141.967 156.449Z" fill="#363636"/>
<path id="tongue" d="M110.744 159.008C108.703 158.144 111.244 153.008 113.744 151.508C116.244 150.008 123.177 148.176 126.46 153.983C129.742 159.79 121.864 156.007 118.582 157.854C115.299 159.701 112.784 159.872 110.744 159.008Z" fill="#F29595"/>
</g>
<path id="small:armatures:display" fill-rule="evenodd" clip-rule="evenodd" d="M125.356 158C127.728 157.996 131 157.996 131 155.293C131 152.589 126.907 153.024 125.356 153.028C123.805 153.033 120.127 153.122 120.004 155.559C119.881 157.996 122.983 158.003 125.356 158Z" fill="#363636"/>
<path id="medium:armatures:display" fill-rule="evenodd" clip-rule="evenodd" d="M125.213 158.032C129.295 158.028 134.922 158.028 134.922 155.307C134.922 152.586 127.881 153.024 125.213 153.028C122.545 153.033 116.218 153.122 116.006 155.575C115.795 158.028 121.132 158.035 125.213 158.032Z" fill="#363636"/>
<path id="smallSmile:armatures:display" fill-rule="evenodd" clip-rule="evenodd" d="M118.106 152.12C119.5 152.12 120.5 154.346 125.419 154.346C130.338 154.346 131.916 151.033 133.663 152.281C134.562 152.923 134.77 154.172 134.128 155.071C132.218 157.745 128.401 158.412 125.332 158.345C122.527 158.284 118.61 157.6 117.212 154.803C116.718 153.815 116.712 152.12 118.106 152.12Z" fill="#363636"/>
<g id="bigSmile:armatures:display,scale">
<path id="bigSmile" d="M147 153.658C147 146.058 136 152.658 126 152.658C116 152.658 105 147.158 105 155.158C105 163.158 120 164.658 126 164.658C132 164.658 147 163.158 147 153.658Z" fill="#363636"/>
<path id="bigSmileTongue" d="M126 164.658C128.835 164.658 133.679 164.323 138 162.968C141 161 138 155.5 126 155.5C114 155.5 110.5 160 112 162.492C116.74 164.209 122.717 164.658 126 164.658Z" fill="#F29595"/>
</g>
</g>
<g id="rigNose">
<path id="noseRound:armatures:display" d="M117 145.559C117 149.899 119.5 151 124.5 151C129.5 151 133 149.899 133 145.559C133 141.218 130.5 140.722 125.5 140.118C120.5 139.513 117 141.218 117 145.559Z" fill="#363636"/>
<path id="noseTriangle:armatures:display" d="M132 144.043C132 147.633 127 151.543 125.5 151.543C124 151.543 119 147.633 119 144.043C119 140.453 132 139.543 132 144.043Z" fill="#363636"/>
</g>
</g>
</g>
<g id="rigFeet:armatures:rotate,translate">
<path id="leftFoot:armatures:translate,rotate" d="M171 263.12C160.6 263.12 157.5 242.74 158 234.62C158.5 226.5 161 222 172 222C183 222 185 228 185 234.62C185 241.24 181.4 263.12 171 263.12Z" fill="#DE9E53"/>
<path id="rightFoot:armatures:translate,rotate" d="M81 263.12C91.4 263.12 94.5 242.74 94 234.62C93.5 226.5 91 222 80 222C69 222 67 228 67 234.62C67 241.24 70.6 263.12 81 263.12Z" fill="#DE9E53"/>
</g>
<g id="rigAccessories">
<g id="hairFace:armatures:display,translate,rotate">
<path id="Vector 12" d="M121.473 93.7373C126.912 90.6206 131.991 98.8141 132.569 103.171C132.569 103.171 134.178 110.274 130.709 112.198C127.24 114.122 122.268 107.732 122.268 107.732C119.011 103.908 116.034 96.854 121.473 93.7373Z" fill="#F0AF63"/>
<path id="Vector 14" d="M132.473 93.7373C137.912 90.6206 142.991 98.8141 143.569 103.171C143.569 103.171 145.178 110.274 141.709 112.198C138.24 114.122 133.268 107.732 133.268 107.732C130.011 103.908 127.034 96.854 132.473 93.7373Z" fill="#F0AF63"/>
<path id="Vector 15" d="M114.584 96.1949C110.76 92.1721 102.937 96.3638 100.735 99.2921C100.735 99.2921 96.5319 103.846 98.9955 106.366C101.459 108.886 108.493 105.951 108.493 105.951C112.961 104.286 118.408 100.218 114.584 96.1949Z" fill="#F0AF63"/>
<path id="Vector 13" d="M118.144 94.0766C122.311 95.2861 120.674 101.754 118.782 104.137C118.782 104.137 116.019 108.353 113.394 107.551C110.768 106.749 111.558 101.201 111.558 101.201C111.896 97.7406 113.977 92.8671 118.144 94.0766Z" fill="#F0AF63"/>
<path id="Vector 16" d="M140.337 96.3346C137.559 99.6674 142.534 104.114 145.434 105.032C145.434 105.032 150.082 106.982 151.811 104.849C153.539 102.715 149.781 98.5582 149.781 98.5582C147.566 95.8785 143.116 93.0018 140.337 96.3346Z" fill="#F0AF63"/>
</g>
<g id="hairBody:armatures:display,translate,rotate">
<path id="Vector 17" d="M116.299 58.525C114.085 59.7489 108.337 66.7809 105.739 70.1438C109.163 73.0689 116.706 78.2816 119.488 75.7319C122.965 72.5448 119.066 56.995 116.299 58.525Z" fill="#DE9E53"/>
<path id="Vector 18" d="M131.86 61.3175C129.331 61.2484 120.809 64.3899 116.864 65.9693C118.33 70.2273 122.183 78.547 125.874 77.7621C130.488 76.7809 135.021 61.4038 131.86 61.3175Z" fill="#DE9E53"/>
<g id="Group 1">
<path id="Vector 21" d="M207.253 218.674C209.103 215.602 211.176 202.896 211.981 196.926C205.705 195.762 192.75 194.709 191.142 199.811C189.132 206.188 204.94 222.514 207.253 218.674Z" fill="#DE9E53"/>
<path id="Vector 22" d="M198.548 229.508C200.269 227.101 202.797 216.783 203.845 211.925C198.758 210.561 188.169 208.856 186.516 212.948C184.45 218.064 196.397 232.517 198.548 229.508Z" fill="#DE9E53"/>
<path id="Vector 23" d="M192.548 232.508C194.269 230.101 196.797 219.783 197.845 214.925C192.758 213.561 182.169 211.856 180.516 215.948C178.45 221.064 190.397 235.517 192.548 232.508Z" fill="#DE9E53"/>
</g>
<g id="Group 2">
<path id="Vector 21_2" d="M41.7469 219.377C39.7532 215.854 37.9881 201.001 37.3547 194.015C44.7012 192.328 59.7965 190.434 61.4062 196.359C63.4184 203.764 44.2389 223.78 41.7469 219.377Z" fill="#DE9E53"/>
<path id="Vector 22_2" d="M50.7783 230.508C49.0572 228.101 46.5297 217.783 45.4811 212.925C50.5686 211.56 61.1569 209.856 62.81 213.948C64.8763 219.064 52.9297 233.517 50.7783 230.508Z" fill="#DE9E53"/>
<path id="Vector 23_2" d="M58.622 239.508C56.9009 237.101 54.3733 226.783 53.3247 221.925C58.4122 220.561 69.0005 218.856 70.6536 222.948C72.72 228.064 60.7733 242.517 58.622 239.508Z" fill="#DE9E53"/>
</g>
<g id="Group 3">
<path id="Vector 22_3" d="M126.042 260.909C122.471 260.297 116.791 255.409 116.791 251.409C116.791 247.409 126.063 245.508 130.976 247.409C137.119 249.784 130.506 261.673 126.042 260.909Z" fill="#DE9E53"/>
</g>
<g id="Group 6">
<path id="Vector 22_4" d="M107.704 257.875C104.133 257.263 98.4526 252.375 98.4526 248.375C98.4526 244.375 107.724 242.474 112.638 244.375C118.78 246.751 112.168 258.64 107.704 257.875Z" fill="#DE9E53"/>
</g>
<g id="Group 8">
<path id="Vector 22_5" d="M145.19 257.5C145.19 257.5 136.691 254.375 136.691 250.375C136.691 246.375 145.962 244.474 150.876 246.375C157.018 248.751 145.19 257.5 145.19 257.5Z" fill="#DE9E53"/>
</g>
<g id="Group 4">
<path id="Vector 22_6" d="M136.074 257.875C132.503 257.263 126.823 252.375 126.823 248.375C126.823 244.375 136.094 242.474 141.008 244.375C147.15 246.751 140.538 258.64 136.074 257.875Z" fill="#DE9E53"/>
</g>
<g id="Group 5">
<path id="Vector 22_7" d="M115.253 258.246C113.07 257.805 109.818 253.242 110.043 249.296C110.267 245.35 116.131 243.052 119.076 244.704C122.756 246.767 117.982 258.797 115.253 258.246Z" fill="#DE9E53"/>
</g>
<path id="Vector 19" d="M212.096 130.236C210.907 126.956 202.567 117.608 198.546 113.345C193.823 117.378 185.094 126.528 187.967 130.868C191.559 136.293 213.583 134.337 212.096 130.236Z" fill="#DE9E53"/>
<path id="Vector 20" d="M39.1572 127.236C40.3469 123.956 48.6861 114.608 52.707 110.345C57.4305 114.378 66.1591 123.528 63.286 127.868C59.6946 133.293 37.6701 131.337 39.1572 127.236Z" fill="#DE9E53"/>
</g>
<g id="earsSmall:armatures:display,translate,rotate">
<path id="right ear" d="M96.1603 77C96.1603 77 87.719 97.6229 66.719 94.6229C63.6603 85.5 60.1603 72 66.719 65.5C73.2778 59 96.1603 77 96.1603 77Z" fill="#DE9E53"/>
<path id="left ear" d="M152.66 75.9151C152.66 75.9151 161.102 96.538 182.102 93.538C185.16 84.4152 188.66 70.9152 182.102 64.4152C175.543 57.9152 152.66 75.9151 152.66 75.9151Z" fill="#DE9E53"/>
</g>
<g id="earsMedium:armatures:display,translate,rotate">
<path id="right ear_2" d="M103.059 71.6229C103.059 71.6229 88.0587 96.6229 67.0587 93.6229C51.5587 56.6229 68 39.9677 84 39.6199C100 39.272 103.059 71.6229 103.059 71.6229Z" fill="#DE9E53"/>
<path id="left ear_2" d="M138.379 69.2014C138.379 69.2014 154.508 91.2044 175.508 88.2044C183.379 38.7014 162.5 34.6198 151 39.6198C139.5 44.6198 138.379 69.2014 138.379 69.2014Z" fill="#DE9E53"/>
</g>
<g id="earsBig:armatures:display,translate,rotate">
<path id="right ear_3" d="M102.059 74.003C102.059 74.003 87.0587 99.003 66.0587 96.003C50.5587 59.003 67.0587 13.503 90.0587 13.003C113.059 12.503 102.059 74.003 102.059 74.003Z" fill="#DE9E53"/>
<path id="left ear_3" d="M137.379 70.5815C137.379 70.5815 153.508 92.5846 174.508 89.5846C182.379 40.0815 174.379 5.08154 149.379 7.08153C124.379 9.08153 137.379 70.5815 137.379 70.5815Z" fill="#DE9E53"/>
</g>
</g>
<g id="rigCookie:armatures:display,translate,rotate">
<g id="cookie">
<path id="cookieDark" d="M191.5 189.064C191.5 201.766 182.203 210.064 169.5 210.064C156.797 210.064 149 201.766 149 189.064C149 179.623 157.5 170 169 170C180.5 170 191.5 176.361 191.5 189.064Z" fill="#E79536"/>
<path id="cookieLight" d="M184 186.203C184 196.666 176.781 203.5 166.918 203.5C157.054 203.5 151 196.666 151 186.203C151 178.427 157.6 170.5 166.529 170.5C175.459 170.5 184 175.74 184 186.203Z" fill="#EEA045"/>
<g id="chips">
<circle id="chip5" cx="157.5" cy="187.564" r="2.5" fill="#7D3535"/>
<path id="chip4" d="M175 182C175 183.381 173.881 183.5 172.5 183.5C171.119 183.5 170 183.381 170 182C170 180.619 171.119 179.5 172.5 179.5C173.881 179.5 175 180.619 175 182Z" fill="#7D3535"/>
<circle id="chip3" cx="184" cy="188.064" r="2" fill="#7D3535"/>
<path id="chip2" d="M165 199.064C165 200.445 164.881 201.564 163.5 201.564C162.119 201.564 161 200.445 161 199.064C161 197.683 161.619 197.064 163 197.064C164.381 197.064 165 197.683 165 199.064Z" fill="#7D3535"/>
<path id="chip1" d="M170 192.397C170 193.318 169.881 194.064 168.5 194.064C167.119 194.064 166 193.318 166 192.397C166 191.477 166.619 191.064 168 191.064C169.381 191.064 170 191.477 170 192.397Z" fill="#7D3535"/>
</g>
</g>
</g>
<g id="rigPingPong:armatures:display">
<g id="paddle:armatures:translate,rotate">
<path id="side" d="M102.566 242.398C86.5041 246.831 71.746 224.001 69.2993 210.8C66.3029 194.633 76.3864 191.119 85.0967 192.204C93.807 193.289 98.8145 206.823 107.661 213.176C116.507 219.529 118.612 237.97 102.566 242.398Z" fill="#9B1010"/>
<path id="face_2" d="M104.553 240.345C91.226 243.264 75.8583 225.287 73.0567 209.399C70.2551 193.51 79.6532 191.707 86.0564 192.379C92.4596 193.05 103.565 199.864 109.648 211.123C115.73 222.383 117.88 237.426 104.553 240.345Z" fill="#CB2626"/>
<path id="handle" d="M59.2059 187.374C61.8163 188.15 66.7518 192.845 70.2791 195.315C71.9453 196.482 72.356 195.3 73.122 194.903C73.4781 194.719 74.8499 194.853 75.5217 195.323C72.4227 198.371 72.0481 203.679 72.9446 208.763C71.1685 209.077 69.2252 209.311 69.0193 208.8C68.7449 208.119 68.6405 206.416 68.6552 203.64C67.8187 202.404 57.1086 195.396 55.1484 192.418C53.8655 190.469 56.5955 186.597 59.2059 187.374Z" fill="#BD7B55"/>
</g>
<g id="ball:armatures:translate">
<circle id="ball" cx="100.452" cy="202.452" r="8" transform="rotate(67.5 100.452 202.452)" fill="#FCF7F7"/>
</g>
</g>
<g id="rigYarn:armatures:display">
<path id="leftYarn:armatures:translate" d="M152.367 169.207C154.605 169.191 153.143 187.693 152.171 199.695C151.199 211.697 155.64 217.163 152.053 218.188C143.934 220.508 147.72 195.729 148.244 183.73C148.769 171.731 150.128 169.223 152.367 169.207Z" fill="#2C58F2"/>
<path id="leftNeedle:armatures:translate,rotate" d="M196.233 205.641C193.458 203.338 195.534 202.719 196.807 200.171C186.854 194.687 123.027 155.659 126 152.961C128.973 150.262 199.162 196.899 199.162 196.899C201.387 196.463 202.086 193.45 204.449 194.439C209.264 196.453 199.007 207.944 196.233 205.641Z" fill="#7E8087"/>
<path id="rightYarn:armatures:scale,translate" d="M105.924 160.624C108.065 160.566 106.351 183.441 105.216 198.28C104.081 213.118 108.235 219.792 104.786 221.12C96.9821 224.123 101.026 193.457 101.733 178.63C102.44 163.803 103.783 160.682 105.924 160.624Z" fill="#2C58F2"/>
<path id="rightNeedle:armatures:translate,rotate" d="M51.9329 205.919C54.6254 203.521 52.5289 202.974 51.1675 200.472C60.9239 194.644 127.969 155.971 124 153C120.031 150.029 48.6998 197.285 48.6998 197.285C46.4615 196.926 45.6578 193.939 43.3309 195.01C38.5883 197.191 49.2404 208.317 51.9329 205.919Z" fill="#7E8087"/>
<path id="middleYarn:armatures:translate,rotate,scale" d="M117.909 168.901C106.239 164.357 107.55 158.719 104.046 159.977C100.542 161.235 102.864 168.613 114.687 173.04C126.509 177.468 133.938 177.212 142.407 174.975C150.876 172.739 154.496 170.536 154.527 168.325C154.578 164.805 151.077 164.291 149.028 167.467C142.566 170.282 129.58 173.446 117.909 168.901Z" fill="#1740CE"/>
<g id="rigYarnBall">
<g id="yarnBall">
<path id="yarnBallBase" d="M75.9019 240.388C75.8038 244.133 74.1881 248.536 77.7429 251.039C77.6294 255.373 80.6355 256.903 82.7711 259.363C84.8826 261.796 84.7506 265.388 90.2486 265.532C94.6134 270.758 99.3792 269.437 104.648 269.575C109.312 269.697 115.106 271.295 117.719 267.015C124.717 267.198 124.412 263.237 127.029 260.522C129.29 258.177 132.36 257.288 132.486 252.472C136.679 249.69 134.784 245.677 134.882 241.932C134.98 238.187 137.557 235.255 133.041 231.281C134.273 226.976 130.148 225.417 128.012 222.956C126.024 220.665 125.026 217.184 121.027 217.08C118.132 213.059 111.611 212.888 106.136 212.745C102.058 212.638 97.7019 210.114 94.5812 214.684C88.6167 213.25 87.5095 218.203 84.7029 220.858C82.0095 223.406 77.28 225.965 78.2978 229.848C74.6169 232.161 76 236.642 75.9019 240.388Z" fill="#2C58F2"/>
<path id="yarnBallRight" d="M77.743 251.039C77.6295 255.373 80.6357 256.903 82.7712 259.363C84.8828 261.796 84.7507 265.388 90.2487 265.532C94.6135 270.758 99.3793 269.437 104.648 269.575C109.312 269.697 115.107 271.295 117.719 267.015C124.717 267.198 124.412 263.237 127.029 260.522C129.29 258.177 132.36 257.288 132.486 252.472C136.679 249.69 134.784 245.677 134.882 241.932C134.98 238.187 137.558 235.255 133.041 231.281C134.273 226.976 130.148 225.417 128.013 222.956C127.029 221 123.5 216 121 217.5C117.719 235 91.4999 252.472 77.743 251.039Z" fill="#1740CE"/>
<path id="yarnBallBottom" d="M75.9021 240.388C75.8041 244.133 74.1883 248.536 77.7431 251.039C77.6296 255.373 80.6357 256.903 82.7713 259.363C84.8829 261.796 84.7508 265.388 90.2488 265.532C94.6136 270.758 99.3794 269.437 104.648 269.575C109.312 269.697 115.107 271.295 117.719 267.015C124.717 267.198 124.412 263.237 127.029 260.522C129.29 258.177 132.36 257.288 132.486 252.472C134.5 252.472 138 245.5 134.5 242.5C113.5 265.532 75.8311 238 84.7031 220.858C82.0097 223.406 77.2802 225.965 78.298 229.848C74.6171 232.161 76.0002 236.642 75.9021 240.388Z" fill="#0B2DA5"/>
<path id="yarnBallTail" d="M87.5478 267.35C92.5 268.588 98 269.85 98.5 267.35C99 264.85 94.8132 265.451 89.6566 263.225C84.5 261 74.5 261 72 265C69.5 269 67 269.5 64 268.5C60.9999 267.5 56.5 263.5 55 265C53.5 266.5 54.5 268.992 60 271.5C65.5 274.008 71 275 74.5 269.5C78 264 82.5957 266.112 87.5478 267.35Z" fill="#0B2DA5"/>
</g>
</g>
</g>
<g id="rigMug:armatures:translate">
<path id="insideMug:armatures:display" d="M171.337 179.05C154.315 177.047 129.784 178.676 126.78 180.552C125.278 181.49 137.995 185.558 144.803 185.558C151.61 185.558 170.335 184.056 171.337 179.05Z" fill="#E05428"/>
<g id="rigSteam">
<path id="steam:armatures:display,translate,scale" d="M161.345 175.755C151.332 175.355 151.499 180.595 153.334 182.764H143.822C145.324 180.762 150.831 175.254 139.316 176.756C127.802 178.258 124.297 172.751 127.301 167.745C130.305 162.738 163.347 163.74 146.826 155.73C130.305 147.719 150.831 134.202 149.83 142.713C148.829 151.224 163.347 148.22 163.347 158.733C163.347 169.247 143.822 164.741 139.316 168.746C134.811 172.751 147.827 172.251 155.838 170.248C170.644 166.546 177.675 176.408 161.345 175.755Z" fill="#E7D5C1"/>
</g>
<g id="mug:armatures:display">
<path id="base" d="M149.308 225.109C115.831 224.532 119.771 192.567 126.78 180.552C163.827 184.056 168.333 179.05 171.337 179.05C178.846 196.572 178.346 225.609 149.308 225.109Z" fill="#F26B41"/>
<path id="shadow_2" d="M173.84 186.559C176.343 195.07 179.847 226.11 149.308 225.109C124.801 223.608 180.849 227.612 168.333 184.056C169.835 185.058 173.84 186.559 173.84 186.559Z" fill="#E05428"/>
<path id="handle_2" fill-rule="evenodd" clip-rule="evenodd" d="M189.861 185.287C191.444 204.812 179.347 225.109 163.827 222.105C166.536 220.134 168.034 216.71 169.333 213.739C170.675 210.671 171.805 208.087 173.84 208.087C173.875 208.064 173.909 208.04 173.943 208.015C173.878 208.212 173.84 208.317 173.84 208.317C180.348 204.812 183.853 194.799 183.352 188.792C182.854 182.817 178.396 181.794 173.915 187.418C173.731 187.425 173.539 187.472 173.339 187.561C167.332 187.561 166.203 180.242 171.337 179.279C176.343 173.772 189.026 175 189.861 185.287Z" fill="#F26B41"/>
</g>
</g>
<g id="rigHands:armatures:rotate">
<g id="rigLeftHand:armatures:translate,rotate">
<path id="leftHand" d="M182.5 197.587C174.5 190.587 184.833 177.92 191.5 174.587C191.5 174.587 202 168.087 207 172.587C212 177.087 204.5 188.587 204.5 188.587C200.167 195.92 190.5 204.587 182.5 197.587Z" fill="#BB6D12"/>
</g>
<g id="rigRightHand:armatures:translate,rotate">
<path id="rightHand" d="M65.0941 197.489C73.0941 190.489 62.7608 177.822 56.0941 174.489C56.0941 174.489 45.5828 167.848 41.4817 172.891C37.3805 177.934 43.0941 188.489 43.0941 188.489C47.4275 195.822 57.0941 204.489 65.0941 197.489Z" fill="#BB6D12"/>
</g>
</g>
<g id="rigIcons">
<g id="moonIcon">
<g id="rigMoon:armatures:display_2">
<g id="moon:armatures:translate_2">
<g id="moonDark_2">
<circle cx="32.6141" cy="31.7462" r="24.3763" transform="rotate(-21.5 32.6141 31.7462)" fill="#BCC1B2"/>
<circle cx="32.6141" cy="31.7462" r="24.3763" transform="rotate(-21.5 32.6141 31.7462)" fill="#BCC1B2"/>
</g>
<g id="moonLight_2">
<path d="M24.5663 34.9163C31.0249 47.0213 43.4104 52.0025 41.5481 54.4264C29.0222 59.3605 14.8681 53.2061 9.93396 40.6802C4.99987 28.1543 11.1543 14.0001 23.6802 9.06604C26.3479 10.8323 18.1078 22.8113 24.5663 34.9163Z" fill="#BCC1B2"/>
<path d="M24.5663 34.9163C31.0249 47.0213 43.4104 52.0025 41.5481 54.4264C29.0222 59.3605 14.8681 53.2061 9.93396 40.6802C4.99987 28.1543 11.1543 14.0001 23.6802 9.06604C26.3479 10.8323 18.1078 22.8113 24.5663 34.9163Z" fill="#EBF0E1"/>
</g>
<g id="craterDark_2">
<g id="crater6_2">
<path d="M37.2199 30.635C37.6974 31.8471 37.1018 33.2169 35.8896 33.6944C34.6774 34.1719 33.7954 33.3842 33.3179 32.172C32.8404 30.9598 32.9483 29.7822 34.1605 29.3047C35.3727 28.8272 36.7424 29.4228 37.2199 30.635Z" fill="#A4AB96"/>
<path d="M37.2199 30.635C37.6974 31.8471 37.1018 33.2169 35.8896 33.6944C34.6774 34.1719 33.7954 33.3842 33.3179 32.172C32.8404 30.9598 32.9483 29.7822 34.1605 29.3047C35.3727 28.8272 36.7424 29.4228 37.2199 30.635Z" fill="#A4AB96"/>
<path d="M37.2199 30.635C37.6974 31.8471 37.1018 33.2169 35.8896 33.6944C34.6774 34.1719 33.7954 33.3842 33.3179 32.172C32.8404 30.9598 32.9483 29.7822 34.1605 29.3047C35.3727 28.8272 36.7424 29.4228 37.2199 30.635Z" fill="#A4AB96"/>
</g>
<g id="crater5_2">
<path d="M44.1133 20.1737C44.8561 22.0594 43.9296 24.1901 42.044 24.9329C40.1584 25.6756 38.0276 24.7492 37.2849 22.8635C36.5421 20.9779 37.5646 19.0911 39.4502 18.3483C41.3359 17.6055 43.3705 18.2881 44.1133 20.1737Z" fill="#A4AB96"/>
<path d="M44.1133 20.1737C44.8561 22.0594 43.9296 24.1901 42.044 24.9329C40.1584 25.6756 38.0276 24.7492 37.2849 22.8635C36.5421 20.9779 37.5646 19.0911 39.4502 18.3483C41.3359 17.6055 43.3705 18.2881 44.1133 20.1737Z" fill="#A4AB96"/>
<path d="M44.1133 20.1737C44.8561 22.0594 43.9296 24.1901 42.044 24.9329C40.1584 25.6756 38.0276 24.7492 37.2849 22.8635C36.5421 20.9779 37.5646 19.0911 39.4502 18.3483C41.3359 17.6055 43.3705 18.2881 44.1133 20.1737Z" fill="#A4AB96"/>
</g>
<g id="crater4_2">
<path d="M31.2843 16.2124C32.4515 19.1755 31.3499 21.5503 28.2321 22.7672C25.1142 23.9842 21.7211 23.4023 20.5539 20.4392C19.3867 17.4761 20.8426 14.1278 23.8057 12.9606C26.7688 11.7934 30.1171 13.2493 31.2843 16.2124Z" fill="#A4AB96"/>
<path d="M31.2843 16.2124C32.4515 19.1755 31.3499 21.5503 28.2321 22.7672C25.1142 23.9842 21.7211 23.4023 20.5539 20.4392C19.3867 17.4761 20.8426 14.1278 23.8057 12.9606C26.7688 11.7934 30.1171 13.2493 31.2843 16.2124Z" fill="#A4AB96"/>
<path d="M31.2843 16.2124C32.4515 19.1755 31.3499 21.5503 28.2321 22.7672C25.1142 23.9842 21.7211 23.4023 20.5539 20.4392C19.3867 17.4761 20.8426 14.1278 23.8057 12.9606C26.7688 11.7934 30.1171 13.2493 31.2843 16.2124Z" fill="#A4AB96"/>
</g>
</g>
<g id="craterLight_2">
<path id="crater3_2" d="M26.2658 44.952C27.0086 46.8376 26.0821 48.9684 24.1965 49.7111C22.3108 50.4539 20.1801 49.5274 19.4374 47.6418C18.6946 45.7562 19.7171 43.8693 21.6027 43.1266C23.4884 42.3838 25.523 43.0664 26.2658 44.952Z" fill="#DADFD0"/>
<path id="crater2_2" d="M15.3777 37.3359C15.7629 38.3137 15.3108 39.4073 14.368 39.7787C13.4252 40.1501 12.3487 39.6586 11.9635 38.6808C11.5784 37.7031 12.0803 36.7359 13.0231 36.3645C13.9659 35.9931 14.9926 36.3582 15.3777 37.3359Z" fill="#DADFD0"/>
<path id="crater1_2" d="M22.2462 22.5897C21.4788 21.9804 20.9389 21.4164 20.5539 20.4392C19.3867 17.4761 20.8426 14.1278 23.8057 12.9606C22.4237 16.6038 22.1788 19.5174 22.2462 22.5897Z" fill="#DADFD0"/>
</g>
</g>
</g>
</g>
<g id="fartCloudIcon">
<g id="fart cloud">
<path id="Vector 29" d="M38.5885 43.6587C36.5207 46.4528 32.8503 47.3938 30.1933 45.0694C30.1933 45.0694 28.9681 51.3229 24.0008 51.6167C19.0335 51.9106 17.6215 47.8499 17.6215 47.8499C15.9198 48.6755 8.9103 47.9633 8.44802 42.0151C7.98574 36.067 11.4985 33.2733 14.9787 33.095C12.1876 32.8235 14.1911 21.9053 22.9871 20.115C31.7831 18.3248 34.0067 24.1258 34.0067 24.1258C34.0067 24.1258 38.8904 21.1743 42.0321 24.8137C45.1738 28.453 43.5654 34.9174 39.0444 35.5488C41.5962 36.9592 40.6564 40.8646 38.5885 43.6587Z" fill="#A0C633"/>
<path id="Vector 30" d="M55.5093 18.859C55.9175 20.4603 54.4314 22.202 52.9439 21.7029C54.1268 23.4196 49.7777 25.7503 48.7612 23.274C48.7612 23.274 47.4252 25.0097 45.8522 24.3383C44.2792 23.6668 44.4676 22.2012 44.4676 22.2012C43.8176 22.1942 41.7707 20.9001 42.5407 18.9996C43.3108 17.099 45.2411 16.9474 46.339 17.4263C45.8838 17.1413 53.711 11.8053 55.5093 18.859Z" fill="#A0C633"/>
<path id="Vector 31" d="M31.6582 12.9029C31.278 14.0523 32.2751 15.4012 33.3878 15.1125C32.3262 16.4437 39.7538 19.2938 39.5571 15.9098C42.1345 16.0621 41.2843 11.3112 38.4335 12.3245C38.7807 12.1394 33.333 7.83965 31.6582 12.9029Z" fill="#A0C633"/>
</g>
</g>
<g id="yarnBallIcon">
<g id="yarnBall_2">
<path id="rightNeedle" d="M54.7313 17.9664C53.0652 19.3551 52.9263 18.0591 51.5591 17.0268C47.2242 22.3131 36.4897 37.4073 35.0753 34.782C33.6609 32.1566 49.882 15.2752 49.882 15.2752C49.8677 13.9117 48.1623 13.168 49.006 11.8788C50.7254 9.25114 56.3974 16.5778 54.7313 17.9664Z" fill="#A5A9B5"/>
<g id="rigYarnBall_2">
<g id="yarnBall_3">
<path id="yarnBallBase_2" d="M19.6537 34.1693C19.5924 36.5108 18.5823 39.2635 20.8047 40.8283C20.7337 43.5382 22.6132 44.4945 23.9483 46.0328C25.2684 47.5538 25.1859 49.7993 28.6232 49.8893C31.352 53.1568 34.3316 52.3309 37.6254 52.4171C40.5413 52.4935 44.1641 53.4923 45.7977 50.8163C50.1726 50.9309 49.9817 48.4544 51.6179 46.7574C53.0318 45.2911 54.9508 44.7355 55.0297 41.7245C57.6514 39.9853 56.4662 37.4764 56.5275 35.1349C56.5888 32.7934 58.2004 30.9604 55.3766 28.476C56.147 25.7844 53.5681 24.8097 52.2329 23.2714C50.9897 21.839 50.3659 19.6628 47.866 19.5973C46.0556 17.0835 41.9787 16.9768 38.5558 16.8871C36.0061 16.8204 33.283 15.2425 31.3319 18.0994C27.603 17.2029 26.9107 20.2999 25.156 21.9598C23.4721 23.5528 20.5153 25.1527 21.1516 27.5798C18.8504 29.0261 19.715 31.8278 19.6537 34.1693Z" fill="#2C58F2"/>
<path id="yarnBallRight_2" d="M20.8048 40.8282C20.7338 43.5381 22.6132 44.4945 23.9484 46.0328C25.2685 47.5537 25.186 49.7992 28.6233 49.8893C31.3521 53.1567 34.3317 52.3308 37.6255 52.4171C40.5414 52.4934 44.1642 53.4922 45.7977 50.8163C50.1727 50.9309 49.9817 48.4544 51.618 46.7573C53.0319 45.291 54.9509 44.7354 55.0297 41.7244C57.6515 39.9852 56.4663 37.4764 56.5276 35.1349C56.5889 32.7934 58.2005 30.9604 55.3767 28.476C56.1471 25.7844 53.5682 24.8097 52.233 23.2714C51.6181 22.0482 49.4118 18.9223 47.8488 19.8601C45.7977 30.801 29.4055 41.7244 20.8048 40.8282Z" fill="#1740CE"/>
<path id="yarnBallBottom_2" d="M19.6539 34.1693C19.5926 36.5108 18.5824 39.2635 20.8048 40.8282C20.7339 43.5381 22.6133 44.4945 23.9484 46.0328C25.2686 47.5537 25.186 49.7992 28.6233 49.8892C31.3522 53.1567 34.3317 52.3308 37.6256 52.4171C40.5414 52.4934 44.1643 53.4922 45.7978 50.8163C50.1727 50.9309 49.9818 48.4543 51.6181 46.7573C53.0319 45.291 54.951 44.7354 55.0298 41.7244C56.2889 41.7244 58.477 37.3655 56.2889 35.4899C43.1598 49.8892 19.6095 32.6765 25.1562 21.9598C23.4723 23.5527 20.5154 25.1526 21.1517 27.5797C18.8505 29.026 19.7152 31.8278 19.6539 34.1693Z" fill="#0B2DA5"/>
<path id="yarnBallTail_2" d="M26.9347 51.0262C30.0308 51.8002 33.4693 52.5892 33.7819 51.0262C34.0945 49.4632 31.4769 49.8386 28.2531 48.4473C25.0292 47.056 18.7773 47.056 17.2143 49.5567C15.6513 52.0575 14.0883 52.3701 12.2127 51.7449C10.3371 51.1197 7.52378 48.619 6.58599 49.5567C5.64819 50.4945 6.27336 52.0526 9.71194 53.6205C13.1505 55.1884 16.5891 55.8087 18.7773 52.3701C20.9655 48.9315 23.8386 50.2522 26.9347 51.0262Z" fill="#0B2DA5"/>
</g>
</g>
<path id="leftNeedle" d="M33.2041 12.0102C33.9881 14.0325 34.7379 12.9664 36.4342 12.7263C37.6627 19.4514 39.0289 25.9746 41.5388 24.3641C44.0487 22.7537 38.7502 12.0074 38.7502 12.0074C39.4238 10.8217 41.2759 10.9981 41.163 9.46149C40.9331 6.32974 32.4202 9.98787 33.2041 12.0102Z" fill="#A6A9B5"/>
</g>
</g>
<g id="mugIcon">
<g id="rigMug:armatures:translate_2">
<path id="insideMug:armatures:display_2" d="M41.7471 30.3935C31.484 29.1938 16.6931 30.1694 14.882 31.2933C13.9764 31.8552 21.6443 34.2924 25.7487 34.2924C29.8532 34.2924 41.1434 33.3927 41.7471 30.3935Z" fill="#E05428"/>
<g id="rigSteam_2">
<path id="steam:armatures:display,translate,scale_2" d="M35.7225 28.4197C29.6854 28.1798 29.786 31.3189 30.8928 32.6186H25.1575C26.0631 31.4189 29.3835 28.1198 22.4408 29.0196C15.498 29.9193 13.3852 26.6202 15.1963 23.6211C17.0075 20.6219 36.9299 21.2217 26.9686 16.4231C17.0074 11.6244 29.3835 3.52666 28.7798 8.62525C28.176 13.7238 36.9299 11.9243 36.9299 18.2226C36.9299 24.5208 25.1575 21.8216 22.4408 24.2209C19.7241 26.6202 27.5724 26.3203 32.402 25.1206C41.3298 22.903 45.569 28.8111 35.7225 28.4197Z" fill="#E7D5C1"/>
</g>
<g id="mug:armatures:display_2">
<path id="base_2" d="M28.4654 57.9859C8.28022 57.6401 10.6559 38.4913 14.8819 31.2933C37.2193 33.3927 39.936 30.3935 41.7471 30.3935C46.275 40.8906 45.9731 58.2858 28.4654 57.9859Z" fill="#F26B41"/>
<path id="shadow_3" d="M43.2564 34.8922C44.7657 39.9908 46.8786 58.5856 28.4654 57.9858C13.6886 57.0869 47.4824 59.4854 39.936 33.3927C40.8415 33.9925 43.2564 34.8922 43.2564 34.8922Z" fill="#E05428"/>
<path id="handle_3" fill-rule="evenodd" clip-rule="evenodd" d="M52.9159 34.13C53.8705 45.8267 46.5768 57.9858 37.2193 56.1863C38.8528 55.006 39.7557 52.9546 40.5391 51.1748C41.3481 49.3369 42.0296 47.7887 43.2564 47.7887C43.2773 47.7748 43.298 47.7604 43.3185 47.7454C43.2794 47.8637 43.2566 47.9262 43.2566 47.9262C47.1807 45.8267 49.2937 39.8284 48.9918 36.2294C48.6916 32.6505 46.0034 32.0373 43.3018 35.4066C43.1909 35.411 43.0751 35.4388 42.9546 35.4921C39.3323 35.4921 38.652 31.1075 41.7471 30.5308C44.7658 27.2319 52.4129 27.9673 52.9159 34.13Z" fill="#F26B41"/>
</g>
</g>
</g>
<g id="cookieIcon">
<g id="rigCookie:armatures:display,translate,rotate_2">
<g id="cookie_2">
<path id="cookieDark_2" d="M53.5 31.0639C53.5 43.7664 44.2025 52.0638 31.5 52.0638C18.7975 52.0638 11 43.7664 11 31.0639C11 21.6235 19.5 12 31 12C42.5 12 53.5 18.3613 53.5 31.0639Z" fill="#E79536"/>
<path id="cookieLight_2" d="M46 28.2026C46 38.6655 38.7808 45.5 28.9176 45.5C19.0545 45.5 13 38.6655 13 28.2026C13 20.4267 19.6 12.5 28.5294 12.5C37.4588 12.5 46 17.7397 46 28.2026Z" fill="#EEA045"/>
<g id="chips_2">
<circle id="chip5_2" cx="19.5" cy="29.5638" r="2.5" fill="#7D3535"/>
<path id="chip4_2" d="M37 24C37 25.3807 35.8807 25.5 34.5 25.5C33.1193 25.5 32 25.3807 32 24C32 22.6193 33.1193 21.5 34.5 21.5C35.8807 21.5 37 22.6193 37 24Z" fill="#7D3535"/>
<circle id="chip3_2" cx="46" cy="30.0638" r="2" fill="#7D3535"/>
<path id="chip2_2" d="M27 41.0638C27 42.4446 26.8807 43.5638 25.5 43.5638C24.1193 43.5638 23 42.4446 23 41.0638C23 39.6831 23.6193 39.0638 25 39.0638C26.3807 39.0638 27 39.6831 27 41.0638Z" fill="#7D3535"/>
<path id="chip1_2" d="M32 34.3972C32 35.3177 31.8807 36.0638 30.5 36.0638C29.1193 36.0638 28 35.3177 28 34.3972C28 33.4767 28.6193 33.0638 30 33.0638C31.3807 33.0638 32 33.4767 32 34.3972Z" fill="#7D3535"/>
</g>
</g>
</g>
</g>
<g id="pingPongIcon">
<g id="paddle:armatures:translate,rotate_2">
<path id="side_2" d="M58.7485 20.6681C60.0977 34.9137 38.6587 43.9909 27.1665 44.0915C13.0926 44.2147 11.6289 35.1626 13.8386 27.9577C16.0484 20.7529 28.2014 18.536 34.8718 12.0016C41.5423 5.46724 57.4007 6.43691 58.7485 20.6681Z" fill="#9B1010"/>
<path id="face_3" d="M57.3133 18.6817C57.7931 30.3884 40.3544 40.7047 26.5441 40.7047C12.7338 40.7047 12.6109 32.4875 14.1285 27.1721C15.6462 21.8567 23.0408 13.4803 33.4367 10.0153C43.8325 6.55017 56.8335 6.97506 57.3133 18.6817Z" fill="#CB2626"/>
<path id="handle_4" d="M5.91829 49.1345C6.96086 47.0425 11.6523 43.5685 14.2588 40.9536C15.49 39.7184 14.5547 39.1948 14.3341 38.4879C14.2316 38.1591 14.5484 37.0189 15.0448 36.5209C17.153 39.5963 21.5724 40.7047 25.9917 40.7047C25.9917 42.2537 25.9007 43.9321 25.4393 44.0301C24.8244 44.1606 23.373 43.9949 21.0354 43.5685C19.8688 44.0916 12.3689 52.1045 9.56714 53.3183C7.73367 54.1127 4.87571 51.2264 5.91829 49.1345Z" fill="#BD7B55"/>
</g>
<circle id="ball_2" cx="34.8765" cy="21.0108" r="5.65997" transform="rotate(-7.5 34.8765 21.0108)" fill="#FCF7F7"/>
</g>
<g id="earsIcon">
<g id="ears">
<path id="Vector 9" d="M21 31.0259C21 31.0259 17.6907 39.0514 9.45799 37.8839C8.25886 34.3338 6.88674 29.0802 9.45799 26.5507C12.0292 24.0212 21 31.0259 21 31.0259Z" fill="#969696"/>
<path id="Vector 12_2" d="M43 31.0259C43 31.0259 46.3093 39.0514 54.542 37.8839C55.7411 34.3338 57.1133 29.0802 54.542 26.5507C51.9708 24.0212 43 31.0259 43 31.0259Z" fill="#969696"/>
</g>
</g>
<g id="furIcon">
<g id="body fur">
<g id="Group 1_2">
<path id="Vector 21_3" d="M50.6429 45.3426C51.0588 44.652 51.5247 41.7957 51.7056 40.4539C50.2948 40.1922 47.3828 39.9555 47.0213 41.1023C46.5695 42.5358 50.1229 46.2057 50.6429 45.3426Z" fill="#969696"/>
<path id="Vector 22_8" d="M48.6861 47.778C49.0729 47.2369 49.6411 44.9174 49.8768 43.8253C48.7332 43.5187 46.3531 43.1355 45.9815 44.0554C45.517 45.2054 48.2025 48.4543 48.6861 47.778Z" fill="#969696"/>
<path id="Vector 23_3" d="M47.3373 48.4524C47.7242 47.9113 48.2924 45.5918 48.5281 44.4997C47.3845 44.1931 45.0044 43.8098 44.6328 44.7298C44.1683 45.8798 46.8537 49.1287 47.3373 48.4524Z" fill="#969696"/>
</g>
<g id="Group 2_2">
<path id="Vector 21_4" d="M13.4389 45.5005C12.9907 44.7087 12.5939 41.3699 12.4515 39.7994C14.103 39.4202 17.4962 38.9945 17.8581 40.3263C18.3104 41.9909 13.999 46.4903 13.4389 45.5005Z" fill="#969696"/>
<path id="Vector 22_9" d="M15.469 48.0028C15.0821 47.4617 14.514 45.1422 14.2783 44.0501C15.4219 43.7435 17.802 43.3602 18.1736 44.2802C18.6381 45.4302 15.9526 48.6791 15.469 48.0028Z" fill="#969696"/>
<path id="Vector 23_4" d="M17.2322 50.0259C16.8454 49.4848 16.2772 47.1653 16.0415 46.0732C17.1851 45.7666 19.5652 45.3833 19.9368 46.3033C20.4013 47.4533 17.7158 50.7022 17.2322 50.0259Z" fill="#969696"/>
</g>
<g id="Group 3_2">
<path id="Vector 22_10" d="M31.8699 54.8364C31.2191 54.6988 30.184 53.6 30.184 52.7009C30.184 51.8017 31.8735 51.3745 32.769 51.8017C33.8884 52.3358 32.6834 55.0083 31.8699 54.8364Z" fill="#969696"/>
</g>
<g id="Group 6_2">
<path id="Vector 22_11" d="M28.528 54.1544C27.8772 54.0169 26.8421 52.9181 26.8421 52.0189C26.8421 51.1198 28.5316 50.6925 29.4271 51.1198C30.5465 51.6538 29.3415 54.3264 28.528 54.1544Z" fill="#969696"/>
</g>
<g id="Group 8_2">
<path id="Vector 22_12" d="M35.3593 54.0702C35.3593 54.0702 33.8104 53.3677 33.8104 52.4685C33.8104 51.5694 35.5 51.1422 36.3955 51.5694C37.5149 52.1034 35.3593 54.0702 35.3593 54.0702Z" fill="#969696"/>
</g>
<g id="Group 7">
<path id="Vector 22_13" d="M40.0219 53.9221C39.3712 53.7845 38.336 52.6858 38.336 51.7866C38.336 50.8875 40.0256 50.4602 40.9211 50.8875C42.0405 51.4215 40.8354 54.0941 40.0219 53.9221Z" fill="#969696"/>
</g>
<g id="Group 4_2">
<path id="Vector 22_14" d="M33.698 54.1544C33.0472 54.0169 32.0121 52.9181 32.0121 52.0189C32.0121 51.1198 33.7016 50.6925 34.5971 51.1198C35.7165 51.6538 34.5115 54.3264 33.698 54.1544Z" fill="#969696"/>
</g>
<g id="Group 5_2">
<path id="Vector 22_15" d="M29.9624 54.2379C29.4716 54.1388 28.7405 53.113 28.791 52.2259C28.8416 51.3389 30.1597 50.8225 30.8216 51.1937C31.649 51.6576 30.5758 54.3618 29.9624 54.2379Z" fill="#969696"/>
</g>
<path id="Vector 19_2" d="M51.9029 25.238C51.6355 24.5006 49.7609 22.3993 48.8571 21.4409C47.7953 22.3474 45.8332 24.4044 46.479 25.38C47.2863 26.5994 52.2372 26.1597 51.9029 25.238Z" fill="#969696"/>
<path id="Vector 21_5" d="M53.2616 31.1907C53.1195 30.4193 52.1742 28.0521 51.4409 26.9576C50.2441 27.6765 49.337 28.8072 49.813 29.876C50.408 31.2119 53.4391 32.1549 53.2616 31.1907Z" fill="#969696"/>
<path id="Vector 20_2" d="M11.005 27.7106C11.2724 26.9733 13.147 24.872 14.0509 23.9135C15.1126 24.8201 17.0748 26.8771 16.4289 27.8527C15.6216 29.0721 10.6707 28.6323 11.005 27.7106Z" fill="#969696"/>
<path id="Vector 5" d="M41.026 55.0817C38.3057 55.0817 37.7564 51.0328 37.4948 48.7876H44.688C44.6008 50.8856 43.7464 55.0817 41.026 55.0817Z" fill="#969696"/>
<path id="Vector 13_2" d="M23.3984 55.0817C26.1188 55.0817 26.6681 51.0328 26.9297 48.7876H19.7364C19.8236 50.8856 20.6781 55.0817 23.3984 55.0817Z" fill="#969696"/>
<path id="Ellipse 5" d="M52.7804 34.6528C52.7804 45.6399 43.5214 53.4227 32.0998 53.4227C20.6783 53.4227 11.4193 45.6399 11.4193 34.6528C11.4193 23.6507 20.0461 11.1624 32.0998 11.1624C44.1659 11.1624 52.7804 23.6381 52.7804 34.6528Z" fill="#969696"/>
<path id="Vector 17_2" d="M31.3131 9.45962C30.7736 9.63945 29.215 10.9582 28.5032 11.5951C29.1401 12.3819 30.5937 13.843 31.3131 13.3934C32.2122 12.8315 31.9874 9.23483 31.3131 9.45962Z" fill="#969696"/>
<path id="Vector 18_2" d="M35.2153 9.97052C34.6468 9.95499 32.7312 10.6612 31.8445 11.0162C32.1739 11.9733 33.0401 13.8435 33.8698 13.6671C34.907 13.4465 35.9259 9.98993 35.2153 9.97052Z" fill="#969696"/>
</g>
</g>
<g id="noseIcon">
<path id="triangleNose" d="M39 30.0432C39 33.6331 34 37.5432 32.5 37.5432C31 37.5432 26 33.6331 26 30.0432C26 26.4534 39 25.5432 39 30.0432Z" fill="#969696"/>
</g>
<g id="sunIcon">
<g id="sun">
<g id="sunOutside">
<circle id="sunOutside_2" cx="31.9924" cy="32.261" r="21.5653" fill="#FFE9B1"/>
<g id="rays">
<path id="Vector 32" d="M31.7496 8C29.9525 8 26.8076 12.4928 26.8076 12.4928H36.6917C36.6917 12.4928 33.5467 8 31.7496 8Z" fill="#FFE9B1"/>
<path id="Vector 33" d="M43.1219 10.9189C41.5136 10.117 36.6944 12.7345 36.6944 12.7345L45.54 17.1448C45.54 17.1448 44.7302 11.7208 43.1219 10.9189Z" fill="#FFE9B1"/>
<path id="Vector 34" d="M53.0353 18.4346C52.0566 16.9274 46.5758 16.7368 46.5758 16.7368L51.959 25.0263C51.959 25.0263 54.0141 19.9418 53.0353 18.4346Z" fill="#FFE9B1"/>
<path id="Vector 35" d="M57.2145 31.3454C57.1518 29.5494 52.552 26.5631 52.552 26.5631L52.8969 36.4412C52.8969 36.4412 57.2772 33.1414 57.2145 31.3454Z" fill="#FFE9B1"/>
<path id="Vector 36" d="M53.9995 42.7745C54.8432 41.1878 52.3528 36.3017 52.3528 36.3017L47.7125 45.0289C47.7125 45.0289 53.1558 44.3613 53.9995 42.7745Z" fill="#FFE9B1"/>
<path id="Vector 37" d="M46.2269 52.4879C47.7591 51.5489 48.0932 46.0749 48.0932 46.0749L39.6656 51.2393C39.6656 51.2393 44.6946 53.4268 46.2269 52.4879Z" fill="#FFE9B1"/>
<path id="Vector 32_2" d="M32.8409 56.2592C34.6379 56.2436 37.7435 51.7235 37.7435 51.7235L27.8598 51.8098C27.8598 51.8098 31.0438 56.2749 32.8409 56.2592Z" fill="#FFE9B1"/>
<path id="Vector 33_2" d="M21.4436 53.4397C23.0588 54.2275 27.855 51.5681 27.855 51.5681L18.9712 47.2352C18.9712 47.2352 19.8283 52.6519 21.4436 53.4397Z" fill="#FFE9B1"/>
<path id="Vector 34_2" d="M11.4649 46.0108C12.4568 47.5093 17.9391 47.6521 17.9391 47.6521L12.4837 39.4099C12.4837 39.4099 10.473 44.5122 11.4649 46.0108Z" fill="#FFE9B1"/>
<path id="Vector 35_2" d="M7.17247 33.1174C7.23519 34.9134 11.835 37.8996 11.835 37.8996L11.49 28.0216C11.49 28.0216 7.10976 31.3214 7.17247 33.1174Z" fill="#FFE9B1"/>
<path id="Vector 36_2" d="M10.2884 21.6802C9.45856 23.2742 11.9915 28.1384 11.9915 28.1384L16.5555 19.3711C16.5555 19.3711 11.1182 20.0861 10.2884 21.6802Z" fill="#FFE9B1"/>
<path id="Vector 37_2" d="M17.976 11.8994C16.4519 12.8517 16.1657 18.3284 16.1657 18.3284L24.5479 13.0906C24.5479 13.0906 19.5 10.9471 17.976 11.8994Z" fill="#FFE9B1"/>
</g>
</g>
<circle id="sunMiddle" cx="32.4417" cy="32.7102" r="18.4204" fill="#FDF7E9"/>
<circle id="sunCenter" cx="32.4417" cy="32.7102" r="15.7247" fill="white"/>
</g>
</g>
<g id="starIcon">
<path id="Star 1" d="M30.3096 15.1149C31.0432 13.6284 33.1629 13.6284 33.8965 15.1149L38.2503 23.9366C38.5416 24.5269 39.1047 24.936 39.7562 25.0307L49.4915 26.4453C51.1319 26.6836 51.7869 28.6996 50.5999 29.8567L43.5554 36.7234C43.084 37.1829 42.8689 37.8449 42.9802 38.4937L44.6432 48.1897C44.9234 49.8235 43.2085 51.0694 41.7413 50.298L33.0337 45.7202C32.4511 45.4139 31.755 45.4139 31.1724 45.7202L22.4648 50.298C20.9976 51.0694 19.2827 49.8235 19.5629 48.1897L21.2259 38.4937C21.3372 37.8449 21.1221 37.1829 20.6507 36.7234L13.6062 29.8567C12.4191 28.6996 13.0741 26.6836 14.7146 26.4453L24.4499 25.0307C25.1013 24.936 25.6645 24.5269 25.9558 23.9366L30.3096 15.1149Z" fill="#FFED91"/>
</g>
<g id="speakerOnIcon">
<g id="speakerOn">
<rect id="Rectangle 25" x="17" y="22.5479" width="19.1265" height="19.1265" rx="9.56325" fill="#FFF8DF"/>
<rect id="Rectangle 27" x="32.9388" y="24.9388" width="14.3449" height="14.3449" rx="7.17244" fill="#FFF8DF"/>
<path id="Rectangle 26" d="M24.9694 25.2314C24.9694 23.998 25.5384 22.8336 26.5115 22.0757L36.841 14.0301C39.4681 11.9839 43.299 13.8559 43.299 17.1858V46.897C43.299 50.2515 39.4182 52.1161 36.7994 50.0198L26.4698 41.7515C25.5214 40.9924 24.9694 39.8435 24.9694 38.6287V25.2314Z" fill="#FFF8DF"/>
</g>
</g>
</g>
</g>
</svg>
