<svg xmlns="http://www.w3.org/2000/svg" width="512" height="512" viewBox="0 0 512 512" version="1.1"><path d="M 277.168 22.082 C 271.954 24.740, 268.439 29.746, 267.045 36.500 C 266.478 39.250, 261.525 71.766, 256.038 108.758 C 250.551 145.749, 245.595 176.889, 245.023 177.956 C 242.042 183.526, 234.843 184.619, 229.947 180.244 L 226.862 177.487 215.833 108.994 C 203.570 32.832, 204.065 34.749, 195.684 30.943 C 185.089 26.133, 173.907 31.206, 170.957 42.160 C 170.008 45.683, 171.145 54.767, 179.431 109.901 C 184.694 144.920, 189 174.591, 189 175.836 C 189 184.965, 178.064 189.011, 171.794 182.201 C 170.425 180.716, 158.894 164.583, 146.168 146.351 C 133.442 128.120, 121.638 112.032, 119.938 110.601 C 115.497 106.865, 108.977 106.994, 102.751 110.943 C 97.152 114.494, 94.897 118.499, 94.847 124.983 C 94.814 129.210, 95.784 131.578, 102.293 143.171 C 111.790 160.084, 140.976 213.079, 144.395 219.618 L 146.982 224.565 145.494 247.033 C 142.795 287.793, 143.916 310.991, 149.533 330.635 C 155.036 349.879, 165.423 366.120, 180.807 379.531 C 185.588 383.700, 191.188 388.653, 193.250 390.539 L 197 393.968 197 442.984 L 197 492 251.077 492 L 305.154 492 308.077 494.923 C 309.685 496.531, 311 498.781, 311 499.923 C 311 501.917, 311.509 502, 323.799 502 L 336.598 502 337.867 498.490 C 339.181 494.859, 343.195 492, 346.981 492 C 348.990 492, 349.052 491.581, 348.781 479.789 L 348.500 467.579 345.129 466.891 C 343.276 466.513, 340.801 465.246, 339.629 464.075 C 337.565 462.012, 337.491 461.027, 337.207 431.784 C 336.999 410.324, 337.254 400.802, 338.091 398.780 C 338.842 396.966, 341.479 394.643, 345.384 392.355 C 382.673 370.507, 416.882 310.336, 417.109 266.197 C 417.210 246.747, 412.709 237.429, 400.500 231.804 L 395.500 229.500 334.743 229.207 C 276.033 228.923, 273.834 228.980, 269.511 230.892 C 264.376 233.164, 259.553 239.770, 258.506 245.965 C 257.163 253.912, 261.910 263.895, 268.900 267.824 C 272.709 269.964, 273.472 270, 315.436 270 C 351.533 270, 358.549 270.232, 361.020 271.510 C 364.609 273.366, 366 275.821, 366 280.299 C 366 285.103, 362.900 288.542, 356.737 290.576 C 340.024 296.090, 323.826 306.154, 312.800 317.875 C 300.870 330.556, 294.547 344.988, 293.315 362.348 C 292.754 370.243, 292.346 371.700, 289.941 374.392 C 287.710 376.889, 286.429 377.455, 283 377.455 C 279.480 377.455, 278.300 376.900, 275.757 374.054 L 272.719 370.654 273.319 361.077 C 273.649 355.810, 274.847 347.900, 275.982 343.500 C 280.441 326.210, 292.933 306.718, 306.536 295.825 L 313.185 290.500 289.842 289.994 C 267.611 289.512, 266.262 289.371, 261.500 287.033 C 246.243 279.540, 235.752 259.188, 238.773 242.944 C 241.309 229.311, 249.241 218.469, 260.871 212.741 L 267.453 209.500 313.954 209 L 360.456 208.500 379.749 127.500 C 390.360 82.950, 399.110 44.475, 399.194 42 C 399.399 35.917, 396.902 31.509, 391.729 28.825 C 383.654 24.635, 373.037 26.688, 368.754 33.268 C 367.955 34.495, 354.984 68.350, 339.931 108.500 C 320.024 161.596, 311.900 182.113, 310.135 183.750 C 306.493 187.126, 300.676 186.830, 296.923 183.077 C 295.099 181.253, 293.989 179.091, 293.971 177.327 C 293.955 175.772, 296.043 142.492, 298.611 103.371 C 303.248 32.728, 303.267 32.215, 301.390 28.398 C 298.975 23.488, 294.486 20.931, 287.244 20.341 C 282.661 19.968, 280.625 20.319, 277.168 22.082" stroke="none" fill="#fbdbd3" fill-rule="evenodd"/><path d="M 270.822 2.328 C 260.624 6.621, 253.002 14.646, 248.746 25.570 C 247.874 27.808, 244.867 45.133, 242.064 64.070 C 239.261 83.006, 236.691 99.625, 236.354 101 C 235.980 102.525, 233.538 90.051, 230.091 69 C 223.804 30.618, 222.950 27.868, 214.779 19.688 C 206.188 11.088, 193.353 6.947, 181.768 9.035 C 169.137 11.313, 158.409 19.497, 153.232 30.805 C 148.837 40.405, 149.097 46.254, 155.930 91.432 C 159.251 113.395, 161.801 131.533, 161.596 131.738 C 161.390 131.943, 156.259 124.999, 150.194 116.306 C 144.128 107.613, 137.665 99.062, 135.832 97.304 C 128.137 89.924, 113.363 86.274, 102.112 88.973 C 95.192 90.633, 85.860 96.861, 81.547 102.697 C 73.443 113.662, 71.877 129.488, 77.760 140.959 C 79.323 144.007, 89.963 163.375, 101.404 184 C 112.845 204.625, 123.081 223.211, 124.150 225.302 C 126.058 229.033, 126.062 229.591, 124.404 255.687 C 121.874 295.505, 124.108 320.971, 132.124 343.699 C 139.581 364.841, 151.264 381.594, 168.968 396.535 L 177.191 403.474 176.491 452.987 C 176.015 486.627, 176.125 503.351, 176.834 505.154 C 177.408 506.614, 178.890 508.751, 180.127 509.904 C 182.361 511.985, 182.823 512, 243.673 512 L 304.968 512 307.931 509.250 C 312.397 505.106, 312.455 499.302, 308.077 494.923 L 305.154 492 251.077 492 L 197 492 197 442.984 L 197 393.968 193.250 390.539 C 191.188 388.653, 185.588 383.700, 180.807 379.531 C 165.423 366.120, 155.036 349.879, 149.533 330.635 C 143.916 310.991, 142.795 287.793, 145.494 247.033 L 146.982 224.565 144.395 219.618 C 140.976 213.079, 111.790 160.084, 102.293 143.171 C 95.784 131.578, 94.814 129.210, 94.847 124.983 C 94.897 118.499, 97.152 114.494, 102.751 110.943 C 108.977 106.994, 115.497 106.865, 119.938 110.601 C 121.638 112.032, 133.442 128.120, 146.168 146.351 C 158.894 164.583, 170.425 180.716, 171.794 182.201 C 178.064 189.011, 189 184.965, 189 175.836 C 189 174.591, 184.694 144.920, 179.431 109.901 C 171.145 54.767, 170.008 45.683, 170.957 42.160 C 173.907 31.206, 185.089 26.133, 195.684 30.943 C 204.065 34.749, 203.570 32.832, 215.833 108.994 L 226.862 177.487 229.947 180.244 C 234.841 184.617, 242.042 183.526, 245.021 177.961 C 245.591 176.896, 250.792 144.182, 256.579 105.263 C 268.085 27.886, 268.067 27.967, 275.302 23.184 C 278.675 20.954, 280.473 20.501, 285.931 20.506 C 294.014 20.513, 298.685 22.898, 301.390 28.398 C 303.267 32.215, 303.248 32.728, 298.611 103.371 C 296.043 142.492, 293.955 175.772, 293.971 177.327 C 293.989 179.091, 295.099 181.253, 296.923 183.077 C 300.676 186.830, 306.493 187.126, 310.135 183.750 C 311.900 182.113, 320.024 161.596, 339.931 108.500 C 354.984 68.350, 367.955 34.495, 368.754 33.268 C 373.037 26.688, 383.654 24.635, 391.729 28.825 C 396.902 31.509, 399.399 35.917, 399.194 42 C 399.110 44.475, 390.360 82.950, 379.749 127.500 L 360.456 208.500 313.954 209 L 267.453 209.500 260.871 212.741 C 249.241 218.469, 241.309 229.311, 238.773 242.944 C 235.752 259.188, 246.243 279.540, 261.500 287.033 C 266.262 289.371, 267.611 289.512, 289.842 289.994 L 313.185 290.500 306.536 295.825 C 292.933 306.718, 280.441 326.210, 275.982 343.500 C 274.847 347.900, 273.649 355.810, 273.319 361.077 L 272.719 370.654 275.757 374.054 C 278.300 376.900, 279.480 377.455, 283 377.455 C 286.429 377.455, 287.710 376.889, 289.941 374.392 C 292.346 371.700, 292.754 370.243, 293.315 362.348 C 294.547 344.988, 300.870 330.556, 312.800 317.875 C 323.826 306.154, 340.024 296.090, 356.737 290.576 C 362.900 288.542, 366 285.103, 366 280.299 C 366 275.821, 364.609 273.366, 361.020 271.510 C 358.549 270.232, 351.533 270, 315.436 270 C 273.472 270, 272.709 269.964, 268.900 267.824 C 261.910 263.895, 257.163 253.912, 258.506 245.965 C 259.553 239.770, 264.376 233.164, 269.511 230.892 C 273.834 228.980, 276.033 228.923, 334.743 229.207 L 395.500 229.500 400.500 231.804 C 412.709 237.429, 417.210 246.747, 417.109 266.197 C 416.882 310.336, 382.673 370.507, 345.384 392.355 C 341.479 394.643, 338.842 396.966, 338.091 398.780 C 337.254 400.802, 336.999 410.324, 337.207 431.784 C 337.490 460.888, 337.574 462.021, 339.599 464.045 C 342.859 467.303, 348.836 468.278, 352.494 466.150 C 357.324 463.340, 357.876 460.017, 357.999 433 L 358.111 408.500 363.806 404.835 C 382.211 392.990, 403.995 366.217, 417.842 338.421 C 438.444 297.067, 443.456 258.848, 431.486 234.381 C 423.897 218.871, 407.174 209.060, 388.250 209.015 C 383.811 209.004, 382 208.625, 382 207.706 C 382 206.994, 390.593 170.207, 401.095 125.956 C 418.258 53.643, 420.145 44.833, 419.740 38.906 C 418.851 25.893, 411.557 15.529, 399.151 9.651 C 393.069 6.770, 391.644 6.500, 382.500 6.500 C 373.475 6.500, 371.920 6.785, 366.554 9.419 C 359.598 12.835, 353.045 19.033, 349.918 25.155 C 348.698 27.545, 341.262 46.600, 333.394 67.500 C 325.526 88.400, 319.082 105.050, 319.074 104.500 C 319.066 103.950, 320.111 87.910, 321.397 68.855 C 322.948 45.862, 323.454 32.435, 322.900 28.933 C 321.067 17.338, 314.088 8.247, 303.120 3.167 C 298.416 0.989, 295.789 0.513, 287 0.251 C 277.754 -0.025, 275.822 0.223, 270.822 2.328 M 342.110 493.396 C 336.406 496.557, 335.304 504.458, 339.923 509.077 C 346.365 515.518, 357 511.111, 357 502 C 357 494.160, 349.035 489.557, 342.110 493.396" stroke="none" fill="#050505" fill-rule="evenodd"/></svg>