<svg xmlns="http://www.w3.org/2000/svg" width="512" height="512" viewBox="0 0 512 512" version="1.1"><path d="" stroke="none" fill="#080404" fill-rule="evenodd"/><path d="M 331.254 1.404 C 325.302 3.342, 317.527 8.542, 314.136 12.852 C 308.203 20.393, 306.868 24.858, 297.960 66.953 C 293.124 89.804, 289.126 107.825, 289.074 107 C 287.969 89.273, 282.809 30.684, 282.158 28.472 C 276.887 10.562, 258.964 0.379, 239.063 3.988 C 226.168 6.327, 216.798 13.555, 210.785 25.803 L 207.500 32.496 207.624 71.998 C 207.692 93.724, 207.507 110.825, 207.212 110 C 206.917 109.175, 201.766 94.100, 195.765 76.500 C 189.764 58.900, 183.794 42.674, 182.498 40.442 C 179.201 34.766, 171.871 28.299, 165.175 25.160 C 160.278 22.865, 158.197 22.500, 150 22.500 C 141.402 22.500, 139.864 22.802, 133.799 25.674 C 118.434 32.954, 109.352 49.423, 111.975 65.250 C 112.454 68.137, 119.180 89.159, 126.923 111.965 C 134.665 134.771, 141 153.498, 141 153.581 C 141 153.664, 137.895 153.953, 134.099 154.225 C 120.456 155.201, 108.593 163.400, 102.595 176 L 99.500 182.500 99.175 231 C 98.724 298.085, 100.538 319.822, 108.602 344 C 115.211 363.813, 123.726 376.769, 141.047 393.367 L 152 403.863 152 455.008 L 152 506.154 154.923 509.077 L 157.846 512 219.287 512 L 280.727 512 283.300 509.427 C 287.909 504.819, 287.736 498.627, 282.873 494.096 C 280.646 492.022, 280.062 492, 226.811 492 L 173 492 173 443.251 L 173 394.503 166.266 388.501 C 152.944 376.628, 144.113 367.235, 139.210 359.725 C 126.851 340.792, 121.512 318.858, 120.312 282.081 C 119.712 263.691, 119.773 262.699, 121.468 263.349 C 126.739 265.372, 132.858 266.208, 139.345 265.792 C 153.159 264.905, 164.144 257.249, 170.326 244.201 L 173.500 237.500 173.491 210.500 L 173.482 183.500 163.655 155 C 138.172 81.098, 131.758 61.103, 132.413 57.611 C 133.898 49.695, 140.305 43.888, 148.284 43.226 C 154.913 42.677, 160.818 45.351, 163.867 50.284 C 165.004 52.125, 176.046 83.300, 188.404 119.562 C 213.046 191.870, 212.203 190, 220.133 190 C 223.244 190, 224.815 189.338, 227.077 187.077 L 230 184.154 229.984 169.327 C 229.975 161.172, 229.542 137.175, 229.023 116 C 227.240 43.289, 227.279 39.106, 229.789 34.308 C 230.995 32.002, 233.638 28.852, 235.663 27.308 C 238.901 24.838, 240.202 24.500, 246.466 24.500 C 251.586 24.500, 254.345 24.996, 256.280 26.264 C 262.229 30.162, 261.853 27.565, 268.163 108.291 C 272.365 162.041, 274.467 184.443, 275.531 186.805 C 278.391 193.154, 287.624 194.387, 292.441 189.065 C 293.599 187.786, 299.102 163.342, 310.049 110.852 C 326.457 32.178, 327.629 27.744, 333.077 23.754 C 342.054 17.181, 356.739 21.761, 358.606 31.716 C 359.083 34.257, 355.303 60.840, 346.063 119.927 C 338.789 166.442, 332.601 205.512, 332.311 206.750 L 331.783 209 290.102 209 C 244.185 209, 241.441 209.286, 232.071 215.051 C 218.665 223.300, 210.922 240.723, 213.795 256.176 C 216.329 269.800, 225.599 282.580, 236.730 287.796 C 242.326 290.418, 243.171 290.515, 264.741 291 L 286.983 291.500 280.973 296.361 C 268.023 306.836, 255.786 325.880, 251.004 343 C 249.842 347.159, 248.641 355.258, 248.308 361.181 L 247.708 371.862 250.777 374.931 C 256.383 380.537, 265.542 378.285, 267.840 370.734 C 268.381 368.955, 269.047 364.103, 269.320 359.951 C 269.917 350.847, 273.812 338.717, 278.745 330.597 C 288.457 314.610, 308.534 299.463, 329.441 292.350 C 333.259 291.052, 337.415 289.019, 338.676 287.835 C 341.796 284.904, 342.585 280.032, 340.572 276.138 C 337.396 269.998, 337.416 270, 290.500 270 C 244.281 270, 245.287 270.112, 239.803 264.339 C 231.615 255.719, 232.298 242.214, 241.322 234.291 C 243.321 232.535, 246.429 230.827, 248.229 230.495 C 250.028 230.163, 278.275 230.028, 311 230.195 L 370.500 230.500 375.794 232.892 C 386.036 237.520, 390.812 246.410, 391.696 262.500 C 394.044 305.203, 357.804 371.034, 320.294 392.203 C 311.624 397.096, 312 395.398, 312 429.675 C 312 462.241, 312.251 464.044, 317.145 466.575 C 320.701 468.414, 323.372 468.376, 327.128 466.434 C 332.472 463.670, 333 460.716, 333 433.569 L 333 409.075 339.213 404.855 C 364.560 387.643, 391.176 349.706, 403.931 312.612 C 410.205 294.364, 412.294 282.950, 412.368 266.500 C 412.460 245.836, 408.403 233.689, 397.900 223.186 C 389.076 214.362, 379.614 210.680, 362.545 209.427 C 353.538 208.765, 353.055 208.615, 353.500 206.614 C 353.758 205.451, 359.860 166.925, 367.059 121 C 376.941 57.964, 380.029 36.065, 379.660 31.644 C 378.650 19.564, 370.664 8.498, 359.120 3.183 C 352.286 0.036, 338.212 -0.862, 331.254 1.404 M 129.500 176.356 C 125.796 178.071, 122.475 181.599, 121.067 185.315 C 119.399 189.716, 119.657 231.262, 121.377 235.282 C 125.421 244.735, 137.790 248.281, 145.815 242.288 C 152.398 237.374, 152.473 237.043, 152.786 211.679 C 153.063 189.210, 153.002 188.364, 150.786 184.059 C 149.529 181.616, 147.281 178.729, 145.791 177.644 C 142.358 175.144, 133.613 174.452, 129.500 176.356 M 318.378 492.414 C 307.812 497.090, 311.197 512, 322.825 512 C 326.481 512, 329.915 509.447, 331.562 505.505 C 335.076 497.096, 326.667 488.747, 318.378 492.414" stroke="none" fill="#040404" fill-rule="evenodd"/></svg>