<svg xmlns="http://www.w3.org/2000/svg" width="512" height="512" viewBox="0 0 512 512" version="1.1"><path d="M 305.023 22.179 C 296.345 26.678, 297.069 21.146, 293.417 110.886 C 291.635 154.674, 289.961 195.113, 289.696 200.750 L 289.215 211 310.128 211 L 331.042 211 330.771 121.250 C 330.505 33.032, 330.465 31.441, 328.465 28.035 C 324.160 20.708, 313.160 17.960, 305.023 22.179 M 184.804 178.041 C 182.771 179.114, 179.846 181.647, 178.304 183.669 L 175.500 187.344 175.500 232.500 L 175.500 277.656 178.384 281.437 C 181.683 285.762, 187.892 288.956, 193 288.956 C 200.754 288.956, 208.864 282.752, 210.956 275.219 C 212.466 269.783, 212.352 193.319, 210.828 188.899 C 207.051 177.949, 194.720 172.803, 184.804 178.041 M 242.168 178.146 C 239.637 179.399, 236.727 181.964, 235.168 184.317 C 232.664 188.097, 232.480 189.172, 232.170 201.810 C 231.858 214.535, 231.941 215.234, 233.670 214.518 C 240.295 211.774, 245.353 211, 256.659 211 L 269 211 268.978 200.750 C 268.947 186.428, 266.394 181.152, 257.746 177.538 C 252.646 175.408, 247.277 175.617, 242.168 178.146 M 128.966 179.250 C 126.029 180.733, 123.745 182.864, 122.271 185.500 C 120.110 189.362, 120.032 190.426, 120.016 216.282 C 119.998 246.037, 120.226 247.358, 126.309 252.698 C 131.475 257.234, 137.467 257.980, 143.686 254.862 C 149.150 252.122, 151.767 248.922, 153.043 243.423 C 154.300 238.002, 154.229 194.366, 152.956 189.781 C 150.897 182.369, 144.087 177, 136.744 177 C 134.918 177, 131.418 178.012, 128.966 179.250 M 242.500 232.850 C 236.383 236.691, 232 244.167, 232 250.760 C 232 258.725, 239.088 269.097, 245.808 270.963 C 248.064 271.590, 266.150 271.991, 292.327 271.994 L 335.154 272 338.077 274.923 C 340.319 277.165, 341 278.765, 341 281.787 C 341 286.939, 337.919 290.030, 330.431 292.390 C 314.668 297.359, 293.786 311.191, 284.573 322.765 C 275.058 334.720, 270.459 346.380, 269.059 362.100 C 268.589 367.379, 267.617 372.640, 266.900 373.789 C 262.631 380.624, 251.253 379.318, 249.224 371.759 C 248.125 367.667, 249.396 352.405, 251.488 344.561 C 256.369 326.267, 266.768 310.038, 281.761 297.313 L 288.022 292 267.721 292 C 246.209 292, 238.896 290.953, 232.412 286.946 L 229.210 284.966 226.506 289.581 C 222.567 296.301, 216.398 301.877, 209 305.403 C 203.132 308.199, 201.576 308.498, 193 308.482 C 184.364 308.466, 182.901 308.173, 176.911 305.258 C 165.947 299.922, 156.801 288.121, 155.333 277.416 C 154.774 273.338, 154.479 272.915, 152.603 273.504 C 140.296 277.370, 132.908 277.643, 124.151 274.553 L 120 273.089 120.001 280.294 C 120.003 299.060, 124.079 325.678, 129.025 339.232 C 135.057 355.760, 142.971 367.332, 156.698 379.698 C 161.461 383.989, 167.078 389.135, 169.180 391.132 L 173 394.765 173 443.382 L 173 492 226.423 492 L 279.847 492 282.858 494.534 C 284.515 495.928, 286.012 498.065, 286.185 499.284 C 286.489 501.421, 286.943 501.509, 299 501.748 L 311.500 501.996 313.257 498.155 C 315.008 494.329, 318.334 492, 322.047 492 C 323.875 492, 324 491.238, 324 480.111 L 324 468.223 320.660 467.596 C 318.823 467.251, 316.235 465.816, 314.910 464.406 L 312.500 461.842 312.208 431.952 C 311.872 397.528, 311.770 398.014, 320.303 393.198 C 349.163 376.911, 377.735 334.755, 388.619 292.404 C 390.995 283.160, 391.428 279.445, 391.461 268 C 391.509 251.254, 389.947 245.839, 383.106 239.038 C 375.333 231.311, 378.197 231.608, 308 231.269 C 248.228 230.980, 245.369 231.049, 242.500 232.850" stroke="none" fill="#fadad2" fill-rule="evenodd"/><path d="M 300.500 1.746 C 288.849 5.924, 280.567 14.857, 277.551 26.500 C 276.396 30.957, 275.353 48.442, 273.495 94.500 C 272.118 128.600, 270.994 157.460, 270.996 158.634 L 271 160.768 264.750 158.221 C 259.909 156.248, 256.789 155.681, 250.908 155.704 C 241.332 155.742, 234.692 157.917, 227.110 163.498 L 221.217 167.836 218.394 164.889 C 214.604 160.933, 206.680 157.314, 199.154 156.102 C 188.242 154.345, 177.053 157.438, 168.262 164.641 L 163.865 168.245 161.182 165.694 C 159.707 164.291, 156.025 161.874, 153 160.322 C 147.996 157.754, 146.553 157.500, 137 157.500 C 127.710 157.500, 125.843 157.808, 120.804 160.170 C 109.589 165.427, 101.824 176.255, 99.943 189.258 C 98.757 197.457, 98.788 266.616, 99.988 289.194 C 101.970 326.499, 108.529 350.546, 122.414 371.414 C 128.610 380.726, 141.084 394.409, 148.475 400 L 153.101 403.500 152.801 454.830 L 152.500 506.160 155.766 509.080 L 159.032 512 219.582 512 C 259.198 512, 280.797 511.644, 282.055 510.970 C 287.635 507.984, 288.052 498.904, 282.811 494.494 L 279.847 492 226.423 492 L 173 492 173 443.382 L 173 394.765 169.180 391.132 C 167.078 389.135, 161.461 383.989, 156.698 379.698 C 142.971 367.332, 135.057 355.760, 129.025 339.232 C 124.079 325.678, 120.003 299.060, 120.001 280.294 L 120 273.089 124.151 274.553 C 132.908 277.643, 140.296 277.370, 152.603 273.504 C 154.479 272.915, 154.774 273.338, 155.333 277.416 C 156.801 288.121, 165.947 299.922, 176.911 305.258 C 182.901 308.173, 184.364 308.466, 193 308.482 C 201.576 308.498, 203.132 308.199, 209 305.403 C 216.398 301.877, 222.567 296.301, 226.506 289.581 L 229.210 284.966 232.412 286.946 C 238.896 290.953, 246.209 292, 267.721 292 L 288.022 292 281.761 297.313 C 266.768 310.038, 256.369 326.267, 251.488 344.561 C 249.396 352.405, 248.125 367.667, 249.224 371.759 C 251.253 379.318, 262.631 380.624, 266.900 373.789 C 267.617 372.640, 268.589 367.379, 269.059 362.100 C 270.459 346.380, 275.058 334.720, 284.573 322.765 C 293.786 311.191, 314.668 297.359, 330.431 292.390 C 337.919 290.030, 341 286.939, 341 281.787 C 341 278.765, 340.319 277.165, 338.077 274.923 L 335.154 272 292.327 271.994 C 266.150 271.991, 248.064 271.590, 245.808 270.963 C 239.110 269.103, 232 258.726, 232 250.812 C 232 243.370, 239.087 233.012, 245.225 231.484 C 246.476 231.173, 275.175 231.065, 309 231.245 C 378.076 231.612, 375.348 231.325, 383.106 239.038 C 389.947 245.839, 391.509 251.254, 391.461 268 C 391.428 279.445, 390.995 283.160, 388.619 292.404 C 377.735 334.755, 349.163 376.911, 320.303 393.198 C 311.769 398.014, 311.872 397.521, 312.208 432.010 L 312.500 461.957 315.054 464.510 C 318.429 467.884, 324.114 468.811, 327.564 466.550 C 332.474 463.333, 332.998 460.180, 333.018 433.782 L 333.036 409.500 337.768 406.366 C 377.037 380.354, 412.077 314.997, 412.219 267.500 C 412.261 253.628, 410.549 245.011, 405.936 235.873 C 397.605 219.370, 382.421 211, 360.815 211 L 351.050 211 350.775 118.750 L 350.500 26.500 347.830 20.804 C 344.412 13.511, 337.964 7.085, 330.438 3.471 C 322.666 -0.261, 308.391 -1.083, 300.500 1.746 M 305.023 22.179 C 296.345 26.678, 297.069 21.146, 293.417 110.886 C 291.635 154.674, 289.961 195.113, 289.696 200.750 L 289.215 211 310.128 211 L 331.042 211 330.771 121.250 C 330.505 33.032, 330.465 31.441, 328.465 28.035 C 324.160 20.708, 313.160 17.960, 305.023 22.179 M 184.804 178.041 C 182.771 179.114, 179.846 181.647, 178.304 183.669 L 175.500 187.344 175.500 232.500 L 175.500 277.656 178.384 281.437 C 181.683 285.762, 187.892 288.956, 193 288.956 C 200.754 288.956, 208.864 282.752, 210.956 275.219 C 212.466 269.783, 212.352 193.319, 210.828 188.899 C 207.051 177.949, 194.720 172.803, 184.804 178.041 M 242.168 178.146 C 239.637 179.399, 236.727 181.964, 235.168 184.317 C 232.664 188.097, 232.480 189.172, 232.170 201.810 C 231.858 214.535, 231.941 215.234, 233.670 214.518 C 240.295 211.774, 245.353 211, 256.659 211 L 269 211 268.978 200.750 C 268.947 186.428, 266.394 181.152, 257.746 177.538 C 252.646 175.408, 247.277 175.617, 242.168 178.146 M 128.966 179.250 C 126.029 180.733, 123.745 182.864, 122.271 185.500 C 120.110 189.362, 120.032 190.426, 120.016 216.282 C 119.998 246.037, 120.226 247.358, 126.309 252.698 C 131.475 257.234, 137.467 257.980, 143.686 254.862 C 149.150 252.122, 151.767 248.922, 153.043 243.423 C 154.300 238.002, 154.229 194.366, 152.956 189.781 C 150.897 182.369, 144.087 177, 136.744 177 C 134.918 177, 131.418 178.012, 128.966 179.250 M 317.420 493.145 C 311.685 495.928, 310.342 504.496, 314.923 509.077 C 321.365 515.518, 332 511.111, 332 502 C 332 494.369, 324.405 489.756, 317.420 493.145" stroke="none" fill="#050505" fill-rule="evenodd"/></svg>