<svg xmlns="http://www.w3.org/2000/svg" width="512" height="512" viewBox="0 0 512 512" version="1.1"><path d="" stroke="none" fill="#080404" fill-rule="evenodd"/><path d="M 270.822 2.328 C 260.624 6.621, 253.002 14.646, 248.746 25.570 C 247.874 27.808, 244.867 45.133, 242.064 64.070 C 239.261 83.006, 236.691 99.625, 236.354 101 C 235.980 102.525, 233.538 90.051, 230.091 69 C 223.804 30.618, 222.950 27.868, 214.779 19.688 C 206.188 11.088, 193.353 6.947, 181.768 9.035 C 169.137 11.313, 158.409 19.497, 153.232 30.805 C 148.837 40.405, 149.097 46.254, 155.930 91.432 C 159.251 113.395, 161.801 131.533, 161.596 131.738 C 161.390 131.943, 156.259 124.999, 150.194 116.306 C 144.128 107.613, 137.665 99.062, 135.832 97.304 C 128.137 89.924, 113.363 86.274, 102.112 88.973 C 95.192 90.633, 85.860 96.861, 81.547 102.697 C 73.443 113.662, 71.877 129.488, 77.760 140.959 C 79.323 144.007, 89.963 163.375, 101.404 184 C 112.845 204.625, 123.081 223.211, 124.150 225.302 C 126.058 229.033, 126.062 229.591, 124.404 255.687 C 121.874 295.505, 124.108 320.971, 132.124 343.699 C 139.581 364.841, 151.264 381.594, 168.968 396.535 L 177.191 403.474 176.491 452.987 C 176.015 486.627, 176.125 503.351, 176.834 505.154 C 177.408 506.614, 178.890 508.751, 180.127 509.904 C 182.361 511.985, 182.823 512, 243.673 512 L 304.968 512 308.107 509.195 C 312.520 505.253, 312.701 499.385, 308.545 495.047 L 305.626 492 251.188 492 L 196.750 492 197.125 442.933 L 197.500 393.866 193.404 390.183 C 191.151 388.157, 185.579 383.153, 181.021 379.062 C 161.158 361.234, 151.560 343.858, 147.018 317.500 C 143.902 299.418, 143.549 284.458, 145.498 252.954 L 147.262 224.434 144.986 219.967 C 143.734 217.510, 131.975 196.043, 118.855 172.263 C 93.346 126.028, 92.903 124.956, 96.464 118.069 C 98.500 114.133, 103.358 110.273, 108.045 108.868 C 112.888 107.417, 118.611 108.834, 121.639 112.233 C 122.750 113.480, 134.588 130.150, 147.945 149.277 C 161.303 168.404, 173.050 184.492, 174.050 185.027 C 176.835 186.517, 182.290 186.186, 184.883 184.369 C 190.586 180.375, 190.690 182.003, 180.376 113.967 C 170.389 48.086, 169.828 41.767, 173.533 36.831 C 176.127 33.375, 180.744 30.349, 184.666 29.535 C 191.789 28.057, 201.796 33.662, 203.885 40.300 C 204.439 42.060, 209.691 73.425, 215.555 110 C 221.867 149.369, 226.817 177.452, 227.686 178.834 C 231.687 185.188, 241.997 184.696, 245.146 178 C 246.152 175.861, 250.869 146.987, 257.279 103.726 C 267.049 37.791, 267.948 32.677, 270.423 28.937 C 274.376 22.964, 278.241 21.008, 286.102 21.004 C 293.887 20.999, 298.479 23.435, 301.202 29.013 C 302.831 32.351, 302.697 35.597, 298.061 105 C 293.699 170.303, 293.364 177.815, 294.686 180.673 C 297.550 186.861, 306.359 188.441, 310.921 183.584 C 312.081 182.350, 325.021 149.276, 340.489 108.012 C 357.603 62.355, 368.845 33.724, 370.247 32.222 C 373.661 28.567, 377.398 27, 382.700 27.002 C 391.578 27.004, 399 33.244, 399 40.705 C 399 43.229, 363.450 196.494, 360.377 207.222 C 359.920 208.814, 356.368 208.964, 313.192 209.222 L 266.500 209.500 260.730 212.204 C 253.300 215.686, 246.002 223.219, 241.810 231.734 C 238.699 238.054, 238.500 239.091, 238.500 248.979 C 238.500 258.751, 238.729 259.983, 241.715 266.288 C 246.047 275.433, 254.255 283.932, 262.288 287.590 C 268.362 290.356, 268.969 290.427, 289.699 290.820 L 310.899 291.222 302.425 299.243 C 283.649 317.016, 273 340.452, 273 364.003 C 273 371.220, 273.260 372.351, 275.414 374.505 C 279.847 378.938, 286.103 378.988, 290.468 374.623 C 292.346 372.744, 292.888 370.802, 293.450 363.914 C 294.841 346.893, 300.259 333.137, 310.425 320.812 C 319.868 309.364, 337.968 297.521, 355.331 291.430 C 364.154 288.335, 366.455 285.936, 366.455 279.829 C 366.455 276.986, 365.747 275.292, 363.706 273.250 L 360.957 270.500 316.070 270 L 271.183 269.500 267.380 266.421 C 257.451 258.382, 256.090 244.255, 264.367 235.155 C 269.182 229.862, 267.353 230, 332.700 230.006 C 373.332 230.009, 394.797 230.371, 397.409 231.096 C 417.379 236.641, 422.459 262.823, 410.875 300.500 C 399.604 337.163, 374.212 373.331, 347.799 390.344 C 343.013 393.427, 338.626 396.831, 338.049 397.909 C 336.472 400.855, 336.687 461.022, 338.282 463.046 C 340.413 465.751, 344.362 468, 346.973 467.996 C 351.264 467.990, 355.763 464.514, 356.933 460.302 C 357.530 458.152, 358.015 446.070, 358.050 432.500 L 358.111 408.500 363.806 404.835 C 382.211 392.990, 403.995 366.217, 417.842 338.421 C 438.444 297.067, 443.456 258.848, 431.486 234.381 C 423.897 218.871, 407.174 209.060, 388.250 209.015 C 383.811 209.004, 382 208.625, 382 207.706 C 382 206.994, 390.593 170.207, 401.095 125.956 C 418.258 53.643, 420.145 44.833, 419.740 38.906 C 418.851 25.893, 411.557 15.529, 399.151 9.651 C 393.069 6.770, 391.644 6.500, 382.500 6.500 C 373.475 6.500, 371.920 6.785, 366.554 9.419 C 359.598 12.835, 353.045 19.033, 349.918 25.155 C 348.698 27.545, 341.262 46.600, 333.394 67.500 C 325.526 88.400, 319.082 105.050, 319.074 104.500 C 319.066 103.950, 320.111 87.910, 321.397 68.855 C 322.948 45.862, 323.454 32.435, 322.900 28.933 C 321.067 17.338, 314.088 8.247, 303.120 3.167 C 298.416 0.989, 295.789 0.513, 287 0.251 C 277.754 -0.025, 275.822 0.223, 270.822 2.328 M 339.923 494.923 C 337.631 497.216, 337 498.742, 337 502 C 337 505.258, 337.631 506.784, 339.923 509.077 C 346.365 515.518, 357 511.111, 357 502 C 357 498.742, 356.369 497.216, 354.077 494.923 C 351.784 492.631, 350.258 492, 347 492 C 343.742 492, 342.216 492.631, 339.923 494.923" stroke="none" fill="#040404" fill-rule="evenodd"/></svg>