<svg xmlns="http://www.w3.org/2000/svg" width="512" height="512" viewBox="0 0 512 512" version="1.1"><path d="" stroke="none" fill="#080404" fill-rule="evenodd"/><path d="M 300.500 1.746 C 288.849 5.924, 280.567 14.857, 277.551 26.500 C 276.396 30.957, 275.353 48.442, 273.495 94.500 C 272.118 128.600, 270.994 157.460, 270.996 158.634 L 271 160.768 264.750 158.221 C 259.909 156.248, 256.789 155.681, 250.908 155.704 C 241.332 155.742, 234.692 157.917, 227.110 163.498 L 221.217 167.836 218.394 164.889 C 214.604 160.933, 206.680 157.314, 199.154 156.102 C 188.242 154.345, 177.053 157.438, 168.262 164.641 L 163.865 168.245 161.182 165.694 C 159.707 164.291, 156.025 161.874, 153 160.322 C 147.996 157.754, 146.553 157.500, 137 157.500 C 127.710 157.500, 125.843 157.808, 120.804 160.170 C 109.589 165.427, 101.824 176.255, 99.943 189.258 C 98.757 197.457, 98.788 266.616, 99.988 289.194 C 101.970 326.499, 108.529 350.546, 122.414 371.414 C 128.610 380.726, 141.084 394.409, 148.475 400 L 153.101 403.500 152.801 454.830 L 152.500 506.160 155.766 509.080 L 159.032 512 220.061 512 L 281.091 512 283.505 509.586 C 287.987 505.104, 287.987 498.896, 283.505 494.414 L 281.091 492 226.974 492 L 172.857 492 173.577 445.714 C 174.117 411.001, 174 398.529, 173.109 395.831 C 172.292 393.353, 170.039 390.754, 165.871 387.480 C 134.841 363.101, 123.423 337.416, 120.479 285.369 L 119.793 273.237 125.147 275.086 C 131.986 277.448, 141.948 277.471, 148.692 275.141 L 153.884 273.347 155.079 278.423 C 157.877 290.309, 165.748 300.275, 176.513 305.560 C 181.984 308.246, 183.406 308.500, 193 308.500 C 202.280 308.500, 204.159 308.191, 209.175 305.840 C 215.971 302.654, 223.195 296.230, 226.691 290.264 C 228.093 287.871, 229.524 286.065, 229.870 286.250 C 239.572 291.436, 239.438 291.414, 263.741 291.969 L 286.982 292.500 281.002 297.337 C 277.713 299.998, 272.340 305.508, 269.063 309.582 C 258.125 323.179, 252.405 335.876, 249.406 353.213 C 246.328 371.015, 249.020 378.500, 258.500 378.500 C 261.986 378.500, 263.531 377.923, 265.605 375.850 C 267.907 373.547, 268.365 372.008, 269.092 364.132 C 270.223 351.870, 272.401 343.986, 277.219 334.709 C 286.288 317.248, 307.419 300.574, 330.111 292.975 C 333.625 291.799, 337.506 289.901, 338.735 288.758 C 341.799 285.909, 342.573 281.009, 340.572 277.138 C 337.389 270.983, 337.533 271, 289.300 270.996 C 247.583 270.993, 245.347 270.899, 242.290 269.035 C 238.344 266.629, 234.521 260.920, 233.020 255.192 C 230.584 245.892, 236.994 234.446, 246.024 231.973 C 249.433 231.040, 264.691 230.878, 310 231.295 C 376.261 231.905, 375.417 231.818, 382.549 238.744 C 397.502 253.267, 393.761 290.865, 373.371 330.974 C 369.309 338.963, 362.958 349.775, 359.257 355 C 350.935 366.748, 332.532 385.305, 324.548 390 C 321.275 391.925, 317.112 394.918, 315.298 396.650 L 312 399.800 312 429.853 C 312 451.023, 312.353 460.681, 313.195 462.528 C 315.481 467.546, 323.288 469.588, 327.883 466.369 C 332.476 463.152, 332.999 459.838, 333.018 433.782 L 333.036 409.500 337.768 406.366 C 377.037 380.354, 412.077 314.997, 412.219 267.500 C 412.261 253.628, 410.549 245.011, 405.936 235.873 C 397.605 219.370, 382.421 211, 360.815 211 L 351.050 211 350.775 118.750 L 350.500 26.500 347.830 20.804 C 344.412 13.511, 337.964 7.085, 330.438 3.471 C 322.666 -0.261, 308.391 -1.083, 300.500 1.746 M 309.685 21.060 C 305.141 21.830, 301.141 24.614, 298.774 28.655 C 297.260 31.241, 296.619 42.042, 293.524 117.119 C 291.586 164.154, 290 204.518, 290 206.818 L 290 211 310 211 L 330 211 329.996 121.250 C 329.993 34.054, 329.937 31.409, 328.044 28.304 C 324.468 22.439, 317.581 19.721, 309.685 21.060 M 187.193 177.298 C 182.555 179.052, 177.207 184.594, 176.017 188.879 C 174.619 193.912, 174.661 272.973, 176.064 276.685 C 177.251 279.827, 181.460 284.609, 184.476 286.242 C 193.166 290.948, 204.657 287.513, 209.053 278.896 C 210.986 275.107, 211.050 273.339, 210.780 231.152 L 210.500 187.342 207.698 183.670 C 206.157 181.650, 203.578 179.316, 201.966 178.482 C 197.862 176.360, 191.105 175.819, 187.193 177.298 M 244.655 177.459 C 242.541 178.213, 239.685 179.880, 238.310 181.165 C 233.536 185.624, 232.643 188.693, 232.192 202.198 L 231.767 214.896 236.894 212.948 C 241.056 211.367, 244.562 211, 255.511 211 L 269 211 268.994 202.250 C 268.991 197.438, 268.492 191.710, 267.885 189.523 C 266.469 184.425, 260.575 178.531, 255.477 177.115 C 250.489 175.730, 249.406 175.765, 244.655 177.459 M 131.684 178.416 C 126.684 180.242, 124.125 182.613, 121.881 187.500 C 120.251 191.049, 120.044 194.374, 120.044 217 C 120.044 239.733, 120.246 242.945, 121.905 246.599 C 124.502 252.316, 129.070 255.308, 135.935 255.788 C 142.353 256.237, 146.785 253.926, 150.726 248.078 C 152.954 244.772, 153 244.150, 153 217.253 C 153 186.442, 152.687 184.778, 146.094 180.478 C 141.378 177.403, 136.407 176.691, 131.684 178.416 M 314.923 494.923 C 312.631 497.216, 312 498.742, 312 502 C 312 505.258, 312.631 506.784, 314.923 509.077 C 321.365 515.518, 332 511.111, 332 502 C 332 498.742, 331.369 497.216, 329.077 494.923 C 326.784 492.631, 325.258 492, 322 492 C 318.742 492, 317.216 492.631, 314.923 494.923" stroke="none" fill="#040404" fill-rule="evenodd"/></svg>