<svg xmlns="http://www.w3.org/2000/svg" width="512" height="512" viewBox="0 0 512 512" version="1.1"><path d="M 325.401 21.905 C 320.509 24.127, 317.499 28.048, 316.063 34.071 C 315.481 36.507, 310.498 70.900, 304.987 110.500 C 299.477 150.100, 294.501 184.209, 293.930 186.298 C 292.834 190.304, 288.314 193.993, 284.500 193.993 C 280.706 193.993, 276.167 190.302, 275.038 186.298 C 274.448 184.209, 268.547 150.138, 261.924 110.585 C 255.300 71.032, 249.275 37.507, 248.535 36.085 C 245.677 30.592, 238.086 25.917, 232.282 26.076 C 224.824 26.280, 216.783 32.379, 214.938 39.230 C 214.055 42.511, 215.411 56.083, 222.943 119.340 C 229.032 170.484, 232.009 198.981, 232.006 206.097 L 232 216.694 237.245 214.097 L 242.491 211.500 287.038 211.212 L 331.585 210.923 340.321 125.212 C 345.127 78.070, 349.045 37.693, 349.029 35.484 C 348.987 29.614, 346.106 24.887, 340.964 22.250 C 335.654 19.527, 330.871 19.421, 325.401 21.905 M 185.459 177.880 C 180.418 180.169, 176.282 184.981, 175.424 189.553 C 175.063 191.475, 174.708 211.600, 174.634 234.274 C 174.515 270.922, 174.684 275.833, 176.155 278.500 C 179.547 284.648, 186.669 289.022, 193.218 288.978 C 199.935 288.933, 207.645 283.724, 209.933 277.685 C 210.629 275.850, 211 259.905, 211 231.885 C 211 185.796, 211.037 186.158, 205.831 181.298 C 200.237 176.074, 192.348 174.750, 185.459 177.880 M 130.500 178.417 C 126.369 180.261, 122.154 184.977, 120.980 189.069 C 119.686 193.581, 119.724 240.466, 121.025 245.152 C 122.388 250.057, 128.626 255.592, 133.771 256.461 C 142.097 257.868, 150.804 252.656, 153.017 244.942 C 154.611 239.383, 154.282 191.595, 152.623 187.718 C 148.910 179.040, 138.711 174.752, 130.500 178.417 M 245.481 232.371 C 241.499 234.136, 236.513 239.916, 234.990 244.531 C 231.988 253.628, 236.718 265.576, 244.974 269.750 C 249.382 271.979, 249.821 272, 292.289 272 L 335.154 272 338.077 274.923 C 344.501 281.348, 340.673 288.963, 329 292.978 C 319.027 296.408, 305.831 303.696, 297.118 310.586 C 279.236 324.726, 270.465 341.147, 268.404 364.348 C 267.861 370.461, 267.189 372.811, 265.364 374.979 C 260.956 380.217, 252.686 379.161, 249.474 372.949 C 246.044 366.317, 250.497 341.922, 257.781 327.436 C 263.079 316.901, 269.417 308.644, 279.139 299.612 L 287.149 292.171 265.201 291.835 L 243.253 291.500 236.162 287.860 L 229.072 284.220 227.036 288.426 C 224.019 294.658, 216.382 301.837, 209 305.380 C 203.129 308.198, 201.581 308.500, 193 308.500 C 184.462 308.500, 182.842 308.188, 176.997 305.418 C 165.538 299.988, 156.465 288.308, 155.236 277.405 C 154.774 273.305, 154.506 272.908, 152.611 273.511 C 140.080 277.500, 132.207 277.785, 124.421 274.531 C 122.371 273.675, 120.452 273.215, 120.158 273.509 C 119.296 274.370, 121.841 307.720, 123.468 316.891 C 126.843 335.921, 132.814 351.409, 141.374 363.344 C 145.515 369.117, 155.907 379.610, 167.815 390.042 L 173 394.585 173 443.292 L 173 492 226.577 492 L 280.154 492 283.077 494.923 C 284.685 496.531, 286 498.781, 286 499.923 C 286 501.917, 286.509 502, 298.799 502 L 311.598 502 312.867 498.490 C 314.107 495.063, 318.158 492, 321.450 492 C 322.763 492, 323 490.179, 323 480.079 L 323 468.159 320.027 467.506 C 318.392 467.147, 315.917 465.502, 314.527 463.850 L 312 460.847 312 430.646 C 312 396.264, 311.578 398.105, 320.655 392.911 C 345.867 378.487, 371.741 343.112, 384.413 305.746 C 389.535 290.642, 391.420 280.239, 391.434 267 C 391.455 248.821, 387.241 239.721, 376.323 234.359 L 370.500 231.500 309.500 231.266 C 260.329 231.078, 247.915 231.292, 245.481 232.371" stroke="none" fill="#fadad2" fill-rule="evenodd"/><path d="M 320.863 1.511 C 309.886 5.024, 300.602 14.571, 297.123 25.926 C 296.016 29.542, 292.529 51.159, 289.376 73.965 C 286.223 96.771, 283.521 114.996, 283.370 114.465 C 283.220 113.934, 280.154 95.928, 276.556 74.451 C 272.959 52.973, 269.332 33.398, 268.497 30.951 C 266.395 24.789, 260.420 17.217, 254.266 12.918 C 234.693 -0.757, 207.391 6.715, 197.325 28.500 C 192.931 38.008, 193.138 43.027, 200.410 103.465 C 203.981 133.146, 206.787 157.546, 206.645 157.688 C 206.504 157.830, 204.618 157.457, 202.455 156.860 C 200.292 156.263, 194.918 155.971, 190.511 156.211 C 181.329 156.711, 175.025 159.100, 168.262 164.641 L 163.865 168.245 161.182 165.730 C 159.707 164.347, 156.025 161.934, 153 160.368 C 148.036 157.799, 146.525 157.520, 137.500 157.511 C 128.748 157.501, 126.792 157.832, 121.825 160.160 C 113.881 163.885, 107.603 170.030, 103.750 177.855 L 100.500 184.455 100.192 235.977 C 99.859 291.661, 100.542 305.826, 104.518 325.602 C 110.582 355.762, 120.415 373.740, 142.166 394.436 L 153.162 404.899 152.436 452.267 C 152.036 478.320, 152.010 501.242, 152.379 503.206 C 152.747 505.169, 154.224 507.951, 155.661 509.388 L 158.273 512 219.448 512 C 280.175 512, 280.639 511.985, 282.873 509.904 C 284.110 508.751, 285.519 506.764, 286.004 505.489 C 287.260 502.187, 285.428 496.482, 282.331 494.045 C 279.785 492.043, 278.612 492, 226.365 492 L 173 492 173 443.292 L 173 394.585 167.815 390.042 C 155.907 379.610, 145.515 369.117, 141.374 363.344 C 132.814 351.409, 126.843 335.921, 123.468 316.891 C 121.841 307.720, 119.296 274.370, 120.158 273.509 C 120.452 273.215, 122.371 273.675, 124.421 274.531 C 132.207 277.785, 140.080 277.500, 152.611 273.511 C 154.506 272.908, 154.774 273.305, 155.236 277.405 C 156.465 288.308, 165.538 299.988, 176.997 305.418 C 182.842 308.188, 184.462 308.500, 193 308.500 C 201.581 308.500, 203.129 308.198, 209 305.380 C 216.382 301.837, 224.019 294.658, 227.036 288.426 L 229.072 284.220 236.162 287.860 L 243.253 291.500 265.201 291.835 L 287.149 292.171 279.139 299.612 C 269.417 308.644, 263.079 316.901, 257.781 327.436 C 250.497 341.922, 246.044 366.317, 249.474 372.949 C 252.686 379.161, 260.956 380.217, 265.364 374.979 C 267.189 372.811, 267.861 370.461, 268.404 364.348 C 270.465 341.147, 279.236 324.726, 297.118 310.586 C 305.831 303.696, 319.027 296.408, 329 292.978 C 340.673 288.963, 344.501 281.348, 338.077 274.923 L 335.154 272 292.289 272 C 249.821 272, 249.382 271.979, 244.974 269.750 C 236.231 265.330, 231.779 253.105, 235.429 243.546 C 237.475 238.190, 243.678 232.335, 248.190 231.502 C 250.011 231.166, 278.275 231.028, 311 231.195 L 370.500 231.500 376.323 234.359 C 387.241 239.721, 391.455 248.821, 391.434 267 C 391.420 280.239, 389.535 290.642, 384.413 305.746 C 371.741 343.112, 345.867 378.487, 320.655 392.911 C 311.577 398.105, 312 396.257, 312 430.707 L 312 460.968 314.750 464.046 C 316.710 466.240, 318.706 467.285, 321.702 467.687 C 325.427 468.186, 326.249 467.905, 328.952 465.202 L 332 462.154 332 436.114 L 332 410.075 338.188 405.872 C 367.604 385.896, 396.732 341.478, 407.288 300.500 C 411.285 284.982, 412.321 276.276, 411.779 262.761 C 411.205 248.457, 408.494 239.139, 402.283 230.120 C 394.007 218.104, 381.565 212.099, 363.208 211.261 L 351.916 210.745 352.488 206.623 C 352.803 204.355, 356.909 164.925, 361.611 119 C 370.869 28.590, 370.809 29.955, 365.959 19.637 C 362.994 13.329, 356.288 6.777, 349.295 3.356 C 344.572 1.045, 342.083 0.529, 334.556 0.301 C 328.598 0.121, 323.914 0.534, 320.863 1.511 M 325.401 21.905 C 320.509 24.127, 317.499 28.048, 316.063 34.071 C 315.481 36.507, 310.498 70.900, 304.987 110.500 C 299.477 150.100, 294.501 184.209, 293.930 186.298 C 292.834 190.304, 288.314 193.993, 284.500 193.993 C 280.706 193.993, 276.167 190.302, 275.038 186.298 C 274.448 184.209, 268.547 150.138, 261.924 110.585 C 255.300 71.032, 249.275 37.507, 248.535 36.085 C 245.677 30.592, 238.086 25.917, 232.282 26.076 C 224.824 26.280, 216.783 32.379, 214.938 39.230 C 214.055 42.511, 215.411 56.083, 222.943 119.340 C 229.032 170.484, 232.009 198.981, 232.006 206.097 L 232 216.694 237.245 214.097 L 242.491 211.500 287.038 211.212 L 331.585 210.923 340.321 125.212 C 345.127 78.070, 349.045 37.693, 349.029 35.484 C 348.987 29.614, 346.106 24.887, 340.964 22.250 C 335.654 19.527, 330.871 19.421, 325.401 21.905 M 185.459 177.880 C 180.418 180.169, 176.282 184.981, 175.424 189.553 C 175.063 191.475, 174.708 211.600, 174.634 234.274 C 174.515 270.922, 174.684 275.833, 176.155 278.500 C 179.547 284.648, 186.669 289.022, 193.218 288.978 C 199.935 288.933, 207.645 283.724, 209.933 277.685 C 210.629 275.850, 211 259.905, 211 231.885 C 211 185.796, 211.037 186.158, 205.831 181.298 C 200.237 176.074, 192.348 174.750, 185.459 177.880 M 130.500 178.417 C 126.369 180.261, 122.154 184.977, 120.980 189.069 C 119.686 193.581, 119.724 240.466, 121.025 245.152 C 122.388 250.057, 128.626 255.592, 133.771 256.461 C 142.097 257.868, 150.804 252.656, 153.017 244.942 C 154.611 239.383, 154.282 191.595, 152.623 187.718 C 148.910 179.040, 138.711 174.752, 130.500 178.417 M 317.110 493.396 C 311.406 496.557, 310.304 504.458, 314.923 509.077 C 321.365 515.518, 332 511.111, 332 502 C 332 494.160, 324.035 489.557, 317.110 493.396" stroke="none" fill="#050404" fill-rule="evenodd"/></svg>