<svg xmlns="http://www.w3.org/2000/svg" width="512" height="512" viewBox="0 0 512 512" version="1.1"><path d="" stroke="none" fill="#080404" fill-rule="evenodd"/><path d="M 320.863 1.511 C 309.886 5.024, 300.602 14.571, 297.123 25.926 C 296.016 29.542, 292.529 51.159, 289.376 73.965 C 286.223 96.771, 283.521 114.996, 283.370 114.465 C 283.220 113.934, 280.154 95.928, 276.556 74.451 C 272.959 52.973, 269.332 33.398, 268.497 30.951 C 266.395 24.789, 260.420 17.217, 254.266 12.918 C 234.693 -0.757, 207.391 6.715, 197.325 28.500 C 192.931 38.008, 193.138 43.027, 200.410 103.465 C 203.981 133.146, 206.787 157.546, 206.645 157.688 C 206.504 157.830, 204.618 157.457, 202.455 156.860 C 200.292 156.263, 194.918 155.971, 190.511 156.211 C 181.329 156.711, 175.025 159.100, 168.262 164.641 L 163.865 168.245 161.182 165.730 C 159.707 164.347, 156.025 161.934, 153 160.368 C 148.036 157.799, 146.525 157.520, 137.500 157.511 C 128.748 157.501, 126.792 157.832, 121.825 160.160 C 113.881 163.885, 107.603 170.030, 103.750 177.855 L 100.500 184.455 100.192 235.977 C 99.859 291.661, 100.542 305.826, 104.518 325.602 C 110.582 355.762, 120.415 373.740, 142.166 394.436 L 153.162 404.899 152.436 452.267 C 152.036 478.320, 152.010 501.242, 152.379 503.206 C 152.747 505.169, 154.224 507.951, 155.661 509.388 L 158.273 512 219.500 512 L 280.727 512 283.300 509.427 C 287.909 504.819, 287.736 498.627, 282.873 494.096 C 280.646 492.022, 280.064 492, 226.695 492 L 172.767 492 173.133 443.434 L 173.500 394.868 168.957 390.684 C 166.458 388.383, 161.336 383.831, 157.575 380.569 C 136.751 362.508, 125.908 339.068, 122.059 303.789 C 121.052 294.554, 120.579 274, 121.374 274 C 121.580 274, 123.662 274.675, 126 275.500 C 131.665 277.499, 142.307 277.347, 148.583 275.178 L 153.665 273.421 155.366 280.024 C 158.306 291.434, 166.143 300.828, 176.954 305.899 C 181.827 308.184, 183.778 308.500, 193.021 308.500 C 202.890 308.500, 203.955 308.297, 210.206 305.219 C 217.531 301.614, 224.768 294.465, 227.605 288.033 L 229.308 284.175 233.057 286.656 C 240.001 291.252, 244.719 292, 266.746 292 L 287.175 292 281.254 296.948 C 261.650 313.328, 249.799 336.791, 248.290 362.207 L 247.714 371.914 251.257 375.457 C 254.941 379.141, 257.768 379.799, 262.383 378.045 C 266.590 376.445, 268.241 372.665, 269.086 362.691 C 270.129 350.394, 273.884 338.953, 279.858 329.869 C 290.320 313.961, 309.437 299.980, 330.296 292.980 C 334.430 291.593, 337.857 289.726, 339.046 288.215 C 341.268 285.389, 341.654 278.384, 339.718 276 C 335.997 271.418, 337.081 271.527, 289.912 271 L 245.129 270.500 241.938 267.500 C 237.911 263.714, 234.023 255.586, 234.010 250.929 C 233.996 245.924, 238.776 236.982, 242.940 234.223 L 246.380 231.943 309.440 232.222 C 371.878 232.497, 372.539 232.521, 376.500 234.658 C 381.881 237.562, 385.441 241.491, 388.134 247.500 C 391.287 254.533, 391.944 272.973, 389.491 285.570 C 381.379 327.227, 353.130 371.594, 322 391.569 C 317.875 394.215, 313.952 397.083, 313.282 397.941 C 312.385 399.089, 312.055 407.763, 312.032 430.827 L 312 462.154 314.923 465.077 C 319.039 469.193, 324.961 469.193, 329.077 465.077 L 332 462.154 332 436.114 L 332 410.075 338.188 405.872 C 367.604 385.896, 396.732 341.478, 407.288 300.500 C 411.285 284.982, 412.321 276.276, 411.779 262.761 C 411.205 248.457, 408.494 239.139, 402.283 230.120 C 394.007 218.104, 381.565 212.099, 363.208 211.261 L 351.916 210.745 352.488 206.623 C 352.803 204.355, 356.909 164.925, 361.611 119 C 370.869 28.590, 370.809 29.955, 365.959 19.637 C 362.994 13.329, 356.288 6.777, 349.295 3.356 C 344.572 1.045, 342.083 0.529, 334.556 0.301 C 328.598 0.121, 323.914 0.534, 320.863 1.511 M 328 21.167 C 323.420 22.458, 318.208 27.542, 316.926 31.972 C 316.364 33.912, 311.053 69.881, 305.124 111.902 L 294.344 188.303 291.156 191.152 C 285.970 195.786, 277.531 194.277, 275.184 188.297 C 274.581 186.759, 268.630 152.875, 261.961 113 C 253.588 62.936, 249.212 39.180, 247.821 36.236 C 241.989 23.886, 222.521 23.954, 216.641 36.345 C 215.738 38.246, 215 41.910, 215 44.486 C 215 47.061, 218.825 81.334, 223.500 120.646 C 229.658 172.433, 232 195.381, 232 203.950 L 232 215.777 237.750 213.412 C 243.491 211.051, 243.567 211.047, 287.205 211.024 L 330.909 211 331.440 207.750 C 333.499 195.148, 348.964 35.323, 348.410 32.371 C 347.363 26.789, 342.841 22.346, 336.913 21.075 C 334.157 20.484, 331.811 20.041, 331.701 20.090 C 331.590 20.140, 329.925 20.624, 328 21.167 M 188.843 176.943 C 184.215 178.396, 180.486 181.076, 177.954 184.772 L 175.500 188.353 175.500 232.500 L 175.500 276.646 178.161 280.667 C 184.950 290.927, 201.048 290.927, 207.839 280.668 L 210.500 276.649 210.781 233.704 C 211.056 191.654, 211.018 190.669, 208.935 186.366 C 205.579 179.433, 195.688 174.795, 188.843 176.943 M 128.284 180.093 C 126.516 181.226, 124.153 183.634, 123.034 185.445 C 121.114 188.551, 121 190.323, 121 217 C 121 243.750, 121.110 245.442, 123.050 248.582 C 129.238 258.593, 144.728 258.649, 150.887 248.682 C 152.732 245.698, 152.892 243.440, 153.102 217.483 C 153.356 186.050, 153.208 185.252, 146.257 180.529 C 141.400 177.229, 133.072 177.027, 128.284 180.093 M 314.923 494.923 C 312.631 497.216, 312 498.742, 312 502 C 312 505.258, 312.631 506.784, 314.923 509.077 C 321.365 515.518, 332 511.111, 332 502 C 332 498.742, 331.369 497.216, 329.077 494.923 C 326.784 492.631, 325.258 492, 322 492 C 318.742 492, 317.216 492.631, 314.923 494.923" stroke="none" fill="#040404" fill-rule="evenodd"/></svg>