<svg xmlns="http://www.w3.org/2000/svg" width="512" height="512" viewBox="0 0 512 512" version="1.1"><path d="M 334.962 22.250 C 331.976 23.756, 329.779 25.823, 328.320 28.500 C 326.806 31.276, 321.218 56.054, 310.051 109.500 C 294.283 184.971, 293.904 186.555, 290.966 189.250 C 286.907 192.974, 282.106 192.960, 277.913 189.213 L 274.794 186.427 268.832 110.463 C 262.320 27.482, 262.613 29.407, 255.965 25.842 C 250.989 23.173, 241.909 23.361, 236.788 26.239 C 232.593 28.597, 228.652 34.311, 227.542 39.643 C 227.182 41.371, 227.613 74.194, 228.498 112.582 C 230.073 180.850, 230.067 182.434, 228.214 184.939 C 224.113 190.485, 217.420 191.205, 213.065 186.569 C 211.627 185.039, 203.225 161.813, 188.502 118.671 C 176.194 82.607, 165.656 52.226, 165.085 51.158 C 162.111 45.602, 152.838 41.259, 146.666 42.530 C 138.563 44.200, 132.073 51.910, 132.022 59.929 C 132.010 61.815, 141.249 90.615, 152.554 123.929 L 173.108 184.500 172.804 212 L 172.500 239.500 169.110 245.752 C 164.985 253.357, 158.747 259.295, 151.175 262.824 C 146.335 265.080, 144.176 265.464, 136.500 265.436 C 130.263 265.413, 126.308 264.879, 123.619 263.698 L 119.739 261.993 120.269 283.746 C 121.528 335.353, 132.398 361.036, 163.679 386.310 C 168.073 389.860, 171.252 393.283, 171.911 395.174 C 172.654 397.306, 172.783 412.694, 172.329 445.127 L 171.674 492 225.914 492 L 280.154 492 283.077 494.923 C 284.685 496.531, 286 498.781, 286 499.923 C 286 501.918, 286.507 502, 298.922 502 L 311.845 502 313.006 498.483 C 314.207 494.842, 318.129 492, 321.950 492 C 323.901 492, 324 491.429, 324 480.158 L 324 468.317 320.163 467.167 C 312.309 464.814, 312.500 465.731, 312.500 430.313 L 312.500 398.836 315.628 396.168 C 317.348 394.701, 321.623 391.715, 325.128 389.533 C 333.664 384.219, 347.704 370.542, 355.956 359.500 C 371.460 338.756, 381.561 318.293, 388.288 294 C 391.232 283.370, 391.474 281.327, 391.486 266.982 L 391.500 251.464 388.167 244.691 C 385.819 239.919, 383.706 237.172, 381.014 235.391 C 372.912 230.029, 372.515 230, 307.291 230 C 240.448 230, 243.621 229.698, 238.379 236.570 C 230.307 247.152, 233.550 262.971, 244.975 268.750 C 249.383 270.979, 249.821 271, 292.289 271 L 335.154 271 338.077 273.923 C 340.303 276.149, 340.995 277.759, 340.978 280.673 C 340.946 286.225, 338.545 288.504, 329.138 291.912 C 310.411 298.698, 292.951 310.694, 283.330 323.387 C 274.169 335.472, 268.055 352.992, 267.978 367.381 C 267.928 376.666, 258.522 381.128, 251.766 375.073 C 248.520 372.164, 248.501 372.093, 248.640 363.323 C 248.908 346.352, 255.555 327.052, 265.921 313.141 C 270.784 306.615, 279.823 297.323, 285.262 293.258 L 288.024 291.193 265.739 290.847 L 243.453 290.500 236.872 287.259 C 217.020 277.482, 208.243 252.559, 217.498 232.247 C 220.715 225.188, 228.989 216.644, 235.891 213.255 L 241.500 210.500 286.941 210 L 332.382 209.500 345.661 125 C 352.965 78.525, 358.954 37.973, 358.970 34.885 C 359.006 28.170, 356.769 24.708, 350.579 21.896 C 345.131 19.422, 340.356 19.530, 334.962 22.250 M 132.365 174.943 C 127.831 176.038, 123.489 179.450, 121.623 183.381 C 120.266 186.242, 120 190.727, 120 210.753 C 120 233.947, 120.071 234.812, 122.258 238.102 C 124.867 242.027, 132.049 246.010, 136.462 245.978 C 141.063 245.945, 147.412 242.634, 150.099 238.867 C 152.441 235.583, 152.508 234.931, 152.818 212.500 C 153.016 198.163, 152.734 188.139, 152.069 185.887 C 149.726 177.954, 140.684 172.932, 132.365 174.943" stroke="none" fill="#fadad2" fill-rule="evenodd"/><path d="M 331.254 1.404 C 325.302 3.342, 317.527 8.542, 314.136 12.852 C 308.203 20.393, 306.868 24.858, 297.960 66.953 C 293.124 89.804, 289.126 107.825, 289.074 107 C 287.969 89.273, 282.809 30.684, 282.158 28.472 C 276.887 10.562, 258.964 0.379, 239.063 3.988 C 226.168 6.327, 216.798 13.555, 210.785 25.803 L 207.500 32.496 207.624 71.998 C 207.692 93.724, 207.507 110.825, 207.212 110 C 206.917 109.175, 201.766 94.100, 195.765 76.500 C 189.764 58.900, 183.794 42.674, 182.498 40.442 C 179.201 34.766, 171.871 28.299, 165.175 25.160 C 160.278 22.865, 158.197 22.500, 150 22.500 C 141.402 22.500, 139.864 22.802, 133.799 25.674 C 118.434 32.954, 109.352 49.423, 111.975 65.250 C 112.454 68.137, 119.180 89.159, 126.923 111.965 C 134.665 134.771, 141 153.498, 141 153.581 C 141 153.664, 137.895 153.953, 134.099 154.225 C 120.456 155.201, 108.593 163.400, 102.595 176 L 99.500 182.500 99.175 231 C 98.724 298.085, 100.538 319.822, 108.602 344 C 115.211 363.813, 123.726 376.769, 141.047 393.367 L 152 403.863 152 455.008 L 152 506.154 154.923 509.077 L 157.846 512 219.235 512 C 280.178 512, 280.639 511.985, 282.873 509.904 C 284.110 508.751, 285.519 506.764, 286.004 505.489 C 287.260 502.187, 285.428 496.482, 282.331 494.045 C 279.784 492.042, 278.617 492, 225.702 492 L 171.674 492 172.329 445.127 C 172.783 412.694, 172.654 397.306, 171.911 395.174 C 171.252 393.283, 168.073 389.860, 163.679 386.310 C 132.398 361.036, 121.528 335.353, 120.269 283.746 L 119.739 261.993 123.619 263.698 C 126.308 264.879, 130.263 265.413, 136.500 265.436 C 144.176 265.464, 146.335 265.080, 151.175 262.824 C 158.747 259.295, 164.985 253.357, 169.110 245.752 L 172.500 239.500 172.804 212 L 173.108 184.500 152.554 123.929 C 141.249 90.615, 132.010 61.815, 132.022 59.929 C 132.073 51.910, 138.563 44.200, 146.666 42.530 C 152.838 41.259, 162.111 45.602, 165.085 51.158 C 165.656 52.226, 176.194 82.607, 188.502 118.671 C 203.225 161.813, 211.627 185.039, 213.065 186.569 C 217.420 191.205, 224.113 190.485, 228.214 184.939 C 230.067 182.434, 230.073 180.850, 228.498 112.582 C 227.613 74.194, 227.182 41.371, 227.542 39.643 C 228.652 34.311, 232.593 28.597, 236.788 26.239 C 241.909 23.361, 250.989 23.173, 255.965 25.842 C 262.613 29.407, 262.320 27.482, 268.832 110.463 L 274.794 186.427 277.913 189.213 C 282.106 192.960, 286.907 192.974, 290.966 189.250 C 293.904 186.555, 294.283 184.971, 310.051 109.500 C 321.218 56.054, 326.806 31.276, 328.320 28.500 C 330.863 23.834, 337.506 19.988, 342.962 20.022 C 347.650 20.051, 354.135 23.085, 356.829 26.509 C 358.483 28.613, 358.993 30.605, 358.970 34.885 C 358.954 37.973, 352.965 78.525, 345.661 125 L 332.382 209.500 286.941 210 L 241.500 210.500 235.891 213.255 C 228.989 216.644, 220.715 225.188, 217.498 232.247 C 208.243 252.559, 217.020 277.482, 236.872 287.259 L 243.453 290.500 265.739 290.847 L 288.024 291.193 285.262 293.258 C 279.823 297.323, 270.784 306.615, 265.921 313.141 C 255.555 327.052, 248.908 346.352, 248.640 363.323 C 248.501 372.093, 248.520 372.164, 251.766 375.073 C 258.522 381.128, 267.928 376.666, 267.978 367.381 C 268.055 352.992, 274.169 335.472, 283.330 323.387 C 292.951 310.694, 310.411 298.698, 329.138 291.912 C 338.545 288.504, 340.946 286.225, 340.978 280.673 C 340.995 277.759, 340.303 276.149, 338.077 273.923 L 335.154 271 292.289 271 C 249.821 271, 249.383 270.979, 244.975 268.750 C 233.550 262.971, 230.307 247.152, 238.379 236.570 C 243.621 229.698, 240.448 230, 307.291 230 C 372.515 230, 372.912 230.029, 381.014 235.391 C 383.706 237.172, 385.819 239.919, 388.167 244.691 L 391.500 251.464 391.486 266.982 C 391.474 281.327, 391.232 283.370, 388.288 294 C 381.561 318.293, 371.460 338.756, 355.956 359.500 C 347.704 370.542, 333.664 384.219, 325.128 389.533 C 321.623 391.715, 317.348 394.701, 315.628 396.168 L 312.500 398.836 312.500 430.313 C 312.500 465.646, 312.332 464.821, 320 467.118 C 323.014 468.021, 324.259 467.918, 326.916 466.543 C 332.502 463.655, 333 460.953, 333 433.569 L 333 409.075 339.213 404.855 C 364.560 387.643, 391.176 349.706, 403.931 312.612 C 410.205 294.364, 412.294 282.950, 412.368 266.500 C 412.460 245.836, 408.403 233.689, 397.900 223.186 C 389.076 214.362, 379.614 210.680, 362.545 209.427 C 353.538 208.765, 353.055 208.615, 353.500 206.614 C 353.758 205.451, 359.860 166.925, 367.059 121 C 376.941 57.964, 380.029 36.065, 379.660 31.644 C 378.650 19.564, 370.664 8.498, 359.120 3.183 C 352.286 0.036, 338.212 -0.862, 331.254 1.404 M 132.365 174.943 C 127.831 176.038, 123.489 179.450, 121.623 183.381 C 120.266 186.242, 120 190.727, 120 210.753 C 120 233.947, 120.071 234.812, 122.258 238.102 C 124.867 242.027, 132.049 246.010, 136.462 245.978 C 141.063 245.945, 147.412 242.634, 150.099 238.867 C 152.441 235.583, 152.508 234.931, 152.818 212.500 C 153.016 198.163, 152.734 188.139, 152.069 185.887 C 149.726 177.954, 140.684 172.932, 132.365 174.943 M 316.786 493.553 C 310.756 496.826, 310.945 507.369, 317.091 510.547 C 325.563 514.928, 334.455 507.855, 331.938 498.738 C 330.240 492.589, 323.078 490.138, 316.786 493.553" stroke="none" fill="#050505" fill-rule="evenodd"/></svg>