<svg xmlns="http://www.w3.org/2000/svg" width="14.445" height="14.462" viewBox="0 0 14.445 14.462">
  <path id="Path_153" data-name="Path 153" d="M8.319,8.378l6.014-6.535a.4.4,0,0,0-.024-.577L13.155.111a.4.4,0,0,0-.553,0L6.066,6.125a.4.4,0,0,0,0,.577L7.742,8.378a.4.4,0,0,0,.577,0Zm-3.44-.89,2.093,2.1a.8.8,0,0,1,.249.457v.393a3.208,3.208,0,0,1-.938,2.277,6.223,6.223,0,0,1-4.739,1.732,2.326,2.326,0,0,1-1.427-.481.4.4,0,0,1-.048-.505,4.772,4.772,0,0,0,.714-2.609A3.626,3.626,0,0,1,1.744,8.17a3.208,3.208,0,0,1,2.269-.938,3.134,3.134,0,0,1,.393,0A.874.874,0,0,1,4.879,7.488Z" fill="#5a6168" fill-rule="evenodd"/>
</svg>
