<?xml version="1.0" encoding="utf-8"?><!-- Uploaded to: SVG Repo, www.svgrepo.com, Generator: SVG Repo Mixer Tools -->
<svg width="800px" height="800px" viewBox="0 0 128 128" xmlns="http://www.w3.org/2000/svg" xmlns:xlink="http://www.w3.org/1999/xlink" aria-hidden="true" role="img" class="iconify iconify--noto" preserveAspectRatio="xMidYMid meet"><path d="M67.79 14.3s4.54 4.26 11.47 6.97c8.09 3.17 21.9 1.34 25.27 7.67c3.52 6.62-3.76 14.22-2.53 18.16c1.21 3.89 13.06 4.56 14.5 13.66c1.48 9.36-6.09 13.23-5.35 16.33c.86 3.59 9.36 5 9.57 11.68c.16 5.21-4.65 10.01-5.06 13.23c-.7 5.43 2.8 8.23.77 13.52c-1.13 2.94-3.87 4.36-5.84 4.79s-14.5-19.15-14.5-19.15L65.68 17.54l2.11-3.24z" fill="#825948"></path><path d="M49.12 31.85s-12.2 8.45-18.11 15.2s-12.86 14.83-13.33 15.2c-.47.38-8.82 4.79-10.79 12.67c-1.31 5.23 1.69 12.76 6.1 15.2s8.68 2 13.61-.66c4.88-2.63 8.35-5.35 8.35-5.35s9.83.11 13.8-.19c5.07-.38 10.89-1.5 10.89-1.5s-2.57 9.93-3.38 16.32c-1.01 7.97-3.94 19.44-3.19 20.38c.75.94 7.91 2.8 18.49 3.57c12.17.88 27.36-.25 31.01-.88c4.05-.7 7.66-1.09 8.04-1.79c.38-.7-1.31-12.9-2.53-21.47c-2.51-17.58-11.38-41.07-14.48-46.98c-3.1-5.91-6.73-11.74-11.33-16.72s-7.7-6.57-7.7-6.57s1.03-2.53.66-5.54s-5.16-12.58-6.1-14.36c-.94-1.78-2.5-5.09-4.48-4.93c-1.76.14-3.31 5.96-4.43 9.81s-4.04 12.29-4.04 12.29l-7.06 6.3z" fill="#4a5aed"></path><path d="M26.31 22.84c-1.58.98.76 8.44 4.6 12.2c4.32 4.22 11 6.76 19.64 4.32c8.63-2.44 10.77-7.98 10.77-7.98s-2.82-3.28-3-7.13s1.6-9.76 1.6-9.76s-2.82-1.31-7.88.75s-12.43 10.02-16.06 10.51c-4.88.66-7.7-4.13-9.67-2.91z" fill="#825948"></path><ellipse transform="rotate(-3.624 53.564 54.101)" cx="53.55" cy="54.13" rx="4.41" ry="5.28" fill="#00000d"></ellipse><path d="M67.79 75.04c-3.24 2.67-6.93 4.63-9.27 5.89c-1.69.92-5.3 2.14-6.22 2.42c-.92.28 2.3.31 4.15.35c3.24.08 10.98-.77 14.08-2.67c3.1-1.9 5.51-8.68 6.01-10.51c.49-1.83 2.67-8.87.7-8.94s-5.53 10.23-9.45 13.46z" fill="#2233c9"></path><path d="M32.11 49.21s-7.04 7.88-8.17 9.15c-1.13 1.27-4.5 6.34-4.5 6.34s-5.14 1.9-7.67 5.07s-4.08 8.31-1.97 13.16s5.77 8.38 11.68 6.69c6.44-1.84 12.04-7.46 12.04-7.46s8.52.35 11.12.21c2.6-.14 13.02-3.45 13.02-3.45l-21.05-34.7l-4.5 4.99z" fill="url(#IconifyId17ecdb2904d178eab9187)"></path><path d="M17.96 70.12c-1.36 1.2.21 3.59.77 4.86s.07 3.73 1.83 3.8c1.76.07 3.24-4.29 2.39-6.55c-.84-2.25-3.23-3.66-4.99-2.11z" fill="#2233c9"></path><path d="M12.33 89.99s2.63-1.69 4.18-2.67s7.7-6.15 7.7-6.15l1.83 1.64s-3.38 3.52-5.77 5.44c-2.39 1.92-3.85 2.49-5.3 2.63c-1.43.14-2.64-.89-2.64-.89z" fill="#2d3133"></path><path d="M26.41 79.06c1.64.82.74 2.62.28 3.33c-.61.94-2.06 2.06-3.24 1.08c-1.17-.99.28-3.28.94-3.89c.48-.46 1.45-.8 2.02-.52z" fill="#000502"></path></svg>