<svg xmlns="http://www.w3.org/2000/svg" xmlns:xlink="http://www.w3.org/1999/xlink" version="1.1" x="0px" y="0px" viewBox="0 0 96 96" enable-background="new 0 0 96 96" xml:space="preserve"><g fill="gold"><path d="M82.921,70.223c0,7.002-5.696,12.698-12.698,12.698h-6.666V88h6.666C80.025,88,88,80.025,88,70.223v-6.666h-5.079V70.223z"/><path d="M70.223,8h-6.666v5.08h6.666c7.002,0,12.698,5.696,12.698,12.698v6.667H88v-6.667C88,15.975,80.025,8,70.223,8z"/><path d="M8,25.778v6.667h5.08v-6.667c0-7.002,5.696-12.698,12.698-12.698h6.667V8h-6.667C15.975,8,8,15.975,8,25.778z"/><path d="M13.08,70.223v-6.666H8v6.666C8,80.025,15.975,88,25.778,88h6.667v-5.079h-6.667C18.776,82.921,13.08,77.225,13.08,70.223z   "/></g></svg>
