<?xml version="1.0" encoding="iso-8859-1"?>
<!-- Uploaded to: SVG Repo, www.svgrepo.com, Generator: SVG Repo Mixer Tools -->
<svg height="800px" width="800px" version="1.1" id="Layer_1" xmlns="http://www.w3.org/2000/svg" xmlns:xlink="http://www.w3.org/1999/xlink" 
	 viewBox="0 0 512 512" xml:space="preserve">
<g>
	<path style="fill:#B3B3B3;" d="M502.229,246.504c-1.945-18.144-12.202-34.41-27.84-43.814
		c-113.957-68.538-240.025-98.201-240.025-98.201v54.11l-65.502-22.783l-44.142,44.142l-81.165-38.447l34.175,136.7l59.806-17.087
		h25.631l37.023,128.155c0,0,54.11,28.479,193.658,14.239l28.479-59.806l-45.566,19.935c0,0-99.676-11.392-162.33-74.045
		l-19.935-42.718c128.155,0,247.768,51.262,247.768,51.262l18.511,46.99l10.265-10.265
		C494.26,311.646,505.727,279.16,502.229,246.504z"/>
	<polygon style="fill:#B3B3B3;" points="9.144,183.936 31.087,315.877 77.729,278.21 54.159,183.936 	"/>
</g>
<polygon style="fill:#4D4D4D;" points="268.537,158.597 314.104,158.597 358.246,202.74 279.929,202.74 "/>
<g>
	<path style="fill:#333333;" d="M511.319,245.53c-2.244-20.948-14.289-39.892-32.219-50.677
		c-113.864-68.482-241.367-98.965-242.643-99.265c-2.717-0.64-5.582-0.002-7.771,1.732c-2.191,1.735-3.467,4.374-3.467,7.167v41.248
		l-53.355-18.558c-3.31-1.151-6.989-0.308-9.47,2.17l-39.585,39.586l-75.341-35.688c-3.195-1.513-6.977-1.048-9.712,1.192
		c-2.735,2.242-3.932,5.859-3.073,9.289l7.766,31.065H9.144c-2.687,0-5.239,1.183-6.976,3.232s-2.485,4.761-2.044,7.411
		l21.944,131.942c0.534,3.208,2.731,5.891,5.77,7.047c1.053,0.401,2.155,0.597,3.248,0.597c2.059,0,4.093-0.696,5.746-2.03
		l45.196-36.5l56.787-16.225h17.475l35.115,121.549c0.69,2.389,2.324,4.395,4.525,5.553c1.846,0.972,37.87,19.288,124.054,19.288
		c21.67,0,46.524-1.159,74.791-4.043c3.176-0.324,5.954-2.282,7.327-5.165l28.479-59.806c1.641-3.446,0.968-7.55-1.687-10.292
		c-2.656-2.742-6.737-3.546-10.233-2.015l-34.577,15.127l-1.13-7.784c-0.725-4.998-5.365-8.456-10.361-7.735
		c-4.998,0.725-8.461,5.364-7.735,10.363l1.066,7.338c-5.302-0.99-12.154-2.419-20.103-4.414l0.39-7.082
		c0.279-5.042-3.583-9.354-8.627-9.632c-5.001-0.28-9.354,3.584-9.631,8.627l-0.168,3.059c-5.317-1.634-10.888-3.481-16.63-5.569
		v-14.242c0-5.05-4.093-9.143-9.143-9.143s-9.143,4.094-9.143,9.143v6.959c-5.412-2.354-10.887-4.923-16.364-7.723v-12.628
		c0-5.05-4.093-9.143-9.143-9.143s-9.143,4.094-9.143,9.143v2.341c-12.736-7.883-25.079-17.165-36.19-28.081l-13.068-28.005
		c4.406,0.132,8.798,0.323,13.173,0.567l1.643,9.424c0.775,4.444,4.636,7.574,8.997,7.574c0.522,0,1.05-0.045,1.581-0.138
		c4.975-0.868,8.305-5.604,7.438-10.578l-0.855-4.903c7.099,0.642,14.131,1.413,21.069,2.292l-3.26,5.994
		c-2.413,4.436-0.772,9.988,3.665,12.401c1.387,0.755,2.884,1.113,4.36,1.113c3.242,0,6.382-1.729,8.041-4.777l6.513-11.976
		c7.165,1.133,14.199,2.368,21.084,3.679l-3.79,8.413c-2.074,4.605-0.024,10.019,4.58,12.093c1.219,0.55,2.496,0.81,3.751,0.81
		c3.486,0,6.816-2.005,8.341-5.39l5.486-12.177c8.606,1.873,16.913,3.838,24.852,5.847l-2.598,2.598
		c-3.571,3.571-3.571,9.36,0.001,12.931c1.785,1.785,4.126,2.677,6.465,2.677c2.34,0,4.68-0.892,6.466-2.678l10.07-10.071
		c7.852,2.213,15.212,4.418,22.01,6.549l-3.895,3.895c-3.571,3.571-3.571,9.361,0,12.93c1.786,1.785,4.127,2.678,6.466,2.678
		c2.339,0,4.68-0.892,6.466-2.678l10.438-10.438c6.385,2.192,11.901,4.187,16.452,5.882l-5.198,4.045
		c-3.987,3.1-4.702,8.846-1.601,12.831c1.803,2.316,4.497,3.529,7.222,3.529c1.963,0,3.94-0.629,5.609-1.929l8.235-6.408
		l14.033,35.622c1.129,2.867,3.628,4.973,6.644,5.601c0.619,0.129,1.243,0.191,1.862,0.191c2.4,0,4.734-0.946,6.466-2.678
		l10.265-10.265C502.806,316.031,515.132,281.111,511.319,245.53z M19.935,193.079h27.087l20.422,81.685l-29.907,24.152
		L19.935,193.079z M57.114,158.05l59.327,28.102l10.8,68.402l-42.934,12.267L57.114,158.05z M134.477,183.13l36.796-36.796
		l40.345,14.032l-24.274,12.946c-3.106,1.657-4.985,4.948-4.833,8.464l2.58,59.335l-23.904,10.866h-15.838L134.477,183.13z
		 M375.72,372.732c1.601,0.183,3.226-0.061,4.702-0.708l23.107-10.109l-15.721,33.013c-112.142,10.749-166.641-6.959-180.024-12.295
		l-33.643-116.455l15.893-7.223l16.106,34.515c0.451,0.966,1.067,1.846,1.82,2.599C272.135,360.239,371.52,372.251,375.72,372.732z
		 M464.57,328.404l-0.404,0.405l-13.399-34.015c-0.895-2.271-2.663-4.09-4.906-5.053c-4.841-2.075-117.511-49.756-242.611-51.925
		l-2.22-51.077l37.636-20.073c2.98-1.59,4.841-4.691,4.841-8.068v-42.309c33.195,8.951,134.201,38.922,226.17,94.235
		c13.052,7.85,21.822,21.665,23.461,36.953C496.358,277.535,485.945,307.031,464.57,328.404z"/>
	<path style="fill:#333333;" d="M320.57,152.132c-1.715-1.715-4.04-2.678-6.466-2.678h-45.565c-2.827,0-5.497,1.308-7.228,3.544
		c-1.732,2.235-2.332,5.146-1.625,7.884l11.392,44.142c1.041,4.038,4.684,6.859,8.853,6.859h78.317c3.698,0,7.033-2.227,8.447-5.645
		c1.415-3.417,0.634-7.349-1.981-9.964L320.57,152.132z M287.013,193.597l-6.674-25.855h29.977l25.855,25.855L287.013,193.597
		L287.013,193.597z"/>
	<path style="fill:#333333;" d="M470.577,238.475l-14.422-12.619c-3.799-3.325-9.576-2.941-12.902,0.861
		c-3.326,3.8-2.939,9.576,0.861,12.902l14.422,12.619c1.735,1.518,3.88,2.261,6.018,2.261c2.546,0,5.078-1.057,6.884-3.123
		C474.763,247.577,474.377,241.801,470.577,238.475z"/>
</g>
</svg>