<svg height="72pt" preserveAspectRatio="xMidYMid meet" viewBox="0 0 72 72" width="72pt" xmlns="http://www.w3.org/2000/svg"><g transform="matrix(.1 0 0 -.1 0 72)"><path d="m200 700c0-16-7-20-35-20-33 0-35-2-35-35 0-28-4-35-20-35-19 0-20-7-20-95s1-95 20-95c13 0 20-7 20-20s7-20 20-20 20-7 20-20c0-11 7-20 15-20s15-9 15-20-7-20-15-20c-12 0-15-15-15-75s3-75 15-75 15-15 15-75v-75h155 155v75c0 60 3 75 15 75s15 15 15 75-3 75-15 75c-8 0-15 9-15 20s7 20 15 20 15 9 15 20c0 13 7 20 20 20s20 7 20 20 7 20 20 20c19 0 20 7 20 95s-1 95-20 95c-16 0-20 7-20 35 0 33-2 35-35 35-28 0-35 4-35 20 0 19-7 20-155 20s-155-1-155-20zm270-40c0-16 7-20 35-20 33 0 35-2 35-35 0-28 4-35 20-35 18 0 20-7 20-60s-2-60-20-60c-11 0-20-7-20-15s-7-15-15-15-15-9-15-20c0-13-7-20-20-20s-20-7-20-20-7-20-20-20-20-7-20-20 7-20 20-20c11 0 20-7 20-15s9-15 20-15c17 0 20-7 20-40s-3-40-20-40c-13 0-20 7-20 20s-7 20-20 20-20 7-20 20-7 20-20 20c-17 0-20-7-20-40s3-40 20-40c13 0 20-7 20-20s7-20 20-20c18 0 20-7 20-55v-55h-40-40v55 55h-35-35v-55-55h-40-40v55c0 48 2 55 20 55 13 0 20 7 20 20s7 20 20 20c17 0 20 7 20 40s-3 40-20 40c-13 0-20-7-20-20s-7-20-20-20-20-7-20-20-7-20-20-20c-17 0-20 7-20 40s3 40 20 40c11 0 20 7 20 15s9 15 20 15c13 0 20 7 20 20s-7 20-20 20-20 7-20 20-7 20-20 20-20 7-20 20c0 11-7 20-15 20s-15 7-15 15-9 15-20 15c-18 0-20 7-20 60s2 60 20 60c16 0 20 7 20 35 0 33 2 35 35 35 28 0 35 4 35 20 0 19 7 20 115 20s115-1 115-20z"/><path d="m280 510c0-17-7-20-40-20-39 0-40-1-40-35 0-28 4-35 20-35 13 0 20-7 20-20s7-20 20-20 20-7 20-20 7-20 20-20 20-7 20-20c0-16 7-20 35-20s35 4 35 20c0 13 7 20 20 20s20 7 20 20 7 20 20 20 20 7 20 20 7 20 20 20c16 0 20 7 20 35 0 34-1 35-40 35-33 0-40 3-40 20 0 18-7 20-75 20s-75-2-75-20zm110-40c0-16-7-20-35-20s-35 4-35 20 7 20 35 20 35-4 35-20zm0-90c0-39-1-40-35-40s-35 1-35 40 1 40 35 40 35-1 35-40z"/></g></svg>