<?xml version="1.0" encoding="iso-8859-1"?>
<!-- Uploaded to: SVG Repo, www.svgrepo.com, Generator: SVG Repo Mixer Tools -->
<svg height="800px" width="800px" version="1.1" id="Layer_1" xmlns="http://www.w3.org/2000/svg" xmlns:xlink="http://www.w3.org/1999/xlink" 
	 viewBox="0 0 512 512" xml:space="preserve">
<circle style="fill:#4DE1FF;" cx="256" cy="256" r="256"/>
<path style="fill:#096C80;" d="M35.283,281.959c17.613-0.557,33.138-10.662,42.902-25.959
	c10.046,15.739,26.214,26.013,44.472,26.013c18.244,0,34.366-10.274,44.427-26.013c10.077,15.739,26.214,26.013,44.457,26.013
	c18.259,0,34.381-10.274,44.443-26.013c10.046,15.739,26.214,26.013,44.457,26.013c18.243,0,34.382-10.274,44.443-26.013
	c10.077,15.739,26.214,26.013,44.457,26.013c18.244,0,34.382-10.274,44.443-26.013c9.765,15.297,25.319,25.402,42.934,25.959
	C463.819,392.317,369.764,478.242,256,478.242S48.181,392.317,35.283,281.959c17.615-0.557,33.169-10.662,42.934-25.959
	c10.061,15.739,26.199,26.013,44.443,26.013c18.243,0,34.381-10.274,44.457-26.013c10.061,15.739,26.2,26.013,44.443,26.013
	S245.97,271.739,256.017,256c10.062,15.739,26.184,26.013,44.443,26.013c18.244,0,34.382-10.274,44.457-26.013
	c10.061,15.739,26.183,26.013,44.427,26.013c18.259,0,34.426-10.274,44.472-26.013c9.764,15.297,25.289,25.402,42.902,25.959"/>
<g>
	<path style="fill:#064855;" d="M438.857,196.923c-2.965,0-5.712-1.555-7.238-4.098c-2.063-3.438-5.667-5.49-9.641-5.49
		c-4.662,0-8.44-3.778-8.44-8.44s3.778-8.44,8.44-8.44c6.145,0,12.067,2.058,16.879,5.67c4.812-3.612,10.734-5.67,16.879-5.67
		c4.662,0,8.44,3.778,8.44,8.44s-3.778,8.44-8.44,8.44c-3.974,0-7.579,2.053-9.641,5.49
		C444.569,195.368,441.822,196.923,438.857,196.923z"/>
	<path style="fill:#064855;" d="M371.341,153.576c-2.965,0-5.712-1.555-7.238-4.098c-2.063-3.438-5.667-5.49-9.641-5.49
		c-4.662,0-8.44-3.778-8.44-8.44c0-4.662,3.778-8.44,8.44-8.44c6.145,0,12.067,2.058,16.879,5.67
		c4.812-3.612,10.734-5.67,16.879-5.67c4.662,0,8.44,3.778,8.44,8.44c0,4.662-3.778,8.44-8.44,8.44c-3.974,0-7.579,2.053-9.641,5.49
		C377.053,152.022,374.306,153.576,371.341,153.576z"/>
	<path style="fill:#064855;" d="M140.659,196.923c-2.965,0-5.712-1.555-7.238-4.098c-2.063-3.438-5.667-5.49-9.641-5.49
		c-4.662,0-8.44-3.778-8.44-8.44s3.778-8.44,8.44-8.44c6.145,0,12.067,2.058,16.879,5.67c4.812-3.612,10.734-5.67,16.879-5.67
		c4.662,0,8.44,3.778,8.44,8.44s-3.778,8.44-8.44,8.44c-3.974,0-7.579,2.053-9.641,5.49
		C146.371,195.368,143.624,196.923,140.659,196.923z"/>
</g>
<circle style="fill:#FFC240;" cx="256" cy="144.879" r="53.451"/>
</svg>