<?xml version="1.0"?>
<svg xmlns="http://www.w3.org/2000/svg" xmlns:xlink="http://www.w3.org/1999/xlink" xmlns:svgjs="http://svgjs.com/svgjs" version="1.1" width="512" height="512" x="0" y="0" viewBox="0 0 32 32" style="enable-background:new 0 0 512 512" xml:space="preserve" class=""><g>
<g xmlns="http://www.w3.org/2000/svg">
	<g id="fullscreen_x5F_exit_x5F_alt">
		<g>
			<polygon style="" points="22.586,25.414 29.172,32 32,29.172 25.414,22.586 28,20 20,20 20,28    " fill="#32e0c4" data-original="#030104"/>
			<polygon style="" points="6.547,9.371 4,12 11.961,11.957 12,4 9.375,6.543 2.828,0 0,2.828    " fill="#32e0c4" data-original="#030104"/>
			<polygon style="" points="0,29.172 2.828,32 9.414,25.414 12,28 12,20 4,20 6.586,22.586    " fill="#32e0c4" data-original="#030104"/>
			<polygon style="" points="28.031,12 25.438,9.404 32,2.838 29.164,0 22.598,6.566 20,3.971 20,12    " fill="#32e0c4" data-original="#030104"/>
		</g>
	</g>
</g>
<g xmlns="http://www.w3.org/2000/svg">
</g>
<g xmlns="http://www.w3.org/2000/svg">
</g>
<g xmlns="http://www.w3.org/2000/svg">
</g>
<g xmlns="http://www.w3.org/2000/svg">
</g>
<g xmlns="http://www.w3.org/2000/svg">
</g>
<g xmlns="http://www.w3.org/2000/svg">
</g>
<g xmlns="http://www.w3.org/2000/svg">
</g>
<g xmlns="http://www.w3.org/2000/svg">
</g>
<g xmlns="http://www.w3.org/2000/svg">
</g>
<g xmlns="http://www.w3.org/2000/svg">
</g>
<g xmlns="http://www.w3.org/2000/svg">
</g>
<g xmlns="http://www.w3.org/2000/svg">
</g>
<g xmlns="http://www.w3.org/2000/svg">
</g>
<g xmlns="http://www.w3.org/2000/svg">
</g>
<g xmlns="http://www.w3.org/2000/svg">
</g>
</g></svg>
