<svg xmlns="http://www.w3.org/2000/svg" width="124.625" height="124.625" fill="#32e0c4"><path d="M6 92.404h23.1l25.6 19.3c4 3 9.601.2 9.601-4.8v-89.2c0-4.9-5.701-7.8-9.601-4.8l-25.6 19.3H6c-3.3 0-6 2.7-6 6v48.301c0 3.199 2.7 5.899 6 5.899zM122.4 40.604c-2.7-2.7-7.2-2.7-9.9 0l-11.8 11.8-11.8-11.8c-2.7-2.7-7.2-2.7-9.9 0-2.699 2.7-2.699 7.2 0 9.9l11.801 11.8L79 74.104c-2.699 2.7-2.699 7.2 0 9.9 1.4 1.399 3.2 2.1 5 2.1 1.801 0 3.6-.7 5-2.1l11.801-11.801L112.6 84.004c1.4 1.399 3.201 2.1 5 2.1 1.801 0 3.601-.7 5-2.1 2.701-2.7 2.701-7.2 0-9.9l-12-11.8 11.801-11.8c2.699-2.7 2.699-7.2-.001-9.9z"/></svg>