<?xml version="1.0" standalone="no"?>
<!DOCTYPE svg PUBLIC "-//W3C//DTD SVG 1.1//EN" "http://www.w3.org/Graphics/SVG/1.1/DTD/svg11.dtd" >
<svg xmlns="http://www.w3.org/2000/svg">
<metadata></metadata>
<defs>
<font id="arcadeclassicregular" horiz-adv-x="1126" >
<font-face units-per-em="2048" ascent="1638" descent="-410" />
<missing-glyph horiz-adv-x="262" />
<glyph horiz-adv-x="2048" />
<glyph horiz-adv-x="2048" />
<glyph unicode="&#xd;" horiz-adv-x="262" />
<glyph unicode=" "  horiz-adv-x="262" />
<glyph unicode="&#x09;" horiz-adv-x="262" />
<glyph unicode="&#xa0;" horiz-adv-x="262" />
<glyph unicode="!" horiz-adv-x="1433" d="M47 133v143h141v-143h-141zM193 426v434h145v293h436v-287h-139v-147h-148v-146h-145v-147h-149z" />
<glyph unicode="0" d="M2 420v442h139v146h148v145h440v-139h148v-146h145v-442h-139v-145h-146v-148h-442v139h-145v148h-148zM295 420h147v-139h287v587h-145v140h-289v-588z" />
<glyph unicode="1" d="M133 133v143h289v582h-141v150h139v145h295v-870h293v-150h-875z" />
<glyph unicode="2" d="M2 133v289h139v147h148v146h291v147h151v146h-432v-142h-297v142h139v145h736v-139h145v-295h-139v-146h-146v-147h-297v-143h582v-150h-1020z" />
<glyph unicode="3" d="M2 272v150h289v-141h440v284h-436v150h139v147h150v142h-434v149h872v-141h-139v-146h-150v-143h144v-148h145v-294h-139v-148h-733v139h-148z" />
<glyph unicode="4" d="M2 420v295h139v147h148v146h145v145h443v-578h145v-149h-139v-293h-295v287h-586zM295 573h289v287h-150v-145h-139v-142z" />
<glyph unicode="5" d="M2 272v150h289v-141h440v432h-729v440h875v-141h-582v-144h582v-145h145v-442h-139v-148h-733v139h-148z" />
<glyph unicode="6" d="M2 272v590h139v146h148v145h588v-141h-433v-146h-149v-143h582v-148h145v-294h-139v-148h-733v139h-148zM295 281h434v288h-434v-288z" />
<glyph unicode="7" d="M2 866v287h1020v-287h-139v-147h-146v-146h-147v-440h-295v436h139v146h146v147h151v146h-432v-142h-297z" />
<glyph unicode="8" d="M2 272v297h143v144h-143v295h139v145h588v-139h148v-295h-144v-144h289v-294h-139v-148h-733v139h-148zM150 281h579v149h-291v139h-288v-288zM295 858h147v-139h287v289h-434v-150z" />
<glyph unicode="9" d="M2 713v295h139v145h736v-139h145v-588h-139v-145h-146v-148h-587v143h430v146h151v143h-581v148h-148zM295 719h434v289h-434v-289z" />
<glyph unicode="A" d="M2 133v729h139v146h148v145h440v-139h148v-146h145v-735h-289v291h-434v-291h-297zM295 573h434v295h-145v140h-150v-148h-139v-287z" />
<glyph unicode="B" d="M2 133v1020h875v-139h145v-295h-141v-144h141v-294h-139v-148h-881zM295 281h434v288h-434v-288zM295 719h434v289h-434v-289z" />
<glyph unicode="C" d="M2 420v442h139v146h148v145h588v-139h145v-148h-289v142h-289v-142h-149v-436h143v-149h289v141h295v-141h-139v-148h-588v139h-145v148h-148z" />
<glyph unicode="D" d="M2 133v1020h727v-139h148v-146h145v-442h-139v-145h-146v-148h-735zM295 281h295v145h139v442h-145v140h-289v-727z" />
<glyph unicode="E" d="M8 141v1030h1032v-143h-735v-293h440v-151h-440v-293h735v-150h-1032z" />
<glyph unicode="F" d="M2 133v1020h1020v-141h-727v-289h582v-150h-578v-440h-297z" />
<glyph unicode="G" d="M2 420v442h139v146h148v145h733v-141h-578v-146h-149v-436h143v-149h293v284h-143v150h434v-582h-727v139h-145v148h-148z" />
<glyph unicode="H" d="M2 133v1020h289v-434h436v434h295v-1020h-289v436h-434v-436h-297z" />
<glyph unicode="I" d="M104 133v143h289v728h-289v149h875v-141h-289v-729h289v-150h-875z" />
<glyph unicode="J" d="M2 272v150h289v-141h442v872h289v-872h-139v-148h-733v139h-148z" />
<glyph unicode="K" d="M2 133v1020h289v-434h143v143h146v146h147v145h295v-141h-139v-146h-146v-147h-149v-144h141v-145h148v-147h145v-150h-434v139h-146v152h-143v-291h-297z" />
<glyph unicode="L" d="M-72 133v1020h289v-870h586v-150h-875z" />
<glyph unicode="M" d="M2 133v1020h289v-139h147v-150h142v144h147v145h295v-1020h-289v436h-143v-143h-148v143h-143v-436h-297z" />
<glyph unicode="N" d="M2 133v1020h289v-139h147v-146h146v-149h143v434h295v-1020h-289v139h-145v148h-146v149h-143v-436h-297z" />
<glyph unicode="O" d="M2 272v736h139v145h736v-139h145v-733h-139v-148h-733v139h-148zM295 281h434v727h-434v-727z" />
<glyph unicode="P" d="M2 133v1020h875v-139h145v-441h-139v-147h-584v-293h-297zM295 573h434v435h-434v-435z" />
<glyph unicode="Q" d="M2 272v736h139v145h736v-139h145v-588h-141v-143h141v-150h-141v143h-144v-143h-587v139h-148zM295 281h289v149h-144v143h289v435h-434v-727z" />
<glyph unicode="R" d="M2 133v1020h875v-139h145v-441h-289v-143h144v-147h145v-150h-434v139h-146v152h-143v-291h-297zM295 573h295v146h139v289h-434v-435z" />
<glyph unicode="S" d="M2 272v150h289v-141h440v284h-581v148h-148v295h139v145h588v-139h148v-148h-289v142h-293v-285h582v-148h145v-294h-139v-148h-733v139h-148z" />
<glyph unicode="T" d="M-72 1004v149h875v-141h-287v-879h-295v871h-293z" />
<glyph unicode="U" d="M2 272v881h289v-872h436v872h295v-872h-139v-148h-733v139h-148z" />
<glyph unicode="V" d="M2 565v588h289v-430h147v-152h142v144h147v438h295v-580h-139v-147h-146v-145h-147v-148h-148v139h-147v148h-145v145h-148z" />
<glyph unicode="W" d="M2 133v1020h289v-434h143v141h150v-141h143v434h295v-1020h-289v139h-145v152h-144v-143h-145v-148h-297z" />
<glyph unicode="X" d="M2 133v289h139v147h150v144h-141v145h-148v295h289v-139h147v-150h142v144h147v145h295v-287h-139v-147h-150v-144h144v-145h145v-297h-289v139h-145v152h-144v-143h-145v-148h-297z" />
<glyph unicode="Y" d="M74 713v440h288v-434h291v434h295v-434h-139v-146h-145v-440h-297v432h-146v148h-147z" />
<glyph unicode="Z" d="M2 133v289h139v147h148v146h145v147h150v142h-582v149h1020v-287h-139v-147h-146v-146h-147v-147h-150v-143h582v-150h-1020z" />
<glyph unicode="a" d="M2 133v729h139v146h148v145h440v-139h148v-146h145v-735h-289v291h-434v-291h-297zM295 573h434v295h-145v140h-150v-148h-139v-287z" />
<glyph unicode="b" d="M2 133v1020h875v-139h145v-295h-141v-144h141v-294h-139v-148h-881zM295 281h434v288h-434v-288zM295 719h434v289h-434v-289z" />
<glyph unicode="c" d="M2 420v442h139v146h148v145h588v-139h145v-148h-289v142h-289v-142h-149v-436h143v-149h289v141h295v-141h-139v-148h-588v139h-145v148h-148z" />
<glyph unicode="d" d="M2 133v1020h727v-139h148v-146h145v-442h-139v-145h-146v-148h-735zM295 281h295v145h139v442h-145v140h-289v-727z" />
<glyph unicode="e" d="M8 141v1030h1032v-143h-735v-293h440v-151h-440v-293h735v-150h-1032z" />
<glyph unicode="f" d="M2 133v1020h1020v-141h-727v-289h582v-150h-578v-440h-297z" />
<glyph unicode="g" d="M2 420v442h139v146h148v145h733v-141h-578v-146h-149v-436h143v-149h293v284h-143v150h434v-582h-727v139h-145v148h-148z" />
<glyph unicode="h" d="M2 133v1020h289v-434h436v434h295v-1020h-289v436h-434v-436h-297z" />
<glyph unicode="i" d="M104 133v143h289v728h-289v149h875v-141h-289v-729h289v-150h-875z" />
<glyph unicode="j" d="M2 272v150h289v-141h442v872h289v-872h-139v-148h-733v139h-148z" />
<glyph unicode="k" d="M2 133v1020h289v-434h143v143h146v146h147v145h295v-141h-139v-146h-146v-147h-149v-144h141v-145h148v-147h145v-150h-434v139h-146v152h-143v-291h-297z" />
<glyph unicode="l" d="M-72 133v1020h289v-870h586v-150h-875z" />
<glyph unicode="m" d="M2 133v1020h289v-139h147v-150h142v144h147v145h295v-1020h-289v436h-143v-143h-148v143h-143v-436h-297z" />
<glyph unicode="n" d="M2 133v1020h289v-139h147v-146h146v-149h143v434h295v-1020h-289v139h-145v148h-146v149h-143v-436h-297z" />
<glyph unicode="o" d="M2 272v736h139v145h736v-139h145v-733h-139v-148h-733v139h-148zM295 281h434v727h-434v-727z" />
<glyph unicode="p" d="M2 133v1020h875v-139h145v-441h-139v-147h-584v-293h-297zM295 573h434v435h-434v-435z" />
<glyph unicode="q" d="M2 272v736h139v145h736v-139h145v-588h-141v-143h141v-150h-141v143h-144v-143h-587v139h-148zM295 281h289v149h-144v143h289v435h-434v-727z" />
<glyph unicode="r" d="M2 133v1020h875v-139h145v-441h-289v-143h144v-147h145v-150h-434v139h-146v152h-143v-291h-297zM295 573h295v146h139v289h-434v-435z" />
<glyph unicode="s" d="M2 272v150h289v-141h440v284h-581v148h-148v295h139v145h588v-139h148v-148h-289v142h-293v-285h582v-148h145v-294h-139v-148h-733v139h-148z" />
<glyph unicode="t" d="M-72 1004v149h875v-141h-287v-879h-295v871h-293z" />
<glyph unicode="u" d="M2 272v881h289v-872h436v872h295v-872h-139v-148h-733v139h-148z" />
<glyph unicode="v" d="M2 565v588h289v-430h147v-152h142v144h147v438h295v-580h-139v-147h-146v-145h-147v-148h-148v139h-147v148h-145v145h-148z" />
<glyph unicode="w" d="M2 133v1020h289v-434h143v141h150v-141h143v434h295v-1020h-289v139h-145v152h-144v-143h-145v-148h-297z" />
<glyph unicode="x" d="M2 133v289h139v147h150v144h-141v145h-148v295h289v-139h147v-150h142v144h147v145h295v-287h-139v-147h-150v-144h144v-145h145v-297h-289v139h-145v152h-144v-143h-145v-148h-297z" />
<glyph unicode="y" d="M74 713v440h288v-434h291v434h295v-434h-139v-146h-145v-440h-297v432h-146v148h-147z" />
<glyph unicode="z" d="M2 133v289h139v147h148v146h145v147h150v142h-582v149h1020v-287h-139v-147h-146v-146h-147v-147h-150v-143h582v-150h-1020z" />
<glyph unicode="&#x2000;" horiz-adv-x="682" />
<glyph unicode="&#x2001;" horiz-adv-x="1365" />
<glyph unicode="&#x2002;" horiz-adv-x="682" />
<glyph unicode="&#x2003;" horiz-adv-x="1365" />
<glyph unicode="&#x2004;" horiz-adv-x="455" />
<glyph unicode="&#x2005;" horiz-adv-x="341" />
<glyph unicode="&#x2006;" horiz-adv-x="227" />
<glyph unicode="&#x2007;" horiz-adv-x="227" />
<glyph unicode="&#x2008;" horiz-adv-x="170" />
<glyph unicode="&#x2009;" horiz-adv-x="273" />
<glyph unicode="&#x200a;" horiz-adv-x="75" />
<glyph unicode="&#x202f;" horiz-adv-x="273" />
<glyph unicode="&#x205f;" horiz-adv-x="341" />
<glyph unicode="&#x25fc;" horiz-adv-x="1157" d="M0 0v1157h1157v-1157h-1157z" />
</font>
</defs>
</svg>
